%
M48
M72
T01C0.0150
T02C0.0256
T03C0.0315
T04C0.0453
T05C0.0476
T06C0.0591
T07C0.0634
T08C0.1236
%
T01
X6176Y5295
X4011Y7066
X4798Y8248
X4798Y9232
X4798Y9822
X4798Y10807
X4602Y11791
X4602Y12381
X5389Y11988
X5586Y12381
X6570Y12381
X6964Y12775
X7161Y12185
X6570Y11791
X7554Y11200
X7948Y11200
X8735Y11988
X7948Y12578
X7357Y13366
X6570Y13366
X6176Y13956
X5783Y14350
X4995Y14940
X4798Y14547
X4602Y13956
X4602Y13563
X4995Y13563
X5586Y15334
X4798Y15531
X4995Y15925
X5192Y16318
X5586Y16515
X5586Y16909
X5586Y17303
X5783Y17696
X5389Y18090
X5389Y18484
X5389Y18877
X5389Y19271
X4602Y19468
X5783Y21240
X6964Y21633
X7357Y21043
X9129Y21043
X9523Y21043
X9523Y19665
X9129Y19665
X8539Y19271
X8932Y18877
X7357Y19074
X6570Y17303
X7751Y15334
X9326Y15137
X10704Y13366
X10901Y11791
X11098Y11397
X11491Y11594
X11885Y11397
X12279Y11397
X13263Y11988
X14247Y12578
X13066Y13366
X13657Y13956
X15625Y14350
X18578Y12578
X18578Y12185
X18972Y12185
X18972Y11791
X18775Y11397
X18578Y11003
X18184Y11200
X17791Y9822
X17397Y9822
X16413Y8838
X15428Y9626
X17003Y7657
X17200Y7263
X17200Y5885
X16806Y5295
X16019Y5885
X17987Y5885
X16806Y3129
X16019Y3129
X14050Y3129
X13657Y3326
X13263Y3129
X12869Y3326
X11688Y3129
X11688Y3523
X11098Y3523
X11098Y3129
X11098Y4114
X11098Y4901
X11098Y5885
X10310Y5885
X9523Y6082
X9129Y6279
X8735Y6082
X9523Y6870
X8539Y8838
X6964Y9822
X10310Y9626
X10704Y9822
X10507Y10216
X10507Y10610
X10901Y10610
X10901Y11003
X13066Y7460
X12476Y6870
X20153Y10413
X20743Y11003
X21728Y10610
X22712Y10610
X23893Y10216
X24483Y10610
X25074Y11003
X25665Y12775
X26452Y12775
X24287Y12775
X22121Y13366
X21728Y13759
X20350Y12381
X19956Y12381
X19562Y12381
X19759Y12972
X19562Y13366
X19169Y13759
X20743Y12185
X22515Y15334
X22515Y16318
X22712Y17696
X22515Y18287
X23499Y18484
X25074Y17303
X25861Y16515
X26452Y16909
X27043Y16515
X26452Y15531
X27043Y14940
X28814Y15334
X28814Y16122
X28814Y16515
X28420Y16712
X29405Y16712
X29798Y15334
X30192Y15334
X30783Y14350
X31964Y14153
X32357Y13759
X32554Y14350
X32357Y15334
X33342Y15334
X33735Y16712
X33342Y17303
X32554Y17303
X31176Y17106
X31176Y17893
X33145Y19271
X34129Y19271
X34326Y18877
X35507Y18484
X36098Y18484
X35310Y17893
X34720Y17696
X35704Y16712
X36098Y15925
X35310Y15925
X39247Y14744
X39247Y11200
X35704Y9232
X34917Y8641
X35310Y8248
X33932Y8641
X33145Y7460
X31767Y7854
X31176Y7854
X30192Y7854
X28814Y7066
X27436Y6279
X28027Y5885
X28027Y4311
X28814Y4311
X30192Y5885
X30980Y4704
X31570Y4704
X31767Y5098
X31570Y5492
X31767Y5885
X32357Y4114
X32357Y3720
X33145Y3720
X34129Y3326
X35113Y3326
X36294Y3326
X36688Y5295
X30980Y3129
X26452Y5098
X25074Y6279
X25665Y6673
X26452Y6673
X26452Y8248
X26649Y9429
X27436Y9822
X24483Y7066
X23302Y6673
X23893Y5492
X23302Y4901
X22712Y3129
X22318Y8838
X25074Y16318
X27043Y17696
X27043Y18287
X26649Y19862
X24287Y20059
X22515Y19862
X22515Y20846
X20546Y19271
X20940Y18877
X20743Y18287
X20940Y17303
X19169Y18287
X19169Y19271
X20153Y20846
X20153Y23011
X16216Y24389
X13460Y23405
X13460Y23011
X13657Y22421
X12869Y22421
X11688Y22618
X10310Y23996
X7554Y23405
X11098Y20059
X12279Y20059
X12672Y20059
X13066Y20059
X12672Y21043
X12279Y20846
X13066Y21240
X15428Y19665
X15822Y19271
X16216Y19271
X17200Y19665
X15625Y18090
X15625Y17500
X16019Y17500
X14838Y18287
X14247Y18287
X14247Y19074
X13657Y19074
X10704Y17696
X9326Y16909
X2830Y13169
X1846Y11988
X2436Y7460
X32161Y21830
X34129Y21830
X34720Y21437
X34917Y20649
X34917Y20059
X35901Y22224
X39247Y22224
X39247Y18681
T02
X36865Y9212
X37338Y8897
X36865Y8582
X37338Y8267
X36865Y7952
T03
X37869Y4704
X37869Y3917
X26255Y10019
X26255Y10807
X26255Y11594
X15231Y8838
X14444Y8838
X14444Y8051
X13657Y8051
X13657Y8838
X15231Y8051
X8539Y10807
X39200Y24314
T04
X19464Y25689
X20251Y7342
T05
X20251Y3208
X19464Y29822
T06
X38854Y10019
X38854Y7145
T07
X22220Y7972
X17731Y7972
X17495Y25059
X21983Y25059
T08
X23893Y24980
X11688Y24980
X11688Y8641
X23893Y8641
M30
