%
M48
M72
T01C0.0150
T02C0.0256
T03C0.0315
T04C0.0453
T05C0.0476
T06C0.0591
T07C0.0634
T08C0.1236
%
T01
X6176Y5295
X4011Y7066
X4798Y8248
X4798Y9232
X4798Y9822
X4798Y10807
X4602Y11791
X4602Y12381
X5389Y11988
X5586Y12381
X6570Y12381
X6964Y12775
X7161Y12185
X6570Y11791
X7554Y11200
X7948Y11200
X8735Y11988
X7948Y12578
X7357Y13366
X6570Y13366
X6176Y13956
X5783Y14350
X4995Y14940
X4798Y14547
X4602Y13956
X4602Y13563
X4995Y13563
X5586Y15334
X4798Y15531
X4995Y15925
X5192Y16318
X5586Y16515
X5586Y16909
X5586Y17303
X5783Y17696
X5389Y18090
X5389Y18484
X5389Y18877
X5389Y19271
X4602Y19468
X5783Y21240
X6964Y21633
X7357Y21240
X8145Y22224
X8932Y22224
X9326Y22224
X9326Y23011
X8932Y23011
X8145Y23208
X6373Y23405
X6373Y24389
X10310Y23996
X11688Y22618
X12869Y22421
X13657Y22421
X13854Y23011
X13854Y23602
X13066Y23208
X13066Y21240
X12672Y21043
X12279Y20846
X12279Y20059
X12672Y20059
X13066Y20059
X13657Y19074
X14247Y19074
X14247Y18287
X14838Y18287
X15625Y18090
X15625Y17500
X16019Y17500
X16216Y19271
X15822Y19271
X15428Y19665
X17200Y19665
X19169Y19271
X19169Y18287
X20546Y19271
X20940Y18877
X20743Y18287
X20940Y17303
X22712Y17696
X22515Y18287
X23499Y18484
X24090Y17303
X24483Y17303
X25074Y17303
X25861Y16515
X26452Y16909
X26846Y16515
X27043Y17696
X27043Y18287
X27633Y19271
X26649Y19862
X26649Y21437
X29011Y20846
X29798Y20649
X30980Y21830
X31964Y22224
X31964Y23011
X31964Y23405
X30586Y23996
X29602Y23996
X30192Y22814
X29405Y22224
X28814Y22618
X27830Y25767
X27043Y26161
X26649Y26555
X26649Y26948
X24877Y27145
X24877Y27736
X23696Y27145
X23696Y26751
X22712Y25964
X20350Y27342
X18381Y25964
X19562Y24980
X20153Y22814
X22515Y20846
X23302Y20649
X22515Y19862
X24287Y20059
X20153Y20649
X22515Y16318
X22515Y15334
X24090Y16318
X24483Y16318
X25074Y16318
X27043Y14940
X28814Y15334
X28814Y16122
X29011Y16515
X28420Y16712
X29602Y16712
X29602Y15531
X30389Y15531
X30783Y15531
X31176Y15531
X30783Y14350
X30980Y13956
X31964Y14153
X32357Y13759
X32161Y13169
X32554Y14350
X33342Y15137
X33342Y15531
X32751Y15531
X33735Y17106
X34720Y17696
X35113Y17106
X35901Y17696
X36098Y18484
X35507Y18484
X34326Y18877
X34129Y19271
X33145Y19271
X34917Y20059
X34917Y20649
X34720Y21437
X35310Y22421
X35901Y22224
X33735Y22224
X30586Y19074
X31176Y17893
X31176Y17106
X32554Y17303
X35310Y16122
X35901Y16318
X36294Y16712
X37476Y17696
X38263Y17106
X38460Y17696
X39050Y17303
X39247Y18681
X36294Y15334
X35901Y15334
X36491Y14153
X34917Y13563
X34720Y13169
X34720Y12185
X34720Y11594
X34720Y10413
X35113Y10019
X36294Y10413
X38460Y11003
X35901Y8248
X35901Y7657
X35113Y7657
X34523Y8051
X33145Y8051
X33145Y7263
X31570Y8444
X30389Y7460
X29011Y7854
X28420Y7854
X27436Y7854
X26255Y8444
X25468Y8641
X25861Y9429
X27043Y9822
X28814Y10413
X28814Y11003
X29798Y10610
X30192Y10019
X31964Y10610
X33342Y9429
X33735Y9822
X35310Y6476
X33932Y5295
X35704Y4704
X33539Y3326
X32357Y3326
X31373Y3326
X30783Y3720
X29602Y3720
X29602Y4311
X28814Y4704
X29011Y5098
X28814Y5492
X29011Y5885
X27436Y5885
X26058Y5098
X25665Y4507
X26255Y3326
X28224Y3326
X25074Y5885
X24287Y5295
X23106Y6476
X22515Y6476
X22712Y7066
X21334Y6870
X20940Y7460
X19956Y8248
X19365Y7460
X18972Y7657
X18775Y7066
X18184Y7263
X17200Y7263
X17003Y7657
X16413Y8838
X15428Y9626
X17397Y9822
X17791Y9822
X18184Y8838
X20153Y10413
X20743Y11003
X21728Y10610
X22712Y10610
X23893Y10216
X24483Y10610
X25074Y11003
X25665Y12775
X26452Y12775
X27239Y12578
X27633Y12578
X27830Y12972
X24287Y12775
X22121Y13366
X21728Y13759
X20350Y12381
X19956Y12381
X19562Y12381
X18972Y12185
X18578Y12185
X18972Y11791
X18775Y11397
X18578Y11003
X18184Y11200
X18578Y12578
X19759Y12972
X19562Y13366
X19169Y13759
X20743Y12185
X21531Y8838
X20546Y5885
X20153Y5295
X19759Y5098
X20350Y4311
X21334Y5098
X21924Y5492
X20743Y3523
X19169Y3523
X18184Y3129
X16806Y3720
X16019Y3129
X16806Y4901
X17003Y5689
X17003Y6082
X16019Y5885
X18184Y5295
X14050Y3129
X13657Y3326
X13263Y3129
X12869Y3326
X11688Y3129
X11688Y3523
X11098Y3523
X11098Y3129
X11098Y4114
X11098Y4901
X11098Y5885
X10310Y5885
X9523Y6082
X9129Y6279
X8735Y6082
X9523Y6870
X8539Y8838
X6964Y9822
X9917Y10216
X10113Y10610
X10901Y10610
X11294Y10610
X11294Y11003
X11294Y11397
X10901Y11791
X11885Y11594
X12279Y11397
X11885Y11200
X10901Y10216
X10704Y9822
X13263Y11988
X14247Y12578
X13066Y13366
X13657Y13956
X15625Y14350
X10704Y13366
X9326Y15137
X7751Y15334
X9326Y16909
X10704Y17696
X8932Y18877
X8539Y19271
X8145Y19271
X8145Y19665
X9129Y19665
X9523Y19665
X9523Y21043
X9129Y21043
X11098Y20059
X7357Y19074
X7357Y18484
X6570Y17303
X2830Y13169
X1846Y11988
X2436Y7460
X12869Y6870
X25271Y7066
X26058Y7066
X34129Y14153
X39247Y14547
X39247Y22224
X32161Y30098
X27436Y30098
X26649Y29311
X22712Y28917
T02
X37062Y8818
X37535Y8503
X37062Y8189
X37535Y7874
X37062Y7559
T03
X35310Y3720
X34523Y3720
X26255Y10019
X26255Y10807
X26255Y11594
X15231Y8838
X14444Y8838
X14444Y8051
X13657Y8051
X13657Y8838
X15231Y8051
X8539Y10807
X39050Y24389
T04
X19464Y25689
X20251Y7342
T05
X20251Y3208
X19464Y29822
T06
X39050Y9626
X39050Y6751
T07
X22220Y7972
X17731Y7972
X17495Y25059
X21983Y25059
T08
X3617Y4901
X11688Y8641
X23893Y8641
X37476Y4901
X23893Y24980
X11688Y24980
X3617Y28129
X37476Y28129
M30
