G75*
G70*
%OFA0B0*%
%FSLAX24Y24*%
%IPPOS*%
%LPD*%
%AMOC8*
5,1,8,0,0,1.08239X$1,22.5*
%
%ADD10C,0.0966*%
%ADD11O,0.0992X0.0536*%
%ADD12C,0.0024*%
%ADD13R,0.0595X0.0595*%
%ADD14C,0.0595*%
%ADD15C,0.0025*%
%ADD16C,0.0026*%
%ADD17C,0.0023*%
%ADD18C,0.0023*%
%ADD19C,0.0022*%
%ADD20C,0.0036*%
%ADD21R,0.0689X0.0768*%
%ADD22R,0.0709X0.0768*%
%ADD23C,0.0033*%
%ADD24C,0.0029*%
%ADD25C,0.0029*%
%ADD26C,0.0021*%
%ADD27C,0.1316*%
%ADD28C,0.0795*%
%ADD29C,0.1031*%
%ADD30C,0.0759*%
%ADD31C,0.0390*%
D10*
X039050Y006751D03*
X039050Y009626D03*
D11*
X037763Y008503D03*
X037763Y007874D03*
X036834Y008189D03*
X036834Y008818D03*
X036834Y007559D03*
D12*
X036126Y007432D02*
X035676Y007432D01*
X035676Y007882D01*
X036126Y007882D01*
X036126Y007432D01*
X036126Y007455D02*
X035676Y007455D01*
X035676Y007478D02*
X036126Y007478D01*
X036126Y007501D02*
X035676Y007501D01*
X035676Y007524D02*
X036126Y007524D01*
X036126Y007547D02*
X035676Y007547D01*
X035676Y007570D02*
X036126Y007570D01*
X036126Y007593D02*
X035676Y007593D01*
X035676Y007616D02*
X036126Y007616D01*
X036126Y007639D02*
X035676Y007639D01*
X035676Y007662D02*
X036126Y007662D01*
X036126Y007685D02*
X035676Y007685D01*
X035676Y007708D02*
X036126Y007708D01*
X036126Y007731D02*
X035676Y007731D01*
X035676Y007754D02*
X036126Y007754D01*
X036126Y007777D02*
X035676Y007777D01*
X035676Y007800D02*
X036126Y007800D01*
X036126Y007823D02*
X035676Y007823D01*
X035676Y007846D02*
X036126Y007846D01*
X036126Y007869D02*
X035676Y007869D01*
X035676Y008023D02*
X036126Y008023D01*
X035676Y008023D02*
X035676Y008473D01*
X036126Y008473D01*
X036126Y008023D01*
X036126Y008046D02*
X035676Y008046D01*
X035676Y008069D02*
X036126Y008069D01*
X036126Y008092D02*
X035676Y008092D01*
X035676Y008115D02*
X036126Y008115D01*
X036126Y008138D02*
X035676Y008138D01*
X035676Y008161D02*
X036126Y008161D01*
X036126Y008184D02*
X035676Y008184D01*
X035676Y008207D02*
X036126Y008207D01*
X036126Y008230D02*
X035676Y008230D01*
X035676Y008253D02*
X036126Y008253D01*
X036126Y008276D02*
X035676Y008276D01*
X035676Y008299D02*
X036126Y008299D01*
X036126Y008322D02*
X035676Y008322D01*
X035676Y008345D02*
X036126Y008345D01*
X036126Y008368D02*
X035676Y008368D01*
X035676Y008391D02*
X036126Y008391D01*
X036126Y008414D02*
X035676Y008414D01*
X035676Y008437D02*
X036126Y008437D01*
X036126Y008460D02*
X035676Y008460D01*
X038825Y007826D02*
X039275Y007826D01*
X038825Y007826D02*
X038825Y008276D01*
X039275Y008276D01*
X039275Y007826D01*
X039275Y007849D02*
X038825Y007849D01*
X038825Y007872D02*
X039275Y007872D01*
X039275Y007895D02*
X038825Y007895D01*
X038825Y007918D02*
X039275Y007918D01*
X039275Y007941D02*
X038825Y007941D01*
X038825Y007964D02*
X039275Y007964D01*
X039275Y007987D02*
X038825Y007987D01*
X038825Y008010D02*
X039275Y008010D01*
X039275Y008033D02*
X038825Y008033D01*
X038825Y008056D02*
X039275Y008056D01*
X039275Y008079D02*
X038825Y008079D01*
X038825Y008102D02*
X039275Y008102D01*
X039275Y008125D02*
X038825Y008125D01*
X038825Y008148D02*
X039275Y008148D01*
X039275Y008171D02*
X038825Y008171D01*
X038825Y008194D02*
X039275Y008194D01*
X039275Y008217D02*
X038825Y008217D01*
X038825Y008240D02*
X039275Y008240D01*
X039275Y008263D02*
X038825Y008263D01*
X038825Y003889D02*
X039275Y003889D01*
X038825Y003889D02*
X038825Y004339D01*
X039275Y004339D01*
X039275Y003889D01*
X039275Y003912D02*
X038825Y003912D01*
X038825Y003935D02*
X039275Y003935D01*
X039275Y003958D02*
X038825Y003958D01*
X038825Y003981D02*
X039275Y003981D01*
X039275Y004004D02*
X038825Y004004D01*
X038825Y004027D02*
X039275Y004027D01*
X039275Y004050D02*
X038825Y004050D01*
X038825Y004073D02*
X039275Y004073D01*
X039275Y004096D02*
X038825Y004096D01*
X038825Y004119D02*
X039275Y004119D01*
X039275Y004142D02*
X038825Y004142D01*
X038825Y004165D02*
X039275Y004165D01*
X039275Y004188D02*
X038825Y004188D01*
X038825Y004211D02*
X039275Y004211D01*
X039275Y004234D02*
X038825Y004234D01*
X038825Y004257D02*
X039275Y004257D01*
X039275Y004280D02*
X038825Y004280D01*
X038825Y004303D02*
X039275Y004303D01*
X039275Y004326D02*
X038825Y004326D01*
X038882Y002904D02*
X038432Y002904D01*
X038432Y003354D01*
X038882Y003354D01*
X038882Y002904D01*
X038882Y002927D02*
X038432Y002927D01*
X038432Y002950D02*
X038882Y002950D01*
X038882Y002973D02*
X038432Y002973D01*
X038432Y002996D02*
X038882Y002996D01*
X038882Y003019D02*
X038432Y003019D01*
X038432Y003042D02*
X038882Y003042D01*
X038882Y003065D02*
X038432Y003065D01*
X038432Y003088D02*
X038882Y003088D01*
X038882Y003111D02*
X038432Y003111D01*
X038432Y003134D02*
X038882Y003134D01*
X038882Y003157D02*
X038432Y003157D01*
X038432Y003180D02*
X038882Y003180D01*
X038882Y003203D02*
X038432Y003203D01*
X038432Y003226D02*
X038882Y003226D01*
X038882Y003249D02*
X038432Y003249D01*
X038432Y003272D02*
X038882Y003272D01*
X038882Y003295D02*
X038432Y003295D01*
X038432Y003318D02*
X038882Y003318D01*
X038882Y003341D02*
X038432Y003341D01*
X038094Y002904D02*
X037644Y002904D01*
X037644Y003354D01*
X038094Y003354D01*
X038094Y002904D01*
X038094Y002927D02*
X037644Y002927D01*
X037644Y002950D02*
X038094Y002950D01*
X038094Y002973D02*
X037644Y002973D01*
X037644Y002996D02*
X038094Y002996D01*
X038094Y003019D02*
X037644Y003019D01*
X037644Y003042D02*
X038094Y003042D01*
X038094Y003065D02*
X037644Y003065D01*
X037644Y003088D02*
X038094Y003088D01*
X038094Y003111D02*
X037644Y003111D01*
X037644Y003134D02*
X038094Y003134D01*
X038094Y003157D02*
X037644Y003157D01*
X037644Y003180D02*
X038094Y003180D01*
X038094Y003203D02*
X037644Y003203D01*
X037644Y003226D02*
X038094Y003226D01*
X038094Y003249D02*
X037644Y003249D01*
X037644Y003272D02*
X038094Y003272D01*
X038094Y003295D02*
X037644Y003295D01*
X037644Y003318D02*
X038094Y003318D01*
X038094Y003341D02*
X037644Y003341D01*
X037504Y002904D02*
X037054Y002904D01*
X037054Y003354D01*
X037504Y003354D01*
X037504Y002904D01*
X037504Y002927D02*
X037054Y002927D01*
X037054Y002950D02*
X037504Y002950D01*
X037504Y002973D02*
X037054Y002973D01*
X037054Y002996D02*
X037504Y002996D01*
X037504Y003019D02*
X037054Y003019D01*
X037054Y003042D02*
X037504Y003042D01*
X037504Y003065D02*
X037054Y003065D01*
X037054Y003088D02*
X037504Y003088D01*
X037504Y003111D02*
X037054Y003111D01*
X037054Y003134D02*
X037504Y003134D01*
X037504Y003157D02*
X037054Y003157D01*
X037054Y003180D02*
X037504Y003180D01*
X037504Y003203D02*
X037054Y003203D01*
X037054Y003226D02*
X037504Y003226D01*
X037504Y003249D02*
X037054Y003249D01*
X037054Y003272D02*
X037504Y003272D01*
X037504Y003295D02*
X037054Y003295D01*
X037054Y003318D02*
X037504Y003318D01*
X037504Y003341D02*
X037054Y003341D01*
X036716Y002904D02*
X036266Y002904D01*
X036266Y003354D01*
X036716Y003354D01*
X036716Y002904D01*
X036716Y002927D02*
X036266Y002927D01*
X036266Y002950D02*
X036716Y002950D01*
X036716Y002973D02*
X036266Y002973D01*
X036266Y002996D02*
X036716Y002996D01*
X036716Y003019D02*
X036266Y003019D01*
X036266Y003042D02*
X036716Y003042D01*
X036716Y003065D02*
X036266Y003065D01*
X036266Y003088D02*
X036716Y003088D01*
X036716Y003111D02*
X036266Y003111D01*
X036266Y003134D02*
X036716Y003134D01*
X036716Y003157D02*
X036266Y003157D01*
X036266Y003180D02*
X036716Y003180D01*
X036716Y003203D02*
X036266Y003203D01*
X036266Y003226D02*
X036716Y003226D01*
X036716Y003249D02*
X036266Y003249D01*
X036266Y003272D02*
X036716Y003272D01*
X036716Y003295D02*
X036266Y003295D01*
X036266Y003318D02*
X036716Y003318D01*
X036716Y003341D02*
X036266Y003341D01*
X033764Y003101D02*
X033314Y003101D01*
X033314Y003551D01*
X033764Y003551D01*
X033764Y003101D01*
X033764Y003124D02*
X033314Y003124D01*
X033314Y003147D02*
X033764Y003147D01*
X033764Y003170D02*
X033314Y003170D01*
X033314Y003193D02*
X033764Y003193D01*
X033764Y003216D02*
X033314Y003216D01*
X033314Y003239D02*
X033764Y003239D01*
X033764Y003262D02*
X033314Y003262D01*
X033314Y003285D02*
X033764Y003285D01*
X033764Y003308D02*
X033314Y003308D01*
X033314Y003331D02*
X033764Y003331D01*
X033764Y003354D02*
X033314Y003354D01*
X033314Y003377D02*
X033764Y003377D01*
X033764Y003400D02*
X033314Y003400D01*
X033314Y003423D02*
X033764Y003423D01*
X033764Y003446D02*
X033314Y003446D01*
X033314Y003469D02*
X033764Y003469D01*
X033764Y003492D02*
X033314Y003492D01*
X033314Y003515D02*
X033764Y003515D01*
X033764Y003538D02*
X033314Y003538D01*
X027661Y005660D02*
X027211Y005660D01*
X027211Y006110D01*
X027661Y006110D01*
X027661Y005660D01*
X027661Y005683D02*
X027211Y005683D01*
X027211Y005706D02*
X027661Y005706D01*
X027661Y005729D02*
X027211Y005729D01*
X027211Y005752D02*
X027661Y005752D01*
X027661Y005775D02*
X027211Y005775D01*
X027211Y005798D02*
X027661Y005798D01*
X027661Y005821D02*
X027211Y005821D01*
X027211Y005844D02*
X027661Y005844D01*
X027661Y005867D02*
X027211Y005867D01*
X027211Y005890D02*
X027661Y005890D01*
X027661Y005913D02*
X027211Y005913D01*
X027211Y005936D02*
X027661Y005936D01*
X027661Y005959D02*
X027211Y005959D01*
X027211Y005982D02*
X027661Y005982D01*
X027661Y006005D02*
X027211Y006005D01*
X027211Y006028D02*
X027661Y006028D01*
X027661Y006051D02*
X027211Y006051D01*
X027211Y006074D02*
X027661Y006074D01*
X027661Y006097D02*
X027211Y006097D01*
X025102Y006448D02*
X024652Y006448D01*
X024652Y006898D01*
X025102Y006898D01*
X025102Y006448D01*
X025102Y006471D02*
X024652Y006471D01*
X024652Y006494D02*
X025102Y006494D01*
X025102Y006517D02*
X024652Y006517D01*
X024652Y006540D02*
X025102Y006540D01*
X025102Y006563D02*
X024652Y006563D01*
X024652Y006586D02*
X025102Y006586D01*
X025102Y006609D02*
X024652Y006609D01*
X024652Y006632D02*
X025102Y006632D01*
X025102Y006655D02*
X024652Y006655D01*
X024652Y006678D02*
X025102Y006678D01*
X025102Y006701D02*
X024652Y006701D01*
X024652Y006724D02*
X025102Y006724D01*
X025102Y006747D02*
X024652Y006747D01*
X024652Y006770D02*
X025102Y006770D01*
X025102Y006793D02*
X024652Y006793D01*
X024652Y006816D02*
X025102Y006816D01*
X025102Y006839D02*
X024652Y006839D01*
X024652Y006862D02*
X025102Y006862D01*
X025102Y006885D02*
X024652Y006885D01*
X021854Y008613D02*
X021404Y008613D01*
X021404Y009063D01*
X021854Y009063D01*
X021854Y008613D01*
X021854Y008636D02*
X021404Y008636D01*
X021404Y008659D02*
X021854Y008659D01*
X021854Y008682D02*
X021404Y008682D01*
X021404Y008705D02*
X021854Y008705D01*
X021854Y008728D02*
X021404Y008728D01*
X021404Y008751D02*
X021854Y008751D01*
X021854Y008774D02*
X021404Y008774D01*
X021404Y008797D02*
X021854Y008797D01*
X021854Y008820D02*
X021404Y008820D01*
X021404Y008843D02*
X021854Y008843D01*
X021854Y008866D02*
X021404Y008866D01*
X021404Y008889D02*
X021854Y008889D01*
X021854Y008912D02*
X021404Y008912D01*
X021404Y008935D02*
X021854Y008935D01*
X021854Y008958D02*
X021404Y008958D01*
X021404Y008981D02*
X021854Y008981D01*
X021854Y009004D02*
X021404Y009004D01*
X021404Y009027D02*
X021854Y009027D01*
X021854Y009050D02*
X021404Y009050D01*
X021165Y008613D02*
X020715Y008613D01*
X020715Y009063D01*
X021165Y009063D01*
X021165Y008613D01*
X021165Y008636D02*
X020715Y008636D01*
X020715Y008659D02*
X021165Y008659D01*
X021165Y008682D02*
X020715Y008682D01*
X020715Y008705D02*
X021165Y008705D01*
X021165Y008728D02*
X020715Y008728D01*
X020715Y008751D02*
X021165Y008751D01*
X021165Y008774D02*
X020715Y008774D01*
X020715Y008797D02*
X021165Y008797D01*
X021165Y008820D02*
X020715Y008820D01*
X020715Y008843D02*
X021165Y008843D01*
X021165Y008866D02*
X020715Y008866D01*
X020715Y008889D02*
X021165Y008889D01*
X021165Y008912D02*
X020715Y008912D01*
X020715Y008935D02*
X021165Y008935D01*
X021165Y008958D02*
X020715Y008958D01*
X020715Y008981D02*
X021165Y008981D01*
X021165Y009004D02*
X020715Y009004D01*
X020715Y009027D02*
X021165Y009027D01*
X021165Y009050D02*
X020715Y009050D01*
X020476Y008613D02*
X020026Y008613D01*
X020026Y009063D01*
X020476Y009063D01*
X020476Y008613D01*
X020476Y008636D02*
X020026Y008636D01*
X020026Y008659D02*
X020476Y008659D01*
X020476Y008682D02*
X020026Y008682D01*
X020026Y008705D02*
X020476Y008705D01*
X020476Y008728D02*
X020026Y008728D01*
X020026Y008751D02*
X020476Y008751D01*
X020476Y008774D02*
X020026Y008774D01*
X020026Y008797D02*
X020476Y008797D01*
X020476Y008820D02*
X020026Y008820D01*
X020026Y008843D02*
X020476Y008843D01*
X020476Y008866D02*
X020026Y008866D01*
X020026Y008889D02*
X020476Y008889D01*
X020476Y008912D02*
X020026Y008912D01*
X020026Y008935D02*
X020476Y008935D01*
X020476Y008958D02*
X020026Y008958D01*
X020026Y008981D02*
X020476Y008981D01*
X020476Y009004D02*
X020026Y009004D01*
X020026Y009027D02*
X020476Y009027D01*
X020476Y009050D02*
X020026Y009050D01*
X019787Y008613D02*
X019337Y008613D01*
X019337Y009063D01*
X019787Y009063D01*
X019787Y008613D01*
X019787Y008636D02*
X019337Y008636D01*
X019337Y008659D02*
X019787Y008659D01*
X019787Y008682D02*
X019337Y008682D01*
X019337Y008705D02*
X019787Y008705D01*
X019787Y008728D02*
X019337Y008728D01*
X019337Y008751D02*
X019787Y008751D01*
X019787Y008774D02*
X019337Y008774D01*
X019337Y008797D02*
X019787Y008797D01*
X019787Y008820D02*
X019337Y008820D01*
X019337Y008843D02*
X019787Y008843D01*
X019787Y008866D02*
X019337Y008866D01*
X019337Y008889D02*
X019787Y008889D01*
X019787Y008912D02*
X019337Y008912D01*
X019337Y008935D02*
X019787Y008935D01*
X019787Y008958D02*
X019337Y008958D01*
X019337Y008981D02*
X019787Y008981D01*
X019787Y009004D02*
X019337Y009004D01*
X019337Y009027D02*
X019787Y009027D01*
X019787Y009050D02*
X019337Y009050D01*
X019098Y008613D02*
X018648Y008613D01*
X018648Y009063D01*
X019098Y009063D01*
X019098Y008613D01*
X019098Y008636D02*
X018648Y008636D01*
X018648Y008659D02*
X019098Y008659D01*
X019098Y008682D02*
X018648Y008682D01*
X018648Y008705D02*
X019098Y008705D01*
X019098Y008728D02*
X018648Y008728D01*
X018648Y008751D02*
X019098Y008751D01*
X019098Y008774D02*
X018648Y008774D01*
X018648Y008797D02*
X019098Y008797D01*
X019098Y008820D02*
X018648Y008820D01*
X018648Y008843D02*
X019098Y008843D01*
X019098Y008866D02*
X018648Y008866D01*
X018648Y008889D02*
X019098Y008889D01*
X019098Y008912D02*
X018648Y008912D01*
X018648Y008935D02*
X019098Y008935D01*
X019098Y008958D02*
X018648Y008958D01*
X018648Y008981D02*
X019098Y008981D01*
X019098Y009004D02*
X018648Y009004D01*
X018648Y009027D02*
X019098Y009027D01*
X019098Y009050D02*
X018648Y009050D01*
X018409Y008613D02*
X017959Y008613D01*
X017959Y009063D01*
X018409Y009063D01*
X018409Y008613D01*
X018409Y008636D02*
X017959Y008636D01*
X017959Y008659D02*
X018409Y008659D01*
X018409Y008682D02*
X017959Y008682D01*
X017959Y008705D02*
X018409Y008705D01*
X018409Y008728D02*
X017959Y008728D01*
X017959Y008751D02*
X018409Y008751D01*
X018409Y008774D02*
X017959Y008774D01*
X017959Y008797D02*
X018409Y008797D01*
X018409Y008820D02*
X017959Y008820D01*
X017959Y008843D02*
X018409Y008843D01*
X018409Y008866D02*
X017959Y008866D01*
X017959Y008889D02*
X018409Y008889D01*
X018409Y008912D02*
X017959Y008912D01*
X017959Y008935D02*
X018409Y008935D01*
X018409Y008958D02*
X017959Y008958D01*
X017959Y008981D02*
X018409Y008981D01*
X018409Y009004D02*
X017959Y009004D01*
X017959Y009027D02*
X018409Y009027D01*
X018409Y009050D02*
X017959Y009050D01*
X017031Y004676D02*
X016581Y004676D01*
X016581Y005126D01*
X017031Y005126D01*
X017031Y004676D01*
X017031Y004699D02*
X016581Y004699D01*
X016581Y004722D02*
X017031Y004722D01*
X017031Y004745D02*
X016581Y004745D01*
X016581Y004768D02*
X017031Y004768D01*
X017031Y004791D02*
X016581Y004791D01*
X016581Y004814D02*
X017031Y004814D01*
X017031Y004837D02*
X016581Y004837D01*
X016581Y004860D02*
X017031Y004860D01*
X017031Y004883D02*
X016581Y004883D01*
X016581Y004906D02*
X017031Y004906D01*
X017031Y004929D02*
X016581Y004929D01*
X016581Y004952D02*
X017031Y004952D01*
X017031Y004975D02*
X016581Y004975D01*
X016581Y004998D02*
X017031Y004998D01*
X017031Y005021D02*
X016581Y005021D01*
X016581Y005044D02*
X017031Y005044D01*
X017031Y005067D02*
X016581Y005067D01*
X016581Y005090D02*
X017031Y005090D01*
X017031Y005113D02*
X016581Y005113D01*
X007189Y009597D02*
X006739Y009597D01*
X006739Y010047D01*
X007189Y010047D01*
X007189Y009597D01*
X007189Y009620D02*
X006739Y009620D01*
X006739Y009643D02*
X007189Y009643D01*
X007189Y009666D02*
X006739Y009666D01*
X006739Y009689D02*
X007189Y009689D01*
X007189Y009712D02*
X006739Y009712D01*
X006739Y009735D02*
X007189Y009735D01*
X007189Y009758D02*
X006739Y009758D01*
X006739Y009781D02*
X007189Y009781D01*
X007189Y009804D02*
X006739Y009804D01*
X006739Y009827D02*
X007189Y009827D01*
X007189Y009850D02*
X006739Y009850D01*
X006739Y009873D02*
X007189Y009873D01*
X007189Y009896D02*
X006739Y009896D01*
X006739Y009919D02*
X007189Y009919D01*
X007189Y009942D02*
X006739Y009942D01*
X006739Y009965D02*
X007189Y009965D01*
X007189Y009988D02*
X006739Y009988D01*
X006739Y010011D02*
X007189Y010011D01*
X007189Y010034D02*
X006739Y010034D01*
X005417Y008613D02*
X004967Y008613D01*
X004967Y009063D01*
X005417Y009063D01*
X005417Y008613D01*
X005417Y008636D02*
X004967Y008636D01*
X004967Y008659D02*
X005417Y008659D01*
X005417Y008682D02*
X004967Y008682D01*
X004967Y008705D02*
X005417Y008705D01*
X005417Y008728D02*
X004967Y008728D01*
X004967Y008751D02*
X005417Y008751D01*
X005417Y008774D02*
X004967Y008774D01*
X004967Y008797D02*
X005417Y008797D01*
X005417Y008820D02*
X004967Y008820D01*
X004967Y008843D02*
X005417Y008843D01*
X005417Y008866D02*
X004967Y008866D01*
X004967Y008889D02*
X005417Y008889D01*
X005417Y008912D02*
X004967Y008912D01*
X004967Y008935D02*
X005417Y008935D01*
X005417Y008958D02*
X004967Y008958D01*
X004967Y008981D02*
X005417Y008981D01*
X005417Y009004D02*
X004967Y009004D01*
X004967Y009027D02*
X005417Y009027D01*
X005417Y009050D02*
X004967Y009050D01*
X004630Y008613D02*
X004180Y008613D01*
X004180Y009063D01*
X004630Y009063D01*
X004630Y008613D01*
X004630Y008636D02*
X004180Y008636D01*
X004180Y008659D02*
X004630Y008659D01*
X004630Y008682D02*
X004180Y008682D01*
X004180Y008705D02*
X004630Y008705D01*
X004630Y008728D02*
X004180Y008728D01*
X004180Y008751D02*
X004630Y008751D01*
X004630Y008774D02*
X004180Y008774D01*
X004180Y008797D02*
X004630Y008797D01*
X004630Y008820D02*
X004180Y008820D01*
X004180Y008843D02*
X004630Y008843D01*
X004630Y008866D02*
X004180Y008866D01*
X004180Y008889D02*
X004630Y008889D01*
X004630Y008912D02*
X004180Y008912D01*
X004180Y008935D02*
X004630Y008935D01*
X004630Y008958D02*
X004180Y008958D01*
X004180Y008981D02*
X004630Y008981D01*
X004630Y009004D02*
X004180Y009004D01*
X004180Y009027D02*
X004630Y009027D01*
X004630Y009050D02*
X004180Y009050D01*
X004236Y007826D02*
X003786Y007826D01*
X003786Y008276D01*
X004236Y008276D01*
X004236Y007826D01*
X004236Y007849D02*
X003786Y007849D01*
X003786Y007872D02*
X004236Y007872D01*
X004236Y007895D02*
X003786Y007895D01*
X003786Y007918D02*
X004236Y007918D01*
X004236Y007941D02*
X003786Y007941D01*
X003786Y007964D02*
X004236Y007964D01*
X004236Y007987D02*
X003786Y007987D01*
X003786Y008010D02*
X004236Y008010D01*
X004236Y008033D02*
X003786Y008033D01*
X003786Y008056D02*
X004236Y008056D01*
X004236Y008079D02*
X003786Y008079D01*
X003786Y008102D02*
X004236Y008102D01*
X004236Y008125D02*
X003786Y008125D01*
X003786Y008148D02*
X004236Y008148D01*
X004236Y008171D02*
X003786Y008171D01*
X003786Y008194D02*
X004236Y008194D01*
X004236Y008217D02*
X003786Y008217D01*
X003786Y008240D02*
X004236Y008240D01*
X004236Y008263D02*
X003786Y008263D01*
X003449Y007826D02*
X002999Y007826D01*
X002999Y008276D01*
X003449Y008276D01*
X003449Y007826D01*
X003449Y007849D02*
X002999Y007849D01*
X002999Y007872D02*
X003449Y007872D01*
X003449Y007895D02*
X002999Y007895D01*
X002999Y007918D02*
X003449Y007918D01*
X003449Y007941D02*
X002999Y007941D01*
X002999Y007964D02*
X003449Y007964D01*
X003449Y007987D02*
X002999Y007987D01*
X002999Y008010D02*
X003449Y008010D01*
X003449Y008033D02*
X002999Y008033D01*
X002999Y008056D02*
X003449Y008056D01*
X003449Y008079D02*
X002999Y008079D01*
X002999Y008102D02*
X003449Y008102D01*
X003449Y008125D02*
X002999Y008125D01*
X002999Y008148D02*
X003449Y008148D01*
X003449Y008171D02*
X002999Y008171D01*
X002999Y008194D02*
X003449Y008194D01*
X003449Y008217D02*
X002999Y008217D01*
X002999Y008240D02*
X003449Y008240D01*
X003449Y008263D02*
X002999Y008263D01*
X002802Y007235D02*
X003252Y007235D01*
X002802Y007235D02*
X002802Y007685D01*
X003252Y007685D01*
X003252Y007235D01*
X003252Y007258D02*
X002802Y007258D01*
X002802Y007281D02*
X003252Y007281D01*
X003252Y007304D02*
X002802Y007304D01*
X002802Y007327D02*
X003252Y007327D01*
X003252Y007350D02*
X002802Y007350D01*
X002802Y007373D02*
X003252Y007373D01*
X003252Y007396D02*
X002802Y007396D01*
X002802Y007419D02*
X003252Y007419D01*
X003252Y007442D02*
X002802Y007442D01*
X002802Y007465D02*
X003252Y007465D01*
X003252Y007488D02*
X002802Y007488D01*
X002802Y007511D02*
X003252Y007511D01*
X003252Y007534D02*
X002802Y007534D01*
X002802Y007557D02*
X003252Y007557D01*
X003252Y007580D02*
X002802Y007580D01*
X002802Y007603D02*
X003252Y007603D01*
X003252Y007626D02*
X002802Y007626D01*
X002802Y007649D02*
X003252Y007649D01*
X003252Y007672D02*
X002802Y007672D01*
X002661Y007235D02*
X002211Y007235D01*
X002211Y007685D01*
X002661Y007685D01*
X002661Y007235D01*
X002661Y007258D02*
X002211Y007258D01*
X002211Y007281D02*
X002661Y007281D01*
X002661Y007304D02*
X002211Y007304D01*
X002211Y007327D02*
X002661Y007327D01*
X002661Y007350D02*
X002211Y007350D01*
X002211Y007373D02*
X002661Y007373D01*
X002661Y007396D02*
X002211Y007396D01*
X002211Y007419D02*
X002661Y007419D01*
X002661Y007442D02*
X002211Y007442D01*
X002211Y007465D02*
X002661Y007465D01*
X002661Y007488D02*
X002211Y007488D01*
X002211Y007511D02*
X002661Y007511D01*
X002661Y007534D02*
X002211Y007534D01*
X002211Y007557D02*
X002661Y007557D01*
X002661Y007580D02*
X002211Y007580D01*
X002211Y007603D02*
X002661Y007603D01*
X002661Y007626D02*
X002211Y007626D01*
X002211Y007649D02*
X002661Y007649D01*
X002661Y007672D02*
X002211Y007672D01*
X002211Y006448D02*
X002661Y006448D01*
X002211Y006448D02*
X002211Y006898D01*
X002661Y006898D01*
X002661Y006448D01*
X002661Y006471D02*
X002211Y006471D01*
X002211Y006494D02*
X002661Y006494D01*
X002661Y006517D02*
X002211Y006517D01*
X002211Y006540D02*
X002661Y006540D01*
X002661Y006563D02*
X002211Y006563D01*
X002211Y006586D02*
X002661Y006586D01*
X002661Y006609D02*
X002211Y006609D01*
X002211Y006632D02*
X002661Y006632D01*
X002661Y006655D02*
X002211Y006655D01*
X002211Y006678D02*
X002661Y006678D01*
X002661Y006701D02*
X002211Y006701D01*
X002211Y006724D02*
X002661Y006724D01*
X002661Y006747D02*
X002211Y006747D01*
X002211Y006770D02*
X002661Y006770D01*
X002661Y006793D02*
X002211Y006793D01*
X002211Y006816D02*
X002661Y006816D01*
X002661Y006839D02*
X002211Y006839D01*
X002211Y006862D02*
X002661Y006862D01*
X002661Y006885D02*
X002211Y006885D01*
X002802Y006448D02*
X003252Y006448D01*
X002802Y006448D02*
X002802Y006898D01*
X003252Y006898D01*
X003252Y006448D01*
X003252Y006471D02*
X002802Y006471D01*
X002802Y006494D02*
X003252Y006494D01*
X003252Y006517D02*
X002802Y006517D01*
X002802Y006540D02*
X003252Y006540D01*
X003252Y006563D02*
X002802Y006563D01*
X002802Y006586D02*
X003252Y006586D01*
X003252Y006609D02*
X002802Y006609D01*
X002802Y006632D02*
X003252Y006632D01*
X003252Y006655D02*
X002802Y006655D01*
X002802Y006678D02*
X003252Y006678D01*
X003252Y006701D02*
X002802Y006701D01*
X002802Y006724D02*
X003252Y006724D01*
X003252Y006747D02*
X002802Y006747D01*
X002802Y006770D02*
X003252Y006770D01*
X003252Y006793D02*
X002802Y006793D01*
X002802Y006816D02*
X003252Y006816D01*
X003252Y006839D02*
X002802Y006839D01*
X002802Y006862D02*
X003252Y006862D01*
X003252Y006885D02*
X002802Y006885D01*
X003392Y006448D02*
X003842Y006448D01*
X003392Y006448D02*
X003392Y006898D01*
X003842Y006898D01*
X003842Y006448D01*
X003842Y006471D02*
X003392Y006471D01*
X003392Y006494D02*
X003842Y006494D01*
X003842Y006517D02*
X003392Y006517D01*
X003392Y006540D02*
X003842Y006540D01*
X003842Y006563D02*
X003392Y006563D01*
X003392Y006586D02*
X003842Y006586D01*
X003842Y006609D02*
X003392Y006609D01*
X003392Y006632D02*
X003842Y006632D01*
X003842Y006655D02*
X003392Y006655D01*
X003392Y006678D02*
X003842Y006678D01*
X003842Y006701D02*
X003392Y006701D01*
X003392Y006724D02*
X003842Y006724D01*
X003842Y006747D02*
X003392Y006747D01*
X003392Y006770D02*
X003842Y006770D01*
X003842Y006793D02*
X003392Y006793D01*
X003392Y006816D02*
X003842Y006816D01*
X003842Y006839D02*
X003392Y006839D01*
X003392Y006862D02*
X003842Y006862D01*
X003842Y006885D02*
X003392Y006885D01*
X003392Y007235D02*
X003842Y007235D01*
X003392Y007235D02*
X003392Y007685D01*
X003842Y007685D01*
X003842Y007235D01*
X003842Y007258D02*
X003392Y007258D01*
X003392Y007281D02*
X003842Y007281D01*
X003842Y007304D02*
X003392Y007304D01*
X003392Y007327D02*
X003842Y007327D01*
X003842Y007350D02*
X003392Y007350D01*
X003392Y007373D02*
X003842Y007373D01*
X003842Y007396D02*
X003392Y007396D01*
X003392Y007419D02*
X003842Y007419D01*
X003842Y007442D02*
X003392Y007442D01*
X003392Y007465D02*
X003842Y007465D01*
X003842Y007488D02*
X003392Y007488D01*
X003392Y007511D02*
X003842Y007511D01*
X003842Y007534D02*
X003392Y007534D01*
X003392Y007557D02*
X003842Y007557D01*
X003842Y007580D02*
X003392Y007580D01*
X003392Y007603D02*
X003842Y007603D01*
X003842Y007626D02*
X003392Y007626D01*
X003392Y007649D02*
X003842Y007649D01*
X003842Y007672D02*
X003392Y007672D01*
X003195Y011566D02*
X003645Y011566D01*
X003195Y011566D02*
X003195Y012016D01*
X003645Y012016D01*
X003645Y011566D01*
X003645Y011589D02*
X003195Y011589D01*
X003195Y011612D02*
X003645Y011612D01*
X003645Y011635D02*
X003195Y011635D01*
X003195Y011658D02*
X003645Y011658D01*
X003645Y011681D02*
X003195Y011681D01*
X003195Y011704D02*
X003645Y011704D01*
X003645Y011727D02*
X003195Y011727D01*
X003195Y011750D02*
X003645Y011750D01*
X003645Y011773D02*
X003195Y011773D01*
X003195Y011796D02*
X003645Y011796D01*
X003645Y011819D02*
X003195Y011819D01*
X003195Y011842D02*
X003645Y011842D01*
X003645Y011865D02*
X003195Y011865D01*
X003195Y011888D02*
X003645Y011888D01*
X003645Y011911D02*
X003195Y011911D01*
X003195Y011934D02*
X003645Y011934D01*
X003645Y011957D02*
X003195Y011957D01*
X003195Y011980D02*
X003645Y011980D01*
X003645Y012003D02*
X003195Y012003D01*
X003195Y012156D02*
X003645Y012156D01*
X003195Y012156D02*
X003195Y012606D01*
X003645Y012606D01*
X003645Y012156D01*
X003645Y012179D02*
X003195Y012179D01*
X003195Y012202D02*
X003645Y012202D01*
X003645Y012225D02*
X003195Y012225D01*
X003195Y012248D02*
X003645Y012248D01*
X003645Y012271D02*
X003195Y012271D01*
X003195Y012294D02*
X003645Y012294D01*
X003645Y012317D02*
X003195Y012317D01*
X003195Y012340D02*
X003645Y012340D01*
X003645Y012363D02*
X003195Y012363D01*
X003195Y012386D02*
X003645Y012386D01*
X003645Y012409D02*
X003195Y012409D01*
X003195Y012432D02*
X003645Y012432D01*
X003645Y012455D02*
X003195Y012455D01*
X003195Y012478D02*
X003645Y012478D01*
X003645Y012501D02*
X003195Y012501D01*
X003195Y012524D02*
X003645Y012524D01*
X003645Y012547D02*
X003195Y012547D01*
X003195Y012570D02*
X003645Y012570D01*
X003645Y012593D02*
X003195Y012593D01*
X003055Y012944D02*
X002605Y012944D01*
X002605Y013394D01*
X003055Y013394D01*
X003055Y012944D01*
X003055Y012967D02*
X002605Y012967D01*
X002605Y012990D02*
X003055Y012990D01*
X003055Y013013D02*
X002605Y013013D01*
X002605Y013036D02*
X003055Y013036D01*
X003055Y013059D02*
X002605Y013059D01*
X002605Y013082D02*
X003055Y013082D01*
X003055Y013105D02*
X002605Y013105D01*
X002605Y013128D02*
X003055Y013128D01*
X003055Y013151D02*
X002605Y013151D01*
X002605Y013174D02*
X003055Y013174D01*
X003055Y013197D02*
X002605Y013197D01*
X002605Y013220D02*
X003055Y013220D01*
X003055Y013243D02*
X002605Y013243D01*
X002605Y013266D02*
X003055Y013266D01*
X003055Y013289D02*
X002605Y013289D01*
X002605Y013312D02*
X003055Y013312D01*
X003055Y013335D02*
X002605Y013335D01*
X002605Y013358D02*
X003055Y013358D01*
X003055Y013381D02*
X002605Y013381D01*
X002464Y012156D02*
X002014Y012156D01*
X002014Y012606D01*
X002464Y012606D01*
X002464Y012156D01*
X002464Y012179D02*
X002014Y012179D01*
X002014Y012202D02*
X002464Y012202D01*
X002464Y012225D02*
X002014Y012225D01*
X002014Y012248D02*
X002464Y012248D01*
X002464Y012271D02*
X002014Y012271D01*
X002014Y012294D02*
X002464Y012294D01*
X002464Y012317D02*
X002014Y012317D01*
X002014Y012340D02*
X002464Y012340D01*
X002464Y012363D02*
X002014Y012363D01*
X002014Y012386D02*
X002464Y012386D01*
X002464Y012409D02*
X002014Y012409D01*
X002014Y012432D02*
X002464Y012432D01*
X002464Y012455D02*
X002014Y012455D01*
X002014Y012478D02*
X002464Y012478D01*
X002464Y012501D02*
X002014Y012501D01*
X002014Y012524D02*
X002464Y012524D01*
X002464Y012547D02*
X002014Y012547D01*
X002014Y012570D02*
X002464Y012570D01*
X002464Y012593D02*
X002014Y012593D01*
X001677Y012156D02*
X001227Y012156D01*
X001227Y012606D01*
X001677Y012606D01*
X001677Y012156D01*
X001677Y012179D02*
X001227Y012179D01*
X001227Y012202D02*
X001677Y012202D01*
X001677Y012225D02*
X001227Y012225D01*
X001227Y012248D02*
X001677Y012248D01*
X001677Y012271D02*
X001227Y012271D01*
X001227Y012294D02*
X001677Y012294D01*
X001677Y012317D02*
X001227Y012317D01*
X001227Y012340D02*
X001677Y012340D01*
X001677Y012363D02*
X001227Y012363D01*
X001227Y012386D02*
X001677Y012386D01*
X001677Y012409D02*
X001227Y012409D01*
X001227Y012432D02*
X001677Y012432D01*
X001677Y012455D02*
X001227Y012455D01*
X001227Y012478D02*
X001677Y012478D01*
X001677Y012501D02*
X001227Y012501D01*
X001227Y012524D02*
X001677Y012524D01*
X001677Y012547D02*
X001227Y012547D01*
X001227Y012570D02*
X001677Y012570D01*
X001677Y012593D02*
X001227Y012593D01*
X001227Y014125D02*
X001677Y014125D01*
X001227Y014125D02*
X001227Y014575D01*
X001677Y014575D01*
X001677Y014125D01*
X001677Y014148D02*
X001227Y014148D01*
X001227Y014171D02*
X001677Y014171D01*
X001677Y014194D02*
X001227Y014194D01*
X001227Y014217D02*
X001677Y014217D01*
X001677Y014240D02*
X001227Y014240D01*
X001227Y014263D02*
X001677Y014263D01*
X001677Y014286D02*
X001227Y014286D01*
X001227Y014309D02*
X001677Y014309D01*
X001677Y014332D02*
X001227Y014332D01*
X001227Y014355D02*
X001677Y014355D01*
X001677Y014378D02*
X001227Y014378D01*
X001227Y014401D02*
X001677Y014401D01*
X001677Y014424D02*
X001227Y014424D01*
X001227Y014447D02*
X001677Y014447D01*
X001677Y014470D02*
X001227Y014470D01*
X001227Y014493D02*
X001677Y014493D01*
X001677Y014516D02*
X001227Y014516D01*
X001227Y014539D02*
X001677Y014539D01*
X001677Y014562D02*
X001227Y014562D01*
X001227Y014912D02*
X001677Y014912D01*
X001227Y014912D02*
X001227Y015362D01*
X001677Y015362D01*
X001677Y014912D01*
X001677Y014935D02*
X001227Y014935D01*
X001227Y014958D02*
X001677Y014958D01*
X001677Y014981D02*
X001227Y014981D01*
X001227Y015004D02*
X001677Y015004D01*
X001677Y015027D02*
X001227Y015027D01*
X001227Y015050D02*
X001677Y015050D01*
X001677Y015073D02*
X001227Y015073D01*
X001227Y015096D02*
X001677Y015096D01*
X001677Y015119D02*
X001227Y015119D01*
X001227Y015142D02*
X001677Y015142D01*
X001677Y015165D02*
X001227Y015165D01*
X001227Y015188D02*
X001677Y015188D01*
X001677Y015211D02*
X001227Y015211D01*
X001227Y015234D02*
X001677Y015234D01*
X001677Y015257D02*
X001227Y015257D01*
X001227Y015280D02*
X001677Y015280D01*
X001677Y015303D02*
X001227Y015303D01*
X001227Y015326D02*
X001677Y015326D01*
X001677Y015349D02*
X001227Y015349D01*
X001227Y015503D02*
X001677Y015503D01*
X001227Y015503D02*
X001227Y015953D01*
X001677Y015953D01*
X001677Y015503D01*
X001677Y015526D02*
X001227Y015526D01*
X001227Y015549D02*
X001677Y015549D01*
X001677Y015572D02*
X001227Y015572D01*
X001227Y015595D02*
X001677Y015595D01*
X001677Y015618D02*
X001227Y015618D01*
X001227Y015641D02*
X001677Y015641D01*
X001677Y015664D02*
X001227Y015664D01*
X001227Y015687D02*
X001677Y015687D01*
X001677Y015710D02*
X001227Y015710D01*
X001227Y015733D02*
X001677Y015733D01*
X001677Y015756D02*
X001227Y015756D01*
X001227Y015779D02*
X001677Y015779D01*
X001677Y015802D02*
X001227Y015802D01*
X001227Y015825D02*
X001677Y015825D01*
X001677Y015848D02*
X001227Y015848D01*
X001227Y015871D02*
X001677Y015871D01*
X001677Y015894D02*
X001227Y015894D01*
X001227Y015917D02*
X001677Y015917D01*
X001677Y015940D02*
X001227Y015940D01*
X001227Y016290D02*
X001677Y016290D01*
X001227Y016290D02*
X001227Y016740D01*
X001677Y016740D01*
X001677Y016290D01*
X001677Y016313D02*
X001227Y016313D01*
X001227Y016336D02*
X001677Y016336D01*
X001677Y016359D02*
X001227Y016359D01*
X001227Y016382D02*
X001677Y016382D01*
X001677Y016405D02*
X001227Y016405D01*
X001227Y016428D02*
X001677Y016428D01*
X001677Y016451D02*
X001227Y016451D01*
X001227Y016474D02*
X001677Y016474D01*
X001677Y016497D02*
X001227Y016497D01*
X001227Y016520D02*
X001677Y016520D01*
X001677Y016543D02*
X001227Y016543D01*
X001227Y016566D02*
X001677Y016566D01*
X001677Y016589D02*
X001227Y016589D01*
X001227Y016612D02*
X001677Y016612D01*
X001677Y016635D02*
X001227Y016635D01*
X001227Y016658D02*
X001677Y016658D01*
X001677Y016681D02*
X001227Y016681D01*
X001227Y016704D02*
X001677Y016704D01*
X001677Y016727D02*
X001227Y016727D01*
X001227Y017078D02*
X001677Y017078D01*
X001227Y017078D02*
X001227Y017528D01*
X001677Y017528D01*
X001677Y017078D01*
X001677Y017101D02*
X001227Y017101D01*
X001227Y017124D02*
X001677Y017124D01*
X001677Y017147D02*
X001227Y017147D01*
X001227Y017170D02*
X001677Y017170D01*
X001677Y017193D02*
X001227Y017193D01*
X001227Y017216D02*
X001677Y017216D01*
X001677Y017239D02*
X001227Y017239D01*
X001227Y017262D02*
X001677Y017262D01*
X001677Y017285D02*
X001227Y017285D01*
X001227Y017308D02*
X001677Y017308D01*
X001677Y017331D02*
X001227Y017331D01*
X001227Y017354D02*
X001677Y017354D01*
X001677Y017377D02*
X001227Y017377D01*
X001227Y017400D02*
X001677Y017400D01*
X001677Y017423D02*
X001227Y017423D01*
X001227Y017446D02*
X001677Y017446D01*
X001677Y017469D02*
X001227Y017469D01*
X001227Y017492D02*
X001677Y017492D01*
X001677Y017515D02*
X001227Y017515D01*
X001227Y017865D02*
X001677Y017865D01*
X001227Y017865D02*
X001227Y018315D01*
X001677Y018315D01*
X001677Y017865D01*
X001677Y017888D02*
X001227Y017888D01*
X001227Y017911D02*
X001677Y017911D01*
X001677Y017934D02*
X001227Y017934D01*
X001227Y017957D02*
X001677Y017957D01*
X001677Y017980D02*
X001227Y017980D01*
X001227Y018003D02*
X001677Y018003D01*
X001677Y018026D02*
X001227Y018026D01*
X001227Y018049D02*
X001677Y018049D01*
X001677Y018072D02*
X001227Y018072D01*
X001227Y018095D02*
X001677Y018095D01*
X001677Y018118D02*
X001227Y018118D01*
X001227Y018141D02*
X001677Y018141D01*
X001677Y018164D02*
X001227Y018164D01*
X001227Y018187D02*
X001677Y018187D01*
X001677Y018210D02*
X001227Y018210D01*
X001227Y018233D02*
X001677Y018233D01*
X001677Y018256D02*
X001227Y018256D01*
X001227Y018279D02*
X001677Y018279D01*
X001677Y018302D02*
X001227Y018302D01*
X001818Y017865D02*
X002268Y017865D01*
X001818Y017865D02*
X001818Y018315D01*
X002268Y018315D01*
X002268Y017865D01*
X002268Y017888D02*
X001818Y017888D01*
X001818Y017911D02*
X002268Y017911D01*
X002268Y017934D02*
X001818Y017934D01*
X001818Y017957D02*
X002268Y017957D01*
X002268Y017980D02*
X001818Y017980D01*
X001818Y018003D02*
X002268Y018003D01*
X002268Y018026D02*
X001818Y018026D01*
X001818Y018049D02*
X002268Y018049D01*
X002268Y018072D02*
X001818Y018072D01*
X001818Y018095D02*
X002268Y018095D01*
X002268Y018118D02*
X001818Y018118D01*
X001818Y018141D02*
X002268Y018141D01*
X002268Y018164D02*
X001818Y018164D01*
X001818Y018187D02*
X002268Y018187D01*
X002268Y018210D02*
X001818Y018210D01*
X001818Y018233D02*
X002268Y018233D01*
X002268Y018256D02*
X001818Y018256D01*
X001818Y018279D02*
X002268Y018279D01*
X002268Y018302D02*
X001818Y018302D01*
X001818Y018456D02*
X002268Y018456D01*
X001818Y018456D02*
X001818Y018906D01*
X002268Y018906D01*
X002268Y018456D01*
X002268Y018479D02*
X001818Y018479D01*
X001818Y018502D02*
X002268Y018502D01*
X002268Y018525D02*
X001818Y018525D01*
X001818Y018548D02*
X002268Y018548D01*
X002268Y018571D02*
X001818Y018571D01*
X001818Y018594D02*
X002268Y018594D01*
X002268Y018617D02*
X001818Y018617D01*
X001818Y018640D02*
X002268Y018640D01*
X002268Y018663D02*
X001818Y018663D01*
X001818Y018686D02*
X002268Y018686D01*
X002268Y018709D02*
X001818Y018709D01*
X001818Y018732D02*
X002268Y018732D01*
X002268Y018755D02*
X001818Y018755D01*
X001818Y018778D02*
X002268Y018778D01*
X002268Y018801D02*
X001818Y018801D01*
X001818Y018824D02*
X002268Y018824D01*
X002268Y018847D02*
X001818Y018847D01*
X001818Y018870D02*
X002268Y018870D01*
X002268Y018893D02*
X001818Y018893D01*
X001818Y019046D02*
X002268Y019046D01*
X001818Y019046D02*
X001818Y019496D01*
X002268Y019496D01*
X002268Y019046D01*
X002268Y019069D02*
X001818Y019069D01*
X001818Y019092D02*
X002268Y019092D01*
X002268Y019115D02*
X001818Y019115D01*
X001818Y019138D02*
X002268Y019138D01*
X002268Y019161D02*
X001818Y019161D01*
X001818Y019184D02*
X002268Y019184D01*
X002268Y019207D02*
X001818Y019207D01*
X001818Y019230D02*
X002268Y019230D01*
X002268Y019253D02*
X001818Y019253D01*
X001818Y019276D02*
X002268Y019276D01*
X002268Y019299D02*
X001818Y019299D01*
X001818Y019322D02*
X002268Y019322D01*
X002268Y019345D02*
X001818Y019345D01*
X001818Y019368D02*
X002268Y019368D01*
X002268Y019391D02*
X001818Y019391D01*
X001818Y019414D02*
X002268Y019414D01*
X002268Y019437D02*
X001818Y019437D01*
X001818Y019460D02*
X002268Y019460D01*
X002268Y019483D02*
X001818Y019483D01*
X001818Y019637D02*
X002268Y019637D01*
X001818Y019637D02*
X001818Y020087D01*
X002268Y020087D01*
X002268Y019637D01*
X002268Y019660D02*
X001818Y019660D01*
X001818Y019683D02*
X002268Y019683D01*
X002268Y019706D02*
X001818Y019706D01*
X001818Y019729D02*
X002268Y019729D01*
X002268Y019752D02*
X001818Y019752D01*
X001818Y019775D02*
X002268Y019775D01*
X002268Y019798D02*
X001818Y019798D01*
X001818Y019821D02*
X002268Y019821D01*
X002268Y019844D02*
X001818Y019844D01*
X001818Y019867D02*
X002268Y019867D01*
X002268Y019890D02*
X001818Y019890D01*
X001818Y019913D02*
X002268Y019913D01*
X002268Y019936D02*
X001818Y019936D01*
X001818Y019959D02*
X002268Y019959D01*
X002268Y019982D02*
X001818Y019982D01*
X001818Y020005D02*
X002268Y020005D01*
X002268Y020028D02*
X001818Y020028D01*
X001818Y020051D02*
X002268Y020051D01*
X002268Y020074D02*
X001818Y020074D01*
X002605Y019637D02*
X003055Y019637D01*
X002605Y019637D02*
X002605Y020087D01*
X003055Y020087D01*
X003055Y019637D01*
X003055Y019660D02*
X002605Y019660D01*
X002605Y019683D02*
X003055Y019683D01*
X003055Y019706D02*
X002605Y019706D01*
X002605Y019729D02*
X003055Y019729D01*
X003055Y019752D02*
X002605Y019752D01*
X002605Y019775D02*
X003055Y019775D01*
X003055Y019798D02*
X002605Y019798D01*
X002605Y019821D02*
X003055Y019821D01*
X003055Y019844D02*
X002605Y019844D01*
X002605Y019867D02*
X003055Y019867D01*
X003055Y019890D02*
X002605Y019890D01*
X002605Y019913D02*
X003055Y019913D01*
X003055Y019936D02*
X002605Y019936D01*
X002605Y019959D02*
X003055Y019959D01*
X003055Y019982D02*
X002605Y019982D01*
X002605Y020005D02*
X003055Y020005D01*
X003055Y020028D02*
X002605Y020028D01*
X002605Y020051D02*
X003055Y020051D01*
X003055Y020074D02*
X002605Y020074D01*
X002605Y019046D02*
X003055Y019046D01*
X002605Y019046D02*
X002605Y019496D01*
X003055Y019496D01*
X003055Y019046D01*
X003055Y019069D02*
X002605Y019069D01*
X002605Y019092D02*
X003055Y019092D01*
X003055Y019115D02*
X002605Y019115D01*
X002605Y019138D02*
X003055Y019138D01*
X003055Y019161D02*
X002605Y019161D01*
X002605Y019184D02*
X003055Y019184D01*
X003055Y019207D02*
X002605Y019207D01*
X002605Y019230D02*
X003055Y019230D01*
X003055Y019253D02*
X002605Y019253D01*
X002605Y019276D02*
X003055Y019276D01*
X003055Y019299D02*
X002605Y019299D01*
X002605Y019322D02*
X003055Y019322D01*
X003055Y019345D02*
X002605Y019345D01*
X002605Y019368D02*
X003055Y019368D01*
X003055Y019391D02*
X002605Y019391D01*
X002605Y019414D02*
X003055Y019414D01*
X003055Y019437D02*
X002605Y019437D01*
X002605Y019460D02*
X003055Y019460D01*
X003055Y019483D02*
X002605Y019483D01*
X002605Y018456D02*
X003055Y018456D01*
X002605Y018456D02*
X002605Y018906D01*
X003055Y018906D01*
X003055Y018456D01*
X003055Y018479D02*
X002605Y018479D01*
X002605Y018502D02*
X003055Y018502D01*
X003055Y018525D02*
X002605Y018525D01*
X002605Y018548D02*
X003055Y018548D01*
X003055Y018571D02*
X002605Y018571D01*
X002605Y018594D02*
X003055Y018594D01*
X003055Y018617D02*
X002605Y018617D01*
X002605Y018640D02*
X003055Y018640D01*
X003055Y018663D02*
X002605Y018663D01*
X002605Y018686D02*
X003055Y018686D01*
X003055Y018709D02*
X002605Y018709D01*
X002605Y018732D02*
X003055Y018732D01*
X003055Y018755D02*
X002605Y018755D01*
X002605Y018778D02*
X003055Y018778D01*
X003055Y018801D02*
X002605Y018801D01*
X002605Y018824D02*
X003055Y018824D01*
X003055Y018847D02*
X002605Y018847D01*
X002605Y018870D02*
X003055Y018870D01*
X003055Y018893D02*
X002605Y018893D01*
X002605Y017865D02*
X003055Y017865D01*
X002605Y017865D02*
X002605Y018315D01*
X003055Y018315D01*
X003055Y017865D01*
X003055Y017888D02*
X002605Y017888D01*
X002605Y017911D02*
X003055Y017911D01*
X003055Y017934D02*
X002605Y017934D01*
X002605Y017957D02*
X003055Y017957D01*
X003055Y017980D02*
X002605Y017980D01*
X002605Y018003D02*
X003055Y018003D01*
X003055Y018026D02*
X002605Y018026D01*
X002605Y018049D02*
X003055Y018049D01*
X003055Y018072D02*
X002605Y018072D01*
X002605Y018095D02*
X003055Y018095D01*
X003055Y018118D02*
X002605Y018118D01*
X002605Y018141D02*
X003055Y018141D01*
X003055Y018164D02*
X002605Y018164D01*
X002605Y018187D02*
X003055Y018187D01*
X003055Y018210D02*
X002605Y018210D01*
X002605Y018233D02*
X003055Y018233D01*
X003055Y018256D02*
X002605Y018256D01*
X002605Y018279D02*
X003055Y018279D01*
X003055Y018302D02*
X002605Y018302D01*
X002605Y017275D02*
X003055Y017275D01*
X002605Y017275D02*
X002605Y017725D01*
X003055Y017725D01*
X003055Y017275D01*
X003055Y017298D02*
X002605Y017298D01*
X002605Y017321D02*
X003055Y017321D01*
X003055Y017344D02*
X002605Y017344D01*
X002605Y017367D02*
X003055Y017367D01*
X003055Y017390D02*
X002605Y017390D01*
X002605Y017413D02*
X003055Y017413D01*
X003055Y017436D02*
X002605Y017436D01*
X002605Y017459D02*
X003055Y017459D01*
X003055Y017482D02*
X002605Y017482D01*
X002605Y017505D02*
X003055Y017505D01*
X003055Y017528D02*
X002605Y017528D01*
X002605Y017551D02*
X003055Y017551D01*
X003055Y017574D02*
X002605Y017574D01*
X002605Y017597D02*
X003055Y017597D01*
X003055Y017620D02*
X002605Y017620D01*
X002605Y017643D02*
X003055Y017643D01*
X003055Y017666D02*
X002605Y017666D01*
X002605Y017689D02*
X003055Y017689D01*
X003055Y017712D02*
X002605Y017712D01*
X002268Y017275D02*
X001818Y017275D01*
X001818Y017725D01*
X002268Y017725D01*
X002268Y017275D01*
X002268Y017298D02*
X001818Y017298D01*
X001818Y017321D02*
X002268Y017321D01*
X002268Y017344D02*
X001818Y017344D01*
X001818Y017367D02*
X002268Y017367D01*
X002268Y017390D02*
X001818Y017390D01*
X001818Y017413D02*
X002268Y017413D01*
X002268Y017436D02*
X001818Y017436D01*
X001818Y017459D02*
X002268Y017459D01*
X002268Y017482D02*
X001818Y017482D01*
X001818Y017505D02*
X002268Y017505D01*
X002268Y017528D02*
X001818Y017528D01*
X001818Y017551D02*
X002268Y017551D01*
X002268Y017574D02*
X001818Y017574D01*
X001818Y017597D02*
X002268Y017597D01*
X002268Y017620D02*
X001818Y017620D01*
X001818Y017643D02*
X002268Y017643D01*
X002268Y017666D02*
X001818Y017666D01*
X001818Y017689D02*
X002268Y017689D01*
X002268Y017712D02*
X001818Y017712D01*
X001818Y016684D02*
X002268Y016684D01*
X001818Y016684D02*
X001818Y017134D01*
X002268Y017134D01*
X002268Y016684D01*
X002268Y016707D02*
X001818Y016707D01*
X001818Y016730D02*
X002268Y016730D01*
X002268Y016753D02*
X001818Y016753D01*
X001818Y016776D02*
X002268Y016776D01*
X002268Y016799D02*
X001818Y016799D01*
X001818Y016822D02*
X002268Y016822D01*
X002268Y016845D02*
X001818Y016845D01*
X001818Y016868D02*
X002268Y016868D01*
X002268Y016891D02*
X001818Y016891D01*
X001818Y016914D02*
X002268Y016914D01*
X002268Y016937D02*
X001818Y016937D01*
X001818Y016960D02*
X002268Y016960D01*
X002268Y016983D02*
X001818Y016983D01*
X001818Y017006D02*
X002268Y017006D01*
X002268Y017029D02*
X001818Y017029D01*
X001818Y017052D02*
X002268Y017052D01*
X002268Y017075D02*
X001818Y017075D01*
X001818Y017098D02*
X002268Y017098D01*
X002268Y017121D02*
X001818Y017121D01*
X001818Y016093D02*
X002268Y016093D01*
X001818Y016093D02*
X001818Y016543D01*
X002268Y016543D01*
X002268Y016093D01*
X002268Y016116D02*
X001818Y016116D01*
X001818Y016139D02*
X002268Y016139D01*
X002268Y016162D02*
X001818Y016162D01*
X001818Y016185D02*
X002268Y016185D01*
X002268Y016208D02*
X001818Y016208D01*
X001818Y016231D02*
X002268Y016231D01*
X002268Y016254D02*
X001818Y016254D01*
X001818Y016277D02*
X002268Y016277D01*
X002268Y016300D02*
X001818Y016300D01*
X001818Y016323D02*
X002268Y016323D01*
X002268Y016346D02*
X001818Y016346D01*
X001818Y016369D02*
X002268Y016369D01*
X002268Y016392D02*
X001818Y016392D01*
X001818Y016415D02*
X002268Y016415D01*
X002268Y016438D02*
X001818Y016438D01*
X001818Y016461D02*
X002268Y016461D01*
X002268Y016484D02*
X001818Y016484D01*
X001818Y016507D02*
X002268Y016507D01*
X002268Y016530D02*
X001818Y016530D01*
X002605Y016093D02*
X003055Y016093D01*
X002605Y016093D02*
X002605Y016543D01*
X003055Y016543D01*
X003055Y016093D01*
X003055Y016116D02*
X002605Y016116D01*
X002605Y016139D02*
X003055Y016139D01*
X003055Y016162D02*
X002605Y016162D01*
X002605Y016185D02*
X003055Y016185D01*
X003055Y016208D02*
X002605Y016208D01*
X002605Y016231D02*
X003055Y016231D01*
X003055Y016254D02*
X002605Y016254D01*
X002605Y016277D02*
X003055Y016277D01*
X003055Y016300D02*
X002605Y016300D01*
X002605Y016323D02*
X003055Y016323D01*
X003055Y016346D02*
X002605Y016346D01*
X002605Y016369D02*
X003055Y016369D01*
X003055Y016392D02*
X002605Y016392D01*
X002605Y016415D02*
X003055Y016415D01*
X003055Y016438D02*
X002605Y016438D01*
X002605Y016461D02*
X003055Y016461D01*
X003055Y016484D02*
X002605Y016484D01*
X002605Y016507D02*
X003055Y016507D01*
X003055Y016530D02*
X002605Y016530D01*
X002605Y016684D02*
X003055Y016684D01*
X002605Y016684D02*
X002605Y017134D01*
X003055Y017134D01*
X003055Y016684D01*
X003055Y016707D02*
X002605Y016707D01*
X002605Y016730D02*
X003055Y016730D01*
X003055Y016753D02*
X002605Y016753D01*
X002605Y016776D02*
X003055Y016776D01*
X003055Y016799D02*
X002605Y016799D01*
X002605Y016822D02*
X003055Y016822D01*
X003055Y016845D02*
X002605Y016845D01*
X002605Y016868D02*
X003055Y016868D01*
X003055Y016891D02*
X002605Y016891D01*
X002605Y016914D02*
X003055Y016914D01*
X003055Y016937D02*
X002605Y016937D01*
X002605Y016960D02*
X003055Y016960D01*
X003055Y016983D02*
X002605Y016983D01*
X002605Y017006D02*
X003055Y017006D01*
X003055Y017029D02*
X002605Y017029D01*
X002605Y017052D02*
X003055Y017052D01*
X003055Y017075D02*
X002605Y017075D01*
X002605Y017098D02*
X003055Y017098D01*
X003055Y017121D02*
X002605Y017121D01*
X002605Y015503D02*
X003055Y015503D01*
X002605Y015503D02*
X002605Y015953D01*
X003055Y015953D01*
X003055Y015503D01*
X003055Y015526D02*
X002605Y015526D01*
X002605Y015549D02*
X003055Y015549D01*
X003055Y015572D02*
X002605Y015572D01*
X002605Y015595D02*
X003055Y015595D01*
X003055Y015618D02*
X002605Y015618D01*
X002605Y015641D02*
X003055Y015641D01*
X003055Y015664D02*
X002605Y015664D01*
X002605Y015687D02*
X003055Y015687D01*
X003055Y015710D02*
X002605Y015710D01*
X002605Y015733D02*
X003055Y015733D01*
X003055Y015756D02*
X002605Y015756D01*
X002605Y015779D02*
X003055Y015779D01*
X003055Y015802D02*
X002605Y015802D01*
X002605Y015825D02*
X003055Y015825D01*
X003055Y015848D02*
X002605Y015848D01*
X002605Y015871D02*
X003055Y015871D01*
X003055Y015894D02*
X002605Y015894D01*
X002605Y015917D02*
X003055Y015917D01*
X003055Y015940D02*
X002605Y015940D01*
X002268Y015503D02*
X001818Y015503D01*
X001818Y015953D01*
X002268Y015953D01*
X002268Y015503D01*
X002268Y015526D02*
X001818Y015526D01*
X001818Y015549D02*
X002268Y015549D01*
X002268Y015572D02*
X001818Y015572D01*
X001818Y015595D02*
X002268Y015595D01*
X002268Y015618D02*
X001818Y015618D01*
X001818Y015641D02*
X002268Y015641D01*
X002268Y015664D02*
X001818Y015664D01*
X001818Y015687D02*
X002268Y015687D01*
X002268Y015710D02*
X001818Y015710D01*
X001818Y015733D02*
X002268Y015733D01*
X002268Y015756D02*
X001818Y015756D01*
X001818Y015779D02*
X002268Y015779D01*
X002268Y015802D02*
X001818Y015802D01*
X001818Y015825D02*
X002268Y015825D01*
X002268Y015848D02*
X001818Y015848D01*
X001818Y015871D02*
X002268Y015871D01*
X002268Y015894D02*
X001818Y015894D01*
X001818Y015917D02*
X002268Y015917D01*
X002268Y015940D02*
X001818Y015940D01*
X001818Y014912D02*
X002268Y014912D01*
X001818Y014912D02*
X001818Y015362D01*
X002268Y015362D01*
X002268Y014912D01*
X002268Y014935D02*
X001818Y014935D01*
X001818Y014958D02*
X002268Y014958D01*
X002268Y014981D02*
X001818Y014981D01*
X001818Y015004D02*
X002268Y015004D01*
X002268Y015027D02*
X001818Y015027D01*
X001818Y015050D02*
X002268Y015050D01*
X002268Y015073D02*
X001818Y015073D01*
X001818Y015096D02*
X002268Y015096D01*
X002268Y015119D02*
X001818Y015119D01*
X001818Y015142D02*
X002268Y015142D01*
X002268Y015165D02*
X001818Y015165D01*
X001818Y015188D02*
X002268Y015188D01*
X002268Y015211D02*
X001818Y015211D01*
X001818Y015234D02*
X002268Y015234D01*
X002268Y015257D02*
X001818Y015257D01*
X001818Y015280D02*
X002268Y015280D01*
X002268Y015303D02*
X001818Y015303D01*
X001818Y015326D02*
X002268Y015326D01*
X002268Y015349D02*
X001818Y015349D01*
X002605Y014912D02*
X003055Y014912D01*
X002605Y014912D02*
X002605Y015362D01*
X003055Y015362D01*
X003055Y014912D01*
X003055Y014935D02*
X002605Y014935D01*
X002605Y014958D02*
X003055Y014958D01*
X003055Y014981D02*
X002605Y014981D01*
X002605Y015004D02*
X003055Y015004D01*
X003055Y015027D02*
X002605Y015027D01*
X002605Y015050D02*
X003055Y015050D01*
X003055Y015073D02*
X002605Y015073D01*
X002605Y015096D02*
X003055Y015096D01*
X003055Y015119D02*
X002605Y015119D01*
X002605Y015142D02*
X003055Y015142D01*
X003055Y015165D02*
X002605Y015165D01*
X002605Y015188D02*
X003055Y015188D01*
X003055Y015211D02*
X002605Y015211D01*
X002605Y015234D02*
X003055Y015234D01*
X003055Y015257D02*
X002605Y015257D01*
X002605Y015280D02*
X003055Y015280D01*
X003055Y015303D02*
X002605Y015303D01*
X002605Y015326D02*
X003055Y015326D01*
X003055Y015349D02*
X002605Y015349D01*
X003983Y012156D02*
X004433Y012156D01*
X003983Y012156D02*
X003983Y012606D01*
X004433Y012606D01*
X004433Y012156D01*
X004433Y012179D02*
X003983Y012179D01*
X003983Y012202D02*
X004433Y012202D01*
X004433Y012225D02*
X003983Y012225D01*
X003983Y012248D02*
X004433Y012248D01*
X004433Y012271D02*
X003983Y012271D01*
X003983Y012294D02*
X004433Y012294D01*
X004433Y012317D02*
X003983Y012317D01*
X003983Y012340D02*
X004433Y012340D01*
X004433Y012363D02*
X003983Y012363D01*
X003983Y012386D02*
X004433Y012386D01*
X004433Y012409D02*
X003983Y012409D01*
X003983Y012432D02*
X004433Y012432D01*
X004433Y012455D02*
X003983Y012455D01*
X003983Y012478D02*
X004433Y012478D01*
X004433Y012501D02*
X003983Y012501D01*
X003983Y012524D02*
X004433Y012524D01*
X004433Y012547D02*
X003983Y012547D01*
X003983Y012570D02*
X004433Y012570D01*
X004433Y012593D02*
X003983Y012593D01*
X003983Y011566D02*
X004433Y011566D01*
X003983Y011566D02*
X003983Y012016D01*
X004433Y012016D01*
X004433Y011566D01*
X004433Y011589D02*
X003983Y011589D01*
X003983Y011612D02*
X004433Y011612D01*
X004433Y011635D02*
X003983Y011635D01*
X003983Y011658D02*
X004433Y011658D01*
X004433Y011681D02*
X003983Y011681D01*
X003983Y011704D02*
X004433Y011704D01*
X004433Y011727D02*
X003983Y011727D01*
X003983Y011750D02*
X004433Y011750D01*
X004433Y011773D02*
X003983Y011773D01*
X003983Y011796D02*
X004433Y011796D01*
X004433Y011819D02*
X003983Y011819D01*
X003983Y011842D02*
X004433Y011842D01*
X004433Y011865D02*
X003983Y011865D01*
X003983Y011888D02*
X004433Y011888D01*
X004433Y011911D02*
X003983Y011911D01*
X003983Y011934D02*
X004433Y011934D01*
X004433Y011957D02*
X003983Y011957D01*
X003983Y011980D02*
X004433Y011980D01*
X004433Y012003D02*
X003983Y012003D01*
X017861Y023967D02*
X018311Y023967D01*
X017861Y023967D02*
X017861Y024417D01*
X018311Y024417D01*
X018311Y023967D01*
X018311Y023990D02*
X017861Y023990D01*
X017861Y024013D02*
X018311Y024013D01*
X018311Y024036D02*
X017861Y024036D01*
X017861Y024059D02*
X018311Y024059D01*
X018311Y024082D02*
X017861Y024082D01*
X017861Y024105D02*
X018311Y024105D01*
X018311Y024128D02*
X017861Y024128D01*
X017861Y024151D02*
X018311Y024151D01*
X018311Y024174D02*
X017861Y024174D01*
X017861Y024197D02*
X018311Y024197D01*
X018311Y024220D02*
X017861Y024220D01*
X017861Y024243D02*
X018311Y024243D01*
X018311Y024266D02*
X017861Y024266D01*
X017861Y024289D02*
X018311Y024289D01*
X018311Y024312D02*
X017861Y024312D01*
X017861Y024335D02*
X018311Y024335D01*
X018311Y024358D02*
X017861Y024358D01*
X017861Y024381D02*
X018311Y024381D01*
X018311Y024404D02*
X017861Y024404D01*
X018550Y023967D02*
X019000Y023967D01*
X018550Y023967D02*
X018550Y024417D01*
X019000Y024417D01*
X019000Y023967D01*
X019000Y023990D02*
X018550Y023990D01*
X018550Y024013D02*
X019000Y024013D01*
X019000Y024036D02*
X018550Y024036D01*
X018550Y024059D02*
X019000Y024059D01*
X019000Y024082D02*
X018550Y024082D01*
X018550Y024105D02*
X019000Y024105D01*
X019000Y024128D02*
X018550Y024128D01*
X018550Y024151D02*
X019000Y024151D01*
X019000Y024174D02*
X018550Y024174D01*
X018550Y024197D02*
X019000Y024197D01*
X019000Y024220D02*
X018550Y024220D01*
X018550Y024243D02*
X019000Y024243D01*
X019000Y024266D02*
X018550Y024266D01*
X018550Y024289D02*
X019000Y024289D01*
X019000Y024312D02*
X018550Y024312D01*
X018550Y024335D02*
X019000Y024335D01*
X019000Y024358D02*
X018550Y024358D01*
X018550Y024381D02*
X019000Y024381D01*
X019000Y024404D02*
X018550Y024404D01*
X019239Y023967D02*
X019689Y023967D01*
X019239Y023967D02*
X019239Y024417D01*
X019689Y024417D01*
X019689Y023967D01*
X019689Y023990D02*
X019239Y023990D01*
X019239Y024013D02*
X019689Y024013D01*
X019689Y024036D02*
X019239Y024036D01*
X019239Y024059D02*
X019689Y024059D01*
X019689Y024082D02*
X019239Y024082D01*
X019239Y024105D02*
X019689Y024105D01*
X019689Y024128D02*
X019239Y024128D01*
X019239Y024151D02*
X019689Y024151D01*
X019689Y024174D02*
X019239Y024174D01*
X019239Y024197D02*
X019689Y024197D01*
X019689Y024220D02*
X019239Y024220D01*
X019239Y024243D02*
X019689Y024243D01*
X019689Y024266D02*
X019239Y024266D01*
X019239Y024289D02*
X019689Y024289D01*
X019689Y024312D02*
X019239Y024312D01*
X019239Y024335D02*
X019689Y024335D01*
X019689Y024358D02*
X019239Y024358D01*
X019239Y024381D02*
X019689Y024381D01*
X019689Y024404D02*
X019239Y024404D01*
X019928Y023967D02*
X020378Y023967D01*
X019928Y023967D02*
X019928Y024417D01*
X020378Y024417D01*
X020378Y023967D01*
X020378Y023990D02*
X019928Y023990D01*
X019928Y024013D02*
X020378Y024013D01*
X020378Y024036D02*
X019928Y024036D01*
X019928Y024059D02*
X020378Y024059D01*
X020378Y024082D02*
X019928Y024082D01*
X019928Y024105D02*
X020378Y024105D01*
X020378Y024128D02*
X019928Y024128D01*
X019928Y024151D02*
X020378Y024151D01*
X020378Y024174D02*
X019928Y024174D01*
X019928Y024197D02*
X020378Y024197D01*
X020378Y024220D02*
X019928Y024220D01*
X019928Y024243D02*
X020378Y024243D01*
X020378Y024266D02*
X019928Y024266D01*
X019928Y024289D02*
X020378Y024289D01*
X020378Y024312D02*
X019928Y024312D01*
X019928Y024335D02*
X020378Y024335D01*
X020378Y024358D02*
X019928Y024358D01*
X019928Y024381D02*
X020378Y024381D01*
X020378Y024404D02*
X019928Y024404D01*
X020617Y023967D02*
X021067Y023967D01*
X020617Y023967D02*
X020617Y024417D01*
X021067Y024417D01*
X021067Y023967D01*
X021067Y023990D02*
X020617Y023990D01*
X020617Y024013D02*
X021067Y024013D01*
X021067Y024036D02*
X020617Y024036D01*
X020617Y024059D02*
X021067Y024059D01*
X021067Y024082D02*
X020617Y024082D01*
X020617Y024105D02*
X021067Y024105D01*
X021067Y024128D02*
X020617Y024128D01*
X020617Y024151D02*
X021067Y024151D01*
X021067Y024174D02*
X020617Y024174D01*
X020617Y024197D02*
X021067Y024197D01*
X021067Y024220D02*
X020617Y024220D01*
X020617Y024243D02*
X021067Y024243D01*
X021067Y024266D02*
X020617Y024266D01*
X020617Y024289D02*
X021067Y024289D01*
X021067Y024312D02*
X020617Y024312D01*
X020617Y024335D02*
X021067Y024335D01*
X021067Y024358D02*
X020617Y024358D01*
X020617Y024381D02*
X021067Y024381D01*
X021067Y024404D02*
X020617Y024404D01*
X021306Y023967D02*
X021756Y023967D01*
X021306Y023967D02*
X021306Y024417D01*
X021756Y024417D01*
X021756Y023967D01*
X021756Y023990D02*
X021306Y023990D01*
X021306Y024013D02*
X021756Y024013D01*
X021756Y024036D02*
X021306Y024036D01*
X021306Y024059D02*
X021756Y024059D01*
X021756Y024082D02*
X021306Y024082D01*
X021306Y024105D02*
X021756Y024105D01*
X021756Y024128D02*
X021306Y024128D01*
X021306Y024151D02*
X021756Y024151D01*
X021756Y024174D02*
X021306Y024174D01*
X021306Y024197D02*
X021756Y024197D01*
X021756Y024220D02*
X021306Y024220D01*
X021306Y024243D02*
X021756Y024243D01*
X021756Y024266D02*
X021306Y024266D01*
X021306Y024289D02*
X021756Y024289D01*
X021756Y024312D02*
X021306Y024312D01*
X021306Y024335D02*
X021756Y024335D01*
X021756Y024358D02*
X021306Y024358D01*
X021306Y024381D02*
X021756Y024381D01*
X021756Y024404D02*
X021306Y024404D01*
X026030Y021999D02*
X026480Y021999D01*
X026030Y021999D02*
X026030Y022449D01*
X026480Y022449D01*
X026480Y021999D01*
X026480Y022022D02*
X026030Y022022D01*
X026030Y022045D02*
X026480Y022045D01*
X026480Y022068D02*
X026030Y022068D01*
X026030Y022091D02*
X026480Y022091D01*
X026480Y022114D02*
X026030Y022114D01*
X026030Y022137D02*
X026480Y022137D01*
X026480Y022160D02*
X026030Y022160D01*
X026030Y022183D02*
X026480Y022183D01*
X026480Y022206D02*
X026030Y022206D01*
X026030Y022229D02*
X026480Y022229D01*
X026480Y022252D02*
X026030Y022252D01*
X026030Y022275D02*
X026480Y022275D01*
X026480Y022298D02*
X026030Y022298D01*
X026030Y022321D02*
X026480Y022321D01*
X026480Y022344D02*
X026030Y022344D01*
X026030Y022367D02*
X026480Y022367D01*
X026480Y022390D02*
X026030Y022390D01*
X026030Y022413D02*
X026480Y022413D01*
X026480Y022436D02*
X026030Y022436D01*
X026227Y016684D02*
X026677Y016684D01*
X026227Y016684D02*
X026227Y017134D01*
X026677Y017134D01*
X026677Y016684D01*
X026677Y016707D02*
X026227Y016707D01*
X026227Y016730D02*
X026677Y016730D01*
X026677Y016753D02*
X026227Y016753D01*
X026227Y016776D02*
X026677Y016776D01*
X026677Y016799D02*
X026227Y016799D01*
X026227Y016822D02*
X026677Y016822D01*
X026677Y016845D02*
X026227Y016845D01*
X026227Y016868D02*
X026677Y016868D01*
X026677Y016891D02*
X026227Y016891D01*
X026227Y016914D02*
X026677Y016914D01*
X026677Y016937D02*
X026227Y016937D01*
X026227Y016960D02*
X026677Y016960D01*
X026677Y016983D02*
X026227Y016983D01*
X026227Y017006D02*
X026677Y017006D01*
X026677Y017029D02*
X026227Y017029D01*
X026227Y017052D02*
X026677Y017052D01*
X026677Y017075D02*
X026227Y017075D01*
X026227Y017098D02*
X026677Y017098D01*
X026677Y017121D02*
X026227Y017121D01*
X027014Y016684D02*
X027464Y016684D01*
X027014Y016684D02*
X027014Y017134D01*
X027464Y017134D01*
X027464Y016684D01*
X027464Y016707D02*
X027014Y016707D01*
X027014Y016730D02*
X027464Y016730D01*
X027464Y016753D02*
X027014Y016753D01*
X027014Y016776D02*
X027464Y016776D01*
X027464Y016799D02*
X027014Y016799D01*
X027014Y016822D02*
X027464Y016822D01*
X027464Y016845D02*
X027014Y016845D01*
X027014Y016868D02*
X027464Y016868D01*
X027464Y016891D02*
X027014Y016891D01*
X027014Y016914D02*
X027464Y016914D01*
X027464Y016937D02*
X027014Y016937D01*
X027014Y016960D02*
X027464Y016960D01*
X027464Y016983D02*
X027014Y016983D01*
X027014Y017006D02*
X027464Y017006D01*
X027464Y017029D02*
X027014Y017029D01*
X027014Y017052D02*
X027464Y017052D01*
X027464Y017075D02*
X027014Y017075D01*
X027014Y017098D02*
X027464Y017098D01*
X027464Y017121D02*
X027014Y017121D01*
X027605Y016684D02*
X028055Y016684D01*
X027605Y016684D02*
X027605Y017134D01*
X028055Y017134D01*
X028055Y016684D01*
X028055Y016707D02*
X027605Y016707D01*
X027605Y016730D02*
X028055Y016730D01*
X028055Y016753D02*
X027605Y016753D01*
X027605Y016776D02*
X028055Y016776D01*
X028055Y016799D02*
X027605Y016799D01*
X027605Y016822D02*
X028055Y016822D01*
X028055Y016845D02*
X027605Y016845D01*
X027605Y016868D02*
X028055Y016868D01*
X028055Y016891D02*
X027605Y016891D01*
X027605Y016914D02*
X028055Y016914D01*
X028055Y016937D02*
X027605Y016937D01*
X027605Y016960D02*
X028055Y016960D01*
X028055Y016983D02*
X027605Y016983D01*
X027605Y017006D02*
X028055Y017006D01*
X028055Y017029D02*
X027605Y017029D01*
X027605Y017052D02*
X028055Y017052D01*
X028055Y017075D02*
X027605Y017075D01*
X027605Y017098D02*
X028055Y017098D01*
X028055Y017121D02*
X027605Y017121D01*
X027605Y015897D02*
X028055Y015897D01*
X027605Y015897D02*
X027605Y016347D01*
X028055Y016347D01*
X028055Y015897D01*
X028055Y015920D02*
X027605Y015920D01*
X027605Y015943D02*
X028055Y015943D01*
X028055Y015966D02*
X027605Y015966D01*
X027605Y015989D02*
X028055Y015989D01*
X028055Y016012D02*
X027605Y016012D01*
X027605Y016035D02*
X028055Y016035D01*
X028055Y016058D02*
X027605Y016058D01*
X027605Y016081D02*
X028055Y016081D01*
X028055Y016104D02*
X027605Y016104D01*
X027605Y016127D02*
X028055Y016127D01*
X028055Y016150D02*
X027605Y016150D01*
X027605Y016173D02*
X028055Y016173D01*
X028055Y016196D02*
X027605Y016196D01*
X027605Y016219D02*
X028055Y016219D01*
X028055Y016242D02*
X027605Y016242D01*
X027605Y016265D02*
X028055Y016265D01*
X028055Y016288D02*
X027605Y016288D01*
X027605Y016311D02*
X028055Y016311D01*
X028055Y016334D02*
X027605Y016334D01*
X027661Y015109D02*
X027211Y015109D01*
X027211Y015559D01*
X027661Y015559D01*
X027661Y015109D01*
X027661Y015132D02*
X027211Y015132D01*
X027211Y015155D02*
X027661Y015155D01*
X027661Y015178D02*
X027211Y015178D01*
X027211Y015201D02*
X027661Y015201D01*
X027661Y015224D02*
X027211Y015224D01*
X027211Y015247D02*
X027661Y015247D01*
X027661Y015270D02*
X027211Y015270D01*
X027211Y015293D02*
X027661Y015293D01*
X027661Y015316D02*
X027211Y015316D01*
X027211Y015339D02*
X027661Y015339D01*
X027661Y015362D02*
X027211Y015362D01*
X027211Y015385D02*
X027661Y015385D01*
X027661Y015408D02*
X027211Y015408D01*
X027211Y015431D02*
X027661Y015431D01*
X027661Y015454D02*
X027211Y015454D01*
X027211Y015477D02*
X027661Y015477D01*
X027661Y015500D02*
X027211Y015500D01*
X027211Y015523D02*
X027661Y015523D01*
X027661Y015546D02*
X027211Y015546D01*
X027999Y015109D02*
X028449Y015109D01*
X027999Y015109D02*
X027999Y015559D01*
X028449Y015559D01*
X028449Y015109D01*
X028449Y015132D02*
X027999Y015132D01*
X027999Y015155D02*
X028449Y015155D01*
X028449Y015178D02*
X027999Y015178D01*
X027999Y015201D02*
X028449Y015201D01*
X028449Y015224D02*
X027999Y015224D01*
X027999Y015247D02*
X028449Y015247D01*
X028449Y015270D02*
X027999Y015270D01*
X027999Y015293D02*
X028449Y015293D01*
X028449Y015316D02*
X027999Y015316D01*
X027999Y015339D02*
X028449Y015339D01*
X028449Y015362D02*
X027999Y015362D01*
X027999Y015385D02*
X028449Y015385D01*
X028449Y015408D02*
X027999Y015408D01*
X027999Y015431D02*
X028449Y015431D01*
X028449Y015454D02*
X027999Y015454D01*
X027999Y015477D02*
X028449Y015477D01*
X028449Y015500D02*
X027999Y015500D01*
X027999Y015523D02*
X028449Y015523D01*
X028449Y015546D02*
X027999Y015546D01*
X028589Y015109D02*
X029039Y015109D01*
X028589Y015109D02*
X028589Y015559D01*
X029039Y015559D01*
X029039Y015109D01*
X029039Y015132D02*
X028589Y015132D01*
X028589Y015155D02*
X029039Y015155D01*
X029039Y015178D02*
X028589Y015178D01*
X028589Y015201D02*
X029039Y015201D01*
X029039Y015224D02*
X028589Y015224D01*
X028589Y015247D02*
X029039Y015247D01*
X029039Y015270D02*
X028589Y015270D01*
X028589Y015293D02*
X029039Y015293D01*
X029039Y015316D02*
X028589Y015316D01*
X028589Y015339D02*
X029039Y015339D01*
X029039Y015362D02*
X028589Y015362D01*
X028589Y015385D02*
X029039Y015385D01*
X029039Y015408D02*
X028589Y015408D01*
X028589Y015431D02*
X029039Y015431D01*
X029039Y015454D02*
X028589Y015454D01*
X028589Y015477D02*
X029039Y015477D01*
X029039Y015500D02*
X028589Y015500D01*
X028589Y015523D02*
X029039Y015523D01*
X029039Y015546D02*
X028589Y015546D01*
X029377Y015109D02*
X029827Y015109D01*
X029377Y015109D02*
X029377Y015559D01*
X029827Y015559D01*
X029827Y015109D01*
X029827Y015132D02*
X029377Y015132D01*
X029377Y015155D02*
X029827Y015155D01*
X029827Y015178D02*
X029377Y015178D01*
X029377Y015201D02*
X029827Y015201D01*
X029827Y015224D02*
X029377Y015224D01*
X029377Y015247D02*
X029827Y015247D01*
X029827Y015270D02*
X029377Y015270D01*
X029377Y015293D02*
X029827Y015293D01*
X029827Y015316D02*
X029377Y015316D01*
X029377Y015339D02*
X029827Y015339D01*
X029827Y015362D02*
X029377Y015362D01*
X029377Y015385D02*
X029827Y015385D01*
X029827Y015408D02*
X029377Y015408D01*
X029377Y015431D02*
X029827Y015431D01*
X029827Y015454D02*
X029377Y015454D01*
X029377Y015477D02*
X029827Y015477D01*
X029827Y015500D02*
X029377Y015500D01*
X029377Y015523D02*
X029827Y015523D01*
X029827Y015546D02*
X029377Y015546D01*
X032723Y013338D02*
X033173Y013338D01*
X032723Y013338D02*
X032723Y013788D01*
X033173Y013788D01*
X033173Y013338D01*
X033173Y013361D02*
X032723Y013361D01*
X032723Y013384D02*
X033173Y013384D01*
X033173Y013407D02*
X032723Y013407D01*
X032723Y013430D02*
X033173Y013430D01*
X033173Y013453D02*
X032723Y013453D01*
X032723Y013476D02*
X033173Y013476D01*
X033173Y013499D02*
X032723Y013499D01*
X032723Y013522D02*
X033173Y013522D01*
X033173Y013545D02*
X032723Y013545D01*
X032723Y013568D02*
X033173Y013568D01*
X033173Y013591D02*
X032723Y013591D01*
X032723Y013614D02*
X033173Y013614D01*
X033173Y013637D02*
X032723Y013637D01*
X032723Y013660D02*
X033173Y013660D01*
X033173Y013683D02*
X032723Y013683D01*
X032723Y013706D02*
X033173Y013706D01*
X033173Y013729D02*
X032723Y013729D01*
X032723Y013752D02*
X033173Y013752D01*
X033173Y013775D02*
X032723Y013775D01*
X033510Y013338D02*
X033960Y013338D01*
X033510Y013338D02*
X033510Y013788D01*
X033960Y013788D01*
X033960Y013338D01*
X033960Y013361D02*
X033510Y013361D01*
X033510Y013384D02*
X033960Y013384D01*
X033960Y013407D02*
X033510Y013407D01*
X033510Y013430D02*
X033960Y013430D01*
X033960Y013453D02*
X033510Y013453D01*
X033510Y013476D02*
X033960Y013476D01*
X033960Y013499D02*
X033510Y013499D01*
X033510Y013522D02*
X033960Y013522D01*
X033960Y013545D02*
X033510Y013545D01*
X033510Y013568D02*
X033960Y013568D01*
X033960Y013591D02*
X033510Y013591D01*
X033510Y013614D02*
X033960Y013614D01*
X033960Y013637D02*
X033510Y013637D01*
X033510Y013660D02*
X033960Y013660D01*
X033960Y013683D02*
X033510Y013683D01*
X033510Y013706D02*
X033960Y013706D01*
X033960Y013729D02*
X033510Y013729D01*
X033510Y013752D02*
X033960Y013752D01*
X033960Y013775D02*
X033510Y013775D01*
X033510Y014519D02*
X033960Y014519D01*
X033510Y014519D02*
X033510Y014969D01*
X033960Y014969D01*
X033960Y014519D01*
X033960Y014542D02*
X033510Y014542D01*
X033510Y014565D02*
X033960Y014565D01*
X033960Y014588D02*
X033510Y014588D01*
X033510Y014611D02*
X033960Y014611D01*
X033960Y014634D02*
X033510Y014634D01*
X033510Y014657D02*
X033960Y014657D01*
X033960Y014680D02*
X033510Y014680D01*
X033510Y014703D02*
X033960Y014703D01*
X033960Y014726D02*
X033510Y014726D01*
X033510Y014749D02*
X033960Y014749D01*
X033960Y014772D02*
X033510Y014772D01*
X033510Y014795D02*
X033960Y014795D01*
X033960Y014818D02*
X033510Y014818D01*
X033510Y014841D02*
X033960Y014841D01*
X033960Y014864D02*
X033510Y014864D01*
X033510Y014887D02*
X033960Y014887D01*
X033960Y014910D02*
X033510Y014910D01*
X033510Y014933D02*
X033960Y014933D01*
X033960Y014956D02*
X033510Y014956D01*
X034298Y014519D02*
X034748Y014519D01*
X034298Y014519D02*
X034298Y014969D01*
X034748Y014969D01*
X034748Y014519D01*
X034748Y014542D02*
X034298Y014542D01*
X034298Y014565D02*
X034748Y014565D01*
X034748Y014588D02*
X034298Y014588D01*
X034298Y014611D02*
X034748Y014611D01*
X034748Y014634D02*
X034298Y014634D01*
X034298Y014657D02*
X034748Y014657D01*
X034748Y014680D02*
X034298Y014680D01*
X034298Y014703D02*
X034748Y014703D01*
X034748Y014726D02*
X034298Y014726D01*
X034298Y014749D02*
X034748Y014749D01*
X034748Y014772D02*
X034298Y014772D01*
X034298Y014795D02*
X034748Y014795D01*
X034748Y014818D02*
X034298Y014818D01*
X034298Y014841D02*
X034748Y014841D01*
X034748Y014864D02*
X034298Y014864D01*
X034298Y014887D02*
X034748Y014887D01*
X034748Y014910D02*
X034298Y014910D01*
X034298Y014933D02*
X034748Y014933D01*
X034748Y014956D02*
X034298Y014956D01*
X034888Y014519D02*
X035338Y014519D01*
X034888Y014519D02*
X034888Y014969D01*
X035338Y014969D01*
X035338Y014519D01*
X035338Y014542D02*
X034888Y014542D01*
X034888Y014565D02*
X035338Y014565D01*
X035338Y014588D02*
X034888Y014588D01*
X034888Y014611D02*
X035338Y014611D01*
X035338Y014634D02*
X034888Y014634D01*
X034888Y014657D02*
X035338Y014657D01*
X035338Y014680D02*
X034888Y014680D01*
X034888Y014703D02*
X035338Y014703D01*
X035338Y014726D02*
X034888Y014726D01*
X034888Y014749D02*
X035338Y014749D01*
X035338Y014772D02*
X034888Y014772D01*
X034888Y014795D02*
X035338Y014795D01*
X035338Y014818D02*
X034888Y014818D01*
X034888Y014841D02*
X035338Y014841D01*
X035338Y014864D02*
X034888Y014864D01*
X034888Y014887D02*
X035338Y014887D01*
X035338Y014910D02*
X034888Y014910D01*
X034888Y014933D02*
X035338Y014933D01*
X035338Y014956D02*
X034888Y014956D01*
X035676Y014519D02*
X036126Y014519D01*
X035676Y014519D02*
X035676Y014969D01*
X036126Y014969D01*
X036126Y014519D01*
X036126Y014542D02*
X035676Y014542D01*
X035676Y014565D02*
X036126Y014565D01*
X036126Y014588D02*
X035676Y014588D01*
X035676Y014611D02*
X036126Y014611D01*
X036126Y014634D02*
X035676Y014634D01*
X035676Y014657D02*
X036126Y014657D01*
X036126Y014680D02*
X035676Y014680D01*
X035676Y014703D02*
X036126Y014703D01*
X036126Y014726D02*
X035676Y014726D01*
X035676Y014749D02*
X036126Y014749D01*
X036126Y014772D02*
X035676Y014772D01*
X035676Y014795D02*
X036126Y014795D01*
X036126Y014818D02*
X035676Y014818D01*
X035676Y014841D02*
X036126Y014841D01*
X036126Y014864D02*
X035676Y014864D01*
X035676Y014887D02*
X036126Y014887D01*
X036126Y014910D02*
X035676Y014910D01*
X035676Y014933D02*
X036126Y014933D01*
X036126Y014956D02*
X035676Y014956D01*
X037644Y015700D02*
X038094Y015700D01*
X037644Y015700D02*
X037644Y016150D01*
X038094Y016150D01*
X038094Y015700D01*
X038094Y015723D02*
X037644Y015723D01*
X037644Y015746D02*
X038094Y015746D01*
X038094Y015769D02*
X037644Y015769D01*
X037644Y015792D02*
X038094Y015792D01*
X038094Y015815D02*
X037644Y015815D01*
X037644Y015838D02*
X038094Y015838D01*
X038094Y015861D02*
X037644Y015861D01*
X037644Y015884D02*
X038094Y015884D01*
X038094Y015907D02*
X037644Y015907D01*
X037644Y015930D02*
X038094Y015930D01*
X038094Y015953D02*
X037644Y015953D01*
X037644Y015976D02*
X038094Y015976D01*
X038094Y015999D02*
X037644Y015999D01*
X037644Y016022D02*
X038094Y016022D01*
X038094Y016045D02*
X037644Y016045D01*
X037644Y016068D02*
X038094Y016068D01*
X038094Y016091D02*
X037644Y016091D01*
X037644Y016114D02*
X038094Y016114D01*
X038094Y016137D02*
X037644Y016137D01*
X037644Y016487D02*
X038094Y016487D01*
X037644Y016487D02*
X037644Y016937D01*
X038094Y016937D01*
X038094Y016487D01*
X038094Y016510D02*
X037644Y016510D01*
X037644Y016533D02*
X038094Y016533D01*
X038094Y016556D02*
X037644Y016556D01*
X037644Y016579D02*
X038094Y016579D01*
X038094Y016602D02*
X037644Y016602D01*
X037644Y016625D02*
X038094Y016625D01*
X038094Y016648D02*
X037644Y016648D01*
X037644Y016671D02*
X038094Y016671D01*
X038094Y016694D02*
X037644Y016694D01*
X037644Y016717D02*
X038094Y016717D01*
X038094Y016740D02*
X037644Y016740D01*
X037644Y016763D02*
X038094Y016763D01*
X038094Y016786D02*
X037644Y016786D01*
X037644Y016809D02*
X038094Y016809D01*
X038094Y016832D02*
X037644Y016832D01*
X037644Y016855D02*
X038094Y016855D01*
X038094Y016878D02*
X037644Y016878D01*
X037644Y016901D02*
X038094Y016901D01*
X038094Y016924D02*
X037644Y016924D01*
X035732Y018259D02*
X035282Y018259D01*
X035282Y018709D01*
X035732Y018709D01*
X035732Y018259D01*
X035732Y018282D02*
X035282Y018282D01*
X035282Y018305D02*
X035732Y018305D01*
X035732Y018328D02*
X035282Y018328D01*
X035282Y018351D02*
X035732Y018351D01*
X035732Y018374D02*
X035282Y018374D01*
X035282Y018397D02*
X035732Y018397D01*
X035732Y018420D02*
X035282Y018420D01*
X035282Y018443D02*
X035732Y018443D01*
X035732Y018466D02*
X035282Y018466D01*
X035282Y018489D02*
X035732Y018489D01*
X035732Y018512D02*
X035282Y018512D01*
X035282Y018535D02*
X035732Y018535D01*
X035732Y018558D02*
X035282Y018558D01*
X035282Y018581D02*
X035732Y018581D01*
X035732Y018604D02*
X035282Y018604D01*
X035282Y018627D02*
X035732Y018627D01*
X035732Y018650D02*
X035282Y018650D01*
X035282Y018673D02*
X035732Y018673D01*
X035732Y018696D02*
X035282Y018696D01*
X034945Y018259D02*
X034495Y018259D01*
X034495Y018709D01*
X034945Y018709D01*
X034945Y018259D01*
X034945Y018282D02*
X034495Y018282D01*
X034495Y018305D02*
X034945Y018305D01*
X034945Y018328D02*
X034495Y018328D01*
X034495Y018351D02*
X034945Y018351D01*
X034945Y018374D02*
X034495Y018374D01*
X034495Y018397D02*
X034945Y018397D01*
X034945Y018420D02*
X034495Y018420D01*
X034495Y018443D02*
X034945Y018443D01*
X034945Y018466D02*
X034495Y018466D01*
X034495Y018489D02*
X034945Y018489D01*
X034945Y018512D02*
X034495Y018512D01*
X034495Y018535D02*
X034945Y018535D01*
X034945Y018558D02*
X034495Y018558D01*
X034495Y018581D02*
X034945Y018581D01*
X034945Y018604D02*
X034495Y018604D01*
X034495Y018627D02*
X034945Y018627D01*
X034945Y018650D02*
X034495Y018650D01*
X034495Y018673D02*
X034945Y018673D01*
X034945Y018696D02*
X034495Y018696D01*
X034354Y018062D02*
X033904Y018062D01*
X033904Y018512D01*
X034354Y018512D01*
X034354Y018062D01*
X034354Y018085D02*
X033904Y018085D01*
X033904Y018108D02*
X034354Y018108D01*
X034354Y018131D02*
X033904Y018131D01*
X033904Y018154D02*
X034354Y018154D01*
X034354Y018177D02*
X033904Y018177D01*
X033904Y018200D02*
X034354Y018200D01*
X034354Y018223D02*
X033904Y018223D01*
X033904Y018246D02*
X034354Y018246D01*
X034354Y018269D02*
X033904Y018269D01*
X033904Y018292D02*
X034354Y018292D01*
X034354Y018315D02*
X033904Y018315D01*
X033904Y018338D02*
X034354Y018338D01*
X034354Y018361D02*
X033904Y018361D01*
X033904Y018384D02*
X034354Y018384D01*
X034354Y018407D02*
X033904Y018407D01*
X033904Y018430D02*
X034354Y018430D01*
X034354Y018453D02*
X033904Y018453D01*
X033904Y018476D02*
X034354Y018476D01*
X034354Y018499D02*
X033904Y018499D01*
X033567Y018062D02*
X033117Y018062D01*
X033117Y018512D01*
X033567Y018512D01*
X033567Y018062D01*
X033567Y018085D02*
X033117Y018085D01*
X033117Y018108D02*
X033567Y018108D01*
X033567Y018131D02*
X033117Y018131D01*
X033117Y018154D02*
X033567Y018154D01*
X033567Y018177D02*
X033117Y018177D01*
X033117Y018200D02*
X033567Y018200D01*
X033567Y018223D02*
X033117Y018223D01*
X033117Y018246D02*
X033567Y018246D01*
X033567Y018269D02*
X033117Y018269D01*
X033117Y018292D02*
X033567Y018292D01*
X033567Y018315D02*
X033117Y018315D01*
X033117Y018338D02*
X033567Y018338D01*
X033567Y018361D02*
X033117Y018361D01*
X033117Y018384D02*
X033567Y018384D01*
X033567Y018407D02*
X033117Y018407D01*
X033117Y018430D02*
X033567Y018430D01*
X033567Y018453D02*
X033117Y018453D01*
X033117Y018476D02*
X033567Y018476D01*
X033567Y018499D02*
X033117Y018499D01*
X033707Y017471D02*
X034157Y017471D01*
X033707Y017471D02*
X033707Y017921D01*
X034157Y017921D01*
X034157Y017471D01*
X034157Y017494D02*
X033707Y017494D01*
X033707Y017517D02*
X034157Y017517D01*
X034157Y017540D02*
X033707Y017540D01*
X033707Y017563D02*
X034157Y017563D01*
X034157Y017586D02*
X033707Y017586D01*
X033707Y017609D02*
X034157Y017609D01*
X034157Y017632D02*
X033707Y017632D01*
X033707Y017655D02*
X034157Y017655D01*
X034157Y017678D02*
X033707Y017678D01*
X033707Y017701D02*
X034157Y017701D01*
X034157Y017724D02*
X033707Y017724D01*
X033707Y017747D02*
X034157Y017747D01*
X034157Y017770D02*
X033707Y017770D01*
X033707Y017793D02*
X034157Y017793D01*
X034157Y017816D02*
X033707Y017816D01*
X033707Y017839D02*
X034157Y017839D01*
X034157Y017862D02*
X033707Y017862D01*
X033707Y017885D02*
X034157Y017885D01*
X034157Y017908D02*
X033707Y017908D01*
X034495Y017471D02*
X034945Y017471D01*
X034495Y017471D02*
X034495Y017921D01*
X034945Y017921D01*
X034945Y017471D01*
X034945Y017494D02*
X034495Y017494D01*
X034495Y017517D02*
X034945Y017517D01*
X034945Y017540D02*
X034495Y017540D01*
X034495Y017563D02*
X034945Y017563D01*
X034945Y017586D02*
X034495Y017586D01*
X034495Y017609D02*
X034945Y017609D01*
X034945Y017632D02*
X034495Y017632D01*
X034495Y017655D02*
X034945Y017655D01*
X034945Y017678D02*
X034495Y017678D01*
X034495Y017701D02*
X034945Y017701D01*
X034945Y017724D02*
X034495Y017724D01*
X034495Y017747D02*
X034945Y017747D01*
X034945Y017770D02*
X034495Y017770D01*
X034495Y017793D02*
X034945Y017793D01*
X034945Y017816D02*
X034495Y017816D01*
X034495Y017839D02*
X034945Y017839D01*
X034945Y017862D02*
X034495Y017862D01*
X034495Y017885D02*
X034945Y017885D01*
X034945Y017908D02*
X034495Y017908D01*
X015201Y024755D02*
X014751Y024755D01*
X014751Y025205D01*
X015201Y025205D01*
X015201Y024755D01*
X015201Y024778D02*
X014751Y024778D01*
X014751Y024801D02*
X015201Y024801D01*
X015201Y024824D02*
X014751Y024824D01*
X014751Y024847D02*
X015201Y024847D01*
X015201Y024870D02*
X014751Y024870D01*
X014751Y024893D02*
X015201Y024893D01*
X015201Y024916D02*
X014751Y024916D01*
X014751Y024939D02*
X015201Y024939D01*
X015201Y024962D02*
X014751Y024962D01*
X014751Y024985D02*
X015201Y024985D01*
X015201Y025008D02*
X014751Y025008D01*
X014751Y025031D02*
X015201Y025031D01*
X015201Y025054D02*
X014751Y025054D01*
X014751Y025077D02*
X015201Y025077D01*
X015201Y025100D02*
X014751Y025100D01*
X014751Y025123D02*
X015201Y025123D01*
X015201Y025146D02*
X014751Y025146D01*
X014751Y025169D02*
X015201Y025169D01*
X015201Y025192D02*
X014751Y025192D01*
X014751Y025542D02*
X015201Y025542D01*
X014751Y025542D02*
X014751Y025992D01*
X015201Y025992D01*
X015201Y025542D01*
X015201Y025565D02*
X014751Y025565D01*
X014751Y025588D02*
X015201Y025588D01*
X015201Y025611D02*
X014751Y025611D01*
X014751Y025634D02*
X015201Y025634D01*
X015201Y025657D02*
X014751Y025657D01*
X014751Y025680D02*
X015201Y025680D01*
X015201Y025703D02*
X014751Y025703D01*
X014751Y025726D02*
X015201Y025726D01*
X015201Y025749D02*
X014751Y025749D01*
X014751Y025772D02*
X015201Y025772D01*
X015201Y025795D02*
X014751Y025795D01*
X014751Y025818D02*
X015201Y025818D01*
X015201Y025841D02*
X014751Y025841D01*
X014751Y025864D02*
X015201Y025864D01*
X015201Y025887D02*
X014751Y025887D01*
X014751Y025910D02*
X015201Y025910D01*
X015201Y025933D02*
X014751Y025933D01*
X014751Y025956D02*
X015201Y025956D01*
X015201Y025979D02*
X014751Y025979D01*
D13*
X008539Y010807D03*
X013657Y008051D03*
X034523Y003720D03*
X039050Y024389D03*
D14*
X026255Y011594D03*
X026255Y010807D03*
X026255Y010019D03*
X035310Y003720D03*
X015231Y008051D03*
X014444Y008051D03*
X014444Y008838D03*
X013657Y008838D03*
X015231Y008838D03*
D15*
X004625Y009303D02*
X004179Y009303D01*
X004179Y009631D01*
X004625Y009631D01*
X004625Y009303D01*
X004625Y009327D02*
X004179Y009327D01*
X004179Y009351D02*
X004625Y009351D01*
X004625Y009375D02*
X004179Y009375D01*
X004179Y009399D02*
X004625Y009399D01*
X004625Y009423D02*
X004179Y009423D01*
X004179Y009447D02*
X004625Y009447D01*
X004625Y009471D02*
X004179Y009471D01*
X004179Y009495D02*
X004625Y009495D01*
X004625Y009519D02*
X004179Y009519D01*
X004179Y009543D02*
X004625Y009543D01*
X004625Y009567D02*
X004179Y009567D01*
X004179Y009591D02*
X004625Y009591D01*
X004625Y009615D02*
X004179Y009615D01*
X004179Y009678D02*
X004625Y009678D01*
X004179Y009678D02*
X004179Y010006D01*
X004625Y010006D01*
X004625Y009678D01*
X004625Y009702D02*
X004179Y009702D01*
X004179Y009726D02*
X004625Y009726D01*
X004625Y009750D02*
X004179Y009750D01*
X004179Y009774D02*
X004625Y009774D01*
X004625Y009798D02*
X004179Y009798D01*
X004179Y009822D02*
X004625Y009822D01*
X004625Y009846D02*
X004179Y009846D01*
X004179Y009870D02*
X004625Y009870D01*
X004625Y009894D02*
X004179Y009894D01*
X004179Y009918D02*
X004625Y009918D01*
X004625Y009942D02*
X004179Y009942D01*
X004179Y009966D02*
X004625Y009966D01*
X004625Y009990D02*
X004179Y009990D01*
X004179Y010053D02*
X004625Y010053D01*
X004179Y010053D02*
X004179Y010381D01*
X004625Y010381D01*
X004625Y010053D01*
X004625Y010077D02*
X004179Y010077D01*
X004179Y010101D02*
X004625Y010101D01*
X004625Y010125D02*
X004179Y010125D01*
X004179Y010149D02*
X004625Y010149D01*
X004625Y010173D02*
X004179Y010173D01*
X004179Y010197D02*
X004625Y010197D01*
X004625Y010221D02*
X004179Y010221D01*
X004179Y010245D02*
X004625Y010245D01*
X004625Y010269D02*
X004179Y010269D01*
X004179Y010293D02*
X004625Y010293D01*
X004625Y010317D02*
X004179Y010317D01*
X004179Y010341D02*
X004625Y010341D01*
X004625Y010365D02*
X004179Y010365D01*
X003607Y010053D02*
X003161Y010053D01*
X003161Y010381D01*
X003607Y010381D01*
X003607Y010053D01*
X003607Y010077D02*
X003161Y010077D01*
X003161Y010101D02*
X003607Y010101D01*
X003607Y010125D02*
X003161Y010125D01*
X003161Y010149D02*
X003607Y010149D01*
X003607Y010173D02*
X003161Y010173D01*
X003161Y010197D02*
X003607Y010197D01*
X003607Y010221D02*
X003161Y010221D01*
X003161Y010245D02*
X003607Y010245D01*
X003607Y010269D02*
X003161Y010269D01*
X003161Y010293D02*
X003607Y010293D01*
X003607Y010317D02*
X003161Y010317D01*
X003161Y010341D02*
X003607Y010341D01*
X003607Y010365D02*
X003161Y010365D01*
X003161Y009677D02*
X003607Y009677D01*
X003161Y009677D02*
X003161Y010005D01*
X003607Y010005D01*
X003607Y009677D01*
X003607Y009701D02*
X003161Y009701D01*
X003161Y009725D02*
X003607Y009725D01*
X003607Y009749D02*
X003161Y009749D01*
X003161Y009773D02*
X003607Y009773D01*
X003607Y009797D02*
X003161Y009797D01*
X003161Y009821D02*
X003607Y009821D01*
X003607Y009845D02*
X003161Y009845D01*
X003161Y009869D02*
X003607Y009869D01*
X003607Y009893D02*
X003161Y009893D01*
X003161Y009917D02*
X003607Y009917D01*
X003607Y009941D02*
X003161Y009941D01*
X003161Y009965D02*
X003607Y009965D01*
X003607Y009989D02*
X003161Y009989D01*
X003161Y009303D02*
X003607Y009303D01*
X003161Y009303D02*
X003161Y009631D01*
X003607Y009631D01*
X003607Y009303D01*
X003607Y009327D02*
X003161Y009327D01*
X003161Y009351D02*
X003607Y009351D01*
X003607Y009375D02*
X003161Y009375D01*
X003161Y009399D02*
X003607Y009399D01*
X003607Y009423D02*
X003161Y009423D01*
X003161Y009447D02*
X003607Y009447D01*
X003607Y009471D02*
X003161Y009471D01*
X003161Y009495D02*
X003607Y009495D01*
X003607Y009519D02*
X003161Y009519D01*
X003161Y009543D02*
X003607Y009543D01*
X003607Y009567D02*
X003161Y009567D01*
X003161Y009591D02*
X003607Y009591D01*
X003607Y009615D02*
X003161Y009615D01*
X002385Y010666D02*
X002057Y010666D01*
X002057Y011112D01*
X002385Y011112D01*
X002385Y010666D01*
X002385Y010690D02*
X002057Y010690D01*
X002057Y010714D02*
X002385Y010714D01*
X002385Y010738D02*
X002057Y010738D01*
X002057Y010762D02*
X002385Y010762D01*
X002385Y010786D02*
X002057Y010786D01*
X002057Y010810D02*
X002385Y010810D01*
X002385Y010834D02*
X002057Y010834D01*
X002057Y010858D02*
X002385Y010858D01*
X002385Y010882D02*
X002057Y010882D01*
X002057Y010906D02*
X002385Y010906D01*
X002385Y010930D02*
X002057Y010930D01*
X002057Y010954D02*
X002385Y010954D01*
X002385Y010978D02*
X002057Y010978D01*
X002057Y011002D02*
X002385Y011002D01*
X002385Y011026D02*
X002057Y011026D01*
X002057Y011050D02*
X002385Y011050D01*
X002385Y011074D02*
X002057Y011074D01*
X002057Y011098D02*
X002385Y011098D01*
X001634Y010666D02*
X001306Y010666D01*
X001306Y011112D01*
X001634Y011112D01*
X001634Y010666D01*
X001634Y010690D02*
X001306Y010690D01*
X001306Y010714D02*
X001634Y010714D01*
X001634Y010738D02*
X001306Y010738D01*
X001306Y010762D02*
X001634Y010762D01*
X001634Y010786D02*
X001306Y010786D01*
X001306Y010810D02*
X001634Y010810D01*
X001634Y010834D02*
X001306Y010834D01*
X001306Y010858D02*
X001634Y010858D01*
X001634Y010882D02*
X001306Y010882D01*
X001306Y010906D02*
X001634Y010906D01*
X001634Y010930D02*
X001306Y010930D01*
X001306Y010954D02*
X001634Y010954D01*
X001634Y010978D02*
X001306Y010978D01*
X001306Y011002D02*
X001634Y011002D01*
X001634Y011026D02*
X001306Y011026D01*
X001306Y011050D02*
X001634Y011050D01*
X001634Y011074D02*
X001306Y011074D01*
X001306Y011098D02*
X001634Y011098D01*
X001634Y011684D02*
X001306Y011684D01*
X001306Y012130D01*
X001634Y012130D01*
X001634Y011684D01*
X001634Y011708D02*
X001306Y011708D01*
X001306Y011732D02*
X001634Y011732D01*
X001634Y011756D02*
X001306Y011756D01*
X001306Y011780D02*
X001634Y011780D01*
X001634Y011804D02*
X001306Y011804D01*
X001306Y011828D02*
X001634Y011828D01*
X001634Y011852D02*
X001306Y011852D01*
X001306Y011876D02*
X001634Y011876D01*
X001634Y011900D02*
X001306Y011900D01*
X001306Y011924D02*
X001634Y011924D01*
X001634Y011948D02*
X001306Y011948D01*
X001306Y011972D02*
X001634Y011972D01*
X001634Y011996D02*
X001306Y011996D01*
X001306Y012020D02*
X001634Y012020D01*
X001634Y012044D02*
X001306Y012044D01*
X001306Y012068D02*
X001634Y012068D01*
X001634Y012092D02*
X001306Y012092D01*
X001306Y012116D02*
X001634Y012116D01*
X001682Y011684D02*
X002010Y011684D01*
X001682Y011684D02*
X001682Y012130D01*
X002010Y012130D01*
X002010Y011684D01*
X002010Y011708D02*
X001682Y011708D01*
X001682Y011732D02*
X002010Y011732D01*
X002010Y011756D02*
X001682Y011756D01*
X001682Y011780D02*
X002010Y011780D01*
X002010Y011804D02*
X001682Y011804D01*
X001682Y011828D02*
X002010Y011828D01*
X002010Y011852D02*
X001682Y011852D01*
X001682Y011876D02*
X002010Y011876D01*
X002010Y011900D02*
X001682Y011900D01*
X001682Y011924D02*
X002010Y011924D01*
X002010Y011948D02*
X001682Y011948D01*
X001682Y011972D02*
X002010Y011972D01*
X002010Y011996D02*
X001682Y011996D01*
X001682Y012020D02*
X002010Y012020D01*
X002010Y012044D02*
X001682Y012044D01*
X001682Y012068D02*
X002010Y012068D01*
X002010Y012092D02*
X001682Y012092D01*
X001682Y012116D02*
X002010Y012116D01*
X002057Y011684D02*
X002385Y011684D01*
X002057Y011684D02*
X002057Y012130D01*
X002385Y012130D01*
X002385Y011684D01*
X002385Y011708D02*
X002057Y011708D01*
X002057Y011732D02*
X002385Y011732D01*
X002385Y011756D02*
X002057Y011756D01*
X002057Y011780D02*
X002385Y011780D01*
X002385Y011804D02*
X002057Y011804D01*
X002057Y011828D02*
X002385Y011828D01*
X002385Y011852D02*
X002057Y011852D01*
X002057Y011876D02*
X002385Y011876D01*
X002385Y011900D02*
X002057Y011900D01*
X002057Y011924D02*
X002385Y011924D01*
X002385Y011948D02*
X002057Y011948D01*
X002057Y011972D02*
X002385Y011972D01*
X002385Y011996D02*
X002057Y011996D01*
X002057Y012020D02*
X002385Y012020D01*
X002385Y012044D02*
X002057Y012044D01*
X002057Y012068D02*
X002385Y012068D01*
X002385Y012092D02*
X002057Y012092D01*
X002057Y012116D02*
X002385Y012116D01*
D16*
X002286Y013614D02*
X001800Y013614D01*
X001800Y014298D01*
X002286Y014298D01*
X002286Y013614D01*
X002286Y013639D02*
X001800Y013639D01*
X001800Y013664D02*
X002286Y013664D01*
X002286Y013689D02*
X001800Y013689D01*
X001800Y013714D02*
X002286Y013714D01*
X002286Y013739D02*
X001800Y013739D01*
X001800Y013764D02*
X002286Y013764D01*
X002286Y013789D02*
X001800Y013789D01*
X001800Y013814D02*
X002286Y013814D01*
X002286Y013839D02*
X001800Y013839D01*
X001800Y013864D02*
X002286Y013864D01*
X002286Y013889D02*
X001800Y013889D01*
X001800Y013914D02*
X002286Y013914D01*
X002286Y013939D02*
X001800Y013939D01*
X001800Y013964D02*
X002286Y013964D01*
X002286Y013989D02*
X001800Y013989D01*
X001800Y014014D02*
X002286Y014014D01*
X002286Y014039D02*
X001800Y014039D01*
X001800Y014064D02*
X002286Y014064D01*
X002286Y014089D02*
X001800Y014089D01*
X001800Y014114D02*
X002286Y014114D01*
X002286Y014139D02*
X001800Y014139D01*
X001800Y014164D02*
X002286Y014164D01*
X002286Y014189D02*
X001800Y014189D01*
X001800Y014214D02*
X002286Y014214D01*
X002286Y014239D02*
X001800Y014239D01*
X001800Y014264D02*
X002286Y014264D01*
X002286Y014289D02*
X001800Y014289D01*
X002587Y013614D02*
X003073Y013614D01*
X002587Y013614D02*
X002587Y014298D01*
X003073Y014298D01*
X003073Y013614D01*
X003073Y013639D02*
X002587Y013639D01*
X002587Y013664D02*
X003073Y013664D01*
X003073Y013689D02*
X002587Y013689D01*
X002587Y013714D02*
X003073Y013714D01*
X003073Y013739D02*
X002587Y013739D01*
X002587Y013764D02*
X003073Y013764D01*
X003073Y013789D02*
X002587Y013789D01*
X002587Y013814D02*
X003073Y013814D01*
X003073Y013839D02*
X002587Y013839D01*
X002587Y013864D02*
X003073Y013864D01*
X003073Y013889D02*
X002587Y013889D01*
X002587Y013914D02*
X003073Y013914D01*
X003073Y013939D02*
X002587Y013939D01*
X002587Y013964D02*
X003073Y013964D01*
X003073Y013989D02*
X002587Y013989D01*
X002587Y014014D02*
X003073Y014014D01*
X003073Y014039D02*
X002587Y014039D01*
X002587Y014064D02*
X003073Y014064D01*
X003073Y014089D02*
X002587Y014089D01*
X002587Y014114D02*
X003073Y014114D01*
X003073Y014139D02*
X002587Y014139D01*
X002587Y014164D02*
X003073Y014164D01*
X003073Y014189D02*
X002587Y014189D01*
X002587Y014214D02*
X003073Y014214D01*
X003073Y014239D02*
X002587Y014239D01*
X002587Y014264D02*
X003073Y014264D01*
X003073Y014289D02*
X002587Y014289D01*
X002482Y009874D02*
X001996Y009874D01*
X001996Y010558D01*
X002482Y010558D01*
X002482Y009874D01*
X002482Y009899D02*
X001996Y009899D01*
X001996Y009924D02*
X002482Y009924D01*
X002482Y009949D02*
X001996Y009949D01*
X001996Y009974D02*
X002482Y009974D01*
X002482Y009999D02*
X001996Y009999D01*
X001996Y010024D02*
X002482Y010024D01*
X002482Y010049D02*
X001996Y010049D01*
X001996Y010074D02*
X002482Y010074D01*
X002482Y010099D02*
X001996Y010099D01*
X001996Y010124D02*
X002482Y010124D01*
X002482Y010149D02*
X001996Y010149D01*
X001996Y010174D02*
X002482Y010174D01*
X002482Y010199D02*
X001996Y010199D01*
X001996Y010224D02*
X002482Y010224D01*
X002482Y010249D02*
X001996Y010249D01*
X001996Y010274D02*
X002482Y010274D01*
X002482Y010299D02*
X001996Y010299D01*
X001996Y010324D02*
X002482Y010324D01*
X002482Y010349D02*
X001996Y010349D01*
X001996Y010374D02*
X002482Y010374D01*
X002482Y010399D02*
X001996Y010399D01*
X001996Y010424D02*
X002482Y010424D01*
X002482Y010449D02*
X001996Y010449D01*
X001996Y010474D02*
X002482Y010474D01*
X002482Y010499D02*
X001996Y010499D01*
X001996Y010524D02*
X002482Y010524D01*
X002482Y010549D02*
X001996Y010549D01*
X001695Y009874D02*
X001209Y009874D01*
X001209Y010558D01*
X001695Y010558D01*
X001695Y009874D01*
X001695Y009899D02*
X001209Y009899D01*
X001209Y009924D02*
X001695Y009924D01*
X001695Y009949D02*
X001209Y009949D01*
X001209Y009974D02*
X001695Y009974D01*
X001695Y009999D02*
X001209Y009999D01*
X001209Y010024D02*
X001695Y010024D01*
X001695Y010049D02*
X001209Y010049D01*
X001209Y010074D02*
X001695Y010074D01*
X001695Y010099D02*
X001209Y010099D01*
X001209Y010124D02*
X001695Y010124D01*
X001695Y010149D02*
X001209Y010149D01*
X001209Y010174D02*
X001695Y010174D01*
X001695Y010199D02*
X001209Y010199D01*
X001209Y010224D02*
X001695Y010224D01*
X001695Y010249D02*
X001209Y010249D01*
X001209Y010274D02*
X001695Y010274D01*
X001695Y010299D02*
X001209Y010299D01*
X001209Y010324D02*
X001695Y010324D01*
X001695Y010349D02*
X001209Y010349D01*
X001209Y010374D02*
X001695Y010374D01*
X001695Y010399D02*
X001209Y010399D01*
X001209Y010424D02*
X001695Y010424D01*
X001695Y010449D02*
X001209Y010449D01*
X001209Y010474D02*
X001695Y010474D01*
X001695Y010499D02*
X001209Y010499D01*
X001209Y010524D02*
X001695Y010524D01*
X001695Y010549D02*
X001209Y010549D01*
X002784Y008496D02*
X003270Y008496D01*
X002784Y008496D02*
X002784Y009180D01*
X003270Y009180D01*
X003270Y008496D01*
X003270Y008521D02*
X002784Y008521D01*
X002784Y008546D02*
X003270Y008546D01*
X003270Y008571D02*
X002784Y008571D01*
X002784Y008596D02*
X003270Y008596D01*
X003270Y008621D02*
X002784Y008621D01*
X002784Y008646D02*
X003270Y008646D01*
X003270Y008671D02*
X002784Y008671D01*
X002784Y008696D02*
X003270Y008696D01*
X003270Y008721D02*
X002784Y008721D01*
X002784Y008746D02*
X003270Y008746D01*
X003270Y008771D02*
X002784Y008771D01*
X002784Y008796D02*
X003270Y008796D01*
X003270Y008821D02*
X002784Y008821D01*
X002784Y008846D02*
X003270Y008846D01*
X003270Y008871D02*
X002784Y008871D01*
X002784Y008896D02*
X003270Y008896D01*
X003270Y008921D02*
X002784Y008921D01*
X002784Y008946D02*
X003270Y008946D01*
X003270Y008971D02*
X002784Y008971D01*
X002784Y008996D02*
X003270Y008996D01*
X003270Y009021D02*
X002784Y009021D01*
X002784Y009046D02*
X003270Y009046D01*
X003270Y009071D02*
X002784Y009071D01*
X002784Y009096D02*
X003270Y009096D01*
X003270Y009121D02*
X002784Y009121D01*
X002784Y009146D02*
X003270Y009146D01*
X003270Y009171D02*
X002784Y009171D01*
X003571Y008496D02*
X004057Y008496D01*
X003571Y008496D02*
X003571Y009180D01*
X004057Y009180D01*
X004057Y008496D01*
X004057Y008521D02*
X003571Y008521D01*
X003571Y008546D02*
X004057Y008546D01*
X004057Y008571D02*
X003571Y008571D01*
X003571Y008596D02*
X004057Y008596D01*
X004057Y008621D02*
X003571Y008621D01*
X003571Y008646D02*
X004057Y008646D01*
X004057Y008671D02*
X003571Y008671D01*
X003571Y008696D02*
X004057Y008696D01*
X004057Y008721D02*
X003571Y008721D01*
X003571Y008746D02*
X004057Y008746D01*
X004057Y008771D02*
X003571Y008771D01*
X003571Y008796D02*
X004057Y008796D01*
X004057Y008821D02*
X003571Y008821D01*
X003571Y008846D02*
X004057Y008846D01*
X004057Y008871D02*
X003571Y008871D01*
X003571Y008896D02*
X004057Y008896D01*
X004057Y008921D02*
X003571Y008921D01*
X003571Y008946D02*
X004057Y008946D01*
X004057Y008971D02*
X003571Y008971D01*
X003571Y008996D02*
X004057Y008996D01*
X004057Y009021D02*
X003571Y009021D01*
X003571Y009046D02*
X004057Y009046D01*
X004057Y009071D02*
X003571Y009071D01*
X003571Y009096D02*
X004057Y009096D01*
X004057Y009121D02*
X003571Y009121D01*
X003571Y009146D02*
X004057Y009146D01*
X004057Y009171D02*
X003571Y009171D01*
D17*
X002632Y008859D02*
X002082Y008859D01*
X002082Y009605D01*
X002632Y009605D01*
X002632Y008859D01*
X002632Y008881D02*
X002082Y008881D01*
X002082Y008903D02*
X002632Y008903D01*
X002632Y008925D02*
X002082Y008925D01*
X002082Y008947D02*
X002632Y008947D01*
X002632Y008969D02*
X002082Y008969D01*
X002082Y008991D02*
X002632Y008991D01*
X002632Y009013D02*
X002082Y009013D01*
X002082Y009035D02*
X002632Y009035D01*
X002632Y009057D02*
X002082Y009057D01*
X002082Y009079D02*
X002632Y009079D01*
X002632Y009101D02*
X002082Y009101D01*
X002082Y009123D02*
X002632Y009123D01*
X002632Y009145D02*
X002082Y009145D01*
X002082Y009167D02*
X002632Y009167D01*
X002632Y009189D02*
X002082Y009189D01*
X002082Y009211D02*
X002632Y009211D01*
X002632Y009233D02*
X002082Y009233D01*
X002082Y009255D02*
X002632Y009255D01*
X002632Y009277D02*
X002082Y009277D01*
X002082Y009299D02*
X002632Y009299D01*
X002632Y009321D02*
X002082Y009321D01*
X002082Y009343D02*
X002632Y009343D01*
X002632Y009365D02*
X002082Y009365D01*
X002082Y009387D02*
X002632Y009387D01*
X002632Y009409D02*
X002082Y009409D01*
X002082Y009431D02*
X002632Y009431D01*
X002632Y009453D02*
X002082Y009453D01*
X002082Y009475D02*
X002632Y009475D01*
X002632Y009497D02*
X002082Y009497D01*
X002082Y009519D02*
X002632Y009519D01*
X002632Y009541D02*
X002082Y009541D01*
X002082Y009563D02*
X002632Y009563D01*
X002632Y009585D02*
X002082Y009585D01*
X001727Y008859D02*
X001177Y008859D01*
X001177Y009605D01*
X001727Y009605D01*
X001727Y008859D01*
X001727Y008881D02*
X001177Y008881D01*
X001177Y008903D02*
X001727Y008903D01*
X001727Y008925D02*
X001177Y008925D01*
X001177Y008947D02*
X001727Y008947D01*
X001727Y008969D02*
X001177Y008969D01*
X001177Y008991D02*
X001727Y008991D01*
X001727Y009013D02*
X001177Y009013D01*
X001177Y009035D02*
X001727Y009035D01*
X001727Y009057D02*
X001177Y009057D01*
X001177Y009079D02*
X001727Y009079D01*
X001727Y009101D02*
X001177Y009101D01*
X001177Y009123D02*
X001727Y009123D01*
X001727Y009145D02*
X001177Y009145D01*
X001177Y009167D02*
X001727Y009167D01*
X001727Y009189D02*
X001177Y009189D01*
X001177Y009211D02*
X001727Y009211D01*
X001727Y009233D02*
X001177Y009233D01*
X001177Y009255D02*
X001727Y009255D01*
X001727Y009277D02*
X001177Y009277D01*
X001177Y009299D02*
X001727Y009299D01*
X001727Y009321D02*
X001177Y009321D01*
X001177Y009343D02*
X001727Y009343D01*
X001727Y009365D02*
X001177Y009365D01*
X001177Y009387D02*
X001727Y009387D01*
X001727Y009409D02*
X001177Y009409D01*
X001177Y009431D02*
X001727Y009431D01*
X001727Y009453D02*
X001177Y009453D01*
X001177Y009475D02*
X001727Y009475D01*
X001727Y009497D02*
X001177Y009497D01*
X001177Y009519D02*
X001727Y009519D01*
X001727Y009541D02*
X001177Y009541D01*
X001177Y009563D02*
X001727Y009563D01*
X001727Y009585D02*
X001177Y009585D01*
X013185Y025394D02*
X013735Y025394D01*
X013185Y025394D02*
X013185Y026140D01*
X013735Y026140D01*
X013735Y025394D01*
X013735Y025416D02*
X013185Y025416D01*
X013185Y025438D02*
X013735Y025438D01*
X013735Y025460D02*
X013185Y025460D01*
X013185Y025482D02*
X013735Y025482D01*
X013735Y025504D02*
X013185Y025504D01*
X013185Y025526D02*
X013735Y025526D01*
X013735Y025548D02*
X013185Y025548D01*
X013185Y025570D02*
X013735Y025570D01*
X013735Y025592D02*
X013185Y025592D01*
X013185Y025614D02*
X013735Y025614D01*
X013735Y025636D02*
X013185Y025636D01*
X013185Y025658D02*
X013735Y025658D01*
X013735Y025680D02*
X013185Y025680D01*
X013185Y025702D02*
X013735Y025702D01*
X013735Y025724D02*
X013185Y025724D01*
X013185Y025746D02*
X013735Y025746D01*
X013735Y025768D02*
X013185Y025768D01*
X013185Y025790D02*
X013735Y025790D01*
X013735Y025812D02*
X013185Y025812D01*
X013185Y025834D02*
X013735Y025834D01*
X013735Y025856D02*
X013185Y025856D01*
X013185Y025878D02*
X013735Y025878D01*
X013735Y025900D02*
X013185Y025900D01*
X013185Y025922D02*
X013735Y025922D01*
X013735Y025944D02*
X013185Y025944D01*
X013185Y025966D02*
X013735Y025966D01*
X013735Y025988D02*
X013185Y025988D01*
X013185Y026010D02*
X013735Y026010D01*
X013735Y026032D02*
X013185Y026032D01*
X013185Y026054D02*
X013735Y026054D01*
X013735Y026076D02*
X013185Y026076D01*
X013185Y026098D02*
X013735Y026098D01*
X013735Y026120D02*
X013185Y026120D01*
X014090Y025394D02*
X014640Y025394D01*
X014090Y025394D02*
X014090Y026140D01*
X014640Y026140D01*
X014640Y025394D01*
X014640Y025416D02*
X014090Y025416D01*
X014090Y025438D02*
X014640Y025438D01*
X014640Y025460D02*
X014090Y025460D01*
X014090Y025482D02*
X014640Y025482D01*
X014640Y025504D02*
X014090Y025504D01*
X014090Y025526D02*
X014640Y025526D01*
X014640Y025548D02*
X014090Y025548D01*
X014090Y025570D02*
X014640Y025570D01*
X014640Y025592D02*
X014090Y025592D01*
X014090Y025614D02*
X014640Y025614D01*
X014640Y025636D02*
X014090Y025636D01*
X014090Y025658D02*
X014640Y025658D01*
X014640Y025680D02*
X014090Y025680D01*
X014090Y025702D02*
X014640Y025702D01*
X014640Y025724D02*
X014090Y025724D01*
X014090Y025746D02*
X014640Y025746D01*
X014640Y025768D02*
X014090Y025768D01*
X014090Y025790D02*
X014640Y025790D01*
X014640Y025812D02*
X014090Y025812D01*
X014090Y025834D02*
X014640Y025834D01*
X014640Y025856D02*
X014090Y025856D01*
X014090Y025878D02*
X014640Y025878D01*
X014640Y025900D02*
X014090Y025900D01*
X014090Y025922D02*
X014640Y025922D01*
X014640Y025944D02*
X014090Y025944D01*
X014090Y025966D02*
X014640Y025966D01*
X014640Y025988D02*
X014090Y025988D01*
X014090Y026010D02*
X014640Y026010D01*
X014640Y026032D02*
X014090Y026032D01*
X014090Y026054D02*
X014640Y026054D01*
X014640Y026076D02*
X014090Y026076D01*
X014090Y026098D02*
X014640Y026098D01*
X014640Y026120D02*
X014090Y026120D01*
D18*
X014286Y024253D02*
X013540Y024253D01*
X013540Y024999D01*
X014286Y024999D01*
X014286Y024253D01*
X014286Y024275D02*
X013540Y024275D01*
X013540Y024297D02*
X014286Y024297D01*
X014286Y024319D02*
X013540Y024319D01*
X013540Y024341D02*
X014286Y024341D01*
X014286Y024363D02*
X013540Y024363D01*
X013540Y024385D02*
X014286Y024385D01*
X014286Y024407D02*
X013540Y024407D01*
X013540Y024429D02*
X014286Y024429D01*
X014286Y024451D02*
X013540Y024451D01*
X013540Y024473D02*
X014286Y024473D01*
X014286Y024495D02*
X013540Y024495D01*
X013540Y024517D02*
X014286Y024517D01*
X014286Y024539D02*
X013540Y024539D01*
X013540Y024561D02*
X014286Y024561D01*
X014286Y024583D02*
X013540Y024583D01*
X013540Y024605D02*
X014286Y024605D01*
X014286Y024627D02*
X013540Y024627D01*
X013540Y024649D02*
X014286Y024649D01*
X014286Y024671D02*
X013540Y024671D01*
X013540Y024693D02*
X014286Y024693D01*
X014286Y024715D02*
X013540Y024715D01*
X013540Y024737D02*
X014286Y024737D01*
X014286Y024759D02*
X013540Y024759D01*
X013540Y024781D02*
X014286Y024781D01*
X014286Y024803D02*
X013540Y024803D01*
X013540Y024825D02*
X014286Y024825D01*
X014286Y024847D02*
X013540Y024847D01*
X013540Y024869D02*
X014286Y024869D01*
X014286Y024891D02*
X013540Y024891D01*
X013540Y024913D02*
X014286Y024913D01*
X014286Y024935D02*
X013540Y024935D01*
X013540Y024957D02*
X014286Y024957D01*
X014286Y024979D02*
X013540Y024979D01*
X002278Y007717D02*
X001532Y007717D01*
X001532Y008463D01*
X002278Y008463D01*
X002278Y007717D01*
X002278Y007739D02*
X001532Y007739D01*
X001532Y007761D02*
X002278Y007761D01*
X002278Y007783D02*
X001532Y007783D01*
X001532Y007805D02*
X002278Y007805D01*
X002278Y007827D02*
X001532Y007827D01*
X001532Y007849D02*
X002278Y007849D01*
X002278Y007871D02*
X001532Y007871D01*
X001532Y007893D02*
X002278Y007893D01*
X002278Y007915D02*
X001532Y007915D01*
X001532Y007937D02*
X002278Y007937D01*
X002278Y007959D02*
X001532Y007959D01*
X001532Y007981D02*
X002278Y007981D01*
X002278Y008003D02*
X001532Y008003D01*
X001532Y008025D02*
X002278Y008025D01*
X002278Y008047D02*
X001532Y008047D01*
X001532Y008069D02*
X002278Y008069D01*
X002278Y008091D02*
X001532Y008091D01*
X001532Y008113D02*
X002278Y008113D01*
X002278Y008135D02*
X001532Y008135D01*
X001532Y008157D02*
X002278Y008157D01*
X002278Y008179D02*
X001532Y008179D01*
X001532Y008201D02*
X002278Y008201D01*
X002278Y008223D02*
X001532Y008223D01*
X001532Y008245D02*
X002278Y008245D01*
X002278Y008267D02*
X001532Y008267D01*
X001532Y008289D02*
X002278Y008289D01*
X002278Y008311D02*
X001532Y008311D01*
X001532Y008333D02*
X002278Y008333D01*
X002278Y008355D02*
X001532Y008355D01*
X001532Y008377D02*
X002278Y008377D01*
X002278Y008399D02*
X001532Y008399D01*
X001532Y008421D02*
X002278Y008421D01*
X002278Y008443D02*
X001532Y008443D01*
D19*
X003077Y010581D02*
X003607Y010581D01*
X003077Y010581D02*
X003077Y011425D01*
X003607Y011425D01*
X003607Y010581D01*
X003607Y010602D02*
X003077Y010602D01*
X003077Y010623D02*
X003607Y010623D01*
X003607Y010644D02*
X003077Y010644D01*
X003077Y010665D02*
X003607Y010665D01*
X003607Y010686D02*
X003077Y010686D01*
X003077Y010707D02*
X003607Y010707D01*
X003607Y010728D02*
X003077Y010728D01*
X003077Y010749D02*
X003607Y010749D01*
X003607Y010770D02*
X003077Y010770D01*
X003077Y010791D02*
X003607Y010791D01*
X003607Y010812D02*
X003077Y010812D01*
X003077Y010833D02*
X003607Y010833D01*
X003607Y010854D02*
X003077Y010854D01*
X003077Y010875D02*
X003607Y010875D01*
X003607Y010896D02*
X003077Y010896D01*
X003077Y010917D02*
X003607Y010917D01*
X003607Y010938D02*
X003077Y010938D01*
X003077Y010959D02*
X003607Y010959D01*
X003607Y010980D02*
X003077Y010980D01*
X003077Y011001D02*
X003607Y011001D01*
X003607Y011022D02*
X003077Y011022D01*
X003077Y011043D02*
X003607Y011043D01*
X003607Y011064D02*
X003077Y011064D01*
X003077Y011085D02*
X003607Y011085D01*
X003607Y011106D02*
X003077Y011106D01*
X003077Y011127D02*
X003607Y011127D01*
X003607Y011148D02*
X003077Y011148D01*
X003077Y011169D02*
X003607Y011169D01*
X003607Y011190D02*
X003077Y011190D01*
X003077Y011211D02*
X003607Y011211D01*
X003607Y011232D02*
X003077Y011232D01*
X003077Y011253D02*
X003607Y011253D01*
X003607Y011274D02*
X003077Y011274D01*
X003077Y011295D02*
X003607Y011295D01*
X003607Y011316D02*
X003077Y011316D01*
X003077Y011337D02*
X003607Y011337D01*
X003607Y011358D02*
X003077Y011358D01*
X003077Y011379D02*
X003607Y011379D01*
X003607Y011400D02*
X003077Y011400D01*
X003077Y011421D02*
X003607Y011421D01*
X004022Y010581D02*
X004552Y010581D01*
X004022Y010581D02*
X004022Y011425D01*
X004552Y011425D01*
X004552Y010581D01*
X004552Y010602D02*
X004022Y010602D01*
X004022Y010623D02*
X004552Y010623D01*
X004552Y010644D02*
X004022Y010644D01*
X004022Y010665D02*
X004552Y010665D01*
X004552Y010686D02*
X004022Y010686D01*
X004022Y010707D02*
X004552Y010707D01*
X004552Y010728D02*
X004022Y010728D01*
X004022Y010749D02*
X004552Y010749D01*
X004552Y010770D02*
X004022Y010770D01*
X004022Y010791D02*
X004552Y010791D01*
X004552Y010812D02*
X004022Y010812D01*
X004022Y010833D02*
X004552Y010833D01*
X004552Y010854D02*
X004022Y010854D01*
X004022Y010875D02*
X004552Y010875D01*
X004552Y010896D02*
X004022Y010896D01*
X004022Y010917D02*
X004552Y010917D01*
X004552Y010938D02*
X004022Y010938D01*
X004022Y010959D02*
X004552Y010959D01*
X004552Y010980D02*
X004022Y010980D01*
X004022Y011001D02*
X004552Y011001D01*
X004552Y011022D02*
X004022Y011022D01*
X004022Y011043D02*
X004552Y011043D01*
X004552Y011064D02*
X004022Y011064D01*
X004022Y011085D02*
X004552Y011085D01*
X004552Y011106D02*
X004022Y011106D01*
X004022Y011127D02*
X004552Y011127D01*
X004552Y011148D02*
X004022Y011148D01*
X004022Y011169D02*
X004552Y011169D01*
X004552Y011190D02*
X004022Y011190D01*
X004022Y011211D02*
X004552Y011211D01*
X004552Y011232D02*
X004022Y011232D01*
X004022Y011253D02*
X004552Y011253D01*
X004552Y011274D02*
X004022Y011274D01*
X004022Y011295D02*
X004552Y011295D01*
X004552Y011316D02*
X004022Y011316D01*
X004022Y011337D02*
X004552Y011337D01*
X004552Y011358D02*
X004022Y011358D01*
X004022Y011379D02*
X004552Y011379D01*
X004552Y011400D02*
X004022Y011400D01*
X004022Y011421D02*
X004552Y011421D01*
X005026Y023967D02*
X005752Y023967D01*
X005026Y023967D02*
X005026Y024497D01*
X005752Y024497D01*
X005752Y023967D01*
X005752Y023988D02*
X005026Y023988D01*
X005026Y024009D02*
X005752Y024009D01*
X005752Y024030D02*
X005026Y024030D01*
X005026Y024051D02*
X005752Y024051D01*
X005752Y024072D02*
X005026Y024072D01*
X005026Y024093D02*
X005752Y024093D01*
X005752Y024114D02*
X005026Y024114D01*
X005026Y024135D02*
X005752Y024135D01*
X005752Y024156D02*
X005026Y024156D01*
X005026Y024177D02*
X005752Y024177D01*
X005752Y024198D02*
X005026Y024198D01*
X005026Y024219D02*
X005752Y024219D01*
X005752Y024240D02*
X005026Y024240D01*
X005026Y024261D02*
X005752Y024261D01*
X005752Y024282D02*
X005026Y024282D01*
X005026Y024303D02*
X005752Y024303D01*
X005752Y024324D02*
X005026Y024324D01*
X005026Y024345D02*
X005752Y024345D01*
X005752Y024366D02*
X005026Y024366D01*
X005026Y024387D02*
X005752Y024387D01*
X005752Y024408D02*
X005026Y024408D01*
X005026Y024429D02*
X005752Y024429D01*
X005752Y024450D02*
X005026Y024450D01*
X005026Y024471D02*
X005752Y024471D01*
X005752Y024492D02*
X005026Y024492D01*
X005026Y025463D02*
X005752Y025463D01*
X005026Y025463D02*
X005026Y025993D01*
X005752Y025993D01*
X005752Y025463D01*
X005752Y025484D02*
X005026Y025484D01*
X005026Y025505D02*
X005752Y025505D01*
X005752Y025526D02*
X005026Y025526D01*
X005026Y025547D02*
X005752Y025547D01*
X005752Y025568D02*
X005026Y025568D01*
X005026Y025589D02*
X005752Y025589D01*
X005752Y025610D02*
X005026Y025610D01*
X005026Y025631D02*
X005752Y025631D01*
X005752Y025652D02*
X005026Y025652D01*
X005026Y025673D02*
X005752Y025673D01*
X005752Y025694D02*
X005026Y025694D01*
X005026Y025715D02*
X005752Y025715D01*
X005752Y025736D02*
X005026Y025736D01*
X005026Y025757D02*
X005752Y025757D01*
X005752Y025778D02*
X005026Y025778D01*
X005026Y025799D02*
X005752Y025799D01*
X005752Y025820D02*
X005026Y025820D01*
X005026Y025841D02*
X005752Y025841D01*
X005752Y025862D02*
X005026Y025862D01*
X005026Y025883D02*
X005752Y025883D01*
X005752Y025904D02*
X005026Y025904D01*
X005026Y025925D02*
X005752Y025925D01*
X005752Y025946D02*
X005026Y025946D01*
X005026Y025967D02*
X005752Y025967D01*
X005752Y025988D02*
X005026Y025988D01*
X007809Y027632D02*
X008535Y027632D01*
X007809Y027632D02*
X007809Y028162D01*
X008535Y028162D01*
X008535Y027632D01*
X008535Y027653D02*
X007809Y027653D01*
X007809Y027674D02*
X008535Y027674D01*
X008535Y027695D02*
X007809Y027695D01*
X007809Y027716D02*
X008535Y027716D01*
X008535Y027737D02*
X007809Y027737D01*
X007809Y027758D02*
X008535Y027758D01*
X008535Y027779D02*
X007809Y027779D01*
X007809Y027800D02*
X008535Y027800D01*
X008535Y027821D02*
X007809Y027821D01*
X007809Y027842D02*
X008535Y027842D01*
X008535Y027863D02*
X007809Y027863D01*
X007809Y027884D02*
X008535Y027884D01*
X008535Y027905D02*
X007809Y027905D01*
X007809Y027926D02*
X008535Y027926D01*
X008535Y027947D02*
X007809Y027947D01*
X007809Y027968D02*
X008535Y027968D01*
X008535Y027989D02*
X007809Y027989D01*
X007809Y028010D02*
X008535Y028010D01*
X008535Y028031D02*
X007809Y028031D01*
X007809Y028052D02*
X008535Y028052D01*
X008535Y028073D02*
X007809Y028073D01*
X007809Y028094D02*
X008535Y028094D01*
X008535Y028115D02*
X007809Y028115D01*
X007809Y028136D02*
X008535Y028136D01*
X008535Y028157D02*
X007809Y028157D01*
X007809Y029128D02*
X008535Y029128D01*
X007809Y029128D02*
X007809Y029658D01*
X008535Y029658D01*
X008535Y029128D01*
X008535Y029149D02*
X007809Y029149D01*
X007809Y029170D02*
X008535Y029170D01*
X008535Y029191D02*
X007809Y029191D01*
X007809Y029212D02*
X008535Y029212D01*
X008535Y029233D02*
X007809Y029233D01*
X007809Y029254D02*
X008535Y029254D01*
X008535Y029275D02*
X007809Y029275D01*
X007809Y029296D02*
X008535Y029296D01*
X008535Y029317D02*
X007809Y029317D01*
X007809Y029338D02*
X008535Y029338D01*
X008535Y029359D02*
X007809Y029359D01*
X007809Y029380D02*
X008535Y029380D01*
X008535Y029401D02*
X007809Y029401D01*
X007809Y029422D02*
X008535Y029422D01*
X008535Y029443D02*
X007809Y029443D01*
X007809Y029464D02*
X008535Y029464D01*
X008535Y029485D02*
X007809Y029485D01*
X007809Y029506D02*
X008535Y029506D01*
X008535Y029527D02*
X007809Y029527D01*
X007809Y029548D02*
X008535Y029548D01*
X008535Y029569D02*
X007809Y029569D01*
X007809Y029590D02*
X008535Y029590D01*
X008535Y029611D02*
X007809Y029611D01*
X007809Y029632D02*
X008535Y029632D01*
X008535Y029653D02*
X007809Y029653D01*
X011400Y029128D02*
X012126Y029128D01*
X011400Y029128D02*
X011400Y029658D01*
X012126Y029658D01*
X012126Y029128D01*
X012126Y029149D02*
X011400Y029149D01*
X011400Y029170D02*
X012126Y029170D01*
X012126Y029191D02*
X011400Y029191D01*
X011400Y029212D02*
X012126Y029212D01*
X012126Y029233D02*
X011400Y029233D01*
X011400Y029254D02*
X012126Y029254D01*
X012126Y029275D02*
X011400Y029275D01*
X011400Y029296D02*
X012126Y029296D01*
X012126Y029317D02*
X011400Y029317D01*
X011400Y029338D02*
X012126Y029338D01*
X012126Y029359D02*
X011400Y029359D01*
X011400Y029380D02*
X012126Y029380D01*
X012126Y029401D02*
X011400Y029401D01*
X011400Y029422D02*
X012126Y029422D01*
X012126Y029443D02*
X011400Y029443D01*
X011400Y029464D02*
X012126Y029464D01*
X012126Y029485D02*
X011400Y029485D01*
X011400Y029506D02*
X012126Y029506D01*
X012126Y029527D02*
X011400Y029527D01*
X011400Y029548D02*
X012126Y029548D01*
X012126Y029569D02*
X011400Y029569D01*
X011400Y029590D02*
X012126Y029590D01*
X012126Y029611D02*
X011400Y029611D01*
X011400Y029632D02*
X012126Y029632D01*
X012126Y029653D02*
X011400Y029653D01*
X011400Y027632D02*
X012126Y027632D01*
X011400Y027632D02*
X011400Y028162D01*
X012126Y028162D01*
X012126Y027632D01*
X012126Y027653D02*
X011400Y027653D01*
X011400Y027674D02*
X012126Y027674D01*
X012126Y027695D02*
X011400Y027695D01*
X011400Y027716D02*
X012126Y027716D01*
X012126Y027737D02*
X011400Y027737D01*
X011400Y027758D02*
X012126Y027758D01*
X012126Y027779D02*
X011400Y027779D01*
X011400Y027800D02*
X012126Y027800D01*
X012126Y027821D02*
X011400Y027821D01*
X011400Y027842D02*
X012126Y027842D01*
X012126Y027863D02*
X011400Y027863D01*
X011400Y027884D02*
X012126Y027884D01*
X012126Y027905D02*
X011400Y027905D01*
X011400Y027926D02*
X012126Y027926D01*
X012126Y027947D02*
X011400Y027947D01*
X011400Y027968D02*
X012126Y027968D01*
X012126Y027989D02*
X011400Y027989D01*
X011400Y028010D02*
X012126Y028010D01*
X012126Y028031D02*
X011400Y028031D01*
X011400Y028052D02*
X012126Y028052D01*
X012126Y028073D02*
X011400Y028073D01*
X011400Y028094D02*
X012126Y028094D01*
X012126Y028115D02*
X011400Y028115D01*
X011400Y028136D02*
X012126Y028136D01*
X012126Y028157D02*
X011400Y028157D01*
X015656Y025660D02*
X016382Y025660D01*
X015656Y025660D02*
X015656Y026190D01*
X016382Y026190D01*
X016382Y025660D01*
X016382Y025681D02*
X015656Y025681D01*
X015656Y025702D02*
X016382Y025702D01*
X016382Y025723D02*
X015656Y025723D01*
X015656Y025744D02*
X016382Y025744D01*
X016382Y025765D02*
X015656Y025765D01*
X015656Y025786D02*
X016382Y025786D01*
X016382Y025807D02*
X015656Y025807D01*
X015656Y025828D02*
X016382Y025828D01*
X016382Y025849D02*
X015656Y025849D01*
X015656Y025870D02*
X016382Y025870D01*
X016382Y025891D02*
X015656Y025891D01*
X015656Y025912D02*
X016382Y025912D01*
X016382Y025933D02*
X015656Y025933D01*
X015656Y025954D02*
X016382Y025954D01*
X016382Y025975D02*
X015656Y025975D01*
X015656Y025996D02*
X016382Y025996D01*
X016382Y026017D02*
X015656Y026017D01*
X015656Y026038D02*
X016382Y026038D01*
X016382Y026059D02*
X015656Y026059D01*
X015656Y026080D02*
X016382Y026080D01*
X016382Y026101D02*
X015656Y026101D01*
X015656Y026122D02*
X016382Y026122D01*
X016382Y026143D02*
X015656Y026143D01*
X015656Y026164D02*
X016382Y026164D01*
X016382Y026185D02*
X015656Y026185D01*
X015656Y024164D02*
X016382Y024164D01*
X015656Y024164D02*
X015656Y024694D01*
X016382Y024694D01*
X016382Y024164D01*
X016382Y024185D02*
X015656Y024185D01*
X015656Y024206D02*
X016382Y024206D01*
X016382Y024227D02*
X015656Y024227D01*
X015656Y024248D02*
X016382Y024248D01*
X016382Y024269D02*
X015656Y024269D01*
X015656Y024290D02*
X016382Y024290D01*
X016382Y024311D02*
X015656Y024311D01*
X015656Y024332D02*
X016382Y024332D01*
X016382Y024353D02*
X015656Y024353D01*
X015656Y024374D02*
X016382Y024374D01*
X016382Y024395D02*
X015656Y024395D01*
X015656Y024416D02*
X016382Y024416D01*
X016382Y024437D02*
X015656Y024437D01*
X015656Y024458D02*
X016382Y024458D01*
X016382Y024479D02*
X015656Y024479D01*
X015656Y024500D02*
X016382Y024500D01*
X016382Y024521D02*
X015656Y024521D01*
X015656Y024542D02*
X016382Y024542D01*
X016382Y024563D02*
X015656Y024563D01*
X015656Y024584D02*
X016382Y024584D01*
X016382Y024605D02*
X015656Y024605D01*
X015656Y024626D02*
X016382Y024626D01*
X016382Y024647D02*
X015656Y024647D01*
X015656Y024668D02*
X016382Y024668D01*
X016382Y024689D02*
X015656Y024689D01*
D20*
X004282Y019592D02*
X003726Y019592D01*
X003726Y019734D01*
X004282Y019734D01*
X004282Y019592D01*
X004282Y019627D02*
X003726Y019627D01*
X003726Y019662D02*
X004282Y019662D01*
X004282Y019697D02*
X003726Y019697D01*
X003726Y019732D02*
X004282Y019732D01*
X004282Y019395D02*
X003726Y019395D01*
X003726Y019537D01*
X004282Y019537D01*
X004282Y019395D01*
X004282Y019430D02*
X003726Y019430D01*
X003726Y019465D02*
X004282Y019465D01*
X004282Y019500D02*
X003726Y019500D01*
X003726Y019535D02*
X004282Y019535D01*
X004282Y019198D02*
X003726Y019198D01*
X003726Y019340D01*
X004282Y019340D01*
X004282Y019198D01*
X004282Y019233D02*
X003726Y019233D01*
X003726Y019268D02*
X004282Y019268D01*
X004282Y019303D02*
X003726Y019303D01*
X003726Y019338D02*
X004282Y019338D01*
X004282Y019001D02*
X003726Y019001D01*
X003726Y019143D01*
X004282Y019143D01*
X004282Y019001D01*
X004282Y019036D02*
X003726Y019036D01*
X003726Y019071D02*
X004282Y019071D01*
X004282Y019106D02*
X003726Y019106D01*
X003726Y019141D02*
X004282Y019141D01*
X004282Y018805D02*
X003726Y018805D01*
X003726Y018947D01*
X004282Y018947D01*
X004282Y018805D01*
X004282Y018840D02*
X003726Y018840D01*
X003726Y018875D02*
X004282Y018875D01*
X004282Y018910D02*
X003726Y018910D01*
X003726Y018945D02*
X004282Y018945D01*
X004282Y018608D02*
X003726Y018608D01*
X003726Y018750D01*
X004282Y018750D01*
X004282Y018608D01*
X004282Y018643D02*
X003726Y018643D01*
X003726Y018678D02*
X004282Y018678D01*
X004282Y018713D02*
X003726Y018713D01*
X003726Y018748D02*
X004282Y018748D01*
X004282Y018411D02*
X003726Y018411D01*
X003726Y018553D01*
X004282Y018553D01*
X004282Y018411D01*
X004282Y018446D02*
X003726Y018446D01*
X003726Y018481D02*
X004282Y018481D01*
X004282Y018516D02*
X003726Y018516D01*
X003726Y018551D02*
X004282Y018551D01*
X004282Y018214D02*
X003726Y018214D01*
X003726Y018356D01*
X004282Y018356D01*
X004282Y018214D01*
X004282Y018249D02*
X003726Y018249D01*
X003726Y018284D02*
X004282Y018284D01*
X004282Y018319D02*
X003726Y018319D01*
X003726Y018354D02*
X004282Y018354D01*
X004282Y018017D02*
X003726Y018017D01*
X003726Y018159D01*
X004282Y018159D01*
X004282Y018017D01*
X004282Y018052D02*
X003726Y018052D01*
X003726Y018087D02*
X004282Y018087D01*
X004282Y018122D02*
X003726Y018122D01*
X003726Y018157D02*
X004282Y018157D01*
X004282Y017820D02*
X003726Y017820D01*
X003726Y017962D01*
X004282Y017962D01*
X004282Y017820D01*
X004282Y017855D02*
X003726Y017855D01*
X003726Y017890D02*
X004282Y017890D01*
X004282Y017925D02*
X003726Y017925D01*
X003726Y017960D02*
X004282Y017960D01*
X004282Y017623D02*
X003726Y017623D01*
X003726Y017765D01*
X004282Y017765D01*
X004282Y017623D01*
X004282Y017658D02*
X003726Y017658D01*
X003726Y017693D02*
X004282Y017693D01*
X004282Y017728D02*
X003726Y017728D01*
X003726Y017763D02*
X004282Y017763D01*
X004282Y017427D02*
X003726Y017427D01*
X003726Y017569D01*
X004282Y017569D01*
X004282Y017427D01*
X004282Y017462D02*
X003726Y017462D01*
X003726Y017497D02*
X004282Y017497D01*
X004282Y017532D02*
X003726Y017532D01*
X003726Y017567D02*
X004282Y017567D01*
X004282Y017230D02*
X003726Y017230D01*
X003726Y017372D01*
X004282Y017372D01*
X004282Y017230D01*
X004282Y017265D02*
X003726Y017265D01*
X003726Y017300D02*
X004282Y017300D01*
X004282Y017335D02*
X003726Y017335D01*
X003726Y017370D02*
X004282Y017370D01*
X004282Y017033D02*
X003726Y017033D01*
X003726Y017175D01*
X004282Y017175D01*
X004282Y017033D01*
X004282Y017068D02*
X003726Y017068D01*
X003726Y017103D02*
X004282Y017103D01*
X004282Y017138D02*
X003726Y017138D01*
X003726Y017173D02*
X004282Y017173D01*
X004282Y016836D02*
X003726Y016836D01*
X003726Y016978D01*
X004282Y016978D01*
X004282Y016836D01*
X004282Y016871D02*
X003726Y016871D01*
X003726Y016906D02*
X004282Y016906D01*
X004282Y016941D02*
X003726Y016941D01*
X003726Y016976D02*
X004282Y016976D01*
X004282Y016639D02*
X003726Y016639D01*
X003726Y016781D01*
X004282Y016781D01*
X004282Y016639D01*
X004282Y016674D02*
X003726Y016674D01*
X003726Y016709D02*
X004282Y016709D01*
X004282Y016744D02*
X003726Y016744D01*
X003726Y016779D02*
X004282Y016779D01*
X004282Y016442D02*
X003726Y016442D01*
X003726Y016584D01*
X004282Y016584D01*
X004282Y016442D01*
X004282Y016477D02*
X003726Y016477D01*
X003726Y016512D02*
X004282Y016512D01*
X004282Y016547D02*
X003726Y016547D01*
X003726Y016582D02*
X004282Y016582D01*
X004282Y016245D02*
X003726Y016245D01*
X003726Y016387D01*
X004282Y016387D01*
X004282Y016245D01*
X004282Y016280D02*
X003726Y016280D01*
X003726Y016315D02*
X004282Y016315D01*
X004282Y016350D02*
X003726Y016350D01*
X003726Y016385D02*
X004282Y016385D01*
X004282Y016049D02*
X003726Y016049D01*
X003726Y016191D01*
X004282Y016191D01*
X004282Y016049D01*
X004282Y016084D02*
X003726Y016084D01*
X003726Y016119D02*
X004282Y016119D01*
X004282Y016154D02*
X003726Y016154D01*
X003726Y016189D02*
X004282Y016189D01*
X004282Y015852D02*
X003726Y015852D01*
X003726Y015994D01*
X004282Y015994D01*
X004282Y015852D01*
X004282Y015887D02*
X003726Y015887D01*
X003726Y015922D02*
X004282Y015922D01*
X004282Y015957D02*
X003726Y015957D01*
X003726Y015992D02*
X004282Y015992D01*
X004282Y015655D02*
X003726Y015655D01*
X003726Y015797D01*
X004282Y015797D01*
X004282Y015655D01*
X004282Y015690D02*
X003726Y015690D01*
X003726Y015725D02*
X004282Y015725D01*
X004282Y015760D02*
X003726Y015760D01*
X003726Y015795D02*
X004282Y015795D01*
X004282Y015458D02*
X003726Y015458D01*
X003726Y015600D01*
X004282Y015600D01*
X004282Y015458D01*
X004282Y015493D02*
X003726Y015493D01*
X003726Y015528D02*
X004282Y015528D01*
X004282Y015563D02*
X003726Y015563D01*
X003726Y015598D02*
X004282Y015598D01*
X004282Y015261D02*
X003726Y015261D01*
X003726Y015403D01*
X004282Y015403D01*
X004282Y015261D01*
X004282Y015296D02*
X003726Y015296D01*
X003726Y015331D02*
X004282Y015331D01*
X004282Y015366D02*
X003726Y015366D01*
X003726Y015401D02*
X004282Y015401D01*
X004282Y015064D02*
X003726Y015064D01*
X003726Y015206D01*
X004282Y015206D01*
X004282Y015064D01*
X004282Y015099D02*
X003726Y015099D01*
X003726Y015134D02*
X004282Y015134D01*
X004282Y015169D02*
X003726Y015169D01*
X003726Y015204D02*
X004282Y015204D01*
X004282Y014868D02*
X003726Y014868D01*
X003726Y015010D01*
X004282Y015010D01*
X004282Y014868D01*
X004282Y014903D02*
X003726Y014903D01*
X003726Y014938D02*
X004282Y014938D01*
X004282Y014973D02*
X003726Y014973D01*
X003726Y015008D02*
X004282Y015008D01*
X004282Y014671D02*
X003726Y014671D01*
X003726Y014813D01*
X004282Y014813D01*
X004282Y014671D01*
X004282Y014706D02*
X003726Y014706D01*
X003726Y014741D02*
X004282Y014741D01*
X004282Y014776D02*
X003726Y014776D01*
X003726Y014811D02*
X004282Y014811D01*
X004282Y014474D02*
X003726Y014474D01*
X003726Y014616D01*
X004282Y014616D01*
X004282Y014474D01*
X004282Y014509D02*
X003726Y014509D01*
X003726Y014544D02*
X004282Y014544D01*
X004282Y014579D02*
X003726Y014579D01*
X003726Y014614D02*
X004282Y014614D01*
X004282Y014277D02*
X003726Y014277D01*
X003726Y014419D01*
X004282Y014419D01*
X004282Y014277D01*
X004282Y014312D02*
X003726Y014312D01*
X003726Y014347D02*
X004282Y014347D01*
X004282Y014382D02*
X003726Y014382D01*
X003726Y014417D02*
X004282Y014417D01*
X004282Y014080D02*
X003726Y014080D01*
X003726Y014222D01*
X004282Y014222D01*
X004282Y014080D01*
X004282Y014115D02*
X003726Y014115D01*
X003726Y014150D02*
X004282Y014150D01*
X004282Y014185D02*
X003726Y014185D01*
X003726Y014220D02*
X004282Y014220D01*
X004282Y013883D02*
X003726Y013883D01*
X003726Y014025D01*
X004282Y014025D01*
X004282Y013883D01*
X004282Y013918D02*
X003726Y013918D01*
X003726Y013953D02*
X004282Y013953D01*
X004282Y013988D02*
X003726Y013988D01*
X003726Y014023D02*
X004282Y014023D01*
D21*
X005537Y020305D03*
D22*
X005546Y013297D03*
D23*
X032259Y017407D02*
X032849Y017407D01*
X032259Y017407D02*
X032259Y017593D01*
X032849Y017593D01*
X032849Y017407D01*
X032849Y017439D02*
X032259Y017439D01*
X032259Y017471D02*
X032849Y017471D01*
X032849Y017503D02*
X032259Y017503D01*
X032259Y017535D02*
X032849Y017535D01*
X032849Y017567D02*
X032259Y017567D01*
X032259Y017662D02*
X032849Y017662D01*
X032259Y017662D02*
X032259Y017848D01*
X032849Y017848D01*
X032849Y017662D01*
X032849Y017694D02*
X032259Y017694D01*
X032259Y017726D02*
X032849Y017726D01*
X032849Y017758D02*
X032259Y017758D01*
X032259Y017790D02*
X032849Y017790D01*
X032849Y017822D02*
X032259Y017822D01*
X032259Y017918D02*
X032849Y017918D01*
X032259Y017918D02*
X032259Y018104D01*
X032849Y018104D01*
X032849Y017918D01*
X032849Y017950D02*
X032259Y017950D01*
X032259Y017982D02*
X032849Y017982D01*
X032849Y018014D02*
X032259Y018014D01*
X032259Y018046D02*
X032849Y018046D01*
X032849Y018078D02*
X032259Y018078D01*
X033047Y017918D02*
X033637Y017918D01*
X033047Y017918D02*
X033047Y018104D01*
X033637Y018104D01*
X033637Y017918D01*
X033637Y017950D02*
X033047Y017950D01*
X033047Y017982D02*
X033637Y017982D01*
X033637Y018014D02*
X033047Y018014D01*
X033047Y018046D02*
X033637Y018046D01*
X033637Y018078D02*
X033047Y018078D01*
X033047Y017662D02*
X033637Y017662D01*
X033047Y017662D02*
X033047Y017848D01*
X033637Y017848D01*
X033637Y017662D01*
X033637Y017694D02*
X033047Y017694D01*
X033047Y017726D02*
X033637Y017726D01*
X033637Y017758D02*
X033047Y017758D01*
X033047Y017790D02*
X033637Y017790D01*
X033637Y017822D02*
X033047Y017822D01*
X033047Y017407D02*
X033637Y017407D01*
X033047Y017407D02*
X033047Y017593D01*
X033637Y017593D01*
X033637Y017407D01*
X033637Y017439D02*
X033047Y017439D01*
X033047Y017471D02*
X033637Y017471D01*
X033637Y017503D02*
X033047Y017503D01*
X033047Y017535D02*
X033637Y017535D01*
X033637Y017567D02*
X033047Y017567D01*
X033100Y014645D02*
X032914Y014645D01*
X032914Y015235D01*
X033100Y015235D01*
X033100Y014645D01*
X033100Y014677D02*
X032914Y014677D01*
X032914Y014709D02*
X033100Y014709D01*
X033100Y014741D02*
X032914Y014741D01*
X032914Y014773D02*
X033100Y014773D01*
X033100Y014805D02*
X032914Y014805D01*
X032914Y014837D02*
X033100Y014837D01*
X033100Y014869D02*
X032914Y014869D01*
X032914Y014901D02*
X033100Y014901D01*
X033100Y014933D02*
X032914Y014933D01*
X032914Y014965D02*
X033100Y014965D01*
X033100Y014997D02*
X032914Y014997D01*
X032914Y015029D02*
X033100Y015029D01*
X033100Y015061D02*
X032914Y015061D01*
X032914Y015093D02*
X033100Y015093D01*
X033100Y015125D02*
X032914Y015125D01*
X032914Y015157D02*
X033100Y015157D01*
X033100Y015189D02*
X032914Y015189D01*
X032914Y015221D02*
X033100Y015221D01*
X033170Y014645D02*
X033356Y014645D01*
X033170Y014645D02*
X033170Y015235D01*
X033356Y015235D01*
X033356Y014645D01*
X033356Y014677D02*
X033170Y014677D01*
X033170Y014709D02*
X033356Y014709D01*
X033356Y014741D02*
X033170Y014741D01*
X033170Y014773D02*
X033356Y014773D01*
X033356Y014805D02*
X033170Y014805D01*
X033170Y014837D02*
X033356Y014837D01*
X033356Y014869D02*
X033170Y014869D01*
X033170Y014901D02*
X033356Y014901D01*
X033356Y014933D02*
X033170Y014933D01*
X033170Y014965D02*
X033356Y014965D01*
X033356Y014997D02*
X033170Y014997D01*
X033170Y015029D02*
X033356Y015029D01*
X033356Y015061D02*
X033170Y015061D01*
X033170Y015093D02*
X033356Y015093D01*
X033356Y015125D02*
X033170Y015125D01*
X033170Y015157D02*
X033356Y015157D01*
X033356Y015189D02*
X033170Y015189D01*
X033170Y015221D02*
X033356Y015221D01*
X032844Y014645D02*
X032658Y014645D01*
X032658Y015235D01*
X032844Y015235D01*
X032844Y014645D01*
X032844Y014677D02*
X032658Y014677D01*
X032658Y014709D02*
X032844Y014709D01*
X032844Y014741D02*
X032658Y014741D01*
X032658Y014773D02*
X032844Y014773D01*
X032844Y014805D02*
X032658Y014805D01*
X032658Y014837D02*
X032844Y014837D01*
X032844Y014869D02*
X032658Y014869D01*
X032658Y014901D02*
X032844Y014901D01*
X032844Y014933D02*
X032658Y014933D01*
X032658Y014965D02*
X032844Y014965D01*
X032844Y014997D02*
X032658Y014997D01*
X032658Y015029D02*
X032844Y015029D01*
X032844Y015061D02*
X032658Y015061D01*
X032658Y015093D02*
X032844Y015093D01*
X032844Y015125D02*
X032658Y015125D01*
X032658Y015157D02*
X032844Y015157D01*
X032844Y015189D02*
X032658Y015189D01*
X032658Y015221D02*
X032844Y015221D01*
X032844Y013858D02*
X032658Y013858D01*
X032658Y014448D01*
X032844Y014448D01*
X032844Y013858D01*
X032844Y013890D02*
X032658Y013890D01*
X032658Y013922D02*
X032844Y013922D01*
X032844Y013954D02*
X032658Y013954D01*
X032658Y013986D02*
X032844Y013986D01*
X032844Y014018D02*
X032658Y014018D01*
X032658Y014050D02*
X032844Y014050D01*
X032844Y014082D02*
X032658Y014082D01*
X032658Y014114D02*
X032844Y014114D01*
X032844Y014146D02*
X032658Y014146D01*
X032658Y014178D02*
X032844Y014178D01*
X032844Y014210D02*
X032658Y014210D01*
X032658Y014242D02*
X032844Y014242D01*
X032844Y014274D02*
X032658Y014274D01*
X032658Y014306D02*
X032844Y014306D01*
X032844Y014338D02*
X032658Y014338D01*
X032658Y014370D02*
X032844Y014370D01*
X032844Y014402D02*
X032658Y014402D01*
X032658Y014434D02*
X032844Y014434D01*
X032914Y013858D02*
X033100Y013858D01*
X032914Y013858D02*
X032914Y014448D01*
X033100Y014448D01*
X033100Y013858D01*
X033100Y013890D02*
X032914Y013890D01*
X032914Y013922D02*
X033100Y013922D01*
X033100Y013954D02*
X032914Y013954D01*
X032914Y013986D02*
X033100Y013986D01*
X033100Y014018D02*
X032914Y014018D01*
X032914Y014050D02*
X033100Y014050D01*
X033100Y014082D02*
X032914Y014082D01*
X032914Y014114D02*
X033100Y014114D01*
X033100Y014146D02*
X032914Y014146D01*
X032914Y014178D02*
X033100Y014178D01*
X033100Y014210D02*
X032914Y014210D01*
X032914Y014242D02*
X033100Y014242D01*
X033100Y014274D02*
X032914Y014274D01*
X032914Y014306D02*
X033100Y014306D01*
X033100Y014338D02*
X032914Y014338D01*
X032914Y014370D02*
X033100Y014370D01*
X033100Y014402D02*
X032914Y014402D01*
X032914Y014434D02*
X033100Y014434D01*
X033170Y013858D02*
X033356Y013858D01*
X033170Y013858D02*
X033170Y014448D01*
X033356Y014448D01*
X033356Y013858D01*
X033356Y013890D02*
X033170Y013890D01*
X033170Y013922D02*
X033356Y013922D01*
X033356Y013954D02*
X033170Y013954D01*
X033170Y013986D02*
X033356Y013986D01*
X033356Y014018D02*
X033170Y014018D01*
X033170Y014050D02*
X033356Y014050D01*
X033356Y014082D02*
X033170Y014082D01*
X033170Y014114D02*
X033356Y014114D01*
X033356Y014146D02*
X033170Y014146D01*
X033170Y014178D02*
X033356Y014178D01*
X033356Y014210D02*
X033170Y014210D01*
X033170Y014242D02*
X033356Y014242D01*
X033356Y014274D02*
X033170Y014274D01*
X033170Y014306D02*
X033356Y014306D01*
X033356Y014338D02*
X033170Y014338D01*
X033170Y014370D02*
X033356Y014370D01*
X033356Y014402D02*
X033170Y014402D01*
X033170Y014434D02*
X033356Y014434D01*
D24*
X034196Y012832D02*
X034456Y012832D01*
X034196Y012832D02*
X034196Y013160D01*
X034456Y013160D01*
X034456Y012832D01*
X034456Y012860D02*
X034196Y012860D01*
X034196Y012888D02*
X034456Y012888D01*
X034456Y012916D02*
X034196Y012916D01*
X034196Y012944D02*
X034456Y012944D01*
X034456Y012972D02*
X034196Y012972D01*
X034196Y013000D02*
X034456Y013000D01*
X034456Y013028D02*
X034196Y013028D01*
X034196Y013056D02*
X034456Y013056D01*
X034456Y013084D02*
X034196Y013084D01*
X034196Y013112D02*
X034456Y013112D01*
X034456Y013140D02*
X034196Y013140D01*
X034983Y012832D02*
X035243Y012832D01*
X034983Y012832D02*
X034983Y013160D01*
X035243Y013160D01*
X035243Y012832D01*
X035243Y012860D02*
X034983Y012860D01*
X034983Y012888D02*
X035243Y012888D01*
X035243Y012916D02*
X034983Y012916D01*
X034983Y012944D02*
X035243Y012944D01*
X035243Y012972D02*
X034983Y012972D01*
X034983Y013000D02*
X035243Y013000D01*
X035243Y013028D02*
X034983Y013028D01*
X034983Y013056D02*
X035243Y013056D01*
X035243Y013084D02*
X034983Y013084D01*
X034983Y013112D02*
X035243Y013112D01*
X035243Y013140D02*
X034983Y013140D01*
X034850Y012044D02*
X034590Y012044D01*
X034590Y012372D01*
X034850Y012372D01*
X034850Y012044D01*
X034850Y012072D02*
X034590Y012072D01*
X034590Y012100D02*
X034850Y012100D01*
X034850Y012128D02*
X034590Y012128D01*
X034590Y012156D02*
X034850Y012156D01*
X034850Y012184D02*
X034590Y012184D01*
X034590Y012212D02*
X034850Y012212D01*
X034850Y012240D02*
X034590Y012240D01*
X034590Y012268D02*
X034850Y012268D01*
X034850Y012296D02*
X034590Y012296D01*
X034590Y012324D02*
X034850Y012324D01*
X034850Y012352D02*
X034590Y012352D01*
X034590Y011363D02*
X034850Y011363D01*
X034590Y011363D02*
X034590Y011691D01*
X034850Y011691D01*
X034850Y011363D01*
X034850Y011391D02*
X034590Y011391D01*
X034590Y011419D02*
X034850Y011419D01*
X034850Y011447D02*
X034590Y011447D01*
X034590Y011475D02*
X034850Y011475D01*
X034850Y011503D02*
X034590Y011503D01*
X034590Y011531D02*
X034850Y011531D01*
X034850Y011559D02*
X034590Y011559D01*
X034590Y011587D02*
X034850Y011587D01*
X034850Y011615D02*
X034590Y011615D01*
X034590Y011643D02*
X034850Y011643D01*
X034850Y011671D02*
X034590Y011671D01*
X034456Y010576D02*
X034196Y010576D01*
X034196Y010904D01*
X034456Y010904D01*
X034456Y010576D01*
X034456Y010604D02*
X034196Y010604D01*
X034196Y010632D02*
X034456Y010632D01*
X034456Y010660D02*
X034196Y010660D01*
X034196Y010688D02*
X034456Y010688D01*
X034456Y010716D02*
X034196Y010716D01*
X034196Y010744D02*
X034456Y010744D01*
X034456Y010772D02*
X034196Y010772D01*
X034196Y010800D02*
X034456Y010800D01*
X034456Y010828D02*
X034196Y010828D01*
X034196Y010856D02*
X034456Y010856D01*
X034456Y010884D02*
X034196Y010884D01*
X034983Y010576D02*
X035243Y010576D01*
X034983Y010576D02*
X034983Y010904D01*
X035243Y010904D01*
X035243Y010576D01*
X035243Y010604D02*
X034983Y010604D01*
X034983Y010632D02*
X035243Y010632D01*
X035243Y010660D02*
X034983Y010660D01*
X034983Y010688D02*
X035243Y010688D01*
X035243Y010716D02*
X034983Y010716D01*
X034983Y010744D02*
X035243Y010744D01*
X035243Y010772D02*
X034983Y010772D01*
X034983Y010800D02*
X035243Y010800D01*
X035243Y010828D02*
X034983Y010828D01*
X034983Y010856D02*
X035243Y010856D01*
X035243Y010884D02*
X034983Y010884D01*
X035180Y019107D02*
X035440Y019107D01*
X035180Y019107D02*
X035180Y019435D01*
X035440Y019435D01*
X035440Y019107D01*
X035440Y019135D02*
X035180Y019135D01*
X035180Y019163D02*
X035440Y019163D01*
X035440Y019191D02*
X035180Y019191D01*
X035180Y019219D02*
X035440Y019219D01*
X035440Y019247D02*
X035180Y019247D01*
X035180Y019275D02*
X035440Y019275D01*
X035440Y019303D02*
X035180Y019303D01*
X035180Y019331D02*
X035440Y019331D01*
X035440Y019359D02*
X035180Y019359D01*
X035180Y019387D02*
X035440Y019387D01*
X035440Y019415D02*
X035180Y019415D01*
X034653Y019107D02*
X034393Y019107D01*
X034393Y019435D01*
X034653Y019435D01*
X034653Y019107D01*
X034653Y019135D02*
X034393Y019135D01*
X034393Y019163D02*
X034653Y019163D01*
X034653Y019191D02*
X034393Y019191D01*
X034393Y019219D02*
X034653Y019219D01*
X034653Y019247D02*
X034393Y019247D01*
X034393Y019275D02*
X034653Y019275D01*
X034653Y019303D02*
X034393Y019303D01*
X034393Y019331D02*
X034653Y019331D01*
X034653Y019359D02*
X034393Y019359D01*
X034393Y019387D02*
X034653Y019387D01*
X034653Y019415D02*
X034393Y019415D01*
X034787Y019895D02*
X035047Y019895D01*
X034787Y019895D02*
X034787Y020223D01*
X035047Y020223D01*
X035047Y019895D01*
X035047Y019923D02*
X034787Y019923D01*
X034787Y019951D02*
X035047Y019951D01*
X035047Y019979D02*
X034787Y019979D01*
X034787Y020007D02*
X035047Y020007D01*
X035047Y020035D02*
X034787Y020035D01*
X034787Y020063D02*
X035047Y020063D01*
X035047Y020091D02*
X034787Y020091D01*
X034787Y020119D02*
X035047Y020119D01*
X035047Y020147D02*
X034787Y020147D01*
X034787Y020175D02*
X035047Y020175D01*
X035047Y020203D02*
X034787Y020203D01*
X034787Y020485D02*
X035047Y020485D01*
X034787Y020485D02*
X034787Y020813D01*
X035047Y020813D01*
X035047Y020485D01*
X035047Y020513D02*
X034787Y020513D01*
X034787Y020541D02*
X035047Y020541D01*
X035047Y020569D02*
X034787Y020569D01*
X034787Y020597D02*
X035047Y020597D01*
X035047Y020625D02*
X034787Y020625D01*
X034787Y020653D02*
X035047Y020653D01*
X035047Y020681D02*
X034787Y020681D01*
X034787Y020709D02*
X035047Y020709D01*
X035047Y020737D02*
X034787Y020737D01*
X034787Y020765D02*
X035047Y020765D01*
X035047Y020793D02*
X034787Y020793D01*
X034653Y021273D02*
X034393Y021273D01*
X034393Y021601D01*
X034653Y021601D01*
X034653Y021273D01*
X034653Y021301D02*
X034393Y021301D01*
X034393Y021329D02*
X034653Y021329D01*
X034653Y021357D02*
X034393Y021357D01*
X034393Y021385D02*
X034653Y021385D01*
X034653Y021413D02*
X034393Y021413D01*
X034393Y021441D02*
X034653Y021441D01*
X034653Y021469D02*
X034393Y021469D01*
X034393Y021497D02*
X034653Y021497D01*
X034653Y021525D02*
X034393Y021525D01*
X034393Y021553D02*
X034653Y021553D01*
X034653Y021581D02*
X034393Y021581D01*
X035180Y021273D02*
X035440Y021273D01*
X035180Y021273D02*
X035180Y021601D01*
X035440Y021601D01*
X035440Y021273D01*
X035440Y021301D02*
X035180Y021301D01*
X035180Y021329D02*
X035440Y021329D01*
X035440Y021357D02*
X035180Y021357D01*
X035180Y021385D02*
X035440Y021385D01*
X035440Y021413D02*
X035180Y021413D01*
X035180Y021441D02*
X035440Y021441D01*
X035440Y021469D02*
X035180Y021469D01*
X035180Y021497D02*
X035440Y021497D01*
X035440Y021525D02*
X035180Y021525D01*
X035180Y021553D02*
X035440Y021553D01*
X035440Y021581D02*
X035180Y021581D01*
D25*
X034962Y016762D02*
X034084Y016762D01*
X034084Y016978D01*
X034962Y016978D01*
X034962Y016762D01*
X034962Y016790D02*
X034084Y016790D01*
X034084Y016818D02*
X034962Y016818D01*
X034962Y016846D02*
X034084Y016846D01*
X034084Y016874D02*
X034962Y016874D01*
X034962Y016902D02*
X034084Y016902D01*
X034084Y016930D02*
X034962Y016930D01*
X034962Y016958D02*
X034084Y016958D01*
X034084Y016506D02*
X034962Y016506D01*
X034084Y016506D02*
X034084Y016722D01*
X034962Y016722D01*
X034962Y016506D01*
X034962Y016534D02*
X034084Y016534D01*
X034084Y016562D02*
X034962Y016562D01*
X034962Y016590D02*
X034084Y016590D01*
X034084Y016618D02*
X034962Y016618D01*
X034962Y016646D02*
X034084Y016646D01*
X034084Y016674D02*
X034962Y016674D01*
X034962Y016702D02*
X034084Y016702D01*
X034084Y016250D02*
X034962Y016250D01*
X034084Y016250D02*
X034084Y016466D01*
X034962Y016466D01*
X034962Y016250D01*
X034962Y016278D02*
X034084Y016278D01*
X034084Y016306D02*
X034962Y016306D01*
X034962Y016334D02*
X034084Y016334D01*
X034084Y016362D02*
X034962Y016362D01*
X034962Y016390D02*
X034084Y016390D01*
X034084Y016418D02*
X034962Y016418D01*
X034962Y016446D02*
X034084Y016446D01*
X034084Y015994D02*
X034962Y015994D01*
X034084Y015994D02*
X034084Y016210D01*
X034962Y016210D01*
X034962Y015994D01*
X034962Y016022D02*
X034084Y016022D01*
X034084Y016050D02*
X034962Y016050D01*
X034962Y016078D02*
X034084Y016078D01*
X034084Y016106D02*
X034962Y016106D01*
X034962Y016134D02*
X034084Y016134D01*
X034084Y016162D02*
X034962Y016162D01*
X034962Y016190D02*
X034084Y016190D01*
X034084Y015738D02*
X034962Y015738D01*
X034084Y015738D02*
X034084Y015954D01*
X034962Y015954D01*
X034962Y015738D01*
X034962Y015766D02*
X034084Y015766D01*
X034084Y015794D02*
X034962Y015794D01*
X034962Y015822D02*
X034084Y015822D01*
X034084Y015850D02*
X034962Y015850D01*
X034962Y015878D02*
X034084Y015878D01*
X034084Y015906D02*
X034962Y015906D01*
X034962Y015934D02*
X034084Y015934D01*
X034084Y015482D02*
X034962Y015482D01*
X034084Y015482D02*
X034084Y015698D01*
X034962Y015698D01*
X034962Y015482D01*
X034962Y015510D02*
X034084Y015510D01*
X034084Y015538D02*
X034962Y015538D01*
X034962Y015566D02*
X034084Y015566D01*
X034084Y015594D02*
X034962Y015594D01*
X034962Y015622D02*
X034084Y015622D01*
X034084Y015650D02*
X034962Y015650D01*
X034962Y015678D02*
X034084Y015678D01*
X034084Y015226D02*
X034962Y015226D01*
X034084Y015226D02*
X034084Y015442D01*
X034962Y015442D01*
X034962Y015226D01*
X034962Y015254D02*
X034084Y015254D01*
X034084Y015282D02*
X034962Y015282D01*
X034962Y015310D02*
X034084Y015310D01*
X034084Y015338D02*
X034962Y015338D01*
X034962Y015366D02*
X034084Y015366D01*
X034084Y015394D02*
X034962Y015394D01*
X034962Y015422D02*
X034084Y015422D01*
X036643Y015226D02*
X037521Y015226D01*
X036643Y015226D02*
X036643Y015442D01*
X037521Y015442D01*
X037521Y015226D01*
X037521Y015254D02*
X036643Y015254D01*
X036643Y015282D02*
X037521Y015282D01*
X037521Y015310D02*
X036643Y015310D01*
X036643Y015338D02*
X037521Y015338D01*
X037521Y015366D02*
X036643Y015366D01*
X036643Y015394D02*
X037521Y015394D01*
X037521Y015422D02*
X036643Y015422D01*
X036643Y015482D02*
X037521Y015482D01*
X036643Y015482D02*
X036643Y015698D01*
X037521Y015698D01*
X037521Y015482D01*
X037521Y015510D02*
X036643Y015510D01*
X036643Y015538D02*
X037521Y015538D01*
X037521Y015566D02*
X036643Y015566D01*
X036643Y015594D02*
X037521Y015594D01*
X037521Y015622D02*
X036643Y015622D01*
X036643Y015650D02*
X037521Y015650D01*
X037521Y015678D02*
X036643Y015678D01*
X036643Y015738D02*
X037521Y015738D01*
X036643Y015738D02*
X036643Y015954D01*
X037521Y015954D01*
X037521Y015738D01*
X037521Y015766D02*
X036643Y015766D01*
X036643Y015794D02*
X037521Y015794D01*
X037521Y015822D02*
X036643Y015822D01*
X036643Y015850D02*
X037521Y015850D01*
X037521Y015878D02*
X036643Y015878D01*
X036643Y015906D02*
X037521Y015906D01*
X037521Y015934D02*
X036643Y015934D01*
X036643Y015994D02*
X037521Y015994D01*
X036643Y015994D02*
X036643Y016210D01*
X037521Y016210D01*
X037521Y015994D01*
X037521Y016022D02*
X036643Y016022D01*
X036643Y016050D02*
X037521Y016050D01*
X037521Y016078D02*
X036643Y016078D01*
X036643Y016106D02*
X037521Y016106D01*
X037521Y016134D02*
X036643Y016134D01*
X036643Y016162D02*
X037521Y016162D01*
X037521Y016190D02*
X036643Y016190D01*
X036643Y016250D02*
X037521Y016250D01*
X036643Y016250D02*
X036643Y016466D01*
X037521Y016466D01*
X037521Y016250D01*
X037521Y016278D02*
X036643Y016278D01*
X036643Y016306D02*
X037521Y016306D01*
X037521Y016334D02*
X036643Y016334D01*
X036643Y016362D02*
X037521Y016362D01*
X037521Y016390D02*
X036643Y016390D01*
X036643Y016418D02*
X037521Y016418D01*
X037521Y016446D02*
X036643Y016446D01*
X036643Y016506D02*
X037521Y016506D01*
X036643Y016506D02*
X036643Y016722D01*
X037521Y016722D01*
X037521Y016506D01*
X037521Y016534D02*
X036643Y016534D01*
X036643Y016562D02*
X037521Y016562D01*
X037521Y016590D02*
X036643Y016590D01*
X036643Y016618D02*
X037521Y016618D01*
X037521Y016646D02*
X036643Y016646D01*
X036643Y016674D02*
X037521Y016674D01*
X037521Y016702D02*
X036643Y016702D01*
X036643Y016762D02*
X037521Y016762D01*
X036643Y016762D02*
X036643Y016978D01*
X037521Y016978D01*
X037521Y016762D01*
X037521Y016790D02*
X036643Y016790D01*
X036643Y016818D02*
X037521Y016818D01*
X037521Y016846D02*
X036643Y016846D01*
X036643Y016874D02*
X037521Y016874D01*
X037521Y016902D02*
X036643Y016902D01*
X036643Y016930D02*
X037521Y016930D01*
X037521Y016958D02*
X036643Y016958D01*
D26*
X038217Y018222D02*
X040277Y018222D01*
X038217Y018222D02*
X038217Y019232D01*
X040277Y019232D01*
X040277Y018222D01*
X040277Y018242D02*
X038217Y018242D01*
X038217Y018262D02*
X040277Y018262D01*
X040277Y018282D02*
X038217Y018282D01*
X038217Y018302D02*
X040277Y018302D01*
X040277Y018322D02*
X038217Y018322D01*
X038217Y018342D02*
X040277Y018342D01*
X040277Y018362D02*
X038217Y018362D01*
X038217Y018382D02*
X040277Y018382D01*
X040277Y018402D02*
X038217Y018402D01*
X038217Y018422D02*
X040277Y018422D01*
X040277Y018442D02*
X038217Y018442D01*
X038217Y018462D02*
X040277Y018462D01*
X040277Y018482D02*
X038217Y018482D01*
X038217Y018502D02*
X040277Y018502D01*
X040277Y018522D02*
X038217Y018522D01*
X038217Y018542D02*
X040277Y018542D01*
X040277Y018562D02*
X038217Y018562D01*
X038217Y018582D02*
X040277Y018582D01*
X040277Y018602D02*
X038217Y018602D01*
X038217Y018622D02*
X040277Y018622D01*
X040277Y018642D02*
X038217Y018642D01*
X038217Y018662D02*
X040277Y018662D01*
X040277Y018682D02*
X038217Y018682D01*
X038217Y018702D02*
X040277Y018702D01*
X040277Y018722D02*
X038217Y018722D01*
X038217Y018742D02*
X040277Y018742D01*
X040277Y018762D02*
X038217Y018762D01*
X038217Y018782D02*
X040277Y018782D01*
X040277Y018802D02*
X038217Y018802D01*
X038217Y018822D02*
X040277Y018822D01*
X040277Y018842D02*
X038217Y018842D01*
X038217Y018862D02*
X040277Y018862D01*
X040277Y018882D02*
X038217Y018882D01*
X038217Y018902D02*
X040277Y018902D01*
X040277Y018922D02*
X038217Y018922D01*
X038217Y018942D02*
X040277Y018942D01*
X040277Y018962D02*
X038217Y018962D01*
X038217Y018982D02*
X040277Y018982D01*
X040277Y019002D02*
X038217Y019002D01*
X038217Y019022D02*
X040277Y019022D01*
X040277Y019042D02*
X038217Y019042D01*
X038217Y019062D02*
X040277Y019062D01*
X040277Y019082D02*
X038217Y019082D01*
X038217Y019102D02*
X040277Y019102D01*
X040277Y019122D02*
X038217Y019122D01*
X038217Y019142D02*
X040277Y019142D01*
X040277Y019162D02*
X038217Y019162D01*
X038217Y019182D02*
X040277Y019182D01*
X040277Y019202D02*
X038217Y019202D01*
X038217Y019222D02*
X040277Y019222D01*
X040277Y021673D02*
X038217Y021673D01*
X038217Y022683D01*
X040277Y022683D01*
X040277Y021673D01*
X040277Y021693D02*
X038217Y021693D01*
X038217Y021713D02*
X040277Y021713D01*
X040277Y021733D02*
X038217Y021733D01*
X038217Y021753D02*
X040277Y021753D01*
X040277Y021773D02*
X038217Y021773D01*
X038217Y021793D02*
X040277Y021793D01*
X040277Y021813D02*
X038217Y021813D01*
X038217Y021833D02*
X040277Y021833D01*
X040277Y021853D02*
X038217Y021853D01*
X038217Y021873D02*
X040277Y021873D01*
X040277Y021893D02*
X038217Y021893D01*
X038217Y021913D02*
X040277Y021913D01*
X040277Y021933D02*
X038217Y021933D01*
X038217Y021953D02*
X040277Y021953D01*
X040277Y021973D02*
X038217Y021973D01*
X038217Y021993D02*
X040277Y021993D01*
X040277Y022013D02*
X038217Y022013D01*
X038217Y022033D02*
X040277Y022033D01*
X040277Y022053D02*
X038217Y022053D01*
X038217Y022073D02*
X040277Y022073D01*
X040277Y022093D02*
X038217Y022093D01*
X038217Y022113D02*
X040277Y022113D01*
X040277Y022133D02*
X038217Y022133D01*
X038217Y022153D02*
X040277Y022153D01*
X040277Y022173D02*
X038217Y022173D01*
X038217Y022193D02*
X040277Y022193D01*
X040277Y022213D02*
X038217Y022213D01*
X038217Y022233D02*
X040277Y022233D01*
X040277Y022253D02*
X038217Y022253D01*
X038217Y022273D02*
X040277Y022273D01*
X040277Y022293D02*
X038217Y022293D01*
X038217Y022313D02*
X040277Y022313D01*
X040277Y022333D02*
X038217Y022333D01*
X038217Y022353D02*
X040277Y022353D01*
X040277Y022373D02*
X038217Y022373D01*
X038217Y022393D02*
X040277Y022393D01*
X040277Y022413D02*
X038217Y022413D01*
X038217Y022433D02*
X040277Y022433D01*
X040277Y022453D02*
X038217Y022453D01*
X038217Y022473D02*
X040277Y022473D01*
X040277Y022493D02*
X038217Y022493D01*
X038217Y022513D02*
X040277Y022513D01*
X040277Y022533D02*
X038217Y022533D01*
X038217Y022553D02*
X040277Y022553D01*
X040277Y022573D02*
X038217Y022573D01*
X038217Y022593D02*
X040277Y022593D01*
X040277Y022613D02*
X038217Y022613D01*
X038217Y022633D02*
X040277Y022633D01*
X040277Y022653D02*
X038217Y022653D01*
X038217Y022673D02*
X040277Y022673D01*
X040277Y013996D02*
X038217Y013996D01*
X038217Y015006D01*
X040277Y015006D01*
X040277Y013996D01*
X040277Y014016D02*
X038217Y014016D01*
X038217Y014036D02*
X040277Y014036D01*
X040277Y014056D02*
X038217Y014056D01*
X038217Y014076D02*
X040277Y014076D01*
X040277Y014096D02*
X038217Y014096D01*
X038217Y014116D02*
X040277Y014116D01*
X040277Y014136D02*
X038217Y014136D01*
X038217Y014156D02*
X040277Y014156D01*
X040277Y014176D02*
X038217Y014176D01*
X038217Y014196D02*
X040277Y014196D01*
X040277Y014216D02*
X038217Y014216D01*
X038217Y014236D02*
X040277Y014236D01*
X040277Y014256D02*
X038217Y014256D01*
X038217Y014276D02*
X040277Y014276D01*
X040277Y014296D02*
X038217Y014296D01*
X038217Y014316D02*
X040277Y014316D01*
X040277Y014336D02*
X038217Y014336D01*
X038217Y014356D02*
X040277Y014356D01*
X040277Y014376D02*
X038217Y014376D01*
X038217Y014396D02*
X040277Y014396D01*
X040277Y014416D02*
X038217Y014416D01*
X038217Y014436D02*
X040277Y014436D01*
X040277Y014456D02*
X038217Y014456D01*
X038217Y014476D02*
X040277Y014476D01*
X040277Y014496D02*
X038217Y014496D01*
X038217Y014516D02*
X040277Y014516D01*
X040277Y014536D02*
X038217Y014536D01*
X038217Y014556D02*
X040277Y014556D01*
X040277Y014576D02*
X038217Y014576D01*
X038217Y014596D02*
X040277Y014596D01*
X040277Y014616D02*
X038217Y014616D01*
X038217Y014636D02*
X040277Y014636D01*
X040277Y014656D02*
X038217Y014656D01*
X038217Y014676D02*
X040277Y014676D01*
X040277Y014696D02*
X038217Y014696D01*
X038217Y014716D02*
X040277Y014716D01*
X040277Y014736D02*
X038217Y014736D01*
X038217Y014756D02*
X040277Y014756D01*
X040277Y014776D02*
X038217Y014776D01*
X038217Y014796D02*
X040277Y014796D01*
X040277Y014816D02*
X038217Y014816D01*
X038217Y014836D02*
X040277Y014836D01*
X040277Y014856D02*
X038217Y014856D01*
X038217Y014876D02*
X040277Y014876D01*
X040277Y014896D02*
X038217Y014896D01*
X038217Y014916D02*
X040277Y014916D01*
X040277Y014936D02*
X038217Y014936D01*
X038217Y014956D02*
X040277Y014956D01*
X040277Y014976D02*
X038217Y014976D01*
X038217Y014996D02*
X040277Y014996D01*
X040277Y010545D02*
X038217Y010545D01*
X038217Y011555D01*
X040277Y011555D01*
X040277Y010545D01*
X040277Y010565D02*
X038217Y010565D01*
X038217Y010585D02*
X040277Y010585D01*
X040277Y010605D02*
X038217Y010605D01*
X038217Y010625D02*
X040277Y010625D01*
X040277Y010645D02*
X038217Y010645D01*
X038217Y010665D02*
X040277Y010665D01*
X040277Y010685D02*
X038217Y010685D01*
X038217Y010705D02*
X040277Y010705D01*
X040277Y010725D02*
X038217Y010725D01*
X038217Y010745D02*
X040277Y010745D01*
X040277Y010765D02*
X038217Y010765D01*
X038217Y010785D02*
X040277Y010785D01*
X040277Y010805D02*
X038217Y010805D01*
X038217Y010825D02*
X040277Y010825D01*
X040277Y010845D02*
X038217Y010845D01*
X038217Y010865D02*
X040277Y010865D01*
X040277Y010885D02*
X038217Y010885D01*
X038217Y010905D02*
X040277Y010905D01*
X040277Y010925D02*
X038217Y010925D01*
X038217Y010945D02*
X040277Y010945D01*
X040277Y010965D02*
X038217Y010965D01*
X038217Y010985D02*
X040277Y010985D01*
X040277Y011005D02*
X038217Y011005D01*
X038217Y011025D02*
X040277Y011025D01*
X040277Y011045D02*
X038217Y011045D01*
X038217Y011065D02*
X040277Y011065D01*
X040277Y011085D02*
X038217Y011085D01*
X038217Y011105D02*
X040277Y011105D01*
X040277Y011125D02*
X038217Y011125D01*
X038217Y011145D02*
X040277Y011145D01*
X040277Y011165D02*
X038217Y011165D01*
X038217Y011185D02*
X040277Y011185D01*
X040277Y011205D02*
X038217Y011205D01*
X038217Y011225D02*
X040277Y011225D01*
X040277Y011245D02*
X038217Y011245D01*
X038217Y011265D02*
X040277Y011265D01*
X040277Y011285D02*
X038217Y011285D01*
X038217Y011305D02*
X040277Y011305D01*
X040277Y011325D02*
X038217Y011325D01*
X038217Y011345D02*
X040277Y011345D01*
X040277Y011365D02*
X038217Y011365D01*
X038217Y011385D02*
X040277Y011385D01*
X040277Y011405D02*
X038217Y011405D01*
X038217Y011425D02*
X040277Y011425D01*
X040277Y011445D02*
X038217Y011445D01*
X038217Y011465D02*
X040277Y011465D01*
X040277Y011485D02*
X038217Y011485D01*
X038217Y011505D02*
X040277Y011505D01*
X040277Y011525D02*
X038217Y011525D01*
X038217Y011545D02*
X040277Y011545D01*
D27*
X003617Y004901D03*
X011688Y008641D03*
X023893Y008641D03*
X037476Y004901D03*
X023893Y024980D03*
X011688Y024980D03*
X003617Y028129D03*
X037476Y028129D03*
D28*
X019464Y029822D03*
X020251Y003208D03*
D29*
X022220Y007972D03*
X017731Y007972D03*
X017495Y025059D03*
X021983Y025059D03*
D30*
X019464Y025689D03*
X020251Y007342D03*
D31*
X020940Y007460D03*
X021334Y006870D03*
X022515Y006476D03*
X023106Y006476D03*
X022712Y007066D03*
X021924Y005492D03*
X021334Y005098D03*
X020546Y005885D03*
X020153Y005295D03*
X019759Y005098D03*
X020350Y004311D03*
X020743Y003523D03*
X019169Y003523D03*
X018184Y003129D03*
X016806Y003720D03*
X016019Y003129D03*
X016806Y004901D03*
X017003Y005689D03*
X017003Y006082D03*
X016019Y005885D03*
X017200Y007263D03*
X017003Y007657D03*
X018184Y007263D03*
X018775Y007066D03*
X019365Y007460D03*
X018972Y007657D03*
X019956Y008248D03*
X021531Y008838D03*
X020153Y010413D03*
X020743Y011003D03*
X021728Y010610D03*
X022712Y010610D03*
X023893Y010216D03*
X024483Y010610D03*
X025074Y011003D03*
X025861Y009429D03*
X025468Y008641D03*
X026255Y008444D03*
X027436Y007854D03*
X028420Y007854D03*
X029011Y007854D03*
X030389Y007460D03*
X031570Y008444D03*
X033145Y008051D03*
X033145Y007263D03*
X034523Y008051D03*
X035113Y007657D03*
X035901Y007657D03*
X035901Y008248D03*
X035310Y006476D03*
X033932Y005295D03*
X035704Y004704D03*
X033539Y003326D03*
X032357Y003326D03*
X031373Y003326D03*
X030783Y003720D03*
X029602Y003720D03*
X029602Y004311D03*
X028814Y004704D03*
X029011Y005098D03*
X028814Y005492D03*
X029011Y005885D03*
X027436Y005885D03*
X026058Y005098D03*
X025665Y004507D03*
X026255Y003326D03*
X028224Y003326D03*
X025074Y005885D03*
X024287Y005295D03*
X025271Y007066D03*
X026058Y007066D03*
X027043Y009822D03*
X028814Y010413D03*
X028814Y011003D03*
X029798Y010610D03*
X030192Y010019D03*
X031964Y010610D03*
X033342Y009429D03*
X033735Y009822D03*
X034720Y010413D03*
X035113Y010019D03*
X036294Y010413D03*
X034720Y011594D03*
X034720Y012185D03*
X034720Y013169D03*
X034917Y013563D03*
X034129Y014153D03*
X033342Y015137D03*
X033342Y015531D03*
X032751Y015531D03*
X032554Y014350D03*
X031964Y014153D03*
X032357Y013759D03*
X032161Y013169D03*
X030980Y013956D03*
X030783Y014350D03*
X030783Y015531D03*
X031176Y015531D03*
X030389Y015531D03*
X029602Y015531D03*
X028814Y015334D03*
X028814Y016122D03*
X029011Y016515D03*
X028420Y016712D03*
X029602Y016712D03*
X031176Y017106D03*
X031176Y017893D03*
X030586Y019074D03*
X029798Y020649D03*
X029011Y020846D03*
X029405Y022224D03*
X028814Y022618D03*
X030192Y022814D03*
X030586Y023996D03*
X029602Y023996D03*
X031964Y023405D03*
X031964Y023011D03*
X031964Y022224D03*
X030980Y021830D03*
X033735Y022224D03*
X034720Y021437D03*
X034917Y020649D03*
X034917Y020059D03*
X034129Y019271D03*
X034326Y018877D03*
X033145Y019271D03*
X034720Y017696D03*
X035113Y017106D03*
X035901Y017696D03*
X036098Y018484D03*
X035507Y018484D03*
X037476Y017696D03*
X038263Y017106D03*
X038460Y017696D03*
X039050Y017303D03*
X039247Y018681D03*
X036294Y016712D03*
X035901Y016318D03*
X035310Y016122D03*
X035901Y015334D03*
X036294Y015334D03*
X036491Y014153D03*
X039247Y014547D03*
X038460Y011003D03*
X033735Y017106D03*
X032554Y017303D03*
X027633Y019271D03*
X026649Y019862D03*
X026649Y021437D03*
X024287Y020059D03*
X023302Y020649D03*
X022515Y020846D03*
X022515Y019862D03*
X020940Y018877D03*
X020546Y019271D03*
X020743Y018287D03*
X020940Y017303D03*
X022712Y017696D03*
X022515Y018287D03*
X023499Y018484D03*
X024090Y017303D03*
X024483Y017303D03*
X025074Y017303D03*
X025861Y016515D03*
X026452Y016909D03*
X026846Y016515D03*
X027043Y017696D03*
X027043Y018287D03*
X025074Y016318D03*
X024483Y016318D03*
X024090Y016318D03*
X022515Y016318D03*
X022515Y015334D03*
X021728Y013759D03*
X022121Y013366D03*
X020743Y012185D03*
X020350Y012381D03*
X019956Y012381D03*
X019562Y012381D03*
X018972Y012185D03*
X018578Y012185D03*
X018972Y011791D03*
X018775Y011397D03*
X018578Y011003D03*
X018184Y011200D03*
X017791Y009822D03*
X017397Y009822D03*
X018184Y008838D03*
X016413Y008838D03*
X015428Y009626D03*
X013263Y011988D03*
X014247Y012578D03*
X013066Y013366D03*
X013657Y013956D03*
X015625Y014350D03*
X018578Y012578D03*
X019759Y012972D03*
X019562Y013366D03*
X019169Y013759D03*
X016019Y017500D03*
X015625Y017500D03*
X015625Y018090D03*
X014838Y018287D03*
X014247Y018287D03*
X014247Y019074D03*
X013657Y019074D03*
X013066Y020059D03*
X012672Y020059D03*
X012279Y020059D03*
X011098Y020059D03*
X012279Y020846D03*
X012672Y021043D03*
X013066Y021240D03*
X012869Y022421D03*
X013657Y022421D03*
X013854Y023011D03*
X013854Y023602D03*
X013066Y023208D03*
X011688Y022618D03*
X010310Y023996D03*
X009326Y023011D03*
X008932Y023011D03*
X008932Y022224D03*
X009326Y022224D03*
X008145Y022224D03*
X008145Y023208D03*
X006373Y023405D03*
X006373Y024389D03*
X006964Y021633D03*
X007357Y021240D03*
X005783Y021240D03*
X008145Y019665D03*
X008145Y019271D03*
X008539Y019271D03*
X008932Y018877D03*
X009129Y019665D03*
X009523Y019665D03*
X009523Y021043D03*
X009129Y021043D03*
X007357Y019074D03*
X007357Y018484D03*
X006570Y017303D03*
X005783Y017696D03*
X005586Y017303D03*
X005586Y016909D03*
X005586Y016515D03*
X005192Y016318D03*
X004995Y015925D03*
X004798Y015531D03*
X004995Y014940D03*
X004798Y014547D03*
X004602Y013956D03*
X004602Y013563D03*
X004995Y013563D03*
X005783Y014350D03*
X006176Y013956D03*
X006570Y013366D03*
X006964Y012775D03*
X006570Y012381D03*
X006570Y011791D03*
X007161Y012185D03*
X007948Y012578D03*
X008735Y011988D03*
X007948Y011200D03*
X007554Y011200D03*
X006964Y009822D03*
X008539Y008838D03*
X009917Y010216D03*
X010113Y010610D03*
X010901Y010610D03*
X011294Y010610D03*
X011294Y011003D03*
X011294Y011397D03*
X010901Y011791D03*
X011885Y011594D03*
X012279Y011397D03*
X011885Y011200D03*
X010901Y010216D03*
X010704Y009822D03*
X009523Y006870D03*
X009129Y006279D03*
X008735Y006082D03*
X009523Y006082D03*
X010310Y005885D03*
X011098Y005885D03*
X011098Y004901D03*
X011098Y004114D03*
X011098Y003523D03*
X011098Y003129D03*
X011688Y003129D03*
X011688Y003523D03*
X012869Y003326D03*
X013263Y003129D03*
X013657Y003326D03*
X014050Y003129D03*
X018184Y005295D03*
X012869Y006870D03*
X006176Y005295D03*
X004011Y007066D03*
X004798Y008248D03*
X004798Y009232D03*
X004798Y009822D03*
X004798Y010807D03*
X004602Y011791D03*
X004602Y012381D03*
X005389Y011988D03*
X005586Y012381D03*
X007357Y013366D03*
X009326Y015137D03*
X007751Y015334D03*
X005586Y015334D03*
X002830Y013169D03*
X001846Y011988D03*
X002436Y007460D03*
X010704Y013366D03*
X009326Y016909D03*
X010704Y017696D03*
X015428Y019665D03*
X015822Y019271D03*
X016216Y019271D03*
X017200Y019665D03*
X019169Y019271D03*
X019169Y018287D03*
X020153Y020649D03*
X020153Y022814D03*
X019562Y024980D03*
X018381Y025964D03*
X020350Y027342D03*
X022712Y025964D03*
X023696Y026751D03*
X023696Y027145D03*
X024877Y027145D03*
X024877Y027736D03*
X026649Y026948D03*
X026649Y026555D03*
X027043Y026161D03*
X027830Y025767D03*
X026649Y029311D03*
X027436Y030098D03*
X032161Y030098D03*
X022712Y028917D03*
X035310Y022421D03*
X035901Y022224D03*
X039247Y022224D03*
X027043Y014940D03*
X027830Y012972D03*
X027633Y012578D03*
X027239Y012578D03*
X026452Y012775D03*
X025665Y012775D03*
X024287Y012775D03*
X005389Y018090D03*
X005389Y018484D03*
X005389Y018877D03*
X005389Y019271D03*
X004602Y019468D03*
M02*
