G75*
G70*
%OFA0B0*%
%FSLAX24Y24*%
%IPPOS*%
%LPD*%
%AMOC8*
5,1,8,0,0,1.08239X$1,22.5*
%
%ADD10C,0.0070*%
%ADD11C,0.0050*%
%ADD12C,0.0060*%
%ADD13C,0.0118*%
%ADD14C,0.0100*%
%ADD15C,0.0080*%
%ADD16C,0.0148*%
D10*
X005232Y026384D02*
X005232Y026671D01*
X005232Y026528D02*
X005376Y026671D01*
X005448Y026671D01*
X005616Y026599D02*
X005688Y026671D01*
X005831Y026671D01*
X005903Y026599D01*
X005903Y026528D01*
X005616Y026528D01*
X005616Y026599D02*
X005616Y026456D01*
X005688Y026384D01*
X005831Y026384D01*
X006076Y026671D02*
X006220Y026384D01*
X006363Y026671D01*
X006537Y026743D02*
X006537Y026456D01*
X006824Y026743D01*
X006824Y026456D01*
X006752Y026384D01*
X006609Y026384D01*
X006537Y026456D01*
X006537Y026743D02*
X006609Y026815D01*
X006752Y026815D01*
X006824Y026743D01*
X006997Y026743D02*
X007069Y026815D01*
X007212Y026815D01*
X007284Y026743D01*
X006997Y026456D01*
X007069Y026384D01*
X007212Y026384D01*
X007284Y026456D01*
X007284Y026743D01*
X006997Y026743D02*
X006997Y026456D01*
X007141Y027172D02*
X007069Y027243D01*
X007069Y027530D01*
X006997Y027459D02*
X007141Y027459D01*
X007304Y027459D02*
X007376Y027459D01*
X007376Y027172D01*
X007447Y027172D02*
X007304Y027172D01*
X007611Y027459D02*
X007754Y027172D01*
X007898Y027459D01*
X008071Y027387D02*
X008143Y027459D01*
X008286Y027459D01*
X008358Y027387D01*
X008358Y027315D01*
X008071Y027315D01*
X008071Y027243D02*
X008071Y027387D01*
X008071Y027243D02*
X008143Y027172D01*
X008286Y027172D01*
X008992Y027243D02*
X009064Y027172D01*
X009279Y027172D01*
X009452Y027243D02*
X009524Y027172D01*
X009668Y027172D01*
X009739Y027243D01*
X009739Y027387D01*
X009668Y027459D01*
X009524Y027459D01*
X009452Y027387D01*
X009452Y027243D01*
X009279Y027459D02*
X009064Y027459D01*
X008992Y027387D01*
X008992Y027243D01*
X009059Y027959D02*
X009059Y028174D01*
X009130Y028246D01*
X009202Y028174D01*
X009202Y027959D01*
X009376Y027959D02*
X009663Y028246D01*
X009376Y028246D01*
X009376Y027959D02*
X009663Y027959D01*
X009836Y028031D02*
X009908Y028103D01*
X010123Y028103D01*
X010123Y028174D02*
X010123Y027959D01*
X009908Y027959D01*
X009836Y028031D01*
X009908Y028246D02*
X010051Y028246D01*
X010123Y028174D01*
X009979Y028746D02*
X009979Y028962D01*
X010123Y029105D01*
X010123Y029177D01*
X009979Y028962D02*
X009836Y029105D01*
X009836Y029177D01*
X009663Y029177D02*
X009376Y028890D01*
X009447Y028962D02*
X009663Y028746D01*
X009376Y028746D02*
X009376Y029177D01*
X009202Y029105D02*
X009130Y029177D01*
X008987Y029177D01*
X008915Y029105D01*
X008915Y028818D01*
X008987Y028746D01*
X009130Y028746D01*
X009202Y028818D01*
X008742Y028818D02*
X008742Y029105D01*
X008670Y029177D01*
X008527Y029177D01*
X008455Y029105D01*
X008455Y028818D01*
X008527Y028746D01*
X008670Y028746D01*
X008742Y028818D01*
X008281Y028746D02*
X008281Y029177D01*
X007995Y029177D02*
X007995Y028746D01*
X008138Y028890D01*
X008281Y028746D01*
X007821Y028746D02*
X007678Y028890D01*
X007749Y028890D02*
X007534Y028890D01*
X007534Y028746D02*
X007534Y029177D01*
X007749Y029177D01*
X007821Y029105D01*
X007821Y028962D01*
X007749Y028890D01*
X007361Y028746D02*
X007074Y028746D01*
X007074Y029177D01*
X007361Y029177D01*
X007217Y028962D02*
X007074Y028962D01*
X006900Y029033D02*
X006900Y029105D01*
X006829Y029177D01*
X006614Y029177D01*
X006614Y028746D01*
X006829Y028746D01*
X006900Y028818D01*
X006900Y028890D01*
X006829Y028962D01*
X006614Y028962D01*
X006440Y029033D02*
X006368Y028962D01*
X006153Y028962D01*
X005980Y028962D02*
X005693Y028962D01*
X005693Y029033D02*
X005836Y029177D01*
X005980Y029033D01*
X005980Y028746D01*
X006153Y028746D02*
X006368Y028746D01*
X006440Y028818D01*
X006440Y028890D01*
X006368Y028962D01*
X006440Y029033D02*
X006440Y029105D01*
X006368Y029177D01*
X006153Y029177D01*
X006153Y028746D01*
X005693Y028746D02*
X005693Y029033D01*
X005519Y029177D02*
X005376Y029177D01*
X005448Y029177D02*
X005448Y028818D01*
X005376Y028746D01*
X005304Y028746D01*
X005232Y028818D01*
X005304Y028389D02*
X005232Y028318D01*
X005304Y028389D02*
X005448Y028389D01*
X005519Y028318D01*
X005519Y028246D01*
X005232Y027959D01*
X005519Y027959D01*
X005693Y028031D02*
X005980Y028318D01*
X005980Y028031D01*
X005908Y027959D01*
X005765Y027959D01*
X005693Y028031D01*
X005693Y028318D01*
X005765Y028389D01*
X005908Y028389D01*
X005980Y028318D01*
X006153Y028318D02*
X006225Y028389D01*
X006368Y028389D01*
X006440Y028318D01*
X006153Y028031D01*
X006225Y027959D01*
X006368Y027959D01*
X006440Y028031D01*
X006440Y028318D01*
X006614Y028318D02*
X006614Y028246D01*
X006685Y028174D01*
X006829Y028174D01*
X006900Y028103D01*
X006900Y028031D01*
X006829Y027959D01*
X006685Y027959D01*
X006614Y028031D01*
X006614Y028103D01*
X006685Y028174D01*
X006829Y028174D02*
X006900Y028246D01*
X006900Y028318D01*
X006829Y028389D01*
X006685Y028389D01*
X006614Y028318D01*
X006153Y028318D02*
X006153Y028031D01*
X006148Y027459D02*
X006292Y027459D01*
X006363Y027387D01*
X006363Y027315D01*
X006076Y027315D01*
X006076Y027243D02*
X006076Y027387D01*
X006148Y027459D01*
X006076Y027243D02*
X006148Y027172D01*
X006292Y027172D01*
X006537Y027243D02*
X006609Y027315D01*
X006824Y027315D01*
X006824Y027387D02*
X006824Y027172D01*
X006609Y027172D01*
X006537Y027243D01*
X006609Y027459D02*
X006752Y027459D01*
X006824Y027387D01*
X007376Y027602D02*
X007376Y027674D01*
X007606Y027959D02*
X007534Y028031D01*
X007821Y028318D01*
X007821Y028031D01*
X007749Y027959D01*
X007606Y027959D01*
X007534Y028031D02*
X007534Y028318D01*
X007606Y028389D01*
X007749Y028389D01*
X007821Y028318D01*
X007995Y028174D02*
X008281Y028174D01*
X008210Y027959D02*
X008210Y028389D01*
X007995Y028174D01*
X007361Y028174D02*
X007074Y028174D01*
X006829Y028962D02*
X006900Y029033D01*
X005908Y027459D02*
X005836Y027459D01*
X005693Y027315D01*
X005693Y027172D02*
X005693Y027459D01*
X005519Y027459D02*
X005304Y027459D01*
X005232Y027387D01*
X005232Y027243D01*
X005304Y027172D01*
X005519Y027172D01*
X008915Y027959D02*
X008915Y028246D01*
X008987Y028246D01*
X009059Y028174D01*
X009913Y027459D02*
X009984Y027459D01*
X010056Y027387D01*
X010128Y027459D01*
X010200Y027387D01*
X010200Y027172D01*
X010056Y027172D02*
X010056Y027387D01*
X009913Y027459D02*
X009913Y027172D01*
X010373Y027172D02*
X010373Y027459D01*
X010445Y027459D01*
X010516Y027387D01*
X010588Y027459D01*
X010660Y027387D01*
X010660Y027172D01*
X010516Y027172D02*
X010516Y027387D01*
X010833Y027387D02*
X010905Y027459D01*
X011049Y027459D01*
X011120Y027387D01*
X011120Y027243D01*
X011049Y027172D01*
X010905Y027172D01*
X010833Y027243D01*
X010833Y027387D01*
X011294Y027459D02*
X011509Y027459D01*
X011581Y027387D01*
X011581Y027172D01*
X011754Y027172D02*
X011969Y027172D01*
X012041Y027243D01*
X011969Y027315D01*
X011826Y027315D01*
X011754Y027387D01*
X011826Y027459D01*
X012041Y027459D01*
X012675Y027459D02*
X012890Y027459D01*
X012962Y027387D01*
X012962Y027243D01*
X012890Y027172D01*
X012675Y027172D01*
X012675Y027602D01*
X013135Y027459D02*
X013135Y027243D01*
X013207Y027172D01*
X013422Y027172D01*
X013422Y027100D02*
X013350Y027028D01*
X013279Y027028D01*
X013422Y027100D02*
X013422Y027459D01*
X013596Y027387D02*
X013882Y027387D01*
X014056Y027459D02*
X014056Y027172D01*
X014056Y027459D02*
X014271Y027459D01*
X014343Y027387D01*
X014343Y027172D01*
X014516Y027243D02*
X014588Y027172D01*
X014803Y027172D01*
X014977Y027387D02*
X015264Y027387D01*
X015437Y027387D02*
X015509Y027459D01*
X015724Y027459D01*
X015652Y027315D02*
X015509Y027315D01*
X015437Y027387D01*
X015437Y027172D02*
X015652Y027172D01*
X015724Y027243D01*
X015652Y027315D01*
X015897Y027243D02*
X015969Y027315D01*
X016184Y027315D01*
X016184Y027387D02*
X016184Y027172D01*
X015969Y027172D01*
X015897Y027243D01*
X015969Y027459D02*
X016112Y027459D01*
X016184Y027387D01*
X014803Y027459D02*
X014588Y027459D01*
X014516Y027387D01*
X014516Y027243D01*
X014665Y028746D02*
X014593Y028818D01*
X014665Y028890D01*
X014880Y028890D01*
X014880Y028962D02*
X014880Y028746D01*
X014665Y028746D01*
X014665Y029033D02*
X014808Y029033D01*
X014880Y028962D01*
X015053Y028962D02*
X015125Y029033D01*
X015340Y029033D01*
X015340Y029177D02*
X015340Y028746D01*
X015125Y028746D01*
X015053Y028818D01*
X015053Y028962D01*
X015514Y028962D02*
X015514Y028818D01*
X015585Y028746D01*
X015729Y028746D01*
X015801Y028818D01*
X015801Y028962D01*
X015729Y029033D01*
X015585Y029033D01*
X015514Y028962D01*
X015974Y029033D02*
X015974Y028746D01*
X015974Y028890D02*
X016117Y029033D01*
X016189Y029033D01*
X016358Y029105D02*
X016429Y029177D01*
X016573Y029177D01*
X016645Y029105D01*
X016645Y029033D01*
X016573Y028962D01*
X016645Y028890D01*
X016645Y028818D01*
X016573Y028746D01*
X016429Y028746D01*
X016358Y028818D01*
X016501Y028962D02*
X016573Y028962D01*
X016818Y028962D02*
X017105Y028962D01*
X017278Y028962D02*
X017278Y028818D01*
X017350Y028746D01*
X017494Y028746D01*
X017565Y028818D01*
X017565Y028962D01*
X017494Y029033D01*
X017350Y029033D01*
X017278Y028962D01*
X017739Y028962D02*
X017810Y029033D01*
X018026Y029033D01*
X017954Y028890D02*
X017810Y028890D01*
X017739Y028962D01*
X017739Y028746D02*
X017954Y028746D01*
X018026Y028818D01*
X017954Y028890D01*
X018199Y028962D02*
X018199Y028818D01*
X018271Y028746D01*
X018486Y028746D01*
X018659Y028746D02*
X018803Y028746D01*
X018731Y028746D02*
X018731Y029033D01*
X018659Y029033D01*
X018731Y029177D02*
X018731Y029249D01*
X018966Y029177D02*
X019038Y029177D01*
X019038Y028746D01*
X018966Y028746D02*
X019110Y028746D01*
X019273Y028746D02*
X019417Y028746D01*
X019345Y028746D02*
X019345Y029177D01*
X019273Y029177D01*
X019580Y028962D02*
X019580Y028818D01*
X019652Y028746D01*
X019795Y028746D01*
X019867Y028818D01*
X019867Y028962D01*
X019795Y029033D01*
X019652Y029033D01*
X019580Y028962D01*
X020040Y028962D02*
X020112Y029033D01*
X020327Y029033D01*
X020256Y028890D02*
X020327Y028818D01*
X020256Y028746D01*
X020040Y028746D01*
X020112Y028890D02*
X020040Y028962D01*
X020112Y028890D02*
X020256Y028890D01*
X020501Y028962D02*
X020501Y028818D01*
X020573Y028746D01*
X020788Y028746D01*
X020961Y028818D02*
X021033Y028746D01*
X021176Y028746D01*
X021248Y028818D01*
X021248Y028962D01*
X021176Y029033D01*
X021033Y029033D01*
X020961Y028962D01*
X020961Y028818D01*
X020788Y029033D02*
X020573Y029033D01*
X020501Y028962D01*
X021422Y029033D02*
X021422Y028603D01*
X021422Y028746D02*
X021637Y028746D01*
X021708Y028818D01*
X021708Y028962D01*
X021637Y029033D01*
X021422Y029033D01*
X021882Y028962D02*
X021954Y029033D01*
X022097Y029033D01*
X022169Y028962D01*
X022169Y028890D01*
X021882Y028890D01*
X021882Y028818D02*
X021882Y028962D01*
X021882Y028818D02*
X021954Y028746D01*
X022097Y028746D01*
X018486Y029033D02*
X018271Y029033D01*
X018199Y028962D01*
X014425Y029033D02*
X014353Y029033D01*
X014209Y028890D01*
X014209Y029033D02*
X014209Y028746D01*
X014036Y028818D02*
X014036Y028962D01*
X013964Y029033D01*
X013749Y029033D01*
X013749Y029177D02*
X013749Y028746D01*
X013964Y028746D01*
X014036Y028818D01*
X013576Y028746D02*
X013360Y028746D01*
X013289Y028818D01*
X013360Y028890D01*
X013576Y028890D01*
X013576Y028962D02*
X013576Y028746D01*
X013576Y028962D02*
X013504Y029033D01*
X013360Y029033D01*
X013053Y029177D02*
X013053Y028746D01*
X012982Y028746D02*
X013125Y028746D01*
X012808Y028962D02*
X012521Y028962D01*
X012348Y029105D02*
X012061Y028818D01*
X012061Y028746D01*
X011888Y028746D02*
X011888Y028962D01*
X011816Y029033D01*
X011744Y028962D01*
X011744Y028746D01*
X011601Y028746D02*
X011601Y029033D01*
X011672Y029033D01*
X011744Y028962D01*
X011432Y029033D02*
X011361Y029033D01*
X011217Y028890D01*
X011217Y029033D02*
X011217Y028746D01*
X011044Y028746D02*
X010828Y028746D01*
X010757Y028818D01*
X010828Y028890D01*
X011044Y028890D01*
X011044Y028962D02*
X011044Y028746D01*
X011044Y028962D02*
X010972Y029033D01*
X010828Y029033D01*
X012061Y029177D02*
X012348Y029177D01*
X012348Y029105D01*
X012982Y029177D02*
X013053Y029177D01*
X011294Y027459D02*
X011294Y027172D01*
X036383Y010222D02*
X036383Y009863D01*
X036455Y009792D01*
X036598Y009792D01*
X036670Y009863D01*
X036670Y010222D01*
X036843Y010150D02*
X036843Y010079D01*
X036915Y010007D01*
X037058Y010007D01*
X037130Y009935D01*
X037130Y009863D01*
X037058Y009792D01*
X036915Y009792D01*
X036843Y009863D01*
X036843Y010150D02*
X036915Y010222D01*
X037058Y010222D01*
X037130Y010150D01*
X037304Y010222D02*
X037519Y010222D01*
X037591Y010150D01*
X037591Y010079D01*
X037519Y010007D01*
X037304Y010007D01*
X037519Y010007D02*
X037591Y009935D01*
X037591Y009863D01*
X037519Y009792D01*
X037304Y009792D01*
X037304Y010222D01*
D11*
X036083Y010208D02*
X036083Y010660D01*
X035709Y010660D01*
X035316Y010660D02*
X034942Y010660D01*
X034942Y010208D01*
X035316Y010149D02*
X035709Y010149D01*
X035099Y010975D02*
X033367Y010975D01*
X034834Y011192D02*
X034836Y011211D01*
X034842Y011229D01*
X034852Y011245D01*
X034865Y011259D01*
X034881Y011270D01*
X034898Y011277D01*
X034917Y011280D01*
X034936Y011279D01*
X034955Y011274D01*
X034971Y011265D01*
X034986Y011253D01*
X034997Y011237D01*
X035005Y011220D01*
X035009Y011202D01*
X035009Y011182D01*
X035005Y011164D01*
X034997Y011147D01*
X034986Y011131D01*
X034971Y011119D01*
X034955Y011110D01*
X034936Y011105D01*
X034917Y011104D01*
X034898Y011107D01*
X034881Y011114D01*
X034865Y011125D01*
X034852Y011139D01*
X034842Y011155D01*
X034836Y011173D01*
X034834Y011192D01*
X035099Y012944D02*
X033367Y012944D01*
X030650Y014263D02*
X030099Y014263D01*
X030214Y014932D02*
X030216Y014948D01*
X030222Y014963D01*
X030232Y014976D01*
X030245Y014986D01*
X030260Y014992D01*
X030276Y014994D01*
X030292Y014992D01*
X030307Y014986D01*
X030320Y014976D01*
X030330Y014963D01*
X030336Y014948D01*
X030338Y014932D01*
X030336Y014916D01*
X030330Y014901D01*
X030320Y014888D01*
X030307Y014878D01*
X030292Y014872D01*
X030276Y014870D01*
X030260Y014872D01*
X030245Y014878D01*
X030232Y014888D01*
X030222Y014901D01*
X030216Y014916D01*
X030214Y014932D01*
X030099Y015089D02*
X030650Y015089D01*
X031457Y015936D02*
X031457Y016881D01*
X032284Y016881D02*
X032284Y015936D01*
X031513Y016113D02*
X031515Y016129D01*
X031521Y016144D01*
X031531Y016157D01*
X031544Y016167D01*
X031559Y016173D01*
X031575Y016175D01*
X031591Y016173D01*
X031606Y016167D01*
X031619Y016157D01*
X031629Y016144D01*
X031635Y016129D01*
X031637Y016113D01*
X031635Y016097D01*
X031629Y016082D01*
X031619Y016069D01*
X031606Y016059D01*
X031591Y016053D01*
X031575Y016051D01*
X031559Y016053D01*
X031544Y016059D01*
X031531Y016069D01*
X031521Y016082D01*
X031515Y016097D01*
X031513Y016113D01*
X030355Y017235D02*
X030355Y017786D01*
X030135Y017609D02*
X030137Y017625D01*
X030143Y017640D01*
X030153Y017653D01*
X030166Y017663D01*
X030181Y017669D01*
X030197Y017671D01*
X030213Y017669D01*
X030228Y017663D01*
X030241Y017653D01*
X030251Y017640D01*
X030257Y017625D01*
X030259Y017609D01*
X030257Y017593D01*
X030251Y017578D01*
X030241Y017565D01*
X030228Y017555D01*
X030213Y017549D01*
X030197Y017547D01*
X030181Y017549D01*
X030166Y017555D01*
X030153Y017565D01*
X030143Y017578D01*
X030137Y017593D01*
X030135Y017609D01*
X029528Y017786D02*
X029528Y017235D01*
X027442Y018869D02*
X027442Y019066D01*
X027245Y019066D01*
X023485Y020188D02*
X023485Y020641D01*
X023111Y020700D02*
X022717Y020700D01*
X022343Y020641D02*
X022343Y020188D01*
X022717Y020188D01*
X023111Y020188D02*
X023485Y020188D01*
X022127Y019066D02*
X021930Y019066D01*
X021930Y018869D01*
X020749Y017196D02*
X020749Y014637D01*
X021930Y013751D02*
X021930Y013554D01*
X022127Y013554D01*
X021969Y011251D02*
X021969Y010700D01*
X022065Y010877D02*
X022067Y010893D01*
X022073Y010908D01*
X022083Y010921D01*
X022096Y010931D01*
X022111Y010937D01*
X022127Y010939D01*
X022143Y010937D01*
X022158Y010931D01*
X022171Y010921D01*
X022181Y010908D01*
X022187Y010893D01*
X022189Y010877D01*
X022187Y010861D01*
X022181Y010846D01*
X022171Y010833D01*
X022158Y010823D01*
X022143Y010817D01*
X022127Y010815D01*
X022111Y010817D01*
X022096Y010823D01*
X022083Y010833D01*
X022073Y010846D01*
X022067Y010861D01*
X022065Y010877D01*
X022796Y010700D02*
X022796Y011251D01*
X026475Y014243D02*
X026477Y014277D01*
X026483Y014310D01*
X026493Y014342D01*
X026507Y014372D01*
X026524Y014401D01*
X026545Y014427D01*
X026569Y014451D01*
X026595Y014472D01*
X026624Y014489D01*
X026654Y014503D01*
X026686Y014513D01*
X026719Y014519D01*
X026753Y014521D01*
X026787Y014519D01*
X026820Y014513D01*
X026852Y014503D01*
X026882Y014489D01*
X026911Y014472D01*
X026937Y014451D01*
X026961Y014427D01*
X026982Y014401D01*
X026999Y014372D01*
X027013Y014342D01*
X027023Y014310D01*
X027029Y014277D01*
X027031Y014243D01*
X027029Y014209D01*
X027023Y014176D01*
X027013Y014144D01*
X026999Y014114D01*
X026982Y014085D01*
X026961Y014059D01*
X026937Y014035D01*
X026911Y014014D01*
X026882Y013997D01*
X026852Y013983D01*
X026820Y013973D01*
X026787Y013967D01*
X026753Y013965D01*
X026719Y013967D01*
X026686Y013973D01*
X026654Y013983D01*
X026624Y013997D01*
X026595Y014014D01*
X026569Y014035D01*
X026545Y014059D01*
X026524Y014085D01*
X026507Y014114D01*
X026493Y014144D01*
X026483Y014176D01*
X026477Y014209D01*
X026475Y014243D01*
X027245Y013554D02*
X027442Y013554D01*
X027442Y013751D01*
X033347Y008219D02*
X033800Y008219D01*
X033800Y007845D01*
X033800Y007452D02*
X033800Y007078D01*
X033347Y007078D01*
X033288Y007452D02*
X033288Y007845D01*
X032914Y005621D02*
X032914Y005385D01*
X033760Y004341D02*
X033760Y002255D01*
X036083Y002255D01*
X036083Y004341D01*
X033760Y004341D01*
X031418Y005385D02*
X031418Y005621D01*
X029509Y006271D02*
X028327Y006271D01*
X028394Y006271D02*
X028396Y006288D01*
X028402Y006304D01*
X028412Y006318D01*
X028425Y006329D01*
X028440Y006337D01*
X028456Y006341D01*
X028474Y006341D01*
X028490Y006337D01*
X028505Y006329D01*
X028518Y006318D01*
X028528Y006304D01*
X028534Y006288D01*
X028536Y006271D01*
X028534Y006254D01*
X028528Y006238D01*
X028518Y006224D01*
X028505Y006213D01*
X028490Y006205D01*
X028474Y006201D01*
X028456Y006201D01*
X028440Y006205D01*
X028425Y006213D01*
X028412Y006224D01*
X028402Y006238D01*
X028396Y006254D01*
X028394Y006271D01*
X028327Y004696D02*
X029509Y004696D01*
X023406Y004794D02*
X021634Y004794D01*
X021634Y006763D01*
X023406Y006763D01*
X023406Y004794D01*
X023111Y004893D02*
X023113Y004913D01*
X023119Y004932D01*
X023129Y004949D01*
X023141Y004964D01*
X023157Y004976D01*
X023175Y004985D01*
X023194Y004990D01*
X023214Y004991D01*
X023234Y004988D01*
X023252Y004981D01*
X023269Y004970D01*
X023283Y004957D01*
X023295Y004941D01*
X023303Y004922D01*
X023306Y004903D01*
X023306Y004883D01*
X023303Y004864D01*
X023295Y004845D01*
X023283Y004829D01*
X023269Y004816D01*
X023252Y004805D01*
X023234Y004798D01*
X023214Y004795D01*
X023194Y004796D01*
X023175Y004801D01*
X023157Y004810D01*
X023141Y004822D01*
X023129Y004837D01*
X023119Y004854D01*
X023113Y004873D01*
X023111Y004893D01*
X020426Y006156D02*
X020426Y007928D01*
X018457Y007928D01*
X018457Y006156D01*
X020426Y006156D01*
X020221Y007723D02*
X020223Y007744D01*
X020229Y007764D01*
X020239Y007782D01*
X020252Y007798D01*
X020268Y007811D01*
X020286Y007821D01*
X020306Y007827D01*
X020327Y007829D01*
X020348Y007827D01*
X020368Y007821D01*
X020386Y007811D01*
X020402Y007798D01*
X020415Y007782D01*
X020425Y007764D01*
X020431Y007744D01*
X020433Y007723D01*
X020431Y007702D01*
X020425Y007682D01*
X020415Y007664D01*
X020402Y007648D01*
X020386Y007635D01*
X020368Y007625D01*
X020348Y007619D01*
X020327Y007617D01*
X020306Y007619D01*
X020286Y007625D01*
X020268Y007635D01*
X020252Y007648D01*
X020239Y007664D01*
X020229Y007682D01*
X020223Y007702D01*
X020221Y007723D01*
X015581Y007698D02*
X015581Y009174D01*
X013318Y009174D01*
X013318Y007698D01*
X015581Y007698D01*
X015351Y005101D02*
X015351Y003881D01*
X014406Y003881D02*
X014406Y005101D01*
X008544Y005778D02*
X007363Y005778D01*
X007363Y006960D01*
X008544Y006960D01*
X008544Y005778D01*
X007462Y005975D02*
X007464Y005995D01*
X007470Y006014D01*
X007480Y006031D01*
X007492Y006046D01*
X007508Y006058D01*
X007526Y006067D01*
X007545Y006072D01*
X007565Y006073D01*
X007585Y006070D01*
X007603Y006063D01*
X007620Y006052D01*
X007634Y006039D01*
X007646Y006023D01*
X007654Y006004D01*
X007657Y005985D01*
X007657Y005965D01*
X007654Y005946D01*
X007646Y005927D01*
X007634Y005911D01*
X007620Y005898D01*
X007603Y005887D01*
X007585Y005880D01*
X007565Y005877D01*
X007545Y005878D01*
X007526Y005883D01*
X007508Y005892D01*
X007492Y005904D01*
X007480Y005919D01*
X007470Y005936D01*
X007464Y005955D01*
X007462Y005975D01*
X007717Y004893D02*
X008268Y004893D01*
X008268Y002530D02*
X007717Y002530D01*
X013918Y010877D02*
X014016Y010877D01*
X014351Y011251D02*
X014351Y011467D01*
X014016Y011861D02*
X013918Y011861D01*
X013564Y011467D02*
X013564Y011251D01*
X014056Y012767D02*
X014253Y012767D01*
X014253Y012963D01*
X015827Y014637D02*
X015827Y017196D01*
X014253Y018082D02*
X014253Y018278D01*
X014056Y018278D01*
X013286Y017589D02*
X013288Y017623D01*
X013294Y017656D01*
X013304Y017688D01*
X013318Y017718D01*
X013335Y017747D01*
X013356Y017773D01*
X013380Y017797D01*
X013406Y017818D01*
X013435Y017835D01*
X013465Y017849D01*
X013497Y017859D01*
X013530Y017865D01*
X013564Y017867D01*
X013598Y017865D01*
X013631Y017859D01*
X013663Y017849D01*
X013693Y017835D01*
X013722Y017818D01*
X013748Y017797D01*
X013772Y017773D01*
X013793Y017747D01*
X013810Y017718D01*
X013824Y017688D01*
X013834Y017656D01*
X013840Y017623D01*
X013842Y017589D01*
X013840Y017555D01*
X013834Y017522D01*
X013824Y017490D01*
X013810Y017460D01*
X013793Y017431D01*
X013772Y017405D01*
X013748Y017381D01*
X013722Y017360D01*
X013693Y017343D01*
X013663Y017329D01*
X013631Y017319D01*
X013598Y017313D01*
X013564Y017311D01*
X013530Y017313D01*
X013497Y017319D01*
X013465Y017329D01*
X013435Y017343D01*
X013406Y017360D01*
X013380Y017381D01*
X013356Y017405D01*
X013335Y017431D01*
X013318Y017460D01*
X013304Y017490D01*
X013294Y017522D01*
X013288Y017555D01*
X013286Y017589D01*
X015885Y014932D02*
X015887Y014955D01*
X015893Y014978D01*
X015903Y015000D01*
X015916Y015019D01*
X015932Y015036D01*
X015951Y015050D01*
X015972Y015061D01*
X015995Y015068D01*
X016018Y015071D01*
X016042Y015070D01*
X016065Y015065D01*
X016087Y015056D01*
X016107Y015044D01*
X016124Y015028D01*
X016139Y015010D01*
X016151Y014989D01*
X016159Y014967D01*
X016162Y014944D01*
X016162Y014920D01*
X016159Y014897D01*
X016151Y014875D01*
X016139Y014854D01*
X016124Y014836D01*
X016107Y014820D01*
X016087Y014808D01*
X016065Y014799D01*
X016042Y014794D01*
X016018Y014793D01*
X015995Y014796D01*
X015972Y014803D01*
X015951Y014814D01*
X015932Y014828D01*
X015916Y014845D01*
X015903Y014864D01*
X015893Y014886D01*
X015887Y014909D01*
X015885Y014932D01*
X008938Y012767D02*
X008741Y012767D01*
X008741Y012963D01*
X008741Y018082D02*
X008741Y018278D01*
X008938Y018278D01*
X008426Y023200D02*
X006694Y023200D01*
X006694Y024381D01*
X008426Y024381D01*
X008426Y023200D01*
X006802Y024184D02*
X006804Y024203D01*
X006810Y024221D01*
X006820Y024237D01*
X006833Y024251D01*
X006849Y024262D01*
X006866Y024269D01*
X006885Y024272D01*
X006904Y024271D01*
X006923Y024266D01*
X006939Y024257D01*
X006954Y024245D01*
X006965Y024229D01*
X006973Y024212D01*
X006977Y024194D01*
X006977Y024174D01*
X006973Y024156D01*
X006965Y024139D01*
X006954Y024123D01*
X006939Y024111D01*
X006923Y024102D01*
X006904Y024097D01*
X006885Y024096D01*
X006866Y024099D01*
X006849Y024106D01*
X006833Y024117D01*
X006820Y024131D01*
X006810Y024147D01*
X006804Y024165D01*
X006802Y024184D01*
X005749Y024223D02*
X003190Y024223D01*
X003190Y023239D02*
X005749Y023239D01*
X022225Y026645D02*
X023997Y026645D01*
X023997Y028613D01*
X022225Y028613D01*
X022225Y026645D01*
X022324Y028515D02*
X022326Y028536D01*
X022332Y028556D01*
X022342Y028574D01*
X022355Y028590D01*
X022371Y028603D01*
X022389Y028613D01*
X022409Y028619D01*
X022430Y028621D01*
X022451Y028619D01*
X022471Y028613D01*
X022489Y028603D01*
X022505Y028590D01*
X022518Y028574D01*
X022528Y028556D01*
X022534Y028536D01*
X022536Y028515D01*
X022534Y028494D01*
X022528Y028474D01*
X022518Y028456D01*
X022505Y028440D01*
X022489Y028427D01*
X022471Y028417D01*
X022451Y028411D01*
X022430Y028409D01*
X022409Y028411D01*
X022389Y028417D01*
X022371Y028427D01*
X022355Y028440D01*
X022342Y028456D01*
X022332Y028474D01*
X022326Y028494D01*
X022324Y028515D01*
X029134Y028908D02*
X029371Y028908D01*
X029371Y028672D01*
X029607Y028908D01*
X029883Y028908D01*
X029607Y028908D02*
X029371Y029145D01*
X029371Y028908D01*
X029627Y029145D02*
X029627Y028672D01*
X029646Y028357D02*
X029410Y028121D01*
X029134Y028121D01*
X029410Y028121D02*
X029646Y027885D01*
X029646Y028121D01*
X029883Y028121D01*
X029646Y028121D02*
X029646Y028357D01*
X029390Y028357D02*
X029390Y027885D01*
X029902Y027727D02*
X031083Y027727D01*
X031083Y026546D01*
X029902Y026546D01*
X029902Y027727D01*
X030001Y027530D02*
X030003Y027550D01*
X030009Y027569D01*
X030019Y027586D01*
X030031Y027601D01*
X030047Y027613D01*
X030065Y027622D01*
X030084Y027627D01*
X030104Y027628D01*
X030124Y027625D01*
X030142Y027618D01*
X030159Y027607D01*
X030173Y027594D01*
X030185Y027578D01*
X030193Y027559D01*
X030196Y027540D01*
X030196Y027520D01*
X030193Y027501D01*
X030185Y027482D01*
X030173Y027466D01*
X030159Y027453D01*
X030142Y027442D01*
X030124Y027435D01*
X030104Y027432D01*
X030084Y027433D01*
X030065Y027438D01*
X030047Y027447D01*
X030031Y027459D01*
X030019Y027474D01*
X030009Y027491D01*
X030003Y027510D01*
X030001Y027530D01*
X030768Y026389D02*
X030768Y025916D01*
X030788Y026152D02*
X030512Y026152D01*
X030788Y026152D02*
X031024Y025916D01*
X031024Y026152D01*
X031260Y026152D01*
X031024Y026152D02*
X031024Y026389D01*
X030788Y026152D01*
X031694Y025641D02*
X031694Y026861D01*
X031694Y027609D02*
X031694Y028830D01*
X032638Y028830D02*
X032638Y027609D01*
X032638Y026861D02*
X032638Y025641D01*
X036516Y022806D02*
X036516Y022353D01*
X036890Y022353D01*
X037284Y022353D02*
X037658Y022353D01*
X037658Y022806D01*
X037284Y022865D02*
X036890Y022865D01*
X035296Y021408D02*
X033564Y021408D01*
X035031Y019656D02*
X035033Y019675D01*
X035039Y019693D01*
X035049Y019709D01*
X035062Y019723D01*
X035078Y019734D01*
X035095Y019741D01*
X035114Y019744D01*
X035133Y019743D01*
X035152Y019738D01*
X035168Y019729D01*
X035183Y019717D01*
X035194Y019701D01*
X035202Y019684D01*
X035206Y019666D01*
X035206Y019646D01*
X035202Y019628D01*
X035194Y019611D01*
X035183Y019595D01*
X035168Y019583D01*
X035152Y019574D01*
X035133Y019569D01*
X035114Y019568D01*
X035095Y019571D01*
X035078Y019578D01*
X035062Y019589D01*
X035049Y019603D01*
X035039Y019619D01*
X035033Y019637D01*
X035031Y019656D01*
X035296Y019440D02*
X033564Y019440D01*
X036516Y018337D02*
X036516Y017885D01*
X036890Y017826D02*
X037284Y017826D01*
X037658Y017885D02*
X037658Y018337D01*
X037284Y018337D01*
X036890Y018337D02*
X036516Y018337D01*
X037717Y017314D02*
X038918Y017314D01*
X038918Y016113D01*
X037717Y016113D01*
X037717Y017314D01*
X037878Y017097D02*
X037880Y017119D01*
X037886Y017140D01*
X037896Y017159D01*
X037910Y017176D01*
X037926Y017191D01*
X037945Y017202D01*
X037966Y017209D01*
X037988Y017212D01*
X038009Y017211D01*
X038031Y017206D01*
X038050Y017197D01*
X038068Y017184D01*
X038083Y017168D01*
X038095Y017150D01*
X038103Y017129D01*
X038107Y017108D01*
X038107Y017086D01*
X038103Y017065D01*
X038095Y017044D01*
X038083Y017026D01*
X038068Y017010D01*
X038051Y016997D01*
X038031Y016988D01*
X038009Y016983D01*
X037988Y016982D01*
X037966Y016985D01*
X037945Y016992D01*
X037926Y017003D01*
X037910Y017018D01*
X037896Y017035D01*
X037886Y017054D01*
X037880Y017075D01*
X037878Y017097D01*
X037658Y014912D02*
X037658Y014460D01*
X037284Y014460D01*
X036890Y014460D02*
X036516Y014460D01*
X036516Y014912D01*
X036890Y014971D02*
X037284Y014971D01*
D12*
X006242Y003545D02*
X006015Y003545D01*
X006015Y003885D01*
X006383Y003828D02*
X006440Y003885D01*
X006553Y003885D01*
X006610Y003828D01*
X006610Y003771D01*
X006383Y003545D01*
X006610Y003545D01*
X005817Y005113D02*
X005703Y005113D01*
X005647Y005170D01*
X005505Y005113D02*
X005278Y005113D01*
X005392Y005113D02*
X005392Y005453D01*
X005278Y005340D01*
X005137Y005283D02*
X005080Y005227D01*
X004910Y005227D01*
X005023Y005227D02*
X005137Y005113D01*
X005137Y005283D02*
X005137Y005397D01*
X005080Y005453D01*
X004910Y005453D01*
X004910Y005113D01*
X005647Y005397D02*
X005703Y005453D01*
X005817Y005453D01*
X005873Y005397D01*
X005873Y005340D01*
X005817Y005283D01*
X005873Y005227D01*
X005873Y005170D01*
X005817Y005113D01*
X005817Y005283D02*
X005760Y005283D01*
X005620Y005704D02*
X005620Y006044D01*
X005450Y005874D01*
X005677Y005874D01*
X005308Y005704D02*
X005081Y005704D01*
X005195Y005704D02*
X005195Y006044D01*
X005081Y005931D01*
X004940Y005987D02*
X004940Y005874D01*
X004883Y005817D01*
X004713Y005817D01*
X004713Y005704D02*
X004713Y006044D01*
X004883Y006044D01*
X004940Y005987D01*
X004827Y005817D02*
X004940Y005704D01*
X005055Y006294D02*
X005055Y006635D01*
X004885Y006464D01*
X005111Y006464D01*
X005253Y006351D02*
X005310Y006294D01*
X005423Y006294D01*
X005480Y006351D01*
X005480Y006408D01*
X005423Y006464D01*
X005366Y006464D01*
X005423Y006464D02*
X005480Y006521D01*
X005480Y006578D01*
X005423Y006635D01*
X005310Y006635D01*
X005253Y006578D01*
X005226Y006885D02*
X005113Y006885D01*
X005056Y006941D01*
X005056Y007055D02*
X005169Y007112D01*
X005226Y007112D01*
X005283Y007055D01*
X005283Y006941D01*
X005226Y006885D01*
X005056Y007055D02*
X005056Y007225D01*
X005283Y007225D01*
X005226Y007475D02*
X005113Y007475D01*
X005056Y007532D01*
X005056Y007645D02*
X005169Y007702D01*
X005226Y007702D01*
X005283Y007645D01*
X005283Y007532D01*
X005226Y007475D01*
X005056Y007645D02*
X005056Y007816D01*
X005283Y007816D01*
X005221Y008072D02*
X005504Y008072D01*
X005561Y008129D01*
X005561Y008242D01*
X005504Y008299D01*
X005221Y008299D01*
X005278Y008441D02*
X005221Y008497D01*
X005221Y008611D01*
X005278Y008667D01*
X005391Y008611D02*
X005391Y008497D01*
X005334Y008441D01*
X005278Y008441D01*
X005164Y008554D02*
X005618Y008554D01*
X005561Y008497D02*
X005561Y008611D01*
X005504Y008667D01*
X005448Y008667D01*
X005391Y008611D01*
X005504Y008441D02*
X005561Y008497D01*
X005561Y008809D02*
X005504Y008809D01*
X005278Y009036D01*
X005221Y009036D01*
X005221Y008809D01*
X005278Y009177D02*
X005221Y009234D01*
X005221Y009347D01*
X005278Y009404D01*
X005504Y009177D01*
X005561Y009234D01*
X005561Y009347D01*
X005504Y009404D01*
X005278Y009404D01*
X005278Y009177D02*
X005504Y009177D01*
X006999Y008858D02*
X007056Y008915D01*
X007112Y008915D01*
X007169Y008858D01*
X007169Y008745D01*
X007112Y008688D01*
X007056Y008688D01*
X006999Y008745D01*
X006999Y008858D01*
X007169Y008858D02*
X007226Y008915D01*
X007282Y008915D01*
X007339Y008858D01*
X007339Y008745D01*
X007282Y008688D01*
X007226Y008688D01*
X007169Y008745D01*
X007056Y008547D02*
X006999Y008490D01*
X006999Y008377D01*
X007056Y008320D01*
X007282Y008320D01*
X007339Y008377D01*
X007339Y008490D01*
X007282Y008547D01*
X007977Y008612D02*
X007977Y008839D01*
X008034Y008839D01*
X008260Y008612D01*
X008317Y008612D01*
X008317Y008471D02*
X008317Y008244D01*
X008317Y008357D02*
X007977Y008357D01*
X008090Y008244D01*
X008034Y008102D02*
X008147Y008102D01*
X008204Y008045D01*
X008204Y007875D01*
X008317Y007875D02*
X007977Y007875D01*
X007977Y008045D01*
X008034Y008102D01*
X008204Y007989D02*
X008317Y008102D01*
X009609Y008153D02*
X009609Y007926D01*
X009666Y007869D01*
X009779Y007869D01*
X009836Y007926D01*
X009977Y007926D02*
X009977Y007869D01*
X009977Y007926D02*
X010204Y008153D01*
X010204Y008209D01*
X009977Y008209D01*
X009836Y008153D02*
X009779Y008209D01*
X009666Y008209D01*
X009609Y008153D01*
X009531Y009253D02*
X009588Y009310D01*
X009531Y009253D02*
X009418Y009253D01*
X009361Y009310D01*
X009361Y009537D01*
X009418Y009594D01*
X009531Y009594D01*
X009588Y009537D01*
X009730Y009537D02*
X009786Y009594D01*
X009900Y009594D01*
X009956Y009537D01*
X009956Y009480D01*
X009900Y009423D01*
X009956Y009367D01*
X009956Y009310D01*
X009900Y009253D01*
X009786Y009253D01*
X009730Y009310D01*
X009843Y009423D02*
X009900Y009423D01*
X010098Y009310D02*
X010155Y009253D01*
X010268Y009253D01*
X010325Y009310D01*
X010325Y009367D01*
X010268Y009423D01*
X010211Y009423D01*
X010268Y009423D02*
X010325Y009480D01*
X010325Y009537D01*
X010268Y009594D01*
X010155Y009594D01*
X010098Y009537D01*
X009144Y009704D02*
X009144Y009760D01*
X009087Y009817D01*
X008917Y009817D01*
X008917Y009704D01*
X008974Y009647D01*
X009087Y009647D01*
X009144Y009704D01*
X008917Y009817D02*
X009030Y009931D01*
X009144Y009987D01*
X008662Y009987D02*
X008662Y009647D01*
X008549Y009647D02*
X008775Y009647D01*
X008549Y009874D02*
X008662Y009987D01*
X008407Y009931D02*
X008407Y009817D01*
X008350Y009760D01*
X008180Y009760D01*
X008180Y009647D02*
X008180Y009987D01*
X008350Y009987D01*
X008407Y009931D01*
X008294Y009760D02*
X008407Y009647D01*
X008103Y010434D02*
X007989Y010434D01*
X007933Y010491D01*
X007933Y010605D02*
X008046Y010661D01*
X008103Y010661D01*
X008159Y010605D01*
X008159Y010491D01*
X008103Y010434D01*
X007933Y010605D02*
X007933Y010775D01*
X008159Y010775D01*
X007678Y010775D02*
X007678Y010434D01*
X007791Y010434D02*
X007564Y010434D01*
X007423Y010434D02*
X007309Y010548D01*
X007366Y010548D02*
X007196Y010548D01*
X007196Y010434D02*
X007196Y010775D01*
X007366Y010775D01*
X007423Y010718D01*
X007423Y010605D01*
X007366Y010548D01*
X007564Y010661D02*
X007678Y010775D01*
X006865Y010578D02*
X006865Y010238D01*
X006978Y010238D02*
X006751Y010238D01*
X006553Y010238D02*
X006553Y010578D01*
X006383Y010408D01*
X006610Y010408D01*
X006751Y010464D02*
X006865Y010578D01*
X006242Y010521D02*
X006242Y010408D01*
X006185Y010351D01*
X006015Y010351D01*
X006128Y010351D02*
X006242Y010238D01*
X006015Y010238D02*
X006015Y010578D01*
X006185Y010578D01*
X006242Y010521D01*
X007526Y011806D02*
X007469Y011863D01*
X007469Y012090D01*
X007526Y012146D01*
X007639Y012146D01*
X007696Y012090D01*
X007837Y012146D02*
X007837Y011976D01*
X007951Y012033D01*
X008007Y012033D01*
X008064Y011976D01*
X008064Y011863D01*
X008007Y011806D01*
X007894Y011806D01*
X007837Y011863D01*
X007696Y011863D02*
X007639Y011806D01*
X007526Y011806D01*
X007837Y012146D02*
X008064Y012146D01*
X008206Y012090D02*
X008206Y012033D01*
X008262Y011976D01*
X008432Y011976D01*
X008432Y011863D02*
X008432Y012090D01*
X008376Y012146D01*
X008262Y012146D01*
X008206Y012090D01*
X008206Y011863D02*
X008262Y011806D01*
X008376Y011806D01*
X008432Y011863D01*
X012511Y010578D02*
X012511Y010238D01*
X012511Y010351D02*
X012681Y010351D01*
X012738Y010408D01*
X012738Y010521D01*
X012681Y010578D01*
X012511Y010578D01*
X012624Y010351D02*
X012738Y010238D01*
X012879Y010294D02*
X012936Y010238D01*
X013049Y010238D01*
X013106Y010294D01*
X013106Y010351D01*
X013049Y010408D01*
X012879Y010408D01*
X012879Y010294D01*
X012879Y010408D02*
X012993Y010521D01*
X013106Y010578D01*
X015343Y010879D02*
X015400Y010822D01*
X015513Y010822D01*
X015570Y010879D01*
X015711Y010992D02*
X015938Y010992D01*
X016080Y011049D02*
X016080Y011105D01*
X016136Y011162D01*
X016250Y011162D01*
X016306Y011105D01*
X016306Y011049D01*
X016250Y010992D01*
X016136Y010992D01*
X016080Y011049D01*
X016136Y010992D02*
X016080Y010935D01*
X016080Y010879D01*
X016136Y010822D01*
X016250Y010822D01*
X016306Y010879D01*
X016306Y010935D01*
X016250Y010992D01*
X015881Y010822D02*
X015881Y011162D01*
X015711Y010992D01*
X015570Y011105D02*
X015513Y011162D01*
X015400Y011162D01*
X015343Y011105D01*
X015343Y010879D01*
X015520Y010578D02*
X015464Y010521D01*
X015464Y010294D01*
X015520Y010238D01*
X015634Y010238D01*
X015691Y010294D01*
X015832Y010238D02*
X016059Y010464D01*
X016059Y010521D01*
X016002Y010578D01*
X015889Y010578D01*
X015832Y010521D01*
X015691Y010521D02*
X015634Y010578D01*
X015520Y010578D01*
X015832Y010238D02*
X016059Y010238D01*
X016200Y010294D02*
X016257Y010238D01*
X016370Y010238D01*
X016427Y010294D01*
X016427Y010521D01*
X016370Y010578D01*
X016257Y010578D01*
X016200Y010521D01*
X016200Y010464D01*
X016257Y010408D01*
X016427Y010408D01*
X016197Y011889D02*
X015857Y011889D01*
X015857Y012059D01*
X015914Y012115D01*
X016027Y012115D01*
X016084Y012059D01*
X016084Y011889D01*
X016084Y012002D02*
X016197Y012115D01*
X016027Y012257D02*
X015857Y012427D01*
X016197Y012427D01*
X016027Y012484D02*
X016027Y012257D01*
X016141Y012625D02*
X016197Y012625D01*
X016141Y012625D02*
X015914Y012852D01*
X015857Y012852D01*
X015857Y012625D01*
X015410Y013126D02*
X015410Y013240D01*
X015353Y013296D01*
X015410Y013126D02*
X015353Y013070D01*
X015126Y013070D01*
X015070Y013126D01*
X015070Y013240D01*
X015126Y013296D01*
X015240Y013438D02*
X015240Y013665D01*
X015183Y013806D02*
X015240Y013863D01*
X015240Y014033D01*
X015353Y014033D02*
X015126Y014033D01*
X015070Y013976D01*
X015070Y013863D01*
X015126Y013806D01*
X015183Y013806D01*
X015353Y013806D02*
X015410Y013863D01*
X015410Y013976D01*
X015353Y014033D01*
X015410Y013608D02*
X015070Y013608D01*
X015240Y013438D01*
X018607Y013335D02*
X018607Y013222D01*
X018663Y013165D01*
X018663Y013023D02*
X018607Y012967D01*
X018607Y012853D01*
X018663Y012797D01*
X018890Y012797D01*
X018947Y012853D01*
X018947Y012967D01*
X018890Y013023D01*
X018947Y013165D02*
X018720Y013392D01*
X018663Y013392D01*
X018607Y013335D01*
X018663Y013533D02*
X018607Y013590D01*
X018607Y013703D01*
X018663Y013760D01*
X018720Y013760D01*
X018777Y013703D01*
X018834Y013760D01*
X018890Y013760D01*
X018947Y013703D01*
X018947Y013590D01*
X018890Y013533D01*
X018947Y013392D02*
X018947Y013165D01*
X018777Y013647D02*
X018777Y013703D01*
X019851Y011956D02*
X019794Y011899D01*
X019794Y011672D01*
X019851Y011616D01*
X019965Y011616D01*
X020021Y011672D01*
X020021Y011899D01*
X019965Y011956D01*
X019851Y011956D01*
X020163Y011899D02*
X020163Y011842D01*
X020219Y011786D01*
X020333Y011786D01*
X020390Y011729D01*
X020390Y011672D01*
X020333Y011616D01*
X020219Y011616D01*
X020163Y011672D01*
X020163Y011899D02*
X020219Y011956D01*
X020333Y011956D01*
X020390Y011899D01*
X020531Y011899D02*
X020531Y011672D01*
X020588Y011616D01*
X020701Y011616D01*
X020758Y011672D01*
X020899Y011616D02*
X021126Y011842D01*
X021126Y011899D01*
X021069Y011956D01*
X020956Y011956D01*
X020899Y011899D01*
X020758Y011899D02*
X020701Y011956D01*
X020588Y011956D01*
X020531Y011899D01*
X020899Y011616D02*
X021126Y011616D01*
X021369Y011869D02*
X021369Y012096D01*
X021426Y012153D01*
X021539Y012153D01*
X021596Y012096D01*
X021738Y012153D02*
X021738Y011982D01*
X021851Y012039D01*
X021908Y012039D01*
X021964Y011982D01*
X021964Y011869D01*
X021908Y011812D01*
X021794Y011812D01*
X021738Y011869D01*
X021596Y011869D02*
X021539Y011812D01*
X021426Y011812D01*
X021369Y011869D01*
X021738Y012153D02*
X021964Y012153D01*
X022106Y012153D02*
X022333Y012153D01*
X022333Y012096D01*
X022106Y011869D01*
X022106Y011812D01*
X022944Y011557D02*
X023284Y011557D01*
X023284Y011444D02*
X023284Y011671D01*
X023057Y011444D02*
X022944Y011557D01*
X022944Y011303D02*
X022944Y011076D01*
X023284Y011076D01*
X023227Y010934D02*
X022944Y010934D01*
X023114Y011076D02*
X023114Y011189D01*
X023227Y010934D02*
X023284Y010878D01*
X023284Y010764D01*
X023227Y010707D01*
X022944Y010707D01*
X023000Y010566D02*
X022944Y010509D01*
X022944Y010339D01*
X023284Y010339D01*
X023284Y010509D01*
X023227Y010566D01*
X023171Y010566D01*
X023114Y010509D01*
X023114Y010339D01*
X023114Y010509D02*
X023057Y010566D01*
X023000Y010566D01*
X024489Y011804D02*
X024545Y011747D01*
X024659Y011747D01*
X024716Y011804D01*
X024857Y011747D02*
X025084Y011974D01*
X025084Y012031D01*
X025027Y012087D01*
X024914Y012087D01*
X024857Y012031D01*
X024716Y012031D02*
X024659Y012087D01*
X024545Y012087D01*
X024489Y012031D01*
X024489Y011804D01*
X024857Y011747D02*
X025084Y011747D01*
X025225Y011747D02*
X025452Y011974D01*
X025452Y012031D01*
X025395Y012087D01*
X025282Y012087D01*
X025225Y012031D01*
X025225Y011747D02*
X025452Y011747D01*
X026678Y011786D02*
X026734Y011842D01*
X026848Y011842D01*
X026904Y011786D01*
X026904Y011616D01*
X026904Y011729D02*
X027018Y011842D01*
X026961Y011984D02*
X027018Y012041D01*
X027018Y012154D01*
X026961Y012211D01*
X026848Y012211D01*
X026791Y012154D01*
X026791Y012097D01*
X026848Y011984D01*
X026678Y011984D01*
X026678Y012211D01*
X026734Y012352D02*
X026791Y012352D01*
X026848Y012409D01*
X026848Y012522D01*
X026904Y012579D01*
X026961Y012579D01*
X027018Y012522D01*
X027018Y012409D01*
X026961Y012352D01*
X026904Y012352D01*
X026848Y012409D01*
X026848Y012522D02*
X026791Y012579D01*
X026734Y012579D01*
X026678Y012522D01*
X026678Y012409D01*
X026734Y012352D01*
X026678Y011786D02*
X026678Y011616D01*
X027018Y011616D01*
X028138Y011863D02*
X028195Y011806D01*
X028308Y011806D01*
X028365Y011863D01*
X028507Y011806D02*
X028733Y012033D01*
X028733Y012090D01*
X028677Y012146D01*
X028563Y012146D01*
X028507Y012090D01*
X028365Y012090D02*
X028308Y012146D01*
X028195Y012146D01*
X028138Y012090D01*
X028138Y011863D01*
X028507Y011806D02*
X028733Y011806D01*
X028875Y011806D02*
X028875Y011863D01*
X029102Y012090D01*
X029102Y012146D01*
X028875Y012146D01*
X029123Y011556D02*
X029293Y011556D01*
X029349Y011499D01*
X029349Y011386D01*
X029293Y011329D01*
X029123Y011329D01*
X029236Y011329D02*
X029349Y011216D01*
X029491Y011272D02*
X029548Y011216D01*
X029661Y011216D01*
X029718Y011272D01*
X029718Y011386D01*
X029661Y011442D01*
X029604Y011442D01*
X029491Y011386D01*
X029491Y011556D01*
X029718Y011556D01*
X029859Y011386D02*
X030086Y011386D01*
X030029Y011216D02*
X030029Y011556D01*
X029859Y011386D01*
X030424Y011335D02*
X030594Y011335D01*
X030651Y011392D01*
X030651Y011505D01*
X030594Y011562D01*
X030424Y011562D01*
X030424Y011222D01*
X030538Y011335D02*
X030651Y011222D01*
X030697Y011162D02*
X030867Y011162D01*
X030924Y011105D01*
X030924Y010992D01*
X030867Y010935D01*
X030697Y010935D01*
X030697Y010822D02*
X030697Y011162D01*
X030793Y011279D02*
X030849Y011222D01*
X030963Y011222D01*
X031019Y011279D01*
X031019Y011392D01*
X030963Y011449D01*
X030906Y011449D01*
X030793Y011392D01*
X030793Y011562D01*
X031019Y011562D01*
X031161Y011505D02*
X031218Y011562D01*
X031331Y011562D01*
X031388Y011505D01*
X031388Y011449D01*
X031331Y011392D01*
X031388Y011335D01*
X031388Y011279D01*
X031331Y011222D01*
X031218Y011222D01*
X031161Y011279D01*
X031066Y011162D02*
X031293Y011162D01*
X031293Y011105D01*
X031066Y010879D01*
X031066Y010822D01*
X030924Y010822D02*
X030811Y010935D01*
X030671Y010572D02*
X030557Y010572D01*
X030501Y010515D01*
X030501Y010288D01*
X030557Y010231D01*
X030671Y010231D01*
X030727Y010288D01*
X030869Y010401D02*
X031096Y010401D01*
X031237Y010401D02*
X031407Y010401D01*
X031464Y010345D01*
X031464Y010288D01*
X031407Y010231D01*
X031294Y010231D01*
X031237Y010288D01*
X031237Y010401D01*
X031351Y010515D01*
X031464Y010572D01*
X031434Y010822D02*
X031661Y010822D01*
X031547Y010822D02*
X031547Y011162D01*
X031434Y011049D01*
X031331Y011392D02*
X031274Y011392D01*
X031039Y010572D02*
X030869Y010401D01*
X030727Y010515D02*
X030671Y010572D01*
X031039Y010572D02*
X031039Y010231D01*
X031682Y009727D02*
X031682Y009501D01*
X031738Y009444D01*
X031852Y009444D01*
X031908Y009501D01*
X032050Y009501D02*
X032107Y009444D01*
X032220Y009444D01*
X032277Y009501D01*
X032277Y009557D01*
X032220Y009614D01*
X032050Y009614D01*
X032050Y009501D01*
X032050Y009614D02*
X032163Y009727D01*
X032277Y009784D01*
X032418Y009614D02*
X032645Y009614D01*
X032588Y009784D02*
X032418Y009614D01*
X032588Y009444D02*
X032588Y009784D01*
X031908Y009727D02*
X031852Y009784D01*
X031738Y009784D01*
X031682Y009727D01*
X032939Y010428D02*
X032939Y010768D01*
X033052Y010655D01*
X033166Y010768D01*
X033166Y010428D01*
X033307Y010428D02*
X033307Y010768D01*
X033477Y010768D01*
X033534Y010712D01*
X033534Y010598D01*
X033477Y010542D01*
X033307Y010542D01*
X033675Y010598D02*
X033789Y010598D01*
X033675Y010428D02*
X033902Y010428D01*
X034044Y010428D02*
X034271Y010768D01*
X034412Y010598D02*
X034639Y010598D01*
X034780Y010598D02*
X035007Y010598D01*
X035007Y010655D02*
X035007Y010428D01*
X034780Y010428D02*
X034780Y010655D01*
X034894Y010768D01*
X035007Y010655D01*
X034271Y010428D02*
X034044Y010768D01*
X033902Y010768D02*
X033675Y010768D01*
X033675Y010428D01*
X033631Y009594D02*
X033574Y009537D01*
X033574Y009310D01*
X033631Y009253D01*
X033744Y009253D01*
X033801Y009310D01*
X033942Y009310D02*
X033999Y009253D01*
X034112Y009253D01*
X034169Y009310D01*
X034169Y009367D01*
X034112Y009423D01*
X033942Y009423D01*
X033942Y009310D01*
X033942Y009423D02*
X034056Y009537D01*
X034169Y009594D01*
X034311Y009594D02*
X034311Y009423D01*
X034424Y009480D01*
X034481Y009480D01*
X034537Y009423D01*
X034537Y009310D01*
X034481Y009253D01*
X034367Y009253D01*
X034311Y009310D01*
X034284Y009200D02*
X034341Y009143D01*
X034341Y009086D01*
X034284Y009030D01*
X034341Y008973D01*
X034341Y008916D01*
X034284Y008860D01*
X034170Y008860D01*
X034114Y008916D01*
X034144Y008806D02*
X033917Y008806D01*
X033916Y008860D02*
X033972Y008916D01*
X033972Y008973D01*
X033916Y009030D01*
X033745Y009030D01*
X033745Y008916D01*
X033802Y008860D01*
X033916Y008860D01*
X034030Y008806D02*
X034030Y008466D01*
X033775Y008466D02*
X033549Y008466D01*
X033549Y008806D01*
X033775Y008806D01*
X033604Y008916D02*
X033547Y008860D01*
X033434Y008860D01*
X033377Y008916D01*
X033377Y009143D01*
X033434Y009200D01*
X033547Y009200D01*
X033604Y009143D01*
X033745Y009030D02*
X033859Y009143D01*
X033972Y009200D01*
X034114Y009143D02*
X034170Y009200D01*
X034284Y009200D01*
X034284Y009030D02*
X034227Y009030D01*
X034399Y008806D02*
X034399Y008466D01*
X034512Y008466D02*
X034285Y008466D01*
X034285Y008693D02*
X034399Y008806D01*
X033662Y008636D02*
X033549Y008636D01*
X033407Y008806D02*
X033180Y008806D01*
X033180Y008466D01*
X033180Y008636D02*
X033294Y008636D01*
X033801Y009537D02*
X033744Y009594D01*
X033631Y009594D01*
X034311Y009594D02*
X034537Y009594D01*
X035028Y008800D02*
X035198Y008800D01*
X035255Y008743D01*
X035255Y008630D01*
X035198Y008573D01*
X035028Y008573D01*
X035028Y008460D02*
X035028Y008800D01*
X035141Y008573D02*
X035255Y008460D01*
X035396Y008516D02*
X035453Y008460D01*
X035566Y008460D01*
X035623Y008516D01*
X035623Y008573D01*
X035566Y008630D01*
X035510Y008630D01*
X035566Y008630D02*
X035623Y008686D01*
X035623Y008743D01*
X035566Y008800D01*
X035453Y008800D01*
X035396Y008743D01*
X035765Y008743D02*
X035765Y008516D01*
X035992Y008743D01*
X035992Y008516D01*
X035935Y008460D01*
X035821Y008460D01*
X035765Y008516D01*
X035765Y008743D02*
X035821Y008800D01*
X035935Y008800D01*
X035992Y008743D01*
X035935Y007422D02*
X035821Y007422D01*
X035765Y007365D01*
X035765Y007309D01*
X035821Y007252D01*
X035992Y007252D01*
X035992Y007365D02*
X035992Y007138D01*
X035935Y007082D01*
X035821Y007082D01*
X035765Y007138D01*
X035623Y007082D02*
X035396Y007082D01*
X035623Y007309D01*
X035623Y007365D01*
X035566Y007422D01*
X035453Y007422D01*
X035396Y007365D01*
X035255Y007365D02*
X035255Y007252D01*
X035198Y007195D01*
X035028Y007195D01*
X035028Y007082D02*
X035028Y007422D01*
X035198Y007422D01*
X035255Y007365D01*
X035141Y007195D02*
X035255Y007082D01*
X034810Y006971D02*
X034810Y006915D01*
X034754Y006858D01*
X034810Y006801D01*
X034810Y006745D01*
X034754Y006688D01*
X034640Y006688D01*
X034584Y006745D01*
X034442Y006745D02*
X034385Y006688D01*
X034272Y006688D01*
X034215Y006745D01*
X034074Y006688D02*
X033960Y006801D01*
X034017Y006801D02*
X033847Y006801D01*
X033847Y006688D02*
X033847Y007028D01*
X034017Y007028D01*
X034074Y006971D01*
X034074Y006858D01*
X034017Y006801D01*
X034215Y006971D02*
X034272Y007028D01*
X034385Y007028D01*
X034442Y006971D01*
X034442Y006915D01*
X034385Y006858D01*
X034442Y006801D01*
X034442Y006745D01*
X034385Y006858D02*
X034329Y006858D01*
X034584Y006971D02*
X034640Y007028D01*
X034754Y007028D01*
X034810Y006971D01*
X034754Y006858D02*
X034697Y006858D01*
X034761Y006247D02*
X034704Y006190D01*
X034704Y006134D01*
X034761Y006077D01*
X034931Y006077D01*
X034931Y006190D02*
X034874Y006247D01*
X034761Y006247D01*
X034931Y006190D02*
X034931Y005964D01*
X034874Y005907D01*
X034761Y005907D01*
X034704Y005964D01*
X034563Y005907D02*
X034336Y005907D01*
X034449Y005907D02*
X034449Y006247D01*
X034336Y006134D01*
X034194Y006190D02*
X034138Y006247D01*
X034024Y006247D01*
X033968Y006190D01*
X033968Y005964D01*
X034024Y005907D01*
X034138Y005907D01*
X034194Y005964D01*
X034215Y005492D02*
X034158Y005436D01*
X034158Y005322D01*
X034215Y005266D01*
X034271Y005266D01*
X034328Y005322D01*
X034328Y005492D01*
X034441Y005492D02*
X034215Y005492D01*
X034441Y005492D02*
X034498Y005436D01*
X034498Y005322D01*
X034441Y005266D01*
X034552Y005266D02*
X034722Y005266D01*
X034665Y005379D01*
X034665Y005436D01*
X034722Y005492D01*
X034835Y005492D01*
X034892Y005436D01*
X034892Y005322D01*
X034835Y005266D01*
X034892Y005124D02*
X034892Y004897D01*
X034665Y005124D01*
X034608Y005124D01*
X034552Y005067D01*
X034552Y004954D01*
X034608Y004897D01*
X034498Y004897D02*
X034498Y005124D01*
X034498Y005011D02*
X034158Y005011D01*
X034271Y004897D01*
X034215Y004756D02*
X034328Y004756D01*
X034385Y004699D01*
X034385Y004529D01*
X034498Y004529D02*
X034158Y004529D01*
X034158Y004699D01*
X034215Y004756D01*
X034385Y004642D02*
X034498Y004756D01*
X034552Y004699D02*
X034608Y004756D01*
X034722Y004756D01*
X034778Y004699D01*
X034778Y004529D01*
X034778Y004642D02*
X034892Y004756D01*
X034892Y004529D02*
X034552Y004529D01*
X034552Y004699D01*
X034552Y005266D02*
X034552Y005492D01*
X035936Y005455D02*
X036276Y005455D01*
X036276Y005342D02*
X036276Y005569D01*
X036049Y005342D02*
X035936Y005455D01*
X035936Y005087D02*
X036276Y005087D01*
X036276Y005200D02*
X036276Y004973D01*
X036219Y004832D02*
X036276Y004775D01*
X036276Y004662D01*
X036219Y004605D01*
X035993Y004605D01*
X035936Y004662D01*
X035936Y004775D01*
X035993Y004832D01*
X036049Y004973D02*
X035936Y005087D01*
X036245Y004100D02*
X036245Y003873D01*
X036245Y003987D02*
X036586Y003987D01*
X036586Y003732D02*
X036359Y003732D01*
X036245Y003618D01*
X036359Y003505D01*
X036586Y003505D01*
X036529Y003363D02*
X036586Y003307D01*
X036586Y003137D01*
X036245Y003137D01*
X036245Y003307D01*
X036302Y003363D01*
X036359Y003363D01*
X036415Y003307D01*
X036415Y003137D01*
X036415Y003307D02*
X036472Y003363D01*
X036529Y003363D01*
X036415Y003505D02*
X036415Y003732D01*
X032937Y003041D02*
X032880Y003098D01*
X032767Y003098D01*
X032710Y003041D01*
X032569Y003041D02*
X032342Y002814D01*
X032342Y002757D01*
X032201Y002814D02*
X032201Y002871D01*
X032144Y002927D01*
X032030Y002927D01*
X031974Y002984D01*
X031974Y003041D01*
X032030Y003098D01*
X032144Y003098D01*
X032201Y003041D01*
X032342Y003098D02*
X032569Y003098D01*
X032569Y003041D01*
X032710Y002757D02*
X032937Y002984D01*
X032937Y003041D01*
X032937Y002757D02*
X032710Y002757D01*
X032201Y002814D02*
X032144Y002757D01*
X032030Y002757D01*
X031974Y002814D01*
X031832Y002814D02*
X031832Y003098D01*
X031605Y003098D02*
X031605Y002814D01*
X031662Y002757D01*
X031776Y002757D01*
X031832Y002814D01*
X032087Y002701D02*
X032087Y003154D01*
X031152Y003208D02*
X031152Y003321D01*
X031095Y003378D01*
X031095Y003519D02*
X031152Y003576D01*
X031152Y003689D01*
X031095Y003746D01*
X031038Y003746D01*
X030982Y003689D01*
X030982Y003633D01*
X030982Y003689D02*
X030925Y003746D01*
X030868Y003746D01*
X030811Y003689D01*
X030811Y003576D01*
X030868Y003519D01*
X030868Y003378D02*
X030811Y003321D01*
X030811Y003208D01*
X030868Y003151D01*
X031095Y003151D01*
X031152Y003208D01*
X031152Y003888D02*
X031095Y003888D01*
X030868Y004114D01*
X030811Y004114D01*
X030811Y003888D01*
X030167Y004192D02*
X030167Y004305D01*
X030111Y004362D01*
X030167Y004504D02*
X030167Y004730D01*
X030167Y004617D02*
X029827Y004617D01*
X029941Y004504D01*
X029884Y004362D02*
X029827Y004305D01*
X029827Y004192D01*
X029884Y004135D01*
X030111Y004135D01*
X030167Y004192D01*
X030111Y004872D02*
X030167Y004929D01*
X030167Y005042D01*
X030111Y005099D01*
X030054Y005099D01*
X029997Y005042D01*
X029997Y004985D01*
X029997Y005042D02*
X029941Y005099D01*
X029884Y005099D01*
X029827Y005042D01*
X029827Y004929D01*
X029884Y004872D01*
X029394Y004419D02*
X029337Y004475D01*
X029224Y004475D01*
X029167Y004419D01*
X029167Y004192D01*
X029224Y004135D01*
X029337Y004135D01*
X029394Y004192D01*
X029394Y004305D01*
X029280Y004305D01*
X029026Y004305D02*
X028969Y004249D01*
X028799Y004249D01*
X028912Y004249D02*
X029026Y004135D01*
X029026Y004305D02*
X029026Y004419D01*
X028969Y004475D01*
X028799Y004475D01*
X028799Y004135D01*
X028657Y004135D02*
X028657Y004475D01*
X028657Y004305D02*
X028430Y004305D01*
X028430Y004135D02*
X028430Y004475D01*
X028289Y004419D02*
X028232Y004475D01*
X028119Y004475D01*
X028062Y004419D01*
X028062Y004192D01*
X028119Y004135D01*
X028232Y004135D01*
X028289Y004192D01*
X027527Y004216D02*
X027527Y004159D01*
X027470Y004102D01*
X027357Y004102D01*
X027300Y004159D01*
X027300Y004216D01*
X027357Y004272D01*
X027470Y004272D01*
X027527Y004216D01*
X027470Y004102D02*
X027527Y004045D01*
X027527Y003989D01*
X027470Y003932D01*
X027357Y003932D01*
X027300Y003989D01*
X027300Y004045D01*
X027357Y004102D01*
X027159Y004159D02*
X027159Y004216D01*
X027102Y004272D01*
X026989Y004272D01*
X026932Y004216D01*
X026790Y004216D02*
X026790Y004102D01*
X026734Y004045D01*
X026564Y004045D01*
X026677Y004045D02*
X026790Y003932D01*
X026932Y003932D02*
X027159Y004159D01*
X027159Y003932D02*
X026932Y003932D01*
X026790Y004216D02*
X026734Y004272D01*
X026564Y004272D01*
X026564Y003932D01*
X025819Y004923D02*
X025819Y005263D01*
X025649Y005093D01*
X025876Y005093D01*
X026030Y005310D02*
X026143Y005310D01*
X026200Y005367D01*
X026341Y005310D02*
X026568Y005310D01*
X026455Y005310D02*
X026455Y005650D01*
X026341Y005537D01*
X026200Y005594D02*
X026143Y005650D01*
X026030Y005650D01*
X025973Y005594D01*
X025973Y005367D01*
X026030Y005310D01*
X025508Y005206D02*
X025451Y005263D01*
X025338Y005263D01*
X025281Y005206D01*
X025139Y005206D02*
X025139Y005093D01*
X025083Y005036D01*
X024913Y005036D01*
X025026Y005036D02*
X025139Y004923D01*
X025281Y004923D02*
X025508Y005149D01*
X025508Y005206D01*
X025508Y004923D02*
X025281Y004923D01*
X025139Y005206D02*
X025083Y005263D01*
X024913Y005263D01*
X024913Y004923D01*
X024771Y004666D02*
X024544Y004666D01*
X024544Y004496D01*
X024658Y004553D01*
X024714Y004553D01*
X024771Y004496D01*
X024771Y004382D01*
X024714Y004326D01*
X024601Y004326D01*
X024544Y004382D01*
X024403Y004382D02*
X024346Y004326D01*
X024233Y004326D01*
X024176Y004382D01*
X024034Y004326D02*
X023921Y004439D01*
X023978Y004439D02*
X023808Y004439D01*
X023808Y004326D02*
X023808Y004666D01*
X023978Y004666D01*
X024034Y004609D01*
X024034Y004496D01*
X023978Y004439D01*
X024176Y004609D02*
X024233Y004666D01*
X024346Y004666D01*
X024403Y004609D01*
X024403Y004553D01*
X024346Y004496D01*
X024403Y004439D01*
X024403Y004382D01*
X024346Y004496D02*
X024289Y004496D01*
X024233Y004075D02*
X024346Y004075D01*
X024403Y004019D01*
X024403Y003962D01*
X024346Y003905D01*
X024403Y003849D01*
X024403Y003792D01*
X024346Y003735D01*
X024233Y003735D01*
X024176Y003792D01*
X024034Y003735D02*
X023921Y003849D01*
X023978Y003849D02*
X023808Y003849D01*
X023808Y003735D02*
X023808Y004075D01*
X023978Y004075D01*
X024034Y004019D01*
X024034Y003905D01*
X023978Y003849D01*
X024176Y004019D02*
X024233Y004075D01*
X024289Y003905D02*
X024346Y003905D01*
X024544Y003905D02*
X024771Y003905D01*
X024714Y003735D02*
X024714Y004075D01*
X024544Y003905D01*
X023590Y002894D02*
X023477Y002838D01*
X023363Y002724D01*
X023533Y002724D01*
X023590Y002668D01*
X023590Y002611D01*
X023533Y002554D01*
X023420Y002554D01*
X023363Y002611D01*
X023363Y002724D01*
X023222Y002668D02*
X023222Y002611D01*
X023165Y002554D01*
X023051Y002554D01*
X022995Y002611D01*
X022853Y002554D02*
X022740Y002668D01*
X022797Y002668D02*
X022626Y002668D01*
X022626Y002554D02*
X022626Y002894D01*
X022797Y002894D01*
X022853Y002838D01*
X022853Y002724D01*
X022797Y002668D01*
X022995Y002838D02*
X023051Y002894D01*
X023165Y002894D01*
X023222Y002838D01*
X023222Y002781D01*
X023165Y002724D01*
X023222Y002668D01*
X023165Y002724D02*
X023108Y002724D01*
X022015Y002724D02*
X021845Y002724D01*
X021788Y002781D01*
X021788Y002838D01*
X021845Y002894D01*
X021958Y002894D01*
X022015Y002838D01*
X022015Y002611D01*
X021958Y002554D01*
X021845Y002554D01*
X021788Y002611D01*
X021647Y002611D02*
X021590Y002554D01*
X021477Y002554D01*
X021420Y002611D01*
X021279Y002554D02*
X021165Y002668D01*
X021222Y002668D02*
X021052Y002668D01*
X021052Y002554D02*
X021052Y002894D01*
X021222Y002894D01*
X021279Y002838D01*
X021279Y002724D01*
X021222Y002668D01*
X021420Y002838D02*
X021477Y002894D01*
X021590Y002894D01*
X021647Y002838D01*
X021647Y002781D01*
X021590Y002724D01*
X021647Y002668D01*
X021647Y002611D01*
X021590Y002724D02*
X021533Y002724D01*
X020804Y003735D02*
X020804Y003792D01*
X021031Y004019D01*
X021031Y004075D01*
X020804Y004075D01*
X020663Y004019D02*
X020663Y003962D01*
X020606Y003905D01*
X020663Y003849D01*
X020663Y003792D01*
X020606Y003735D01*
X020492Y003735D01*
X020436Y003792D01*
X020294Y003735D02*
X020181Y003849D01*
X020238Y003849D02*
X020067Y003849D01*
X020067Y003735D02*
X020067Y004075D01*
X020238Y004075D01*
X020294Y004019D01*
X020294Y003905D01*
X020238Y003849D01*
X020436Y004019D02*
X020492Y004075D01*
X020606Y004075D01*
X020663Y004019D01*
X020606Y003905D02*
X020549Y003905D01*
X020492Y004523D02*
X020436Y004579D01*
X020492Y004523D02*
X020606Y004523D01*
X020663Y004579D01*
X020663Y004636D01*
X020606Y004693D01*
X020549Y004693D01*
X020606Y004693D02*
X020663Y004749D01*
X020663Y004806D01*
X020606Y004863D01*
X020492Y004863D01*
X020436Y004806D01*
X020294Y004806D02*
X020294Y004693D01*
X020238Y004636D01*
X020067Y004636D01*
X020067Y004523D02*
X020067Y004863D01*
X020238Y004863D01*
X020294Y004806D01*
X020181Y004636D02*
X020294Y004523D01*
X020804Y004579D02*
X020804Y004636D01*
X020861Y004693D01*
X020974Y004693D01*
X021031Y004636D01*
X021031Y004579D01*
X020974Y004523D01*
X020861Y004523D01*
X020804Y004579D01*
X020861Y004693D02*
X020804Y004749D01*
X020804Y004806D01*
X020861Y004863D01*
X020974Y004863D01*
X021031Y004806D01*
X021031Y004749D01*
X020974Y004693D01*
X022944Y006891D02*
X022944Y007231D01*
X023057Y007118D01*
X023171Y007231D01*
X023171Y006891D01*
X023312Y006891D02*
X023312Y007231D01*
X023482Y007231D01*
X023539Y007175D01*
X023539Y007061D01*
X023482Y007005D01*
X023312Y007005D01*
X023681Y007061D02*
X023794Y007061D01*
X023681Y007231D02*
X023681Y006891D01*
X023907Y006891D01*
X024049Y006891D02*
X024276Y007231D01*
X024049Y007231D02*
X024276Y006891D01*
X023907Y007231D02*
X023681Y007231D01*
X024512Y006420D02*
X024569Y006477D01*
X024796Y006250D01*
X024853Y006306D01*
X024853Y006420D01*
X024796Y006477D01*
X024569Y006477D01*
X024512Y006420D02*
X024512Y006306D01*
X024569Y006250D01*
X024796Y006250D01*
X024853Y006108D02*
X024853Y005881D01*
X024853Y005995D02*
X024512Y005995D01*
X024626Y005881D01*
X024569Y005740D02*
X024512Y005683D01*
X024512Y005570D01*
X024569Y005513D01*
X024796Y005513D01*
X024853Y005570D01*
X024853Y005683D01*
X024796Y005740D01*
X025382Y006491D02*
X025382Y006831D01*
X025553Y006831D01*
X025609Y006775D01*
X025609Y006661D01*
X025553Y006605D01*
X025382Y006605D01*
X025496Y006605D02*
X025609Y006491D01*
X025751Y006491D02*
X025978Y006718D01*
X025978Y006775D01*
X025921Y006831D01*
X025807Y006831D01*
X025751Y006775D01*
X025751Y006491D02*
X025978Y006491D01*
X026119Y006491D02*
X026346Y006718D01*
X026346Y006775D01*
X026289Y006831D01*
X026176Y006831D01*
X026119Y006775D01*
X026119Y006491D02*
X026346Y006491D01*
X026880Y005650D02*
X026710Y005480D01*
X026936Y005480D01*
X026880Y005310D02*
X026880Y005650D01*
X026911Y007285D02*
X026798Y007398D01*
X026854Y007398D02*
X026684Y007398D01*
X026684Y007285D02*
X026684Y007625D01*
X026854Y007625D01*
X026911Y007568D01*
X026911Y007455D01*
X026854Y007398D01*
X027052Y007285D02*
X027279Y007512D01*
X027279Y007568D01*
X027223Y007625D01*
X027109Y007625D01*
X027052Y007568D01*
X027052Y007285D02*
X027279Y007285D01*
X027421Y007341D02*
X027477Y007285D01*
X027591Y007285D01*
X027648Y007341D01*
X027648Y007398D01*
X027591Y007455D01*
X027534Y007455D01*
X027591Y007455D02*
X027648Y007512D01*
X027648Y007568D01*
X027591Y007625D01*
X027477Y007625D01*
X027421Y007568D01*
X027865Y007558D02*
X027865Y007728D01*
X027922Y007785D01*
X028035Y007785D01*
X028092Y007728D01*
X028092Y007558D01*
X028205Y007558D02*
X027865Y007558D01*
X028092Y007671D02*
X028205Y007785D01*
X028205Y007926D02*
X027978Y008153D01*
X027922Y008153D01*
X027865Y008096D01*
X027865Y007983D01*
X027922Y007926D01*
X028205Y007926D02*
X028205Y008153D01*
X028149Y008294D02*
X027922Y008521D01*
X028149Y008521D01*
X028205Y008465D01*
X028205Y008351D01*
X028149Y008294D01*
X027922Y008294D01*
X027865Y008351D01*
X027865Y008465D01*
X027922Y008521D01*
X028449Y008497D02*
X028449Y008611D01*
X028506Y008667D01*
X028563Y008667D01*
X028790Y008441D01*
X028790Y008667D01*
X028790Y008809D02*
X028790Y009036D01*
X028790Y008922D02*
X028449Y008922D01*
X028563Y008809D01*
X028449Y008497D02*
X028506Y008441D01*
X028506Y008299D02*
X028619Y008299D01*
X028676Y008242D01*
X028676Y008072D01*
X028790Y008072D02*
X028449Y008072D01*
X028449Y008242D01*
X028506Y008299D01*
X028676Y008186D02*
X028790Y008299D01*
X029237Y008218D02*
X029237Y008445D01*
X029293Y008445D01*
X029520Y008218D01*
X029577Y008218D01*
X029713Y008209D02*
X029883Y008209D01*
X029940Y008153D01*
X029940Y008039D01*
X029883Y007982D01*
X029713Y007982D01*
X029713Y007869D02*
X029713Y008209D01*
X029577Y008077D02*
X029577Y007850D01*
X029350Y008077D01*
X029293Y008077D01*
X029237Y008020D01*
X029237Y007907D01*
X029293Y007850D01*
X029293Y007709D02*
X029407Y007709D01*
X029464Y007652D01*
X029464Y007482D01*
X029577Y007482D02*
X029237Y007482D01*
X029237Y007652D01*
X029293Y007709D01*
X029464Y007595D02*
X029577Y007709D01*
X029827Y007982D02*
X029940Y007869D01*
X030081Y007869D02*
X030308Y008096D01*
X030308Y008153D01*
X030252Y008209D01*
X030138Y008209D01*
X030081Y008153D01*
X030081Y007869D02*
X030308Y007869D01*
X030450Y007926D02*
X030506Y007869D01*
X030620Y007869D01*
X030677Y007926D01*
X030677Y007982D01*
X030620Y008039D01*
X030450Y008039D01*
X030450Y007926D01*
X030450Y008039D02*
X030563Y008153D01*
X030677Y008209D01*
X030594Y007231D02*
X030481Y007231D01*
X030424Y007175D01*
X030424Y006948D01*
X030481Y006891D01*
X030594Y006891D01*
X030651Y006948D01*
X030793Y006891D02*
X031019Y006891D01*
X030906Y006891D02*
X030906Y007231D01*
X030793Y007118D01*
X030651Y007175D02*
X030594Y007231D01*
X031161Y007175D02*
X031218Y007231D01*
X031331Y007231D01*
X031388Y007175D01*
X031388Y007118D01*
X031161Y006891D01*
X031388Y006891D01*
X031896Y007050D02*
X031896Y006710D01*
X032123Y006710D01*
X032264Y006710D02*
X032491Y006710D01*
X032378Y006710D02*
X032378Y007050D01*
X032264Y006937D01*
X035935Y007422D02*
X035992Y007365D01*
X036184Y010625D02*
X036354Y010625D01*
X036411Y010682D01*
X036411Y010909D01*
X036354Y010965D01*
X036184Y010965D01*
X036184Y010625D01*
X036552Y010795D02*
X036779Y010795D01*
X036722Y010625D02*
X036722Y010965D01*
X036552Y010795D01*
X038597Y011863D02*
X038653Y011806D01*
X038767Y011806D01*
X038824Y011863D01*
X038965Y011806D02*
X038965Y012146D01*
X038824Y012090D02*
X038767Y012146D01*
X038653Y012146D01*
X038597Y012090D01*
X038597Y011863D01*
X038965Y011976D02*
X039192Y011976D01*
X039333Y011976D02*
X039560Y011976D01*
X039702Y011976D02*
X039929Y011976D01*
X039929Y012033D02*
X039929Y011806D01*
X039929Y012033D02*
X039815Y012146D01*
X039702Y012033D01*
X039702Y011806D01*
X039192Y011806D02*
X039192Y012146D01*
X035325Y013838D02*
X035325Y014064D01*
X035268Y014121D01*
X035155Y014121D01*
X035098Y014064D01*
X035098Y014008D01*
X035155Y013951D01*
X035325Y013951D01*
X035325Y013838D02*
X035268Y013781D01*
X035155Y013781D01*
X035098Y013838D01*
X034956Y014064D02*
X034730Y013838D01*
X034730Y013781D01*
X034588Y013781D02*
X034475Y013894D01*
X034531Y013894D02*
X034361Y013894D01*
X034361Y013781D02*
X034361Y014121D01*
X034531Y014121D01*
X034588Y014064D01*
X034588Y013951D01*
X034531Y013894D01*
X034730Y014121D02*
X034956Y014121D01*
X034956Y014064D01*
X035098Y014371D02*
X035325Y014598D01*
X035325Y014655D01*
X035268Y014712D01*
X035155Y014712D01*
X035098Y014655D01*
X034956Y014655D02*
X034730Y014428D01*
X034730Y014371D01*
X034588Y014371D02*
X034475Y014485D01*
X034531Y014485D02*
X034361Y014485D01*
X034361Y014371D02*
X034361Y014712D01*
X034531Y014712D01*
X034588Y014655D01*
X034588Y014542D01*
X034531Y014485D01*
X034730Y014712D02*
X034956Y014712D01*
X034956Y014655D01*
X035098Y014371D02*
X035325Y014371D01*
X035268Y014962D02*
X035155Y014962D01*
X035098Y015019D01*
X035211Y015132D02*
X035268Y015132D01*
X035325Y015075D01*
X035325Y015019D01*
X035268Y014962D01*
X035268Y015132D02*
X035325Y015189D01*
X035325Y015246D01*
X035268Y015302D01*
X035155Y015302D01*
X035098Y015246D01*
X034956Y015246D02*
X034730Y015019D01*
X034730Y014962D01*
X034588Y014962D02*
X034475Y015075D01*
X034531Y015075D02*
X034361Y015075D01*
X034361Y014962D02*
X034361Y015302D01*
X034531Y015302D01*
X034588Y015246D01*
X034588Y015132D01*
X034531Y015075D01*
X034730Y015302D02*
X034956Y015302D01*
X034956Y015246D01*
X034730Y015553D02*
X034730Y015609D01*
X034956Y015836D01*
X034956Y015893D01*
X034730Y015893D01*
X034588Y015836D02*
X034531Y015893D01*
X034361Y015893D01*
X034361Y015553D01*
X034361Y015666D02*
X034531Y015666D01*
X034588Y015723D01*
X034588Y015836D01*
X034475Y015666D02*
X034588Y015553D01*
X034104Y015583D02*
X033991Y015469D01*
X033991Y015526D02*
X033991Y015356D01*
X034104Y015356D02*
X033764Y015356D01*
X033764Y015526D01*
X033821Y015583D01*
X033934Y015583D01*
X033991Y015526D01*
X034048Y015724D02*
X034104Y015724D01*
X034048Y015724D02*
X033821Y015951D01*
X033764Y015951D01*
X033764Y015724D01*
X033764Y016092D02*
X033764Y016319D01*
X033821Y016319D01*
X034048Y016092D01*
X034104Y016092D01*
X034361Y016340D02*
X034361Y016680D01*
X034531Y016680D01*
X034588Y016623D01*
X034588Y016510D01*
X034531Y016453D01*
X034361Y016453D01*
X034475Y016453D02*
X034588Y016340D01*
X034730Y016340D02*
X034730Y016397D01*
X034956Y016623D01*
X034956Y016680D01*
X034730Y016680D01*
X034761Y016930D02*
X034874Y016930D01*
X034931Y016987D01*
X034931Y017044D01*
X034874Y017101D01*
X034704Y017101D01*
X034704Y016987D01*
X034761Y016930D01*
X034704Y017101D02*
X034818Y017214D01*
X034931Y017271D01*
X034563Y017271D02*
X034563Y017214D01*
X034336Y016987D01*
X034336Y016930D01*
X034194Y016930D02*
X034081Y017044D01*
X034138Y017044D02*
X033968Y017044D01*
X033968Y016930D02*
X033968Y017271D01*
X034138Y017271D01*
X034194Y017214D01*
X034194Y017101D01*
X034138Y017044D01*
X034336Y017271D02*
X034563Y017271D01*
X033947Y017718D02*
X033720Y017718D01*
X033947Y017945D01*
X033947Y018001D01*
X033890Y018058D01*
X033777Y018058D01*
X033720Y018001D01*
X033579Y018058D02*
X033352Y018058D01*
X033352Y017888D01*
X033465Y017945D01*
X033522Y017945D01*
X033579Y017888D01*
X033579Y017775D01*
X033522Y017718D01*
X033408Y017718D01*
X033352Y017775D01*
X033210Y017775D02*
X033154Y017718D01*
X033040Y017718D01*
X032983Y017775D01*
X032983Y018001D01*
X033040Y018058D01*
X033154Y018058D01*
X033210Y018001D01*
X033313Y018302D02*
X033427Y018302D01*
X033483Y018359D01*
X033625Y018359D02*
X033852Y018586D01*
X033852Y018642D01*
X033625Y018642D01*
X033483Y018586D02*
X033427Y018642D01*
X033313Y018642D01*
X033256Y018586D01*
X033256Y018359D01*
X033313Y018302D01*
X033625Y018302D02*
X033625Y018359D01*
X033993Y018359D02*
X034050Y018302D01*
X034163Y018302D01*
X034220Y018359D01*
X034220Y018472D01*
X034163Y018529D01*
X034106Y018529D01*
X033993Y018472D01*
X033993Y018642D01*
X034220Y018642D01*
X034247Y019090D02*
X034190Y019146D01*
X034247Y019090D02*
X034360Y019090D01*
X034417Y019146D01*
X034417Y019260D01*
X034360Y019316D01*
X034303Y019316D01*
X034190Y019260D01*
X034190Y019430D01*
X034417Y019430D01*
X034048Y019260D02*
X033822Y019260D01*
X033992Y019430D01*
X033992Y019090D01*
X033680Y019146D02*
X033623Y019090D01*
X033510Y019090D01*
X033453Y019146D01*
X033453Y019373D01*
X033510Y019430D01*
X033623Y019430D01*
X033680Y019373D01*
X032448Y017855D02*
X032221Y017855D01*
X032221Y017685D01*
X032335Y017742D01*
X032391Y017742D01*
X032448Y017685D01*
X032448Y017571D01*
X032391Y017515D01*
X032278Y017515D01*
X032221Y017571D01*
X032080Y017571D02*
X032023Y017515D01*
X031910Y017515D01*
X031853Y017571D01*
X031853Y017685D02*
X031966Y017742D01*
X032023Y017742D01*
X032080Y017685D01*
X032080Y017571D01*
X031853Y017685D02*
X031853Y017855D01*
X032080Y017855D01*
X031712Y017798D02*
X031655Y017855D01*
X031541Y017855D01*
X031485Y017798D01*
X031485Y017571D01*
X031541Y017515D01*
X031655Y017515D01*
X031712Y017571D01*
X031140Y017551D02*
X031083Y017494D01*
X030913Y017494D01*
X030772Y017494D02*
X030545Y017494D01*
X030404Y017494D02*
X030404Y017608D01*
X030347Y017664D01*
X030177Y017664D01*
X030177Y017324D01*
X030177Y017438D02*
X030347Y017438D01*
X030404Y017494D01*
X030035Y017664D02*
X030035Y017324D01*
X029808Y017324D02*
X029808Y017664D01*
X029922Y017551D01*
X030035Y017664D01*
X029667Y017608D02*
X029610Y017664D01*
X029497Y017664D01*
X029440Y017608D01*
X029440Y017381D01*
X029497Y017324D01*
X029610Y017324D01*
X029667Y017381D01*
X029299Y017068D02*
X029072Y017068D01*
X029072Y016897D01*
X029185Y016954D01*
X029242Y016954D01*
X029299Y016897D01*
X029299Y016784D01*
X029242Y016727D01*
X029128Y016727D01*
X029072Y016784D01*
X028930Y016784D02*
X028930Y016841D01*
X028874Y016897D01*
X028703Y016897D01*
X028703Y016784D01*
X028760Y016727D01*
X028874Y016727D01*
X028930Y016784D01*
X028817Y017011D02*
X028703Y016897D01*
X028562Y016897D02*
X028505Y016841D01*
X028335Y016841D01*
X028449Y016841D02*
X028562Y016727D01*
X028562Y016897D02*
X028562Y017011D01*
X028505Y017068D01*
X028335Y017068D01*
X028335Y016727D01*
X028308Y016280D02*
X028138Y016280D01*
X028138Y015940D01*
X028138Y016053D02*
X028308Y016053D01*
X028365Y016110D01*
X028365Y016223D01*
X028308Y016280D01*
X028252Y016053D02*
X028365Y015940D01*
X028507Y015997D02*
X028563Y015940D01*
X028677Y015940D01*
X028733Y015997D01*
X028733Y016053D01*
X028677Y016110D01*
X028507Y016110D01*
X028507Y015997D01*
X028507Y016110D02*
X028620Y016223D01*
X028733Y016280D01*
X028875Y016223D02*
X028932Y016280D01*
X029045Y016280D01*
X029102Y016223D01*
X029102Y016167D01*
X029045Y016110D01*
X029102Y016053D01*
X029102Y015997D01*
X029045Y015940D01*
X028932Y015940D01*
X028875Y015997D01*
X028988Y016110D02*
X029045Y016110D01*
X029319Y015493D02*
X029490Y015493D01*
X029546Y015436D01*
X029546Y015323D01*
X029490Y015266D01*
X029319Y015266D01*
X029319Y015153D02*
X029319Y015493D01*
X029433Y015266D02*
X029546Y015153D01*
X029688Y015209D02*
X029744Y015153D01*
X029858Y015153D01*
X029915Y015209D01*
X029915Y015266D01*
X029858Y015323D01*
X029688Y015323D01*
X029688Y015209D01*
X029688Y015323D02*
X029801Y015436D01*
X029915Y015493D01*
X030056Y015379D02*
X030169Y015493D01*
X030169Y015153D01*
X030056Y015153D02*
X030283Y015153D01*
X030257Y015946D02*
X030144Y016060D01*
X030201Y016060D02*
X030031Y016060D01*
X030031Y015946D02*
X030031Y016286D01*
X030201Y016286D01*
X030257Y016230D01*
X030257Y016116D01*
X030201Y016060D01*
X030399Y016003D02*
X030399Y015946D01*
X030399Y016003D02*
X030626Y016230D01*
X030626Y016286D01*
X030399Y016286D01*
X030767Y016230D02*
X030767Y016003D01*
X030994Y016230D01*
X030994Y016003D01*
X030937Y015946D01*
X030824Y015946D01*
X030767Y016003D01*
X030767Y016230D02*
X030824Y016286D01*
X030937Y016286D01*
X030994Y016230D01*
X031465Y015499D02*
X031409Y015442D01*
X031409Y015216D01*
X031465Y015159D01*
X031579Y015159D01*
X031635Y015216D01*
X031777Y015159D02*
X031777Y015499D01*
X031890Y015386D01*
X032004Y015499D01*
X032004Y015159D01*
X032145Y015159D02*
X032145Y015499D01*
X032315Y015499D01*
X032372Y015442D01*
X032372Y015329D01*
X032315Y015272D01*
X032145Y015272D01*
X032253Y015105D02*
X032196Y015049D01*
X032196Y014822D01*
X032253Y014765D01*
X032366Y014765D01*
X032423Y014822D01*
X032564Y014765D02*
X032791Y014992D01*
X032791Y015049D01*
X032734Y015105D01*
X032621Y015105D01*
X032564Y015049D01*
X032423Y015049D02*
X032366Y015105D01*
X032253Y015105D01*
X032514Y015329D02*
X032740Y015329D01*
X032882Y015329D02*
X033109Y015329D01*
X033109Y015386D02*
X033109Y015159D01*
X033103Y015105D02*
X032933Y014935D01*
X033159Y014935D01*
X033103Y014765D02*
X033103Y015105D01*
X032882Y015159D02*
X032882Y015386D01*
X032995Y015499D01*
X033109Y015386D01*
X032727Y015946D02*
X032386Y016173D01*
X032443Y016315D02*
X032670Y016315D01*
X032727Y016371D01*
X032727Y016485D01*
X032670Y016541D01*
X032443Y016541D01*
X032386Y016485D01*
X032386Y016371D01*
X032443Y016315D01*
X032727Y016173D02*
X032386Y015946D01*
X032386Y016683D02*
X032386Y016853D01*
X032443Y016910D01*
X032556Y016910D01*
X032613Y016853D01*
X032613Y016683D01*
X032613Y016796D02*
X032727Y016910D01*
X032727Y016683D02*
X032386Y016683D01*
X031140Y017381D02*
X031083Y017324D01*
X030913Y017324D01*
X030913Y017664D01*
X031083Y017664D01*
X031140Y017608D01*
X031140Y017551D01*
X031083Y017494D02*
X031140Y017438D01*
X031140Y017381D01*
X031097Y018105D02*
X031040Y018162D01*
X031097Y018105D02*
X031210Y018105D01*
X031267Y018162D01*
X031267Y018275D01*
X031210Y018332D01*
X031154Y018332D01*
X031040Y018275D01*
X031040Y018446D01*
X031267Y018446D01*
X030899Y018389D02*
X030842Y018446D01*
X030729Y018446D01*
X030672Y018389D01*
X030531Y018389D02*
X030474Y018446D01*
X030360Y018446D01*
X030304Y018389D01*
X030304Y018162D01*
X030360Y018105D01*
X030474Y018105D01*
X030531Y018162D01*
X030672Y018105D02*
X030899Y018332D01*
X030899Y018389D01*
X030899Y018105D02*
X030672Y018105D01*
X030207Y018365D02*
X030207Y018592D01*
X030150Y018649D01*
X030037Y018649D01*
X029980Y018592D01*
X029980Y018535D01*
X030037Y018479D01*
X030207Y018479D01*
X030207Y018365D02*
X030150Y018308D01*
X030037Y018308D01*
X029980Y018365D01*
X029838Y018365D02*
X029782Y018308D01*
X029668Y018308D01*
X029612Y018365D01*
X029612Y018479D02*
X029725Y018535D01*
X029782Y018535D01*
X029838Y018479D01*
X029838Y018365D01*
X029612Y018479D02*
X029612Y018649D01*
X029838Y018649D01*
X029470Y018592D02*
X029470Y018479D01*
X029413Y018422D01*
X029243Y018422D01*
X029243Y018308D02*
X029243Y018649D01*
X029413Y018649D01*
X029470Y018592D01*
X029357Y018422D02*
X029470Y018308D01*
X028875Y018696D02*
X028875Y018753D01*
X029102Y018979D01*
X029102Y019036D01*
X028875Y019036D01*
X028733Y019036D02*
X028620Y018979D01*
X028507Y018866D01*
X028677Y018866D01*
X028733Y018809D01*
X028733Y018753D01*
X028677Y018696D01*
X028563Y018696D01*
X028507Y018753D01*
X028507Y018866D01*
X028365Y018866D02*
X028308Y018809D01*
X028138Y018809D01*
X028138Y018696D02*
X028138Y019036D01*
X028308Y019036D01*
X028365Y018979D01*
X028365Y018866D01*
X028252Y018809D02*
X028365Y018696D01*
X027412Y019153D02*
X027412Y019266D01*
X027355Y019323D01*
X027412Y019464D02*
X027185Y019691D01*
X027128Y019691D01*
X027071Y019634D01*
X027071Y019521D01*
X027128Y019464D01*
X027128Y019323D02*
X027071Y019266D01*
X027071Y019153D01*
X027128Y019096D01*
X027355Y019096D01*
X027412Y019153D01*
X027412Y019464D02*
X027412Y019691D01*
X027412Y019832D02*
X027412Y020059D01*
X027497Y020130D02*
X027554Y020074D01*
X027667Y020074D01*
X027724Y020130D01*
X027724Y020187D01*
X027667Y020244D01*
X027610Y020244D01*
X027667Y020244D02*
X027724Y020301D01*
X027724Y020357D01*
X027667Y020414D01*
X027554Y020414D01*
X027497Y020357D01*
X027356Y020357D02*
X027129Y020130D01*
X027129Y020074D01*
X027071Y019946D02*
X027412Y019946D01*
X027185Y019832D02*
X027071Y019946D01*
X026930Y020074D02*
X026987Y020130D01*
X026930Y020074D02*
X026817Y020074D01*
X026760Y020130D01*
X026760Y020357D01*
X026817Y020414D01*
X026930Y020414D01*
X026987Y020357D01*
X027129Y020414D02*
X027356Y020414D01*
X027356Y020357D01*
X027909Y019824D02*
X027795Y019710D01*
X027795Y019483D01*
X027795Y019653D02*
X028022Y019653D01*
X028022Y019710D02*
X028022Y019483D01*
X028164Y019483D02*
X028164Y019824D01*
X028277Y019710D01*
X028391Y019824D01*
X028391Y019483D01*
X028532Y019483D02*
X028532Y019824D01*
X028702Y019824D01*
X028759Y019767D01*
X028759Y019653D01*
X028702Y019597D01*
X028532Y019597D01*
X028900Y019653D02*
X029127Y019653D01*
X029269Y019653D02*
X029439Y019653D01*
X029495Y019597D01*
X029495Y019540D01*
X029439Y019483D01*
X029269Y019483D01*
X029269Y019824D01*
X029439Y019824D01*
X029495Y019767D01*
X029495Y019710D01*
X029439Y019653D01*
X029045Y020271D02*
X029045Y020611D01*
X028875Y020441D01*
X029102Y020441D01*
X028733Y020554D02*
X028507Y020327D01*
X028507Y020271D01*
X028365Y020327D02*
X028308Y020271D01*
X028195Y020271D01*
X028138Y020327D01*
X028138Y020554D01*
X028195Y020611D01*
X028308Y020611D01*
X028365Y020554D01*
X028507Y020611D02*
X028733Y020611D01*
X028733Y020554D01*
X029827Y020530D02*
X029884Y020474D01*
X030111Y020474D01*
X030167Y020530D01*
X030167Y020644D01*
X030111Y020701D01*
X030111Y020842D02*
X030167Y020899D01*
X030167Y021012D01*
X030111Y021069D01*
X030054Y021069D01*
X029997Y021012D01*
X029997Y020956D01*
X029997Y021012D02*
X029941Y021069D01*
X029884Y021069D01*
X029827Y021012D01*
X029827Y020899D01*
X029884Y020842D01*
X029884Y020701D02*
X029827Y020644D01*
X029827Y020530D01*
X029941Y021210D02*
X029827Y021324D01*
X030167Y021324D01*
X030167Y021437D02*
X030167Y021210D01*
X030621Y021121D02*
X030678Y021064D01*
X030791Y021064D01*
X030848Y021121D01*
X030989Y021234D02*
X031216Y021234D01*
X031358Y021234D02*
X031585Y021234D01*
X031528Y021064D02*
X031528Y021405D01*
X031358Y021234D01*
X031160Y021064D02*
X031160Y021405D01*
X030989Y021234D01*
X030848Y021348D02*
X030791Y021405D01*
X030678Y021405D01*
X030621Y021348D01*
X030621Y021121D01*
X030621Y021655D02*
X030621Y021995D01*
X030791Y021995D01*
X030848Y021938D01*
X030848Y021825D01*
X030791Y021768D01*
X030621Y021768D01*
X030735Y021768D02*
X030848Y021655D01*
X030989Y021712D02*
X031046Y021655D01*
X031160Y021655D01*
X031216Y021712D01*
X031216Y021825D01*
X031160Y021882D01*
X031103Y021882D01*
X030989Y021825D01*
X030989Y021995D01*
X031216Y021995D01*
X031358Y021995D02*
X031358Y021825D01*
X031471Y021882D01*
X031528Y021882D01*
X031585Y021825D01*
X031585Y021712D01*
X031528Y021655D01*
X031414Y021655D01*
X031358Y021712D01*
X031358Y021995D02*
X031585Y021995D01*
X031528Y022245D02*
X031585Y022302D01*
X031585Y022359D01*
X031528Y022416D01*
X031358Y022416D01*
X031358Y022302D01*
X031414Y022245D01*
X031528Y022245D01*
X031358Y022416D02*
X031471Y022529D01*
X031585Y022586D01*
X031358Y022836D02*
X031358Y022893D01*
X031585Y023120D01*
X031585Y023176D01*
X031358Y023176D01*
X031216Y023176D02*
X030989Y023176D01*
X030989Y023006D01*
X031103Y023063D01*
X031160Y023063D01*
X031216Y023006D01*
X031216Y022893D01*
X031160Y022836D01*
X031046Y022836D01*
X030989Y022893D01*
X030848Y022836D02*
X030735Y022949D01*
X030791Y022949D02*
X030621Y022949D01*
X030621Y022836D02*
X030621Y023176D01*
X030791Y023176D01*
X030848Y023120D01*
X030848Y023006D01*
X030791Y022949D01*
X030791Y022586D02*
X030848Y022529D01*
X030848Y022416D01*
X030791Y022359D01*
X030621Y022359D01*
X030621Y022245D02*
X030621Y022586D01*
X030791Y022586D01*
X030989Y022586D02*
X030989Y022416D01*
X031103Y022472D01*
X031160Y022472D01*
X031216Y022416D01*
X031216Y022302D01*
X031160Y022245D01*
X031046Y022245D01*
X030989Y022302D01*
X030848Y022245D02*
X030735Y022359D01*
X030989Y022586D02*
X031216Y022586D01*
X032189Y021971D02*
X032246Y022028D01*
X032473Y021801D01*
X032530Y021858D01*
X032530Y021971D01*
X032473Y022028D01*
X032246Y022028D01*
X032189Y021971D02*
X032189Y021858D01*
X032246Y021801D01*
X032473Y021801D01*
X032473Y021659D02*
X032530Y021603D01*
X032530Y021489D01*
X032473Y021433D01*
X032416Y021433D01*
X032360Y021489D01*
X032360Y021603D01*
X032416Y021659D01*
X032473Y021659D01*
X032360Y021603D02*
X032303Y021659D01*
X032246Y021659D01*
X032189Y021603D01*
X032189Y021489D01*
X032246Y021433D01*
X032303Y021433D01*
X032360Y021489D01*
X032360Y021291D02*
X032416Y021234D01*
X032416Y021064D01*
X032530Y021064D02*
X032189Y021064D01*
X032189Y021234D01*
X032246Y021291D01*
X032360Y021291D01*
X032416Y021178D02*
X032530Y021291D01*
X033136Y021649D02*
X033136Y021989D01*
X033249Y021875D01*
X033363Y021989D01*
X033363Y021649D01*
X033504Y021649D02*
X033504Y021989D01*
X033674Y021989D01*
X033731Y021932D01*
X033731Y021819D01*
X033674Y021762D01*
X033504Y021762D01*
X033872Y021819D02*
X033986Y021819D01*
X034099Y021989D02*
X033872Y021989D01*
X033872Y021649D01*
X034099Y021649D01*
X034241Y021649D02*
X034467Y021989D01*
X034609Y021819D02*
X034836Y021819D01*
X034977Y021819D02*
X035147Y021819D01*
X035204Y021762D01*
X035204Y021705D01*
X035147Y021649D01*
X034977Y021649D01*
X034977Y021989D01*
X035147Y021989D01*
X035204Y021932D01*
X035204Y021875D01*
X035147Y021819D01*
X034467Y021649D02*
X034241Y021989D01*
X033917Y022442D02*
X033917Y022499D01*
X034144Y022726D01*
X034144Y022783D01*
X033917Y022783D01*
X033775Y022783D02*
X033775Y022726D01*
X033549Y022499D01*
X033549Y022442D01*
X033407Y022499D02*
X033350Y022442D01*
X033237Y022442D01*
X033180Y022499D01*
X033180Y022726D01*
X033237Y022783D01*
X033350Y022783D01*
X033407Y022726D01*
X033549Y022783D02*
X033775Y022783D01*
X033974Y023033D02*
X034087Y023033D01*
X034144Y023090D01*
X034144Y023146D01*
X034087Y023203D01*
X033917Y023203D01*
X033917Y023090D01*
X033974Y023033D01*
X033917Y023203D02*
X034030Y023316D01*
X034144Y023373D01*
X033775Y023373D02*
X033775Y023316D01*
X033549Y023090D01*
X033549Y023033D01*
X033407Y023090D02*
X033350Y023033D01*
X033237Y023033D01*
X033180Y023090D01*
X033180Y023316D01*
X033237Y023373D01*
X033350Y023373D01*
X033407Y023316D01*
X033549Y023373D02*
X033775Y023373D01*
X034241Y023814D02*
X034241Y024154D01*
X034411Y024154D01*
X034468Y024097D01*
X034468Y023984D01*
X034411Y023927D01*
X034241Y023927D01*
X034354Y023927D02*
X034468Y023814D01*
X034609Y023871D02*
X034666Y023814D01*
X034779Y023814D01*
X034836Y023871D01*
X034836Y024097D01*
X034779Y024154D01*
X034666Y024154D01*
X034609Y024097D01*
X034609Y024041D01*
X034666Y023984D01*
X034836Y023984D01*
X034977Y024041D02*
X035034Y023984D01*
X035204Y023984D01*
X035204Y023871D02*
X035204Y024097D01*
X035147Y024154D01*
X035034Y024154D01*
X034977Y024097D01*
X034977Y024041D01*
X034977Y023871D02*
X035034Y023814D01*
X035147Y023814D01*
X035204Y023871D01*
X035619Y023927D02*
X035789Y023927D01*
X035845Y023984D01*
X035845Y024097D01*
X035789Y024154D01*
X035619Y024154D01*
X035619Y023814D01*
X035732Y023927D02*
X035845Y023814D01*
X035987Y023871D02*
X036044Y023814D01*
X036157Y023814D01*
X036214Y023871D01*
X036214Y024097D01*
X036157Y024154D01*
X036044Y024154D01*
X035987Y024097D01*
X035987Y024041D01*
X036044Y023984D01*
X036214Y023984D01*
X036355Y023927D02*
X036412Y023984D01*
X036525Y023984D01*
X036582Y023927D01*
X036582Y023871D01*
X036525Y023814D01*
X036412Y023814D01*
X036355Y023871D01*
X036355Y023927D01*
X036412Y023984D02*
X036355Y024041D01*
X036355Y024097D01*
X036412Y024154D01*
X036525Y024154D01*
X036582Y024097D01*
X036582Y024041D01*
X036525Y023984D01*
X037905Y023373D02*
X037905Y023033D01*
X038075Y023033D01*
X038131Y023090D01*
X038131Y023316D01*
X038075Y023373D01*
X037905Y023373D01*
X038273Y023260D02*
X038386Y023373D01*
X038386Y023033D01*
X038273Y023033D02*
X038500Y023033D01*
X038641Y023033D02*
X038868Y023033D01*
X038755Y023033D02*
X038755Y023373D01*
X038641Y023260D01*
X039086Y024804D02*
X039086Y025145D01*
X039256Y025145D01*
X039313Y025088D01*
X039313Y024975D01*
X039256Y024918D01*
X039086Y024918D01*
X039199Y024918D02*
X039313Y024804D01*
X039454Y024861D02*
X039454Y024918D01*
X039511Y024975D01*
X039624Y024975D01*
X039681Y024918D01*
X039681Y024861D01*
X039624Y024804D01*
X039511Y024804D01*
X039454Y024861D01*
X039511Y024975D02*
X039454Y025031D01*
X039454Y025088D01*
X039511Y025145D01*
X039624Y025145D01*
X039681Y025088D01*
X039681Y025031D01*
X039624Y024975D01*
X039822Y025031D02*
X039822Y025088D01*
X039879Y025145D01*
X039992Y025145D01*
X040049Y025088D01*
X040049Y025031D01*
X039992Y024975D01*
X039879Y024975D01*
X039822Y025031D01*
X039879Y024975D02*
X039822Y024918D01*
X039822Y024861D01*
X039879Y024804D01*
X039992Y024804D01*
X040049Y024861D01*
X040049Y024918D01*
X039992Y024975D01*
X039936Y025395D02*
X039936Y025735D01*
X039822Y025622D01*
X039681Y025622D02*
X039624Y025565D01*
X039511Y025565D01*
X039454Y025622D01*
X039454Y025679D01*
X039511Y025735D01*
X039624Y025735D01*
X039681Y025679D01*
X039681Y025622D01*
X039624Y025565D02*
X039681Y025508D01*
X039681Y025452D01*
X039624Y025395D01*
X039511Y025395D01*
X039454Y025452D01*
X039454Y025508D01*
X039511Y025565D01*
X039313Y025565D02*
X039256Y025508D01*
X039086Y025508D01*
X039086Y025395D02*
X039086Y025735D01*
X039256Y025735D01*
X039313Y025679D01*
X039313Y025565D01*
X039199Y025508D02*
X039313Y025395D01*
X039822Y025395D02*
X040049Y025395D01*
X040049Y025986D02*
X039822Y025986D01*
X040049Y026212D01*
X040049Y026269D01*
X039992Y026326D01*
X039879Y026326D01*
X039822Y026269D01*
X039681Y026269D02*
X039681Y026212D01*
X039624Y026156D01*
X039511Y026156D01*
X039454Y026212D01*
X039454Y026269D01*
X039511Y026326D01*
X039624Y026326D01*
X039681Y026269D01*
X039624Y026156D02*
X039681Y026099D01*
X039681Y026042D01*
X039624Y025986D01*
X039511Y025986D01*
X039454Y026042D01*
X039454Y026099D01*
X039511Y026156D01*
X039313Y026156D02*
X039256Y026099D01*
X039086Y026099D01*
X039199Y026099D02*
X039313Y025986D01*
X039313Y026156D02*
X039313Y026269D01*
X039256Y026326D01*
X039086Y026326D01*
X039086Y025986D01*
X038632Y026182D02*
X038292Y026182D01*
X038292Y026353D01*
X038349Y026409D01*
X038462Y026409D01*
X038519Y026353D01*
X038519Y026182D01*
X038519Y026296D02*
X038632Y026409D01*
X038575Y026551D02*
X038519Y026551D01*
X038462Y026607D01*
X038462Y026721D01*
X038519Y026778D01*
X038575Y026778D01*
X038632Y026721D01*
X038632Y026607D01*
X038575Y026551D01*
X038462Y026607D02*
X038405Y026551D01*
X038349Y026551D01*
X038292Y026607D01*
X038292Y026721D01*
X038349Y026778D01*
X038405Y026778D01*
X038462Y026721D01*
X038462Y026919D02*
X038349Y027032D01*
X038292Y027146D01*
X038462Y027089D02*
X038462Y026919D01*
X038575Y026919D01*
X038632Y026976D01*
X038632Y027089D01*
X038575Y027146D01*
X038519Y027146D01*
X038462Y027089D01*
X039086Y027167D02*
X039086Y027507D01*
X039256Y027507D01*
X039313Y027450D01*
X039313Y027337D01*
X039256Y027280D01*
X039086Y027280D01*
X039199Y027280D02*
X039313Y027167D01*
X039454Y027223D02*
X039454Y027280D01*
X039511Y027337D01*
X039624Y027337D01*
X039681Y027280D01*
X039681Y027223D01*
X039624Y027167D01*
X039511Y027167D01*
X039454Y027223D01*
X039511Y027337D02*
X039454Y027394D01*
X039454Y027450D01*
X039511Y027507D01*
X039624Y027507D01*
X039681Y027450D01*
X039681Y027394D01*
X039624Y027337D01*
X039822Y027337D02*
X039992Y027507D01*
X039992Y027167D01*
X040049Y027337D02*
X039822Y027337D01*
X039879Y026916D02*
X039992Y026916D01*
X040049Y026860D01*
X040049Y026803D01*
X039992Y026746D01*
X040049Y026690D01*
X040049Y026633D01*
X039992Y026576D01*
X039879Y026576D01*
X039822Y026633D01*
X039681Y026633D02*
X039624Y026576D01*
X039511Y026576D01*
X039454Y026633D01*
X039454Y026690D01*
X039511Y026746D01*
X039624Y026746D01*
X039681Y026690D01*
X039681Y026633D01*
X039624Y026746D02*
X039681Y026803D01*
X039681Y026860D01*
X039624Y026916D01*
X039511Y026916D01*
X039454Y026860D01*
X039454Y026803D01*
X039511Y026746D01*
X039313Y026746D02*
X039256Y026690D01*
X039086Y026690D01*
X039199Y026690D02*
X039313Y026576D01*
X039313Y026746D02*
X039313Y026860D01*
X039256Y026916D01*
X039086Y026916D01*
X039086Y026576D01*
X039822Y026860D02*
X039879Y026916D01*
X039936Y026746D02*
X039992Y026746D01*
X039992Y027757D02*
X039879Y027757D01*
X039822Y027814D01*
X039822Y027927D02*
X039936Y027984D01*
X039992Y027984D01*
X040049Y027927D01*
X040049Y027814D01*
X039992Y027757D01*
X039822Y027927D02*
X039822Y028098D01*
X040049Y028098D01*
X039681Y028041D02*
X039681Y027984D01*
X039624Y027927D01*
X039511Y027927D01*
X039454Y027984D01*
X039454Y028041D01*
X039511Y028098D01*
X039624Y028098D01*
X039681Y028041D01*
X039624Y027927D02*
X039681Y027871D01*
X039681Y027814D01*
X039624Y027757D01*
X039511Y027757D01*
X039454Y027814D01*
X039454Y027871D01*
X039511Y027927D01*
X039313Y027927D02*
X039256Y027871D01*
X039086Y027871D01*
X039199Y027871D02*
X039313Y027757D01*
X039313Y027927D02*
X039313Y028041D01*
X039256Y028098D01*
X039086Y028098D01*
X039086Y027757D01*
X038355Y025844D02*
X038582Y025617D01*
X038638Y025617D01*
X038582Y025476D02*
X038638Y025419D01*
X038638Y025306D01*
X038582Y025249D01*
X038525Y025249D01*
X038468Y025306D01*
X038468Y025419D01*
X038525Y025476D01*
X038582Y025476D01*
X038468Y025419D02*
X038411Y025476D01*
X038355Y025476D01*
X038298Y025419D01*
X038298Y025306D01*
X038355Y025249D01*
X038411Y025249D01*
X038468Y025306D01*
X038468Y025108D02*
X038525Y025051D01*
X038525Y024881D01*
X038525Y024994D02*
X038638Y025108D01*
X038468Y025108D02*
X038355Y025108D01*
X038298Y025051D01*
X038298Y024881D01*
X038638Y024881D01*
X038298Y025617D02*
X038298Y025844D01*
X038355Y025844D01*
X036506Y025538D02*
X036506Y025482D01*
X036279Y025255D01*
X036279Y025198D01*
X036138Y025255D02*
X036138Y025482D01*
X036081Y025538D01*
X035967Y025538D01*
X035911Y025482D01*
X035911Y025425D01*
X035967Y025368D01*
X036138Y025368D01*
X036138Y025255D02*
X036081Y025198D01*
X035967Y025198D01*
X035911Y025255D01*
X035769Y025198D02*
X035656Y025312D01*
X035713Y025312D02*
X035542Y025312D01*
X035542Y025198D02*
X035542Y025538D01*
X035713Y025538D01*
X035769Y025482D01*
X035769Y025368D01*
X035713Y025312D01*
X035128Y025312D02*
X035071Y025368D01*
X034901Y025368D01*
X034901Y025255D01*
X034958Y025198D01*
X035071Y025198D01*
X035128Y025255D01*
X035128Y025312D01*
X035015Y025482D02*
X034901Y025368D01*
X034760Y025368D02*
X034589Y025368D01*
X034533Y025425D01*
X034533Y025482D01*
X034589Y025538D01*
X034703Y025538D01*
X034760Y025482D01*
X034760Y025255D01*
X034703Y025198D01*
X034589Y025198D01*
X034533Y025255D01*
X034391Y025198D02*
X034278Y025312D01*
X034335Y025312D02*
X034164Y025312D01*
X034164Y025198D02*
X034164Y025538D01*
X034335Y025538D01*
X034391Y025482D01*
X034391Y025368D01*
X034335Y025312D01*
X035015Y025482D02*
X035128Y025538D01*
X036279Y025538D02*
X036506Y025538D01*
X034855Y027223D02*
X034798Y027167D01*
X034685Y027167D01*
X034628Y027223D01*
X034628Y027450D01*
X034685Y027507D01*
X034798Y027507D01*
X034855Y027450D01*
X034487Y027450D02*
X034430Y027507D01*
X034260Y027507D01*
X034260Y027167D01*
X034430Y027167D01*
X034487Y027223D01*
X034487Y027450D01*
X034118Y027507D02*
X034118Y027280D01*
X034005Y027167D01*
X033891Y027280D01*
X033891Y027507D01*
X033750Y027507D02*
X033523Y027507D01*
X033523Y027337D01*
X033637Y027394D01*
X033693Y027394D01*
X033750Y027337D01*
X033750Y027223D01*
X033693Y027167D01*
X033580Y027167D01*
X033523Y027223D01*
X033382Y027337D02*
X033155Y027337D01*
X033013Y027337D02*
X032787Y027337D01*
X032900Y027450D02*
X032900Y027223D01*
X032787Y026523D02*
X032787Y026182D01*
X033013Y026182D01*
X033155Y026239D02*
X033212Y026182D01*
X033325Y026182D01*
X033382Y026239D01*
X033382Y026296D01*
X033325Y026353D01*
X033155Y026353D01*
X033155Y026239D01*
X033155Y026353D02*
X033268Y026466D01*
X033382Y026523D01*
X031552Y025591D02*
X031552Y025477D01*
X031495Y025420D01*
X031495Y025279D02*
X031268Y025279D01*
X031211Y025222D01*
X031211Y025052D01*
X031552Y025052D01*
X031552Y025222D01*
X031495Y025279D01*
X031268Y025420D02*
X031211Y025477D01*
X031211Y025591D01*
X031268Y025647D01*
X031325Y025647D01*
X031382Y025591D01*
X031438Y025647D01*
X031495Y025647D01*
X031552Y025591D01*
X031382Y025591D02*
X031382Y025534D01*
X031413Y024554D02*
X031186Y024554D01*
X031045Y024497D02*
X030988Y024554D01*
X030875Y024554D01*
X030818Y024497D01*
X030818Y024271D01*
X030875Y024214D01*
X030988Y024214D01*
X031045Y024271D01*
X031186Y024271D02*
X031186Y024214D01*
X031186Y024271D02*
X031413Y024497D01*
X031413Y024554D01*
X031555Y024441D02*
X031668Y024554D01*
X031668Y024214D01*
X031555Y024214D02*
X031781Y024214D01*
X030010Y024384D02*
X029783Y024384D01*
X029953Y024554D01*
X029953Y024214D01*
X029642Y024271D02*
X029642Y024497D01*
X029585Y024554D01*
X029471Y024554D01*
X029415Y024497D01*
X029415Y024441D01*
X029471Y024384D01*
X029642Y024384D01*
X029642Y024271D02*
X029585Y024214D01*
X029471Y024214D01*
X029415Y024271D01*
X029273Y024214D02*
X029160Y024327D01*
X029216Y024327D02*
X029046Y024327D01*
X029046Y024214D02*
X029046Y024554D01*
X029216Y024554D01*
X029273Y024497D01*
X029273Y024384D01*
X029216Y024327D01*
X028969Y025395D02*
X028855Y025395D01*
X028799Y025452D01*
X028799Y025508D01*
X028855Y025565D01*
X028969Y025565D01*
X029026Y025508D01*
X029026Y025452D01*
X028969Y025395D01*
X028969Y025565D02*
X029026Y025622D01*
X029026Y025679D01*
X028969Y025735D01*
X028855Y025735D01*
X028799Y025679D01*
X028799Y025622D01*
X028855Y025565D01*
X028657Y025508D02*
X028601Y025565D01*
X028430Y025565D01*
X028430Y025452D01*
X028487Y025395D01*
X028601Y025395D01*
X028657Y025452D01*
X028657Y025508D01*
X028544Y025679D02*
X028430Y025565D01*
X028544Y025679D02*
X028657Y025735D01*
X028599Y026062D02*
X028259Y026062D01*
X028259Y026232D01*
X028315Y026289D01*
X028429Y026289D01*
X028486Y026232D01*
X028486Y026062D01*
X028486Y026175D02*
X028599Y026289D01*
X028542Y026430D02*
X028599Y026487D01*
X028599Y026600D01*
X028542Y026657D01*
X028315Y026657D01*
X028259Y026600D01*
X028259Y026487D01*
X028315Y026430D01*
X028372Y026430D01*
X028429Y026487D01*
X028429Y026657D01*
X028315Y026798D02*
X028259Y026855D01*
X028259Y026969D01*
X028315Y027025D01*
X028372Y027025D01*
X028599Y026798D01*
X028599Y027025D01*
X028843Y027001D02*
X028843Y027115D01*
X028900Y027171D01*
X029127Y027171D01*
X029183Y027115D01*
X029183Y027001D01*
X029127Y026944D01*
X029013Y027001D02*
X029013Y027171D01*
X029013Y027313D02*
X028956Y027426D01*
X028956Y027483D01*
X029013Y027540D01*
X029127Y027540D01*
X029183Y027483D01*
X029183Y027369D01*
X029127Y027313D01*
X029013Y027313D02*
X028843Y027313D01*
X028843Y027540D01*
X028843Y027001D02*
X028900Y026944D01*
X028956Y026944D01*
X029013Y027001D01*
X029013Y026803D02*
X029070Y026746D01*
X029070Y026576D01*
X029183Y026576D02*
X028843Y026576D01*
X028843Y026746D01*
X028900Y026803D01*
X029013Y026803D01*
X029070Y026690D02*
X029183Y026803D01*
X028008Y026798D02*
X027952Y026798D01*
X027725Y027025D01*
X027668Y027025D01*
X027668Y026798D01*
X027668Y026657D02*
X027725Y026544D01*
X027838Y026430D01*
X027838Y026600D01*
X027895Y026657D01*
X027952Y026657D01*
X028008Y026600D01*
X028008Y026487D01*
X027952Y026430D01*
X027838Y026430D01*
X027725Y026289D02*
X027668Y026232D01*
X027668Y026118D01*
X027725Y026062D01*
X027952Y026062D01*
X028008Y026118D01*
X028008Y026232D01*
X027952Y026289D01*
X028119Y025735D02*
X028062Y025679D01*
X028062Y025452D01*
X028119Y025395D01*
X028232Y025395D01*
X028289Y025452D01*
X028289Y025679D02*
X028232Y025735D01*
X028119Y025735D01*
X027018Y027364D02*
X026678Y027364D01*
X026678Y027534D01*
X026734Y027590D01*
X026848Y027590D01*
X026904Y027534D01*
X026904Y027364D01*
X026904Y027477D02*
X027018Y027590D01*
X026961Y027732D02*
X027018Y027789D01*
X027018Y027902D01*
X026961Y027959D01*
X026734Y027959D01*
X026678Y027902D01*
X026678Y027789D01*
X026734Y027732D01*
X026791Y027732D01*
X026848Y027789D01*
X026848Y027959D01*
X026961Y028100D02*
X027018Y028157D01*
X027018Y028270D01*
X026961Y028327D01*
X026904Y028327D01*
X026848Y028270D01*
X026848Y028214D01*
X026848Y028270D02*
X026791Y028327D01*
X026734Y028327D01*
X026678Y028270D01*
X026678Y028157D01*
X026734Y028100D01*
X027859Y028798D02*
X027915Y028741D01*
X028142Y028741D01*
X028199Y028798D01*
X028199Y028912D01*
X028142Y028968D01*
X028142Y029110D02*
X028199Y029110D01*
X028142Y029110D02*
X027915Y029337D01*
X027859Y029337D01*
X027859Y029110D01*
X027915Y028968D02*
X027859Y028912D01*
X027859Y028798D01*
X027915Y029478D02*
X027859Y029535D01*
X027859Y029648D01*
X027915Y029705D01*
X028142Y029478D01*
X028199Y029535D01*
X028199Y029648D01*
X028142Y029705D01*
X027915Y029705D01*
X027915Y029478D02*
X028142Y029478D01*
X029243Y029332D02*
X029413Y029332D01*
X029470Y029389D01*
X029470Y029616D01*
X029413Y029672D01*
X029243Y029672D01*
X029243Y029332D01*
X029612Y029332D02*
X029838Y029332D01*
X029725Y029332D02*
X029725Y029672D01*
X029612Y029559D01*
X030424Y029419D02*
X030424Y029192D01*
X030481Y029135D01*
X030594Y029135D01*
X030651Y029192D01*
X030793Y029192D02*
X030849Y029135D01*
X030963Y029135D01*
X031019Y029192D01*
X031019Y029249D01*
X030963Y029305D01*
X030793Y029305D01*
X030793Y029192D01*
X030793Y029305D02*
X030906Y029419D01*
X031019Y029475D01*
X031161Y029305D02*
X031274Y029419D01*
X031388Y029475D01*
X031331Y029305D02*
X031161Y029305D01*
X031161Y029192D01*
X031218Y029135D01*
X031331Y029135D01*
X031388Y029192D01*
X031388Y029249D01*
X031331Y029305D01*
X030651Y029419D02*
X030594Y029475D01*
X030481Y029475D01*
X030424Y029419D01*
X030678Y030119D02*
X030791Y030119D01*
X030848Y030176D01*
X030989Y030176D02*
X031046Y030119D01*
X031160Y030119D01*
X031216Y030176D01*
X031216Y030233D01*
X031160Y030290D01*
X030989Y030290D01*
X030989Y030176D01*
X030989Y030290D02*
X031103Y030403D01*
X031216Y030460D01*
X031358Y030403D02*
X031358Y030346D01*
X031414Y030290D01*
X031585Y030290D01*
X031585Y030403D02*
X031585Y030176D01*
X031528Y030119D01*
X031414Y030119D01*
X031358Y030176D01*
X031358Y030403D02*
X031414Y030460D01*
X031528Y030460D01*
X031585Y030403D01*
X030848Y030403D02*
X030791Y030460D01*
X030678Y030460D01*
X030621Y030403D01*
X030621Y030176D01*
X030678Y030119D01*
X030035Y030119D02*
X029808Y030119D01*
X030035Y030346D01*
X030035Y030403D01*
X029979Y030460D01*
X029865Y030460D01*
X029808Y030403D01*
X029667Y030403D02*
X029610Y030460D01*
X029440Y030460D01*
X029440Y030119D01*
X029610Y030119D01*
X029667Y030176D01*
X029667Y030403D01*
X032787Y028491D02*
X032787Y028151D01*
X033013Y028151D01*
X033155Y028208D02*
X033212Y028151D01*
X033325Y028151D01*
X033382Y028208D01*
X033382Y028321D01*
X033325Y028378D01*
X033268Y028378D01*
X033155Y028321D01*
X033155Y028491D01*
X033382Y028491D01*
X029971Y022815D02*
X029971Y022588D01*
X029971Y022702D02*
X029630Y022702D01*
X029744Y022588D01*
X029801Y022447D02*
X029914Y022447D01*
X029971Y022390D01*
X029971Y022277D01*
X029914Y022220D01*
X029801Y022220D02*
X029744Y022333D01*
X029744Y022390D01*
X029801Y022447D01*
X029630Y022447D02*
X029630Y022220D01*
X029801Y022220D01*
X029914Y022079D02*
X029971Y022022D01*
X029971Y021908D01*
X029914Y021852D01*
X029687Y021852D01*
X029630Y021908D01*
X029630Y022022D01*
X029687Y022079D01*
X028314Y022239D02*
X028088Y022239D01*
X028201Y022239D02*
X028201Y022579D01*
X028088Y022466D01*
X027946Y022523D02*
X027889Y022579D01*
X027776Y022579D01*
X027719Y022523D01*
X027719Y022466D01*
X027776Y022409D01*
X027889Y022409D01*
X027946Y022353D01*
X027946Y022296D01*
X027889Y022239D01*
X027776Y022239D01*
X027719Y022296D01*
X027578Y022296D02*
X027578Y022579D01*
X027351Y022579D02*
X027351Y022296D01*
X027408Y022239D01*
X027521Y022239D01*
X027578Y022296D01*
X027833Y022182D02*
X027833Y022636D01*
X026630Y022104D02*
X026630Y021877D01*
X026404Y022104D01*
X026347Y022104D01*
X026290Y022047D01*
X026290Y021934D01*
X026347Y021877D01*
X026347Y021736D02*
X026574Y021509D01*
X026630Y021509D01*
X026574Y021367D02*
X026630Y021311D01*
X026630Y021197D01*
X026574Y021141D01*
X026347Y021141D01*
X026290Y021197D01*
X026290Y021311D01*
X026347Y021367D01*
X026290Y021509D02*
X026290Y021736D01*
X026347Y021736D01*
X027909Y019824D02*
X028022Y019710D01*
X028930Y017068D02*
X028817Y017011D01*
X031465Y015499D02*
X031579Y015499D01*
X031635Y015442D01*
X032564Y014765D02*
X032791Y014765D01*
X032760Y013924D02*
X032646Y013924D01*
X032590Y013868D01*
X032590Y013641D01*
X032646Y013584D01*
X032760Y013584D01*
X032817Y013641D01*
X032958Y013584D02*
X033185Y013811D01*
X033185Y013868D01*
X033128Y013924D01*
X033015Y013924D01*
X032958Y013868D01*
X032817Y013868D02*
X032760Y013924D01*
X032958Y013584D02*
X033185Y013584D01*
X033326Y013641D02*
X033383Y013584D01*
X033496Y013584D01*
X033553Y013641D01*
X033553Y013697D01*
X033496Y013754D01*
X033326Y013754D01*
X033326Y013641D01*
X033326Y013754D02*
X033440Y013868D01*
X033553Y013924D01*
X033771Y013830D02*
X033827Y013887D01*
X033941Y013887D01*
X033997Y013830D01*
X033997Y013660D01*
X033997Y013774D02*
X034111Y013887D01*
X034111Y014029D02*
X034054Y014029D01*
X033827Y014255D01*
X033771Y014255D01*
X033771Y014029D01*
X033771Y013830D02*
X033771Y013660D01*
X034111Y013660D01*
X033553Y013334D02*
X033553Y013277D01*
X033326Y013050D01*
X033326Y012993D01*
X033128Y012993D02*
X033128Y013334D01*
X032958Y013164D01*
X033185Y013164D01*
X033326Y013334D02*
X033553Y013334D01*
X032817Y013277D02*
X032760Y013334D01*
X032646Y013334D01*
X032590Y013277D01*
X032590Y013050D01*
X032646Y012993D01*
X032760Y012993D01*
X032817Y013050D01*
X032251Y013634D02*
X032195Y013578D01*
X032081Y013578D01*
X032025Y013634D01*
X032081Y013748D02*
X032251Y013748D01*
X032251Y013861D02*
X032195Y013918D01*
X032081Y013918D01*
X032025Y013861D01*
X032025Y013805D01*
X032081Y013748D01*
X032251Y013634D02*
X032251Y013861D01*
X031883Y013918D02*
X031770Y013861D01*
X031656Y013748D01*
X031826Y013748D01*
X031883Y013691D01*
X031883Y013634D01*
X031826Y013578D01*
X031713Y013578D01*
X031656Y013634D01*
X031656Y013748D01*
X031515Y013748D02*
X031458Y013691D01*
X031288Y013691D01*
X031288Y013578D02*
X031288Y013918D01*
X031458Y013918D01*
X031515Y013861D01*
X031515Y013748D01*
X031401Y013691D02*
X031515Y013578D01*
X031070Y013608D02*
X031070Y013664D01*
X031014Y013721D01*
X030900Y013721D01*
X030843Y013664D01*
X030702Y013551D02*
X030475Y013551D01*
X030645Y013721D01*
X030645Y013381D01*
X030843Y013381D02*
X031070Y013608D01*
X031070Y013381D02*
X030843Y013381D01*
X030550Y013781D02*
X030550Y014008D01*
X030436Y014121D01*
X030323Y014008D01*
X030323Y013781D01*
X030277Y013721D02*
X030334Y013664D01*
X030334Y013551D01*
X030277Y013494D01*
X030107Y013494D01*
X030107Y013381D02*
X030107Y013721D01*
X030277Y013721D01*
X030220Y013494D02*
X030334Y013381D01*
X029586Y013781D02*
X029586Y014121D01*
X029756Y014121D01*
X029813Y014064D01*
X029813Y013951D01*
X029756Y013894D01*
X029586Y013894D01*
X029445Y013781D02*
X029445Y014121D01*
X029331Y014008D01*
X029218Y014121D01*
X029218Y013781D01*
X029076Y013781D02*
X029076Y014008D01*
X028963Y014121D01*
X028850Y014008D01*
X028850Y013781D01*
X028848Y013721D02*
X028905Y013664D01*
X028678Y013438D01*
X028735Y013381D01*
X028848Y013381D01*
X028905Y013438D01*
X028905Y013664D01*
X028848Y013721D02*
X028735Y013721D01*
X028678Y013664D01*
X028678Y013438D01*
X028537Y013438D02*
X028480Y013381D01*
X028366Y013381D01*
X028310Y013438D01*
X028310Y013551D02*
X028423Y013608D01*
X028480Y013608D01*
X028537Y013551D01*
X028537Y013438D01*
X028310Y013551D02*
X028310Y013721D01*
X028537Y013721D01*
X028168Y013664D02*
X028112Y013721D01*
X027998Y013721D01*
X027941Y013664D01*
X027941Y013438D01*
X027998Y013381D01*
X028112Y013381D01*
X028168Y013438D01*
X028850Y013951D02*
X029076Y013951D01*
X029954Y013951D02*
X030181Y013951D01*
X030323Y013951D02*
X030550Y013951D01*
X029123Y011556D02*
X029123Y011216D01*
X033771Y014454D02*
X033771Y014567D01*
X033827Y014624D01*
X033884Y014624D01*
X033941Y014567D01*
X033941Y014454D01*
X033884Y014397D01*
X033827Y014397D01*
X033771Y014454D01*
X033941Y014454D02*
X033997Y014397D01*
X034054Y014397D01*
X034111Y014454D01*
X034111Y014567D01*
X034054Y014624D01*
X033997Y014624D01*
X033941Y014567D01*
X035098Y015723D02*
X035325Y015723D01*
X035268Y015893D02*
X035098Y015723D01*
X035268Y015553D02*
X035268Y015893D01*
X035268Y016340D02*
X035155Y016340D01*
X035098Y016397D01*
X035098Y016510D02*
X035211Y016567D01*
X035268Y016567D01*
X035325Y016510D01*
X035325Y016397D01*
X035268Y016340D01*
X035098Y016510D02*
X035098Y016680D01*
X035325Y016680D01*
X036940Y015696D02*
X037110Y015696D01*
X037167Y015639D01*
X037167Y015412D01*
X037110Y015356D01*
X036940Y015356D01*
X036940Y015696D01*
X037308Y015696D02*
X037535Y015696D01*
X037535Y015639D01*
X037308Y015412D01*
X037308Y015356D01*
X037905Y015609D02*
X037961Y015553D01*
X038075Y015553D01*
X038131Y015609D01*
X038131Y015723D01*
X038018Y015723D01*
X037905Y015836D02*
X037961Y015893D01*
X038075Y015893D01*
X038131Y015836D01*
X038273Y015893D02*
X038273Y015553D01*
X038273Y015666D02*
X038443Y015666D01*
X038500Y015723D01*
X038500Y015836D01*
X038443Y015893D01*
X038273Y015893D01*
X038641Y015893D02*
X038755Y015893D01*
X038698Y015893D02*
X038698Y015553D01*
X038641Y015553D02*
X038755Y015553D01*
X038887Y015609D02*
X038943Y015553D01*
X039057Y015553D01*
X039114Y015609D01*
X039114Y015836D01*
X039057Y015893D01*
X038943Y015893D01*
X038887Y015836D01*
X038887Y015609D01*
X039255Y015553D02*
X039482Y015553D01*
X039369Y015553D02*
X039369Y015893D01*
X039255Y015779D01*
X037905Y015836D02*
X037905Y015609D01*
X038048Y017769D02*
X037708Y017769D01*
X037708Y017939D01*
X037764Y017996D01*
X037991Y017996D01*
X038048Y017939D01*
X038048Y017769D01*
X037991Y018137D02*
X037934Y018137D01*
X037878Y018194D01*
X037878Y018307D01*
X037934Y018364D01*
X037991Y018364D01*
X038048Y018307D01*
X038048Y018194D01*
X037991Y018137D01*
X037878Y018194D02*
X037821Y018137D01*
X037764Y018137D01*
X037708Y018194D01*
X037708Y018307D01*
X037764Y018364D01*
X037821Y018364D01*
X037878Y018307D01*
X038653Y019483D02*
X038767Y019483D01*
X038824Y019540D01*
X038965Y019483D02*
X038965Y019824D01*
X038824Y019767D02*
X038767Y019824D01*
X038653Y019824D01*
X038597Y019767D01*
X038597Y019540D01*
X038653Y019483D01*
X038965Y019653D02*
X039192Y019653D01*
X039333Y019653D02*
X039560Y019653D01*
X039702Y019653D02*
X039872Y019653D01*
X039929Y019597D01*
X039929Y019540D01*
X039872Y019483D01*
X039702Y019483D01*
X039702Y019824D01*
X039872Y019824D01*
X039929Y019767D01*
X039929Y019710D01*
X039872Y019653D01*
X039192Y019483D02*
X039192Y019824D01*
X023685Y021064D02*
X023458Y021064D01*
X023685Y021291D01*
X023685Y021348D01*
X023629Y021405D01*
X023515Y021405D01*
X023458Y021348D01*
X023317Y021405D02*
X023090Y021405D01*
X023204Y021405D02*
X023204Y021064D01*
X022949Y021064D02*
X022722Y021064D01*
X022722Y021405D01*
X022949Y021405D01*
X022835Y021234D02*
X022722Y021234D01*
X022580Y021405D02*
X022353Y021405D01*
X022353Y021064D01*
X022353Y021234D02*
X022467Y021234D01*
X022022Y021011D02*
X022022Y020671D01*
X021909Y020671D02*
X022136Y020671D01*
X021909Y020897D02*
X022022Y021011D01*
X021768Y021011D02*
X021541Y021011D01*
X021541Y020841D01*
X021654Y020897D01*
X021711Y020897D01*
X021768Y020841D01*
X021768Y020727D01*
X021711Y020671D01*
X021597Y020671D01*
X021541Y020727D01*
X021399Y020671D02*
X021286Y020784D01*
X021342Y020784D02*
X021172Y020784D01*
X021172Y020671D02*
X021172Y021011D01*
X021342Y021011D01*
X021399Y020954D01*
X021399Y020841D01*
X021342Y020784D01*
X020758Y020027D02*
X020644Y019970D01*
X020531Y019856D01*
X020701Y019856D01*
X020758Y019800D01*
X020758Y019743D01*
X020701Y019686D01*
X020588Y019686D01*
X020531Y019743D01*
X020531Y019856D01*
X020390Y019856D02*
X020163Y019856D01*
X020333Y020027D01*
X020333Y019686D01*
X020021Y019686D02*
X019908Y019800D01*
X019965Y019800D02*
X019794Y019800D01*
X019794Y019686D02*
X019794Y020027D01*
X019965Y020027D01*
X020021Y019970D01*
X020021Y019856D01*
X019965Y019800D01*
X020047Y019430D02*
X019933Y019373D01*
X019820Y019260D01*
X019990Y019260D01*
X020047Y019203D01*
X020047Y019146D01*
X019990Y019090D01*
X019876Y019090D01*
X019820Y019146D01*
X019820Y019260D01*
X019678Y019373D02*
X019622Y019430D01*
X019508Y019430D01*
X019451Y019373D01*
X019451Y019146D01*
X019508Y019090D01*
X019622Y019090D01*
X019678Y019146D01*
X019648Y018249D02*
X019875Y018249D01*
X020017Y018249D02*
X020243Y018249D01*
X020130Y018249D02*
X020130Y017908D01*
X019762Y018079D02*
X019648Y018079D01*
X019648Y018249D02*
X019648Y017908D01*
X019516Y017908D02*
X019403Y017908D01*
X019459Y017908D02*
X019459Y018249D01*
X019403Y018249D02*
X019516Y018249D01*
X019261Y018249D02*
X019261Y017908D01*
X019261Y018079D02*
X019034Y018079D01*
X018893Y018022D02*
X018893Y017965D01*
X018836Y017908D01*
X018723Y017908D01*
X018666Y017965D01*
X018723Y018079D02*
X018836Y018079D01*
X018893Y018022D01*
X018893Y018192D02*
X018836Y018249D01*
X018723Y018249D01*
X018666Y018192D01*
X018666Y018135D01*
X018723Y018079D01*
X018525Y018079D02*
X018298Y018079D01*
X018156Y017908D02*
X017930Y017908D01*
X017930Y018249D01*
X017788Y018249D02*
X017561Y018249D01*
X017561Y017908D01*
X017788Y017908D01*
X017675Y018079D02*
X017561Y018079D01*
X017420Y018022D02*
X017420Y018249D01*
X017193Y018249D02*
X017193Y018022D01*
X017306Y017908D01*
X017420Y018022D01*
X017051Y017908D02*
X016825Y017908D01*
X016825Y018249D01*
X017051Y018249D01*
X016938Y018079D02*
X016825Y018079D01*
X016683Y017908D02*
X016456Y017908D01*
X016456Y018249D01*
X015125Y018556D02*
X015069Y018499D01*
X014955Y018499D01*
X014899Y018556D01*
X014899Y018612D01*
X014955Y018669D01*
X015069Y018669D01*
X015125Y018612D01*
X015125Y018556D01*
X015069Y018669D02*
X015125Y018726D01*
X015125Y018783D01*
X015069Y018839D01*
X014955Y018839D01*
X014899Y018783D01*
X014899Y018726D01*
X014955Y018669D01*
X014757Y018499D02*
X014530Y018499D01*
X014644Y018499D02*
X014644Y018839D01*
X014530Y018726D01*
X014389Y018783D02*
X014332Y018839D01*
X014219Y018839D01*
X014162Y018783D01*
X014162Y018556D01*
X014219Y018499D01*
X014332Y018499D01*
X014389Y018556D01*
X013157Y019146D02*
X013100Y019090D01*
X012987Y019090D01*
X012930Y019146D01*
X012930Y019373D01*
X012987Y019430D01*
X013100Y019430D01*
X013157Y019373D01*
X012789Y019430D02*
X012789Y019146D01*
X012732Y019090D01*
X012618Y019090D01*
X012562Y019146D01*
X012562Y019430D01*
X011670Y019342D02*
X011613Y019399D01*
X011670Y019342D02*
X011670Y019229D01*
X011613Y019172D01*
X011386Y019172D01*
X011330Y019229D01*
X011330Y019342D01*
X011386Y019399D01*
X011386Y019540D02*
X011330Y019597D01*
X011330Y019710D01*
X011386Y019767D01*
X011443Y019767D01*
X011670Y019540D01*
X011670Y019767D01*
X011613Y019909D02*
X011386Y020135D01*
X011613Y020135D01*
X011670Y020079D01*
X011670Y019965D01*
X011613Y019909D01*
X011386Y019909D01*
X011330Y019965D01*
X011330Y020079D01*
X011386Y020135D01*
X011406Y021452D02*
X011406Y021792D01*
X011576Y021792D01*
X011633Y021735D01*
X011633Y021622D01*
X011576Y021565D01*
X011406Y021565D01*
X011519Y021565D02*
X011633Y021452D01*
X011774Y021622D02*
X012001Y021622D01*
X012143Y021679D02*
X012199Y021622D01*
X012369Y021622D01*
X012369Y021735D02*
X012313Y021792D01*
X012199Y021792D01*
X012143Y021735D01*
X012143Y021679D01*
X012143Y021508D02*
X012199Y021452D01*
X012313Y021452D01*
X012369Y021508D01*
X012369Y021735D01*
X011944Y021792D02*
X011944Y021452D01*
X011774Y021622D02*
X011944Y021792D01*
X011467Y022442D02*
X011126Y022442D01*
X011126Y022612D01*
X011183Y022669D01*
X011297Y022669D01*
X011353Y022612D01*
X011353Y022442D01*
X011353Y022556D02*
X011467Y022669D01*
X011297Y022811D02*
X011297Y023037D01*
X011353Y023179D02*
X011297Y023236D01*
X011297Y023349D01*
X011353Y023406D01*
X011410Y023406D01*
X011467Y023349D01*
X011467Y023236D01*
X011410Y023179D01*
X011353Y023179D01*
X011297Y023236D02*
X011240Y023179D01*
X011183Y023179D01*
X011126Y023236D01*
X011126Y023349D01*
X011183Y023406D01*
X011240Y023406D01*
X011297Y023349D01*
X011467Y022981D02*
X011126Y022981D01*
X011297Y022811D01*
X012708Y022753D02*
X012878Y022753D01*
X012935Y022809D01*
X012935Y022923D01*
X012878Y022979D01*
X012708Y022979D01*
X012708Y022639D01*
X012821Y022753D02*
X012935Y022639D01*
X013076Y022639D02*
X013076Y022696D01*
X013303Y022923D01*
X013303Y022979D01*
X013076Y022979D01*
X008750Y022923D02*
X008693Y022979D01*
X008580Y022979D01*
X008523Y022923D01*
X008523Y022696D01*
X008580Y022639D01*
X008693Y022639D01*
X008750Y022696D01*
X008382Y022979D02*
X008155Y022979D01*
X008268Y022979D02*
X008268Y022639D01*
X008013Y022639D02*
X007900Y022753D01*
X007957Y022753D02*
X007787Y022753D01*
X007787Y022639D02*
X007787Y022979D01*
X007957Y022979D01*
X008013Y022923D01*
X008013Y022809D01*
X007957Y022753D01*
X005994Y022529D02*
X005767Y022302D01*
X005824Y022245D01*
X005937Y022245D01*
X005994Y022302D01*
X005994Y022529D01*
X005937Y022586D01*
X005824Y022586D01*
X005767Y022529D01*
X005767Y022302D01*
X005626Y022302D02*
X005626Y022359D01*
X005569Y022416D01*
X005399Y022416D01*
X005399Y022302D01*
X005456Y022245D01*
X005569Y022245D01*
X005626Y022302D01*
X005512Y022529D02*
X005399Y022416D01*
X005512Y022529D02*
X005626Y022586D01*
X005257Y022529D02*
X005201Y022586D01*
X005087Y022586D01*
X005031Y022529D01*
X005031Y022302D01*
X005087Y022245D01*
X005201Y022245D01*
X005257Y022302D01*
X007132Y024995D02*
X007245Y024995D01*
X007302Y025052D01*
X007444Y025052D02*
X007500Y024995D01*
X007614Y024995D01*
X007670Y025052D01*
X007670Y025108D01*
X007614Y025165D01*
X007557Y025165D01*
X007614Y025165D02*
X007670Y025222D01*
X007670Y025279D01*
X007614Y025335D01*
X007500Y025335D01*
X007444Y025279D01*
X007302Y025279D02*
X007245Y025335D01*
X007132Y025335D01*
X007075Y025279D01*
X007075Y025052D01*
X007132Y024995D01*
X007812Y025052D02*
X007812Y025279D01*
X007869Y025335D01*
X007982Y025335D01*
X008039Y025279D01*
X007812Y025052D01*
X007869Y024995D01*
X007982Y024995D01*
X008039Y025052D01*
X008039Y025279D01*
X004782Y019239D02*
X004838Y019183D01*
X004838Y019126D01*
X004782Y019069D01*
X004668Y019069D01*
X004612Y019126D01*
X004612Y019183D01*
X004668Y019239D01*
X004782Y019239D01*
X004782Y019069D02*
X004838Y019012D01*
X004838Y018956D01*
X004782Y018899D01*
X004668Y018899D01*
X004612Y018956D01*
X004612Y019012D01*
X004668Y019069D01*
X004470Y019069D02*
X004413Y019012D01*
X004243Y019012D01*
X004243Y018899D02*
X004243Y019239D01*
X004413Y019239D01*
X004470Y019183D01*
X004470Y019069D01*
X004357Y019012D02*
X004470Y018899D01*
X004413Y018649D02*
X004470Y018592D01*
X004470Y018479D01*
X004413Y018422D01*
X004243Y018422D01*
X004243Y018308D02*
X004243Y018649D01*
X004413Y018649D01*
X004612Y018535D02*
X004725Y018649D01*
X004725Y018308D01*
X004612Y018308D02*
X004838Y018308D01*
X004980Y018308D02*
X005207Y018308D01*
X005093Y018308D02*
X005093Y018649D01*
X004980Y018535D01*
X004470Y018308D02*
X004357Y018422D01*
X004413Y018058D02*
X004470Y018001D01*
X004470Y017888D01*
X004413Y017831D01*
X004243Y017831D01*
X004243Y017718D02*
X004243Y018058D01*
X004413Y018058D01*
X004612Y017945D02*
X004725Y018058D01*
X004725Y017718D01*
X004612Y017718D02*
X004838Y017718D01*
X004980Y017718D02*
X005207Y017945D01*
X005207Y018001D01*
X005150Y018058D01*
X005037Y018058D01*
X004980Y018001D01*
X004980Y017718D02*
X005207Y017718D01*
X005150Y017468D02*
X005207Y017411D01*
X004980Y017184D01*
X005037Y017127D01*
X005150Y017127D01*
X005207Y017184D01*
X005207Y017411D01*
X005150Y017468D02*
X005037Y017468D01*
X004980Y017411D01*
X004980Y017184D01*
X004838Y017127D02*
X004612Y017127D01*
X004725Y017127D02*
X004725Y017468D01*
X004612Y017354D01*
X004470Y017297D02*
X004413Y017241D01*
X004243Y017241D01*
X004357Y017241D02*
X004470Y017127D01*
X004470Y017297D02*
X004470Y017411D01*
X004413Y017468D01*
X004243Y017468D01*
X004243Y017127D01*
X004470Y017718D02*
X004357Y017831D01*
X004376Y007816D02*
X004319Y007759D01*
X004319Y007532D01*
X004376Y007475D01*
X004490Y007475D01*
X004546Y007532D01*
X004688Y007532D02*
X004744Y007475D01*
X004858Y007475D01*
X004915Y007532D01*
X004915Y007589D01*
X004858Y007645D01*
X004801Y007645D01*
X004858Y007645D02*
X004915Y007702D01*
X004915Y007759D01*
X004858Y007816D01*
X004744Y007816D01*
X004688Y007759D01*
X004546Y007759D02*
X004490Y007816D01*
X004376Y007816D01*
X004319Y007225D02*
X004490Y007225D01*
X004546Y007168D01*
X004546Y007055D01*
X004490Y006998D01*
X004319Y006998D01*
X004319Y006885D02*
X004319Y007225D01*
X004433Y006998D02*
X004546Y006885D01*
X004688Y007055D02*
X004915Y007055D01*
X004858Y007225D02*
X004688Y007055D01*
X004858Y006885D02*
X004858Y007225D01*
X004686Y006635D02*
X004573Y006635D01*
X004516Y006578D01*
X004516Y006351D01*
X004573Y006294D01*
X004686Y006294D01*
X004743Y006351D01*
X004743Y006578D02*
X004686Y006635D01*
X008123Y005594D02*
X008180Y005650D01*
X008293Y005650D01*
X008350Y005594D01*
X008350Y005537D01*
X008293Y005480D01*
X008350Y005423D01*
X008350Y005367D01*
X008293Y005310D01*
X008180Y005310D01*
X008123Y005367D01*
X008236Y005480D02*
X008293Y005480D01*
X008491Y005367D02*
X008548Y005367D01*
X008548Y005310D01*
X008491Y005310D01*
X008491Y005367D01*
X008675Y005367D02*
X008732Y005310D01*
X008846Y005310D01*
X008902Y005367D01*
X008902Y005423D01*
X008846Y005480D01*
X008789Y005480D01*
X008846Y005480D02*
X008902Y005537D01*
X008902Y005594D01*
X008846Y005650D01*
X008732Y005650D01*
X008675Y005594D01*
X009044Y005650D02*
X009044Y005423D01*
X009157Y005310D01*
X009271Y005423D01*
X009271Y005650D01*
X009412Y005650D02*
X009582Y005650D01*
X009639Y005594D01*
X009639Y005367D01*
X009582Y005310D01*
X009412Y005310D01*
X009412Y005650D01*
X009780Y005594D02*
X009780Y005367D01*
X009837Y005310D01*
X009951Y005310D01*
X010007Y005367D01*
X010007Y005594D02*
X009951Y005650D01*
X009837Y005650D01*
X009780Y005594D01*
X010936Y005403D02*
X010936Y005176D01*
X010993Y005119D01*
X011106Y005119D01*
X011163Y005176D01*
X011304Y005119D02*
X011531Y005119D01*
X011418Y005119D02*
X011418Y005460D01*
X011304Y005346D01*
X011163Y005403D02*
X011106Y005460D01*
X010993Y005460D01*
X010936Y005403D01*
X011673Y005460D02*
X011900Y005460D01*
X011900Y005403D01*
X011673Y005176D01*
X011673Y005119D01*
X011977Y005907D02*
X012091Y005907D01*
X012147Y005964D01*
X012289Y005907D02*
X012516Y005907D01*
X012402Y005907D02*
X012402Y006247D01*
X012289Y006134D01*
X012147Y006190D02*
X012091Y006247D01*
X011977Y006247D01*
X011920Y006190D01*
X011920Y005964D01*
X011977Y005907D01*
X012657Y005964D02*
X012714Y005907D01*
X012827Y005907D01*
X012884Y005964D01*
X012884Y006077D01*
X012827Y006134D01*
X012770Y006134D01*
X012657Y006077D01*
X012657Y006247D01*
X012884Y006247D01*
X013298Y006387D02*
X013355Y006444D01*
X013468Y006444D01*
X013525Y006387D01*
X013525Y006331D01*
X013298Y006104D01*
X013525Y006104D01*
X013667Y006104D02*
X013723Y006104D01*
X013723Y006160D01*
X013667Y006160D01*
X013667Y006104D01*
X013851Y006160D02*
X013907Y006104D01*
X014021Y006104D01*
X014078Y006160D01*
X014078Y006274D01*
X014021Y006331D01*
X013964Y006331D01*
X013851Y006274D01*
X013851Y006444D01*
X014078Y006444D01*
X014219Y006444D02*
X014219Y006217D01*
X014333Y006104D01*
X014446Y006217D01*
X014446Y006444D01*
X014587Y006444D02*
X014587Y006104D01*
X014758Y006104D01*
X014814Y006160D01*
X014814Y006387D01*
X014758Y006444D01*
X014587Y006444D01*
X014956Y006387D02*
X014956Y006160D01*
X015012Y006104D01*
X015126Y006104D01*
X015183Y006160D01*
X015183Y006387D02*
X015126Y006444D01*
X015012Y006444D01*
X014956Y006387D01*
X015124Y005889D02*
X014954Y005719D01*
X015181Y005719D01*
X015124Y005549D02*
X015124Y005889D01*
X014813Y005549D02*
X014586Y005549D01*
X014586Y005889D01*
X015857Y005657D02*
X015857Y005316D01*
X015857Y005430D02*
X016028Y005430D01*
X016084Y005486D01*
X016084Y005600D01*
X016028Y005657D01*
X015857Y005657D01*
X015971Y005430D02*
X016084Y005316D01*
X016226Y005486D02*
X016453Y005486D01*
X016396Y005316D02*
X016396Y005657D01*
X016226Y005486D01*
X016594Y005373D02*
X016821Y005600D01*
X016821Y005373D01*
X016764Y005316D01*
X016651Y005316D01*
X016594Y005373D01*
X016594Y005600D01*
X016651Y005657D01*
X016764Y005657D01*
X016821Y005600D01*
X017286Y004483D02*
X017229Y004426D01*
X017229Y004313D01*
X017286Y004256D01*
X017342Y004256D01*
X017399Y004313D01*
X017399Y004483D01*
X017512Y004483D02*
X017286Y004483D01*
X017512Y004483D02*
X017569Y004426D01*
X017569Y004313D01*
X017512Y004256D01*
X017512Y004114D02*
X017456Y004114D01*
X017399Y004058D01*
X017399Y003888D01*
X017512Y003888D01*
X017569Y003944D01*
X017569Y004058D01*
X017512Y004114D01*
X017286Y004001D02*
X017399Y003888D01*
X017456Y003746D02*
X017399Y003689D01*
X017399Y003576D01*
X017342Y003519D01*
X017286Y003519D01*
X017229Y003576D01*
X017229Y003689D01*
X017286Y003746D01*
X017172Y003633D02*
X017626Y003633D01*
X017569Y003689D02*
X017512Y003746D01*
X017456Y003746D01*
X017569Y003689D02*
X017569Y003576D01*
X017512Y003519D01*
X017512Y003378D02*
X017229Y003378D01*
X017229Y003151D02*
X017512Y003151D01*
X017569Y003208D01*
X017569Y003321D01*
X017512Y003378D01*
X017540Y002894D02*
X017653Y002894D01*
X017710Y002838D01*
X017710Y002781D01*
X017653Y002724D01*
X017710Y002668D01*
X017710Y002611D01*
X017653Y002554D01*
X017540Y002554D01*
X017483Y002611D01*
X017342Y002611D02*
X017285Y002554D01*
X017171Y002554D01*
X017115Y002611D01*
X017115Y002838D01*
X017171Y002894D01*
X017285Y002894D01*
X017342Y002838D01*
X017483Y002838D02*
X017540Y002894D01*
X017596Y002724D02*
X017653Y002724D01*
X017851Y002724D02*
X018078Y002724D01*
X018021Y002554D02*
X018021Y002894D01*
X017851Y002724D01*
X017286Y004001D02*
X017229Y004114D01*
X014141Y002641D02*
X014141Y002584D01*
X014084Y002527D01*
X013971Y002527D01*
X013914Y002584D01*
X013914Y002641D01*
X013971Y002698D01*
X014084Y002698D01*
X014141Y002641D01*
X014084Y002527D02*
X014141Y002471D01*
X014141Y002414D01*
X014084Y002357D01*
X013971Y002357D01*
X013914Y002414D01*
X013914Y002471D01*
X013971Y002527D01*
X013773Y002471D02*
X013773Y002414D01*
X013716Y002357D01*
X013603Y002357D01*
X013546Y002414D01*
X013405Y002414D02*
X013348Y002357D01*
X013234Y002357D01*
X013178Y002414D01*
X013178Y002641D01*
X013234Y002698D01*
X013348Y002698D01*
X013405Y002641D01*
X013546Y002641D02*
X013603Y002698D01*
X013716Y002698D01*
X013773Y002641D01*
X013773Y002584D01*
X013716Y002527D01*
X013773Y002471D01*
X013716Y002527D02*
X013659Y002527D01*
X011900Y002477D02*
X011900Y002420D01*
X011843Y002364D01*
X011729Y002364D01*
X011673Y002420D01*
X011786Y002534D02*
X011843Y002534D01*
X011900Y002477D01*
X011843Y002534D02*
X011900Y002590D01*
X011900Y002647D01*
X011843Y002704D01*
X011729Y002704D01*
X011673Y002647D01*
X011531Y002534D02*
X011304Y002534D01*
X011475Y002704D01*
X011475Y002364D01*
X011163Y002364D02*
X011050Y002477D01*
X011106Y002477D02*
X010936Y002477D01*
X010936Y002364D02*
X010936Y002704D01*
X011106Y002704D01*
X011163Y002647D01*
X011163Y002534D01*
X011106Y002477D01*
X010795Y003932D02*
X010568Y003932D01*
X010681Y003932D02*
X010681Y004272D01*
X010568Y004159D01*
X010426Y004102D02*
X010200Y004102D01*
X010370Y004272D01*
X010370Y003932D01*
X010058Y003989D02*
X010001Y003932D01*
X009888Y003932D01*
X009831Y003989D01*
X009831Y004216D01*
X009888Y004272D01*
X010001Y004272D01*
X010058Y004216D01*
X009900Y006301D02*
X009956Y006357D01*
X009956Y006584D01*
X009900Y006641D01*
X009786Y006641D01*
X009730Y006584D01*
X009730Y006527D01*
X009786Y006471D01*
X009956Y006471D01*
X009900Y006301D02*
X009786Y006301D01*
X009730Y006357D01*
X009588Y006357D02*
X009531Y006301D01*
X009418Y006301D01*
X009361Y006357D01*
X009361Y006584D01*
X009418Y006641D01*
X009531Y006641D01*
X009588Y006584D01*
X018826Y008692D02*
X018883Y008635D01*
X018996Y008635D01*
X019053Y008692D01*
X019053Y008805D01*
X018939Y008805D01*
X018826Y008692D02*
X018826Y008919D01*
X018883Y008975D01*
X018996Y008975D01*
X019053Y008919D01*
X019194Y008975D02*
X019364Y008975D01*
X019421Y008919D01*
X019421Y008805D01*
X019364Y008749D01*
X019194Y008749D01*
X019194Y008635D02*
X019194Y008975D01*
X019563Y008975D02*
X019676Y008975D01*
X019619Y008975D02*
X019619Y008635D01*
X019563Y008635D02*
X019676Y008635D01*
X019808Y008692D02*
X019865Y008635D01*
X019978Y008635D01*
X020035Y008692D01*
X020035Y008919D01*
X019978Y008975D01*
X019865Y008975D01*
X019808Y008919D01*
X019808Y008692D01*
X020176Y008635D02*
X020403Y008862D01*
X020403Y008919D01*
X020346Y008975D01*
X020233Y008975D01*
X020176Y008919D01*
X020176Y008635D02*
X020403Y008635D01*
X021363Y008135D02*
X021703Y008135D01*
X021703Y008248D02*
X021703Y008021D01*
X021646Y007880D02*
X021589Y007880D01*
X021533Y007823D01*
X021533Y007653D01*
X021646Y007653D01*
X021703Y007710D01*
X021703Y007823D01*
X021646Y007880D01*
X021476Y008021D02*
X021363Y008135D01*
X021363Y007880D02*
X021419Y007767D01*
X021533Y007653D01*
X021646Y007512D02*
X021703Y007455D01*
X021703Y007341D01*
X021646Y007285D01*
X021419Y007285D01*
X021363Y007341D01*
X021363Y007455D01*
X021419Y007512D01*
X019717Y009844D02*
X019603Y009844D01*
X019547Y009901D01*
X019547Y009957D01*
X019603Y010014D01*
X019717Y010014D01*
X019774Y009957D01*
X019774Y009901D01*
X019717Y009844D01*
X019717Y010014D02*
X019774Y010071D01*
X019774Y010127D01*
X019717Y010184D01*
X019603Y010184D01*
X019547Y010127D01*
X019547Y010071D01*
X019603Y010014D01*
X019405Y010014D02*
X019405Y009901D01*
X019349Y009844D01*
X019235Y009844D01*
X019178Y009901D01*
X019178Y010014D02*
X019292Y010071D01*
X019349Y010071D01*
X019405Y010014D01*
X019405Y010184D02*
X019178Y010184D01*
X019178Y010014D01*
X019037Y010127D02*
X018980Y010184D01*
X018867Y010184D01*
X018810Y010127D01*
X018810Y009901D01*
X018867Y009844D01*
X018980Y009844D01*
X019037Y009901D01*
X022455Y012397D02*
X022682Y012397D01*
X022823Y012397D02*
X022823Y012623D01*
X022937Y012737D01*
X023050Y012623D01*
X023050Y012397D01*
X023192Y012397D02*
X023362Y012397D01*
X023419Y012453D01*
X023419Y012510D01*
X023362Y012567D01*
X023192Y012567D01*
X023050Y012567D02*
X022823Y012567D01*
X022455Y012737D02*
X022455Y012397D01*
X023192Y012397D02*
X023192Y012737D01*
X023362Y012737D01*
X023419Y012680D01*
X023419Y012623D01*
X023362Y012567D01*
X023560Y012680D02*
X023617Y012737D01*
X023730Y012737D01*
X023787Y012680D01*
X023787Y012623D01*
X023730Y012567D01*
X023787Y012510D01*
X023787Y012453D01*
X023730Y012397D01*
X023617Y012397D01*
X023560Y012453D01*
X023673Y012567D02*
X023730Y012567D01*
X019034Y017908D02*
X019034Y018249D01*
X022016Y026182D02*
X022130Y026182D01*
X022187Y026239D01*
X022187Y026353D01*
X022073Y026353D01*
X021960Y026466D02*
X021960Y026239D01*
X022016Y026182D01*
X021960Y026466D02*
X022016Y026523D01*
X022130Y026523D01*
X022187Y026466D01*
X022328Y026523D02*
X022498Y026523D01*
X022555Y026466D01*
X022555Y026353D01*
X022498Y026296D01*
X022328Y026296D01*
X022328Y026182D02*
X022328Y026523D01*
X022696Y026523D02*
X022810Y026523D01*
X022753Y026523D02*
X022753Y026182D01*
X022696Y026182D02*
X022810Y026182D01*
X022942Y026239D02*
X022999Y026182D01*
X023112Y026182D01*
X023169Y026239D01*
X023169Y026466D01*
X023112Y026523D01*
X022999Y026523D01*
X022942Y026466D01*
X022942Y026239D01*
X023310Y026239D02*
X023367Y026182D01*
X023480Y026182D01*
X023537Y026239D01*
X023537Y026296D01*
X023480Y026353D01*
X023424Y026353D01*
X023480Y026353D02*
X023537Y026409D01*
X023537Y026466D01*
X023480Y026523D01*
X023367Y026523D01*
X023310Y026466D01*
X023286Y029332D02*
X023342Y029389D01*
X023342Y029445D01*
X023286Y029502D01*
X023115Y029502D01*
X023115Y029389D01*
X023172Y029332D01*
X023286Y029332D01*
X023484Y029332D02*
X023711Y029559D01*
X023711Y029616D01*
X023654Y029672D01*
X023540Y029672D01*
X023484Y029616D01*
X023342Y029672D02*
X023229Y029616D01*
X023115Y029502D01*
X022974Y029389D02*
X022917Y029332D01*
X022804Y029332D01*
X022747Y029389D01*
X022747Y029616D01*
X022804Y029672D01*
X022917Y029672D01*
X022974Y029616D01*
X023484Y029332D02*
X023711Y029332D01*
D13*
X036674Y009617D02*
X038406Y009617D01*
X039607Y009322D02*
X039686Y009322D01*
X039607Y009322D02*
X039607Y008180D01*
X039686Y008180D01*
X039607Y008180D02*
X039607Y007078D01*
X039686Y007078D01*
X038406Y006743D02*
X036674Y006743D01*
X036674Y007058D01*
X036674Y009322D02*
X036674Y009617D01*
D14*
X037405Y010840D02*
X037563Y010840D01*
X037563Y011155D02*
X037405Y011155D01*
X037405Y011431D02*
X037563Y011431D01*
X037563Y011746D02*
X037405Y011746D01*
X037405Y012022D02*
X037563Y012022D01*
X037563Y012336D02*
X037405Y012336D01*
X037405Y012612D02*
X037563Y012612D01*
X037563Y012927D02*
X037405Y012927D01*
X037405Y013203D02*
X037563Y013203D01*
X037563Y013518D02*
X037405Y013518D01*
X037405Y013793D02*
X037563Y013793D01*
X037563Y014108D02*
X037405Y014108D01*
X036651Y013242D02*
X036651Y013085D01*
X036336Y013085D02*
X036336Y013242D01*
X036342Y011858D02*
X036342Y011701D01*
X036657Y011701D02*
X036657Y011858D01*
X035200Y009777D02*
X035043Y009777D01*
X035043Y009462D02*
X035200Y009462D01*
X035200Y009187D02*
X035043Y009187D01*
X035043Y008872D02*
X035200Y008872D01*
X035431Y008394D02*
X035588Y008394D01*
X035588Y008079D02*
X035431Y008079D01*
X035431Y007803D02*
X035588Y007803D01*
X035588Y007488D02*
X035431Y007488D01*
X034683Y007573D02*
X034683Y007730D01*
X034368Y007730D02*
X034368Y007573D01*
X033704Y005756D02*
X033704Y005598D01*
X033389Y005598D02*
X033389Y005756D01*
X033322Y004399D02*
X033322Y004203D01*
X033765Y004203D02*
X033765Y004399D01*
X032497Y004231D02*
X032229Y004231D01*
X032189Y004066D02*
X032191Y004081D01*
X032197Y004095D01*
X032207Y004107D01*
X032219Y004116D01*
X032234Y004121D01*
X032249Y004122D01*
X032264Y004119D01*
X032277Y004112D01*
X032288Y004101D01*
X032296Y004088D01*
X032300Y004074D01*
X032300Y004058D01*
X032296Y004044D01*
X032288Y004031D01*
X032277Y004020D01*
X032264Y004013D01*
X032249Y004010D01*
X032234Y004011D01*
X032219Y004016D01*
X032207Y004025D01*
X032197Y004037D01*
X032191Y004051D01*
X032189Y004066D01*
X032624Y003820D02*
X032624Y003613D01*
X032497Y003200D02*
X032229Y003200D01*
X031533Y003636D02*
X031533Y003793D01*
X031218Y003793D02*
X031218Y003636D01*
X030813Y004598D02*
X030813Y004795D01*
X030370Y004795D02*
X030370Y004598D01*
X030567Y005974D02*
X030567Y006171D01*
X031009Y006171D02*
X031009Y005974D01*
X030155Y006982D02*
X030155Y007140D01*
X029840Y007140D02*
X029840Y006982D01*
X029565Y006943D02*
X029565Y006785D01*
X029250Y006785D02*
X029250Y006943D01*
X028777Y006943D02*
X028777Y006785D01*
X028462Y006785D02*
X028462Y006943D01*
X028193Y006937D02*
X028193Y006779D01*
X027878Y006779D02*
X027878Y006937D01*
X027130Y006903D02*
X026972Y006903D01*
X026972Y006628D02*
X027130Y006628D01*
X027130Y006313D02*
X026972Y006313D01*
X026533Y006031D02*
X026376Y006031D01*
X026376Y005716D02*
X026533Y005716D01*
X026972Y005250D02*
X027130Y005250D01*
X027130Y004935D02*
X026972Y004935D01*
X026966Y004653D02*
X027124Y004653D01*
X027124Y004338D02*
X026966Y004338D01*
X025634Y005795D02*
X025634Y005953D01*
X025319Y005953D02*
X025319Y005795D01*
X026972Y007218D02*
X027130Y007218D01*
X023187Y004653D02*
X023029Y004653D01*
X023029Y004338D02*
X023187Y004338D01*
X023187Y004063D02*
X023029Y004063D01*
X023029Y003748D02*
X023187Y003748D01*
X023187Y003472D02*
X023029Y003472D01*
X023029Y003157D02*
X023187Y003157D01*
X021809Y003157D02*
X021651Y003157D01*
X021651Y003472D02*
X021809Y003472D01*
X021809Y003748D02*
X021651Y003748D01*
X021651Y004063D02*
X021809Y004063D01*
X021809Y004338D02*
X021651Y004338D01*
X021651Y004653D02*
X021809Y004653D01*
X021100Y007770D02*
X021100Y007927D01*
X020785Y007927D02*
X020785Y007770D01*
X021578Y010913D02*
X021578Y011071D01*
X021893Y011071D02*
X021893Y010913D01*
X019728Y010913D02*
X019728Y011071D01*
X019413Y011071D02*
X019413Y010913D01*
X019328Y013281D02*
X019328Y013439D01*
X019013Y013439D02*
X019013Y013281D01*
X015594Y012449D02*
X015594Y012291D01*
X015279Y012291D02*
X015279Y012449D01*
X015004Y012449D02*
X015004Y012291D01*
X014689Y012291D02*
X014689Y012449D01*
X015155Y011543D02*
X015313Y011543D01*
X015313Y011228D02*
X015155Y011228D01*
X015195Y010486D02*
X015195Y010329D01*
X014880Y010329D02*
X014880Y010486D01*
X014137Y010565D02*
X013980Y010565D01*
X013980Y010250D02*
X014137Y010250D01*
X009019Y008990D02*
X008862Y008990D01*
X008862Y008675D02*
X009019Y008675D01*
X009035Y008264D02*
X008838Y008264D01*
X008838Y007821D02*
X009035Y007821D01*
X009159Y006961D02*
X009159Y006764D01*
X008716Y006764D02*
X008716Y006961D01*
X007911Y008163D02*
X007911Y008321D01*
X007596Y008321D02*
X007596Y008163D01*
X007326Y007724D02*
X007326Y007567D01*
X007011Y007567D02*
X007011Y007724D01*
X006258Y007803D02*
X006100Y007803D01*
X006100Y007488D02*
X006258Y007488D01*
X006258Y007212D02*
X006100Y007212D01*
X006100Y006898D02*
X006258Y006898D01*
X006494Y006622D02*
X006651Y006622D01*
X006651Y006307D02*
X006494Y006307D01*
X006494Y006031D02*
X006651Y006031D01*
X006651Y005716D02*
X006494Y005716D01*
X006494Y005441D02*
X006651Y005441D01*
X006651Y005126D02*
X006494Y005126D01*
X006890Y008499D02*
X006890Y008767D01*
X006477Y008894D02*
X006270Y008894D01*
X005859Y008767D02*
X005859Y008499D01*
X005968Y008515D02*
X005970Y008530D01*
X005976Y008544D01*
X005986Y008556D01*
X005998Y008565D01*
X006013Y008570D01*
X006028Y008571D01*
X006043Y008568D01*
X006056Y008561D01*
X006067Y008550D01*
X006075Y008537D01*
X006079Y008523D01*
X006079Y008507D01*
X006075Y008493D01*
X006067Y008480D01*
X006056Y008469D01*
X006043Y008462D01*
X006028Y008459D01*
X006013Y008460D01*
X005998Y008465D01*
X005986Y008474D01*
X005976Y008486D01*
X005970Y008500D01*
X005968Y008515D01*
X007405Y009535D02*
X007405Y009693D01*
X007720Y009693D02*
X007720Y009535D01*
X008468Y009581D02*
X008626Y009581D01*
X008626Y009266D02*
X008468Y009266D01*
X006675Y009592D02*
X006478Y009592D01*
X006478Y010035D02*
X006675Y010035D01*
X008265Y012409D02*
X008423Y012409D01*
X008423Y012724D02*
X008265Y012724D01*
X007051Y017140D02*
X006893Y017140D01*
X006893Y017455D02*
X007051Y017455D01*
X007051Y017730D02*
X006893Y017730D01*
X006893Y018045D02*
X007051Y018045D01*
X007051Y018321D02*
X006893Y018321D01*
X006893Y018636D02*
X007051Y018636D01*
X007051Y018911D02*
X006893Y018911D01*
X006893Y019226D02*
X007051Y019226D01*
X010948Y019575D02*
X010948Y019732D01*
X011263Y019732D02*
X011263Y019575D01*
X013193Y022258D02*
X013350Y022258D01*
X013350Y022573D02*
X013193Y022573D01*
X012439Y022533D02*
X012439Y022691D01*
X012124Y022691D02*
X012124Y022533D01*
X011848Y022927D02*
X011848Y023085D01*
X011533Y023085D02*
X011533Y022927D01*
X007635Y024417D02*
X007478Y024417D01*
X007478Y024732D02*
X007635Y024732D01*
X006263Y023163D02*
X006106Y023163D01*
X006106Y022848D02*
X006263Y022848D01*
X014565Y019220D02*
X014722Y019220D01*
X014722Y018905D02*
X014565Y018905D01*
X020864Y019102D02*
X021021Y019102D01*
X021021Y019417D02*
X020864Y019417D01*
X021460Y019699D02*
X021618Y019699D01*
X021618Y020014D02*
X021460Y020014D01*
X021657Y020289D02*
X021815Y020289D01*
X021815Y020604D02*
X021657Y020604D01*
X026696Y021543D02*
X026696Y021701D01*
X027011Y021701D02*
X027011Y021543D01*
X027771Y021517D02*
X027771Y021723D01*
X028094Y021271D02*
X028096Y021286D01*
X028102Y021300D01*
X028112Y021312D01*
X028124Y021321D01*
X028139Y021326D01*
X028154Y021327D01*
X028169Y021324D01*
X028182Y021317D01*
X028193Y021306D01*
X028201Y021293D01*
X028205Y021279D01*
X028205Y021263D01*
X028201Y021249D01*
X028193Y021236D01*
X028182Y021225D01*
X028169Y021218D01*
X028154Y021215D01*
X028139Y021216D01*
X028124Y021221D01*
X028112Y021230D01*
X028102Y021242D01*
X028096Y021256D01*
X028094Y021271D01*
X028166Y021105D02*
X027898Y021105D01*
X028541Y020992D02*
X028698Y020992D01*
X028698Y020677D02*
X028541Y020677D01*
X029643Y020959D02*
X029643Y021116D01*
X029958Y021116D02*
X029958Y020959D01*
X030234Y020959D02*
X030234Y021116D01*
X030549Y021116D02*
X030549Y020959D01*
X031303Y020801D02*
X031460Y020801D01*
X031460Y020486D02*
X031303Y020486D01*
X031303Y020211D02*
X031460Y020211D01*
X031460Y019896D02*
X031303Y019896D01*
X031303Y019620D02*
X031460Y019620D01*
X031460Y019305D02*
X031303Y019305D01*
X031500Y019029D02*
X031657Y019029D01*
X031657Y018714D02*
X031500Y018714D01*
X032287Y018439D02*
X032445Y018439D01*
X032445Y018124D02*
X032287Y018124D01*
X032675Y018709D02*
X032832Y018709D01*
X032832Y019024D02*
X032675Y019024D01*
X032675Y019102D02*
X032832Y019102D01*
X032832Y019417D02*
X032675Y019417D01*
X032517Y020171D02*
X032517Y020329D01*
X032202Y020329D02*
X032202Y020171D01*
X034846Y022258D02*
X035004Y022258D01*
X035004Y022573D02*
X034846Y022573D01*
X034846Y022848D02*
X035004Y022848D01*
X035004Y023163D02*
X034846Y023163D01*
X034801Y024220D02*
X034643Y024220D01*
X034643Y024535D02*
X034801Y024535D01*
X034807Y024817D02*
X034649Y024817D01*
X034649Y025132D02*
X034807Y025132D01*
X036027Y025132D02*
X036185Y025132D01*
X036185Y024817D02*
X036027Y024817D01*
X036021Y024535D02*
X036179Y024535D01*
X036179Y024220D02*
X036021Y024220D01*
X037405Y021982D02*
X037563Y021982D01*
X037563Y021667D02*
X037405Y021667D01*
X037405Y021392D02*
X037563Y021392D01*
X037563Y021077D02*
X037405Y021077D01*
X037405Y020801D02*
X037563Y020801D01*
X037563Y020486D02*
X037405Y020486D01*
X037405Y020211D02*
X037563Y020211D01*
X037563Y019896D02*
X037405Y019896D01*
X037405Y019620D02*
X037563Y019620D01*
X037563Y019305D02*
X037405Y019305D01*
X037405Y019029D02*
X037563Y019029D01*
X037563Y018714D02*
X037405Y018714D01*
X036657Y019575D02*
X036657Y019732D01*
X036342Y019732D02*
X036342Y019575D01*
X036336Y020959D02*
X036336Y021116D01*
X036651Y021116D02*
X036651Y020959D01*
X031336Y017573D02*
X031336Y017415D01*
X031021Y017415D02*
X031021Y017573D01*
X030746Y017573D02*
X030746Y017415D01*
X030431Y017415D02*
X030431Y017573D01*
X030515Y016667D02*
X030673Y016667D01*
X030673Y016352D02*
X030515Y016352D01*
X028895Y015874D02*
X028738Y015874D01*
X028738Y015559D02*
X028895Y015559D01*
X028895Y015086D02*
X028738Y015086D01*
X028738Y014772D02*
X028895Y014772D01*
X028901Y014502D02*
X028744Y014502D01*
X028744Y014187D02*
X028901Y014187D01*
X028698Y013118D02*
X028541Y013118D01*
X028541Y012803D02*
X028698Y012803D01*
X028698Y012527D02*
X028541Y012527D01*
X028541Y012212D02*
X028698Y012212D01*
X029525Y011937D02*
X029683Y011937D01*
X029683Y011622D02*
X029525Y011622D01*
X030634Y012685D02*
X030634Y012842D01*
X030948Y012842D02*
X030948Y012685D01*
X031696Y012730D02*
X031854Y012730D01*
X031854Y013006D02*
X031696Y013006D01*
X031696Y013321D02*
X031854Y013321D01*
X031539Y014063D02*
X031539Y014220D01*
X031224Y014220D02*
X031224Y014063D01*
X031815Y014457D02*
X031815Y014614D01*
X032130Y014614D02*
X032130Y014457D01*
X031854Y012415D02*
X031696Y012415D01*
X031067Y011943D02*
X030909Y011943D01*
X030909Y011628D02*
X031067Y011628D01*
X031809Y011667D02*
X031809Y011510D01*
X032124Y011510D02*
X032124Y011667D01*
X032281Y010756D02*
X032439Y010756D01*
X032439Y010441D02*
X032281Y010441D01*
X032242Y010165D02*
X032084Y010165D01*
X032084Y009850D02*
X032242Y009850D01*
X034958Y005171D02*
X034958Y005014D01*
X035273Y005014D02*
X035273Y005171D01*
X035555Y005165D02*
X035555Y005008D01*
X035870Y005008D02*
X035870Y005165D01*
X025049Y012153D02*
X024891Y012153D01*
X024891Y012468D02*
X025049Y012468D01*
X028738Y017134D02*
X028895Y017134D01*
X028895Y017449D02*
X028738Y017449D01*
X028744Y017730D02*
X028901Y017730D01*
X028901Y018045D02*
X028744Y018045D01*
X028738Y018315D02*
X028895Y018315D01*
X028895Y018630D02*
X028738Y018630D01*
X027793Y019581D02*
X027793Y019738D01*
X027478Y019738D02*
X027478Y019581D01*
X027321Y020480D02*
X027163Y020480D01*
X027163Y020795D02*
X027321Y020795D01*
X027898Y022137D02*
X028166Y022137D01*
X029728Y024817D02*
X029885Y024817D01*
X029885Y025132D02*
X029728Y025132D01*
X029728Y025407D02*
X029885Y025407D01*
X029885Y025722D02*
X029728Y025722D01*
X029492Y025998D02*
X029334Y025998D01*
X029334Y026313D02*
X029492Y026313D01*
X030628Y025250D02*
X030628Y025092D01*
X030943Y025092D02*
X030943Y025250D01*
X030903Y027961D02*
X031061Y027961D01*
X031061Y028275D02*
X030903Y028275D01*
X030909Y028754D02*
X031067Y028754D01*
X031067Y029069D02*
X030909Y029069D01*
X028580Y029226D02*
X028580Y029384D01*
X028265Y029384D02*
X028265Y029226D01*
X028271Y028000D02*
X028271Y027842D01*
X027996Y027842D02*
X027996Y028000D01*
X027681Y028000D02*
X027681Y027842D01*
X027399Y027848D02*
X027399Y028006D01*
X027084Y028006D02*
X027084Y027848D01*
X028586Y027842D02*
X028586Y028000D01*
X023187Y028748D02*
X023029Y028748D01*
X023029Y029063D02*
X023187Y029063D01*
X012641Y005362D02*
X012641Y005205D01*
X012326Y005205D02*
X012326Y005362D01*
X011578Y005053D02*
X011421Y005053D01*
X011421Y004738D02*
X011578Y004738D01*
X011809Y004260D02*
X011966Y004260D01*
X011966Y003945D02*
X011809Y003945D01*
X012130Y003197D02*
X012130Y003039D01*
X012445Y003039D02*
X012445Y003197D01*
X013384Y003748D02*
X013541Y003748D01*
X013541Y004063D02*
X013384Y004063D01*
X015898Y003845D02*
X015898Y003578D01*
X016008Y003593D02*
X016010Y003608D01*
X016016Y003622D01*
X016026Y003634D01*
X016038Y003643D01*
X016053Y003648D01*
X016068Y003649D01*
X016083Y003646D01*
X016096Y003639D01*
X016107Y003628D01*
X016115Y003615D01*
X016119Y003601D01*
X016119Y003585D01*
X016115Y003571D01*
X016107Y003558D01*
X016096Y003547D01*
X016083Y003540D01*
X016068Y003537D01*
X016053Y003538D01*
X016038Y003543D01*
X016026Y003552D01*
X016016Y003564D01*
X016010Y003578D01*
X016008Y003593D01*
X016310Y003972D02*
X016516Y003972D01*
X016930Y003845D02*
X016930Y003578D01*
X016494Y002882D02*
X016336Y002882D01*
X016336Y002567D02*
X016494Y002567D01*
X016517Y004671D02*
X016321Y004671D01*
X016321Y005114D02*
X016517Y005114D01*
D15*
X013726Y005001D02*
X013726Y004794D01*
X013599Y004381D02*
X013331Y004381D01*
X013291Y005247D02*
X013293Y005262D01*
X013299Y005276D01*
X013309Y005288D01*
X013321Y005297D01*
X013336Y005302D01*
X013351Y005303D01*
X013366Y005300D01*
X013379Y005293D01*
X013390Y005282D01*
X013398Y005269D01*
X013402Y005255D01*
X013402Y005239D01*
X013398Y005225D01*
X013390Y005212D01*
X013379Y005201D01*
X013366Y005194D01*
X013351Y005191D01*
X013336Y005192D01*
X013321Y005197D01*
X013309Y005206D01*
X013299Y005218D01*
X013293Y005232D01*
X013291Y005247D01*
X013331Y005412D02*
X013599Y005412D01*
X020418Y010483D02*
X020686Y010483D01*
X020813Y010897D02*
X020813Y011103D01*
X020686Y011515D02*
X020418Y011515D01*
X020378Y011349D02*
X020380Y011364D01*
X020386Y011378D01*
X020396Y011390D01*
X020408Y011399D01*
X020423Y011404D01*
X020438Y011405D01*
X020453Y011402D01*
X020466Y011395D01*
X020477Y011384D01*
X020485Y011371D01*
X020489Y011357D01*
X020489Y011341D01*
X020485Y011327D01*
X020477Y011314D01*
X020466Y011303D01*
X020453Y011296D01*
X020438Y011293D01*
X020423Y011294D01*
X020408Y011299D01*
X020396Y011308D01*
X020386Y011320D01*
X020380Y011334D01*
X020378Y011349D01*
X029312Y012908D02*
X029312Y013175D01*
X030122Y013160D02*
X030124Y013175D01*
X030130Y013189D01*
X030140Y013201D01*
X030152Y013210D01*
X030167Y013215D01*
X030182Y013216D01*
X030197Y013213D01*
X030210Y013206D01*
X030221Y013195D01*
X030229Y013182D01*
X030233Y013168D01*
X030233Y013152D01*
X030229Y013138D01*
X030221Y013125D01*
X030210Y013114D01*
X030197Y013107D01*
X030182Y013104D01*
X030167Y013105D01*
X030152Y013110D01*
X030140Y013119D01*
X030130Y013131D01*
X030124Y013145D01*
X030122Y013160D01*
X030343Y013175D02*
X030343Y012908D01*
X030690Y019444D02*
X030690Y019712D01*
X029767Y019460D02*
X029769Y019475D01*
X029775Y019489D01*
X029785Y019501D01*
X029797Y019510D01*
X029812Y019515D01*
X029827Y019516D01*
X029842Y019513D01*
X029855Y019506D01*
X029866Y019495D01*
X029874Y019482D01*
X029878Y019468D01*
X029878Y019452D01*
X029874Y019438D01*
X029866Y019425D01*
X029855Y019414D01*
X029842Y019407D01*
X029827Y019404D01*
X029812Y019405D01*
X029797Y019410D01*
X029785Y019419D01*
X029775Y019431D01*
X029769Y019445D01*
X029767Y019460D01*
X029658Y019444D02*
X029658Y019712D01*
D16*
X023091Y024971D02*
X023094Y025044D01*
X023104Y025117D01*
X023121Y025189D01*
X023144Y025258D01*
X023173Y025326D01*
X023208Y025390D01*
X023249Y025451D01*
X023296Y025508D01*
X023347Y025561D01*
X023403Y025608D01*
X023463Y025651D01*
X023527Y025688D01*
X023593Y025718D01*
X023663Y025743D01*
X023734Y025761D01*
X023806Y025773D01*
X023880Y025778D01*
X023953Y025776D01*
X024026Y025768D01*
X024098Y025753D01*
X024168Y025731D01*
X024236Y025704D01*
X024301Y025670D01*
X024363Y025630D01*
X024421Y025585D01*
X024475Y025535D01*
X024524Y025480D01*
X024568Y025421D01*
X024606Y025358D01*
X024638Y025293D01*
X024664Y025224D01*
X024684Y025153D01*
X024697Y025081D01*
X024704Y025008D01*
X024704Y024934D01*
X024697Y024861D01*
X024684Y024789D01*
X024664Y024718D01*
X024638Y024649D01*
X024606Y024584D01*
X024568Y024521D01*
X024524Y024462D01*
X024475Y024407D01*
X024421Y024357D01*
X024363Y024312D01*
X024302Y024272D01*
X024236Y024238D01*
X024168Y024211D01*
X024098Y024189D01*
X024026Y024174D01*
X023953Y024166D01*
X023880Y024164D01*
X023806Y024169D01*
X023734Y024181D01*
X023663Y024199D01*
X023593Y024224D01*
X023527Y024254D01*
X023463Y024291D01*
X023403Y024334D01*
X023347Y024381D01*
X023296Y024434D01*
X023249Y024491D01*
X023208Y024552D01*
X023173Y024616D01*
X023144Y024684D01*
X023121Y024753D01*
X023104Y024825D01*
X023094Y024898D01*
X023091Y024971D01*
X010887Y024971D02*
X010890Y025044D01*
X010900Y025117D01*
X010917Y025189D01*
X010940Y025258D01*
X010969Y025326D01*
X011004Y025390D01*
X011045Y025451D01*
X011092Y025508D01*
X011143Y025561D01*
X011199Y025608D01*
X011259Y025651D01*
X011323Y025688D01*
X011389Y025718D01*
X011459Y025743D01*
X011530Y025761D01*
X011602Y025773D01*
X011676Y025778D01*
X011749Y025776D01*
X011822Y025768D01*
X011894Y025753D01*
X011964Y025731D01*
X012032Y025704D01*
X012097Y025670D01*
X012159Y025630D01*
X012217Y025585D01*
X012271Y025535D01*
X012320Y025480D01*
X012364Y025421D01*
X012402Y025358D01*
X012434Y025293D01*
X012460Y025224D01*
X012480Y025153D01*
X012493Y025081D01*
X012500Y025008D01*
X012500Y024934D01*
X012493Y024861D01*
X012480Y024789D01*
X012460Y024718D01*
X012434Y024649D01*
X012402Y024584D01*
X012364Y024521D01*
X012320Y024462D01*
X012271Y024407D01*
X012217Y024357D01*
X012159Y024312D01*
X012098Y024272D01*
X012032Y024238D01*
X011964Y024211D01*
X011894Y024189D01*
X011822Y024174D01*
X011749Y024166D01*
X011676Y024164D01*
X011602Y024169D01*
X011530Y024181D01*
X011459Y024199D01*
X011389Y024224D01*
X011323Y024254D01*
X011259Y024291D01*
X011199Y024334D01*
X011143Y024381D01*
X011092Y024434D01*
X011045Y024491D01*
X011004Y024552D01*
X010969Y024616D01*
X010940Y024684D01*
X010917Y024753D01*
X010900Y024825D01*
X010890Y024898D01*
X010887Y024971D01*
X002816Y028121D02*
X002819Y028194D01*
X002829Y028267D01*
X002846Y028339D01*
X002869Y028408D01*
X002898Y028476D01*
X002933Y028540D01*
X002974Y028601D01*
X003021Y028658D01*
X003072Y028711D01*
X003128Y028758D01*
X003188Y028801D01*
X003252Y028838D01*
X003318Y028868D01*
X003388Y028893D01*
X003459Y028911D01*
X003531Y028923D01*
X003605Y028928D01*
X003678Y028926D01*
X003751Y028918D01*
X003823Y028903D01*
X003893Y028881D01*
X003961Y028854D01*
X004026Y028820D01*
X004088Y028780D01*
X004146Y028735D01*
X004200Y028685D01*
X004249Y028630D01*
X004293Y028571D01*
X004331Y028508D01*
X004363Y028443D01*
X004389Y028374D01*
X004409Y028303D01*
X004422Y028231D01*
X004429Y028158D01*
X004429Y028084D01*
X004422Y028011D01*
X004409Y027939D01*
X004389Y027868D01*
X004363Y027799D01*
X004331Y027734D01*
X004293Y027671D01*
X004249Y027612D01*
X004200Y027557D01*
X004146Y027507D01*
X004088Y027462D01*
X004027Y027422D01*
X003961Y027388D01*
X003893Y027361D01*
X003823Y027339D01*
X003751Y027324D01*
X003678Y027316D01*
X003605Y027314D01*
X003531Y027319D01*
X003459Y027331D01*
X003388Y027349D01*
X003318Y027374D01*
X003252Y027404D01*
X003188Y027441D01*
X003128Y027484D01*
X003072Y027531D01*
X003021Y027584D01*
X002974Y027641D01*
X002933Y027702D01*
X002898Y027766D01*
X002869Y027834D01*
X002846Y027903D01*
X002829Y027975D01*
X002819Y028048D01*
X002816Y028121D01*
X010887Y008633D02*
X010890Y008706D01*
X010900Y008779D01*
X010917Y008851D01*
X010940Y008920D01*
X010969Y008988D01*
X011004Y009052D01*
X011045Y009113D01*
X011092Y009170D01*
X011143Y009223D01*
X011199Y009270D01*
X011259Y009313D01*
X011323Y009350D01*
X011389Y009380D01*
X011459Y009405D01*
X011530Y009423D01*
X011602Y009435D01*
X011676Y009440D01*
X011749Y009438D01*
X011822Y009430D01*
X011894Y009415D01*
X011964Y009393D01*
X012032Y009366D01*
X012097Y009332D01*
X012159Y009292D01*
X012217Y009247D01*
X012271Y009197D01*
X012320Y009142D01*
X012364Y009083D01*
X012402Y009020D01*
X012434Y008955D01*
X012460Y008886D01*
X012480Y008815D01*
X012493Y008743D01*
X012500Y008670D01*
X012500Y008596D01*
X012493Y008523D01*
X012480Y008451D01*
X012460Y008380D01*
X012434Y008311D01*
X012402Y008246D01*
X012364Y008183D01*
X012320Y008124D01*
X012271Y008069D01*
X012217Y008019D01*
X012159Y007974D01*
X012098Y007934D01*
X012032Y007900D01*
X011964Y007873D01*
X011894Y007851D01*
X011822Y007836D01*
X011749Y007828D01*
X011676Y007826D01*
X011602Y007831D01*
X011530Y007843D01*
X011459Y007861D01*
X011389Y007886D01*
X011323Y007916D01*
X011259Y007953D01*
X011199Y007996D01*
X011143Y008043D01*
X011092Y008096D01*
X011045Y008153D01*
X011004Y008214D01*
X010969Y008278D01*
X010940Y008346D01*
X010917Y008415D01*
X010900Y008487D01*
X010890Y008560D01*
X010887Y008633D01*
X002816Y004893D02*
X002819Y004966D01*
X002829Y005039D01*
X002846Y005111D01*
X002869Y005180D01*
X002898Y005248D01*
X002933Y005312D01*
X002974Y005373D01*
X003021Y005430D01*
X003072Y005483D01*
X003128Y005530D01*
X003188Y005573D01*
X003252Y005610D01*
X003318Y005640D01*
X003388Y005665D01*
X003459Y005683D01*
X003531Y005695D01*
X003605Y005700D01*
X003678Y005698D01*
X003751Y005690D01*
X003823Y005675D01*
X003893Y005653D01*
X003961Y005626D01*
X004026Y005592D01*
X004088Y005552D01*
X004146Y005507D01*
X004200Y005457D01*
X004249Y005402D01*
X004293Y005343D01*
X004331Y005280D01*
X004363Y005215D01*
X004389Y005146D01*
X004409Y005075D01*
X004422Y005003D01*
X004429Y004930D01*
X004429Y004856D01*
X004422Y004783D01*
X004409Y004711D01*
X004389Y004640D01*
X004363Y004571D01*
X004331Y004506D01*
X004293Y004443D01*
X004249Y004384D01*
X004200Y004329D01*
X004146Y004279D01*
X004088Y004234D01*
X004027Y004194D01*
X003961Y004160D01*
X003893Y004133D01*
X003823Y004111D01*
X003751Y004096D01*
X003678Y004088D01*
X003605Y004086D01*
X003531Y004091D01*
X003459Y004103D01*
X003388Y004121D01*
X003318Y004146D01*
X003252Y004176D01*
X003188Y004213D01*
X003128Y004256D01*
X003072Y004303D01*
X003021Y004356D01*
X002974Y004413D01*
X002933Y004474D01*
X002898Y004538D01*
X002869Y004606D01*
X002846Y004675D01*
X002829Y004747D01*
X002819Y004820D01*
X002816Y004893D01*
X023091Y008633D02*
X023094Y008706D01*
X023104Y008779D01*
X023121Y008851D01*
X023144Y008920D01*
X023173Y008988D01*
X023208Y009052D01*
X023249Y009113D01*
X023296Y009170D01*
X023347Y009223D01*
X023403Y009270D01*
X023463Y009313D01*
X023527Y009350D01*
X023593Y009380D01*
X023663Y009405D01*
X023734Y009423D01*
X023806Y009435D01*
X023880Y009440D01*
X023953Y009438D01*
X024026Y009430D01*
X024098Y009415D01*
X024168Y009393D01*
X024236Y009366D01*
X024301Y009332D01*
X024363Y009292D01*
X024421Y009247D01*
X024475Y009197D01*
X024524Y009142D01*
X024568Y009083D01*
X024606Y009020D01*
X024638Y008955D01*
X024664Y008886D01*
X024684Y008815D01*
X024697Y008743D01*
X024704Y008670D01*
X024704Y008596D01*
X024697Y008523D01*
X024684Y008451D01*
X024664Y008380D01*
X024638Y008311D01*
X024606Y008246D01*
X024568Y008183D01*
X024524Y008124D01*
X024475Y008069D01*
X024421Y008019D01*
X024363Y007974D01*
X024302Y007934D01*
X024236Y007900D01*
X024168Y007873D01*
X024098Y007851D01*
X024026Y007836D01*
X023953Y007828D01*
X023880Y007826D01*
X023806Y007831D01*
X023734Y007843D01*
X023663Y007861D01*
X023593Y007886D01*
X023527Y007916D01*
X023463Y007953D01*
X023403Y007996D01*
X023347Y008043D01*
X023296Y008096D01*
X023249Y008153D01*
X023208Y008214D01*
X023173Y008278D01*
X023144Y008346D01*
X023121Y008415D01*
X023104Y008487D01*
X023094Y008560D01*
X023091Y008633D01*
X036674Y004893D02*
X036677Y004966D01*
X036687Y005039D01*
X036704Y005111D01*
X036727Y005180D01*
X036756Y005248D01*
X036791Y005312D01*
X036832Y005373D01*
X036879Y005430D01*
X036930Y005483D01*
X036986Y005530D01*
X037046Y005573D01*
X037110Y005610D01*
X037176Y005640D01*
X037246Y005665D01*
X037317Y005683D01*
X037389Y005695D01*
X037463Y005700D01*
X037536Y005698D01*
X037609Y005690D01*
X037681Y005675D01*
X037751Y005653D01*
X037819Y005626D01*
X037884Y005592D01*
X037946Y005552D01*
X038004Y005507D01*
X038058Y005457D01*
X038107Y005402D01*
X038151Y005343D01*
X038189Y005280D01*
X038221Y005215D01*
X038247Y005146D01*
X038267Y005075D01*
X038280Y005003D01*
X038287Y004930D01*
X038287Y004856D01*
X038280Y004783D01*
X038267Y004711D01*
X038247Y004640D01*
X038221Y004571D01*
X038189Y004506D01*
X038151Y004443D01*
X038107Y004384D01*
X038058Y004329D01*
X038004Y004279D01*
X037946Y004234D01*
X037885Y004194D01*
X037819Y004160D01*
X037751Y004133D01*
X037681Y004111D01*
X037609Y004096D01*
X037536Y004088D01*
X037463Y004086D01*
X037389Y004091D01*
X037317Y004103D01*
X037246Y004121D01*
X037176Y004146D01*
X037110Y004176D01*
X037046Y004213D01*
X036986Y004256D01*
X036930Y004303D01*
X036879Y004356D01*
X036832Y004413D01*
X036791Y004474D01*
X036756Y004538D01*
X036727Y004606D01*
X036704Y004675D01*
X036687Y004747D01*
X036677Y004820D01*
X036674Y004893D01*
X036674Y028121D02*
X036677Y028194D01*
X036687Y028267D01*
X036704Y028339D01*
X036727Y028408D01*
X036756Y028476D01*
X036791Y028540D01*
X036832Y028601D01*
X036879Y028658D01*
X036930Y028711D01*
X036986Y028758D01*
X037046Y028801D01*
X037110Y028838D01*
X037176Y028868D01*
X037246Y028893D01*
X037317Y028911D01*
X037389Y028923D01*
X037463Y028928D01*
X037536Y028926D01*
X037609Y028918D01*
X037681Y028903D01*
X037751Y028881D01*
X037819Y028854D01*
X037884Y028820D01*
X037946Y028780D01*
X038004Y028735D01*
X038058Y028685D01*
X038107Y028630D01*
X038151Y028571D01*
X038189Y028508D01*
X038221Y028443D01*
X038247Y028374D01*
X038267Y028303D01*
X038280Y028231D01*
X038287Y028158D01*
X038287Y028084D01*
X038280Y028011D01*
X038267Y027939D01*
X038247Y027868D01*
X038221Y027799D01*
X038189Y027734D01*
X038151Y027671D01*
X038107Y027612D01*
X038058Y027557D01*
X038004Y027507D01*
X037946Y027462D01*
X037885Y027422D01*
X037819Y027388D01*
X037751Y027361D01*
X037681Y027339D01*
X037609Y027324D01*
X037536Y027316D01*
X037463Y027314D01*
X037389Y027319D01*
X037317Y027331D01*
X037246Y027349D01*
X037176Y027374D01*
X037110Y027404D01*
X037046Y027441D01*
X036986Y027484D01*
X036930Y027531D01*
X036879Y027584D01*
X036832Y027641D01*
X036791Y027702D01*
X036756Y027766D01*
X036727Y027834D01*
X036704Y027903D01*
X036687Y027975D01*
X036677Y028048D01*
X036674Y028121D01*
M02*
