G75*
G70*
%OFA0B0*%
%FSLAX24Y24*%
%IPPOS*%
%LPD*%
%AMOC8*
5,1,8,0,0,1.08239X$1,22.5*
%
%ADD10C,0.0966*%
%ADD11O,0.0992X0.0536*%
%ADD12C,0.0024*%
%ADD13R,0.0595X0.0595*%
%ADD14C,0.0595*%
%ADD15C,0.0025*%
%ADD16C,0.0026*%
%ADD17C,0.0023*%
%ADD18C,0.0023*%
%ADD19C,0.0022*%
%ADD20C,0.0036*%
%ADD21R,0.0689X0.0768*%
%ADD22R,0.0709X0.0768*%
%ADD23C,0.0033*%
%ADD24C,0.0029*%
%ADD25C,0.0029*%
%ADD26C,0.0021*%
%ADD27C,0.1316*%
%ADD28C,0.0795*%
%ADD29C,0.1031*%
%ADD30C,0.0759*%
%ADD31C,0.0390*%
D10*
X039056Y006743D03*
X039056Y009617D03*
D11*
X037768Y008495D03*
X037768Y007865D03*
X036840Y007550D03*
X036840Y008180D03*
X036840Y008810D03*
D12*
X036131Y008014D02*
X035681Y008014D01*
X035681Y008464D01*
X036131Y008464D01*
X036131Y008014D01*
X036131Y008037D02*
X035681Y008037D01*
X035681Y008060D02*
X036131Y008060D01*
X036131Y008083D02*
X035681Y008083D01*
X035681Y008106D02*
X036131Y008106D01*
X036131Y008129D02*
X035681Y008129D01*
X035681Y008152D02*
X036131Y008152D01*
X036131Y008175D02*
X035681Y008175D01*
X035681Y008198D02*
X036131Y008198D01*
X036131Y008221D02*
X035681Y008221D01*
X035681Y008244D02*
X036131Y008244D01*
X036131Y008267D02*
X035681Y008267D01*
X035681Y008290D02*
X036131Y008290D01*
X036131Y008313D02*
X035681Y008313D01*
X035681Y008336D02*
X036131Y008336D01*
X036131Y008359D02*
X035681Y008359D01*
X035681Y008382D02*
X036131Y008382D01*
X036131Y008405D02*
X035681Y008405D01*
X035681Y008428D02*
X036131Y008428D01*
X036131Y008451D02*
X035681Y008451D01*
X035681Y007424D02*
X036131Y007424D01*
X035681Y007424D02*
X035681Y007874D01*
X036131Y007874D01*
X036131Y007424D01*
X036131Y007447D02*
X035681Y007447D01*
X035681Y007470D02*
X036131Y007470D01*
X036131Y007493D02*
X035681Y007493D01*
X035681Y007516D02*
X036131Y007516D01*
X036131Y007539D02*
X035681Y007539D01*
X035681Y007562D02*
X036131Y007562D01*
X036131Y007585D02*
X035681Y007585D01*
X035681Y007608D02*
X036131Y007608D01*
X036131Y007631D02*
X035681Y007631D01*
X035681Y007654D02*
X036131Y007654D01*
X036131Y007677D02*
X035681Y007677D01*
X035681Y007700D02*
X036131Y007700D01*
X036131Y007723D02*
X035681Y007723D01*
X035681Y007746D02*
X036131Y007746D01*
X036131Y007769D02*
X035681Y007769D01*
X035681Y007792D02*
X036131Y007792D01*
X036131Y007815D02*
X035681Y007815D01*
X035681Y007838D02*
X036131Y007838D01*
X036131Y007861D02*
X035681Y007861D01*
X038831Y007817D02*
X039281Y007817D01*
X038831Y007817D02*
X038831Y008267D01*
X039281Y008267D01*
X039281Y007817D01*
X039281Y007840D02*
X038831Y007840D01*
X038831Y007863D02*
X039281Y007863D01*
X039281Y007886D02*
X038831Y007886D01*
X038831Y007909D02*
X039281Y007909D01*
X039281Y007932D02*
X038831Y007932D01*
X038831Y007955D02*
X039281Y007955D01*
X039281Y007978D02*
X038831Y007978D01*
X038831Y008001D02*
X039281Y008001D01*
X039281Y008024D02*
X038831Y008024D01*
X038831Y008047D02*
X039281Y008047D01*
X039281Y008070D02*
X038831Y008070D01*
X038831Y008093D02*
X039281Y008093D01*
X039281Y008116D02*
X038831Y008116D01*
X038831Y008139D02*
X039281Y008139D01*
X039281Y008162D02*
X038831Y008162D01*
X038831Y008185D02*
X039281Y008185D01*
X039281Y008208D02*
X038831Y008208D01*
X038831Y008231D02*
X039281Y008231D01*
X039281Y008254D02*
X038831Y008254D01*
X038831Y003880D02*
X039281Y003880D01*
X038831Y003880D02*
X038831Y004330D01*
X039281Y004330D01*
X039281Y003880D01*
X039281Y003903D02*
X038831Y003903D01*
X038831Y003926D02*
X039281Y003926D01*
X039281Y003949D02*
X038831Y003949D01*
X038831Y003972D02*
X039281Y003972D01*
X039281Y003995D02*
X038831Y003995D01*
X038831Y004018D02*
X039281Y004018D01*
X039281Y004041D02*
X038831Y004041D01*
X038831Y004064D02*
X039281Y004064D01*
X039281Y004087D02*
X038831Y004087D01*
X038831Y004110D02*
X039281Y004110D01*
X039281Y004133D02*
X038831Y004133D01*
X038831Y004156D02*
X039281Y004156D01*
X039281Y004179D02*
X038831Y004179D01*
X038831Y004202D02*
X039281Y004202D01*
X039281Y004225D02*
X038831Y004225D01*
X038831Y004248D02*
X039281Y004248D01*
X039281Y004271D02*
X038831Y004271D01*
X038831Y004294D02*
X039281Y004294D01*
X039281Y004317D02*
X038831Y004317D01*
X038887Y002896D02*
X038437Y002896D01*
X038437Y003346D01*
X038887Y003346D01*
X038887Y002896D01*
X038887Y002919D02*
X038437Y002919D01*
X038437Y002942D02*
X038887Y002942D01*
X038887Y002965D02*
X038437Y002965D01*
X038437Y002988D02*
X038887Y002988D01*
X038887Y003011D02*
X038437Y003011D01*
X038437Y003034D02*
X038887Y003034D01*
X038887Y003057D02*
X038437Y003057D01*
X038437Y003080D02*
X038887Y003080D01*
X038887Y003103D02*
X038437Y003103D01*
X038437Y003126D02*
X038887Y003126D01*
X038887Y003149D02*
X038437Y003149D01*
X038437Y003172D02*
X038887Y003172D01*
X038887Y003195D02*
X038437Y003195D01*
X038437Y003218D02*
X038887Y003218D01*
X038887Y003241D02*
X038437Y003241D01*
X038437Y003264D02*
X038887Y003264D01*
X038887Y003287D02*
X038437Y003287D01*
X038437Y003310D02*
X038887Y003310D01*
X038887Y003333D02*
X038437Y003333D01*
X038100Y002896D02*
X037650Y002896D01*
X037650Y003346D01*
X038100Y003346D01*
X038100Y002896D01*
X038100Y002919D02*
X037650Y002919D01*
X037650Y002942D02*
X038100Y002942D01*
X038100Y002965D02*
X037650Y002965D01*
X037650Y002988D02*
X038100Y002988D01*
X038100Y003011D02*
X037650Y003011D01*
X037650Y003034D02*
X038100Y003034D01*
X038100Y003057D02*
X037650Y003057D01*
X037650Y003080D02*
X038100Y003080D01*
X038100Y003103D02*
X037650Y003103D01*
X037650Y003126D02*
X038100Y003126D01*
X038100Y003149D02*
X037650Y003149D01*
X037650Y003172D02*
X038100Y003172D01*
X038100Y003195D02*
X037650Y003195D01*
X037650Y003218D02*
X038100Y003218D01*
X038100Y003241D02*
X037650Y003241D01*
X037650Y003264D02*
X038100Y003264D01*
X038100Y003287D02*
X037650Y003287D01*
X037650Y003310D02*
X038100Y003310D01*
X038100Y003333D02*
X037650Y003333D01*
X037509Y002896D02*
X037059Y002896D01*
X037059Y003346D01*
X037509Y003346D01*
X037509Y002896D01*
X037509Y002919D02*
X037059Y002919D01*
X037059Y002942D02*
X037509Y002942D01*
X037509Y002965D02*
X037059Y002965D01*
X037059Y002988D02*
X037509Y002988D01*
X037509Y003011D02*
X037059Y003011D01*
X037059Y003034D02*
X037509Y003034D01*
X037509Y003057D02*
X037059Y003057D01*
X037059Y003080D02*
X037509Y003080D01*
X037509Y003103D02*
X037059Y003103D01*
X037059Y003126D02*
X037509Y003126D01*
X037509Y003149D02*
X037059Y003149D01*
X037059Y003172D02*
X037509Y003172D01*
X037509Y003195D02*
X037059Y003195D01*
X037059Y003218D02*
X037509Y003218D01*
X037509Y003241D02*
X037059Y003241D01*
X037059Y003264D02*
X037509Y003264D01*
X037509Y003287D02*
X037059Y003287D01*
X037059Y003310D02*
X037509Y003310D01*
X037509Y003333D02*
X037059Y003333D01*
X036722Y002896D02*
X036272Y002896D01*
X036272Y003346D01*
X036722Y003346D01*
X036722Y002896D01*
X036722Y002919D02*
X036272Y002919D01*
X036272Y002942D02*
X036722Y002942D01*
X036722Y002965D02*
X036272Y002965D01*
X036272Y002988D02*
X036722Y002988D01*
X036722Y003011D02*
X036272Y003011D01*
X036272Y003034D02*
X036722Y003034D01*
X036722Y003057D02*
X036272Y003057D01*
X036272Y003080D02*
X036722Y003080D01*
X036722Y003103D02*
X036272Y003103D01*
X036272Y003126D02*
X036722Y003126D01*
X036722Y003149D02*
X036272Y003149D01*
X036272Y003172D02*
X036722Y003172D01*
X036722Y003195D02*
X036272Y003195D01*
X036272Y003218D02*
X036722Y003218D01*
X036722Y003241D02*
X036272Y003241D01*
X036272Y003264D02*
X036722Y003264D01*
X036722Y003287D02*
X036272Y003287D01*
X036272Y003310D02*
X036722Y003310D01*
X036722Y003333D02*
X036272Y003333D01*
X033769Y003093D02*
X033319Y003093D01*
X033319Y003543D01*
X033769Y003543D01*
X033769Y003093D01*
X033769Y003116D02*
X033319Y003116D01*
X033319Y003139D02*
X033769Y003139D01*
X033769Y003162D02*
X033319Y003162D01*
X033319Y003185D02*
X033769Y003185D01*
X033769Y003208D02*
X033319Y003208D01*
X033319Y003231D02*
X033769Y003231D01*
X033769Y003254D02*
X033319Y003254D01*
X033319Y003277D02*
X033769Y003277D01*
X033769Y003300D02*
X033319Y003300D01*
X033319Y003323D02*
X033769Y003323D01*
X033769Y003346D02*
X033319Y003346D01*
X033319Y003369D02*
X033769Y003369D01*
X033769Y003392D02*
X033319Y003392D01*
X033319Y003415D02*
X033769Y003415D01*
X033769Y003438D02*
X033319Y003438D01*
X033319Y003461D02*
X033769Y003461D01*
X033769Y003484D02*
X033319Y003484D01*
X033319Y003507D02*
X033769Y003507D01*
X033769Y003530D02*
X033319Y003530D01*
X027667Y005652D02*
X027217Y005652D01*
X027217Y006102D01*
X027667Y006102D01*
X027667Y005652D01*
X027667Y005675D02*
X027217Y005675D01*
X027217Y005698D02*
X027667Y005698D01*
X027667Y005721D02*
X027217Y005721D01*
X027217Y005744D02*
X027667Y005744D01*
X027667Y005767D02*
X027217Y005767D01*
X027217Y005790D02*
X027667Y005790D01*
X027667Y005813D02*
X027217Y005813D01*
X027217Y005836D02*
X027667Y005836D01*
X027667Y005859D02*
X027217Y005859D01*
X027217Y005882D02*
X027667Y005882D01*
X027667Y005905D02*
X027217Y005905D01*
X027217Y005928D02*
X027667Y005928D01*
X027667Y005951D02*
X027217Y005951D01*
X027217Y005974D02*
X027667Y005974D01*
X027667Y005997D02*
X027217Y005997D01*
X027217Y006020D02*
X027667Y006020D01*
X027667Y006043D02*
X027217Y006043D01*
X027217Y006066D02*
X027667Y006066D01*
X027667Y006089D02*
X027217Y006089D01*
X025108Y006439D02*
X024658Y006439D01*
X024658Y006889D01*
X025108Y006889D01*
X025108Y006439D01*
X025108Y006462D02*
X024658Y006462D01*
X024658Y006485D02*
X025108Y006485D01*
X025108Y006508D02*
X024658Y006508D01*
X024658Y006531D02*
X025108Y006531D01*
X025108Y006554D02*
X024658Y006554D01*
X024658Y006577D02*
X025108Y006577D01*
X025108Y006600D02*
X024658Y006600D01*
X024658Y006623D02*
X025108Y006623D01*
X025108Y006646D02*
X024658Y006646D01*
X024658Y006669D02*
X025108Y006669D01*
X025108Y006692D02*
X024658Y006692D01*
X024658Y006715D02*
X025108Y006715D01*
X025108Y006738D02*
X024658Y006738D01*
X024658Y006761D02*
X025108Y006761D01*
X025108Y006784D02*
X024658Y006784D01*
X024658Y006807D02*
X025108Y006807D01*
X025108Y006830D02*
X024658Y006830D01*
X024658Y006853D02*
X025108Y006853D01*
X025108Y006876D02*
X024658Y006876D01*
X021859Y008605D02*
X021409Y008605D01*
X021409Y009055D01*
X021859Y009055D01*
X021859Y008605D01*
X021859Y008628D02*
X021409Y008628D01*
X021409Y008651D02*
X021859Y008651D01*
X021859Y008674D02*
X021409Y008674D01*
X021409Y008697D02*
X021859Y008697D01*
X021859Y008720D02*
X021409Y008720D01*
X021409Y008743D02*
X021859Y008743D01*
X021859Y008766D02*
X021409Y008766D01*
X021409Y008789D02*
X021859Y008789D01*
X021859Y008812D02*
X021409Y008812D01*
X021409Y008835D02*
X021859Y008835D01*
X021859Y008858D02*
X021409Y008858D01*
X021409Y008881D02*
X021859Y008881D01*
X021859Y008904D02*
X021409Y008904D01*
X021409Y008927D02*
X021859Y008927D01*
X021859Y008950D02*
X021409Y008950D01*
X021409Y008973D02*
X021859Y008973D01*
X021859Y008996D02*
X021409Y008996D01*
X021409Y009019D02*
X021859Y009019D01*
X021859Y009042D02*
X021409Y009042D01*
X021171Y008605D02*
X020721Y008605D01*
X020721Y009055D01*
X021171Y009055D01*
X021171Y008605D01*
X021171Y008628D02*
X020721Y008628D01*
X020721Y008651D02*
X021171Y008651D01*
X021171Y008674D02*
X020721Y008674D01*
X020721Y008697D02*
X021171Y008697D01*
X021171Y008720D02*
X020721Y008720D01*
X020721Y008743D02*
X021171Y008743D01*
X021171Y008766D02*
X020721Y008766D01*
X020721Y008789D02*
X021171Y008789D01*
X021171Y008812D02*
X020721Y008812D01*
X020721Y008835D02*
X021171Y008835D01*
X021171Y008858D02*
X020721Y008858D01*
X020721Y008881D02*
X021171Y008881D01*
X021171Y008904D02*
X020721Y008904D01*
X020721Y008927D02*
X021171Y008927D01*
X021171Y008950D02*
X020721Y008950D01*
X020721Y008973D02*
X021171Y008973D01*
X021171Y008996D02*
X020721Y008996D01*
X020721Y009019D02*
X021171Y009019D01*
X021171Y009042D02*
X020721Y009042D01*
X020482Y008605D02*
X020032Y008605D01*
X020032Y009055D01*
X020482Y009055D01*
X020482Y008605D01*
X020482Y008628D02*
X020032Y008628D01*
X020032Y008651D02*
X020482Y008651D01*
X020482Y008674D02*
X020032Y008674D01*
X020032Y008697D02*
X020482Y008697D01*
X020482Y008720D02*
X020032Y008720D01*
X020032Y008743D02*
X020482Y008743D01*
X020482Y008766D02*
X020032Y008766D01*
X020032Y008789D02*
X020482Y008789D01*
X020482Y008812D02*
X020032Y008812D01*
X020032Y008835D02*
X020482Y008835D01*
X020482Y008858D02*
X020032Y008858D01*
X020032Y008881D02*
X020482Y008881D01*
X020482Y008904D02*
X020032Y008904D01*
X020032Y008927D02*
X020482Y008927D01*
X020482Y008950D02*
X020032Y008950D01*
X020032Y008973D02*
X020482Y008973D01*
X020482Y008996D02*
X020032Y008996D01*
X020032Y009019D02*
X020482Y009019D01*
X020482Y009042D02*
X020032Y009042D01*
X019793Y008605D02*
X019343Y008605D01*
X019343Y009055D01*
X019793Y009055D01*
X019793Y008605D01*
X019793Y008628D02*
X019343Y008628D01*
X019343Y008651D02*
X019793Y008651D01*
X019793Y008674D02*
X019343Y008674D01*
X019343Y008697D02*
X019793Y008697D01*
X019793Y008720D02*
X019343Y008720D01*
X019343Y008743D02*
X019793Y008743D01*
X019793Y008766D02*
X019343Y008766D01*
X019343Y008789D02*
X019793Y008789D01*
X019793Y008812D02*
X019343Y008812D01*
X019343Y008835D02*
X019793Y008835D01*
X019793Y008858D02*
X019343Y008858D01*
X019343Y008881D02*
X019793Y008881D01*
X019793Y008904D02*
X019343Y008904D01*
X019343Y008927D02*
X019793Y008927D01*
X019793Y008950D02*
X019343Y008950D01*
X019343Y008973D02*
X019793Y008973D01*
X019793Y008996D02*
X019343Y008996D01*
X019343Y009019D02*
X019793Y009019D01*
X019793Y009042D02*
X019343Y009042D01*
X019104Y008605D02*
X018654Y008605D01*
X018654Y009055D01*
X019104Y009055D01*
X019104Y008605D01*
X019104Y008628D02*
X018654Y008628D01*
X018654Y008651D02*
X019104Y008651D01*
X019104Y008674D02*
X018654Y008674D01*
X018654Y008697D02*
X019104Y008697D01*
X019104Y008720D02*
X018654Y008720D01*
X018654Y008743D02*
X019104Y008743D01*
X019104Y008766D02*
X018654Y008766D01*
X018654Y008789D02*
X019104Y008789D01*
X019104Y008812D02*
X018654Y008812D01*
X018654Y008835D02*
X019104Y008835D01*
X019104Y008858D02*
X018654Y008858D01*
X018654Y008881D02*
X019104Y008881D01*
X019104Y008904D02*
X018654Y008904D01*
X018654Y008927D02*
X019104Y008927D01*
X019104Y008950D02*
X018654Y008950D01*
X018654Y008973D02*
X019104Y008973D01*
X019104Y008996D02*
X018654Y008996D01*
X018654Y009019D02*
X019104Y009019D01*
X019104Y009042D02*
X018654Y009042D01*
X018415Y008605D02*
X017965Y008605D01*
X017965Y009055D01*
X018415Y009055D01*
X018415Y008605D01*
X018415Y008628D02*
X017965Y008628D01*
X017965Y008651D02*
X018415Y008651D01*
X018415Y008674D02*
X017965Y008674D01*
X017965Y008697D02*
X018415Y008697D01*
X018415Y008720D02*
X017965Y008720D01*
X017965Y008743D02*
X018415Y008743D01*
X018415Y008766D02*
X017965Y008766D01*
X017965Y008789D02*
X018415Y008789D01*
X018415Y008812D02*
X017965Y008812D01*
X017965Y008835D02*
X018415Y008835D01*
X018415Y008858D02*
X017965Y008858D01*
X017965Y008881D02*
X018415Y008881D01*
X018415Y008904D02*
X017965Y008904D01*
X017965Y008927D02*
X018415Y008927D01*
X018415Y008950D02*
X017965Y008950D01*
X017965Y008973D02*
X018415Y008973D01*
X018415Y008996D02*
X017965Y008996D01*
X017965Y009019D02*
X018415Y009019D01*
X018415Y009042D02*
X017965Y009042D01*
X017037Y004668D02*
X016587Y004668D01*
X016587Y005118D01*
X017037Y005118D01*
X017037Y004668D01*
X017037Y004691D02*
X016587Y004691D01*
X016587Y004714D02*
X017037Y004714D01*
X017037Y004737D02*
X016587Y004737D01*
X016587Y004760D02*
X017037Y004760D01*
X017037Y004783D02*
X016587Y004783D01*
X016587Y004806D02*
X017037Y004806D01*
X017037Y004829D02*
X016587Y004829D01*
X016587Y004852D02*
X017037Y004852D01*
X017037Y004875D02*
X016587Y004875D01*
X016587Y004898D02*
X017037Y004898D01*
X017037Y004921D02*
X016587Y004921D01*
X016587Y004944D02*
X017037Y004944D01*
X017037Y004967D02*
X016587Y004967D01*
X016587Y004990D02*
X017037Y004990D01*
X017037Y005013D02*
X016587Y005013D01*
X016587Y005036D02*
X017037Y005036D01*
X017037Y005059D02*
X016587Y005059D01*
X016587Y005082D02*
X017037Y005082D01*
X017037Y005105D02*
X016587Y005105D01*
X007194Y009589D02*
X006744Y009589D01*
X006744Y010039D01*
X007194Y010039D01*
X007194Y009589D01*
X007194Y009612D02*
X006744Y009612D01*
X006744Y009635D02*
X007194Y009635D01*
X007194Y009658D02*
X006744Y009658D01*
X006744Y009681D02*
X007194Y009681D01*
X007194Y009704D02*
X006744Y009704D01*
X006744Y009727D02*
X007194Y009727D01*
X007194Y009750D02*
X006744Y009750D01*
X006744Y009773D02*
X007194Y009773D01*
X007194Y009796D02*
X006744Y009796D01*
X006744Y009819D02*
X007194Y009819D01*
X007194Y009842D02*
X006744Y009842D01*
X006744Y009865D02*
X007194Y009865D01*
X007194Y009888D02*
X006744Y009888D01*
X006744Y009911D02*
X007194Y009911D01*
X007194Y009934D02*
X006744Y009934D01*
X006744Y009957D02*
X007194Y009957D01*
X007194Y009980D02*
X006744Y009980D01*
X006744Y010003D02*
X007194Y010003D01*
X007194Y010026D02*
X006744Y010026D01*
X005422Y008605D02*
X004972Y008605D01*
X004972Y009055D01*
X005422Y009055D01*
X005422Y008605D01*
X005422Y008628D02*
X004972Y008628D01*
X004972Y008651D02*
X005422Y008651D01*
X005422Y008674D02*
X004972Y008674D01*
X004972Y008697D02*
X005422Y008697D01*
X005422Y008720D02*
X004972Y008720D01*
X004972Y008743D02*
X005422Y008743D01*
X005422Y008766D02*
X004972Y008766D01*
X004972Y008789D02*
X005422Y008789D01*
X005422Y008812D02*
X004972Y008812D01*
X004972Y008835D02*
X005422Y008835D01*
X005422Y008858D02*
X004972Y008858D01*
X004972Y008881D02*
X005422Y008881D01*
X005422Y008904D02*
X004972Y008904D01*
X004972Y008927D02*
X005422Y008927D01*
X005422Y008950D02*
X004972Y008950D01*
X004972Y008973D02*
X005422Y008973D01*
X005422Y008996D02*
X004972Y008996D01*
X004972Y009019D02*
X005422Y009019D01*
X005422Y009042D02*
X004972Y009042D01*
X004635Y008605D02*
X004185Y008605D01*
X004185Y009055D01*
X004635Y009055D01*
X004635Y008605D01*
X004635Y008628D02*
X004185Y008628D01*
X004185Y008651D02*
X004635Y008651D01*
X004635Y008674D02*
X004185Y008674D01*
X004185Y008697D02*
X004635Y008697D01*
X004635Y008720D02*
X004185Y008720D01*
X004185Y008743D02*
X004635Y008743D01*
X004635Y008766D02*
X004185Y008766D01*
X004185Y008789D02*
X004635Y008789D01*
X004635Y008812D02*
X004185Y008812D01*
X004185Y008835D02*
X004635Y008835D01*
X004635Y008858D02*
X004185Y008858D01*
X004185Y008881D02*
X004635Y008881D01*
X004635Y008904D02*
X004185Y008904D01*
X004185Y008927D02*
X004635Y008927D01*
X004635Y008950D02*
X004185Y008950D01*
X004185Y008973D02*
X004635Y008973D01*
X004635Y008996D02*
X004185Y008996D01*
X004185Y009019D02*
X004635Y009019D01*
X004635Y009042D02*
X004185Y009042D01*
X004241Y007817D02*
X003791Y007817D01*
X003791Y008267D01*
X004241Y008267D01*
X004241Y007817D01*
X004241Y007840D02*
X003791Y007840D01*
X003791Y007863D02*
X004241Y007863D01*
X004241Y007886D02*
X003791Y007886D01*
X003791Y007909D02*
X004241Y007909D01*
X004241Y007932D02*
X003791Y007932D01*
X003791Y007955D02*
X004241Y007955D01*
X004241Y007978D02*
X003791Y007978D01*
X003791Y008001D02*
X004241Y008001D01*
X004241Y008024D02*
X003791Y008024D01*
X003791Y008047D02*
X004241Y008047D01*
X004241Y008070D02*
X003791Y008070D01*
X003791Y008093D02*
X004241Y008093D01*
X004241Y008116D02*
X003791Y008116D01*
X003791Y008139D02*
X004241Y008139D01*
X004241Y008162D02*
X003791Y008162D01*
X003791Y008185D02*
X004241Y008185D01*
X004241Y008208D02*
X003791Y008208D01*
X003791Y008231D02*
X004241Y008231D01*
X004241Y008254D02*
X003791Y008254D01*
X003454Y007817D02*
X003004Y007817D01*
X003004Y008267D01*
X003454Y008267D01*
X003454Y007817D01*
X003454Y007840D02*
X003004Y007840D01*
X003004Y007863D02*
X003454Y007863D01*
X003454Y007886D02*
X003004Y007886D01*
X003004Y007909D02*
X003454Y007909D01*
X003454Y007932D02*
X003004Y007932D01*
X003004Y007955D02*
X003454Y007955D01*
X003454Y007978D02*
X003004Y007978D01*
X003004Y008001D02*
X003454Y008001D01*
X003454Y008024D02*
X003004Y008024D01*
X003004Y008047D02*
X003454Y008047D01*
X003454Y008070D02*
X003004Y008070D01*
X003004Y008093D02*
X003454Y008093D01*
X003454Y008116D02*
X003004Y008116D01*
X003004Y008139D02*
X003454Y008139D01*
X003454Y008162D02*
X003004Y008162D01*
X003004Y008185D02*
X003454Y008185D01*
X003454Y008208D02*
X003004Y008208D01*
X003004Y008231D02*
X003454Y008231D01*
X003454Y008254D02*
X003004Y008254D01*
X002807Y007227D02*
X003257Y007227D01*
X002807Y007227D02*
X002807Y007677D01*
X003257Y007677D01*
X003257Y007227D01*
X003257Y007250D02*
X002807Y007250D01*
X002807Y007273D02*
X003257Y007273D01*
X003257Y007296D02*
X002807Y007296D01*
X002807Y007319D02*
X003257Y007319D01*
X003257Y007342D02*
X002807Y007342D01*
X002807Y007365D02*
X003257Y007365D01*
X003257Y007388D02*
X002807Y007388D01*
X002807Y007411D02*
X003257Y007411D01*
X003257Y007434D02*
X002807Y007434D01*
X002807Y007457D02*
X003257Y007457D01*
X003257Y007480D02*
X002807Y007480D01*
X002807Y007503D02*
X003257Y007503D01*
X003257Y007526D02*
X002807Y007526D01*
X002807Y007549D02*
X003257Y007549D01*
X003257Y007572D02*
X002807Y007572D01*
X002807Y007595D02*
X003257Y007595D01*
X003257Y007618D02*
X002807Y007618D01*
X002807Y007641D02*
X003257Y007641D01*
X003257Y007664D02*
X002807Y007664D01*
X002667Y007227D02*
X002217Y007227D01*
X002217Y007677D01*
X002667Y007677D01*
X002667Y007227D01*
X002667Y007250D02*
X002217Y007250D01*
X002217Y007273D02*
X002667Y007273D01*
X002667Y007296D02*
X002217Y007296D01*
X002217Y007319D02*
X002667Y007319D01*
X002667Y007342D02*
X002217Y007342D01*
X002217Y007365D02*
X002667Y007365D01*
X002667Y007388D02*
X002217Y007388D01*
X002217Y007411D02*
X002667Y007411D01*
X002667Y007434D02*
X002217Y007434D01*
X002217Y007457D02*
X002667Y007457D01*
X002667Y007480D02*
X002217Y007480D01*
X002217Y007503D02*
X002667Y007503D01*
X002667Y007526D02*
X002217Y007526D01*
X002217Y007549D02*
X002667Y007549D01*
X002667Y007572D02*
X002217Y007572D01*
X002217Y007595D02*
X002667Y007595D01*
X002667Y007618D02*
X002217Y007618D01*
X002217Y007641D02*
X002667Y007641D01*
X002667Y007664D02*
X002217Y007664D01*
X002217Y006439D02*
X002667Y006439D01*
X002217Y006439D02*
X002217Y006889D01*
X002667Y006889D01*
X002667Y006439D01*
X002667Y006462D02*
X002217Y006462D01*
X002217Y006485D02*
X002667Y006485D01*
X002667Y006508D02*
X002217Y006508D01*
X002217Y006531D02*
X002667Y006531D01*
X002667Y006554D02*
X002217Y006554D01*
X002217Y006577D02*
X002667Y006577D01*
X002667Y006600D02*
X002217Y006600D01*
X002217Y006623D02*
X002667Y006623D01*
X002667Y006646D02*
X002217Y006646D01*
X002217Y006669D02*
X002667Y006669D01*
X002667Y006692D02*
X002217Y006692D01*
X002217Y006715D02*
X002667Y006715D01*
X002667Y006738D02*
X002217Y006738D01*
X002217Y006761D02*
X002667Y006761D01*
X002667Y006784D02*
X002217Y006784D01*
X002217Y006807D02*
X002667Y006807D01*
X002667Y006830D02*
X002217Y006830D01*
X002217Y006853D02*
X002667Y006853D01*
X002667Y006876D02*
X002217Y006876D01*
X002807Y006439D02*
X003257Y006439D01*
X002807Y006439D02*
X002807Y006889D01*
X003257Y006889D01*
X003257Y006439D01*
X003257Y006462D02*
X002807Y006462D01*
X002807Y006485D02*
X003257Y006485D01*
X003257Y006508D02*
X002807Y006508D01*
X002807Y006531D02*
X003257Y006531D01*
X003257Y006554D02*
X002807Y006554D01*
X002807Y006577D02*
X003257Y006577D01*
X003257Y006600D02*
X002807Y006600D01*
X002807Y006623D02*
X003257Y006623D01*
X003257Y006646D02*
X002807Y006646D01*
X002807Y006669D02*
X003257Y006669D01*
X003257Y006692D02*
X002807Y006692D01*
X002807Y006715D02*
X003257Y006715D01*
X003257Y006738D02*
X002807Y006738D01*
X002807Y006761D02*
X003257Y006761D01*
X003257Y006784D02*
X002807Y006784D01*
X002807Y006807D02*
X003257Y006807D01*
X003257Y006830D02*
X002807Y006830D01*
X002807Y006853D02*
X003257Y006853D01*
X003257Y006876D02*
X002807Y006876D01*
X003398Y006439D02*
X003848Y006439D01*
X003398Y006439D02*
X003398Y006889D01*
X003848Y006889D01*
X003848Y006439D01*
X003848Y006462D02*
X003398Y006462D01*
X003398Y006485D02*
X003848Y006485D01*
X003848Y006508D02*
X003398Y006508D01*
X003398Y006531D02*
X003848Y006531D01*
X003848Y006554D02*
X003398Y006554D01*
X003398Y006577D02*
X003848Y006577D01*
X003848Y006600D02*
X003398Y006600D01*
X003398Y006623D02*
X003848Y006623D01*
X003848Y006646D02*
X003398Y006646D01*
X003398Y006669D02*
X003848Y006669D01*
X003848Y006692D02*
X003398Y006692D01*
X003398Y006715D02*
X003848Y006715D01*
X003848Y006738D02*
X003398Y006738D01*
X003398Y006761D02*
X003848Y006761D01*
X003848Y006784D02*
X003398Y006784D01*
X003398Y006807D02*
X003848Y006807D01*
X003848Y006830D02*
X003398Y006830D01*
X003398Y006853D02*
X003848Y006853D01*
X003848Y006876D02*
X003398Y006876D01*
X003398Y007227D02*
X003848Y007227D01*
X003398Y007227D02*
X003398Y007677D01*
X003848Y007677D01*
X003848Y007227D01*
X003848Y007250D02*
X003398Y007250D01*
X003398Y007273D02*
X003848Y007273D01*
X003848Y007296D02*
X003398Y007296D01*
X003398Y007319D02*
X003848Y007319D01*
X003848Y007342D02*
X003398Y007342D01*
X003398Y007365D02*
X003848Y007365D01*
X003848Y007388D02*
X003398Y007388D01*
X003398Y007411D02*
X003848Y007411D01*
X003848Y007434D02*
X003398Y007434D01*
X003398Y007457D02*
X003848Y007457D01*
X003848Y007480D02*
X003398Y007480D01*
X003398Y007503D02*
X003848Y007503D01*
X003848Y007526D02*
X003398Y007526D01*
X003398Y007549D02*
X003848Y007549D01*
X003848Y007572D02*
X003398Y007572D01*
X003398Y007595D02*
X003848Y007595D01*
X003848Y007618D02*
X003398Y007618D01*
X003398Y007641D02*
X003848Y007641D01*
X003848Y007664D02*
X003398Y007664D01*
X003201Y011557D02*
X003651Y011557D01*
X003201Y011557D02*
X003201Y012007D01*
X003651Y012007D01*
X003651Y011557D01*
X003651Y011580D02*
X003201Y011580D01*
X003201Y011603D02*
X003651Y011603D01*
X003651Y011626D02*
X003201Y011626D01*
X003201Y011649D02*
X003651Y011649D01*
X003651Y011672D02*
X003201Y011672D01*
X003201Y011695D02*
X003651Y011695D01*
X003651Y011718D02*
X003201Y011718D01*
X003201Y011741D02*
X003651Y011741D01*
X003651Y011764D02*
X003201Y011764D01*
X003201Y011787D02*
X003651Y011787D01*
X003651Y011810D02*
X003201Y011810D01*
X003201Y011833D02*
X003651Y011833D01*
X003651Y011856D02*
X003201Y011856D01*
X003201Y011879D02*
X003651Y011879D01*
X003651Y011902D02*
X003201Y011902D01*
X003201Y011925D02*
X003651Y011925D01*
X003651Y011948D02*
X003201Y011948D01*
X003201Y011971D02*
X003651Y011971D01*
X003651Y011994D02*
X003201Y011994D01*
X003201Y012148D02*
X003651Y012148D01*
X003201Y012148D02*
X003201Y012598D01*
X003651Y012598D01*
X003651Y012148D01*
X003651Y012171D02*
X003201Y012171D01*
X003201Y012194D02*
X003651Y012194D01*
X003651Y012217D02*
X003201Y012217D01*
X003201Y012240D02*
X003651Y012240D01*
X003651Y012263D02*
X003201Y012263D01*
X003201Y012286D02*
X003651Y012286D01*
X003651Y012309D02*
X003201Y012309D01*
X003201Y012332D02*
X003651Y012332D01*
X003651Y012355D02*
X003201Y012355D01*
X003201Y012378D02*
X003651Y012378D01*
X003651Y012401D02*
X003201Y012401D01*
X003201Y012424D02*
X003651Y012424D01*
X003651Y012447D02*
X003201Y012447D01*
X003201Y012470D02*
X003651Y012470D01*
X003651Y012493D02*
X003201Y012493D01*
X003201Y012516D02*
X003651Y012516D01*
X003651Y012539D02*
X003201Y012539D01*
X003201Y012562D02*
X003651Y012562D01*
X003651Y012585D02*
X003201Y012585D01*
X003060Y012935D02*
X002610Y012935D01*
X002610Y013385D01*
X003060Y013385D01*
X003060Y012935D01*
X003060Y012958D02*
X002610Y012958D01*
X002610Y012981D02*
X003060Y012981D01*
X003060Y013004D02*
X002610Y013004D01*
X002610Y013027D02*
X003060Y013027D01*
X003060Y013050D02*
X002610Y013050D01*
X002610Y013073D02*
X003060Y013073D01*
X003060Y013096D02*
X002610Y013096D01*
X002610Y013119D02*
X003060Y013119D01*
X003060Y013142D02*
X002610Y013142D01*
X002610Y013165D02*
X003060Y013165D01*
X003060Y013188D02*
X002610Y013188D01*
X002610Y013211D02*
X003060Y013211D01*
X003060Y013234D02*
X002610Y013234D01*
X002610Y013257D02*
X003060Y013257D01*
X003060Y013280D02*
X002610Y013280D01*
X002610Y013303D02*
X003060Y013303D01*
X003060Y013326D02*
X002610Y013326D01*
X002610Y013349D02*
X003060Y013349D01*
X003060Y013372D02*
X002610Y013372D01*
X002470Y012148D02*
X002020Y012148D01*
X002020Y012598D01*
X002470Y012598D01*
X002470Y012148D01*
X002470Y012171D02*
X002020Y012171D01*
X002020Y012194D02*
X002470Y012194D01*
X002470Y012217D02*
X002020Y012217D01*
X002020Y012240D02*
X002470Y012240D01*
X002470Y012263D02*
X002020Y012263D01*
X002020Y012286D02*
X002470Y012286D01*
X002470Y012309D02*
X002020Y012309D01*
X002020Y012332D02*
X002470Y012332D01*
X002470Y012355D02*
X002020Y012355D01*
X002020Y012378D02*
X002470Y012378D01*
X002470Y012401D02*
X002020Y012401D01*
X002020Y012424D02*
X002470Y012424D01*
X002470Y012447D02*
X002020Y012447D01*
X002020Y012470D02*
X002470Y012470D01*
X002470Y012493D02*
X002020Y012493D01*
X002020Y012516D02*
X002470Y012516D01*
X002470Y012539D02*
X002020Y012539D01*
X002020Y012562D02*
X002470Y012562D01*
X002470Y012585D02*
X002020Y012585D01*
X001682Y012148D02*
X001232Y012148D01*
X001232Y012598D01*
X001682Y012598D01*
X001682Y012148D01*
X001682Y012171D02*
X001232Y012171D01*
X001232Y012194D02*
X001682Y012194D01*
X001682Y012217D02*
X001232Y012217D01*
X001232Y012240D02*
X001682Y012240D01*
X001682Y012263D02*
X001232Y012263D01*
X001232Y012286D02*
X001682Y012286D01*
X001682Y012309D02*
X001232Y012309D01*
X001232Y012332D02*
X001682Y012332D01*
X001682Y012355D02*
X001232Y012355D01*
X001232Y012378D02*
X001682Y012378D01*
X001682Y012401D02*
X001232Y012401D01*
X001232Y012424D02*
X001682Y012424D01*
X001682Y012447D02*
X001232Y012447D01*
X001232Y012470D02*
X001682Y012470D01*
X001682Y012493D02*
X001232Y012493D01*
X001232Y012516D02*
X001682Y012516D01*
X001682Y012539D02*
X001232Y012539D01*
X001232Y012562D02*
X001682Y012562D01*
X001682Y012585D02*
X001232Y012585D01*
X001232Y014116D02*
X001682Y014116D01*
X001232Y014116D02*
X001232Y014566D01*
X001682Y014566D01*
X001682Y014116D01*
X001682Y014139D02*
X001232Y014139D01*
X001232Y014162D02*
X001682Y014162D01*
X001682Y014185D02*
X001232Y014185D01*
X001232Y014208D02*
X001682Y014208D01*
X001682Y014231D02*
X001232Y014231D01*
X001232Y014254D02*
X001682Y014254D01*
X001682Y014277D02*
X001232Y014277D01*
X001232Y014300D02*
X001682Y014300D01*
X001682Y014323D02*
X001232Y014323D01*
X001232Y014346D02*
X001682Y014346D01*
X001682Y014369D02*
X001232Y014369D01*
X001232Y014392D02*
X001682Y014392D01*
X001682Y014415D02*
X001232Y014415D01*
X001232Y014438D02*
X001682Y014438D01*
X001682Y014461D02*
X001232Y014461D01*
X001232Y014484D02*
X001682Y014484D01*
X001682Y014507D02*
X001232Y014507D01*
X001232Y014530D02*
X001682Y014530D01*
X001682Y014553D02*
X001232Y014553D01*
X001232Y014904D02*
X001682Y014904D01*
X001232Y014904D02*
X001232Y015354D01*
X001682Y015354D01*
X001682Y014904D01*
X001682Y014927D02*
X001232Y014927D01*
X001232Y014950D02*
X001682Y014950D01*
X001682Y014973D02*
X001232Y014973D01*
X001232Y014996D02*
X001682Y014996D01*
X001682Y015019D02*
X001232Y015019D01*
X001232Y015042D02*
X001682Y015042D01*
X001682Y015065D02*
X001232Y015065D01*
X001232Y015088D02*
X001682Y015088D01*
X001682Y015111D02*
X001232Y015111D01*
X001232Y015134D02*
X001682Y015134D01*
X001682Y015157D02*
X001232Y015157D01*
X001232Y015180D02*
X001682Y015180D01*
X001682Y015203D02*
X001232Y015203D01*
X001232Y015226D02*
X001682Y015226D01*
X001682Y015249D02*
X001232Y015249D01*
X001232Y015272D02*
X001682Y015272D01*
X001682Y015295D02*
X001232Y015295D01*
X001232Y015318D02*
X001682Y015318D01*
X001682Y015341D02*
X001232Y015341D01*
X001232Y015494D02*
X001682Y015494D01*
X001232Y015494D02*
X001232Y015944D01*
X001682Y015944D01*
X001682Y015494D01*
X001682Y015517D02*
X001232Y015517D01*
X001232Y015540D02*
X001682Y015540D01*
X001682Y015563D02*
X001232Y015563D01*
X001232Y015586D02*
X001682Y015586D01*
X001682Y015609D02*
X001232Y015609D01*
X001232Y015632D02*
X001682Y015632D01*
X001682Y015655D02*
X001232Y015655D01*
X001232Y015678D02*
X001682Y015678D01*
X001682Y015701D02*
X001232Y015701D01*
X001232Y015724D02*
X001682Y015724D01*
X001682Y015747D02*
X001232Y015747D01*
X001232Y015770D02*
X001682Y015770D01*
X001682Y015793D02*
X001232Y015793D01*
X001232Y015816D02*
X001682Y015816D01*
X001682Y015839D02*
X001232Y015839D01*
X001232Y015862D02*
X001682Y015862D01*
X001682Y015885D02*
X001232Y015885D01*
X001232Y015908D02*
X001682Y015908D01*
X001682Y015931D02*
X001232Y015931D01*
X001232Y016282D02*
X001682Y016282D01*
X001232Y016282D02*
X001232Y016732D01*
X001682Y016732D01*
X001682Y016282D01*
X001682Y016305D02*
X001232Y016305D01*
X001232Y016328D02*
X001682Y016328D01*
X001682Y016351D02*
X001232Y016351D01*
X001232Y016374D02*
X001682Y016374D01*
X001682Y016397D02*
X001232Y016397D01*
X001232Y016420D02*
X001682Y016420D01*
X001682Y016443D02*
X001232Y016443D01*
X001232Y016466D02*
X001682Y016466D01*
X001682Y016489D02*
X001232Y016489D01*
X001232Y016512D02*
X001682Y016512D01*
X001682Y016535D02*
X001232Y016535D01*
X001232Y016558D02*
X001682Y016558D01*
X001682Y016581D02*
X001232Y016581D01*
X001232Y016604D02*
X001682Y016604D01*
X001682Y016627D02*
X001232Y016627D01*
X001232Y016650D02*
X001682Y016650D01*
X001682Y016673D02*
X001232Y016673D01*
X001232Y016696D02*
X001682Y016696D01*
X001682Y016719D02*
X001232Y016719D01*
X001232Y017069D02*
X001682Y017069D01*
X001232Y017069D02*
X001232Y017519D01*
X001682Y017519D01*
X001682Y017069D01*
X001682Y017092D02*
X001232Y017092D01*
X001232Y017115D02*
X001682Y017115D01*
X001682Y017138D02*
X001232Y017138D01*
X001232Y017161D02*
X001682Y017161D01*
X001682Y017184D02*
X001232Y017184D01*
X001232Y017207D02*
X001682Y017207D01*
X001682Y017230D02*
X001232Y017230D01*
X001232Y017253D02*
X001682Y017253D01*
X001682Y017276D02*
X001232Y017276D01*
X001232Y017299D02*
X001682Y017299D01*
X001682Y017322D02*
X001232Y017322D01*
X001232Y017345D02*
X001682Y017345D01*
X001682Y017368D02*
X001232Y017368D01*
X001232Y017391D02*
X001682Y017391D01*
X001682Y017414D02*
X001232Y017414D01*
X001232Y017437D02*
X001682Y017437D01*
X001682Y017460D02*
X001232Y017460D01*
X001232Y017483D02*
X001682Y017483D01*
X001682Y017506D02*
X001232Y017506D01*
X001232Y017857D02*
X001682Y017857D01*
X001232Y017857D02*
X001232Y018307D01*
X001682Y018307D01*
X001682Y017857D01*
X001682Y017880D02*
X001232Y017880D01*
X001232Y017903D02*
X001682Y017903D01*
X001682Y017926D02*
X001232Y017926D01*
X001232Y017949D02*
X001682Y017949D01*
X001682Y017972D02*
X001232Y017972D01*
X001232Y017995D02*
X001682Y017995D01*
X001682Y018018D02*
X001232Y018018D01*
X001232Y018041D02*
X001682Y018041D01*
X001682Y018064D02*
X001232Y018064D01*
X001232Y018087D02*
X001682Y018087D01*
X001682Y018110D02*
X001232Y018110D01*
X001232Y018133D02*
X001682Y018133D01*
X001682Y018156D02*
X001232Y018156D01*
X001232Y018179D02*
X001682Y018179D01*
X001682Y018202D02*
X001232Y018202D01*
X001232Y018225D02*
X001682Y018225D01*
X001682Y018248D02*
X001232Y018248D01*
X001232Y018271D02*
X001682Y018271D01*
X001682Y018294D02*
X001232Y018294D01*
X001823Y017857D02*
X002273Y017857D01*
X001823Y017857D02*
X001823Y018307D01*
X002273Y018307D01*
X002273Y017857D01*
X002273Y017880D02*
X001823Y017880D01*
X001823Y017903D02*
X002273Y017903D01*
X002273Y017926D02*
X001823Y017926D01*
X001823Y017949D02*
X002273Y017949D01*
X002273Y017972D02*
X001823Y017972D01*
X001823Y017995D02*
X002273Y017995D01*
X002273Y018018D02*
X001823Y018018D01*
X001823Y018041D02*
X002273Y018041D01*
X002273Y018064D02*
X001823Y018064D01*
X001823Y018087D02*
X002273Y018087D01*
X002273Y018110D02*
X001823Y018110D01*
X001823Y018133D02*
X002273Y018133D01*
X002273Y018156D02*
X001823Y018156D01*
X001823Y018179D02*
X002273Y018179D01*
X002273Y018202D02*
X001823Y018202D01*
X001823Y018225D02*
X002273Y018225D01*
X002273Y018248D02*
X001823Y018248D01*
X001823Y018271D02*
X002273Y018271D01*
X002273Y018294D02*
X001823Y018294D01*
X001823Y018447D02*
X002273Y018447D01*
X001823Y018447D02*
X001823Y018897D01*
X002273Y018897D01*
X002273Y018447D01*
X002273Y018470D02*
X001823Y018470D01*
X001823Y018493D02*
X002273Y018493D01*
X002273Y018516D02*
X001823Y018516D01*
X001823Y018539D02*
X002273Y018539D01*
X002273Y018562D02*
X001823Y018562D01*
X001823Y018585D02*
X002273Y018585D01*
X002273Y018608D02*
X001823Y018608D01*
X001823Y018631D02*
X002273Y018631D01*
X002273Y018654D02*
X001823Y018654D01*
X001823Y018677D02*
X002273Y018677D01*
X002273Y018700D02*
X001823Y018700D01*
X001823Y018723D02*
X002273Y018723D01*
X002273Y018746D02*
X001823Y018746D01*
X001823Y018769D02*
X002273Y018769D01*
X002273Y018792D02*
X001823Y018792D01*
X001823Y018815D02*
X002273Y018815D01*
X002273Y018838D02*
X001823Y018838D01*
X001823Y018861D02*
X002273Y018861D01*
X002273Y018884D02*
X001823Y018884D01*
X001823Y019038D02*
X002273Y019038D01*
X001823Y019038D02*
X001823Y019488D01*
X002273Y019488D01*
X002273Y019038D01*
X002273Y019061D02*
X001823Y019061D01*
X001823Y019084D02*
X002273Y019084D01*
X002273Y019107D02*
X001823Y019107D01*
X001823Y019130D02*
X002273Y019130D01*
X002273Y019153D02*
X001823Y019153D01*
X001823Y019176D02*
X002273Y019176D01*
X002273Y019199D02*
X001823Y019199D01*
X001823Y019222D02*
X002273Y019222D01*
X002273Y019245D02*
X001823Y019245D01*
X001823Y019268D02*
X002273Y019268D01*
X002273Y019291D02*
X001823Y019291D01*
X001823Y019314D02*
X002273Y019314D01*
X002273Y019337D02*
X001823Y019337D01*
X001823Y019360D02*
X002273Y019360D01*
X002273Y019383D02*
X001823Y019383D01*
X001823Y019406D02*
X002273Y019406D01*
X002273Y019429D02*
X001823Y019429D01*
X001823Y019452D02*
X002273Y019452D01*
X002273Y019475D02*
X001823Y019475D01*
X001823Y019628D02*
X002273Y019628D01*
X001823Y019628D02*
X001823Y020078D01*
X002273Y020078D01*
X002273Y019628D01*
X002273Y019651D02*
X001823Y019651D01*
X001823Y019674D02*
X002273Y019674D01*
X002273Y019697D02*
X001823Y019697D01*
X001823Y019720D02*
X002273Y019720D01*
X002273Y019743D02*
X001823Y019743D01*
X001823Y019766D02*
X002273Y019766D01*
X002273Y019789D02*
X001823Y019789D01*
X001823Y019812D02*
X002273Y019812D01*
X002273Y019835D02*
X001823Y019835D01*
X001823Y019858D02*
X002273Y019858D01*
X002273Y019881D02*
X001823Y019881D01*
X001823Y019904D02*
X002273Y019904D01*
X002273Y019927D02*
X001823Y019927D01*
X001823Y019950D02*
X002273Y019950D01*
X002273Y019973D02*
X001823Y019973D01*
X001823Y019996D02*
X002273Y019996D01*
X002273Y020019D02*
X001823Y020019D01*
X001823Y020042D02*
X002273Y020042D01*
X002273Y020065D02*
X001823Y020065D01*
X002610Y019628D02*
X003060Y019628D01*
X002610Y019628D02*
X002610Y020078D01*
X003060Y020078D01*
X003060Y019628D01*
X003060Y019651D02*
X002610Y019651D01*
X002610Y019674D02*
X003060Y019674D01*
X003060Y019697D02*
X002610Y019697D01*
X002610Y019720D02*
X003060Y019720D01*
X003060Y019743D02*
X002610Y019743D01*
X002610Y019766D02*
X003060Y019766D01*
X003060Y019789D02*
X002610Y019789D01*
X002610Y019812D02*
X003060Y019812D01*
X003060Y019835D02*
X002610Y019835D01*
X002610Y019858D02*
X003060Y019858D01*
X003060Y019881D02*
X002610Y019881D01*
X002610Y019904D02*
X003060Y019904D01*
X003060Y019927D02*
X002610Y019927D01*
X002610Y019950D02*
X003060Y019950D01*
X003060Y019973D02*
X002610Y019973D01*
X002610Y019996D02*
X003060Y019996D01*
X003060Y020019D02*
X002610Y020019D01*
X002610Y020042D02*
X003060Y020042D01*
X003060Y020065D02*
X002610Y020065D01*
X002610Y019038D02*
X003060Y019038D01*
X002610Y019038D02*
X002610Y019488D01*
X003060Y019488D01*
X003060Y019038D01*
X003060Y019061D02*
X002610Y019061D01*
X002610Y019084D02*
X003060Y019084D01*
X003060Y019107D02*
X002610Y019107D01*
X002610Y019130D02*
X003060Y019130D01*
X003060Y019153D02*
X002610Y019153D01*
X002610Y019176D02*
X003060Y019176D01*
X003060Y019199D02*
X002610Y019199D01*
X002610Y019222D02*
X003060Y019222D01*
X003060Y019245D02*
X002610Y019245D01*
X002610Y019268D02*
X003060Y019268D01*
X003060Y019291D02*
X002610Y019291D01*
X002610Y019314D02*
X003060Y019314D01*
X003060Y019337D02*
X002610Y019337D01*
X002610Y019360D02*
X003060Y019360D01*
X003060Y019383D02*
X002610Y019383D01*
X002610Y019406D02*
X003060Y019406D01*
X003060Y019429D02*
X002610Y019429D01*
X002610Y019452D02*
X003060Y019452D01*
X003060Y019475D02*
X002610Y019475D01*
X002610Y018447D02*
X003060Y018447D01*
X002610Y018447D02*
X002610Y018897D01*
X003060Y018897D01*
X003060Y018447D01*
X003060Y018470D02*
X002610Y018470D01*
X002610Y018493D02*
X003060Y018493D01*
X003060Y018516D02*
X002610Y018516D01*
X002610Y018539D02*
X003060Y018539D01*
X003060Y018562D02*
X002610Y018562D01*
X002610Y018585D02*
X003060Y018585D01*
X003060Y018608D02*
X002610Y018608D01*
X002610Y018631D02*
X003060Y018631D01*
X003060Y018654D02*
X002610Y018654D01*
X002610Y018677D02*
X003060Y018677D01*
X003060Y018700D02*
X002610Y018700D01*
X002610Y018723D02*
X003060Y018723D01*
X003060Y018746D02*
X002610Y018746D01*
X002610Y018769D02*
X003060Y018769D01*
X003060Y018792D02*
X002610Y018792D01*
X002610Y018815D02*
X003060Y018815D01*
X003060Y018838D02*
X002610Y018838D01*
X002610Y018861D02*
X003060Y018861D01*
X003060Y018884D02*
X002610Y018884D01*
X002610Y017857D02*
X003060Y017857D01*
X002610Y017857D02*
X002610Y018307D01*
X003060Y018307D01*
X003060Y017857D01*
X003060Y017880D02*
X002610Y017880D01*
X002610Y017903D02*
X003060Y017903D01*
X003060Y017926D02*
X002610Y017926D01*
X002610Y017949D02*
X003060Y017949D01*
X003060Y017972D02*
X002610Y017972D01*
X002610Y017995D02*
X003060Y017995D01*
X003060Y018018D02*
X002610Y018018D01*
X002610Y018041D02*
X003060Y018041D01*
X003060Y018064D02*
X002610Y018064D01*
X002610Y018087D02*
X003060Y018087D01*
X003060Y018110D02*
X002610Y018110D01*
X002610Y018133D02*
X003060Y018133D01*
X003060Y018156D02*
X002610Y018156D01*
X002610Y018179D02*
X003060Y018179D01*
X003060Y018202D02*
X002610Y018202D01*
X002610Y018225D02*
X003060Y018225D01*
X003060Y018248D02*
X002610Y018248D01*
X002610Y018271D02*
X003060Y018271D01*
X003060Y018294D02*
X002610Y018294D01*
X002610Y017266D02*
X003060Y017266D01*
X002610Y017266D02*
X002610Y017716D01*
X003060Y017716D01*
X003060Y017266D01*
X003060Y017289D02*
X002610Y017289D01*
X002610Y017312D02*
X003060Y017312D01*
X003060Y017335D02*
X002610Y017335D01*
X002610Y017358D02*
X003060Y017358D01*
X003060Y017381D02*
X002610Y017381D01*
X002610Y017404D02*
X003060Y017404D01*
X003060Y017427D02*
X002610Y017427D01*
X002610Y017450D02*
X003060Y017450D01*
X003060Y017473D02*
X002610Y017473D01*
X002610Y017496D02*
X003060Y017496D01*
X003060Y017519D02*
X002610Y017519D01*
X002610Y017542D02*
X003060Y017542D01*
X003060Y017565D02*
X002610Y017565D01*
X002610Y017588D02*
X003060Y017588D01*
X003060Y017611D02*
X002610Y017611D01*
X002610Y017634D02*
X003060Y017634D01*
X003060Y017657D02*
X002610Y017657D01*
X002610Y017680D02*
X003060Y017680D01*
X003060Y017703D02*
X002610Y017703D01*
X002273Y017266D02*
X001823Y017266D01*
X001823Y017716D01*
X002273Y017716D01*
X002273Y017266D01*
X002273Y017289D02*
X001823Y017289D01*
X001823Y017312D02*
X002273Y017312D01*
X002273Y017335D02*
X001823Y017335D01*
X001823Y017358D02*
X002273Y017358D01*
X002273Y017381D02*
X001823Y017381D01*
X001823Y017404D02*
X002273Y017404D01*
X002273Y017427D02*
X001823Y017427D01*
X001823Y017450D02*
X002273Y017450D01*
X002273Y017473D02*
X001823Y017473D01*
X001823Y017496D02*
X002273Y017496D01*
X002273Y017519D02*
X001823Y017519D01*
X001823Y017542D02*
X002273Y017542D01*
X002273Y017565D02*
X001823Y017565D01*
X001823Y017588D02*
X002273Y017588D01*
X002273Y017611D02*
X001823Y017611D01*
X001823Y017634D02*
X002273Y017634D01*
X002273Y017657D02*
X001823Y017657D01*
X001823Y017680D02*
X002273Y017680D01*
X002273Y017703D02*
X001823Y017703D01*
X001823Y016675D02*
X002273Y016675D01*
X001823Y016675D02*
X001823Y017125D01*
X002273Y017125D01*
X002273Y016675D01*
X002273Y016698D02*
X001823Y016698D01*
X001823Y016721D02*
X002273Y016721D01*
X002273Y016744D02*
X001823Y016744D01*
X001823Y016767D02*
X002273Y016767D01*
X002273Y016790D02*
X001823Y016790D01*
X001823Y016813D02*
X002273Y016813D01*
X002273Y016836D02*
X001823Y016836D01*
X001823Y016859D02*
X002273Y016859D01*
X002273Y016882D02*
X001823Y016882D01*
X001823Y016905D02*
X002273Y016905D01*
X002273Y016928D02*
X001823Y016928D01*
X001823Y016951D02*
X002273Y016951D01*
X002273Y016974D02*
X001823Y016974D01*
X001823Y016997D02*
X002273Y016997D01*
X002273Y017020D02*
X001823Y017020D01*
X001823Y017043D02*
X002273Y017043D01*
X002273Y017066D02*
X001823Y017066D01*
X001823Y017089D02*
X002273Y017089D01*
X002273Y017112D02*
X001823Y017112D01*
X001823Y016085D02*
X002273Y016085D01*
X001823Y016085D02*
X001823Y016535D01*
X002273Y016535D01*
X002273Y016085D01*
X002273Y016108D02*
X001823Y016108D01*
X001823Y016131D02*
X002273Y016131D01*
X002273Y016154D02*
X001823Y016154D01*
X001823Y016177D02*
X002273Y016177D01*
X002273Y016200D02*
X001823Y016200D01*
X001823Y016223D02*
X002273Y016223D01*
X002273Y016246D02*
X001823Y016246D01*
X001823Y016269D02*
X002273Y016269D01*
X002273Y016292D02*
X001823Y016292D01*
X001823Y016315D02*
X002273Y016315D01*
X002273Y016338D02*
X001823Y016338D01*
X001823Y016361D02*
X002273Y016361D01*
X002273Y016384D02*
X001823Y016384D01*
X001823Y016407D02*
X002273Y016407D01*
X002273Y016430D02*
X001823Y016430D01*
X001823Y016453D02*
X002273Y016453D01*
X002273Y016476D02*
X001823Y016476D01*
X001823Y016499D02*
X002273Y016499D01*
X002273Y016522D02*
X001823Y016522D01*
X002610Y016085D02*
X003060Y016085D01*
X002610Y016085D02*
X002610Y016535D01*
X003060Y016535D01*
X003060Y016085D01*
X003060Y016108D02*
X002610Y016108D01*
X002610Y016131D02*
X003060Y016131D01*
X003060Y016154D02*
X002610Y016154D01*
X002610Y016177D02*
X003060Y016177D01*
X003060Y016200D02*
X002610Y016200D01*
X002610Y016223D02*
X003060Y016223D01*
X003060Y016246D02*
X002610Y016246D01*
X002610Y016269D02*
X003060Y016269D01*
X003060Y016292D02*
X002610Y016292D01*
X002610Y016315D02*
X003060Y016315D01*
X003060Y016338D02*
X002610Y016338D01*
X002610Y016361D02*
X003060Y016361D01*
X003060Y016384D02*
X002610Y016384D01*
X002610Y016407D02*
X003060Y016407D01*
X003060Y016430D02*
X002610Y016430D01*
X002610Y016453D02*
X003060Y016453D01*
X003060Y016476D02*
X002610Y016476D01*
X002610Y016499D02*
X003060Y016499D01*
X003060Y016522D02*
X002610Y016522D01*
X002610Y016675D02*
X003060Y016675D01*
X002610Y016675D02*
X002610Y017125D01*
X003060Y017125D01*
X003060Y016675D01*
X003060Y016698D02*
X002610Y016698D01*
X002610Y016721D02*
X003060Y016721D01*
X003060Y016744D02*
X002610Y016744D01*
X002610Y016767D02*
X003060Y016767D01*
X003060Y016790D02*
X002610Y016790D01*
X002610Y016813D02*
X003060Y016813D01*
X003060Y016836D02*
X002610Y016836D01*
X002610Y016859D02*
X003060Y016859D01*
X003060Y016882D02*
X002610Y016882D01*
X002610Y016905D02*
X003060Y016905D01*
X003060Y016928D02*
X002610Y016928D01*
X002610Y016951D02*
X003060Y016951D01*
X003060Y016974D02*
X002610Y016974D01*
X002610Y016997D02*
X003060Y016997D01*
X003060Y017020D02*
X002610Y017020D01*
X002610Y017043D02*
X003060Y017043D01*
X003060Y017066D02*
X002610Y017066D01*
X002610Y017089D02*
X003060Y017089D01*
X003060Y017112D02*
X002610Y017112D01*
X002610Y015494D02*
X003060Y015494D01*
X002610Y015494D02*
X002610Y015944D01*
X003060Y015944D01*
X003060Y015494D01*
X003060Y015517D02*
X002610Y015517D01*
X002610Y015540D02*
X003060Y015540D01*
X003060Y015563D02*
X002610Y015563D01*
X002610Y015586D02*
X003060Y015586D01*
X003060Y015609D02*
X002610Y015609D01*
X002610Y015632D02*
X003060Y015632D01*
X003060Y015655D02*
X002610Y015655D01*
X002610Y015678D02*
X003060Y015678D01*
X003060Y015701D02*
X002610Y015701D01*
X002610Y015724D02*
X003060Y015724D01*
X003060Y015747D02*
X002610Y015747D01*
X002610Y015770D02*
X003060Y015770D01*
X003060Y015793D02*
X002610Y015793D01*
X002610Y015816D02*
X003060Y015816D01*
X003060Y015839D02*
X002610Y015839D01*
X002610Y015862D02*
X003060Y015862D01*
X003060Y015885D02*
X002610Y015885D01*
X002610Y015908D02*
X003060Y015908D01*
X003060Y015931D02*
X002610Y015931D01*
X002273Y015494D02*
X001823Y015494D01*
X001823Y015944D01*
X002273Y015944D01*
X002273Y015494D01*
X002273Y015517D02*
X001823Y015517D01*
X001823Y015540D02*
X002273Y015540D01*
X002273Y015563D02*
X001823Y015563D01*
X001823Y015586D02*
X002273Y015586D01*
X002273Y015609D02*
X001823Y015609D01*
X001823Y015632D02*
X002273Y015632D01*
X002273Y015655D02*
X001823Y015655D01*
X001823Y015678D02*
X002273Y015678D01*
X002273Y015701D02*
X001823Y015701D01*
X001823Y015724D02*
X002273Y015724D01*
X002273Y015747D02*
X001823Y015747D01*
X001823Y015770D02*
X002273Y015770D01*
X002273Y015793D02*
X001823Y015793D01*
X001823Y015816D02*
X002273Y015816D01*
X002273Y015839D02*
X001823Y015839D01*
X001823Y015862D02*
X002273Y015862D01*
X002273Y015885D02*
X001823Y015885D01*
X001823Y015908D02*
X002273Y015908D01*
X002273Y015931D02*
X001823Y015931D01*
X001823Y014904D02*
X002273Y014904D01*
X001823Y014904D02*
X001823Y015354D01*
X002273Y015354D01*
X002273Y014904D01*
X002273Y014927D02*
X001823Y014927D01*
X001823Y014950D02*
X002273Y014950D01*
X002273Y014973D02*
X001823Y014973D01*
X001823Y014996D02*
X002273Y014996D01*
X002273Y015019D02*
X001823Y015019D01*
X001823Y015042D02*
X002273Y015042D01*
X002273Y015065D02*
X001823Y015065D01*
X001823Y015088D02*
X002273Y015088D01*
X002273Y015111D02*
X001823Y015111D01*
X001823Y015134D02*
X002273Y015134D01*
X002273Y015157D02*
X001823Y015157D01*
X001823Y015180D02*
X002273Y015180D01*
X002273Y015203D02*
X001823Y015203D01*
X001823Y015226D02*
X002273Y015226D01*
X002273Y015249D02*
X001823Y015249D01*
X001823Y015272D02*
X002273Y015272D01*
X002273Y015295D02*
X001823Y015295D01*
X001823Y015318D02*
X002273Y015318D01*
X002273Y015341D02*
X001823Y015341D01*
X002610Y014904D02*
X003060Y014904D01*
X002610Y014904D02*
X002610Y015354D01*
X003060Y015354D01*
X003060Y014904D01*
X003060Y014927D02*
X002610Y014927D01*
X002610Y014950D02*
X003060Y014950D01*
X003060Y014973D02*
X002610Y014973D01*
X002610Y014996D02*
X003060Y014996D01*
X003060Y015019D02*
X002610Y015019D01*
X002610Y015042D02*
X003060Y015042D01*
X003060Y015065D02*
X002610Y015065D01*
X002610Y015088D02*
X003060Y015088D01*
X003060Y015111D02*
X002610Y015111D01*
X002610Y015134D02*
X003060Y015134D01*
X003060Y015157D02*
X002610Y015157D01*
X002610Y015180D02*
X003060Y015180D01*
X003060Y015203D02*
X002610Y015203D01*
X002610Y015226D02*
X003060Y015226D01*
X003060Y015249D02*
X002610Y015249D01*
X002610Y015272D02*
X003060Y015272D01*
X003060Y015295D02*
X002610Y015295D01*
X002610Y015318D02*
X003060Y015318D01*
X003060Y015341D02*
X002610Y015341D01*
X003988Y012148D02*
X004438Y012148D01*
X003988Y012148D02*
X003988Y012598D01*
X004438Y012598D01*
X004438Y012148D01*
X004438Y012171D02*
X003988Y012171D01*
X003988Y012194D02*
X004438Y012194D01*
X004438Y012217D02*
X003988Y012217D01*
X003988Y012240D02*
X004438Y012240D01*
X004438Y012263D02*
X003988Y012263D01*
X003988Y012286D02*
X004438Y012286D01*
X004438Y012309D02*
X003988Y012309D01*
X003988Y012332D02*
X004438Y012332D01*
X004438Y012355D02*
X003988Y012355D01*
X003988Y012378D02*
X004438Y012378D01*
X004438Y012401D02*
X003988Y012401D01*
X003988Y012424D02*
X004438Y012424D01*
X004438Y012447D02*
X003988Y012447D01*
X003988Y012470D02*
X004438Y012470D01*
X004438Y012493D02*
X003988Y012493D01*
X003988Y012516D02*
X004438Y012516D01*
X004438Y012539D02*
X003988Y012539D01*
X003988Y012562D02*
X004438Y012562D01*
X004438Y012585D02*
X003988Y012585D01*
X003988Y011557D02*
X004438Y011557D01*
X003988Y011557D02*
X003988Y012007D01*
X004438Y012007D01*
X004438Y011557D01*
X004438Y011580D02*
X003988Y011580D01*
X003988Y011603D02*
X004438Y011603D01*
X004438Y011626D02*
X003988Y011626D01*
X003988Y011649D02*
X004438Y011649D01*
X004438Y011672D02*
X003988Y011672D01*
X003988Y011695D02*
X004438Y011695D01*
X004438Y011718D02*
X003988Y011718D01*
X003988Y011741D02*
X004438Y011741D01*
X004438Y011764D02*
X003988Y011764D01*
X003988Y011787D02*
X004438Y011787D01*
X004438Y011810D02*
X003988Y011810D01*
X003988Y011833D02*
X004438Y011833D01*
X004438Y011856D02*
X003988Y011856D01*
X003988Y011879D02*
X004438Y011879D01*
X004438Y011902D02*
X003988Y011902D01*
X003988Y011925D02*
X004438Y011925D01*
X004438Y011948D02*
X003988Y011948D01*
X003988Y011971D02*
X004438Y011971D01*
X004438Y011994D02*
X003988Y011994D01*
X017866Y023959D02*
X018316Y023959D01*
X017866Y023959D02*
X017866Y024409D01*
X018316Y024409D01*
X018316Y023959D01*
X018316Y023982D02*
X017866Y023982D01*
X017866Y024005D02*
X018316Y024005D01*
X018316Y024028D02*
X017866Y024028D01*
X017866Y024051D02*
X018316Y024051D01*
X018316Y024074D02*
X017866Y024074D01*
X017866Y024097D02*
X018316Y024097D01*
X018316Y024120D02*
X017866Y024120D01*
X017866Y024143D02*
X018316Y024143D01*
X018316Y024166D02*
X017866Y024166D01*
X017866Y024189D02*
X018316Y024189D01*
X018316Y024212D02*
X017866Y024212D01*
X017866Y024235D02*
X018316Y024235D01*
X018316Y024258D02*
X017866Y024258D01*
X017866Y024281D02*
X018316Y024281D01*
X018316Y024304D02*
X017866Y024304D01*
X017866Y024327D02*
X018316Y024327D01*
X018316Y024350D02*
X017866Y024350D01*
X017866Y024373D02*
X018316Y024373D01*
X018316Y024396D02*
X017866Y024396D01*
X018555Y023959D02*
X019005Y023959D01*
X018555Y023959D02*
X018555Y024409D01*
X019005Y024409D01*
X019005Y023959D01*
X019005Y023982D02*
X018555Y023982D01*
X018555Y024005D02*
X019005Y024005D01*
X019005Y024028D02*
X018555Y024028D01*
X018555Y024051D02*
X019005Y024051D01*
X019005Y024074D02*
X018555Y024074D01*
X018555Y024097D02*
X019005Y024097D01*
X019005Y024120D02*
X018555Y024120D01*
X018555Y024143D02*
X019005Y024143D01*
X019005Y024166D02*
X018555Y024166D01*
X018555Y024189D02*
X019005Y024189D01*
X019005Y024212D02*
X018555Y024212D01*
X018555Y024235D02*
X019005Y024235D01*
X019005Y024258D02*
X018555Y024258D01*
X018555Y024281D02*
X019005Y024281D01*
X019005Y024304D02*
X018555Y024304D01*
X018555Y024327D02*
X019005Y024327D01*
X019005Y024350D02*
X018555Y024350D01*
X018555Y024373D02*
X019005Y024373D01*
X019005Y024396D02*
X018555Y024396D01*
X019244Y023959D02*
X019694Y023959D01*
X019244Y023959D02*
X019244Y024409D01*
X019694Y024409D01*
X019694Y023959D01*
X019694Y023982D02*
X019244Y023982D01*
X019244Y024005D02*
X019694Y024005D01*
X019694Y024028D02*
X019244Y024028D01*
X019244Y024051D02*
X019694Y024051D01*
X019694Y024074D02*
X019244Y024074D01*
X019244Y024097D02*
X019694Y024097D01*
X019694Y024120D02*
X019244Y024120D01*
X019244Y024143D02*
X019694Y024143D01*
X019694Y024166D02*
X019244Y024166D01*
X019244Y024189D02*
X019694Y024189D01*
X019694Y024212D02*
X019244Y024212D01*
X019244Y024235D02*
X019694Y024235D01*
X019694Y024258D02*
X019244Y024258D01*
X019244Y024281D02*
X019694Y024281D01*
X019694Y024304D02*
X019244Y024304D01*
X019244Y024327D02*
X019694Y024327D01*
X019694Y024350D02*
X019244Y024350D01*
X019244Y024373D02*
X019694Y024373D01*
X019694Y024396D02*
X019244Y024396D01*
X019933Y023959D02*
X020383Y023959D01*
X019933Y023959D02*
X019933Y024409D01*
X020383Y024409D01*
X020383Y023959D01*
X020383Y023982D02*
X019933Y023982D01*
X019933Y024005D02*
X020383Y024005D01*
X020383Y024028D02*
X019933Y024028D01*
X019933Y024051D02*
X020383Y024051D01*
X020383Y024074D02*
X019933Y024074D01*
X019933Y024097D02*
X020383Y024097D01*
X020383Y024120D02*
X019933Y024120D01*
X019933Y024143D02*
X020383Y024143D01*
X020383Y024166D02*
X019933Y024166D01*
X019933Y024189D02*
X020383Y024189D01*
X020383Y024212D02*
X019933Y024212D01*
X019933Y024235D02*
X020383Y024235D01*
X020383Y024258D02*
X019933Y024258D01*
X019933Y024281D02*
X020383Y024281D01*
X020383Y024304D02*
X019933Y024304D01*
X019933Y024327D02*
X020383Y024327D01*
X020383Y024350D02*
X019933Y024350D01*
X019933Y024373D02*
X020383Y024373D01*
X020383Y024396D02*
X019933Y024396D01*
X020622Y023959D02*
X021072Y023959D01*
X020622Y023959D02*
X020622Y024409D01*
X021072Y024409D01*
X021072Y023959D01*
X021072Y023982D02*
X020622Y023982D01*
X020622Y024005D02*
X021072Y024005D01*
X021072Y024028D02*
X020622Y024028D01*
X020622Y024051D02*
X021072Y024051D01*
X021072Y024074D02*
X020622Y024074D01*
X020622Y024097D02*
X021072Y024097D01*
X021072Y024120D02*
X020622Y024120D01*
X020622Y024143D02*
X021072Y024143D01*
X021072Y024166D02*
X020622Y024166D01*
X020622Y024189D02*
X021072Y024189D01*
X021072Y024212D02*
X020622Y024212D01*
X020622Y024235D02*
X021072Y024235D01*
X021072Y024258D02*
X020622Y024258D01*
X020622Y024281D02*
X021072Y024281D01*
X021072Y024304D02*
X020622Y024304D01*
X020622Y024327D02*
X021072Y024327D01*
X021072Y024350D02*
X020622Y024350D01*
X020622Y024373D02*
X021072Y024373D01*
X021072Y024396D02*
X020622Y024396D01*
X021311Y023959D02*
X021761Y023959D01*
X021311Y023959D02*
X021311Y024409D01*
X021761Y024409D01*
X021761Y023959D01*
X021761Y023982D02*
X021311Y023982D01*
X021311Y024005D02*
X021761Y024005D01*
X021761Y024028D02*
X021311Y024028D01*
X021311Y024051D02*
X021761Y024051D01*
X021761Y024074D02*
X021311Y024074D01*
X021311Y024097D02*
X021761Y024097D01*
X021761Y024120D02*
X021311Y024120D01*
X021311Y024143D02*
X021761Y024143D01*
X021761Y024166D02*
X021311Y024166D01*
X021311Y024189D02*
X021761Y024189D01*
X021761Y024212D02*
X021311Y024212D01*
X021311Y024235D02*
X021761Y024235D01*
X021761Y024258D02*
X021311Y024258D01*
X021311Y024281D02*
X021761Y024281D01*
X021761Y024304D02*
X021311Y024304D01*
X021311Y024327D02*
X021761Y024327D01*
X021761Y024350D02*
X021311Y024350D01*
X021311Y024373D02*
X021761Y024373D01*
X021761Y024396D02*
X021311Y024396D01*
X026035Y021990D02*
X026485Y021990D01*
X026035Y021990D02*
X026035Y022440D01*
X026485Y022440D01*
X026485Y021990D01*
X026485Y022013D02*
X026035Y022013D01*
X026035Y022036D02*
X026485Y022036D01*
X026485Y022059D02*
X026035Y022059D01*
X026035Y022082D02*
X026485Y022082D01*
X026485Y022105D02*
X026035Y022105D01*
X026035Y022128D02*
X026485Y022128D01*
X026485Y022151D02*
X026035Y022151D01*
X026035Y022174D02*
X026485Y022174D01*
X026485Y022197D02*
X026035Y022197D01*
X026035Y022220D02*
X026485Y022220D01*
X026485Y022243D02*
X026035Y022243D01*
X026035Y022266D02*
X026485Y022266D01*
X026485Y022289D02*
X026035Y022289D01*
X026035Y022312D02*
X026485Y022312D01*
X026485Y022335D02*
X026035Y022335D01*
X026035Y022358D02*
X026485Y022358D01*
X026485Y022381D02*
X026035Y022381D01*
X026035Y022404D02*
X026485Y022404D01*
X026485Y022427D02*
X026035Y022427D01*
X026232Y016675D02*
X026682Y016675D01*
X026232Y016675D02*
X026232Y017125D01*
X026682Y017125D01*
X026682Y016675D01*
X026682Y016698D02*
X026232Y016698D01*
X026232Y016721D02*
X026682Y016721D01*
X026682Y016744D02*
X026232Y016744D01*
X026232Y016767D02*
X026682Y016767D01*
X026682Y016790D02*
X026232Y016790D01*
X026232Y016813D02*
X026682Y016813D01*
X026682Y016836D02*
X026232Y016836D01*
X026232Y016859D02*
X026682Y016859D01*
X026682Y016882D02*
X026232Y016882D01*
X026232Y016905D02*
X026682Y016905D01*
X026682Y016928D02*
X026232Y016928D01*
X026232Y016951D02*
X026682Y016951D01*
X026682Y016974D02*
X026232Y016974D01*
X026232Y016997D02*
X026682Y016997D01*
X026682Y017020D02*
X026232Y017020D01*
X026232Y017043D02*
X026682Y017043D01*
X026682Y017066D02*
X026232Y017066D01*
X026232Y017089D02*
X026682Y017089D01*
X026682Y017112D02*
X026232Y017112D01*
X027020Y016675D02*
X027470Y016675D01*
X027020Y016675D02*
X027020Y017125D01*
X027470Y017125D01*
X027470Y016675D01*
X027470Y016698D02*
X027020Y016698D01*
X027020Y016721D02*
X027470Y016721D01*
X027470Y016744D02*
X027020Y016744D01*
X027020Y016767D02*
X027470Y016767D01*
X027470Y016790D02*
X027020Y016790D01*
X027020Y016813D02*
X027470Y016813D01*
X027470Y016836D02*
X027020Y016836D01*
X027020Y016859D02*
X027470Y016859D01*
X027470Y016882D02*
X027020Y016882D01*
X027020Y016905D02*
X027470Y016905D01*
X027470Y016928D02*
X027020Y016928D01*
X027020Y016951D02*
X027470Y016951D01*
X027470Y016974D02*
X027020Y016974D01*
X027020Y016997D02*
X027470Y016997D01*
X027470Y017020D02*
X027020Y017020D01*
X027020Y017043D02*
X027470Y017043D01*
X027470Y017066D02*
X027020Y017066D01*
X027020Y017089D02*
X027470Y017089D01*
X027470Y017112D02*
X027020Y017112D01*
X027610Y016675D02*
X028060Y016675D01*
X027610Y016675D02*
X027610Y017125D01*
X028060Y017125D01*
X028060Y016675D01*
X028060Y016698D02*
X027610Y016698D01*
X027610Y016721D02*
X028060Y016721D01*
X028060Y016744D02*
X027610Y016744D01*
X027610Y016767D02*
X028060Y016767D01*
X028060Y016790D02*
X027610Y016790D01*
X027610Y016813D02*
X028060Y016813D01*
X028060Y016836D02*
X027610Y016836D01*
X027610Y016859D02*
X028060Y016859D01*
X028060Y016882D02*
X027610Y016882D01*
X027610Y016905D02*
X028060Y016905D01*
X028060Y016928D02*
X027610Y016928D01*
X027610Y016951D02*
X028060Y016951D01*
X028060Y016974D02*
X027610Y016974D01*
X027610Y016997D02*
X028060Y016997D01*
X028060Y017020D02*
X027610Y017020D01*
X027610Y017043D02*
X028060Y017043D01*
X028060Y017066D02*
X027610Y017066D01*
X027610Y017089D02*
X028060Y017089D01*
X028060Y017112D02*
X027610Y017112D01*
X027610Y015888D02*
X028060Y015888D01*
X027610Y015888D02*
X027610Y016338D01*
X028060Y016338D01*
X028060Y015888D01*
X028060Y015911D02*
X027610Y015911D01*
X027610Y015934D02*
X028060Y015934D01*
X028060Y015957D02*
X027610Y015957D01*
X027610Y015980D02*
X028060Y015980D01*
X028060Y016003D02*
X027610Y016003D01*
X027610Y016026D02*
X028060Y016026D01*
X028060Y016049D02*
X027610Y016049D01*
X027610Y016072D02*
X028060Y016072D01*
X028060Y016095D02*
X027610Y016095D01*
X027610Y016118D02*
X028060Y016118D01*
X028060Y016141D02*
X027610Y016141D01*
X027610Y016164D02*
X028060Y016164D01*
X028060Y016187D02*
X027610Y016187D01*
X027610Y016210D02*
X028060Y016210D01*
X028060Y016233D02*
X027610Y016233D01*
X027610Y016256D02*
X028060Y016256D01*
X028060Y016279D02*
X027610Y016279D01*
X027610Y016302D02*
X028060Y016302D01*
X028060Y016325D02*
X027610Y016325D01*
X027667Y015101D02*
X027217Y015101D01*
X027217Y015551D01*
X027667Y015551D01*
X027667Y015101D01*
X027667Y015124D02*
X027217Y015124D01*
X027217Y015147D02*
X027667Y015147D01*
X027667Y015170D02*
X027217Y015170D01*
X027217Y015193D02*
X027667Y015193D01*
X027667Y015216D02*
X027217Y015216D01*
X027217Y015239D02*
X027667Y015239D01*
X027667Y015262D02*
X027217Y015262D01*
X027217Y015285D02*
X027667Y015285D01*
X027667Y015308D02*
X027217Y015308D01*
X027217Y015331D02*
X027667Y015331D01*
X027667Y015354D02*
X027217Y015354D01*
X027217Y015377D02*
X027667Y015377D01*
X027667Y015400D02*
X027217Y015400D01*
X027217Y015423D02*
X027667Y015423D01*
X027667Y015446D02*
X027217Y015446D01*
X027217Y015469D02*
X027667Y015469D01*
X027667Y015492D02*
X027217Y015492D01*
X027217Y015515D02*
X027667Y015515D01*
X027667Y015538D02*
X027217Y015538D01*
X028004Y015101D02*
X028454Y015101D01*
X028004Y015101D02*
X028004Y015551D01*
X028454Y015551D01*
X028454Y015101D01*
X028454Y015124D02*
X028004Y015124D01*
X028004Y015147D02*
X028454Y015147D01*
X028454Y015170D02*
X028004Y015170D01*
X028004Y015193D02*
X028454Y015193D01*
X028454Y015216D02*
X028004Y015216D01*
X028004Y015239D02*
X028454Y015239D01*
X028454Y015262D02*
X028004Y015262D01*
X028004Y015285D02*
X028454Y015285D01*
X028454Y015308D02*
X028004Y015308D01*
X028004Y015331D02*
X028454Y015331D01*
X028454Y015354D02*
X028004Y015354D01*
X028004Y015377D02*
X028454Y015377D01*
X028454Y015400D02*
X028004Y015400D01*
X028004Y015423D02*
X028454Y015423D01*
X028454Y015446D02*
X028004Y015446D01*
X028004Y015469D02*
X028454Y015469D01*
X028454Y015492D02*
X028004Y015492D01*
X028004Y015515D02*
X028454Y015515D01*
X028454Y015538D02*
X028004Y015538D01*
X028595Y015101D02*
X029045Y015101D01*
X028595Y015101D02*
X028595Y015551D01*
X029045Y015551D01*
X029045Y015101D01*
X029045Y015124D02*
X028595Y015124D01*
X028595Y015147D02*
X029045Y015147D01*
X029045Y015170D02*
X028595Y015170D01*
X028595Y015193D02*
X029045Y015193D01*
X029045Y015216D02*
X028595Y015216D01*
X028595Y015239D02*
X029045Y015239D01*
X029045Y015262D02*
X028595Y015262D01*
X028595Y015285D02*
X029045Y015285D01*
X029045Y015308D02*
X028595Y015308D01*
X028595Y015331D02*
X029045Y015331D01*
X029045Y015354D02*
X028595Y015354D01*
X028595Y015377D02*
X029045Y015377D01*
X029045Y015400D02*
X028595Y015400D01*
X028595Y015423D02*
X029045Y015423D01*
X029045Y015446D02*
X028595Y015446D01*
X028595Y015469D02*
X029045Y015469D01*
X029045Y015492D02*
X028595Y015492D01*
X028595Y015515D02*
X029045Y015515D01*
X029045Y015538D02*
X028595Y015538D01*
X029382Y015101D02*
X029832Y015101D01*
X029382Y015101D02*
X029382Y015551D01*
X029832Y015551D01*
X029832Y015101D01*
X029832Y015124D02*
X029382Y015124D01*
X029382Y015147D02*
X029832Y015147D01*
X029832Y015170D02*
X029382Y015170D01*
X029382Y015193D02*
X029832Y015193D01*
X029832Y015216D02*
X029382Y015216D01*
X029382Y015239D02*
X029832Y015239D01*
X029832Y015262D02*
X029382Y015262D01*
X029382Y015285D02*
X029832Y015285D01*
X029832Y015308D02*
X029382Y015308D01*
X029382Y015331D02*
X029832Y015331D01*
X029832Y015354D02*
X029382Y015354D01*
X029382Y015377D02*
X029832Y015377D01*
X029832Y015400D02*
X029382Y015400D01*
X029382Y015423D02*
X029832Y015423D01*
X029832Y015446D02*
X029382Y015446D01*
X029382Y015469D02*
X029832Y015469D01*
X029832Y015492D02*
X029382Y015492D01*
X029382Y015515D02*
X029832Y015515D01*
X029832Y015538D02*
X029382Y015538D01*
X032728Y013329D02*
X033178Y013329D01*
X032728Y013329D02*
X032728Y013779D01*
X033178Y013779D01*
X033178Y013329D01*
X033178Y013352D02*
X032728Y013352D01*
X032728Y013375D02*
X033178Y013375D01*
X033178Y013398D02*
X032728Y013398D01*
X032728Y013421D02*
X033178Y013421D01*
X033178Y013444D02*
X032728Y013444D01*
X032728Y013467D02*
X033178Y013467D01*
X033178Y013490D02*
X032728Y013490D01*
X032728Y013513D02*
X033178Y013513D01*
X033178Y013536D02*
X032728Y013536D01*
X032728Y013559D02*
X033178Y013559D01*
X033178Y013582D02*
X032728Y013582D01*
X032728Y013605D02*
X033178Y013605D01*
X033178Y013628D02*
X032728Y013628D01*
X032728Y013651D02*
X033178Y013651D01*
X033178Y013674D02*
X032728Y013674D01*
X032728Y013697D02*
X033178Y013697D01*
X033178Y013720D02*
X032728Y013720D01*
X032728Y013743D02*
X033178Y013743D01*
X033178Y013766D02*
X032728Y013766D01*
X033516Y013329D02*
X033966Y013329D01*
X033516Y013329D02*
X033516Y013779D01*
X033966Y013779D01*
X033966Y013329D01*
X033966Y013352D02*
X033516Y013352D01*
X033516Y013375D02*
X033966Y013375D01*
X033966Y013398D02*
X033516Y013398D01*
X033516Y013421D02*
X033966Y013421D01*
X033966Y013444D02*
X033516Y013444D01*
X033516Y013467D02*
X033966Y013467D01*
X033966Y013490D02*
X033516Y013490D01*
X033516Y013513D02*
X033966Y013513D01*
X033966Y013536D02*
X033516Y013536D01*
X033516Y013559D02*
X033966Y013559D01*
X033966Y013582D02*
X033516Y013582D01*
X033516Y013605D02*
X033966Y013605D01*
X033966Y013628D02*
X033516Y013628D01*
X033516Y013651D02*
X033966Y013651D01*
X033966Y013674D02*
X033516Y013674D01*
X033516Y013697D02*
X033966Y013697D01*
X033966Y013720D02*
X033516Y013720D01*
X033516Y013743D02*
X033966Y013743D01*
X033966Y013766D02*
X033516Y013766D01*
X033516Y014510D02*
X033966Y014510D01*
X033516Y014510D02*
X033516Y014960D01*
X033966Y014960D01*
X033966Y014510D01*
X033966Y014533D02*
X033516Y014533D01*
X033516Y014556D02*
X033966Y014556D01*
X033966Y014579D02*
X033516Y014579D01*
X033516Y014602D02*
X033966Y014602D01*
X033966Y014625D02*
X033516Y014625D01*
X033516Y014648D02*
X033966Y014648D01*
X033966Y014671D02*
X033516Y014671D01*
X033516Y014694D02*
X033966Y014694D01*
X033966Y014717D02*
X033516Y014717D01*
X033516Y014740D02*
X033966Y014740D01*
X033966Y014763D02*
X033516Y014763D01*
X033516Y014786D02*
X033966Y014786D01*
X033966Y014809D02*
X033516Y014809D01*
X033516Y014832D02*
X033966Y014832D01*
X033966Y014855D02*
X033516Y014855D01*
X033516Y014878D02*
X033966Y014878D01*
X033966Y014901D02*
X033516Y014901D01*
X033516Y014924D02*
X033966Y014924D01*
X033966Y014947D02*
X033516Y014947D01*
X034303Y014510D02*
X034753Y014510D01*
X034303Y014510D02*
X034303Y014960D01*
X034753Y014960D01*
X034753Y014510D01*
X034753Y014533D02*
X034303Y014533D01*
X034303Y014556D02*
X034753Y014556D01*
X034753Y014579D02*
X034303Y014579D01*
X034303Y014602D02*
X034753Y014602D01*
X034753Y014625D02*
X034303Y014625D01*
X034303Y014648D02*
X034753Y014648D01*
X034753Y014671D02*
X034303Y014671D01*
X034303Y014694D02*
X034753Y014694D01*
X034753Y014717D02*
X034303Y014717D01*
X034303Y014740D02*
X034753Y014740D01*
X034753Y014763D02*
X034303Y014763D01*
X034303Y014786D02*
X034753Y014786D01*
X034753Y014809D02*
X034303Y014809D01*
X034303Y014832D02*
X034753Y014832D01*
X034753Y014855D02*
X034303Y014855D01*
X034303Y014878D02*
X034753Y014878D01*
X034753Y014901D02*
X034303Y014901D01*
X034303Y014924D02*
X034753Y014924D01*
X034753Y014947D02*
X034303Y014947D01*
X034894Y014510D02*
X035344Y014510D01*
X034894Y014510D02*
X034894Y014960D01*
X035344Y014960D01*
X035344Y014510D01*
X035344Y014533D02*
X034894Y014533D01*
X034894Y014556D02*
X035344Y014556D01*
X035344Y014579D02*
X034894Y014579D01*
X034894Y014602D02*
X035344Y014602D01*
X035344Y014625D02*
X034894Y014625D01*
X034894Y014648D02*
X035344Y014648D01*
X035344Y014671D02*
X034894Y014671D01*
X034894Y014694D02*
X035344Y014694D01*
X035344Y014717D02*
X034894Y014717D01*
X034894Y014740D02*
X035344Y014740D01*
X035344Y014763D02*
X034894Y014763D01*
X034894Y014786D02*
X035344Y014786D01*
X035344Y014809D02*
X034894Y014809D01*
X034894Y014832D02*
X035344Y014832D01*
X035344Y014855D02*
X034894Y014855D01*
X034894Y014878D02*
X035344Y014878D01*
X035344Y014901D02*
X034894Y014901D01*
X034894Y014924D02*
X035344Y014924D01*
X035344Y014947D02*
X034894Y014947D01*
X035681Y014510D02*
X036131Y014510D01*
X035681Y014510D02*
X035681Y014960D01*
X036131Y014960D01*
X036131Y014510D01*
X036131Y014533D02*
X035681Y014533D01*
X035681Y014556D02*
X036131Y014556D01*
X036131Y014579D02*
X035681Y014579D01*
X035681Y014602D02*
X036131Y014602D01*
X036131Y014625D02*
X035681Y014625D01*
X035681Y014648D02*
X036131Y014648D01*
X036131Y014671D02*
X035681Y014671D01*
X035681Y014694D02*
X036131Y014694D01*
X036131Y014717D02*
X035681Y014717D01*
X035681Y014740D02*
X036131Y014740D01*
X036131Y014763D02*
X035681Y014763D01*
X035681Y014786D02*
X036131Y014786D01*
X036131Y014809D02*
X035681Y014809D01*
X035681Y014832D02*
X036131Y014832D01*
X036131Y014855D02*
X035681Y014855D01*
X035681Y014878D02*
X036131Y014878D01*
X036131Y014901D02*
X035681Y014901D01*
X035681Y014924D02*
X036131Y014924D01*
X036131Y014947D02*
X035681Y014947D01*
X037650Y015691D02*
X038100Y015691D01*
X037650Y015691D02*
X037650Y016141D01*
X038100Y016141D01*
X038100Y015691D01*
X038100Y015714D02*
X037650Y015714D01*
X037650Y015737D02*
X038100Y015737D01*
X038100Y015760D02*
X037650Y015760D01*
X037650Y015783D02*
X038100Y015783D01*
X038100Y015806D02*
X037650Y015806D01*
X037650Y015829D02*
X038100Y015829D01*
X038100Y015852D02*
X037650Y015852D01*
X037650Y015875D02*
X038100Y015875D01*
X038100Y015898D02*
X037650Y015898D01*
X037650Y015921D02*
X038100Y015921D01*
X038100Y015944D02*
X037650Y015944D01*
X037650Y015967D02*
X038100Y015967D01*
X038100Y015990D02*
X037650Y015990D01*
X037650Y016013D02*
X038100Y016013D01*
X038100Y016036D02*
X037650Y016036D01*
X037650Y016059D02*
X038100Y016059D01*
X038100Y016082D02*
X037650Y016082D01*
X037650Y016105D02*
X038100Y016105D01*
X038100Y016128D02*
X037650Y016128D01*
X037650Y016479D02*
X038100Y016479D01*
X037650Y016479D02*
X037650Y016929D01*
X038100Y016929D01*
X038100Y016479D01*
X038100Y016502D02*
X037650Y016502D01*
X037650Y016525D02*
X038100Y016525D01*
X038100Y016548D02*
X037650Y016548D01*
X037650Y016571D02*
X038100Y016571D01*
X038100Y016594D02*
X037650Y016594D01*
X037650Y016617D02*
X038100Y016617D01*
X038100Y016640D02*
X037650Y016640D01*
X037650Y016663D02*
X038100Y016663D01*
X038100Y016686D02*
X037650Y016686D01*
X037650Y016709D02*
X038100Y016709D01*
X038100Y016732D02*
X037650Y016732D01*
X037650Y016755D02*
X038100Y016755D01*
X038100Y016778D02*
X037650Y016778D01*
X037650Y016801D02*
X038100Y016801D01*
X038100Y016824D02*
X037650Y016824D01*
X037650Y016847D02*
X038100Y016847D01*
X038100Y016870D02*
X037650Y016870D01*
X037650Y016893D02*
X038100Y016893D01*
X038100Y016916D02*
X037650Y016916D01*
X035737Y018250D02*
X035287Y018250D01*
X035287Y018700D01*
X035737Y018700D01*
X035737Y018250D01*
X035737Y018273D02*
X035287Y018273D01*
X035287Y018296D02*
X035737Y018296D01*
X035737Y018319D02*
X035287Y018319D01*
X035287Y018342D02*
X035737Y018342D01*
X035737Y018365D02*
X035287Y018365D01*
X035287Y018388D02*
X035737Y018388D01*
X035737Y018411D02*
X035287Y018411D01*
X035287Y018434D02*
X035737Y018434D01*
X035737Y018457D02*
X035287Y018457D01*
X035287Y018480D02*
X035737Y018480D01*
X035737Y018503D02*
X035287Y018503D01*
X035287Y018526D02*
X035737Y018526D01*
X035737Y018549D02*
X035287Y018549D01*
X035287Y018572D02*
X035737Y018572D01*
X035737Y018595D02*
X035287Y018595D01*
X035287Y018618D02*
X035737Y018618D01*
X035737Y018641D02*
X035287Y018641D01*
X035287Y018664D02*
X035737Y018664D01*
X035737Y018687D02*
X035287Y018687D01*
X034950Y018250D02*
X034500Y018250D01*
X034500Y018700D01*
X034950Y018700D01*
X034950Y018250D01*
X034950Y018273D02*
X034500Y018273D01*
X034500Y018296D02*
X034950Y018296D01*
X034950Y018319D02*
X034500Y018319D01*
X034500Y018342D02*
X034950Y018342D01*
X034950Y018365D02*
X034500Y018365D01*
X034500Y018388D02*
X034950Y018388D01*
X034950Y018411D02*
X034500Y018411D01*
X034500Y018434D02*
X034950Y018434D01*
X034950Y018457D02*
X034500Y018457D01*
X034500Y018480D02*
X034950Y018480D01*
X034950Y018503D02*
X034500Y018503D01*
X034500Y018526D02*
X034950Y018526D01*
X034950Y018549D02*
X034500Y018549D01*
X034500Y018572D02*
X034950Y018572D01*
X034950Y018595D02*
X034500Y018595D01*
X034500Y018618D02*
X034950Y018618D01*
X034950Y018641D02*
X034500Y018641D01*
X034500Y018664D02*
X034950Y018664D01*
X034950Y018687D02*
X034500Y018687D01*
X034359Y018053D02*
X033909Y018053D01*
X033909Y018503D01*
X034359Y018503D01*
X034359Y018053D01*
X034359Y018076D02*
X033909Y018076D01*
X033909Y018099D02*
X034359Y018099D01*
X034359Y018122D02*
X033909Y018122D01*
X033909Y018145D02*
X034359Y018145D01*
X034359Y018168D02*
X033909Y018168D01*
X033909Y018191D02*
X034359Y018191D01*
X034359Y018214D02*
X033909Y018214D01*
X033909Y018237D02*
X034359Y018237D01*
X034359Y018260D02*
X033909Y018260D01*
X033909Y018283D02*
X034359Y018283D01*
X034359Y018306D02*
X033909Y018306D01*
X033909Y018329D02*
X034359Y018329D01*
X034359Y018352D02*
X033909Y018352D01*
X033909Y018375D02*
X034359Y018375D01*
X034359Y018398D02*
X033909Y018398D01*
X033909Y018421D02*
X034359Y018421D01*
X034359Y018444D02*
X033909Y018444D01*
X033909Y018467D02*
X034359Y018467D01*
X034359Y018490D02*
X033909Y018490D01*
X033572Y018053D02*
X033122Y018053D01*
X033122Y018503D01*
X033572Y018503D01*
X033572Y018053D01*
X033572Y018076D02*
X033122Y018076D01*
X033122Y018099D02*
X033572Y018099D01*
X033572Y018122D02*
X033122Y018122D01*
X033122Y018145D02*
X033572Y018145D01*
X033572Y018168D02*
X033122Y018168D01*
X033122Y018191D02*
X033572Y018191D01*
X033572Y018214D02*
X033122Y018214D01*
X033122Y018237D02*
X033572Y018237D01*
X033572Y018260D02*
X033122Y018260D01*
X033122Y018283D02*
X033572Y018283D01*
X033572Y018306D02*
X033122Y018306D01*
X033122Y018329D02*
X033572Y018329D01*
X033572Y018352D02*
X033122Y018352D01*
X033122Y018375D02*
X033572Y018375D01*
X033572Y018398D02*
X033122Y018398D01*
X033122Y018421D02*
X033572Y018421D01*
X033572Y018444D02*
X033122Y018444D01*
X033122Y018467D02*
X033572Y018467D01*
X033572Y018490D02*
X033122Y018490D01*
X033713Y017463D02*
X034163Y017463D01*
X033713Y017463D02*
X033713Y017913D01*
X034163Y017913D01*
X034163Y017463D01*
X034163Y017486D02*
X033713Y017486D01*
X033713Y017509D02*
X034163Y017509D01*
X034163Y017532D02*
X033713Y017532D01*
X033713Y017555D02*
X034163Y017555D01*
X034163Y017578D02*
X033713Y017578D01*
X033713Y017601D02*
X034163Y017601D01*
X034163Y017624D02*
X033713Y017624D01*
X033713Y017647D02*
X034163Y017647D01*
X034163Y017670D02*
X033713Y017670D01*
X033713Y017693D02*
X034163Y017693D01*
X034163Y017716D02*
X033713Y017716D01*
X033713Y017739D02*
X034163Y017739D01*
X034163Y017762D02*
X033713Y017762D01*
X033713Y017785D02*
X034163Y017785D01*
X034163Y017808D02*
X033713Y017808D01*
X033713Y017831D02*
X034163Y017831D01*
X034163Y017854D02*
X033713Y017854D01*
X033713Y017877D02*
X034163Y017877D01*
X034163Y017900D02*
X033713Y017900D01*
X034500Y017463D02*
X034950Y017463D01*
X034500Y017463D02*
X034500Y017913D01*
X034950Y017913D01*
X034950Y017463D01*
X034950Y017486D02*
X034500Y017486D01*
X034500Y017509D02*
X034950Y017509D01*
X034950Y017532D02*
X034500Y017532D01*
X034500Y017555D02*
X034950Y017555D01*
X034950Y017578D02*
X034500Y017578D01*
X034500Y017601D02*
X034950Y017601D01*
X034950Y017624D02*
X034500Y017624D01*
X034500Y017647D02*
X034950Y017647D01*
X034950Y017670D02*
X034500Y017670D01*
X034500Y017693D02*
X034950Y017693D01*
X034950Y017716D02*
X034500Y017716D01*
X034500Y017739D02*
X034950Y017739D01*
X034950Y017762D02*
X034500Y017762D01*
X034500Y017785D02*
X034950Y017785D01*
X034950Y017808D02*
X034500Y017808D01*
X034500Y017831D02*
X034950Y017831D01*
X034950Y017854D02*
X034500Y017854D01*
X034500Y017877D02*
X034950Y017877D01*
X034950Y017900D02*
X034500Y017900D01*
X015206Y024746D02*
X014756Y024746D01*
X014756Y025196D01*
X015206Y025196D01*
X015206Y024746D01*
X015206Y024769D02*
X014756Y024769D01*
X014756Y024792D02*
X015206Y024792D01*
X015206Y024815D02*
X014756Y024815D01*
X014756Y024838D02*
X015206Y024838D01*
X015206Y024861D02*
X014756Y024861D01*
X014756Y024884D02*
X015206Y024884D01*
X015206Y024907D02*
X014756Y024907D01*
X014756Y024930D02*
X015206Y024930D01*
X015206Y024953D02*
X014756Y024953D01*
X014756Y024976D02*
X015206Y024976D01*
X015206Y024999D02*
X014756Y024999D01*
X014756Y025022D02*
X015206Y025022D01*
X015206Y025045D02*
X014756Y025045D01*
X014756Y025068D02*
X015206Y025068D01*
X015206Y025091D02*
X014756Y025091D01*
X014756Y025114D02*
X015206Y025114D01*
X015206Y025137D02*
X014756Y025137D01*
X014756Y025160D02*
X015206Y025160D01*
X015206Y025183D02*
X014756Y025183D01*
X014756Y025534D02*
X015206Y025534D01*
X014756Y025534D02*
X014756Y025984D01*
X015206Y025984D01*
X015206Y025534D01*
X015206Y025557D02*
X014756Y025557D01*
X014756Y025580D02*
X015206Y025580D01*
X015206Y025603D02*
X014756Y025603D01*
X014756Y025626D02*
X015206Y025626D01*
X015206Y025649D02*
X014756Y025649D01*
X014756Y025672D02*
X015206Y025672D01*
X015206Y025695D02*
X014756Y025695D01*
X014756Y025718D02*
X015206Y025718D01*
X015206Y025741D02*
X014756Y025741D01*
X014756Y025764D02*
X015206Y025764D01*
X015206Y025787D02*
X014756Y025787D01*
X014756Y025810D02*
X015206Y025810D01*
X015206Y025833D02*
X014756Y025833D01*
X014756Y025856D02*
X015206Y025856D01*
X015206Y025879D02*
X014756Y025879D01*
X014756Y025902D02*
X015206Y025902D01*
X015206Y025925D02*
X014756Y025925D01*
X014756Y025948D02*
X015206Y025948D01*
X015206Y025971D02*
X014756Y025971D01*
D13*
X008544Y010798D03*
X013662Y008042D03*
X034528Y003711D03*
X039056Y024381D03*
D14*
X026260Y011586D03*
X026260Y010798D03*
X026260Y010011D03*
X035316Y003711D03*
X015237Y008042D03*
X014449Y008042D03*
X014449Y008830D03*
X013662Y008830D03*
X015237Y008830D03*
D15*
X004631Y009294D02*
X004185Y009294D01*
X004185Y009622D01*
X004631Y009622D01*
X004631Y009294D01*
X004631Y009318D02*
X004185Y009318D01*
X004185Y009342D02*
X004631Y009342D01*
X004631Y009366D02*
X004185Y009366D01*
X004185Y009390D02*
X004631Y009390D01*
X004631Y009414D02*
X004185Y009414D01*
X004185Y009438D02*
X004631Y009438D01*
X004631Y009462D02*
X004185Y009462D01*
X004185Y009486D02*
X004631Y009486D01*
X004631Y009510D02*
X004185Y009510D01*
X004185Y009534D02*
X004631Y009534D01*
X004631Y009558D02*
X004185Y009558D01*
X004185Y009582D02*
X004631Y009582D01*
X004631Y009606D02*
X004185Y009606D01*
X004185Y009670D02*
X004631Y009670D01*
X004185Y009670D02*
X004185Y009998D01*
X004631Y009998D01*
X004631Y009670D01*
X004631Y009694D02*
X004185Y009694D01*
X004185Y009718D02*
X004631Y009718D01*
X004631Y009742D02*
X004185Y009742D01*
X004185Y009766D02*
X004631Y009766D01*
X004631Y009790D02*
X004185Y009790D01*
X004185Y009814D02*
X004631Y009814D01*
X004631Y009838D02*
X004185Y009838D01*
X004185Y009862D02*
X004631Y009862D01*
X004631Y009886D02*
X004185Y009886D01*
X004185Y009910D02*
X004631Y009910D01*
X004631Y009934D02*
X004185Y009934D01*
X004185Y009958D02*
X004631Y009958D01*
X004631Y009982D02*
X004185Y009982D01*
X004185Y010045D02*
X004631Y010045D01*
X004185Y010045D02*
X004185Y010373D01*
X004631Y010373D01*
X004631Y010045D01*
X004631Y010069D02*
X004185Y010069D01*
X004185Y010093D02*
X004631Y010093D01*
X004631Y010117D02*
X004185Y010117D01*
X004185Y010141D02*
X004631Y010141D01*
X004631Y010165D02*
X004185Y010165D01*
X004185Y010189D02*
X004631Y010189D01*
X004631Y010213D02*
X004185Y010213D01*
X004185Y010237D02*
X004631Y010237D01*
X004631Y010261D02*
X004185Y010261D01*
X004185Y010285D02*
X004631Y010285D01*
X004631Y010309D02*
X004185Y010309D01*
X004185Y010333D02*
X004631Y010333D01*
X004631Y010357D02*
X004185Y010357D01*
X003612Y010045D02*
X003166Y010045D01*
X003166Y010373D01*
X003612Y010373D01*
X003612Y010045D01*
X003612Y010069D02*
X003166Y010069D01*
X003166Y010093D02*
X003612Y010093D01*
X003612Y010117D02*
X003166Y010117D01*
X003166Y010141D02*
X003612Y010141D01*
X003612Y010165D02*
X003166Y010165D01*
X003166Y010189D02*
X003612Y010189D01*
X003612Y010213D02*
X003166Y010213D01*
X003166Y010237D02*
X003612Y010237D01*
X003612Y010261D02*
X003166Y010261D01*
X003166Y010285D02*
X003612Y010285D01*
X003612Y010309D02*
X003166Y010309D01*
X003166Y010333D02*
X003612Y010333D01*
X003612Y010357D02*
X003166Y010357D01*
X003166Y009668D02*
X003612Y009668D01*
X003166Y009668D02*
X003166Y009996D01*
X003612Y009996D01*
X003612Y009668D01*
X003612Y009692D02*
X003166Y009692D01*
X003166Y009716D02*
X003612Y009716D01*
X003612Y009740D02*
X003166Y009740D01*
X003166Y009764D02*
X003612Y009764D01*
X003612Y009788D02*
X003166Y009788D01*
X003166Y009812D02*
X003612Y009812D01*
X003612Y009836D02*
X003166Y009836D01*
X003166Y009860D02*
X003612Y009860D01*
X003612Y009884D02*
X003166Y009884D01*
X003166Y009908D02*
X003612Y009908D01*
X003612Y009932D02*
X003166Y009932D01*
X003166Y009956D02*
X003612Y009956D01*
X003612Y009980D02*
X003166Y009980D01*
X003166Y009294D02*
X003612Y009294D01*
X003166Y009294D02*
X003166Y009622D01*
X003612Y009622D01*
X003612Y009294D01*
X003612Y009318D02*
X003166Y009318D01*
X003166Y009342D02*
X003612Y009342D01*
X003612Y009366D02*
X003166Y009366D01*
X003166Y009390D02*
X003612Y009390D01*
X003612Y009414D02*
X003166Y009414D01*
X003166Y009438D02*
X003612Y009438D01*
X003612Y009462D02*
X003166Y009462D01*
X003166Y009486D02*
X003612Y009486D01*
X003612Y009510D02*
X003166Y009510D01*
X003166Y009534D02*
X003612Y009534D01*
X003612Y009558D02*
X003166Y009558D01*
X003166Y009582D02*
X003612Y009582D01*
X003612Y009606D02*
X003166Y009606D01*
X002390Y010657D02*
X002062Y010657D01*
X002062Y011103D01*
X002390Y011103D01*
X002390Y010657D01*
X002390Y010681D02*
X002062Y010681D01*
X002062Y010705D02*
X002390Y010705D01*
X002390Y010729D02*
X002062Y010729D01*
X002062Y010753D02*
X002390Y010753D01*
X002390Y010777D02*
X002062Y010777D01*
X002062Y010801D02*
X002390Y010801D01*
X002390Y010825D02*
X002062Y010825D01*
X002062Y010849D02*
X002390Y010849D01*
X002390Y010873D02*
X002062Y010873D01*
X002062Y010897D02*
X002390Y010897D01*
X002390Y010921D02*
X002062Y010921D01*
X002062Y010945D02*
X002390Y010945D01*
X002390Y010969D02*
X002062Y010969D01*
X002062Y010993D02*
X002390Y010993D01*
X002390Y011017D02*
X002062Y011017D01*
X002062Y011041D02*
X002390Y011041D01*
X002390Y011065D02*
X002062Y011065D01*
X002062Y011089D02*
X002390Y011089D01*
X001640Y010657D02*
X001312Y010657D01*
X001312Y011103D01*
X001640Y011103D01*
X001640Y010657D01*
X001640Y010681D02*
X001312Y010681D01*
X001312Y010705D02*
X001640Y010705D01*
X001640Y010729D02*
X001312Y010729D01*
X001312Y010753D02*
X001640Y010753D01*
X001640Y010777D02*
X001312Y010777D01*
X001312Y010801D02*
X001640Y010801D01*
X001640Y010825D02*
X001312Y010825D01*
X001312Y010849D02*
X001640Y010849D01*
X001640Y010873D02*
X001312Y010873D01*
X001312Y010897D02*
X001640Y010897D01*
X001640Y010921D02*
X001312Y010921D01*
X001312Y010945D02*
X001640Y010945D01*
X001640Y010969D02*
X001312Y010969D01*
X001312Y010993D02*
X001640Y010993D01*
X001640Y011017D02*
X001312Y011017D01*
X001312Y011041D02*
X001640Y011041D01*
X001640Y011065D02*
X001312Y011065D01*
X001312Y011089D02*
X001640Y011089D01*
X001640Y011676D02*
X001312Y011676D01*
X001312Y012122D01*
X001640Y012122D01*
X001640Y011676D01*
X001640Y011700D02*
X001312Y011700D01*
X001312Y011724D02*
X001640Y011724D01*
X001640Y011748D02*
X001312Y011748D01*
X001312Y011772D02*
X001640Y011772D01*
X001640Y011796D02*
X001312Y011796D01*
X001312Y011820D02*
X001640Y011820D01*
X001640Y011844D02*
X001312Y011844D01*
X001312Y011868D02*
X001640Y011868D01*
X001640Y011892D02*
X001312Y011892D01*
X001312Y011916D02*
X001640Y011916D01*
X001640Y011940D02*
X001312Y011940D01*
X001312Y011964D02*
X001640Y011964D01*
X001640Y011988D02*
X001312Y011988D01*
X001312Y012012D02*
X001640Y012012D01*
X001640Y012036D02*
X001312Y012036D01*
X001312Y012060D02*
X001640Y012060D01*
X001640Y012084D02*
X001312Y012084D01*
X001312Y012108D02*
X001640Y012108D01*
X001687Y011676D02*
X002015Y011676D01*
X001687Y011676D02*
X001687Y012122D01*
X002015Y012122D01*
X002015Y011676D01*
X002015Y011700D02*
X001687Y011700D01*
X001687Y011724D02*
X002015Y011724D01*
X002015Y011748D02*
X001687Y011748D01*
X001687Y011772D02*
X002015Y011772D01*
X002015Y011796D02*
X001687Y011796D01*
X001687Y011820D02*
X002015Y011820D01*
X002015Y011844D02*
X001687Y011844D01*
X001687Y011868D02*
X002015Y011868D01*
X002015Y011892D02*
X001687Y011892D01*
X001687Y011916D02*
X002015Y011916D01*
X002015Y011940D02*
X001687Y011940D01*
X001687Y011964D02*
X002015Y011964D01*
X002015Y011988D02*
X001687Y011988D01*
X001687Y012012D02*
X002015Y012012D01*
X002015Y012036D02*
X001687Y012036D01*
X001687Y012060D02*
X002015Y012060D01*
X002015Y012084D02*
X001687Y012084D01*
X001687Y012108D02*
X002015Y012108D01*
X002062Y011676D02*
X002390Y011676D01*
X002062Y011676D02*
X002062Y012122D01*
X002390Y012122D01*
X002390Y011676D01*
X002390Y011700D02*
X002062Y011700D01*
X002062Y011724D02*
X002390Y011724D01*
X002390Y011748D02*
X002062Y011748D01*
X002062Y011772D02*
X002390Y011772D01*
X002390Y011796D02*
X002062Y011796D01*
X002062Y011820D02*
X002390Y011820D01*
X002390Y011844D02*
X002062Y011844D01*
X002062Y011868D02*
X002390Y011868D01*
X002390Y011892D02*
X002062Y011892D01*
X002062Y011916D02*
X002390Y011916D01*
X002390Y011940D02*
X002062Y011940D01*
X002062Y011964D02*
X002390Y011964D01*
X002390Y011988D02*
X002062Y011988D01*
X002062Y012012D02*
X002390Y012012D01*
X002390Y012036D02*
X002062Y012036D01*
X002062Y012060D02*
X002390Y012060D01*
X002390Y012084D02*
X002062Y012084D01*
X002062Y012108D02*
X002390Y012108D01*
D16*
X002291Y013606D02*
X001805Y013606D01*
X001805Y014290D01*
X002291Y014290D01*
X002291Y013606D01*
X002291Y013631D02*
X001805Y013631D01*
X001805Y013656D02*
X002291Y013656D01*
X002291Y013681D02*
X001805Y013681D01*
X001805Y013706D02*
X002291Y013706D01*
X002291Y013731D02*
X001805Y013731D01*
X001805Y013756D02*
X002291Y013756D01*
X002291Y013781D02*
X001805Y013781D01*
X001805Y013806D02*
X002291Y013806D01*
X002291Y013831D02*
X001805Y013831D01*
X001805Y013856D02*
X002291Y013856D01*
X002291Y013881D02*
X001805Y013881D01*
X001805Y013906D02*
X002291Y013906D01*
X002291Y013931D02*
X001805Y013931D01*
X001805Y013956D02*
X002291Y013956D01*
X002291Y013981D02*
X001805Y013981D01*
X001805Y014006D02*
X002291Y014006D01*
X002291Y014031D02*
X001805Y014031D01*
X001805Y014056D02*
X002291Y014056D01*
X002291Y014081D02*
X001805Y014081D01*
X001805Y014106D02*
X002291Y014106D01*
X002291Y014131D02*
X001805Y014131D01*
X001805Y014156D02*
X002291Y014156D01*
X002291Y014181D02*
X001805Y014181D01*
X001805Y014206D02*
X002291Y014206D01*
X002291Y014231D02*
X001805Y014231D01*
X001805Y014256D02*
X002291Y014256D01*
X002291Y014281D02*
X001805Y014281D01*
X002592Y013606D02*
X003078Y013606D01*
X002592Y013606D02*
X002592Y014290D01*
X003078Y014290D01*
X003078Y013606D01*
X003078Y013631D02*
X002592Y013631D01*
X002592Y013656D02*
X003078Y013656D01*
X003078Y013681D02*
X002592Y013681D01*
X002592Y013706D02*
X003078Y013706D01*
X003078Y013731D02*
X002592Y013731D01*
X002592Y013756D02*
X003078Y013756D01*
X003078Y013781D02*
X002592Y013781D01*
X002592Y013806D02*
X003078Y013806D01*
X003078Y013831D02*
X002592Y013831D01*
X002592Y013856D02*
X003078Y013856D01*
X003078Y013881D02*
X002592Y013881D01*
X002592Y013906D02*
X003078Y013906D01*
X003078Y013931D02*
X002592Y013931D01*
X002592Y013956D02*
X003078Y013956D01*
X003078Y013981D02*
X002592Y013981D01*
X002592Y014006D02*
X003078Y014006D01*
X003078Y014031D02*
X002592Y014031D01*
X002592Y014056D02*
X003078Y014056D01*
X003078Y014081D02*
X002592Y014081D01*
X002592Y014106D02*
X003078Y014106D01*
X003078Y014131D02*
X002592Y014131D01*
X002592Y014156D02*
X003078Y014156D01*
X003078Y014181D02*
X002592Y014181D01*
X002592Y014206D02*
X003078Y014206D01*
X003078Y014231D02*
X002592Y014231D01*
X002592Y014256D02*
X003078Y014256D01*
X003078Y014281D02*
X002592Y014281D01*
X002488Y009866D02*
X002002Y009866D01*
X002002Y010550D01*
X002488Y010550D01*
X002488Y009866D01*
X002488Y009891D02*
X002002Y009891D01*
X002002Y009916D02*
X002488Y009916D01*
X002488Y009941D02*
X002002Y009941D01*
X002002Y009966D02*
X002488Y009966D01*
X002488Y009991D02*
X002002Y009991D01*
X002002Y010016D02*
X002488Y010016D01*
X002488Y010041D02*
X002002Y010041D01*
X002002Y010066D02*
X002488Y010066D01*
X002488Y010091D02*
X002002Y010091D01*
X002002Y010116D02*
X002488Y010116D01*
X002488Y010141D02*
X002002Y010141D01*
X002002Y010166D02*
X002488Y010166D01*
X002488Y010191D02*
X002002Y010191D01*
X002002Y010216D02*
X002488Y010216D01*
X002488Y010241D02*
X002002Y010241D01*
X002002Y010266D02*
X002488Y010266D01*
X002488Y010291D02*
X002002Y010291D01*
X002002Y010316D02*
X002488Y010316D01*
X002488Y010341D02*
X002002Y010341D01*
X002002Y010366D02*
X002488Y010366D01*
X002488Y010391D02*
X002002Y010391D01*
X002002Y010416D02*
X002488Y010416D01*
X002488Y010441D02*
X002002Y010441D01*
X002002Y010466D02*
X002488Y010466D01*
X002488Y010491D02*
X002002Y010491D01*
X002002Y010516D02*
X002488Y010516D01*
X002488Y010541D02*
X002002Y010541D01*
X001700Y009866D02*
X001214Y009866D01*
X001214Y010550D01*
X001700Y010550D01*
X001700Y009866D01*
X001700Y009891D02*
X001214Y009891D01*
X001214Y009916D02*
X001700Y009916D01*
X001700Y009941D02*
X001214Y009941D01*
X001214Y009966D02*
X001700Y009966D01*
X001700Y009991D02*
X001214Y009991D01*
X001214Y010016D02*
X001700Y010016D01*
X001700Y010041D02*
X001214Y010041D01*
X001214Y010066D02*
X001700Y010066D01*
X001700Y010091D02*
X001214Y010091D01*
X001214Y010116D02*
X001700Y010116D01*
X001700Y010141D02*
X001214Y010141D01*
X001214Y010166D02*
X001700Y010166D01*
X001700Y010191D02*
X001214Y010191D01*
X001214Y010216D02*
X001700Y010216D01*
X001700Y010241D02*
X001214Y010241D01*
X001214Y010266D02*
X001700Y010266D01*
X001700Y010291D02*
X001214Y010291D01*
X001214Y010316D02*
X001700Y010316D01*
X001700Y010341D02*
X001214Y010341D01*
X001214Y010366D02*
X001700Y010366D01*
X001700Y010391D02*
X001214Y010391D01*
X001214Y010416D02*
X001700Y010416D01*
X001700Y010441D02*
X001214Y010441D01*
X001214Y010466D02*
X001700Y010466D01*
X001700Y010491D02*
X001214Y010491D01*
X001214Y010516D02*
X001700Y010516D01*
X001700Y010541D02*
X001214Y010541D01*
X002789Y008488D02*
X003275Y008488D01*
X002789Y008488D02*
X002789Y009172D01*
X003275Y009172D01*
X003275Y008488D01*
X003275Y008513D02*
X002789Y008513D01*
X002789Y008538D02*
X003275Y008538D01*
X003275Y008563D02*
X002789Y008563D01*
X002789Y008588D02*
X003275Y008588D01*
X003275Y008613D02*
X002789Y008613D01*
X002789Y008638D02*
X003275Y008638D01*
X003275Y008663D02*
X002789Y008663D01*
X002789Y008688D02*
X003275Y008688D01*
X003275Y008713D02*
X002789Y008713D01*
X002789Y008738D02*
X003275Y008738D01*
X003275Y008763D02*
X002789Y008763D01*
X002789Y008788D02*
X003275Y008788D01*
X003275Y008813D02*
X002789Y008813D01*
X002789Y008838D02*
X003275Y008838D01*
X003275Y008863D02*
X002789Y008863D01*
X002789Y008888D02*
X003275Y008888D01*
X003275Y008913D02*
X002789Y008913D01*
X002789Y008938D02*
X003275Y008938D01*
X003275Y008963D02*
X002789Y008963D01*
X002789Y008988D02*
X003275Y008988D01*
X003275Y009013D02*
X002789Y009013D01*
X002789Y009038D02*
X003275Y009038D01*
X003275Y009063D02*
X002789Y009063D01*
X002789Y009088D02*
X003275Y009088D01*
X003275Y009113D02*
X002789Y009113D01*
X002789Y009138D02*
X003275Y009138D01*
X003275Y009163D02*
X002789Y009163D01*
X003577Y008488D02*
X004063Y008488D01*
X003577Y008488D02*
X003577Y009172D01*
X004063Y009172D01*
X004063Y008488D01*
X004063Y008513D02*
X003577Y008513D01*
X003577Y008538D02*
X004063Y008538D01*
X004063Y008563D02*
X003577Y008563D01*
X003577Y008588D02*
X004063Y008588D01*
X004063Y008613D02*
X003577Y008613D01*
X003577Y008638D02*
X004063Y008638D01*
X004063Y008663D02*
X003577Y008663D01*
X003577Y008688D02*
X004063Y008688D01*
X004063Y008713D02*
X003577Y008713D01*
X003577Y008738D02*
X004063Y008738D01*
X004063Y008763D02*
X003577Y008763D01*
X003577Y008788D02*
X004063Y008788D01*
X004063Y008813D02*
X003577Y008813D01*
X003577Y008838D02*
X004063Y008838D01*
X004063Y008863D02*
X003577Y008863D01*
X003577Y008888D02*
X004063Y008888D01*
X004063Y008913D02*
X003577Y008913D01*
X003577Y008938D02*
X004063Y008938D01*
X004063Y008963D02*
X003577Y008963D01*
X003577Y008988D02*
X004063Y008988D01*
X004063Y009013D02*
X003577Y009013D01*
X003577Y009038D02*
X004063Y009038D01*
X004063Y009063D02*
X003577Y009063D01*
X003577Y009088D02*
X004063Y009088D01*
X004063Y009113D02*
X003577Y009113D01*
X003577Y009138D02*
X004063Y009138D01*
X004063Y009163D02*
X003577Y009163D01*
D17*
X002638Y008850D02*
X002088Y008850D01*
X002088Y009596D01*
X002638Y009596D01*
X002638Y008850D01*
X002638Y008872D02*
X002088Y008872D01*
X002088Y008894D02*
X002638Y008894D01*
X002638Y008916D02*
X002088Y008916D01*
X002088Y008938D02*
X002638Y008938D01*
X002638Y008960D02*
X002088Y008960D01*
X002088Y008982D02*
X002638Y008982D01*
X002638Y009004D02*
X002088Y009004D01*
X002088Y009026D02*
X002638Y009026D01*
X002638Y009048D02*
X002088Y009048D01*
X002088Y009070D02*
X002638Y009070D01*
X002638Y009092D02*
X002088Y009092D01*
X002088Y009114D02*
X002638Y009114D01*
X002638Y009136D02*
X002088Y009136D01*
X002088Y009158D02*
X002638Y009158D01*
X002638Y009180D02*
X002088Y009180D01*
X002088Y009202D02*
X002638Y009202D01*
X002638Y009224D02*
X002088Y009224D01*
X002088Y009246D02*
X002638Y009246D01*
X002638Y009268D02*
X002088Y009268D01*
X002088Y009290D02*
X002638Y009290D01*
X002638Y009312D02*
X002088Y009312D01*
X002088Y009334D02*
X002638Y009334D01*
X002638Y009356D02*
X002088Y009356D01*
X002088Y009378D02*
X002638Y009378D01*
X002638Y009400D02*
X002088Y009400D01*
X002088Y009422D02*
X002638Y009422D01*
X002638Y009444D02*
X002088Y009444D01*
X002088Y009466D02*
X002638Y009466D01*
X002638Y009488D02*
X002088Y009488D01*
X002088Y009510D02*
X002638Y009510D01*
X002638Y009532D02*
X002088Y009532D01*
X002088Y009554D02*
X002638Y009554D01*
X002638Y009576D02*
X002088Y009576D01*
X001732Y008850D02*
X001182Y008850D01*
X001182Y009596D01*
X001732Y009596D01*
X001732Y008850D01*
X001732Y008872D02*
X001182Y008872D01*
X001182Y008894D02*
X001732Y008894D01*
X001732Y008916D02*
X001182Y008916D01*
X001182Y008938D02*
X001732Y008938D01*
X001732Y008960D02*
X001182Y008960D01*
X001182Y008982D02*
X001732Y008982D01*
X001732Y009004D02*
X001182Y009004D01*
X001182Y009026D02*
X001732Y009026D01*
X001732Y009048D02*
X001182Y009048D01*
X001182Y009070D02*
X001732Y009070D01*
X001732Y009092D02*
X001182Y009092D01*
X001182Y009114D02*
X001732Y009114D01*
X001732Y009136D02*
X001182Y009136D01*
X001182Y009158D02*
X001732Y009158D01*
X001732Y009180D02*
X001182Y009180D01*
X001182Y009202D02*
X001732Y009202D01*
X001732Y009224D02*
X001182Y009224D01*
X001182Y009246D02*
X001732Y009246D01*
X001732Y009268D02*
X001182Y009268D01*
X001182Y009290D02*
X001732Y009290D01*
X001732Y009312D02*
X001182Y009312D01*
X001182Y009334D02*
X001732Y009334D01*
X001732Y009356D02*
X001182Y009356D01*
X001182Y009378D02*
X001732Y009378D01*
X001732Y009400D02*
X001182Y009400D01*
X001182Y009422D02*
X001732Y009422D01*
X001732Y009444D02*
X001182Y009444D01*
X001182Y009466D02*
X001732Y009466D01*
X001732Y009488D02*
X001182Y009488D01*
X001182Y009510D02*
X001732Y009510D01*
X001732Y009532D02*
X001182Y009532D01*
X001182Y009554D02*
X001732Y009554D01*
X001732Y009576D02*
X001182Y009576D01*
X013190Y025386D02*
X013740Y025386D01*
X013190Y025386D02*
X013190Y026132D01*
X013740Y026132D01*
X013740Y025386D01*
X013740Y025408D02*
X013190Y025408D01*
X013190Y025430D02*
X013740Y025430D01*
X013740Y025452D02*
X013190Y025452D01*
X013190Y025474D02*
X013740Y025474D01*
X013740Y025496D02*
X013190Y025496D01*
X013190Y025518D02*
X013740Y025518D01*
X013740Y025540D02*
X013190Y025540D01*
X013190Y025562D02*
X013740Y025562D01*
X013740Y025584D02*
X013190Y025584D01*
X013190Y025606D02*
X013740Y025606D01*
X013740Y025628D02*
X013190Y025628D01*
X013190Y025650D02*
X013740Y025650D01*
X013740Y025672D02*
X013190Y025672D01*
X013190Y025694D02*
X013740Y025694D01*
X013740Y025716D02*
X013190Y025716D01*
X013190Y025738D02*
X013740Y025738D01*
X013740Y025760D02*
X013190Y025760D01*
X013190Y025782D02*
X013740Y025782D01*
X013740Y025804D02*
X013190Y025804D01*
X013190Y025826D02*
X013740Y025826D01*
X013740Y025848D02*
X013190Y025848D01*
X013190Y025870D02*
X013740Y025870D01*
X013740Y025892D02*
X013190Y025892D01*
X013190Y025914D02*
X013740Y025914D01*
X013740Y025936D02*
X013190Y025936D01*
X013190Y025958D02*
X013740Y025958D01*
X013740Y025980D02*
X013190Y025980D01*
X013190Y026002D02*
X013740Y026002D01*
X013740Y026024D02*
X013190Y026024D01*
X013190Y026046D02*
X013740Y026046D01*
X013740Y026068D02*
X013190Y026068D01*
X013190Y026090D02*
X013740Y026090D01*
X013740Y026112D02*
X013190Y026112D01*
X014096Y025386D02*
X014646Y025386D01*
X014096Y025386D02*
X014096Y026132D01*
X014646Y026132D01*
X014646Y025386D01*
X014646Y025408D02*
X014096Y025408D01*
X014096Y025430D02*
X014646Y025430D01*
X014646Y025452D02*
X014096Y025452D01*
X014096Y025474D02*
X014646Y025474D01*
X014646Y025496D02*
X014096Y025496D01*
X014096Y025518D02*
X014646Y025518D01*
X014646Y025540D02*
X014096Y025540D01*
X014096Y025562D02*
X014646Y025562D01*
X014646Y025584D02*
X014096Y025584D01*
X014096Y025606D02*
X014646Y025606D01*
X014646Y025628D02*
X014096Y025628D01*
X014096Y025650D02*
X014646Y025650D01*
X014646Y025672D02*
X014096Y025672D01*
X014096Y025694D02*
X014646Y025694D01*
X014646Y025716D02*
X014096Y025716D01*
X014096Y025738D02*
X014646Y025738D01*
X014646Y025760D02*
X014096Y025760D01*
X014096Y025782D02*
X014646Y025782D01*
X014646Y025804D02*
X014096Y025804D01*
X014096Y025826D02*
X014646Y025826D01*
X014646Y025848D02*
X014096Y025848D01*
X014096Y025870D02*
X014646Y025870D01*
X014646Y025892D02*
X014096Y025892D01*
X014096Y025914D02*
X014646Y025914D01*
X014646Y025936D02*
X014096Y025936D01*
X014096Y025958D02*
X014646Y025958D01*
X014646Y025980D02*
X014096Y025980D01*
X014096Y026002D02*
X014646Y026002D01*
X014646Y026024D02*
X014096Y026024D01*
X014096Y026046D02*
X014646Y026046D01*
X014646Y026068D02*
X014096Y026068D01*
X014096Y026090D02*
X014646Y026090D01*
X014646Y026112D02*
X014096Y026112D01*
D18*
X014291Y024244D02*
X013545Y024244D01*
X013545Y024990D01*
X014291Y024990D01*
X014291Y024244D01*
X014291Y024266D02*
X013545Y024266D01*
X013545Y024288D02*
X014291Y024288D01*
X014291Y024310D02*
X013545Y024310D01*
X013545Y024332D02*
X014291Y024332D01*
X014291Y024354D02*
X013545Y024354D01*
X013545Y024376D02*
X014291Y024376D01*
X014291Y024398D02*
X013545Y024398D01*
X013545Y024420D02*
X014291Y024420D01*
X014291Y024442D02*
X013545Y024442D01*
X013545Y024464D02*
X014291Y024464D01*
X014291Y024486D02*
X013545Y024486D01*
X013545Y024508D02*
X014291Y024508D01*
X014291Y024530D02*
X013545Y024530D01*
X013545Y024552D02*
X014291Y024552D01*
X014291Y024574D02*
X013545Y024574D01*
X013545Y024596D02*
X014291Y024596D01*
X014291Y024618D02*
X013545Y024618D01*
X013545Y024640D02*
X014291Y024640D01*
X014291Y024662D02*
X013545Y024662D01*
X013545Y024684D02*
X014291Y024684D01*
X014291Y024706D02*
X013545Y024706D01*
X013545Y024728D02*
X014291Y024728D01*
X014291Y024750D02*
X013545Y024750D01*
X013545Y024772D02*
X014291Y024772D01*
X014291Y024794D02*
X013545Y024794D01*
X013545Y024816D02*
X014291Y024816D01*
X014291Y024838D02*
X013545Y024838D01*
X013545Y024860D02*
X014291Y024860D01*
X014291Y024882D02*
X013545Y024882D01*
X013545Y024904D02*
X014291Y024904D01*
X014291Y024926D02*
X013545Y024926D01*
X013545Y024948D02*
X014291Y024948D01*
X014291Y024970D02*
X013545Y024970D01*
X002283Y007709D02*
X001537Y007709D01*
X001537Y008455D01*
X002283Y008455D01*
X002283Y007709D01*
X002283Y007731D02*
X001537Y007731D01*
X001537Y007753D02*
X002283Y007753D01*
X002283Y007775D02*
X001537Y007775D01*
X001537Y007797D02*
X002283Y007797D01*
X002283Y007819D02*
X001537Y007819D01*
X001537Y007841D02*
X002283Y007841D01*
X002283Y007863D02*
X001537Y007863D01*
X001537Y007885D02*
X002283Y007885D01*
X002283Y007907D02*
X001537Y007907D01*
X001537Y007929D02*
X002283Y007929D01*
X002283Y007951D02*
X001537Y007951D01*
X001537Y007973D02*
X002283Y007973D01*
X002283Y007995D02*
X001537Y007995D01*
X001537Y008017D02*
X002283Y008017D01*
X002283Y008039D02*
X001537Y008039D01*
X001537Y008061D02*
X002283Y008061D01*
X002283Y008083D02*
X001537Y008083D01*
X001537Y008105D02*
X002283Y008105D01*
X002283Y008127D02*
X001537Y008127D01*
X001537Y008149D02*
X002283Y008149D01*
X002283Y008171D02*
X001537Y008171D01*
X001537Y008193D02*
X002283Y008193D01*
X002283Y008215D02*
X001537Y008215D01*
X001537Y008237D02*
X002283Y008237D01*
X002283Y008259D02*
X001537Y008259D01*
X001537Y008281D02*
X002283Y008281D01*
X002283Y008303D02*
X001537Y008303D01*
X001537Y008325D02*
X002283Y008325D01*
X002283Y008347D02*
X001537Y008347D01*
X001537Y008369D02*
X002283Y008369D01*
X002283Y008391D02*
X001537Y008391D01*
X001537Y008413D02*
X002283Y008413D01*
X002283Y008435D02*
X001537Y008435D01*
D19*
X003082Y010573D02*
X003612Y010573D01*
X003082Y010573D02*
X003082Y011417D01*
X003612Y011417D01*
X003612Y010573D01*
X003612Y010594D02*
X003082Y010594D01*
X003082Y010615D02*
X003612Y010615D01*
X003612Y010636D02*
X003082Y010636D01*
X003082Y010657D02*
X003612Y010657D01*
X003612Y010678D02*
X003082Y010678D01*
X003082Y010699D02*
X003612Y010699D01*
X003612Y010720D02*
X003082Y010720D01*
X003082Y010741D02*
X003612Y010741D01*
X003612Y010762D02*
X003082Y010762D01*
X003082Y010783D02*
X003612Y010783D01*
X003612Y010804D02*
X003082Y010804D01*
X003082Y010825D02*
X003612Y010825D01*
X003612Y010846D02*
X003082Y010846D01*
X003082Y010867D02*
X003612Y010867D01*
X003612Y010888D02*
X003082Y010888D01*
X003082Y010909D02*
X003612Y010909D01*
X003612Y010930D02*
X003082Y010930D01*
X003082Y010951D02*
X003612Y010951D01*
X003612Y010972D02*
X003082Y010972D01*
X003082Y010993D02*
X003612Y010993D01*
X003612Y011014D02*
X003082Y011014D01*
X003082Y011035D02*
X003612Y011035D01*
X003612Y011056D02*
X003082Y011056D01*
X003082Y011077D02*
X003612Y011077D01*
X003612Y011098D02*
X003082Y011098D01*
X003082Y011119D02*
X003612Y011119D01*
X003612Y011140D02*
X003082Y011140D01*
X003082Y011161D02*
X003612Y011161D01*
X003612Y011182D02*
X003082Y011182D01*
X003082Y011203D02*
X003612Y011203D01*
X003612Y011224D02*
X003082Y011224D01*
X003082Y011245D02*
X003612Y011245D01*
X003612Y011266D02*
X003082Y011266D01*
X003082Y011287D02*
X003612Y011287D01*
X003612Y011308D02*
X003082Y011308D01*
X003082Y011329D02*
X003612Y011329D01*
X003612Y011350D02*
X003082Y011350D01*
X003082Y011371D02*
X003612Y011371D01*
X003612Y011392D02*
X003082Y011392D01*
X003082Y011413D02*
X003612Y011413D01*
X004027Y010573D02*
X004557Y010573D01*
X004027Y010573D02*
X004027Y011417D01*
X004557Y011417D01*
X004557Y010573D01*
X004557Y010594D02*
X004027Y010594D01*
X004027Y010615D02*
X004557Y010615D01*
X004557Y010636D02*
X004027Y010636D01*
X004027Y010657D02*
X004557Y010657D01*
X004557Y010678D02*
X004027Y010678D01*
X004027Y010699D02*
X004557Y010699D01*
X004557Y010720D02*
X004027Y010720D01*
X004027Y010741D02*
X004557Y010741D01*
X004557Y010762D02*
X004027Y010762D01*
X004027Y010783D02*
X004557Y010783D01*
X004557Y010804D02*
X004027Y010804D01*
X004027Y010825D02*
X004557Y010825D01*
X004557Y010846D02*
X004027Y010846D01*
X004027Y010867D02*
X004557Y010867D01*
X004557Y010888D02*
X004027Y010888D01*
X004027Y010909D02*
X004557Y010909D01*
X004557Y010930D02*
X004027Y010930D01*
X004027Y010951D02*
X004557Y010951D01*
X004557Y010972D02*
X004027Y010972D01*
X004027Y010993D02*
X004557Y010993D01*
X004557Y011014D02*
X004027Y011014D01*
X004027Y011035D02*
X004557Y011035D01*
X004557Y011056D02*
X004027Y011056D01*
X004027Y011077D02*
X004557Y011077D01*
X004557Y011098D02*
X004027Y011098D01*
X004027Y011119D02*
X004557Y011119D01*
X004557Y011140D02*
X004027Y011140D01*
X004027Y011161D02*
X004557Y011161D01*
X004557Y011182D02*
X004027Y011182D01*
X004027Y011203D02*
X004557Y011203D01*
X004557Y011224D02*
X004027Y011224D01*
X004027Y011245D02*
X004557Y011245D01*
X004557Y011266D02*
X004027Y011266D01*
X004027Y011287D02*
X004557Y011287D01*
X004557Y011308D02*
X004027Y011308D01*
X004027Y011329D02*
X004557Y011329D01*
X004557Y011350D02*
X004027Y011350D01*
X004027Y011371D02*
X004557Y011371D01*
X004557Y011392D02*
X004027Y011392D01*
X004027Y011413D02*
X004557Y011413D01*
X005031Y023958D02*
X005757Y023958D01*
X005031Y023958D02*
X005031Y024488D01*
X005757Y024488D01*
X005757Y023958D01*
X005757Y023979D02*
X005031Y023979D01*
X005031Y024000D02*
X005757Y024000D01*
X005757Y024021D02*
X005031Y024021D01*
X005031Y024042D02*
X005757Y024042D01*
X005757Y024063D02*
X005031Y024063D01*
X005031Y024084D02*
X005757Y024084D01*
X005757Y024105D02*
X005031Y024105D01*
X005031Y024126D02*
X005757Y024126D01*
X005757Y024147D02*
X005031Y024147D01*
X005031Y024168D02*
X005757Y024168D01*
X005757Y024189D02*
X005031Y024189D01*
X005031Y024210D02*
X005757Y024210D01*
X005757Y024231D02*
X005031Y024231D01*
X005031Y024252D02*
X005757Y024252D01*
X005757Y024273D02*
X005031Y024273D01*
X005031Y024294D02*
X005757Y024294D01*
X005757Y024315D02*
X005031Y024315D01*
X005031Y024336D02*
X005757Y024336D01*
X005757Y024357D02*
X005031Y024357D01*
X005031Y024378D02*
X005757Y024378D01*
X005757Y024399D02*
X005031Y024399D01*
X005031Y024420D02*
X005757Y024420D01*
X005757Y024441D02*
X005031Y024441D01*
X005031Y024462D02*
X005757Y024462D01*
X005757Y024483D02*
X005031Y024483D01*
X005031Y025454D02*
X005757Y025454D01*
X005031Y025454D02*
X005031Y025984D01*
X005757Y025984D01*
X005757Y025454D01*
X005757Y025475D02*
X005031Y025475D01*
X005031Y025496D02*
X005757Y025496D01*
X005757Y025517D02*
X005031Y025517D01*
X005031Y025538D02*
X005757Y025538D01*
X005757Y025559D02*
X005031Y025559D01*
X005031Y025580D02*
X005757Y025580D01*
X005757Y025601D02*
X005031Y025601D01*
X005031Y025622D02*
X005757Y025622D01*
X005757Y025643D02*
X005031Y025643D01*
X005031Y025664D02*
X005757Y025664D01*
X005757Y025685D02*
X005031Y025685D01*
X005031Y025706D02*
X005757Y025706D01*
X005757Y025727D02*
X005031Y025727D01*
X005031Y025748D02*
X005757Y025748D01*
X005757Y025769D02*
X005031Y025769D01*
X005031Y025790D02*
X005757Y025790D01*
X005757Y025811D02*
X005031Y025811D01*
X005031Y025832D02*
X005757Y025832D01*
X005757Y025853D02*
X005031Y025853D01*
X005031Y025874D02*
X005757Y025874D01*
X005757Y025895D02*
X005031Y025895D01*
X005031Y025916D02*
X005757Y025916D01*
X005757Y025937D02*
X005031Y025937D01*
X005031Y025958D02*
X005757Y025958D01*
X005757Y025979D02*
X005031Y025979D01*
X007815Y027624D02*
X008541Y027624D01*
X007815Y027624D02*
X007815Y028154D01*
X008541Y028154D01*
X008541Y027624D01*
X008541Y027645D02*
X007815Y027645D01*
X007815Y027666D02*
X008541Y027666D01*
X008541Y027687D02*
X007815Y027687D01*
X007815Y027708D02*
X008541Y027708D01*
X008541Y027729D02*
X007815Y027729D01*
X007815Y027750D02*
X008541Y027750D01*
X008541Y027771D02*
X007815Y027771D01*
X007815Y027792D02*
X008541Y027792D01*
X008541Y027813D02*
X007815Y027813D01*
X007815Y027834D02*
X008541Y027834D01*
X008541Y027855D02*
X007815Y027855D01*
X007815Y027876D02*
X008541Y027876D01*
X008541Y027897D02*
X007815Y027897D01*
X007815Y027918D02*
X008541Y027918D01*
X008541Y027939D02*
X007815Y027939D01*
X007815Y027960D02*
X008541Y027960D01*
X008541Y027981D02*
X007815Y027981D01*
X007815Y028002D02*
X008541Y028002D01*
X008541Y028023D02*
X007815Y028023D01*
X007815Y028044D02*
X008541Y028044D01*
X008541Y028065D02*
X007815Y028065D01*
X007815Y028086D02*
X008541Y028086D01*
X008541Y028107D02*
X007815Y028107D01*
X007815Y028128D02*
X008541Y028128D01*
X008541Y028149D02*
X007815Y028149D01*
X007815Y029120D02*
X008541Y029120D01*
X007815Y029120D02*
X007815Y029650D01*
X008541Y029650D01*
X008541Y029120D01*
X008541Y029141D02*
X007815Y029141D01*
X007815Y029162D02*
X008541Y029162D01*
X008541Y029183D02*
X007815Y029183D01*
X007815Y029204D02*
X008541Y029204D01*
X008541Y029225D02*
X007815Y029225D01*
X007815Y029246D02*
X008541Y029246D01*
X008541Y029267D02*
X007815Y029267D01*
X007815Y029288D02*
X008541Y029288D01*
X008541Y029309D02*
X007815Y029309D01*
X007815Y029330D02*
X008541Y029330D01*
X008541Y029351D02*
X007815Y029351D01*
X007815Y029372D02*
X008541Y029372D01*
X008541Y029393D02*
X007815Y029393D01*
X007815Y029414D02*
X008541Y029414D01*
X008541Y029435D02*
X007815Y029435D01*
X007815Y029456D02*
X008541Y029456D01*
X008541Y029477D02*
X007815Y029477D01*
X007815Y029498D02*
X008541Y029498D01*
X008541Y029519D02*
X007815Y029519D01*
X007815Y029540D02*
X008541Y029540D01*
X008541Y029561D02*
X007815Y029561D01*
X007815Y029582D02*
X008541Y029582D01*
X008541Y029603D02*
X007815Y029603D01*
X007815Y029624D02*
X008541Y029624D01*
X008541Y029645D02*
X007815Y029645D01*
X011405Y029120D02*
X012131Y029120D01*
X011405Y029120D02*
X011405Y029650D01*
X012131Y029650D01*
X012131Y029120D01*
X012131Y029141D02*
X011405Y029141D01*
X011405Y029162D02*
X012131Y029162D01*
X012131Y029183D02*
X011405Y029183D01*
X011405Y029204D02*
X012131Y029204D01*
X012131Y029225D02*
X011405Y029225D01*
X011405Y029246D02*
X012131Y029246D01*
X012131Y029267D02*
X011405Y029267D01*
X011405Y029288D02*
X012131Y029288D01*
X012131Y029309D02*
X011405Y029309D01*
X011405Y029330D02*
X012131Y029330D01*
X012131Y029351D02*
X011405Y029351D01*
X011405Y029372D02*
X012131Y029372D01*
X012131Y029393D02*
X011405Y029393D01*
X011405Y029414D02*
X012131Y029414D01*
X012131Y029435D02*
X011405Y029435D01*
X011405Y029456D02*
X012131Y029456D01*
X012131Y029477D02*
X011405Y029477D01*
X011405Y029498D02*
X012131Y029498D01*
X012131Y029519D02*
X011405Y029519D01*
X011405Y029540D02*
X012131Y029540D01*
X012131Y029561D02*
X011405Y029561D01*
X011405Y029582D02*
X012131Y029582D01*
X012131Y029603D02*
X011405Y029603D01*
X011405Y029624D02*
X012131Y029624D01*
X012131Y029645D02*
X011405Y029645D01*
X011405Y027624D02*
X012131Y027624D01*
X011405Y027624D02*
X011405Y028154D01*
X012131Y028154D01*
X012131Y027624D01*
X012131Y027645D02*
X011405Y027645D01*
X011405Y027666D02*
X012131Y027666D01*
X012131Y027687D02*
X011405Y027687D01*
X011405Y027708D02*
X012131Y027708D01*
X012131Y027729D02*
X011405Y027729D01*
X011405Y027750D02*
X012131Y027750D01*
X012131Y027771D02*
X011405Y027771D01*
X011405Y027792D02*
X012131Y027792D01*
X012131Y027813D02*
X011405Y027813D01*
X011405Y027834D02*
X012131Y027834D01*
X012131Y027855D02*
X011405Y027855D01*
X011405Y027876D02*
X012131Y027876D01*
X012131Y027897D02*
X011405Y027897D01*
X011405Y027918D02*
X012131Y027918D01*
X012131Y027939D02*
X011405Y027939D01*
X011405Y027960D02*
X012131Y027960D01*
X012131Y027981D02*
X011405Y027981D01*
X011405Y028002D02*
X012131Y028002D01*
X012131Y028023D02*
X011405Y028023D01*
X011405Y028044D02*
X012131Y028044D01*
X012131Y028065D02*
X011405Y028065D01*
X011405Y028086D02*
X012131Y028086D01*
X012131Y028107D02*
X011405Y028107D01*
X011405Y028128D02*
X012131Y028128D01*
X012131Y028149D02*
X011405Y028149D01*
X015661Y025651D02*
X016387Y025651D01*
X015661Y025651D02*
X015661Y026181D01*
X016387Y026181D01*
X016387Y025651D01*
X016387Y025672D02*
X015661Y025672D01*
X015661Y025693D02*
X016387Y025693D01*
X016387Y025714D02*
X015661Y025714D01*
X015661Y025735D02*
X016387Y025735D01*
X016387Y025756D02*
X015661Y025756D01*
X015661Y025777D02*
X016387Y025777D01*
X016387Y025798D02*
X015661Y025798D01*
X015661Y025819D02*
X016387Y025819D01*
X016387Y025840D02*
X015661Y025840D01*
X015661Y025861D02*
X016387Y025861D01*
X016387Y025882D02*
X015661Y025882D01*
X015661Y025903D02*
X016387Y025903D01*
X016387Y025924D02*
X015661Y025924D01*
X015661Y025945D02*
X016387Y025945D01*
X016387Y025966D02*
X015661Y025966D01*
X015661Y025987D02*
X016387Y025987D01*
X016387Y026008D02*
X015661Y026008D01*
X015661Y026029D02*
X016387Y026029D01*
X016387Y026050D02*
X015661Y026050D01*
X015661Y026071D02*
X016387Y026071D01*
X016387Y026092D02*
X015661Y026092D01*
X015661Y026113D02*
X016387Y026113D01*
X016387Y026134D02*
X015661Y026134D01*
X015661Y026155D02*
X016387Y026155D01*
X016387Y026176D02*
X015661Y026176D01*
X015661Y024155D02*
X016387Y024155D01*
X015661Y024155D02*
X015661Y024685D01*
X016387Y024685D01*
X016387Y024155D01*
X016387Y024176D02*
X015661Y024176D01*
X015661Y024197D02*
X016387Y024197D01*
X016387Y024218D02*
X015661Y024218D01*
X015661Y024239D02*
X016387Y024239D01*
X016387Y024260D02*
X015661Y024260D01*
X015661Y024281D02*
X016387Y024281D01*
X016387Y024302D02*
X015661Y024302D01*
X015661Y024323D02*
X016387Y024323D01*
X016387Y024344D02*
X015661Y024344D01*
X015661Y024365D02*
X016387Y024365D01*
X016387Y024386D02*
X015661Y024386D01*
X015661Y024407D02*
X016387Y024407D01*
X016387Y024428D02*
X015661Y024428D01*
X015661Y024449D02*
X016387Y024449D01*
X016387Y024470D02*
X015661Y024470D01*
X015661Y024491D02*
X016387Y024491D01*
X016387Y024512D02*
X015661Y024512D01*
X015661Y024533D02*
X016387Y024533D01*
X016387Y024554D02*
X015661Y024554D01*
X015661Y024575D02*
X016387Y024575D01*
X016387Y024596D02*
X015661Y024596D01*
X015661Y024617D02*
X016387Y024617D01*
X016387Y024638D02*
X015661Y024638D01*
X015661Y024659D02*
X016387Y024659D01*
X016387Y024680D02*
X015661Y024680D01*
D20*
X004287Y019583D02*
X003731Y019583D01*
X003731Y019725D01*
X004287Y019725D01*
X004287Y019583D01*
X004287Y019618D02*
X003731Y019618D01*
X003731Y019653D02*
X004287Y019653D01*
X004287Y019688D02*
X003731Y019688D01*
X003731Y019723D02*
X004287Y019723D01*
X004287Y019387D02*
X003731Y019387D01*
X003731Y019529D01*
X004287Y019529D01*
X004287Y019387D01*
X004287Y019422D02*
X003731Y019422D01*
X003731Y019457D02*
X004287Y019457D01*
X004287Y019492D02*
X003731Y019492D01*
X003731Y019527D02*
X004287Y019527D01*
X004287Y019190D02*
X003731Y019190D01*
X003731Y019332D01*
X004287Y019332D01*
X004287Y019190D01*
X004287Y019225D02*
X003731Y019225D01*
X003731Y019260D02*
X004287Y019260D01*
X004287Y019295D02*
X003731Y019295D01*
X003731Y019330D02*
X004287Y019330D01*
X004287Y018993D02*
X003731Y018993D01*
X003731Y019135D01*
X004287Y019135D01*
X004287Y018993D01*
X004287Y019028D02*
X003731Y019028D01*
X003731Y019063D02*
X004287Y019063D01*
X004287Y019098D02*
X003731Y019098D01*
X003731Y019133D02*
X004287Y019133D01*
X004287Y018796D02*
X003731Y018796D01*
X003731Y018938D01*
X004287Y018938D01*
X004287Y018796D01*
X004287Y018831D02*
X003731Y018831D01*
X003731Y018866D02*
X004287Y018866D01*
X004287Y018901D02*
X003731Y018901D01*
X003731Y018936D02*
X004287Y018936D01*
X004287Y018599D02*
X003731Y018599D01*
X003731Y018741D01*
X004287Y018741D01*
X004287Y018599D01*
X004287Y018634D02*
X003731Y018634D01*
X003731Y018669D02*
X004287Y018669D01*
X004287Y018704D02*
X003731Y018704D01*
X003731Y018739D02*
X004287Y018739D01*
X004287Y018402D02*
X003731Y018402D01*
X003731Y018544D01*
X004287Y018544D01*
X004287Y018402D01*
X004287Y018437D02*
X003731Y018437D01*
X003731Y018472D02*
X004287Y018472D01*
X004287Y018507D02*
X003731Y018507D01*
X003731Y018542D02*
X004287Y018542D01*
X004287Y018205D02*
X003731Y018205D01*
X003731Y018347D01*
X004287Y018347D01*
X004287Y018205D01*
X004287Y018240D02*
X003731Y018240D01*
X003731Y018275D02*
X004287Y018275D01*
X004287Y018310D02*
X003731Y018310D01*
X003731Y018345D02*
X004287Y018345D01*
X004287Y018009D02*
X003731Y018009D01*
X003731Y018151D01*
X004287Y018151D01*
X004287Y018009D01*
X004287Y018044D02*
X003731Y018044D01*
X003731Y018079D02*
X004287Y018079D01*
X004287Y018114D02*
X003731Y018114D01*
X003731Y018149D02*
X004287Y018149D01*
X004287Y017812D02*
X003731Y017812D01*
X003731Y017954D01*
X004287Y017954D01*
X004287Y017812D01*
X004287Y017847D02*
X003731Y017847D01*
X003731Y017882D02*
X004287Y017882D01*
X004287Y017917D02*
X003731Y017917D01*
X003731Y017952D02*
X004287Y017952D01*
X004287Y017615D02*
X003731Y017615D01*
X003731Y017757D01*
X004287Y017757D01*
X004287Y017615D01*
X004287Y017650D02*
X003731Y017650D01*
X003731Y017685D02*
X004287Y017685D01*
X004287Y017720D02*
X003731Y017720D01*
X003731Y017755D02*
X004287Y017755D01*
X004287Y017418D02*
X003731Y017418D01*
X003731Y017560D01*
X004287Y017560D01*
X004287Y017418D01*
X004287Y017453D02*
X003731Y017453D01*
X003731Y017488D02*
X004287Y017488D01*
X004287Y017523D02*
X003731Y017523D01*
X003731Y017558D02*
X004287Y017558D01*
X004287Y017221D02*
X003731Y017221D01*
X003731Y017363D01*
X004287Y017363D01*
X004287Y017221D01*
X004287Y017256D02*
X003731Y017256D01*
X003731Y017291D02*
X004287Y017291D01*
X004287Y017326D02*
X003731Y017326D01*
X003731Y017361D02*
X004287Y017361D01*
X004287Y017024D02*
X003731Y017024D01*
X003731Y017166D01*
X004287Y017166D01*
X004287Y017024D01*
X004287Y017059D02*
X003731Y017059D01*
X003731Y017094D02*
X004287Y017094D01*
X004287Y017129D02*
X003731Y017129D01*
X003731Y017164D02*
X004287Y017164D01*
X004287Y016828D02*
X003731Y016828D01*
X003731Y016970D01*
X004287Y016970D01*
X004287Y016828D01*
X004287Y016863D02*
X003731Y016863D01*
X003731Y016898D02*
X004287Y016898D01*
X004287Y016933D02*
X003731Y016933D01*
X003731Y016968D02*
X004287Y016968D01*
X004287Y016631D02*
X003731Y016631D01*
X003731Y016773D01*
X004287Y016773D01*
X004287Y016631D01*
X004287Y016666D02*
X003731Y016666D01*
X003731Y016701D02*
X004287Y016701D01*
X004287Y016736D02*
X003731Y016736D01*
X003731Y016771D02*
X004287Y016771D01*
X004287Y016434D02*
X003731Y016434D01*
X003731Y016576D01*
X004287Y016576D01*
X004287Y016434D01*
X004287Y016469D02*
X003731Y016469D01*
X003731Y016504D02*
X004287Y016504D01*
X004287Y016539D02*
X003731Y016539D01*
X003731Y016574D02*
X004287Y016574D01*
X004287Y016237D02*
X003731Y016237D01*
X003731Y016379D01*
X004287Y016379D01*
X004287Y016237D01*
X004287Y016272D02*
X003731Y016272D01*
X003731Y016307D02*
X004287Y016307D01*
X004287Y016342D02*
X003731Y016342D01*
X003731Y016377D02*
X004287Y016377D01*
X004287Y016040D02*
X003731Y016040D01*
X003731Y016182D01*
X004287Y016182D01*
X004287Y016040D01*
X004287Y016075D02*
X003731Y016075D01*
X003731Y016110D02*
X004287Y016110D01*
X004287Y016145D02*
X003731Y016145D01*
X003731Y016180D02*
X004287Y016180D01*
X004287Y015843D02*
X003731Y015843D01*
X003731Y015985D01*
X004287Y015985D01*
X004287Y015843D01*
X004287Y015878D02*
X003731Y015878D01*
X003731Y015913D02*
X004287Y015913D01*
X004287Y015948D02*
X003731Y015948D01*
X003731Y015983D02*
X004287Y015983D01*
X004287Y015646D02*
X003731Y015646D01*
X003731Y015788D01*
X004287Y015788D01*
X004287Y015646D01*
X004287Y015681D02*
X003731Y015681D01*
X003731Y015716D02*
X004287Y015716D01*
X004287Y015751D02*
X003731Y015751D01*
X003731Y015786D02*
X004287Y015786D01*
X004287Y015450D02*
X003731Y015450D01*
X003731Y015592D01*
X004287Y015592D01*
X004287Y015450D01*
X004287Y015485D02*
X003731Y015485D01*
X003731Y015520D02*
X004287Y015520D01*
X004287Y015555D02*
X003731Y015555D01*
X003731Y015590D02*
X004287Y015590D01*
X004287Y015253D02*
X003731Y015253D01*
X003731Y015395D01*
X004287Y015395D01*
X004287Y015253D01*
X004287Y015288D02*
X003731Y015288D01*
X003731Y015323D02*
X004287Y015323D01*
X004287Y015358D02*
X003731Y015358D01*
X003731Y015393D02*
X004287Y015393D01*
X004287Y015056D02*
X003731Y015056D01*
X003731Y015198D01*
X004287Y015198D01*
X004287Y015056D01*
X004287Y015091D02*
X003731Y015091D01*
X003731Y015126D02*
X004287Y015126D01*
X004287Y015161D02*
X003731Y015161D01*
X003731Y015196D02*
X004287Y015196D01*
X004287Y014859D02*
X003731Y014859D01*
X003731Y015001D01*
X004287Y015001D01*
X004287Y014859D01*
X004287Y014894D02*
X003731Y014894D01*
X003731Y014929D02*
X004287Y014929D01*
X004287Y014964D02*
X003731Y014964D01*
X003731Y014999D02*
X004287Y014999D01*
X004287Y014662D02*
X003731Y014662D01*
X003731Y014804D01*
X004287Y014804D01*
X004287Y014662D01*
X004287Y014697D02*
X003731Y014697D01*
X003731Y014732D02*
X004287Y014732D01*
X004287Y014767D02*
X003731Y014767D01*
X003731Y014802D02*
X004287Y014802D01*
X004287Y014465D02*
X003731Y014465D01*
X003731Y014607D01*
X004287Y014607D01*
X004287Y014465D01*
X004287Y014500D02*
X003731Y014500D01*
X003731Y014535D02*
X004287Y014535D01*
X004287Y014570D02*
X003731Y014570D01*
X003731Y014605D02*
X004287Y014605D01*
X004287Y014268D02*
X003731Y014268D01*
X003731Y014410D01*
X004287Y014410D01*
X004287Y014268D01*
X004287Y014303D02*
X003731Y014303D01*
X003731Y014338D02*
X004287Y014338D01*
X004287Y014373D02*
X003731Y014373D01*
X003731Y014408D02*
X004287Y014408D01*
X004287Y014072D02*
X003731Y014072D01*
X003731Y014214D01*
X004287Y014214D01*
X004287Y014072D01*
X004287Y014107D02*
X003731Y014107D01*
X003731Y014142D02*
X004287Y014142D01*
X004287Y014177D02*
X003731Y014177D01*
X003731Y014212D02*
X004287Y014212D01*
X004287Y013875D02*
X003731Y013875D01*
X003731Y014017D01*
X004287Y014017D01*
X004287Y013875D01*
X004287Y013910D02*
X003731Y013910D01*
X003731Y013945D02*
X004287Y013945D01*
X004287Y013980D02*
X003731Y013980D01*
X003731Y014015D02*
X004287Y014015D01*
D21*
X005542Y020296D03*
D22*
X005552Y013288D03*
D23*
X032265Y017398D02*
X032855Y017398D01*
X032265Y017398D02*
X032265Y017584D01*
X032855Y017584D01*
X032855Y017398D01*
X032855Y017430D02*
X032265Y017430D01*
X032265Y017462D02*
X032855Y017462D01*
X032855Y017494D02*
X032265Y017494D01*
X032265Y017526D02*
X032855Y017526D01*
X032855Y017558D02*
X032265Y017558D01*
X032265Y017654D02*
X032855Y017654D01*
X032265Y017654D02*
X032265Y017840D01*
X032855Y017840D01*
X032855Y017654D01*
X032855Y017686D02*
X032265Y017686D01*
X032265Y017718D02*
X032855Y017718D01*
X032855Y017750D02*
X032265Y017750D01*
X032265Y017782D02*
X032855Y017782D01*
X032855Y017814D02*
X032265Y017814D01*
X032265Y017910D02*
X032855Y017910D01*
X032265Y017910D02*
X032265Y018096D01*
X032855Y018096D01*
X032855Y017910D01*
X032855Y017942D02*
X032265Y017942D01*
X032265Y017974D02*
X032855Y017974D01*
X032855Y018006D02*
X032265Y018006D01*
X032265Y018038D02*
X032855Y018038D01*
X032855Y018070D02*
X032265Y018070D01*
X033052Y017910D02*
X033642Y017910D01*
X033052Y017910D02*
X033052Y018096D01*
X033642Y018096D01*
X033642Y017910D01*
X033642Y017942D02*
X033052Y017942D01*
X033052Y017974D02*
X033642Y017974D01*
X033642Y018006D02*
X033052Y018006D01*
X033052Y018038D02*
X033642Y018038D01*
X033642Y018070D02*
X033052Y018070D01*
X033052Y017654D02*
X033642Y017654D01*
X033052Y017654D02*
X033052Y017840D01*
X033642Y017840D01*
X033642Y017654D01*
X033642Y017686D02*
X033052Y017686D01*
X033052Y017718D02*
X033642Y017718D01*
X033642Y017750D02*
X033052Y017750D01*
X033052Y017782D02*
X033642Y017782D01*
X033642Y017814D02*
X033052Y017814D01*
X033052Y017398D02*
X033642Y017398D01*
X033052Y017398D02*
X033052Y017584D01*
X033642Y017584D01*
X033642Y017398D01*
X033642Y017430D02*
X033052Y017430D01*
X033052Y017462D02*
X033642Y017462D01*
X033642Y017494D02*
X033052Y017494D01*
X033052Y017526D02*
X033642Y017526D01*
X033642Y017558D02*
X033052Y017558D01*
X033105Y014637D02*
X032919Y014637D01*
X032919Y015227D01*
X033105Y015227D01*
X033105Y014637D01*
X033105Y014669D02*
X032919Y014669D01*
X032919Y014701D02*
X033105Y014701D01*
X033105Y014733D02*
X032919Y014733D01*
X032919Y014765D02*
X033105Y014765D01*
X033105Y014797D02*
X032919Y014797D01*
X032919Y014829D02*
X033105Y014829D01*
X033105Y014861D02*
X032919Y014861D01*
X032919Y014893D02*
X033105Y014893D01*
X033105Y014925D02*
X032919Y014925D01*
X032919Y014957D02*
X033105Y014957D01*
X033105Y014989D02*
X032919Y014989D01*
X032919Y015021D02*
X033105Y015021D01*
X033105Y015053D02*
X032919Y015053D01*
X032919Y015085D02*
X033105Y015085D01*
X033105Y015117D02*
X032919Y015117D01*
X032919Y015149D02*
X033105Y015149D01*
X033105Y015181D02*
X032919Y015181D01*
X032919Y015213D02*
X033105Y015213D01*
X033175Y014637D02*
X033361Y014637D01*
X033175Y014637D02*
X033175Y015227D01*
X033361Y015227D01*
X033361Y014637D01*
X033361Y014669D02*
X033175Y014669D01*
X033175Y014701D02*
X033361Y014701D01*
X033361Y014733D02*
X033175Y014733D01*
X033175Y014765D02*
X033361Y014765D01*
X033361Y014797D02*
X033175Y014797D01*
X033175Y014829D02*
X033361Y014829D01*
X033361Y014861D02*
X033175Y014861D01*
X033175Y014893D02*
X033361Y014893D01*
X033361Y014925D02*
X033175Y014925D01*
X033175Y014957D02*
X033361Y014957D01*
X033361Y014989D02*
X033175Y014989D01*
X033175Y015021D02*
X033361Y015021D01*
X033361Y015053D02*
X033175Y015053D01*
X033175Y015085D02*
X033361Y015085D01*
X033361Y015117D02*
X033175Y015117D01*
X033175Y015149D02*
X033361Y015149D01*
X033361Y015181D02*
X033175Y015181D01*
X033175Y015213D02*
X033361Y015213D01*
X032850Y014637D02*
X032664Y014637D01*
X032664Y015227D01*
X032850Y015227D01*
X032850Y014637D01*
X032850Y014669D02*
X032664Y014669D01*
X032664Y014701D02*
X032850Y014701D01*
X032850Y014733D02*
X032664Y014733D01*
X032664Y014765D02*
X032850Y014765D01*
X032850Y014797D02*
X032664Y014797D01*
X032664Y014829D02*
X032850Y014829D01*
X032850Y014861D02*
X032664Y014861D01*
X032664Y014893D02*
X032850Y014893D01*
X032850Y014925D02*
X032664Y014925D01*
X032664Y014957D02*
X032850Y014957D01*
X032850Y014989D02*
X032664Y014989D01*
X032664Y015021D02*
X032850Y015021D01*
X032850Y015053D02*
X032664Y015053D01*
X032664Y015085D02*
X032850Y015085D01*
X032850Y015117D02*
X032664Y015117D01*
X032664Y015149D02*
X032850Y015149D01*
X032850Y015181D02*
X032664Y015181D01*
X032664Y015213D02*
X032850Y015213D01*
X032850Y013850D02*
X032664Y013850D01*
X032664Y014440D01*
X032850Y014440D01*
X032850Y013850D01*
X032850Y013882D02*
X032664Y013882D01*
X032664Y013914D02*
X032850Y013914D01*
X032850Y013946D02*
X032664Y013946D01*
X032664Y013978D02*
X032850Y013978D01*
X032850Y014010D02*
X032664Y014010D01*
X032664Y014042D02*
X032850Y014042D01*
X032850Y014074D02*
X032664Y014074D01*
X032664Y014106D02*
X032850Y014106D01*
X032850Y014138D02*
X032664Y014138D01*
X032664Y014170D02*
X032850Y014170D01*
X032850Y014202D02*
X032664Y014202D01*
X032664Y014234D02*
X032850Y014234D01*
X032850Y014266D02*
X032664Y014266D01*
X032664Y014298D02*
X032850Y014298D01*
X032850Y014330D02*
X032664Y014330D01*
X032664Y014362D02*
X032850Y014362D01*
X032850Y014394D02*
X032664Y014394D01*
X032664Y014426D02*
X032850Y014426D01*
X032919Y013850D02*
X033105Y013850D01*
X032919Y013850D02*
X032919Y014440D01*
X033105Y014440D01*
X033105Y013850D01*
X033105Y013882D02*
X032919Y013882D01*
X032919Y013914D02*
X033105Y013914D01*
X033105Y013946D02*
X032919Y013946D01*
X032919Y013978D02*
X033105Y013978D01*
X033105Y014010D02*
X032919Y014010D01*
X032919Y014042D02*
X033105Y014042D01*
X033105Y014074D02*
X032919Y014074D01*
X032919Y014106D02*
X033105Y014106D01*
X033105Y014138D02*
X032919Y014138D01*
X032919Y014170D02*
X033105Y014170D01*
X033105Y014202D02*
X032919Y014202D01*
X032919Y014234D02*
X033105Y014234D01*
X033105Y014266D02*
X032919Y014266D01*
X032919Y014298D02*
X033105Y014298D01*
X033105Y014330D02*
X032919Y014330D01*
X032919Y014362D02*
X033105Y014362D01*
X033105Y014394D02*
X032919Y014394D01*
X032919Y014426D02*
X033105Y014426D01*
X033175Y013850D02*
X033361Y013850D01*
X033175Y013850D02*
X033175Y014440D01*
X033361Y014440D01*
X033361Y013850D01*
X033361Y013882D02*
X033175Y013882D01*
X033175Y013914D02*
X033361Y013914D01*
X033361Y013946D02*
X033175Y013946D01*
X033175Y013978D02*
X033361Y013978D01*
X033361Y014010D02*
X033175Y014010D01*
X033175Y014042D02*
X033361Y014042D01*
X033361Y014074D02*
X033175Y014074D01*
X033175Y014106D02*
X033361Y014106D01*
X033361Y014138D02*
X033175Y014138D01*
X033175Y014170D02*
X033361Y014170D01*
X033361Y014202D02*
X033175Y014202D01*
X033175Y014234D02*
X033361Y014234D01*
X033361Y014266D02*
X033175Y014266D01*
X033175Y014298D02*
X033361Y014298D01*
X033361Y014330D02*
X033175Y014330D01*
X033175Y014362D02*
X033361Y014362D01*
X033361Y014394D02*
X033175Y014394D01*
X033175Y014426D02*
X033361Y014426D01*
D24*
X034201Y012823D02*
X034461Y012823D01*
X034201Y012823D02*
X034201Y013151D01*
X034461Y013151D01*
X034461Y012823D01*
X034461Y012851D02*
X034201Y012851D01*
X034201Y012879D02*
X034461Y012879D01*
X034461Y012907D02*
X034201Y012907D01*
X034201Y012935D02*
X034461Y012935D01*
X034461Y012963D02*
X034201Y012963D01*
X034201Y012991D02*
X034461Y012991D01*
X034461Y013019D02*
X034201Y013019D01*
X034201Y013047D02*
X034461Y013047D01*
X034461Y013075D02*
X034201Y013075D01*
X034201Y013103D02*
X034461Y013103D01*
X034461Y013131D02*
X034201Y013131D01*
X034989Y012823D02*
X035249Y012823D01*
X034989Y012823D02*
X034989Y013151D01*
X035249Y013151D01*
X035249Y012823D01*
X035249Y012851D02*
X034989Y012851D01*
X034989Y012879D02*
X035249Y012879D01*
X035249Y012907D02*
X034989Y012907D01*
X034989Y012935D02*
X035249Y012935D01*
X035249Y012963D02*
X034989Y012963D01*
X034989Y012991D02*
X035249Y012991D01*
X035249Y013019D02*
X034989Y013019D01*
X034989Y013047D02*
X035249Y013047D01*
X035249Y013075D02*
X034989Y013075D01*
X034989Y013103D02*
X035249Y013103D01*
X035249Y013131D02*
X034989Y013131D01*
X034855Y012036D02*
X034595Y012036D01*
X034595Y012364D01*
X034855Y012364D01*
X034855Y012036D01*
X034855Y012064D02*
X034595Y012064D01*
X034595Y012092D02*
X034855Y012092D01*
X034855Y012120D02*
X034595Y012120D01*
X034595Y012148D02*
X034855Y012148D01*
X034855Y012176D02*
X034595Y012176D01*
X034595Y012204D02*
X034855Y012204D01*
X034855Y012232D02*
X034595Y012232D01*
X034595Y012260D02*
X034855Y012260D01*
X034855Y012288D02*
X034595Y012288D01*
X034595Y012316D02*
X034855Y012316D01*
X034855Y012344D02*
X034595Y012344D01*
X034595Y011355D02*
X034855Y011355D01*
X034595Y011355D02*
X034595Y011683D01*
X034855Y011683D01*
X034855Y011355D01*
X034855Y011383D02*
X034595Y011383D01*
X034595Y011411D02*
X034855Y011411D01*
X034855Y011439D02*
X034595Y011439D01*
X034595Y011467D02*
X034855Y011467D01*
X034855Y011495D02*
X034595Y011495D01*
X034595Y011523D02*
X034855Y011523D01*
X034855Y011551D02*
X034595Y011551D01*
X034595Y011579D02*
X034855Y011579D01*
X034855Y011607D02*
X034595Y011607D01*
X034595Y011635D02*
X034855Y011635D01*
X034855Y011663D02*
X034595Y011663D01*
X034461Y010567D02*
X034201Y010567D01*
X034201Y010895D01*
X034461Y010895D01*
X034461Y010567D01*
X034461Y010595D02*
X034201Y010595D01*
X034201Y010623D02*
X034461Y010623D01*
X034461Y010651D02*
X034201Y010651D01*
X034201Y010679D02*
X034461Y010679D01*
X034461Y010707D02*
X034201Y010707D01*
X034201Y010735D02*
X034461Y010735D01*
X034461Y010763D02*
X034201Y010763D01*
X034201Y010791D02*
X034461Y010791D01*
X034461Y010819D02*
X034201Y010819D01*
X034201Y010847D02*
X034461Y010847D01*
X034461Y010875D02*
X034201Y010875D01*
X034989Y010567D02*
X035249Y010567D01*
X034989Y010567D02*
X034989Y010895D01*
X035249Y010895D01*
X035249Y010567D01*
X035249Y010595D02*
X034989Y010595D01*
X034989Y010623D02*
X035249Y010623D01*
X035249Y010651D02*
X034989Y010651D01*
X034989Y010679D02*
X035249Y010679D01*
X035249Y010707D02*
X034989Y010707D01*
X034989Y010735D02*
X035249Y010735D01*
X035249Y010763D02*
X034989Y010763D01*
X034989Y010791D02*
X035249Y010791D01*
X035249Y010819D02*
X034989Y010819D01*
X034989Y010847D02*
X035249Y010847D01*
X035249Y010875D02*
X034989Y010875D01*
X035186Y019099D02*
X035446Y019099D01*
X035186Y019099D02*
X035186Y019427D01*
X035446Y019427D01*
X035446Y019099D01*
X035446Y019127D02*
X035186Y019127D01*
X035186Y019155D02*
X035446Y019155D01*
X035446Y019183D02*
X035186Y019183D01*
X035186Y019211D02*
X035446Y019211D01*
X035446Y019239D02*
X035186Y019239D01*
X035186Y019267D02*
X035446Y019267D01*
X035446Y019295D02*
X035186Y019295D01*
X035186Y019323D02*
X035446Y019323D01*
X035446Y019351D02*
X035186Y019351D01*
X035186Y019379D02*
X035446Y019379D01*
X035446Y019407D02*
X035186Y019407D01*
X034658Y019099D02*
X034398Y019099D01*
X034398Y019427D01*
X034658Y019427D01*
X034658Y019099D01*
X034658Y019127D02*
X034398Y019127D01*
X034398Y019155D02*
X034658Y019155D01*
X034658Y019183D02*
X034398Y019183D01*
X034398Y019211D02*
X034658Y019211D01*
X034658Y019239D02*
X034398Y019239D01*
X034398Y019267D02*
X034658Y019267D01*
X034658Y019295D02*
X034398Y019295D01*
X034398Y019323D02*
X034658Y019323D01*
X034658Y019351D02*
X034398Y019351D01*
X034398Y019379D02*
X034658Y019379D01*
X034658Y019407D02*
X034398Y019407D01*
X034792Y019886D02*
X035052Y019886D01*
X034792Y019886D02*
X034792Y020214D01*
X035052Y020214D01*
X035052Y019886D01*
X035052Y019914D02*
X034792Y019914D01*
X034792Y019942D02*
X035052Y019942D01*
X035052Y019970D02*
X034792Y019970D01*
X034792Y019998D02*
X035052Y019998D01*
X035052Y020026D02*
X034792Y020026D01*
X034792Y020054D02*
X035052Y020054D01*
X035052Y020082D02*
X034792Y020082D01*
X034792Y020110D02*
X035052Y020110D01*
X035052Y020138D02*
X034792Y020138D01*
X034792Y020166D02*
X035052Y020166D01*
X035052Y020194D02*
X034792Y020194D01*
X034792Y020477D02*
X035052Y020477D01*
X034792Y020477D02*
X034792Y020805D01*
X035052Y020805D01*
X035052Y020477D01*
X035052Y020505D02*
X034792Y020505D01*
X034792Y020533D02*
X035052Y020533D01*
X035052Y020561D02*
X034792Y020561D01*
X034792Y020589D02*
X035052Y020589D01*
X035052Y020617D02*
X034792Y020617D01*
X034792Y020645D02*
X035052Y020645D01*
X035052Y020673D02*
X034792Y020673D01*
X034792Y020701D02*
X035052Y020701D01*
X035052Y020729D02*
X034792Y020729D01*
X034792Y020757D02*
X035052Y020757D01*
X035052Y020785D02*
X034792Y020785D01*
X034658Y021264D02*
X034398Y021264D01*
X034398Y021592D01*
X034658Y021592D01*
X034658Y021264D01*
X034658Y021292D02*
X034398Y021292D01*
X034398Y021320D02*
X034658Y021320D01*
X034658Y021348D02*
X034398Y021348D01*
X034398Y021376D02*
X034658Y021376D01*
X034658Y021404D02*
X034398Y021404D01*
X034398Y021432D02*
X034658Y021432D01*
X034658Y021460D02*
X034398Y021460D01*
X034398Y021488D02*
X034658Y021488D01*
X034658Y021516D02*
X034398Y021516D01*
X034398Y021544D02*
X034658Y021544D01*
X034658Y021572D02*
X034398Y021572D01*
X035186Y021264D02*
X035446Y021264D01*
X035186Y021264D02*
X035186Y021592D01*
X035446Y021592D01*
X035446Y021264D01*
X035446Y021292D02*
X035186Y021292D01*
X035186Y021320D02*
X035446Y021320D01*
X035446Y021348D02*
X035186Y021348D01*
X035186Y021376D02*
X035446Y021376D01*
X035446Y021404D02*
X035186Y021404D01*
X035186Y021432D02*
X035446Y021432D01*
X035446Y021460D02*
X035186Y021460D01*
X035186Y021488D02*
X035446Y021488D01*
X035446Y021516D02*
X035186Y021516D01*
X035186Y021544D02*
X035446Y021544D01*
X035446Y021572D02*
X035186Y021572D01*
D25*
X034967Y016753D02*
X034089Y016753D01*
X034089Y016969D01*
X034967Y016969D01*
X034967Y016753D01*
X034967Y016781D02*
X034089Y016781D01*
X034089Y016809D02*
X034967Y016809D01*
X034967Y016837D02*
X034089Y016837D01*
X034089Y016865D02*
X034967Y016865D01*
X034967Y016893D02*
X034089Y016893D01*
X034089Y016921D02*
X034967Y016921D01*
X034967Y016949D02*
X034089Y016949D01*
X034089Y016497D02*
X034967Y016497D01*
X034089Y016497D02*
X034089Y016713D01*
X034967Y016713D01*
X034967Y016497D01*
X034967Y016525D02*
X034089Y016525D01*
X034089Y016553D02*
X034967Y016553D01*
X034967Y016581D02*
X034089Y016581D01*
X034089Y016609D02*
X034967Y016609D01*
X034967Y016637D02*
X034089Y016637D01*
X034089Y016665D02*
X034967Y016665D01*
X034967Y016693D02*
X034089Y016693D01*
X034089Y016241D02*
X034967Y016241D01*
X034089Y016241D02*
X034089Y016457D01*
X034967Y016457D01*
X034967Y016241D01*
X034967Y016269D02*
X034089Y016269D01*
X034089Y016297D02*
X034967Y016297D01*
X034967Y016325D02*
X034089Y016325D01*
X034089Y016353D02*
X034967Y016353D01*
X034967Y016381D02*
X034089Y016381D01*
X034089Y016409D02*
X034967Y016409D01*
X034967Y016437D02*
X034089Y016437D01*
X034089Y015985D02*
X034967Y015985D01*
X034089Y015985D02*
X034089Y016201D01*
X034967Y016201D01*
X034967Y015985D01*
X034967Y016013D02*
X034089Y016013D01*
X034089Y016041D02*
X034967Y016041D01*
X034967Y016069D02*
X034089Y016069D01*
X034089Y016097D02*
X034967Y016097D01*
X034967Y016125D02*
X034089Y016125D01*
X034089Y016153D02*
X034967Y016153D01*
X034967Y016181D02*
X034089Y016181D01*
X034089Y015729D02*
X034967Y015729D01*
X034089Y015729D02*
X034089Y015945D01*
X034967Y015945D01*
X034967Y015729D01*
X034967Y015757D02*
X034089Y015757D01*
X034089Y015785D02*
X034967Y015785D01*
X034967Y015813D02*
X034089Y015813D01*
X034089Y015841D02*
X034967Y015841D01*
X034967Y015869D02*
X034089Y015869D01*
X034089Y015897D02*
X034967Y015897D01*
X034967Y015925D02*
X034089Y015925D01*
X034089Y015474D02*
X034967Y015474D01*
X034089Y015474D02*
X034089Y015690D01*
X034967Y015690D01*
X034967Y015474D01*
X034967Y015502D02*
X034089Y015502D01*
X034089Y015530D02*
X034967Y015530D01*
X034967Y015558D02*
X034089Y015558D01*
X034089Y015586D02*
X034967Y015586D01*
X034967Y015614D02*
X034089Y015614D01*
X034089Y015642D02*
X034967Y015642D01*
X034967Y015670D02*
X034089Y015670D01*
X034089Y015218D02*
X034967Y015218D01*
X034089Y015218D02*
X034089Y015434D01*
X034967Y015434D01*
X034967Y015218D01*
X034967Y015246D02*
X034089Y015246D01*
X034089Y015274D02*
X034967Y015274D01*
X034967Y015302D02*
X034089Y015302D01*
X034089Y015330D02*
X034967Y015330D01*
X034967Y015358D02*
X034089Y015358D01*
X034089Y015386D02*
X034967Y015386D01*
X034967Y015414D02*
X034089Y015414D01*
X036648Y015218D02*
X037526Y015218D01*
X036648Y015218D02*
X036648Y015434D01*
X037526Y015434D01*
X037526Y015218D01*
X037526Y015246D02*
X036648Y015246D01*
X036648Y015274D02*
X037526Y015274D01*
X037526Y015302D02*
X036648Y015302D01*
X036648Y015330D02*
X037526Y015330D01*
X037526Y015358D02*
X036648Y015358D01*
X036648Y015386D02*
X037526Y015386D01*
X037526Y015414D02*
X036648Y015414D01*
X036648Y015474D02*
X037526Y015474D01*
X036648Y015474D02*
X036648Y015690D01*
X037526Y015690D01*
X037526Y015474D01*
X037526Y015502D02*
X036648Y015502D01*
X036648Y015530D02*
X037526Y015530D01*
X037526Y015558D02*
X036648Y015558D01*
X036648Y015586D02*
X037526Y015586D01*
X037526Y015614D02*
X036648Y015614D01*
X036648Y015642D02*
X037526Y015642D01*
X037526Y015670D02*
X036648Y015670D01*
X036648Y015729D02*
X037526Y015729D01*
X036648Y015729D02*
X036648Y015945D01*
X037526Y015945D01*
X037526Y015729D01*
X037526Y015757D02*
X036648Y015757D01*
X036648Y015785D02*
X037526Y015785D01*
X037526Y015813D02*
X036648Y015813D01*
X036648Y015841D02*
X037526Y015841D01*
X037526Y015869D02*
X036648Y015869D01*
X036648Y015897D02*
X037526Y015897D01*
X037526Y015925D02*
X036648Y015925D01*
X036648Y015985D02*
X037526Y015985D01*
X036648Y015985D02*
X036648Y016201D01*
X037526Y016201D01*
X037526Y015985D01*
X037526Y016013D02*
X036648Y016013D01*
X036648Y016041D02*
X037526Y016041D01*
X037526Y016069D02*
X036648Y016069D01*
X036648Y016097D02*
X037526Y016097D01*
X037526Y016125D02*
X036648Y016125D01*
X036648Y016153D02*
X037526Y016153D01*
X037526Y016181D02*
X036648Y016181D01*
X036648Y016241D02*
X037526Y016241D01*
X036648Y016241D02*
X036648Y016457D01*
X037526Y016457D01*
X037526Y016241D01*
X037526Y016269D02*
X036648Y016269D01*
X036648Y016297D02*
X037526Y016297D01*
X037526Y016325D02*
X036648Y016325D01*
X036648Y016353D02*
X037526Y016353D01*
X037526Y016381D02*
X036648Y016381D01*
X036648Y016409D02*
X037526Y016409D01*
X037526Y016437D02*
X036648Y016437D01*
X036648Y016497D02*
X037526Y016497D01*
X036648Y016497D02*
X036648Y016713D01*
X037526Y016713D01*
X037526Y016497D01*
X037526Y016525D02*
X036648Y016525D01*
X036648Y016553D02*
X037526Y016553D01*
X037526Y016581D02*
X036648Y016581D01*
X036648Y016609D02*
X037526Y016609D01*
X037526Y016637D02*
X036648Y016637D01*
X036648Y016665D02*
X037526Y016665D01*
X037526Y016693D02*
X036648Y016693D01*
X036648Y016753D02*
X037526Y016753D01*
X036648Y016753D02*
X036648Y016969D01*
X037526Y016969D01*
X037526Y016753D01*
X037526Y016781D02*
X036648Y016781D01*
X036648Y016809D02*
X037526Y016809D01*
X037526Y016837D02*
X036648Y016837D01*
X036648Y016865D02*
X037526Y016865D01*
X037526Y016893D02*
X036648Y016893D01*
X036648Y016921D02*
X037526Y016921D01*
X037526Y016949D02*
X036648Y016949D01*
D26*
X038223Y018213D02*
X040283Y018213D01*
X038223Y018213D02*
X038223Y019223D01*
X040283Y019223D01*
X040283Y018213D01*
X040283Y018233D02*
X038223Y018233D01*
X038223Y018253D02*
X040283Y018253D01*
X040283Y018273D02*
X038223Y018273D01*
X038223Y018293D02*
X040283Y018293D01*
X040283Y018313D02*
X038223Y018313D01*
X038223Y018333D02*
X040283Y018333D01*
X040283Y018353D02*
X038223Y018353D01*
X038223Y018373D02*
X040283Y018373D01*
X040283Y018393D02*
X038223Y018393D01*
X038223Y018413D02*
X040283Y018413D01*
X040283Y018433D02*
X038223Y018433D01*
X038223Y018453D02*
X040283Y018453D01*
X040283Y018473D02*
X038223Y018473D01*
X038223Y018493D02*
X040283Y018493D01*
X040283Y018513D02*
X038223Y018513D01*
X038223Y018533D02*
X040283Y018533D01*
X040283Y018553D02*
X038223Y018553D01*
X038223Y018573D02*
X040283Y018573D01*
X040283Y018593D02*
X038223Y018593D01*
X038223Y018613D02*
X040283Y018613D01*
X040283Y018633D02*
X038223Y018633D01*
X038223Y018653D02*
X040283Y018653D01*
X040283Y018673D02*
X038223Y018673D01*
X038223Y018693D02*
X040283Y018693D01*
X040283Y018713D02*
X038223Y018713D01*
X038223Y018733D02*
X040283Y018733D01*
X040283Y018753D02*
X038223Y018753D01*
X038223Y018773D02*
X040283Y018773D01*
X040283Y018793D02*
X038223Y018793D01*
X038223Y018813D02*
X040283Y018813D01*
X040283Y018833D02*
X038223Y018833D01*
X038223Y018853D02*
X040283Y018853D01*
X040283Y018873D02*
X038223Y018873D01*
X038223Y018893D02*
X040283Y018893D01*
X040283Y018913D02*
X038223Y018913D01*
X038223Y018933D02*
X040283Y018933D01*
X040283Y018953D02*
X038223Y018953D01*
X038223Y018973D02*
X040283Y018973D01*
X040283Y018993D02*
X038223Y018993D01*
X038223Y019013D02*
X040283Y019013D01*
X040283Y019033D02*
X038223Y019033D01*
X038223Y019053D02*
X040283Y019053D01*
X040283Y019073D02*
X038223Y019073D01*
X038223Y019093D02*
X040283Y019093D01*
X040283Y019113D02*
X038223Y019113D01*
X038223Y019133D02*
X040283Y019133D01*
X040283Y019153D02*
X038223Y019153D01*
X038223Y019173D02*
X040283Y019173D01*
X040283Y019193D02*
X038223Y019193D01*
X038223Y019213D02*
X040283Y019213D01*
X040283Y021664D02*
X038223Y021664D01*
X038223Y022674D01*
X040283Y022674D01*
X040283Y021664D01*
X040283Y021684D02*
X038223Y021684D01*
X038223Y021704D02*
X040283Y021704D01*
X040283Y021724D02*
X038223Y021724D01*
X038223Y021744D02*
X040283Y021744D01*
X040283Y021764D02*
X038223Y021764D01*
X038223Y021784D02*
X040283Y021784D01*
X040283Y021804D02*
X038223Y021804D01*
X038223Y021824D02*
X040283Y021824D01*
X040283Y021844D02*
X038223Y021844D01*
X038223Y021864D02*
X040283Y021864D01*
X040283Y021884D02*
X038223Y021884D01*
X038223Y021904D02*
X040283Y021904D01*
X040283Y021924D02*
X038223Y021924D01*
X038223Y021944D02*
X040283Y021944D01*
X040283Y021964D02*
X038223Y021964D01*
X038223Y021984D02*
X040283Y021984D01*
X040283Y022004D02*
X038223Y022004D01*
X038223Y022024D02*
X040283Y022024D01*
X040283Y022044D02*
X038223Y022044D01*
X038223Y022064D02*
X040283Y022064D01*
X040283Y022084D02*
X038223Y022084D01*
X038223Y022104D02*
X040283Y022104D01*
X040283Y022124D02*
X038223Y022124D01*
X038223Y022144D02*
X040283Y022144D01*
X040283Y022164D02*
X038223Y022164D01*
X038223Y022184D02*
X040283Y022184D01*
X040283Y022204D02*
X038223Y022204D01*
X038223Y022224D02*
X040283Y022224D01*
X040283Y022244D02*
X038223Y022244D01*
X038223Y022264D02*
X040283Y022264D01*
X040283Y022284D02*
X038223Y022284D01*
X038223Y022304D02*
X040283Y022304D01*
X040283Y022324D02*
X038223Y022324D01*
X038223Y022344D02*
X040283Y022344D01*
X040283Y022364D02*
X038223Y022364D01*
X038223Y022384D02*
X040283Y022384D01*
X040283Y022404D02*
X038223Y022404D01*
X038223Y022424D02*
X040283Y022424D01*
X040283Y022444D02*
X038223Y022444D01*
X038223Y022464D02*
X040283Y022464D01*
X040283Y022484D02*
X038223Y022484D01*
X038223Y022504D02*
X040283Y022504D01*
X040283Y022524D02*
X038223Y022524D01*
X038223Y022544D02*
X040283Y022544D01*
X040283Y022564D02*
X038223Y022564D01*
X038223Y022584D02*
X040283Y022584D01*
X040283Y022604D02*
X038223Y022604D01*
X038223Y022624D02*
X040283Y022624D01*
X040283Y022644D02*
X038223Y022644D01*
X038223Y022664D02*
X040283Y022664D01*
X040283Y013987D02*
X038223Y013987D01*
X038223Y014997D01*
X040283Y014997D01*
X040283Y013987D01*
X040283Y014007D02*
X038223Y014007D01*
X038223Y014027D02*
X040283Y014027D01*
X040283Y014047D02*
X038223Y014047D01*
X038223Y014067D02*
X040283Y014067D01*
X040283Y014087D02*
X038223Y014087D01*
X038223Y014107D02*
X040283Y014107D01*
X040283Y014127D02*
X038223Y014127D01*
X038223Y014147D02*
X040283Y014147D01*
X040283Y014167D02*
X038223Y014167D01*
X038223Y014187D02*
X040283Y014187D01*
X040283Y014207D02*
X038223Y014207D01*
X038223Y014227D02*
X040283Y014227D01*
X040283Y014247D02*
X038223Y014247D01*
X038223Y014267D02*
X040283Y014267D01*
X040283Y014287D02*
X038223Y014287D01*
X038223Y014307D02*
X040283Y014307D01*
X040283Y014327D02*
X038223Y014327D01*
X038223Y014347D02*
X040283Y014347D01*
X040283Y014367D02*
X038223Y014367D01*
X038223Y014387D02*
X040283Y014387D01*
X040283Y014407D02*
X038223Y014407D01*
X038223Y014427D02*
X040283Y014427D01*
X040283Y014447D02*
X038223Y014447D01*
X038223Y014467D02*
X040283Y014467D01*
X040283Y014487D02*
X038223Y014487D01*
X038223Y014507D02*
X040283Y014507D01*
X040283Y014527D02*
X038223Y014527D01*
X038223Y014547D02*
X040283Y014547D01*
X040283Y014567D02*
X038223Y014567D01*
X038223Y014587D02*
X040283Y014587D01*
X040283Y014607D02*
X038223Y014607D01*
X038223Y014627D02*
X040283Y014627D01*
X040283Y014647D02*
X038223Y014647D01*
X038223Y014667D02*
X040283Y014667D01*
X040283Y014687D02*
X038223Y014687D01*
X038223Y014707D02*
X040283Y014707D01*
X040283Y014727D02*
X038223Y014727D01*
X038223Y014747D02*
X040283Y014747D01*
X040283Y014767D02*
X038223Y014767D01*
X038223Y014787D02*
X040283Y014787D01*
X040283Y014807D02*
X038223Y014807D01*
X038223Y014827D02*
X040283Y014827D01*
X040283Y014847D02*
X038223Y014847D01*
X038223Y014867D02*
X040283Y014867D01*
X040283Y014887D02*
X038223Y014887D01*
X038223Y014907D02*
X040283Y014907D01*
X040283Y014927D02*
X038223Y014927D01*
X038223Y014947D02*
X040283Y014947D01*
X040283Y014967D02*
X038223Y014967D01*
X038223Y014987D02*
X040283Y014987D01*
X040283Y010536D02*
X038223Y010536D01*
X038223Y011546D01*
X040283Y011546D01*
X040283Y010536D01*
X040283Y010556D02*
X038223Y010556D01*
X038223Y010576D02*
X040283Y010576D01*
X040283Y010596D02*
X038223Y010596D01*
X038223Y010616D02*
X040283Y010616D01*
X040283Y010636D02*
X038223Y010636D01*
X038223Y010656D02*
X040283Y010656D01*
X040283Y010676D02*
X038223Y010676D01*
X038223Y010696D02*
X040283Y010696D01*
X040283Y010716D02*
X038223Y010716D01*
X038223Y010736D02*
X040283Y010736D01*
X040283Y010756D02*
X038223Y010756D01*
X038223Y010776D02*
X040283Y010776D01*
X040283Y010796D02*
X038223Y010796D01*
X038223Y010816D02*
X040283Y010816D01*
X040283Y010836D02*
X038223Y010836D01*
X038223Y010856D02*
X040283Y010856D01*
X040283Y010876D02*
X038223Y010876D01*
X038223Y010896D02*
X040283Y010896D01*
X040283Y010916D02*
X038223Y010916D01*
X038223Y010936D02*
X040283Y010936D01*
X040283Y010956D02*
X038223Y010956D01*
X038223Y010976D02*
X040283Y010976D01*
X040283Y010996D02*
X038223Y010996D01*
X038223Y011016D02*
X040283Y011016D01*
X040283Y011036D02*
X038223Y011036D01*
X038223Y011056D02*
X040283Y011056D01*
X040283Y011076D02*
X038223Y011076D01*
X038223Y011096D02*
X040283Y011096D01*
X040283Y011116D02*
X038223Y011116D01*
X038223Y011136D02*
X040283Y011136D01*
X040283Y011156D02*
X038223Y011156D01*
X038223Y011176D02*
X040283Y011176D01*
X040283Y011196D02*
X038223Y011196D01*
X038223Y011216D02*
X040283Y011216D01*
X040283Y011236D02*
X038223Y011236D01*
X038223Y011256D02*
X040283Y011256D01*
X040283Y011276D02*
X038223Y011276D01*
X038223Y011296D02*
X040283Y011296D01*
X040283Y011316D02*
X038223Y011316D01*
X038223Y011336D02*
X040283Y011336D01*
X040283Y011356D02*
X038223Y011356D01*
X038223Y011376D02*
X040283Y011376D01*
X040283Y011396D02*
X038223Y011396D01*
X038223Y011416D02*
X040283Y011416D01*
X040283Y011436D02*
X038223Y011436D01*
X038223Y011456D02*
X040283Y011456D01*
X040283Y011476D02*
X038223Y011476D01*
X038223Y011496D02*
X040283Y011496D01*
X040283Y011516D02*
X038223Y011516D01*
X038223Y011536D02*
X040283Y011536D01*
D27*
X003623Y004893D03*
X011694Y008633D03*
X023898Y008633D03*
X037481Y004893D03*
X023898Y024971D03*
X011694Y024971D03*
X003623Y028121D03*
X037481Y028121D03*
D28*
X019469Y029814D03*
X020257Y003200D03*
D29*
X022225Y007963D03*
X017737Y007963D03*
X017501Y025050D03*
X021989Y025050D03*
D30*
X019469Y025680D03*
X020257Y007334D03*
D31*
X020946Y007452D03*
X021339Y006861D03*
X022520Y006467D03*
X023111Y006467D03*
X022717Y007058D03*
X021930Y005483D03*
X021339Y005089D03*
X020552Y005877D03*
X020158Y005286D03*
X019764Y005089D03*
X020355Y004302D03*
X020749Y003515D03*
X019174Y003515D03*
X018190Y003121D03*
X016812Y003711D03*
X016024Y003121D03*
X016812Y004893D03*
X017009Y005680D03*
X017009Y006074D03*
X016024Y005877D03*
X017205Y007255D03*
X017009Y007649D03*
X018190Y007255D03*
X018780Y007058D03*
X019371Y007452D03*
X018977Y007649D03*
X019961Y008239D03*
X021536Y008830D03*
X020158Y010404D03*
X020749Y010995D03*
X021733Y010601D03*
X022717Y010601D03*
X023898Y010208D03*
X024489Y010601D03*
X025079Y010995D03*
X025867Y009420D03*
X025473Y008633D03*
X026260Y008436D03*
X027442Y007845D03*
X028426Y007845D03*
X029016Y007845D03*
X030394Y007452D03*
X031575Y008436D03*
X033150Y008042D03*
X033150Y007255D03*
X034528Y008042D03*
X035119Y007649D03*
X035906Y007649D03*
X035906Y008239D03*
X035316Y006467D03*
X033938Y005286D03*
X035709Y004696D03*
X033544Y003318D03*
X032363Y003318D03*
X031379Y003318D03*
X030788Y003711D03*
X029607Y003711D03*
X029607Y004302D03*
X028820Y004696D03*
X029016Y005089D03*
X028820Y005483D03*
X029016Y005877D03*
X027442Y005877D03*
X026064Y005089D03*
X025670Y004499D03*
X026260Y003318D03*
X028229Y003318D03*
X025079Y005877D03*
X024292Y005286D03*
X025276Y007058D03*
X026064Y007058D03*
X027048Y009814D03*
X028820Y010404D03*
X028820Y010995D03*
X029804Y010601D03*
X030197Y010011D03*
X031969Y010601D03*
X033347Y009420D03*
X033741Y009814D03*
X034725Y010404D03*
X035119Y010011D03*
X036300Y010404D03*
X034725Y011586D03*
X034725Y012176D03*
X034725Y013160D03*
X034922Y013554D03*
X034134Y014145D03*
X033347Y015129D03*
X033347Y015523D03*
X032757Y015523D03*
X032560Y014341D03*
X031969Y014145D03*
X032363Y013751D03*
X032166Y013160D03*
X030985Y013948D03*
X030788Y014341D03*
X030788Y015523D03*
X030394Y015523D03*
X029607Y015523D03*
X028820Y015326D03*
X028820Y016113D03*
X029016Y016507D03*
X028426Y016704D03*
X029607Y016704D03*
X031182Y017097D03*
X031182Y017885D03*
X030591Y019066D03*
X029804Y020641D03*
X029016Y020837D03*
X029410Y022215D03*
X028820Y022609D03*
X030197Y022806D03*
X030591Y023987D03*
X029607Y023987D03*
X031969Y023397D03*
X031969Y023003D03*
X031969Y022215D03*
X030985Y021822D03*
X033741Y022215D03*
X034725Y021428D03*
X034922Y020641D03*
X034922Y020050D03*
X034134Y019263D03*
X034331Y018869D03*
X033150Y019263D03*
X034725Y017688D03*
X035119Y017097D03*
X035906Y017688D03*
X036103Y018475D03*
X035512Y018475D03*
X037481Y017688D03*
X038268Y017097D03*
X038465Y017688D03*
X039056Y017294D03*
X039253Y018672D03*
X036300Y016704D03*
X035906Y016310D03*
X035316Y016113D03*
X035906Y015326D03*
X036300Y015326D03*
X036497Y014145D03*
X039253Y014538D03*
X038465Y010995D03*
X031182Y015523D03*
X032560Y017294D03*
X033741Y017097D03*
X027835Y012963D03*
X027638Y012570D03*
X027245Y012570D03*
X026457Y012767D03*
X025670Y012767D03*
X024292Y012767D03*
X022127Y013357D03*
X021733Y013751D03*
X020355Y012373D03*
X019961Y012373D03*
X019568Y012373D03*
X019764Y012963D03*
X019568Y013357D03*
X019174Y013751D03*
X018583Y012570D03*
X018583Y012176D03*
X018977Y012176D03*
X018977Y011782D03*
X018780Y011389D03*
X018583Y010995D03*
X018190Y011192D03*
X017796Y009814D03*
X017402Y009814D03*
X018190Y008830D03*
X016418Y008830D03*
X015434Y009617D03*
X013268Y011979D03*
X014253Y012570D03*
X013071Y013357D03*
X013662Y013948D03*
X015631Y014341D03*
X015631Y017491D03*
X016024Y017491D03*
X015631Y018082D03*
X014843Y018278D03*
X014253Y018278D03*
X014253Y019066D03*
X013662Y019066D03*
X013071Y020050D03*
X012678Y020050D03*
X012284Y020050D03*
X011103Y020050D03*
X012284Y020837D03*
X012678Y021034D03*
X013071Y021231D03*
X012875Y022412D03*
X013662Y022412D03*
X013859Y023003D03*
X013859Y023593D03*
X013071Y023200D03*
X011694Y022609D03*
X010316Y023987D03*
X009331Y023003D03*
X008938Y023003D03*
X008938Y022215D03*
X009331Y022215D03*
X008150Y022215D03*
X008150Y023200D03*
X006379Y023397D03*
X006379Y024381D03*
X006969Y021625D03*
X007363Y021231D03*
X005788Y021231D03*
X008150Y019656D03*
X008150Y019263D03*
X008544Y019263D03*
X008938Y018869D03*
X009134Y019656D03*
X009528Y019656D03*
X009528Y021034D03*
X009134Y021034D03*
X007363Y019066D03*
X007363Y018475D03*
X006575Y017294D03*
X005788Y017688D03*
X005591Y017294D03*
X005591Y016900D03*
X005591Y016507D03*
X005197Y016310D03*
X005001Y015916D03*
X004804Y015523D03*
X005001Y014932D03*
X004804Y014538D03*
X004607Y013948D03*
X004607Y013554D03*
X005001Y013554D03*
X005788Y014341D03*
X006182Y013948D03*
X006575Y013357D03*
X006969Y012767D03*
X006575Y012373D03*
X006575Y011782D03*
X007166Y012176D03*
X007953Y012570D03*
X007363Y013357D03*
X008741Y011979D03*
X007953Y011192D03*
X007560Y011192D03*
X006969Y009814D03*
X008544Y008830D03*
X009922Y010208D03*
X010119Y010601D03*
X010906Y010601D03*
X011300Y010601D03*
X011300Y010995D03*
X011300Y011389D03*
X010906Y011782D03*
X011890Y011586D03*
X012284Y011389D03*
X011890Y011192D03*
X010906Y010208D03*
X010709Y009814D03*
X009528Y006861D03*
X009134Y006271D03*
X008741Y006074D03*
X009528Y006074D03*
X010316Y005877D03*
X011103Y005877D03*
X011103Y004893D03*
X011103Y004105D03*
X011103Y003515D03*
X011103Y003121D03*
X011694Y003121D03*
X011694Y003515D03*
X012875Y003318D03*
X013268Y003121D03*
X013662Y003318D03*
X014056Y003121D03*
X018190Y005286D03*
X012875Y006861D03*
X006182Y005286D03*
X004016Y007058D03*
X004804Y008239D03*
X004804Y009223D03*
X004804Y009814D03*
X004804Y010798D03*
X004607Y011782D03*
X004607Y012373D03*
X005394Y011979D03*
X005591Y012373D03*
X002835Y013160D03*
X001851Y011979D03*
X005591Y015326D03*
X007757Y015326D03*
X009331Y015129D03*
X010709Y013357D03*
X009331Y016900D03*
X010709Y017688D03*
X015434Y019656D03*
X015827Y019263D03*
X016221Y019263D03*
X017205Y019656D03*
X019174Y019263D03*
X019174Y018278D03*
X020552Y019263D03*
X020946Y018869D03*
X020749Y018278D03*
X020946Y017294D03*
X022717Y017688D03*
X022520Y018278D03*
X023505Y018475D03*
X024095Y017294D03*
X024489Y017294D03*
X025079Y017294D03*
X025079Y016310D03*
X024489Y016310D03*
X024095Y016310D03*
X022520Y016310D03*
X022520Y015326D03*
X025867Y016507D03*
X026457Y016900D03*
X026851Y016507D03*
X027048Y017688D03*
X027048Y018278D03*
X027638Y019263D03*
X026654Y019853D03*
X026654Y021428D03*
X024292Y020050D03*
X023308Y020641D03*
X022520Y020837D03*
X022520Y019853D03*
X020158Y020641D03*
X020158Y022806D03*
X019568Y024971D03*
X018386Y025956D03*
X020355Y027334D03*
X022717Y025956D03*
X023701Y026743D03*
X023701Y027137D03*
X024883Y027137D03*
X024883Y027727D03*
X026654Y026940D03*
X026654Y026546D03*
X027048Y026152D03*
X027835Y025759D03*
X026654Y029302D03*
X027442Y030089D03*
X032166Y030089D03*
X022717Y028908D03*
X035316Y022412D03*
X035906Y022215D03*
X039253Y022215D03*
X027048Y014932D03*
X020749Y012176D03*
X005394Y018082D03*
X005394Y018475D03*
X005394Y018869D03*
X005394Y019263D03*
X004607Y019460D03*
X002442Y007452D03*
M02*
