G75*
G70*
%OFA0B0*%
%FSLAX24Y24*%
%IPPOS*%
%LPD*%
%AMOC8*
5,1,8,0,0,1.08239X$1,22.5*
%
%ADD10C,0.0070*%
%ADD11C,0.0050*%
%ADD12C,0.0060*%
%ADD13C,0.0080*%
%ADD14C,0.0100*%
%ADD15C,0.0148*%
D10*
X007392Y009339D02*
X007464Y009267D01*
X007392Y009339D02*
X007392Y009482D01*
X007464Y009554D01*
X007536Y009554D01*
X007608Y009482D01*
X007608Y009410D01*
X007608Y009482D02*
X007679Y009554D01*
X007751Y009554D01*
X007823Y009482D01*
X007823Y009339D01*
X007751Y009267D01*
X007464Y009727D02*
X007464Y009799D01*
X007392Y009799D01*
X007392Y009727D01*
X007464Y009727D01*
X007464Y009957D02*
X007392Y010029D01*
X007392Y010172D01*
X007464Y010244D01*
X007536Y010244D01*
X007608Y010172D01*
X007608Y010101D01*
X007608Y010172D02*
X007679Y010244D01*
X007751Y010244D01*
X007823Y010172D01*
X007823Y010029D01*
X007751Y009957D01*
X007823Y010418D02*
X007536Y010418D01*
X007392Y010561D01*
X007536Y010705D01*
X007823Y010705D01*
X008967Y010778D02*
X008967Y011065D01*
X008967Y010778D02*
X009398Y010778D01*
X009254Y010605D02*
X009398Y010461D01*
X009254Y010318D01*
X008967Y010318D01*
X009039Y010144D02*
X008967Y010073D01*
X008967Y009929D01*
X009039Y009857D01*
X009326Y009857D01*
X009398Y009929D01*
X009398Y010073D01*
X009326Y010144D01*
X009182Y010318D02*
X009182Y010605D01*
X009254Y010605D02*
X008967Y010605D01*
X003689Y013204D02*
X003402Y013204D01*
X003259Y013347D01*
X003402Y013491D01*
X003689Y013491D01*
X003689Y013664D02*
X003259Y013664D01*
X003259Y013879D01*
X003330Y013951D01*
X003617Y013951D01*
X003689Y013879D01*
X003689Y013664D01*
X003689Y014125D02*
X003689Y014268D01*
X003689Y014196D02*
X003259Y014196D01*
X003259Y014125D02*
X003259Y014268D01*
X003330Y014431D02*
X003259Y014503D01*
X003259Y014647D01*
X003330Y014718D01*
X003402Y014718D01*
X003474Y014647D01*
X003474Y014503D01*
X003546Y014431D01*
X003617Y014431D01*
X003689Y014503D01*
X003689Y014647D01*
X003617Y014718D01*
X003689Y014892D02*
X003259Y014892D01*
X003402Y014892D02*
X003402Y015107D01*
X003474Y015179D01*
X003617Y015179D01*
X003689Y015107D01*
X003689Y014892D01*
X015857Y005443D02*
X016000Y005586D01*
X016287Y005586D01*
X016287Y005300D02*
X016000Y005300D01*
X015857Y005443D01*
X015929Y005126D02*
X015857Y005054D01*
X015857Y004911D01*
X015929Y004839D01*
X016072Y004839D02*
X016144Y004983D01*
X016144Y005054D01*
X016072Y005126D01*
X015929Y005126D01*
X016072Y004839D02*
X016287Y004839D01*
X016287Y005126D01*
X015929Y004681D02*
X015857Y004681D01*
X015857Y004609D01*
X015929Y004609D01*
X015929Y004681D01*
X015857Y004436D02*
X015857Y004149D01*
X016144Y004436D01*
X016216Y004436D01*
X016287Y004364D01*
X016287Y004220D01*
X016216Y004149D01*
X024518Y004019D02*
X024949Y004019D01*
X024518Y004305D01*
X024949Y004305D01*
X024805Y004479D02*
X024949Y004622D01*
X024805Y004766D01*
X024518Y004766D01*
X024518Y004939D02*
X024518Y005226D01*
X024590Y005400D02*
X024518Y005471D01*
X024518Y005615D01*
X024590Y005686D01*
X024877Y005686D01*
X024949Y005615D01*
X024949Y005471D01*
X024877Y005400D01*
X024590Y005400D01*
X024590Y005860D02*
X024518Y005932D01*
X024518Y006075D01*
X024590Y006147D01*
X024734Y006147D01*
X024734Y006003D01*
X024877Y005860D02*
X024590Y005860D01*
X024877Y005860D02*
X024949Y005932D01*
X024949Y006075D01*
X024877Y006147D01*
X024949Y004939D02*
X024518Y004939D01*
X024734Y004766D02*
X024734Y004479D01*
X024805Y004479D02*
X024518Y004479D01*
X024518Y003845D02*
X024805Y003845D01*
X024949Y003702D01*
X024805Y003558D01*
X024518Y003558D01*
X024734Y003558D02*
X024734Y003845D01*
X026487Y003827D02*
X026559Y003755D01*
X026487Y003827D02*
X026487Y003970D01*
X026559Y004042D01*
X026630Y004042D01*
X026702Y003970D01*
X026702Y003898D01*
X026702Y003970D02*
X026774Y004042D01*
X026846Y004042D01*
X026917Y003970D01*
X026917Y003827D01*
X026846Y003755D01*
X026559Y004215D02*
X026559Y004287D01*
X026487Y004287D01*
X026487Y004215D01*
X026559Y004215D01*
X026559Y004446D02*
X026487Y004517D01*
X026487Y004661D01*
X026559Y004732D01*
X026630Y004732D01*
X026702Y004661D01*
X026702Y004589D01*
X026702Y004661D02*
X026774Y004732D01*
X026846Y004732D01*
X026917Y004661D01*
X026917Y004517D01*
X026846Y004446D01*
X026917Y004906D02*
X026630Y004906D01*
X026487Y005049D01*
X026630Y005193D01*
X026917Y005193D01*
X026702Y005366D02*
X026702Y005653D01*
X026702Y005827D02*
X026702Y006113D01*
X026774Y006113D02*
X026487Y006113D01*
X026487Y006287D02*
X026487Y006574D01*
X026487Y006747D02*
X026630Y006891D01*
X026487Y007034D01*
X026917Y007034D01*
X026774Y007208D02*
X026917Y007351D01*
X026774Y007495D01*
X026487Y007495D01*
X026702Y007495D02*
X026702Y007208D01*
X026774Y007208D02*
X026487Y007208D01*
X026487Y006747D02*
X026917Y006747D01*
X026917Y006287D02*
X026487Y006287D01*
X026774Y006113D02*
X026917Y005970D01*
X026774Y005827D01*
X026487Y005827D01*
X026846Y007668D02*
X026702Y007811D01*
X026487Y007811D01*
X026702Y007811D02*
X026846Y007955D01*
X026917Y007955D01*
X026846Y008128D02*
X026774Y008128D01*
X026702Y008200D01*
X026702Y008344D01*
X026630Y008415D01*
X026559Y008415D01*
X026487Y008344D01*
X026487Y008200D01*
X026559Y008128D01*
X026846Y008128D02*
X026917Y008200D01*
X026917Y008344D01*
X026846Y008415D01*
X026846Y007668D02*
X026917Y007668D01*
X033180Y005279D02*
X033610Y005279D01*
X033610Y005136D02*
X033610Y005423D01*
X033610Y004963D02*
X033252Y004963D01*
X033180Y004891D01*
X033180Y004747D01*
X033252Y004676D01*
X033610Y004676D01*
X033539Y004502D02*
X033610Y004431D01*
X033610Y004287D01*
X033539Y004215D01*
X033252Y004215D01*
X033180Y004287D01*
X033180Y004431D01*
X033252Y004502D01*
X033539Y004502D01*
X033610Y004042D02*
X033323Y004042D01*
X033180Y003898D01*
X033323Y003755D01*
X033610Y003755D01*
X035739Y006511D02*
X035739Y006726D01*
X035811Y006798D01*
X036098Y006798D01*
X036169Y006726D01*
X036169Y006511D01*
X035739Y006511D01*
X035954Y006971D02*
X035954Y007258D01*
X036098Y007115D02*
X035811Y007115D01*
X035633Y008740D02*
X035633Y008955D01*
X035704Y009027D01*
X035991Y009027D01*
X036063Y008955D01*
X036063Y008740D01*
X035633Y008740D01*
X035848Y009200D02*
X035848Y009487D01*
X039479Y009091D02*
X039479Y008948D01*
X039551Y008876D01*
X039694Y008948D02*
X039694Y009091D01*
X039623Y009163D01*
X039551Y009163D01*
X039479Y009091D01*
X039694Y008948D02*
X039766Y008876D01*
X039838Y008876D01*
X039909Y008948D01*
X039909Y009091D01*
X039838Y009163D01*
X039909Y008703D02*
X039551Y008703D01*
X039479Y008631D01*
X039479Y008488D01*
X039551Y008416D01*
X039909Y008416D01*
X039838Y008242D02*
X039766Y008242D01*
X039694Y008171D01*
X039694Y007956D01*
X039623Y007782D02*
X039909Y007782D01*
X039909Y007956D02*
X039479Y007956D01*
X039479Y008171D01*
X039551Y008242D01*
X039623Y008242D01*
X039694Y008171D01*
X039838Y008242D02*
X039909Y008171D01*
X039909Y007956D01*
X039623Y007782D02*
X039479Y007639D01*
X039623Y007495D01*
X039909Y007495D01*
X039909Y005226D02*
X039909Y004939D01*
X039909Y005083D02*
X039479Y005083D01*
X039479Y004766D02*
X039766Y004766D01*
X039909Y004622D01*
X039766Y004479D01*
X039479Y004479D01*
X039551Y004305D02*
X039479Y004234D01*
X039479Y004019D01*
X039909Y004019D01*
X039909Y004234D01*
X039838Y004305D01*
X039766Y004305D01*
X039694Y004234D01*
X039694Y004019D01*
X039623Y003845D02*
X039909Y003845D01*
X039623Y003845D02*
X039479Y003702D01*
X039623Y003558D01*
X039909Y003558D01*
X039694Y004234D02*
X039623Y004305D01*
X039551Y004305D01*
X039694Y004479D02*
X039694Y004766D01*
X027114Y021668D02*
X026827Y021668D01*
X026684Y021812D01*
X026827Y021955D01*
X027114Y021955D01*
X027114Y022129D02*
X026684Y022129D01*
X026827Y022129D02*
X026827Y022344D01*
X026899Y022416D01*
X027042Y022416D01*
X027114Y022344D01*
X027114Y022129D01*
X026827Y022272D02*
X026684Y022416D01*
X026684Y022589D02*
X026971Y022589D01*
X027114Y022733D01*
X026971Y022876D01*
X026684Y022876D01*
X026684Y023049D02*
X027114Y023049D01*
X026971Y023193D01*
X027114Y023336D01*
X026684Y023336D01*
X026684Y023510D02*
X027114Y023510D01*
X027114Y023725D01*
X027042Y023797D01*
X026899Y023797D01*
X026827Y023725D01*
X026827Y023510D01*
X026899Y022876D02*
X026899Y022589D01*
X031211Y024102D02*
X031211Y024246D01*
X031283Y024317D01*
X031283Y024491D02*
X031355Y024563D01*
X031355Y024778D01*
X031427Y024778D02*
X031211Y024778D01*
X031211Y024563D01*
X031283Y024491D01*
X031498Y024563D02*
X031498Y024706D01*
X031427Y024778D01*
X031498Y024951D02*
X031498Y025166D01*
X031427Y025238D01*
X031283Y025238D01*
X031211Y025166D01*
X031211Y024951D01*
X031068Y024951D02*
X031498Y024951D01*
X031999Y025023D02*
X031999Y025238D01*
X031999Y025412D02*
X031999Y025555D01*
X031999Y025483D02*
X032286Y025483D01*
X032286Y025412D01*
X032429Y025483D02*
X032501Y025483D01*
X032429Y025719D02*
X032429Y025790D01*
X031999Y025790D01*
X031999Y025719D02*
X031999Y025862D01*
X031999Y026025D02*
X031999Y026169D01*
X031999Y026097D02*
X032429Y026097D01*
X032429Y026025D01*
X032214Y026332D02*
X032070Y026332D01*
X031999Y026404D01*
X031999Y026547D01*
X032070Y026619D01*
X032214Y026619D01*
X032286Y026547D01*
X032286Y026404D01*
X032214Y026332D01*
X031713Y026404D02*
X031642Y026404D01*
X031498Y026404D02*
X031211Y026404D01*
X031211Y026332D02*
X031211Y026476D01*
X031211Y026639D02*
X031211Y026783D01*
X031211Y026711D02*
X031642Y026711D01*
X031642Y026639D01*
X031498Y026404D02*
X031498Y026332D01*
X031427Y026159D02*
X031498Y026087D01*
X031498Y025872D01*
X031642Y025872D02*
X031211Y025872D01*
X031211Y026087D01*
X031283Y026159D01*
X031427Y026159D01*
X031427Y025699D02*
X031211Y025699D01*
X031211Y025483D01*
X031283Y025412D01*
X031355Y025483D01*
X031355Y025699D01*
X031427Y025699D02*
X031498Y025627D01*
X031498Y025483D01*
X031999Y025023D02*
X032070Y024951D01*
X032214Y024951D01*
X032286Y025023D01*
X032286Y025238D01*
X032286Y024778D02*
X032286Y024563D01*
X032214Y024491D01*
X032142Y024563D01*
X032142Y024706D01*
X032070Y024778D01*
X031999Y024706D01*
X031999Y024491D01*
X032070Y024317D02*
X032357Y024317D01*
X032429Y024246D01*
X032429Y024102D01*
X032357Y024031D01*
X032070Y024031D01*
X031999Y024102D01*
X031999Y024246D01*
X032070Y024317D01*
X031642Y024246D02*
X031642Y024102D01*
X031570Y024031D01*
X031283Y024031D01*
X031211Y024102D01*
X031570Y024317D02*
X031642Y024246D01*
X032786Y024317D02*
X033217Y024317D01*
X033073Y024491D02*
X033073Y024563D01*
X032786Y024563D01*
X032786Y024634D02*
X032786Y024491D01*
X032786Y024317D02*
X032930Y024174D01*
X032786Y024031D01*
X033217Y024031D01*
X033574Y024031D02*
X034004Y024031D01*
X034004Y024246D01*
X033932Y024317D01*
X033789Y024317D01*
X033717Y024246D01*
X033717Y024031D01*
X033717Y024174D02*
X033574Y024317D01*
X033645Y024491D02*
X033789Y024491D01*
X033860Y024563D01*
X033860Y024706D01*
X033789Y024778D01*
X033717Y024778D01*
X033717Y024491D01*
X033645Y024491D02*
X033574Y024563D01*
X033574Y024706D01*
X033645Y024951D02*
X033574Y025023D01*
X033574Y025238D01*
X033645Y025412D02*
X033574Y025483D01*
X033574Y025627D01*
X033645Y025699D01*
X033789Y025699D01*
X033860Y025627D01*
X033860Y025483D01*
X033789Y025412D01*
X033645Y025412D01*
X033860Y025238D02*
X033860Y025023D01*
X033789Y024951D01*
X033645Y024951D01*
X033217Y025105D02*
X032786Y025105D01*
X032786Y024941D02*
X032858Y024870D01*
X033145Y024870D01*
X033073Y024798D02*
X033073Y024941D01*
X033001Y025105D02*
X033073Y025176D01*
X033073Y025320D01*
X033001Y025392D01*
X032786Y025392D01*
X033574Y025872D02*
X033860Y025872D01*
X033717Y025872D02*
X033860Y026015D01*
X033860Y026087D01*
X033789Y026256D02*
X033860Y026327D01*
X033860Y026543D01*
X034004Y026543D02*
X033574Y026543D01*
X033574Y026327D01*
X033645Y026256D01*
X033789Y026256D01*
X033789Y026716D02*
X033860Y026788D01*
X033860Y026931D01*
X033789Y027003D01*
X033717Y027003D01*
X033717Y026716D01*
X033645Y026716D02*
X033789Y026716D01*
X033645Y026716D02*
X033574Y026788D01*
X033574Y026931D01*
X033574Y027176D02*
X033860Y027176D01*
X033717Y027176D02*
X033860Y027320D01*
X033860Y027391D01*
X035148Y027406D02*
X035579Y027406D01*
X035435Y027478D02*
X035364Y027406D01*
X035435Y027478D02*
X035435Y027622D01*
X035364Y027693D01*
X035148Y027693D01*
X035148Y027243D02*
X035220Y027171D01*
X035507Y027171D01*
X035435Y027100D02*
X035435Y027243D01*
X035435Y026926D02*
X035435Y026711D01*
X035364Y026639D01*
X035220Y026639D01*
X035148Y026711D01*
X035148Y026926D01*
X035579Y026926D01*
X035148Y026476D02*
X035148Y026332D01*
X035148Y026404D02*
X035435Y026404D01*
X035435Y026332D01*
X035579Y026404D02*
X035650Y026404D01*
X035435Y026159D02*
X035220Y026159D01*
X035148Y026087D01*
X035220Y026015D01*
X035148Y025944D01*
X035220Y025872D01*
X035435Y025872D01*
X035435Y025699D02*
X035435Y025483D01*
X035364Y025412D01*
X035220Y025412D01*
X035148Y025483D01*
X035148Y025699D01*
X035579Y025699D01*
X035364Y025238D02*
X035148Y025238D01*
X035364Y025238D02*
X035435Y025166D01*
X035435Y024951D01*
X035148Y024951D01*
X035148Y024778D02*
X035148Y024563D01*
X035220Y024491D01*
X035292Y024563D01*
X035292Y024778D01*
X035364Y024778D02*
X035148Y024778D01*
X035364Y024778D02*
X035435Y024706D01*
X035435Y024563D01*
X035435Y024317D02*
X035364Y024246D01*
X035364Y024031D01*
X035579Y024031D02*
X035579Y024246D01*
X035507Y024317D01*
X035435Y024317D01*
X035364Y024246D02*
X035292Y024317D01*
X035220Y024317D01*
X035148Y024246D01*
X035148Y024031D01*
X035579Y024031D01*
X035936Y024031D02*
X035936Y024246D01*
X036007Y024317D01*
X036079Y024317D01*
X036151Y024246D01*
X036151Y024031D01*
X036151Y024246D02*
X036223Y024317D01*
X036294Y024317D01*
X036366Y024246D01*
X036366Y024031D01*
X035936Y024031D01*
X035936Y024491D02*
X035936Y024634D01*
X035936Y024563D02*
X036223Y024563D01*
X036223Y024491D01*
X036366Y024563D02*
X036438Y024563D01*
X036723Y024491D02*
X037010Y024491D01*
X037010Y024706D01*
X036938Y024778D01*
X036723Y024778D01*
X036795Y024951D02*
X036723Y025023D01*
X036723Y025166D01*
X036795Y025238D01*
X036938Y025238D01*
X037010Y025166D01*
X037010Y025023D01*
X036938Y024951D01*
X036795Y024951D01*
X037010Y025412D02*
X037010Y025555D01*
X037082Y025483D02*
X036795Y025483D01*
X036723Y025555D01*
X036723Y025719D02*
X037154Y025719D01*
X037010Y025790D02*
X037010Y025934D01*
X036938Y026005D01*
X036723Y026005D01*
X036795Y026179D02*
X036938Y026179D01*
X037010Y026251D01*
X037010Y026394D01*
X036938Y026466D01*
X036867Y026466D01*
X036867Y026179D01*
X036795Y026179D02*
X036723Y026251D01*
X036723Y026394D01*
X036723Y026639D02*
X037010Y026639D01*
X036867Y026639D02*
X037010Y026783D01*
X037010Y026854D01*
X037010Y025790D02*
X036938Y025719D01*
X037511Y025555D02*
X037582Y025483D01*
X037869Y025483D01*
X037797Y025412D02*
X037797Y025555D01*
X037797Y025238D02*
X037797Y025023D01*
X037726Y024951D01*
X037654Y025023D01*
X037654Y025166D01*
X037582Y025238D01*
X037511Y025166D01*
X037511Y024951D01*
X037511Y024778D02*
X037797Y024778D01*
X037511Y024778D02*
X037511Y024563D01*
X037582Y024491D01*
X037797Y024491D01*
X037941Y024317D02*
X037941Y024174D01*
X037941Y024246D02*
X037582Y024246D01*
X037511Y024174D01*
X037511Y024102D01*
X037582Y024031D01*
X037154Y024174D02*
X037010Y024317D01*
X036723Y024317D01*
X036938Y024317D02*
X036938Y024031D01*
X037010Y024031D02*
X037154Y024174D01*
X037010Y024031D02*
X036723Y024031D01*
X036151Y024798D02*
X036007Y024798D01*
X035936Y024870D01*
X035936Y025085D01*
X035864Y025085D02*
X036223Y025085D01*
X036223Y024870D01*
X036151Y024798D01*
X035792Y024941D02*
X035792Y025013D01*
X035864Y025085D01*
X034648Y025023D02*
X034648Y025166D01*
X034576Y025238D01*
X034504Y025238D01*
X034504Y024951D01*
X034433Y024951D02*
X034576Y024951D01*
X034648Y025023D01*
X034433Y024951D02*
X034361Y025023D01*
X034361Y025166D01*
X034361Y025412D02*
X034648Y025412D01*
X034648Y025627D01*
X034576Y025699D01*
X034361Y025699D01*
X034433Y025944D02*
X034361Y026015D01*
X034433Y025944D02*
X034720Y025944D01*
X034648Y025872D02*
X034648Y026015D01*
X034648Y024778D02*
X034361Y024634D01*
X034648Y024491D01*
X034791Y024317D02*
X034791Y024031D01*
X034361Y024031D01*
X034361Y024317D01*
X034576Y024174D02*
X034576Y024031D01*
X033288Y024563D02*
X033217Y024563D01*
X032214Y026793D02*
X032286Y026864D01*
X032286Y027080D01*
X032142Y027008D02*
X032142Y026864D01*
X032214Y026793D01*
X031999Y026793D02*
X031999Y027008D01*
X032070Y027080D01*
X032142Y027008D01*
X032070Y027253D02*
X031999Y027325D01*
X031999Y027540D01*
X032070Y027713D02*
X031999Y027785D01*
X031999Y027929D01*
X032070Y028000D01*
X032214Y028000D01*
X032286Y027929D01*
X032286Y027785D01*
X032214Y027713D01*
X032070Y027713D01*
X032286Y027540D02*
X032286Y027325D01*
X032214Y027253D01*
X032070Y027253D01*
X031713Y027018D02*
X031642Y027018D01*
X031498Y027018D02*
X031211Y027018D01*
X031211Y026946D02*
X031211Y027090D01*
X031283Y027325D02*
X031211Y027396D01*
X031283Y027325D02*
X031570Y027325D01*
X031498Y027253D02*
X031498Y027396D01*
X031498Y027560D02*
X031498Y027632D01*
X031211Y027632D01*
X031211Y027703D02*
X031211Y027560D01*
X031283Y027867D02*
X031427Y027867D01*
X031498Y027939D01*
X031498Y028082D01*
X031427Y028154D01*
X031355Y028154D01*
X031355Y027867D01*
X031283Y027867D02*
X031211Y027939D01*
X031211Y028082D01*
X031211Y028327D02*
X031211Y028542D01*
X031283Y028614D01*
X031355Y028542D01*
X031355Y028399D01*
X031427Y028327D01*
X031498Y028399D01*
X031498Y028614D01*
X031999Y028706D02*
X031999Y028849D01*
X031999Y028706D02*
X032070Y028634D01*
X032214Y028634D01*
X032286Y028706D01*
X032286Y028849D01*
X032214Y028921D01*
X032142Y028921D01*
X032142Y028634D01*
X032070Y028461D02*
X031999Y028389D01*
X031999Y028174D01*
X031855Y028174D02*
X032286Y028174D01*
X032286Y028389D01*
X032214Y028461D01*
X032070Y028461D01*
X031713Y027632D02*
X031642Y027632D01*
X031498Y027018D02*
X031498Y026946D01*
X039479Y025166D02*
X039479Y024951D01*
X039909Y024951D01*
X039909Y025166D01*
X039838Y025238D01*
X039551Y025238D01*
X039479Y025166D01*
X039479Y024778D02*
X039909Y024778D01*
X039909Y024491D02*
X039479Y024491D01*
X039551Y024317D02*
X039694Y024317D01*
X039694Y024174D01*
X039551Y024031D02*
X039479Y024102D01*
X039479Y024246D01*
X039551Y024317D01*
X039551Y024031D02*
X039838Y024031D01*
X039909Y024102D01*
X039909Y024246D01*
X039838Y024317D01*
X039909Y024491D02*
X039479Y024778D01*
D11*
X039395Y024734D02*
X038706Y024734D01*
X038706Y024045D01*
X039395Y024045D01*
X039395Y024734D01*
X035487Y021240D02*
X035487Y020787D01*
X035113Y020787D01*
X034720Y020787D02*
X034346Y020787D01*
X034346Y021240D01*
X034720Y021299D02*
X035113Y021299D01*
X035113Y019921D02*
X035487Y019921D01*
X035487Y019468D01*
X035113Y019409D02*
X034720Y019409D01*
X034346Y019468D02*
X034346Y019921D01*
X034720Y019921D01*
X035044Y018602D02*
X035044Y018484D01*
X034966Y018484D01*
X035044Y018484D02*
X035044Y018366D01*
X035163Y018484D01*
X035261Y018484D01*
X035163Y018484D02*
X035044Y018602D01*
X035202Y018602D02*
X035202Y018366D01*
X034936Y017086D02*
X036669Y017086D01*
X035025Y015334D02*
X035027Y015353D01*
X035033Y015371D01*
X035043Y015387D01*
X035056Y015401D01*
X035072Y015412D01*
X035089Y015419D01*
X035108Y015422D01*
X035127Y015421D01*
X035146Y015416D01*
X035162Y015407D01*
X035177Y015395D01*
X035188Y015379D01*
X035196Y015362D01*
X035200Y015344D01*
X035200Y015324D01*
X035196Y015306D01*
X035188Y015289D01*
X035177Y015273D01*
X035162Y015261D01*
X035146Y015252D01*
X035127Y015247D01*
X035108Y015246D01*
X035089Y015249D01*
X035072Y015256D01*
X035056Y015267D01*
X035043Y015281D01*
X035033Y015297D01*
X035027Y015315D01*
X035025Y015334D01*
X034936Y015118D02*
X036669Y015118D01*
X035655Y014744D02*
X035556Y014744D01*
X035438Y014626D01*
X035438Y014744D01*
X035359Y014744D01*
X035438Y014744D02*
X035438Y014862D01*
X035556Y014744D01*
X035596Y014862D02*
X035596Y014626D01*
X033420Y014842D02*
X033420Y014291D01*
X032689Y014665D02*
X032691Y014681D01*
X032697Y014696D01*
X032707Y014709D01*
X032720Y014719D01*
X032735Y014725D01*
X032751Y014727D01*
X032767Y014725D01*
X032782Y014719D01*
X032795Y014709D01*
X032805Y014696D01*
X032811Y014681D01*
X032813Y014665D01*
X032811Y014649D01*
X032805Y014634D01*
X032795Y014621D01*
X032782Y014611D01*
X032767Y014605D01*
X032751Y014603D01*
X032735Y014605D01*
X032720Y014611D01*
X032707Y014621D01*
X032697Y014634D01*
X032691Y014649D01*
X032689Y014665D01*
X032594Y014842D02*
X032594Y014291D01*
X034149Y012799D02*
X034149Y012346D01*
X034523Y012346D01*
X034917Y012346D02*
X035291Y012346D01*
X035291Y012799D01*
X034917Y012858D02*
X034523Y012858D01*
X034523Y011389D02*
X034149Y011389D01*
X034149Y010937D01*
X034523Y010877D02*
X034917Y010877D01*
X035291Y010937D02*
X035291Y011389D01*
X034917Y011389D01*
X035606Y008543D02*
X036196Y008543D01*
X036196Y007952D01*
X035606Y007952D01*
X035606Y008543D01*
X035606Y007952D02*
X036196Y007952D01*
X036196Y007362D01*
X035606Y007362D01*
X035606Y007952D01*
X038755Y007755D02*
X039346Y007755D01*
X039346Y008346D01*
X038755Y008346D01*
X038755Y007755D01*
X038755Y004409D02*
X038755Y003818D01*
X039346Y003818D01*
X039346Y004409D01*
X038755Y004409D01*
X036954Y003248D02*
X036954Y003129D01*
X037033Y003129D01*
X036954Y003129D02*
X036954Y003011D01*
X036836Y003129D01*
X036737Y003129D01*
X036836Y003129D02*
X036954Y003248D01*
X036796Y003248D02*
X036796Y003011D01*
X033834Y003031D02*
X033243Y003031D01*
X033243Y003622D01*
X033834Y003622D01*
X033834Y003031D01*
X027731Y005590D02*
X027141Y005590D01*
X027141Y006181D01*
X027731Y006181D01*
X027731Y005590D01*
X025172Y006377D02*
X025172Y006968D01*
X024582Y006968D01*
X024582Y006377D01*
X025172Y006377D01*
X022535Y004822D02*
X022535Y008838D01*
X017417Y008838D01*
X017417Y004271D01*
X018322Y004271D01*
X017102Y004606D02*
X017102Y005196D01*
X016511Y005196D01*
X016511Y004606D01*
X017102Y004606D01*
X018322Y004271D02*
X018349Y004185D01*
X018379Y004101D01*
X018413Y004018D01*
X018451Y003936D01*
X018493Y003856D01*
X018537Y003779D01*
X018586Y003703D01*
X018638Y003630D01*
X018692Y003559D01*
X018751Y003490D01*
X018812Y003424D01*
X018876Y003361D01*
X018942Y003301D01*
X019012Y003244D01*
X019083Y003190D01*
X019158Y003140D01*
X019234Y003092D01*
X019312Y003049D01*
X019393Y003008D01*
X019475Y002972D01*
X019558Y002939D01*
X019643Y002910D01*
X019729Y002884D01*
X019816Y002863D01*
X019904Y002845D01*
X019993Y002832D01*
X020082Y002822D01*
X020172Y002817D01*
X020262Y002815D01*
X020352Y002817D01*
X020441Y002824D01*
X020530Y002834D01*
X020619Y002849D01*
X020707Y002867D01*
X020794Y002889D01*
X020880Y002916D01*
X020964Y002946D01*
X021047Y002979D01*
X021129Y003017D01*
X021209Y003058D01*
X021287Y003102D01*
X021363Y003150D01*
X021436Y003202D01*
X021508Y003256D01*
X021576Y003314D01*
X021643Y003375D01*
X021706Y003438D01*
X021766Y003505D01*
X021824Y003574D01*
X021878Y003645D01*
X021929Y003719D01*
X021977Y003795D01*
X022021Y003874D01*
X022061Y003954D01*
X022098Y004036D01*
X022132Y004119D01*
X022161Y004204D01*
X022187Y004290D01*
X022209Y004377D01*
X022227Y004465D01*
X022241Y004553D01*
X022251Y004643D01*
X022257Y004732D01*
X022259Y004822D01*
X022535Y004822D01*
X015576Y007706D02*
X015576Y009183D01*
X013312Y009183D01*
X013312Y007706D01*
X015576Y007706D01*
X008883Y010462D02*
X008194Y010462D01*
X008194Y011151D01*
X008883Y011151D01*
X008883Y010462D01*
X007259Y010118D02*
X007259Y009527D01*
X006669Y009527D01*
X006669Y010118D01*
X007259Y010118D01*
X003972Y010649D02*
X003657Y010649D01*
X003657Y011358D02*
X003972Y011358D01*
X003125Y012874D02*
X002535Y012874D01*
X002535Y013464D01*
X003125Y013464D01*
X003125Y012874D01*
X002535Y008759D02*
X002535Y007972D01*
X002338Y007972D01*
X001452Y007972D02*
X001275Y007972D01*
X001275Y008779D01*
X017180Y024192D02*
X022298Y024192D01*
X022298Y028759D01*
X021393Y028759D01*
X021366Y028845D01*
X021336Y028929D01*
X021302Y029012D01*
X021264Y029094D01*
X021222Y029174D01*
X021178Y029251D01*
X021129Y029327D01*
X021077Y029400D01*
X021023Y029471D01*
X020964Y029540D01*
X020903Y029606D01*
X020839Y029669D01*
X020773Y029729D01*
X020703Y029786D01*
X020632Y029840D01*
X020557Y029890D01*
X020481Y029938D01*
X020403Y029981D01*
X020322Y030022D01*
X020240Y030058D01*
X020157Y030091D01*
X020072Y030120D01*
X019986Y030146D01*
X019899Y030167D01*
X019811Y030185D01*
X019722Y030198D01*
X019633Y030208D01*
X019543Y030213D01*
X019453Y030215D01*
X019363Y030213D01*
X019274Y030206D01*
X019185Y030196D01*
X019096Y030181D01*
X019008Y030163D01*
X018921Y030141D01*
X018835Y030114D01*
X018751Y030084D01*
X018668Y030051D01*
X018586Y030013D01*
X018506Y029972D01*
X018428Y029928D01*
X018352Y029880D01*
X018279Y029828D01*
X018207Y029774D01*
X018139Y029716D01*
X018072Y029655D01*
X018009Y029592D01*
X017949Y029525D01*
X017891Y029456D01*
X017837Y029385D01*
X017786Y029311D01*
X017738Y029235D01*
X017694Y029156D01*
X017654Y029076D01*
X017617Y028994D01*
X017583Y028911D01*
X017554Y028826D01*
X017528Y028740D01*
X017506Y028653D01*
X017488Y028565D01*
X017474Y028477D01*
X017464Y028387D01*
X017458Y028298D01*
X017456Y028208D01*
X017180Y028208D01*
X017180Y024192D01*
X014543Y024507D02*
X014346Y024507D01*
X014543Y024507D02*
X014543Y025295D01*
X013283Y025314D02*
X013283Y024507D01*
X013460Y024507D01*
X025960Y022519D02*
X025960Y021929D01*
X026550Y021929D01*
X026550Y022519D01*
X025960Y022519D01*
X032653Y018169D02*
X033204Y018169D01*
X032768Y017500D02*
X032770Y017516D01*
X032776Y017531D01*
X032786Y017544D01*
X032799Y017554D01*
X032814Y017560D01*
X032830Y017562D01*
X032846Y017560D01*
X032861Y017554D01*
X032874Y017544D01*
X032884Y017531D01*
X032890Y017516D01*
X032892Y017500D01*
X032890Y017484D01*
X032884Y017469D01*
X032874Y017456D01*
X032861Y017446D01*
X032846Y017440D01*
X032830Y017438D01*
X032814Y017440D01*
X032799Y017446D01*
X032786Y017456D01*
X032776Y017469D01*
X032770Y017484D01*
X032768Y017500D01*
X032653Y017342D02*
X033204Y017342D01*
D12*
X033847Y017300D02*
X034074Y017300D01*
X033904Y017470D01*
X033904Y017130D01*
X034215Y017186D02*
X034272Y017130D01*
X034385Y017130D01*
X034442Y017186D01*
X034442Y017300D02*
X034329Y017356D01*
X034272Y017356D01*
X034215Y017300D01*
X034215Y017186D01*
X034442Y017300D02*
X034442Y017470D01*
X034215Y017470D01*
X034584Y017413D02*
X034640Y017470D01*
X034754Y017470D01*
X034810Y017413D01*
X034810Y017186D01*
X034754Y017130D01*
X034640Y017130D01*
X034584Y017186D01*
X035352Y017193D02*
X035409Y017136D01*
X035522Y017136D01*
X035579Y017193D01*
X035522Y017306D02*
X035409Y017306D01*
X035352Y017249D01*
X035352Y017193D01*
X035522Y017306D02*
X035579Y017363D01*
X035579Y017419D01*
X035522Y017476D01*
X035409Y017476D01*
X035352Y017419D01*
X035720Y017419D02*
X035777Y017476D01*
X035890Y017476D01*
X035947Y017419D01*
X035947Y017193D01*
X035890Y017136D01*
X035777Y017136D01*
X035720Y017193D01*
X036088Y017136D02*
X036088Y017363D01*
X036202Y017476D01*
X036315Y017363D01*
X036315Y017136D01*
X036457Y017193D02*
X036513Y017136D01*
X036684Y017136D01*
X036684Y017476D01*
X036513Y017476D01*
X036457Y017419D01*
X036457Y017193D01*
X036315Y017306D02*
X036088Y017306D01*
X036825Y017306D02*
X037052Y017306D01*
X036882Y017476D01*
X036882Y017136D01*
X038287Y016544D02*
X038287Y016431D01*
X038343Y016374D01*
X038343Y016232D02*
X038287Y016176D01*
X038287Y016062D01*
X038343Y016006D01*
X038457Y016006D02*
X038514Y016119D01*
X038514Y016176D01*
X038457Y016232D01*
X038343Y016232D01*
X038457Y016006D02*
X038627Y016006D01*
X038627Y016232D01*
X038570Y016374D02*
X038627Y016431D01*
X038627Y016544D01*
X038570Y016601D01*
X038514Y016601D01*
X038457Y016544D01*
X038400Y016601D01*
X038343Y016601D01*
X038287Y016544D01*
X038457Y016544D02*
X038457Y016487D01*
X038570Y015864D02*
X038627Y015807D01*
X038627Y015694D01*
X038570Y015637D01*
X038343Y015637D01*
X038287Y015694D01*
X038287Y015807D01*
X038343Y015864D01*
X036358Y014660D02*
X036245Y014774D01*
X036018Y014774D01*
X036188Y014774D02*
X036188Y014547D01*
X036245Y014547D02*
X036018Y014547D01*
X036188Y014405D02*
X036188Y014179D01*
X036188Y014037D02*
X036131Y013980D01*
X036131Y013810D01*
X036018Y013810D02*
X036358Y013810D01*
X036358Y013980D01*
X036301Y014037D01*
X036188Y014037D01*
X036131Y013924D02*
X036018Y014037D01*
X036018Y013669D02*
X036018Y013442D01*
X036358Y013442D01*
X036358Y013669D01*
X036188Y013555D02*
X036188Y013442D01*
X036188Y013300D02*
X036188Y013187D01*
X036188Y013300D02*
X036074Y013300D01*
X036018Y013244D01*
X036018Y013130D01*
X036074Y013074D01*
X036301Y013074D01*
X036358Y013130D01*
X036358Y013244D01*
X036301Y013300D01*
X036301Y012932D02*
X036358Y012875D01*
X036358Y012762D01*
X036301Y012705D01*
X036074Y012705D01*
X036018Y012762D01*
X036018Y012875D01*
X036074Y012932D01*
X036188Y012932D01*
X036188Y012819D01*
X036358Y012573D02*
X036358Y012460D01*
X036358Y012516D02*
X036018Y012516D01*
X036018Y012460D02*
X036018Y012573D01*
X036018Y012318D02*
X036131Y012205D01*
X036131Y012262D02*
X036131Y012091D01*
X036018Y012091D02*
X036358Y012091D01*
X036358Y012262D01*
X036301Y012318D01*
X036188Y012318D01*
X036131Y012262D01*
X036358Y011950D02*
X036358Y011723D01*
X036358Y011837D02*
X036018Y011837D01*
X035877Y011365D02*
X035877Y011138D01*
X035707Y011138D01*
X035764Y011251D01*
X035764Y011308D01*
X035707Y011365D01*
X035594Y011365D01*
X035537Y011308D01*
X035537Y011195D01*
X035594Y011138D01*
X035594Y010997D02*
X035821Y010997D01*
X035877Y010940D01*
X035877Y010770D01*
X035537Y010770D01*
X035537Y010940D01*
X035594Y010997D01*
X033903Y012289D02*
X033903Y012459D01*
X033846Y012516D01*
X033619Y012516D01*
X033562Y012459D01*
X033562Y012289D01*
X033903Y012289D01*
X033732Y012657D02*
X033732Y012827D01*
X033676Y012884D01*
X033619Y012884D01*
X033562Y012827D01*
X033562Y012714D01*
X033619Y012657D01*
X033732Y012657D01*
X033846Y012771D01*
X033903Y012884D01*
X033769Y012996D02*
X033656Y012996D01*
X033599Y013052D01*
X033458Y013052D02*
X033401Y012996D01*
X033288Y012996D01*
X033231Y013052D01*
X033231Y013166D01*
X033288Y013223D01*
X033344Y013223D01*
X033458Y013166D01*
X033458Y013336D01*
X033231Y013336D01*
X033089Y013166D02*
X032919Y013166D01*
X032863Y013109D01*
X032863Y013052D01*
X032919Y012996D01*
X033033Y012996D01*
X033089Y013052D01*
X033089Y013166D01*
X032976Y013279D01*
X032863Y013336D01*
X033599Y013279D02*
X033656Y013336D01*
X033769Y013336D01*
X033826Y013279D01*
X033826Y013052D01*
X033769Y012996D01*
X032531Y014577D02*
X032191Y014577D01*
X032361Y014577D02*
X032361Y014690D01*
X032531Y014577D02*
X032531Y014804D01*
X032531Y014945D02*
X032191Y014945D01*
X032361Y014945D02*
X032361Y015059D01*
X032531Y014945D02*
X032531Y015172D01*
X032417Y015313D02*
X032191Y015313D01*
X032361Y015313D02*
X032361Y015540D01*
X032417Y015540D02*
X032191Y015540D01*
X032417Y015540D02*
X032531Y015427D01*
X032417Y015313D01*
X033569Y015394D02*
X033682Y015281D01*
X033682Y015337D02*
X033682Y015167D01*
X033569Y015167D02*
X033909Y015167D01*
X033909Y015337D01*
X033852Y015394D01*
X033739Y015394D01*
X033682Y015337D01*
X033625Y015536D02*
X033569Y015592D01*
X033569Y015706D01*
X033625Y015762D01*
X033852Y015762D01*
X033909Y015706D01*
X033909Y015592D01*
X033852Y015536D01*
X033795Y015536D01*
X033739Y015592D01*
X033739Y015762D01*
X033852Y015904D02*
X033909Y015961D01*
X033909Y016074D01*
X033852Y016131D01*
X033625Y015904D01*
X033569Y015961D01*
X033569Y016074D01*
X033625Y016131D01*
X033852Y016131D01*
X033852Y015904D02*
X033625Y015904D01*
X032137Y017333D02*
X032137Y017560D01*
X032137Y017701D02*
X032137Y017928D01*
X032137Y018069D02*
X032137Y018239D01*
X032080Y018296D01*
X032024Y018296D01*
X031967Y018239D01*
X031967Y018069D01*
X031797Y018069D02*
X031797Y018239D01*
X031854Y018296D01*
X031910Y018296D01*
X031967Y018239D01*
X031797Y018069D02*
X032137Y018069D01*
X031967Y017814D02*
X031967Y017701D01*
X031797Y017701D02*
X032137Y017701D01*
X031967Y017446D02*
X031967Y017333D01*
X031797Y017333D02*
X032137Y017333D01*
X033116Y018704D02*
X033059Y018761D01*
X033059Y018988D01*
X033116Y019045D01*
X033230Y019045D01*
X033286Y018988D01*
X033286Y018931D01*
X033230Y018874D01*
X033059Y018874D01*
X033116Y018704D02*
X033230Y018704D01*
X033286Y018761D01*
X033428Y018761D02*
X033485Y018704D01*
X033598Y018704D01*
X033655Y018761D01*
X033655Y018818D01*
X033598Y018874D01*
X033485Y018874D01*
X033428Y018818D01*
X033428Y018761D01*
X033485Y018874D02*
X033428Y018931D01*
X033428Y018988D01*
X033485Y019045D01*
X033598Y019045D01*
X033655Y018988D01*
X033655Y018931D01*
X033598Y018874D01*
X033796Y018874D02*
X033853Y018818D01*
X034023Y018818D01*
X033910Y018818D02*
X033796Y018704D01*
X033796Y018874D02*
X033796Y018988D01*
X033853Y019045D01*
X034023Y019045D01*
X034023Y018704D01*
X033909Y019301D02*
X033909Y019471D01*
X033852Y019528D01*
X033625Y019528D01*
X033569Y019471D01*
X033569Y019301D01*
X033909Y019301D01*
X033852Y019669D02*
X033795Y019669D01*
X033739Y019726D01*
X033739Y019896D01*
X033852Y019896D02*
X033909Y019840D01*
X033909Y019726D01*
X033852Y019669D01*
X033625Y019669D02*
X033569Y019726D01*
X033569Y019840D01*
X033625Y019896D01*
X033852Y019896D01*
X033759Y020362D02*
X033759Y020532D01*
X033816Y020588D01*
X034043Y020588D01*
X034099Y020532D01*
X034099Y020362D01*
X033759Y020362D01*
X033759Y020730D02*
X033759Y020957D01*
X033759Y020843D02*
X034099Y020843D01*
X033986Y020730D01*
X034043Y021098D02*
X033816Y021098D01*
X034043Y021325D01*
X033816Y021325D01*
X033759Y021268D01*
X033759Y021155D01*
X033816Y021098D01*
X034043Y021098D02*
X034099Y021155D01*
X034099Y021268D01*
X034043Y021325D01*
X036428Y021366D02*
X036428Y021196D01*
X036768Y021196D01*
X036768Y021366D01*
X036712Y021423D01*
X036655Y021423D01*
X036598Y021366D01*
X036598Y021196D01*
X036598Y021054D02*
X036598Y020828D01*
X036598Y020686D02*
X036541Y020629D01*
X036541Y020459D01*
X036428Y020459D02*
X036768Y020459D01*
X036768Y020629D01*
X036712Y020686D01*
X036598Y020686D01*
X036541Y020573D02*
X036428Y020686D01*
X036428Y020318D02*
X036428Y020091D01*
X036768Y020091D01*
X036768Y020318D01*
X036598Y020204D02*
X036598Y020091D01*
X036598Y019949D02*
X036598Y019836D01*
X036598Y019949D02*
X036485Y019949D01*
X036428Y019893D01*
X036428Y019779D01*
X036485Y019723D01*
X036712Y019723D01*
X036768Y019779D01*
X036768Y019893D01*
X036712Y019949D01*
X036712Y019581D02*
X036768Y019524D01*
X036768Y019411D01*
X036712Y019354D01*
X036485Y019354D01*
X036428Y019411D01*
X036428Y019524D01*
X036485Y019581D01*
X036598Y019581D01*
X036598Y019468D01*
X036428Y019222D02*
X036428Y019109D01*
X036428Y019166D02*
X036768Y019166D01*
X036768Y019222D02*
X036768Y019109D01*
X036712Y018967D02*
X036598Y018967D01*
X036541Y018911D01*
X036541Y018741D01*
X036428Y018741D02*
X036768Y018741D01*
X036768Y018911D01*
X036712Y018967D01*
X036541Y018854D02*
X036428Y018967D01*
X036768Y018599D02*
X036768Y018372D01*
X036768Y018486D02*
X036428Y018486D01*
X038730Y021073D02*
X038900Y021073D01*
X038900Y021413D01*
X038730Y021413D01*
X038673Y021356D01*
X038673Y021300D01*
X038730Y021243D01*
X038900Y021243D01*
X039041Y021243D02*
X039268Y021243D01*
X039409Y021243D02*
X039636Y021243D01*
X039636Y021073D02*
X039636Y021413D01*
X039778Y021356D02*
X039835Y021413D01*
X039948Y021413D01*
X040005Y021356D01*
X040005Y021130D01*
X039948Y021073D01*
X039835Y021073D01*
X039778Y021130D01*
X039409Y021073D02*
X039409Y021413D01*
X038730Y021243D02*
X038673Y021186D01*
X038673Y021130D01*
X038730Y021073D01*
X036598Y021366D02*
X036541Y021423D01*
X036485Y021423D01*
X036428Y021366D01*
X028390Y015901D02*
X028390Y015561D01*
X028390Y015674D02*
X028220Y015674D01*
X028164Y015731D01*
X028164Y015845D01*
X028220Y015901D01*
X028390Y015901D01*
X028277Y015674D02*
X028164Y015561D01*
X028022Y015618D02*
X027965Y015561D01*
X027852Y015561D01*
X027795Y015618D01*
X027795Y015674D01*
X027852Y015731D01*
X028022Y015731D01*
X028022Y015618D01*
X028022Y015731D02*
X027909Y015845D01*
X027795Y015901D01*
X027654Y015731D02*
X027484Y015901D01*
X027484Y015561D01*
X027427Y015731D02*
X027654Y015731D01*
X028729Y015108D02*
X028842Y015051D01*
X028956Y014937D01*
X028786Y014937D01*
X028729Y014881D01*
X028729Y014824D01*
X028786Y014767D01*
X028899Y014767D01*
X028956Y014824D01*
X028956Y014937D01*
X029097Y014881D02*
X029154Y014937D01*
X029324Y014937D01*
X029324Y014824D01*
X029267Y014767D01*
X029154Y014767D01*
X029097Y014824D01*
X029097Y014881D01*
X029211Y015051D02*
X029097Y015108D01*
X029211Y015051D02*
X029324Y014937D01*
X029465Y014937D02*
X029522Y014881D01*
X029692Y014881D01*
X029579Y014881D02*
X029465Y014767D01*
X029465Y014937D02*
X029465Y015051D01*
X029522Y015108D01*
X029692Y015108D01*
X029692Y014767D01*
X027406Y017136D02*
X027406Y017476D01*
X027236Y017476D01*
X027179Y017419D01*
X027179Y017306D01*
X027236Y017249D01*
X027406Y017249D01*
X027293Y017249D02*
X027179Y017136D01*
X027038Y017193D02*
X026981Y017136D01*
X026868Y017136D01*
X026811Y017193D01*
X026811Y017249D01*
X026868Y017306D01*
X027038Y017306D01*
X027038Y017193D01*
X027038Y017306D02*
X026924Y017419D01*
X026811Y017476D01*
X026670Y017419D02*
X026670Y017363D01*
X026613Y017306D01*
X026499Y017306D01*
X026443Y017249D01*
X026443Y017193D01*
X026499Y017136D01*
X026613Y017136D01*
X026670Y017193D01*
X026670Y017249D01*
X026613Y017306D01*
X026499Y017306D02*
X026443Y017363D01*
X026443Y017419D01*
X026499Y017476D01*
X026613Y017476D01*
X026670Y017419D01*
X027657Y017439D02*
X027770Y017325D01*
X027770Y017382D02*
X027770Y017212D01*
X027657Y017212D02*
X027997Y017212D01*
X027997Y017382D01*
X027940Y017439D01*
X027827Y017439D01*
X027770Y017382D01*
X027713Y017580D02*
X027657Y017637D01*
X027657Y017750D01*
X027713Y017807D01*
X027940Y017807D01*
X027997Y017750D01*
X027997Y017637D01*
X027940Y017580D01*
X027884Y017580D01*
X027827Y017637D01*
X027827Y017807D01*
X027884Y017949D02*
X027997Y018062D01*
X027657Y018062D01*
X027657Y017949D02*
X027657Y018175D01*
X025266Y018140D02*
X024926Y018140D01*
X024926Y018367D01*
X024926Y018508D02*
X024926Y018735D01*
X024926Y018876D02*
X024926Y019046D01*
X024982Y019103D01*
X025209Y019103D01*
X025266Y019046D01*
X025266Y018876D01*
X024926Y018876D01*
X025096Y018621D02*
X025096Y018508D01*
X025266Y018508D02*
X024926Y018508D01*
X025266Y018508D02*
X025266Y018735D01*
X025096Y019245D02*
X025096Y019471D01*
X025266Y019613D02*
X024926Y019613D01*
X024926Y019783D01*
X024982Y019840D01*
X025209Y019840D01*
X025266Y019783D01*
X025266Y019613D01*
X025266Y019981D02*
X025266Y020095D01*
X025266Y020038D02*
X024926Y020038D01*
X024926Y019981D02*
X024926Y020095D01*
X024982Y020227D02*
X024926Y020283D01*
X024926Y020397D01*
X024982Y020454D01*
X025039Y020454D01*
X025096Y020397D01*
X025096Y020283D01*
X025152Y020227D01*
X025209Y020227D01*
X025266Y020283D01*
X025266Y020397D01*
X025209Y020454D01*
X025266Y020595D02*
X024926Y020595D01*
X025039Y020595D02*
X025039Y020765D01*
X025096Y020822D01*
X025209Y020822D01*
X025266Y020765D01*
X025266Y020595D01*
X025266Y020963D02*
X024926Y020963D01*
X024926Y021190D01*
X024926Y021332D02*
X025152Y021332D01*
X025266Y021445D01*
X025152Y021559D01*
X024926Y021559D01*
X025096Y021559D02*
X025096Y021332D01*
X025209Y021700D02*
X025096Y021813D01*
X024926Y021813D01*
X025096Y021813D02*
X025209Y021927D01*
X025266Y021927D01*
X025266Y021700D02*
X025209Y021700D01*
X025209Y017998D02*
X024982Y017998D01*
X024926Y017942D01*
X024926Y017828D01*
X024982Y017771D01*
X025209Y017771D01*
X025266Y017828D01*
X025266Y017942D01*
X025209Y017998D01*
X023605Y011675D02*
X023379Y011675D01*
X023265Y011562D01*
X023379Y011448D01*
X023605Y011448D01*
X023605Y011307D02*
X023605Y011080D01*
X023605Y011193D02*
X023265Y011193D01*
X023265Y010939D02*
X023265Y010712D01*
X023605Y010712D01*
X015989Y009064D02*
X015989Y008950D01*
X015932Y008894D01*
X015706Y008894D01*
X015649Y008950D01*
X015649Y009064D01*
X015706Y009120D01*
X015819Y009120D01*
X015819Y009007D01*
X015932Y009120D02*
X015989Y009064D01*
X015876Y008752D02*
X015649Y008752D01*
X015819Y008752D02*
X015819Y008525D01*
X015876Y008525D02*
X015989Y008639D01*
X015876Y008752D01*
X015876Y008525D02*
X015649Y008525D01*
X015649Y008270D02*
X015989Y008270D01*
X015989Y008157D02*
X015989Y008384D01*
X015989Y008015D02*
X015989Y007902D01*
X015989Y007959D02*
X015706Y007959D01*
X015649Y007902D01*
X015649Y007845D01*
X015706Y007789D01*
X006661Y008665D02*
X006661Y009005D01*
X006491Y009005D01*
X006434Y008949D01*
X006434Y008835D01*
X006491Y008778D01*
X006661Y008778D01*
X006547Y008778D02*
X006434Y008665D01*
X006292Y008722D02*
X006236Y008665D01*
X006122Y008665D01*
X006066Y008722D01*
X006066Y008778D01*
X006122Y008835D01*
X006179Y008835D01*
X006122Y008835D02*
X006066Y008892D01*
X006066Y008949D01*
X006122Y009005D01*
X006236Y009005D01*
X006292Y008949D01*
X005924Y008949D02*
X005867Y009005D01*
X005754Y009005D01*
X005697Y008949D01*
X005697Y008892D01*
X005924Y008665D01*
X005697Y008665D01*
X005359Y009243D02*
X005359Y009470D01*
X005303Y009470D01*
X005076Y009243D01*
X005019Y009243D01*
X005189Y009611D02*
X005189Y009838D01*
X005246Y009979D02*
X005359Y010093D01*
X005019Y010093D01*
X005019Y010206D02*
X005019Y009979D01*
X005076Y010348D02*
X005132Y010348D01*
X005189Y010404D01*
X005189Y010518D01*
X005132Y010574D01*
X005076Y010574D01*
X005019Y010518D01*
X005019Y010404D01*
X005076Y010348D01*
X005189Y010404D02*
X005246Y010348D01*
X005303Y010348D01*
X005359Y010404D01*
X005359Y010518D01*
X005303Y010574D01*
X005246Y010574D01*
X005189Y010518D01*
X005132Y010716D02*
X005019Y010829D01*
X005132Y010943D01*
X005359Y010943D01*
X005359Y011084D02*
X005359Y011254D01*
X005303Y011311D01*
X005076Y011311D01*
X005019Y011254D01*
X005019Y011084D01*
X005359Y011084D01*
X005359Y010716D02*
X005132Y010716D01*
X004972Y011033D02*
X004632Y011033D01*
X004632Y011260D01*
X004688Y011402D02*
X004632Y011458D01*
X004632Y011572D01*
X004688Y011629D01*
X004745Y011629D01*
X004802Y011572D01*
X004802Y011515D01*
X004802Y011572D02*
X004858Y011629D01*
X004915Y011629D01*
X004972Y011572D01*
X004972Y011458D01*
X004915Y011402D01*
X005019Y011509D02*
X005019Y011623D01*
X005076Y011679D01*
X005019Y011509D02*
X005076Y011453D01*
X005303Y011453D01*
X005359Y011509D01*
X005359Y011623D01*
X005303Y011679D01*
X004299Y012659D02*
X004242Y012602D01*
X004128Y012602D01*
X004072Y012659D01*
X003930Y012659D02*
X003874Y012602D01*
X003760Y012602D01*
X003703Y012659D01*
X003703Y012715D01*
X003760Y012772D01*
X003817Y012772D01*
X003760Y012772D02*
X003703Y012829D01*
X003703Y012886D01*
X003760Y012942D01*
X003874Y012942D01*
X003930Y012886D01*
X004072Y012886D02*
X004128Y012942D01*
X004242Y012942D01*
X004299Y012886D01*
X004299Y012659D01*
X003562Y012602D02*
X003335Y012829D01*
X003335Y012886D01*
X003392Y012942D01*
X003505Y012942D01*
X003562Y012886D01*
X003562Y012602D02*
X003335Y012602D01*
X003143Y012391D02*
X002917Y012391D01*
X002860Y012334D01*
X002860Y012220D01*
X002917Y012164D01*
X003030Y012220D02*
X003087Y012164D01*
X003143Y012164D01*
X003200Y012220D01*
X003200Y012334D01*
X003143Y012391D01*
X003030Y012391D02*
X003030Y012220D01*
X002973Y012022D02*
X002917Y012022D01*
X002860Y011966D01*
X002860Y011852D01*
X002917Y011795D01*
X002806Y011800D02*
X002750Y011800D01*
X002523Y011573D01*
X002466Y011573D01*
X002523Y011432D02*
X002580Y011432D01*
X002636Y011375D01*
X002636Y011262D01*
X002693Y011205D01*
X002750Y011205D01*
X002806Y011262D01*
X002806Y011375D01*
X002750Y011432D01*
X002860Y011484D02*
X002860Y011597D01*
X002917Y011654D01*
X002806Y011573D02*
X002806Y011800D01*
X002693Y011942D02*
X002806Y012055D01*
X002466Y012055D01*
X002466Y011942D02*
X002466Y012168D01*
X002973Y012022D02*
X003030Y011966D01*
X003030Y011909D01*
X003030Y011966D02*
X003087Y012022D01*
X003143Y012022D01*
X003200Y011966D01*
X003200Y011852D01*
X003143Y011795D01*
X003143Y011654D02*
X003200Y011597D01*
X003200Y011484D01*
X003143Y011427D01*
X002917Y011427D01*
X002860Y011484D01*
X002863Y011318D02*
X002410Y011318D01*
X002466Y011262D02*
X002466Y011375D01*
X002523Y011432D01*
X002466Y011262D02*
X002523Y011205D01*
X002523Y011063D02*
X002806Y011063D01*
X002806Y010837D02*
X002523Y010837D01*
X002466Y010893D01*
X002466Y011007D01*
X002523Y011063D01*
X002720Y010619D02*
X002663Y010562D01*
X002663Y010449D01*
X002720Y010392D01*
X002776Y010392D01*
X002833Y010449D01*
X002833Y010562D01*
X002776Y010619D01*
X002720Y010619D01*
X002833Y010562D02*
X002890Y010619D01*
X002947Y010619D01*
X003003Y010562D01*
X003003Y010449D01*
X002947Y010392D01*
X002890Y010392D01*
X002833Y010449D01*
X002663Y010251D02*
X002663Y010024D01*
X002663Y010137D02*
X003003Y010137D01*
X002890Y010024D01*
X002947Y009882D02*
X002833Y009882D01*
X002776Y009826D01*
X002776Y009656D01*
X002663Y009656D02*
X003003Y009656D01*
X003003Y009826D01*
X002947Y009882D01*
X002776Y009769D02*
X002663Y009882D01*
X002743Y008727D02*
X002517Y008727D01*
X002460Y008670D01*
X002460Y008556D01*
X002517Y008500D01*
X002743Y008727D01*
X002800Y008670D01*
X002800Y008556D01*
X002743Y008500D01*
X002517Y008500D01*
X002630Y008358D02*
X002630Y008131D01*
X002800Y008302D01*
X002460Y008302D01*
X002517Y007990D02*
X002460Y007933D01*
X002460Y007820D01*
X002517Y007763D01*
X002743Y007763D01*
X002800Y007820D01*
X002800Y007933D01*
X002743Y007990D01*
X002019Y007413D02*
X001849Y007243D01*
X001849Y007469D01*
X001679Y007413D02*
X002019Y007413D01*
X001849Y007101D02*
X001849Y006874D01*
X002019Y007044D01*
X001679Y007044D01*
X001679Y006733D02*
X001792Y006619D01*
X001792Y006676D02*
X001792Y006506D01*
X001679Y006506D02*
X002019Y006506D01*
X002019Y006676D01*
X001962Y006733D01*
X001849Y006733D01*
X001792Y006676D01*
X001416Y007250D02*
X001416Y007421D01*
X001359Y007477D01*
X001246Y007477D01*
X001189Y007421D01*
X001189Y007250D01*
X001076Y007250D02*
X001416Y007250D01*
X001189Y007364D02*
X001076Y007477D01*
X001132Y007619D02*
X001076Y007675D01*
X001076Y007789D01*
X001132Y007846D01*
X001359Y007846D01*
X001416Y007789D01*
X001416Y007675D01*
X001359Y007619D01*
X001303Y007619D01*
X001246Y007675D01*
X001246Y007846D01*
X002604Y006249D02*
X002548Y006193D01*
X002775Y005966D01*
X002718Y005909D01*
X002604Y005909D01*
X002548Y005966D01*
X002548Y006193D01*
X002604Y006249D02*
X002718Y006249D01*
X002775Y006193D01*
X002775Y005966D01*
X002916Y005966D02*
X002973Y005909D01*
X003086Y005909D01*
X003143Y005966D01*
X003143Y006079D02*
X003029Y006136D01*
X002973Y006136D01*
X002916Y006079D01*
X002916Y005966D01*
X003143Y006079D02*
X003143Y006249D01*
X002916Y006249D01*
X003284Y006193D02*
X003284Y006079D01*
X003341Y006022D01*
X003511Y006022D01*
X003511Y005909D02*
X003511Y006249D01*
X003341Y006249D01*
X003284Y006193D01*
X003398Y006022D02*
X003284Y005909D01*
X004232Y006639D02*
X004288Y006582D01*
X004515Y006582D01*
X004572Y006639D01*
X004572Y006752D01*
X004515Y006809D01*
X004402Y006950D02*
X004402Y007177D01*
X004572Y007121D02*
X004402Y006950D01*
X004288Y006809D02*
X004232Y006752D01*
X004232Y006639D01*
X004232Y007121D02*
X004572Y007121D01*
X004515Y007319D02*
X004572Y007375D01*
X004572Y007489D01*
X004515Y007546D01*
X004458Y007546D01*
X004232Y007319D01*
X004232Y007546D01*
X004319Y007681D02*
X004546Y007681D01*
X004433Y007681D02*
X004433Y008021D01*
X004546Y007908D01*
X004688Y007908D02*
X004744Y007851D01*
X004688Y007794D01*
X004688Y007737D01*
X004744Y007681D01*
X004858Y007681D01*
X004914Y007737D01*
X005056Y007681D02*
X005169Y007794D01*
X005113Y007794D02*
X005283Y007794D01*
X005283Y007681D02*
X005283Y008021D01*
X005113Y008021D01*
X005056Y007964D01*
X005056Y007851D01*
X005113Y007794D01*
X004914Y007964D02*
X004858Y008021D01*
X004744Y008021D01*
X004688Y007964D01*
X004688Y007908D01*
X004744Y007851D02*
X004801Y007851D01*
X002350Y012608D02*
X002236Y012608D01*
X002179Y012665D01*
X002038Y012665D02*
X001981Y012608D01*
X001868Y012608D01*
X001811Y012665D01*
X001811Y012722D01*
X001868Y012778D01*
X001924Y012778D01*
X001868Y012778D02*
X001811Y012835D01*
X001811Y012892D01*
X001868Y012949D01*
X001981Y012949D01*
X002038Y012892D01*
X002179Y012892D02*
X002236Y012949D01*
X002350Y012949D01*
X002406Y012892D01*
X002406Y012665D01*
X002350Y012608D01*
X002299Y013193D02*
X002185Y013193D01*
X002129Y013249D01*
X001987Y013249D02*
X001930Y013193D01*
X001817Y013193D01*
X001760Y013249D01*
X001760Y013363D01*
X001817Y013419D01*
X001874Y013419D01*
X001987Y013363D01*
X001987Y013533D01*
X001760Y013533D01*
X001625Y013623D02*
X001625Y013396D01*
X001625Y013623D02*
X001569Y013623D01*
X001342Y013396D01*
X001285Y013396D01*
X001285Y013623D01*
X001285Y013764D02*
X001285Y013991D01*
X001285Y013877D02*
X001625Y013877D01*
X001512Y013764D01*
X002129Y013476D02*
X002185Y013533D01*
X002299Y013533D01*
X002355Y013476D01*
X002355Y013249D01*
X002299Y013193D01*
X001670Y012778D02*
X001499Y012778D01*
X001443Y012722D01*
X001443Y012665D01*
X001499Y012608D01*
X001613Y012608D01*
X001670Y012665D01*
X001670Y012778D01*
X001556Y012892D01*
X001443Y012949D01*
X001957Y015161D02*
X002184Y015161D01*
X002071Y015161D02*
X002071Y015501D01*
X002184Y015388D01*
X002325Y015445D02*
X002325Y015331D01*
X002382Y015274D01*
X002552Y015274D01*
X002552Y015161D02*
X002552Y015501D01*
X002382Y015501D01*
X002325Y015445D01*
X002439Y015274D02*
X002325Y015161D01*
X002376Y020679D02*
X002490Y020793D01*
X002433Y020793D02*
X002603Y020793D01*
X002603Y020679D02*
X002603Y021019D01*
X002433Y021019D01*
X002376Y020963D01*
X002376Y020849D01*
X002433Y020793D01*
X002235Y020849D02*
X002121Y020906D01*
X002065Y020906D01*
X002008Y020849D01*
X002008Y020736D01*
X002065Y020679D01*
X002178Y020679D01*
X002235Y020736D01*
X002235Y020849D02*
X002235Y021019D01*
X002008Y021019D01*
X002008Y021270D02*
X002235Y021270D01*
X002008Y021497D01*
X002008Y021553D01*
X002065Y021610D01*
X002178Y021610D01*
X002235Y021553D01*
X002376Y021553D02*
X002376Y021440D01*
X002433Y021383D01*
X002603Y021383D01*
X002603Y021270D02*
X002603Y021610D01*
X002433Y021610D01*
X002376Y021553D01*
X002490Y021383D02*
X002376Y021270D01*
X002376Y021860D02*
X002490Y021974D01*
X002433Y021974D02*
X002603Y021974D01*
X002603Y021860D02*
X002603Y022201D01*
X002433Y022201D01*
X002376Y022144D01*
X002376Y022030D01*
X002433Y021974D01*
X002235Y021917D02*
X002178Y021860D01*
X002065Y021860D01*
X002008Y021917D01*
X002008Y021974D01*
X002065Y022030D01*
X002121Y022030D01*
X002065Y022030D02*
X002008Y022087D01*
X002008Y022144D01*
X002065Y022201D01*
X002178Y022201D01*
X002235Y022144D01*
X002376Y022451D02*
X002490Y022564D01*
X002433Y022564D02*
X002603Y022564D01*
X002603Y022451D02*
X002603Y022791D01*
X002433Y022791D01*
X002376Y022734D01*
X002376Y022621D01*
X002433Y022564D01*
X002235Y022621D02*
X002008Y022621D01*
X002065Y022451D02*
X002065Y022791D01*
X002235Y022621D01*
X002235Y023041D02*
X002008Y023041D01*
X002235Y023041D02*
X002008Y023268D01*
X002008Y023325D01*
X002065Y023382D01*
X002178Y023382D01*
X002235Y023325D01*
X002376Y023325D02*
X002433Y023382D01*
X002546Y023382D01*
X002603Y023325D01*
X002603Y023098D01*
X002546Y023041D01*
X002433Y023041D01*
X002376Y023098D01*
X002433Y023632D02*
X002376Y023689D01*
X002433Y023632D02*
X002546Y023632D01*
X002603Y023689D01*
X002603Y023915D01*
X002546Y023972D01*
X002433Y023972D01*
X002376Y023915D01*
X002235Y023915D02*
X002178Y023972D01*
X002065Y023972D01*
X002008Y023915D01*
X002008Y023859D01*
X002065Y023802D01*
X002008Y023745D01*
X002008Y023689D01*
X002065Y023632D01*
X002178Y023632D01*
X002235Y023689D01*
X002121Y023802D02*
X002065Y023802D01*
X002065Y024222D02*
X002065Y024563D01*
X002235Y024393D01*
X002008Y024393D01*
X002376Y024506D02*
X002433Y024563D01*
X002546Y024563D01*
X002603Y024506D01*
X002603Y024279D01*
X002546Y024222D01*
X002433Y024222D01*
X002376Y024279D01*
X002433Y024813D02*
X002376Y024870D01*
X002433Y024813D02*
X002546Y024813D01*
X002603Y024870D01*
X002603Y025097D01*
X002546Y025153D01*
X002433Y025153D01*
X002376Y025097D01*
X002235Y025040D02*
X002121Y025153D01*
X002121Y024813D01*
X002008Y024813D02*
X002235Y024813D01*
X001569Y024005D02*
X001512Y024005D01*
X001455Y023948D01*
X001455Y023835D01*
X001512Y023778D01*
X001569Y023778D01*
X001625Y023835D01*
X001625Y023948D01*
X001569Y024005D01*
X001455Y023948D02*
X001399Y024005D01*
X001342Y024005D01*
X001285Y023948D01*
X001285Y023835D01*
X001342Y023778D01*
X001399Y023778D01*
X001455Y023835D01*
X001512Y023636D02*
X001569Y023636D01*
X001625Y023580D01*
X001625Y023466D01*
X001569Y023410D01*
X001569Y023268D02*
X001625Y023211D01*
X001625Y023098D01*
X001569Y023041D01*
X001342Y023041D01*
X001285Y023098D01*
X001285Y023211D01*
X001342Y023268D01*
X001285Y023410D02*
X001285Y023636D01*
X001285Y023410D02*
X001512Y023636D01*
X001399Y022430D02*
X001455Y022373D01*
X001455Y022203D01*
X001342Y022203D01*
X001285Y022260D01*
X001285Y022373D01*
X001342Y022430D01*
X001399Y022430D01*
X001569Y022317D02*
X001455Y022203D01*
X001569Y022317D02*
X001625Y022430D01*
X001625Y021948D02*
X001285Y021948D01*
X001285Y021835D02*
X001285Y022062D01*
X001512Y021835D02*
X001625Y021948D01*
X001569Y021693D02*
X001625Y021637D01*
X001625Y021523D01*
X001569Y021467D01*
X001342Y021467D01*
X001285Y021523D01*
X001285Y021637D01*
X001342Y021693D01*
X004618Y021160D02*
X004618Y020933D01*
X004674Y020876D01*
X004845Y020876D01*
X004845Y021216D01*
X004674Y021216D01*
X004618Y021160D01*
X004986Y021216D02*
X005213Y021216D01*
X005213Y020876D01*
X004986Y020876D01*
X005099Y021046D02*
X005213Y021046D01*
X005354Y020876D02*
X005581Y020876D01*
X005581Y021216D01*
X005723Y021160D02*
X005779Y021216D01*
X005893Y021216D01*
X005950Y021160D01*
X005950Y020933D01*
X005893Y020876D01*
X005779Y020876D01*
X005723Y020933D01*
X005723Y021160D01*
X006221Y023825D02*
X006334Y023938D01*
X006221Y024052D01*
X006561Y024052D01*
X006448Y024193D02*
X006561Y024306D01*
X006448Y024420D01*
X006221Y024420D01*
X006221Y024561D02*
X006561Y024561D01*
X006391Y024618D02*
X006221Y024788D01*
X006221Y024930D02*
X006221Y025156D01*
X006278Y025298D02*
X006221Y025355D01*
X006221Y025468D01*
X006278Y025525D01*
X006561Y025525D01*
X006561Y025666D02*
X006561Y025836D01*
X006504Y025893D01*
X006391Y025893D01*
X006334Y025836D01*
X006334Y025666D01*
X006221Y025666D02*
X006561Y025666D01*
X006561Y025298D02*
X006278Y025298D01*
X006391Y025043D02*
X006391Y024930D01*
X006561Y024930D02*
X006221Y024930D01*
X006561Y024930D02*
X006561Y025156D01*
X006561Y024788D02*
X006334Y024561D01*
X006391Y024420D02*
X006391Y024193D01*
X006448Y024193D02*
X006221Y024193D01*
X006221Y023825D02*
X006561Y023825D01*
X008969Y027257D02*
X008969Y027427D01*
X009026Y027484D01*
X009082Y027484D01*
X009139Y027427D01*
X009139Y027257D01*
X009139Y027427D02*
X009196Y027484D01*
X009253Y027484D01*
X009309Y027427D01*
X009309Y027257D01*
X008969Y027257D01*
X009026Y027625D02*
X008969Y027682D01*
X008969Y027795D01*
X009026Y027852D01*
X009309Y027852D01*
X009309Y027993D02*
X009309Y028220D01*
X009309Y028107D02*
X008969Y028107D01*
X008969Y028475D02*
X009309Y028475D01*
X009309Y028362D02*
X009309Y028589D01*
X009253Y028730D02*
X009309Y028787D01*
X009309Y028900D01*
X009253Y028957D01*
X009026Y028957D01*
X008969Y028900D01*
X008969Y028787D01*
X009026Y028730D01*
X009253Y028730D01*
X009309Y029098D02*
X008969Y029325D01*
X009309Y029325D01*
X009139Y029467D02*
X009139Y029693D01*
X009253Y029835D02*
X009309Y029892D01*
X009309Y030005D01*
X009253Y030062D01*
X009196Y030062D01*
X008969Y029835D01*
X008969Y030062D01*
X008969Y029098D02*
X009309Y029098D01*
X009309Y027625D02*
X009026Y027625D01*
X012560Y027682D02*
X012560Y027795D01*
X012616Y027852D01*
X012900Y027852D01*
X012900Y027993D02*
X012900Y028220D01*
X012900Y028107D02*
X012560Y028107D01*
X012560Y028475D02*
X012900Y028475D01*
X012900Y028362D02*
X012900Y028589D01*
X012843Y028730D02*
X012616Y028730D01*
X012560Y028787D01*
X012560Y028900D01*
X012616Y028957D01*
X012843Y028957D01*
X012900Y028900D01*
X012900Y028787D01*
X012843Y028730D01*
X012900Y029098D02*
X012560Y029325D01*
X012900Y029325D01*
X012730Y029467D02*
X012730Y029693D01*
X012786Y029835D02*
X012900Y029948D01*
X012560Y029948D01*
X012560Y029835D02*
X012560Y030062D01*
X012560Y029098D02*
X012900Y029098D01*
X012560Y027682D02*
X012616Y027625D01*
X012900Y027625D01*
X012843Y027484D02*
X012786Y027484D01*
X012730Y027427D01*
X012730Y027257D01*
X012560Y027257D02*
X012900Y027257D01*
X012900Y027427D01*
X012843Y027484D01*
X012730Y027427D02*
X012673Y027484D01*
X012616Y027484D01*
X012560Y027427D01*
X012560Y027257D01*
X013693Y027248D02*
X013693Y027021D01*
X013920Y027248D01*
X013977Y027248D01*
X014033Y027191D01*
X014033Y027078D01*
X013977Y027021D01*
X014033Y026880D02*
X014033Y026653D01*
X013863Y026653D01*
X013920Y026766D01*
X013920Y026823D01*
X013863Y026880D01*
X013750Y026880D01*
X013693Y026823D01*
X013693Y026710D01*
X013750Y026653D01*
X013693Y026511D02*
X013806Y026398D01*
X013806Y026455D02*
X013806Y026285D01*
X013693Y026285D02*
X014033Y026285D01*
X014033Y026455D01*
X013977Y026511D01*
X013863Y026511D01*
X013806Y026455D01*
X014927Y026418D02*
X015040Y026304D01*
X015040Y026361D02*
X015040Y026191D01*
X014927Y026191D02*
X015267Y026191D01*
X015267Y026361D01*
X015210Y026418D01*
X015097Y026418D01*
X015040Y026361D01*
X014984Y026559D02*
X014927Y026616D01*
X014927Y026729D01*
X014984Y026786D01*
X015040Y026786D01*
X015097Y026729D01*
X015097Y026559D01*
X014984Y026559D01*
X015097Y026559D02*
X015210Y026673D01*
X015267Y026786D01*
X015210Y026928D02*
X015267Y026984D01*
X015267Y027098D01*
X015210Y027154D01*
X014984Y026928D01*
X014927Y026984D01*
X014927Y027098D01*
X014984Y027154D01*
X015210Y027154D01*
X015210Y026928D02*
X014984Y026928D01*
X015831Y026942D02*
X015831Y026716D01*
X016171Y026716D01*
X016171Y026942D01*
X016115Y027084D02*
X016058Y027084D01*
X016001Y027141D01*
X016001Y027254D01*
X015945Y027311D01*
X015888Y027311D01*
X015831Y027254D01*
X015831Y027141D01*
X015888Y027084D01*
X016115Y027084D02*
X016171Y027141D01*
X016171Y027254D01*
X016115Y027311D01*
X016171Y027452D02*
X015831Y027452D01*
X015831Y027679D01*
X016001Y027566D02*
X016001Y027452D01*
X016171Y027452D02*
X016171Y027679D01*
X016171Y027821D02*
X016171Y028047D01*
X016171Y027934D02*
X015831Y027934D01*
X016001Y026829D02*
X016001Y026716D01*
X016001Y026574D02*
X015945Y026517D01*
X015945Y026347D01*
X015945Y026461D02*
X015831Y026574D01*
X016001Y026574D02*
X016115Y026574D01*
X016171Y026517D01*
X016171Y026347D01*
X015831Y026347D01*
X036245Y014547D02*
X036358Y014660D01*
X038673Y013623D02*
X038673Y013396D01*
X038673Y013566D02*
X038900Y013566D01*
X038900Y013623D02*
X038786Y013736D01*
X038673Y013623D01*
X038900Y013623D02*
X038900Y013396D01*
X039041Y013566D02*
X039268Y013566D01*
X039409Y013566D02*
X039636Y013566D01*
X039636Y013396D02*
X039636Y013736D01*
X039778Y013679D02*
X039835Y013736D01*
X039948Y013736D01*
X040005Y013679D01*
X040005Y013452D01*
X039948Y013396D01*
X039835Y013396D01*
X039778Y013452D01*
X039409Y013396D02*
X039409Y013736D01*
X038824Y003697D02*
X038653Y003697D01*
X038597Y003640D01*
X038597Y003526D01*
X038653Y003470D01*
X038824Y003470D01*
X038824Y003356D02*
X038824Y003697D01*
X038710Y003470D02*
X038597Y003356D01*
X038455Y003413D02*
X038399Y003356D01*
X038285Y003356D01*
X038228Y003413D01*
X038228Y003470D01*
X038285Y003526D01*
X038455Y003526D01*
X038455Y003413D01*
X038455Y003526D02*
X038342Y003640D01*
X038228Y003697D01*
X038087Y003640D02*
X038030Y003697D01*
X037917Y003697D01*
X037860Y003640D01*
X037860Y003583D01*
X038087Y003356D01*
X037860Y003356D01*
X037686Y002799D02*
X037742Y002743D01*
X037742Y002516D01*
X037686Y002459D01*
X037572Y002459D01*
X037515Y002516D01*
X037374Y002459D02*
X037374Y002799D01*
X037515Y002743D02*
X037572Y002799D01*
X037686Y002799D01*
X037374Y002629D02*
X037147Y002629D01*
X037006Y002629D02*
X036779Y002629D01*
X036779Y002686D02*
X036779Y002459D01*
X036637Y002459D02*
X036637Y002799D01*
X036467Y002799D01*
X036410Y002743D01*
X036410Y002629D01*
X036467Y002572D01*
X036637Y002572D01*
X036524Y002572D02*
X036410Y002459D01*
X036269Y002516D02*
X036212Y002459D01*
X036099Y002459D01*
X036042Y002516D01*
X036042Y002629D01*
X036156Y002629D01*
X036269Y002516D02*
X036269Y002743D01*
X036212Y002799D01*
X036099Y002799D01*
X036042Y002743D01*
X035901Y002799D02*
X035901Y002459D01*
X035674Y002459D01*
X035787Y002629D02*
X035901Y002629D01*
X035901Y002799D02*
X035674Y002799D01*
X036779Y002686D02*
X036892Y002799D01*
X037006Y002686D01*
X037006Y002459D01*
X037147Y002459D02*
X037147Y002799D01*
D13*
X004026Y009330D02*
X003758Y009330D01*
X003954Y010196D02*
X003956Y010211D01*
X003962Y010225D01*
X003972Y010237D01*
X003984Y010246D01*
X003999Y010251D01*
X004014Y010252D01*
X004029Y010249D01*
X004042Y010242D01*
X004053Y010231D01*
X004061Y010218D01*
X004065Y010204D01*
X004065Y010188D01*
X004061Y010174D01*
X004053Y010161D01*
X004042Y010150D01*
X004029Y010143D01*
X004014Y010140D01*
X003999Y010141D01*
X003984Y010146D01*
X003972Y010155D01*
X003962Y010167D01*
X003956Y010181D01*
X003954Y010196D01*
X004026Y010362D02*
X003758Y010362D01*
D14*
X002357Y011263D02*
X002357Y011531D01*
X001944Y011136D02*
X001737Y011136D01*
X001326Y011263D02*
X001326Y011531D01*
X001435Y011515D02*
X001437Y011530D01*
X001443Y011544D01*
X001453Y011556D01*
X001465Y011565D01*
X001480Y011570D01*
X001495Y011571D01*
X001510Y011568D01*
X001523Y011561D01*
X001534Y011550D01*
X001542Y011537D01*
X001546Y011523D01*
X001546Y011507D01*
X001542Y011493D01*
X001534Y011480D01*
X001523Y011469D01*
X001510Y011462D01*
X001495Y011459D01*
X001480Y011460D01*
X001465Y011465D01*
X001453Y011474D01*
X001443Y011486D01*
X001437Y011500D01*
X001435Y011515D01*
X001764Y012227D02*
X001921Y012227D01*
X001921Y012542D02*
X001764Y012542D01*
X002339Y013735D02*
X002536Y013735D01*
X002536Y014178D02*
X002339Y014178D01*
X001612Y014668D02*
X001612Y014825D01*
X001297Y014825D02*
X001297Y014668D01*
X002355Y014983D02*
X002512Y014983D01*
X002512Y015298D02*
X002355Y015298D01*
X002360Y015567D02*
X002518Y015567D01*
X002518Y015882D02*
X002360Y015882D01*
X002360Y016158D02*
X002518Y016158D01*
X002518Y016473D02*
X002360Y016473D01*
X002360Y016749D02*
X002518Y016749D01*
X002518Y017064D02*
X002360Y017064D01*
X002355Y017345D02*
X002512Y017345D01*
X002512Y017660D02*
X002355Y017660D01*
X002355Y017936D02*
X002512Y017936D01*
X002512Y018251D02*
X002355Y018251D01*
X002355Y018526D02*
X002512Y018526D01*
X002512Y018841D02*
X002355Y018841D01*
X002355Y019117D02*
X002512Y019117D01*
X002512Y019432D02*
X002355Y019432D01*
X002355Y019707D02*
X002512Y019707D01*
X002512Y020022D02*
X002355Y020022D01*
X003999Y020194D02*
X003999Y020431D01*
X005082Y020431D01*
X004976Y019960D02*
X006157Y019960D01*
X006550Y022322D01*
X010605Y022322D01*
X010606Y022322D02*
X010606Y023897D01*
X024779Y023897D01*
X024779Y009724D01*
X010606Y009724D01*
X010606Y011299D01*
X010605Y011299D02*
X006550Y011299D01*
X006157Y013661D01*
X004976Y013661D01*
X004976Y019960D01*
X004344Y019663D02*
X004346Y019682D01*
X004352Y019700D01*
X004362Y019716D01*
X004375Y019730D01*
X004391Y019741D01*
X004408Y019748D01*
X004427Y019751D01*
X004446Y019750D01*
X004465Y019745D01*
X004481Y019736D01*
X004496Y019724D01*
X004507Y019708D01*
X004515Y019691D01*
X004519Y019673D01*
X004519Y019653D01*
X004515Y019635D01*
X004507Y019618D01*
X004496Y019602D01*
X004481Y019590D01*
X004465Y019581D01*
X004446Y019576D01*
X004427Y019575D01*
X004408Y019578D01*
X004391Y019585D01*
X004375Y019596D01*
X004362Y019610D01*
X004352Y019626D01*
X004346Y019644D01*
X004344Y019663D01*
X004098Y019860D02*
X004098Y020194D01*
X003999Y020194D01*
X005951Y020095D02*
X006101Y019945D01*
X005951Y020095D02*
X006101Y020255D01*
X006106Y020431D02*
X005968Y020431D01*
X006106Y020431D02*
X006106Y013187D01*
X005968Y013187D01*
X005082Y013187D02*
X003999Y013187D01*
X003999Y013423D01*
X004098Y013423D01*
X004098Y013757D01*
X003896Y012536D02*
X003738Y012536D01*
X003738Y012221D02*
X003896Y012221D01*
X003896Y011945D02*
X003738Y011945D01*
X003738Y011630D02*
X003896Y011630D01*
X001945Y010438D02*
X001748Y010438D01*
X001748Y009995D02*
X001945Y009995D01*
X003321Y009060D02*
X003518Y009060D01*
X003518Y008617D02*
X003321Y008617D01*
X003542Y008205D02*
X003699Y008205D01*
X003699Y007890D02*
X003542Y007890D01*
X003457Y007142D02*
X003457Y006985D01*
X003181Y006985D02*
X003181Y007142D01*
X002866Y007142D02*
X002866Y006985D01*
X002597Y006991D02*
X002597Y007148D01*
X002282Y007148D02*
X002282Y006991D01*
X003772Y006985D02*
X003772Y007142D01*
X004723Y008678D02*
X004880Y008678D01*
X004880Y008993D02*
X004723Y008993D01*
X001612Y016046D02*
X001612Y016203D01*
X001297Y016203D02*
X001297Y016046D01*
X001297Y017621D02*
X001297Y017778D01*
X001612Y017778D02*
X001612Y017621D01*
X004956Y024389D02*
X004956Y025570D01*
X005822Y025570D02*
X005822Y024389D01*
X007739Y028055D02*
X007739Y029236D01*
X008606Y029236D02*
X008606Y028055D01*
X011330Y028055D02*
X011330Y029236D01*
X012196Y029236D02*
X012196Y028055D01*
X014815Y025449D02*
X014815Y025292D01*
X015130Y025292D02*
X015130Y025449D01*
X015586Y025767D02*
X015586Y024586D01*
X016452Y024586D02*
X016452Y025767D01*
X026764Y017069D02*
X026921Y017069D01*
X026921Y016754D02*
X026764Y016754D01*
X027669Y016591D02*
X027669Y016434D01*
X027984Y016434D02*
X027984Y016591D01*
X027906Y015495D02*
X027748Y015495D01*
X027748Y015180D02*
X027906Y015180D01*
X029132Y015174D02*
X029290Y015174D01*
X029290Y015489D02*
X029132Y015489D01*
X033266Y013717D02*
X033423Y013717D01*
X033423Y013402D02*
X033266Y013402D01*
X034053Y014583D02*
X034211Y014583D01*
X034211Y014898D02*
X034053Y014898D01*
X034250Y017536D02*
X034408Y017536D01*
X034408Y017851D02*
X034250Y017851D01*
X033817Y018126D02*
X033660Y018126D01*
X033660Y018441D02*
X033817Y018441D01*
X037709Y016394D02*
X037709Y016237D01*
X038024Y016237D02*
X038024Y016394D01*
X025625Y011751D02*
X025625Y009862D01*
X025035Y009862D01*
X023735Y009862D01*
X023735Y011751D01*
X025035Y011751D01*
X025625Y011751D01*
X038181Y003290D02*
X038339Y003290D01*
X038339Y002975D02*
X038181Y002975D01*
D15*
X002810Y004901D02*
X002813Y004974D01*
X002823Y005047D01*
X002840Y005119D01*
X002863Y005188D01*
X002892Y005256D01*
X002927Y005320D01*
X002968Y005381D01*
X003015Y005438D01*
X003066Y005491D01*
X003122Y005538D01*
X003182Y005581D01*
X003246Y005618D01*
X003312Y005648D01*
X003382Y005673D01*
X003453Y005691D01*
X003525Y005703D01*
X003599Y005708D01*
X003672Y005706D01*
X003745Y005698D01*
X003817Y005683D01*
X003887Y005661D01*
X003955Y005634D01*
X004020Y005600D01*
X004082Y005560D01*
X004140Y005515D01*
X004194Y005465D01*
X004243Y005410D01*
X004287Y005351D01*
X004325Y005288D01*
X004357Y005223D01*
X004383Y005154D01*
X004403Y005083D01*
X004416Y005011D01*
X004423Y004938D01*
X004423Y004864D01*
X004416Y004791D01*
X004403Y004719D01*
X004383Y004648D01*
X004357Y004579D01*
X004325Y004514D01*
X004287Y004451D01*
X004243Y004392D01*
X004194Y004337D01*
X004140Y004287D01*
X004082Y004242D01*
X004021Y004202D01*
X003955Y004168D01*
X003887Y004141D01*
X003817Y004119D01*
X003745Y004104D01*
X003672Y004096D01*
X003599Y004094D01*
X003525Y004099D01*
X003453Y004111D01*
X003382Y004129D01*
X003312Y004154D01*
X003246Y004184D01*
X003182Y004221D01*
X003122Y004264D01*
X003066Y004311D01*
X003015Y004364D01*
X002968Y004421D01*
X002927Y004482D01*
X002892Y004546D01*
X002863Y004614D01*
X002840Y004683D01*
X002823Y004755D01*
X002813Y004828D01*
X002810Y004901D01*
X010881Y008641D02*
X010884Y008714D01*
X010894Y008787D01*
X010911Y008859D01*
X010934Y008928D01*
X010963Y008996D01*
X010998Y009060D01*
X011039Y009121D01*
X011086Y009178D01*
X011137Y009231D01*
X011193Y009278D01*
X011253Y009321D01*
X011317Y009358D01*
X011383Y009388D01*
X011453Y009413D01*
X011524Y009431D01*
X011596Y009443D01*
X011670Y009448D01*
X011743Y009446D01*
X011816Y009438D01*
X011888Y009423D01*
X011958Y009401D01*
X012026Y009374D01*
X012091Y009340D01*
X012153Y009300D01*
X012211Y009255D01*
X012265Y009205D01*
X012314Y009150D01*
X012358Y009091D01*
X012396Y009028D01*
X012428Y008963D01*
X012454Y008894D01*
X012474Y008823D01*
X012487Y008751D01*
X012494Y008678D01*
X012494Y008604D01*
X012487Y008531D01*
X012474Y008459D01*
X012454Y008388D01*
X012428Y008319D01*
X012396Y008254D01*
X012358Y008191D01*
X012314Y008132D01*
X012265Y008077D01*
X012211Y008027D01*
X012153Y007982D01*
X012092Y007942D01*
X012026Y007908D01*
X011958Y007881D01*
X011888Y007859D01*
X011816Y007844D01*
X011743Y007836D01*
X011670Y007834D01*
X011596Y007839D01*
X011524Y007851D01*
X011453Y007869D01*
X011383Y007894D01*
X011317Y007924D01*
X011253Y007961D01*
X011193Y008004D01*
X011137Y008051D01*
X011086Y008104D01*
X011039Y008161D01*
X010998Y008222D01*
X010963Y008286D01*
X010934Y008354D01*
X010911Y008423D01*
X010894Y008495D01*
X010884Y008568D01*
X010881Y008641D01*
X023086Y008641D02*
X023089Y008714D01*
X023099Y008787D01*
X023116Y008859D01*
X023139Y008928D01*
X023168Y008996D01*
X023203Y009060D01*
X023244Y009121D01*
X023291Y009178D01*
X023342Y009231D01*
X023398Y009278D01*
X023458Y009321D01*
X023522Y009358D01*
X023588Y009388D01*
X023658Y009413D01*
X023729Y009431D01*
X023801Y009443D01*
X023875Y009448D01*
X023948Y009446D01*
X024021Y009438D01*
X024093Y009423D01*
X024163Y009401D01*
X024231Y009374D01*
X024296Y009340D01*
X024358Y009300D01*
X024416Y009255D01*
X024470Y009205D01*
X024519Y009150D01*
X024563Y009091D01*
X024601Y009028D01*
X024633Y008963D01*
X024659Y008894D01*
X024679Y008823D01*
X024692Y008751D01*
X024699Y008678D01*
X024699Y008604D01*
X024692Y008531D01*
X024679Y008459D01*
X024659Y008388D01*
X024633Y008319D01*
X024601Y008254D01*
X024563Y008191D01*
X024519Y008132D01*
X024470Y008077D01*
X024416Y008027D01*
X024358Y007982D01*
X024297Y007942D01*
X024231Y007908D01*
X024163Y007881D01*
X024093Y007859D01*
X024021Y007844D01*
X023948Y007836D01*
X023875Y007834D01*
X023801Y007839D01*
X023729Y007851D01*
X023658Y007869D01*
X023588Y007894D01*
X023522Y007924D01*
X023458Y007961D01*
X023398Y008004D01*
X023342Y008051D01*
X023291Y008104D01*
X023244Y008161D01*
X023203Y008222D01*
X023168Y008286D01*
X023139Y008354D01*
X023116Y008423D01*
X023099Y008495D01*
X023089Y008568D01*
X023086Y008641D01*
X036669Y004901D02*
X036672Y004974D01*
X036682Y005047D01*
X036699Y005119D01*
X036722Y005188D01*
X036751Y005256D01*
X036786Y005320D01*
X036827Y005381D01*
X036874Y005438D01*
X036925Y005491D01*
X036981Y005538D01*
X037041Y005581D01*
X037105Y005618D01*
X037171Y005648D01*
X037241Y005673D01*
X037312Y005691D01*
X037384Y005703D01*
X037458Y005708D01*
X037531Y005706D01*
X037604Y005698D01*
X037676Y005683D01*
X037746Y005661D01*
X037814Y005634D01*
X037879Y005600D01*
X037941Y005560D01*
X037999Y005515D01*
X038053Y005465D01*
X038102Y005410D01*
X038146Y005351D01*
X038184Y005288D01*
X038216Y005223D01*
X038242Y005154D01*
X038262Y005083D01*
X038275Y005011D01*
X038282Y004938D01*
X038282Y004864D01*
X038275Y004791D01*
X038262Y004719D01*
X038242Y004648D01*
X038216Y004579D01*
X038184Y004514D01*
X038146Y004451D01*
X038102Y004392D01*
X038053Y004337D01*
X037999Y004287D01*
X037941Y004242D01*
X037880Y004202D01*
X037814Y004168D01*
X037746Y004141D01*
X037676Y004119D01*
X037604Y004104D01*
X037531Y004096D01*
X037458Y004094D01*
X037384Y004099D01*
X037312Y004111D01*
X037241Y004129D01*
X037171Y004154D01*
X037105Y004184D01*
X037041Y004221D01*
X036981Y004264D01*
X036925Y004311D01*
X036874Y004364D01*
X036827Y004421D01*
X036786Y004482D01*
X036751Y004546D01*
X036722Y004614D01*
X036699Y004683D01*
X036682Y004755D01*
X036672Y004828D01*
X036669Y004901D01*
X023086Y024980D02*
X023089Y025053D01*
X023099Y025126D01*
X023116Y025198D01*
X023139Y025267D01*
X023168Y025335D01*
X023203Y025399D01*
X023244Y025460D01*
X023291Y025517D01*
X023342Y025570D01*
X023398Y025617D01*
X023458Y025660D01*
X023522Y025697D01*
X023588Y025727D01*
X023658Y025752D01*
X023729Y025770D01*
X023801Y025782D01*
X023875Y025787D01*
X023948Y025785D01*
X024021Y025777D01*
X024093Y025762D01*
X024163Y025740D01*
X024231Y025713D01*
X024296Y025679D01*
X024358Y025639D01*
X024416Y025594D01*
X024470Y025544D01*
X024519Y025489D01*
X024563Y025430D01*
X024601Y025367D01*
X024633Y025302D01*
X024659Y025233D01*
X024679Y025162D01*
X024692Y025090D01*
X024699Y025017D01*
X024699Y024943D01*
X024692Y024870D01*
X024679Y024798D01*
X024659Y024727D01*
X024633Y024658D01*
X024601Y024593D01*
X024563Y024530D01*
X024519Y024471D01*
X024470Y024416D01*
X024416Y024366D01*
X024358Y024321D01*
X024297Y024281D01*
X024231Y024247D01*
X024163Y024220D01*
X024093Y024198D01*
X024021Y024183D01*
X023948Y024175D01*
X023875Y024173D01*
X023801Y024178D01*
X023729Y024190D01*
X023658Y024208D01*
X023588Y024233D01*
X023522Y024263D01*
X023458Y024300D01*
X023398Y024343D01*
X023342Y024390D01*
X023291Y024443D01*
X023244Y024500D01*
X023203Y024561D01*
X023168Y024625D01*
X023139Y024693D01*
X023116Y024762D01*
X023099Y024834D01*
X023089Y024907D01*
X023086Y024980D01*
X010881Y024980D02*
X010884Y025053D01*
X010894Y025126D01*
X010911Y025198D01*
X010934Y025267D01*
X010963Y025335D01*
X010998Y025399D01*
X011039Y025460D01*
X011086Y025517D01*
X011137Y025570D01*
X011193Y025617D01*
X011253Y025660D01*
X011317Y025697D01*
X011383Y025727D01*
X011453Y025752D01*
X011524Y025770D01*
X011596Y025782D01*
X011670Y025787D01*
X011743Y025785D01*
X011816Y025777D01*
X011888Y025762D01*
X011958Y025740D01*
X012026Y025713D01*
X012091Y025679D01*
X012153Y025639D01*
X012211Y025594D01*
X012265Y025544D01*
X012314Y025489D01*
X012358Y025430D01*
X012396Y025367D01*
X012428Y025302D01*
X012454Y025233D01*
X012474Y025162D01*
X012487Y025090D01*
X012494Y025017D01*
X012494Y024943D01*
X012487Y024870D01*
X012474Y024798D01*
X012454Y024727D01*
X012428Y024658D01*
X012396Y024593D01*
X012358Y024530D01*
X012314Y024471D01*
X012265Y024416D01*
X012211Y024366D01*
X012153Y024321D01*
X012092Y024281D01*
X012026Y024247D01*
X011958Y024220D01*
X011888Y024198D01*
X011816Y024183D01*
X011743Y024175D01*
X011670Y024173D01*
X011596Y024178D01*
X011524Y024190D01*
X011453Y024208D01*
X011383Y024233D01*
X011317Y024263D01*
X011253Y024300D01*
X011193Y024343D01*
X011137Y024390D01*
X011086Y024443D01*
X011039Y024500D01*
X010998Y024561D01*
X010963Y024625D01*
X010934Y024693D01*
X010911Y024762D01*
X010894Y024834D01*
X010884Y024907D01*
X010881Y024980D01*
X002810Y028129D02*
X002813Y028202D01*
X002823Y028275D01*
X002840Y028347D01*
X002863Y028416D01*
X002892Y028484D01*
X002927Y028548D01*
X002968Y028609D01*
X003015Y028666D01*
X003066Y028719D01*
X003122Y028766D01*
X003182Y028809D01*
X003246Y028846D01*
X003312Y028876D01*
X003382Y028901D01*
X003453Y028919D01*
X003525Y028931D01*
X003599Y028936D01*
X003672Y028934D01*
X003745Y028926D01*
X003817Y028911D01*
X003887Y028889D01*
X003955Y028862D01*
X004020Y028828D01*
X004082Y028788D01*
X004140Y028743D01*
X004194Y028693D01*
X004243Y028638D01*
X004287Y028579D01*
X004325Y028516D01*
X004357Y028451D01*
X004383Y028382D01*
X004403Y028311D01*
X004416Y028239D01*
X004423Y028166D01*
X004423Y028092D01*
X004416Y028019D01*
X004403Y027947D01*
X004383Y027876D01*
X004357Y027807D01*
X004325Y027742D01*
X004287Y027679D01*
X004243Y027620D01*
X004194Y027565D01*
X004140Y027515D01*
X004082Y027470D01*
X004021Y027430D01*
X003955Y027396D01*
X003887Y027369D01*
X003817Y027347D01*
X003745Y027332D01*
X003672Y027324D01*
X003599Y027322D01*
X003525Y027327D01*
X003453Y027339D01*
X003382Y027357D01*
X003312Y027382D01*
X003246Y027412D01*
X003182Y027449D01*
X003122Y027492D01*
X003066Y027539D01*
X003015Y027592D01*
X002968Y027649D01*
X002927Y027710D01*
X002892Y027774D01*
X002863Y027842D01*
X002840Y027911D01*
X002823Y027983D01*
X002813Y028056D01*
X002810Y028129D01*
X036669Y028129D02*
X036672Y028202D01*
X036682Y028275D01*
X036699Y028347D01*
X036722Y028416D01*
X036751Y028484D01*
X036786Y028548D01*
X036827Y028609D01*
X036874Y028666D01*
X036925Y028719D01*
X036981Y028766D01*
X037041Y028809D01*
X037105Y028846D01*
X037171Y028876D01*
X037241Y028901D01*
X037312Y028919D01*
X037384Y028931D01*
X037458Y028936D01*
X037531Y028934D01*
X037604Y028926D01*
X037676Y028911D01*
X037746Y028889D01*
X037814Y028862D01*
X037879Y028828D01*
X037941Y028788D01*
X037999Y028743D01*
X038053Y028693D01*
X038102Y028638D01*
X038146Y028579D01*
X038184Y028516D01*
X038216Y028451D01*
X038242Y028382D01*
X038262Y028311D01*
X038275Y028239D01*
X038282Y028166D01*
X038282Y028092D01*
X038275Y028019D01*
X038262Y027947D01*
X038242Y027876D01*
X038216Y027807D01*
X038184Y027742D01*
X038146Y027679D01*
X038102Y027620D01*
X038053Y027565D01*
X037999Y027515D01*
X037941Y027470D01*
X037880Y027430D01*
X037814Y027396D01*
X037746Y027369D01*
X037676Y027347D01*
X037604Y027332D01*
X037531Y027324D01*
X037458Y027322D01*
X037384Y027327D01*
X037312Y027339D01*
X037241Y027357D01*
X037171Y027382D01*
X037105Y027412D01*
X037041Y027449D01*
X036981Y027492D01*
X036925Y027539D01*
X036874Y027592D01*
X036827Y027649D01*
X036786Y027710D01*
X036751Y027774D01*
X036722Y027842D01*
X036699Y027911D01*
X036682Y027983D01*
X036672Y028056D01*
X036669Y028129D01*
M02*
