%
M48
M72
T01C0.0150
T02C0.0256
T03C0.0315
T04C0.0453
T05C0.0476
T06C0.0591
T07C0.0634
T08C0.1236
%
T01
X6182Y5286
X8741Y6074
X9134Y6271
X9528Y6074
X9528Y6861
X10316Y5877
X11103Y5877
X11103Y4893
X11103Y4105
X11103Y3515
X11103Y3121
X11694Y3121
X11694Y3515
X12875Y3318
X13268Y3121
X13662Y3318
X14056Y3121
X16024Y3121
X16812Y3711
X16812Y4893
X17009Y5680
X17009Y6074
X16024Y5877
X17205Y7255
X17009Y7649
X18190Y7255
X18780Y7058
X19371Y7452
X18977Y7649
X19961Y8239
X20946Y7452
X21339Y6861
X22520Y6467
X23111Y6467
X22717Y7058
X21930Y5483
X21339Y5089
X20552Y5877
X20158Y5286
X19764Y5089
X20355Y4302
X20749Y3515
X19174Y3515
X18190Y3121
X18190Y5286
X18190Y8830
X17796Y9814
X17402Y9814
X16418Y8830
X15434Y9617
X18190Y11192
X18583Y10995
X18780Y11389
X18977Y11782
X18977Y12176
X18583Y12176
X18583Y12570
X19568Y12373
X19961Y12373
X20355Y12373
X20749Y12176
X20749Y10995
X20158Y10404
X21733Y10601
X22717Y10601
X23898Y10208
X24489Y10601
X25079Y10995
X25867Y9420
X25473Y8633
X26260Y8436
X27442Y7845
X28426Y7845
X29016Y7845
X30394Y7452
X31575Y8436
X33150Y8042
X33150Y7255
X34528Y8042
X35119Y7649
X35906Y7649
X35906Y8239
X35316Y6467
X33938Y5286
X35709Y4696
X33544Y3318
X32363Y3318
X31379Y3318
X30788Y3711
X29607Y3711
X29607Y4302
X28820Y4696
X29016Y5089
X28820Y5483
X29016Y5877
X27442Y5877
X26064Y5089
X25670Y4499
X26260Y3318
X28229Y3318
X25079Y5877
X24292Y5286
X25276Y7058
X26064Y7058
X27048Y9814
X28820Y10404
X28820Y10995
X29804Y10601
X30197Y10011
X31969Y10601
X33347Y9420
X33741Y9814
X34725Y10404
X35119Y10011
X36300Y10404
X34725Y11586
X34725Y12176
X34725Y13160
X34922Y13554
X34134Y14145
X33347Y15129
X33347Y15523
X32757Y15523
X32560Y14341
X31969Y14145
X32363Y13751
X32166Y13160
X30985Y13948
X30788Y14341
X30788Y15523
X30394Y15523
X29607Y15523
X28820Y15326
X28820Y16113
X29016Y16507
X28426Y16704
X29607Y16704
X31182Y17097
X31182Y17885
X30591Y19066
X29804Y20641
X29016Y20837
X29410Y22215
X28820Y22609
X30197Y22806
X30591Y23987
X29607Y23987
X31969Y23397
X31969Y23003
X31969Y22215
X30985Y21822
X33741Y22215
X34725Y21428
X34922Y20641
X34922Y20050
X34134Y19263
X34331Y18869
X33150Y19263
X34725Y17688
X35119Y17097
X35906Y17688
X36103Y18475
X35512Y18475
X37481Y17688
X38268Y17097
X38465Y17688
X39056Y17294
X39253Y18672
X36300Y16704
X35906Y16310
X35316Y16113
X35906Y15326
X36300Y15326
X36497Y14145
X39253Y14538
X38465Y10995
X31182Y15523
X32560Y17294
X33741Y17097
X27835Y12963
X27638Y12570
X27245Y12570
X26457Y12767
X25670Y12767
X24292Y12767
X22127Y13357
X21733Y13751
X22520Y15326
X22520Y16310
X24095Y16310
X24489Y16310
X25079Y16310
X25867Y16507
X26457Y16900
X26851Y16507
X27048Y17688
X27048Y18278
X27638Y19263
X26654Y19853
X26654Y21428
X24292Y20050
X23308Y20641
X22520Y20837
X22520Y19853
X20946Y18869
X20552Y19263
X20749Y18278
X20946Y17294
X22717Y17688
X22520Y18278
X23505Y18475
X24095Y17294
X24489Y17294
X25079Y17294
X27048Y14932
X19764Y12963
X19568Y13357
X19174Y13751
X15631Y14341
X13662Y13948
X13071Y13357
X14253Y12570
X13268Y11979
X12284Y11389
X11890Y11586
X11300Y11389
X11300Y10995
X11300Y10601
X10906Y10601
X10906Y10208
X10709Y9814
X9922Y10208
X10119Y10601
X10906Y11782
X11890Y11192
X10709Y13357
X9331Y15129
X7757Y15326
X6182Y13948
X5788Y14341
X5001Y14932
X4804Y14538
X4607Y13948
X4607Y13554
X5001Y13554
X6575Y13357
X6969Y12767
X6575Y12373
X6575Y11782
X7166Y12176
X7953Y12570
X7363Y13357
X8741Y11979
X7953Y11192
X7560Y11192
X6969Y9814
X8544Y8830
X4804Y9223
X4804Y9814
X4804Y10798
X4607Y11782
X4607Y12373
X5394Y11979
X5591Y12373
X2835Y13160
X1851Y11979
X5591Y15326
X4804Y15523
X5001Y15916
X5197Y16310
X5591Y16507
X5591Y16900
X5591Y17294
X5788Y17688
X5394Y18082
X5394Y18475
X5394Y18869
X5394Y19263
X4607Y19460
X5788Y21231
X6969Y21625
X7363Y21231
X8150Y22215
X8938Y22215
X9331Y22215
X9331Y23003
X8938Y23003
X8150Y23200
X6379Y23397
X6379Y24381
X10316Y23987
X11694Y22609
X12875Y22412
X13662Y22412
X13859Y23003
X13859Y23593
X13071Y23200
X13071Y21231
X12678Y21034
X12284Y20837
X12284Y20050
X12678Y20050
X13071Y20050
X13662Y19066
X14253Y19066
X14253Y18278
X14843Y18278
X15631Y18082
X15631Y17491
X16024Y17491
X15827Y19263
X16221Y19263
X15434Y19656
X17205Y19656
X19174Y19263
X19174Y18278
X20158Y20641
X20158Y22806
X19568Y24971
X18386Y25956
X20355Y27334
X22717Y25956
X23701Y26743
X23701Y27137
X24883Y27137
X24883Y27727
X26654Y26940
X26654Y26546
X27048Y26152
X27835Y25759
X26654Y29302
X27442Y30089
X32166Y30089
X22717Y28908
X11103Y20050
X9528Y19656
X9134Y19656
X8544Y19263
X8150Y19263
X8150Y19656
X7363Y19066
X7363Y18475
X6575Y17294
X8938Y18869
X10709Y17688
X9331Y16900
X9134Y21034
X9528Y21034
X21536Y8830
X12875Y6861
X4804Y8239
X4016Y7058
X2442Y7452
X35316Y22412
X35906Y22215
X39253Y22215
T02
X37068Y8810
X37540Y8495
X37068Y8180
X37540Y7865
X37068Y7550
T03
X35316Y3711
X34528Y3711
X26260Y10011
X26260Y10798
X26260Y11586
X15237Y8830
X14449Y8830
X13662Y8830
X13662Y8042
X14449Y8042
X15237Y8042
X8544Y10798
X39056Y24381
T04
X19469Y25680
X20257Y7334
T05
X20257Y3200
X19469Y29814
T06
X39056Y9617
X39056Y6743
T07
X22225Y7963
X17737Y7963
X17501Y25050
X21989Y25050
T08
X3623Y4893
X11694Y8633
X23898Y8633
X37481Y4893
X23898Y24971
X11694Y24971
X3623Y28121
X37481Y28121
M30
