G75*
G70*
%OFA0B0*%
%FSLAX24Y24*%
%IPPOS*%
%LPD*%
%AMOC8*
5,1,8,0,0,1.08239X$1,22.5*
%
%ADD10C,0.0070*%
%ADD11C,0.0050*%
%ADD12C,0.0060*%
%ADD13C,0.0080*%
%ADD14C,0.0100*%
%ADD15C,0.0148*%
D10*
X007398Y009330D02*
X007470Y009258D01*
X007398Y009330D02*
X007398Y009473D01*
X007470Y009545D01*
X007541Y009545D01*
X007613Y009473D01*
X007613Y009402D01*
X007613Y009473D02*
X007685Y009545D01*
X007756Y009545D01*
X007828Y009473D01*
X007828Y009330D01*
X007756Y009258D01*
X007470Y009719D02*
X007470Y009790D01*
X007398Y009790D01*
X007398Y009719D01*
X007470Y009719D01*
X007470Y009949D02*
X007398Y010021D01*
X007398Y010164D01*
X007470Y010236D01*
X007541Y010236D01*
X007613Y010164D01*
X007613Y010092D01*
X007613Y010164D02*
X007685Y010236D01*
X007756Y010236D01*
X007828Y010164D01*
X007828Y010021D01*
X007756Y009949D01*
X007828Y010409D02*
X007541Y010409D01*
X007398Y010553D01*
X007541Y010696D01*
X007828Y010696D01*
X008973Y010770D02*
X008973Y011056D01*
X008973Y010770D02*
X009403Y010770D01*
X009260Y010596D02*
X009403Y010453D01*
X009260Y010309D01*
X008973Y010309D01*
X009044Y010136D02*
X008973Y010064D01*
X008973Y009921D01*
X009044Y009849D01*
X009331Y009849D01*
X009403Y009921D01*
X009403Y010064D01*
X009331Y010136D01*
X009188Y010309D02*
X009188Y010596D01*
X009260Y010596D02*
X008973Y010596D01*
X003694Y013195D02*
X003407Y013195D01*
X003264Y013339D01*
X003407Y013482D01*
X003694Y013482D01*
X003694Y013656D02*
X003264Y013656D01*
X003264Y013871D01*
X003336Y013943D01*
X003623Y013943D01*
X003694Y013871D01*
X003694Y013656D01*
X003694Y014116D02*
X003694Y014259D01*
X003694Y014188D02*
X003264Y014188D01*
X003264Y014259D02*
X003264Y014116D01*
X003336Y014423D02*
X003264Y014495D01*
X003264Y014638D01*
X003336Y014710D01*
X003407Y014710D01*
X003479Y014638D01*
X003479Y014495D01*
X003551Y014423D01*
X003623Y014423D01*
X003694Y014495D01*
X003694Y014638D01*
X003623Y014710D01*
X003694Y014883D02*
X003264Y014883D01*
X003407Y014883D02*
X003407Y015098D01*
X003479Y015170D01*
X003623Y015170D01*
X003694Y015098D01*
X003694Y014883D01*
X015862Y005434D02*
X016006Y005578D01*
X016293Y005578D01*
X016293Y005291D02*
X016006Y005291D01*
X015862Y005434D01*
X015934Y005118D02*
X015862Y005046D01*
X015862Y004902D01*
X015934Y004831D01*
X016078Y004831D02*
X016149Y004974D01*
X016149Y005046D01*
X016078Y005118D01*
X015934Y005118D01*
X016078Y004831D02*
X016293Y004831D01*
X016293Y005118D01*
X015934Y004672D02*
X015862Y004672D01*
X015862Y004601D01*
X015934Y004601D01*
X015934Y004672D01*
X015862Y004427D02*
X015862Y004140D01*
X016149Y004427D01*
X016221Y004427D01*
X016293Y004355D01*
X016293Y004212D01*
X016221Y004140D01*
X024524Y004010D02*
X024954Y004010D01*
X024524Y004297D01*
X024954Y004297D01*
X024811Y004470D02*
X024954Y004614D01*
X024811Y004757D01*
X024524Y004757D01*
X024524Y004931D02*
X024524Y005218D01*
X024596Y005391D02*
X024524Y005463D01*
X024524Y005606D01*
X024596Y005678D01*
X024882Y005678D01*
X024954Y005606D01*
X024954Y005463D01*
X024882Y005391D01*
X024596Y005391D01*
X024596Y005851D02*
X024524Y005923D01*
X024524Y006067D01*
X024596Y006138D01*
X024739Y006138D01*
X024739Y005995D01*
X024882Y006138D02*
X024954Y006067D01*
X024954Y005923D01*
X024882Y005851D01*
X024596Y005851D01*
X024524Y004931D02*
X024954Y004931D01*
X024739Y004757D02*
X024739Y004470D01*
X024811Y004470D02*
X024524Y004470D01*
X024524Y003837D02*
X024811Y003837D01*
X024954Y003693D01*
X024811Y003550D01*
X024524Y003550D01*
X024739Y003550D02*
X024739Y003837D01*
X026492Y003818D02*
X026564Y003746D01*
X026492Y003818D02*
X026492Y003962D01*
X026564Y004033D01*
X026636Y004033D01*
X026707Y003962D01*
X026779Y004033D01*
X026851Y004033D01*
X026923Y003962D01*
X026923Y003818D01*
X026851Y003746D01*
X026707Y003890D02*
X026707Y003962D01*
X026564Y004207D02*
X026564Y004279D01*
X026492Y004279D01*
X026492Y004207D01*
X026564Y004207D01*
X026564Y004437D02*
X026492Y004509D01*
X026492Y004652D01*
X026564Y004724D01*
X026636Y004724D01*
X026707Y004652D01*
X026707Y004580D01*
X026707Y004652D02*
X026779Y004724D01*
X026851Y004724D01*
X026923Y004652D01*
X026923Y004509D01*
X026851Y004437D01*
X026923Y004897D02*
X026636Y004897D01*
X026492Y005041D01*
X026636Y005184D01*
X026923Y005184D01*
X026707Y005358D02*
X026707Y005645D01*
X026707Y005818D02*
X026707Y006105D01*
X026779Y006105D02*
X026492Y006105D01*
X026492Y006278D02*
X026492Y006565D01*
X026492Y006739D02*
X026636Y006882D01*
X026492Y007026D01*
X026923Y007026D01*
X026779Y007199D02*
X026923Y007343D01*
X026779Y007486D01*
X026492Y007486D01*
X026707Y007486D02*
X026707Y007199D01*
X026779Y007199D02*
X026492Y007199D01*
X026492Y006739D02*
X026923Y006739D01*
X026923Y006278D02*
X026492Y006278D01*
X026779Y006105D02*
X026923Y005961D01*
X026779Y005818D01*
X026492Y005818D01*
X026851Y007659D02*
X026707Y007803D01*
X026492Y007803D01*
X026707Y007803D02*
X026851Y007946D01*
X026923Y007946D01*
X026851Y008120D02*
X026923Y008192D01*
X026923Y008335D01*
X026851Y008407D01*
X026707Y008335D02*
X026636Y008407D01*
X026564Y008407D01*
X026492Y008335D01*
X026492Y008192D01*
X026564Y008120D01*
X026707Y008192D02*
X026707Y008335D01*
X026707Y008192D02*
X026779Y008120D01*
X026851Y008120D01*
X026851Y007659D02*
X026923Y007659D01*
X033185Y005271D02*
X033616Y005271D01*
X033616Y005128D02*
X033616Y005414D01*
X033616Y004954D02*
X033257Y004954D01*
X033185Y004882D01*
X033185Y004739D01*
X033257Y004667D01*
X033616Y004667D01*
X033544Y004494D02*
X033257Y004494D01*
X033185Y004422D01*
X033185Y004279D01*
X033257Y004207D01*
X033544Y004207D01*
X033616Y004279D01*
X033616Y004422D01*
X033544Y004494D01*
X033616Y004033D02*
X033329Y004033D01*
X033185Y003890D01*
X033329Y003746D01*
X033616Y003746D01*
X035744Y006502D02*
X035744Y006718D01*
X035816Y006789D01*
X036103Y006789D01*
X036175Y006718D01*
X036175Y006502D01*
X035744Y006502D01*
X035959Y006963D02*
X035959Y007250D01*
X035816Y007106D02*
X036103Y007106D01*
X036068Y008731D02*
X035638Y008731D01*
X035638Y008946D01*
X035710Y009018D01*
X035997Y009018D01*
X036068Y008946D01*
X036068Y008731D01*
X035853Y009192D02*
X035853Y009479D01*
X039484Y009083D02*
X039484Y008939D01*
X039556Y008868D01*
X039700Y008939D02*
X039700Y009083D01*
X039628Y009155D01*
X039556Y009155D01*
X039484Y009083D01*
X039700Y008939D02*
X039771Y008868D01*
X039843Y008868D01*
X039915Y008939D01*
X039915Y009083D01*
X039843Y009155D01*
X039915Y008694D02*
X039556Y008694D01*
X039484Y008623D01*
X039484Y008479D01*
X039556Y008407D01*
X039915Y008407D01*
X039843Y008234D02*
X039771Y008234D01*
X039700Y008162D01*
X039700Y007947D01*
X039628Y007774D02*
X039915Y007774D01*
X039915Y007947D02*
X039484Y007947D01*
X039484Y008162D01*
X039556Y008234D01*
X039628Y008234D01*
X039700Y008162D01*
X039843Y008234D02*
X039915Y008162D01*
X039915Y007947D01*
X039628Y007774D02*
X039484Y007630D01*
X039628Y007487D01*
X039915Y007487D01*
X039915Y005218D02*
X039915Y004931D01*
X039915Y005074D02*
X039484Y005074D01*
X039484Y004757D02*
X039771Y004757D01*
X039915Y004614D01*
X039771Y004470D01*
X039484Y004470D01*
X039556Y004297D02*
X039484Y004225D01*
X039484Y004010D01*
X039915Y004010D01*
X039915Y004225D01*
X039843Y004297D01*
X039771Y004297D01*
X039700Y004225D01*
X039700Y004010D01*
X039628Y003837D02*
X039915Y003837D01*
X039628Y003837D02*
X039484Y003693D01*
X039628Y003550D01*
X039915Y003550D01*
X039700Y004225D02*
X039628Y004297D01*
X039556Y004297D01*
X039700Y004470D02*
X039700Y004757D01*
X027120Y021660D02*
X026833Y021660D01*
X026689Y021803D01*
X026833Y021947D01*
X027120Y021947D01*
X027120Y022120D02*
X027120Y022335D01*
X027048Y022407D01*
X026904Y022407D01*
X026833Y022335D01*
X026833Y022120D01*
X026833Y022264D02*
X026689Y022407D01*
X026689Y022581D02*
X026976Y022581D01*
X027120Y022724D01*
X026976Y022867D01*
X026689Y022867D01*
X026689Y023041D02*
X027120Y023041D01*
X026976Y023184D01*
X027120Y023328D01*
X026689Y023328D01*
X026689Y023501D02*
X027120Y023501D01*
X027120Y023716D01*
X027048Y023788D01*
X026904Y023788D01*
X026833Y023716D01*
X026833Y023501D01*
X026904Y022867D02*
X026904Y022581D01*
X026689Y022120D02*
X027120Y022120D01*
X031217Y024094D02*
X031217Y024237D01*
X031288Y024309D01*
X031288Y024482D02*
X031360Y024554D01*
X031360Y024769D01*
X031432Y024769D02*
X031217Y024769D01*
X031217Y024554D01*
X031288Y024482D01*
X031504Y024554D02*
X031504Y024698D01*
X031432Y024769D01*
X031504Y024943D02*
X031504Y025158D01*
X031432Y025230D01*
X031288Y025230D01*
X031217Y025158D01*
X031217Y024943D01*
X031073Y024943D02*
X031504Y024943D01*
X032004Y025014D02*
X032004Y025230D01*
X032004Y025403D02*
X032004Y025547D01*
X032004Y025475D02*
X032291Y025475D01*
X032291Y025403D01*
X032434Y025475D02*
X032506Y025475D01*
X032434Y025710D02*
X032434Y025782D01*
X032004Y025782D01*
X032004Y025853D02*
X032004Y025710D01*
X032004Y026017D02*
X032004Y026160D01*
X032004Y026089D02*
X032434Y026089D01*
X032434Y026017D01*
X032219Y026324D02*
X032076Y026324D01*
X032004Y026396D01*
X032004Y026539D01*
X032076Y026611D01*
X032219Y026611D01*
X032291Y026539D01*
X032291Y026396D01*
X032219Y026324D01*
X032219Y026784D02*
X032148Y026856D01*
X032148Y026999D01*
X032076Y027071D01*
X032004Y026999D01*
X032004Y026784D01*
X032219Y026784D02*
X032291Y026856D01*
X032291Y027071D01*
X032219Y027245D02*
X032076Y027245D01*
X032004Y027316D01*
X032004Y027531D01*
X032076Y027705D02*
X032004Y027777D01*
X032004Y027920D01*
X032076Y027992D01*
X032219Y027992D01*
X032291Y027920D01*
X032291Y027777D01*
X032219Y027705D01*
X032076Y027705D01*
X032291Y027531D02*
X032291Y027316D01*
X032219Y027245D01*
X031719Y027009D02*
X031647Y027009D01*
X031504Y027009D02*
X031217Y027009D01*
X031217Y026938D02*
X031217Y027081D01*
X031288Y027316D02*
X031217Y027388D01*
X031288Y027316D02*
X031575Y027316D01*
X031504Y027245D02*
X031504Y027388D01*
X031504Y027551D02*
X031504Y027623D01*
X031217Y027623D01*
X031217Y027551D02*
X031217Y027695D01*
X031288Y027858D02*
X031432Y027858D01*
X031504Y027930D01*
X031504Y028073D01*
X031432Y028145D01*
X031360Y028145D01*
X031360Y027858D01*
X031288Y027858D02*
X031217Y027930D01*
X031217Y028073D01*
X031217Y028319D02*
X031217Y028534D01*
X031288Y028606D01*
X031360Y028534D01*
X031360Y028390D01*
X031432Y028319D01*
X031504Y028390D01*
X031504Y028606D01*
X032004Y028697D02*
X032004Y028841D01*
X032004Y028697D02*
X032076Y028626D01*
X032219Y028626D01*
X032291Y028697D01*
X032291Y028841D01*
X032219Y028912D01*
X032148Y028912D01*
X032148Y028626D01*
X032219Y028452D02*
X032076Y028452D01*
X032004Y028380D01*
X032004Y028165D01*
X031861Y028165D02*
X032291Y028165D01*
X032291Y028380D01*
X032219Y028452D01*
X031719Y027623D02*
X031647Y027623D01*
X031504Y027009D02*
X031504Y026938D01*
X031647Y026702D02*
X031217Y026702D01*
X031217Y026631D02*
X031217Y026774D01*
X031217Y026467D02*
X031217Y026324D01*
X031217Y026396D02*
X031504Y026396D01*
X031504Y026324D01*
X031647Y026396D02*
X031719Y026396D01*
X031647Y026631D02*
X031647Y026702D01*
X031432Y026150D02*
X031288Y026150D01*
X031217Y026079D01*
X031217Y025864D01*
X031647Y025864D01*
X031504Y025864D02*
X031504Y026079D01*
X031432Y026150D01*
X031432Y025690D02*
X031217Y025690D01*
X031217Y025475D01*
X031288Y025403D01*
X031360Y025475D01*
X031360Y025690D01*
X031432Y025690D02*
X031504Y025618D01*
X031504Y025475D01*
X032004Y025014D02*
X032076Y024943D01*
X032219Y024943D01*
X032291Y025014D01*
X032291Y025230D01*
X032291Y024769D02*
X032291Y024554D01*
X032219Y024482D01*
X032148Y024554D01*
X032148Y024698D01*
X032076Y024769D01*
X032004Y024698D01*
X032004Y024482D01*
X032076Y024309D02*
X032363Y024309D01*
X032434Y024237D01*
X032434Y024094D01*
X032363Y024022D01*
X032076Y024022D01*
X032004Y024094D01*
X032004Y024237D01*
X032076Y024309D01*
X031647Y024237D02*
X031647Y024094D01*
X031575Y024022D01*
X031288Y024022D01*
X031217Y024094D01*
X031575Y024309D02*
X031647Y024237D01*
X032792Y024309D02*
X033222Y024309D01*
X033078Y024482D02*
X033078Y024554D01*
X032792Y024554D01*
X032792Y024482D02*
X032792Y024626D01*
X032863Y024861D02*
X032792Y024933D01*
X032863Y024861D02*
X033150Y024861D01*
X033078Y024789D02*
X033078Y024933D01*
X033007Y025096D02*
X033078Y025168D01*
X033078Y025311D01*
X033007Y025383D01*
X032792Y025383D01*
X032792Y025096D02*
X033222Y025096D01*
X033579Y025014D02*
X033579Y025230D01*
X033651Y025403D02*
X033579Y025475D01*
X033579Y025618D01*
X033651Y025690D01*
X033794Y025690D01*
X033866Y025618D01*
X033866Y025475D01*
X033794Y025403D01*
X033651Y025403D01*
X033866Y025230D02*
X033866Y025014D01*
X033794Y024943D01*
X033651Y024943D01*
X033579Y025014D01*
X033722Y024769D02*
X033722Y024482D01*
X033651Y024482D02*
X033794Y024482D01*
X033866Y024554D01*
X033866Y024698D01*
X033794Y024769D01*
X033722Y024769D01*
X033579Y024698D02*
X033579Y024554D01*
X033651Y024482D01*
X033579Y024309D02*
X033722Y024166D01*
X033722Y024237D02*
X033722Y024022D01*
X033579Y024022D02*
X034009Y024022D01*
X034009Y024237D01*
X033938Y024309D01*
X033794Y024309D01*
X033722Y024237D01*
X033294Y024554D02*
X033222Y024554D01*
X032935Y024166D02*
X032792Y024309D01*
X032935Y024166D02*
X032792Y024022D01*
X033222Y024022D01*
X034366Y024022D02*
X034366Y024309D01*
X034581Y024166D02*
X034581Y024022D01*
X034366Y024022D02*
X034797Y024022D01*
X034797Y024309D01*
X034653Y024482D02*
X034366Y024626D01*
X034653Y024769D01*
X034581Y024943D02*
X034653Y025014D01*
X034653Y025158D01*
X034581Y025230D01*
X034510Y025230D01*
X034510Y024943D01*
X034581Y024943D02*
X034438Y024943D01*
X034366Y025014D01*
X034366Y025158D01*
X034366Y025403D02*
X034653Y025403D01*
X034653Y025618D01*
X034581Y025690D01*
X034366Y025690D01*
X034438Y025935D02*
X034366Y026007D01*
X034438Y025935D02*
X034725Y025935D01*
X034653Y025864D02*
X034653Y026007D01*
X035154Y026079D02*
X035225Y026150D01*
X035441Y026150D01*
X035441Y026324D02*
X035441Y026396D01*
X035154Y026396D01*
X035154Y026467D02*
X035154Y026324D01*
X035154Y026079D02*
X035225Y026007D01*
X035154Y025935D01*
X035225Y025864D01*
X035441Y025864D01*
X035441Y025690D02*
X035441Y025475D01*
X035369Y025403D01*
X035225Y025403D01*
X035154Y025475D01*
X035154Y025690D01*
X035584Y025690D01*
X035369Y025230D02*
X035154Y025230D01*
X035369Y025230D02*
X035441Y025158D01*
X035441Y024943D01*
X035154Y024943D01*
X035154Y024769D02*
X035154Y024554D01*
X035225Y024482D01*
X035297Y024554D01*
X035297Y024769D01*
X035369Y024769D02*
X035154Y024769D01*
X035369Y024769D02*
X035441Y024698D01*
X035441Y024554D01*
X035441Y024309D02*
X035369Y024237D01*
X035369Y024022D01*
X035584Y024022D02*
X035584Y024237D01*
X035512Y024309D01*
X035441Y024309D01*
X035369Y024237D02*
X035297Y024309D01*
X035225Y024309D01*
X035154Y024237D01*
X035154Y024022D01*
X035584Y024022D01*
X035941Y024022D02*
X035941Y024237D01*
X036013Y024309D01*
X036085Y024309D01*
X036156Y024237D01*
X036156Y024022D01*
X035941Y024022D02*
X036371Y024022D01*
X036371Y024237D01*
X036300Y024309D01*
X036228Y024309D01*
X036156Y024237D01*
X036228Y024482D02*
X036228Y024554D01*
X035941Y024554D01*
X035941Y024482D02*
X035941Y024626D01*
X036013Y024789D02*
X035941Y024861D01*
X035941Y025076D01*
X035869Y025076D02*
X036228Y025076D01*
X036228Y024861D01*
X036156Y024789D01*
X036013Y024789D01*
X035798Y024933D02*
X035798Y025004D01*
X035869Y025076D01*
X036371Y024554D02*
X036443Y024554D01*
X036729Y024482D02*
X037015Y024482D01*
X037015Y024698D01*
X036944Y024769D01*
X036729Y024769D01*
X036800Y024943D02*
X036729Y025014D01*
X036729Y025158D01*
X036800Y025230D01*
X036944Y025230D01*
X037015Y025158D01*
X037015Y025014D01*
X036944Y024943D01*
X036800Y024943D01*
X037015Y025403D02*
X037015Y025547D01*
X037087Y025475D02*
X036800Y025475D01*
X036729Y025547D01*
X036729Y025710D02*
X037159Y025710D01*
X037015Y025782D02*
X037015Y025925D01*
X036944Y025997D01*
X036729Y025997D01*
X036800Y026170D02*
X036944Y026170D01*
X037015Y026242D01*
X037015Y026386D01*
X036944Y026457D01*
X036872Y026457D01*
X036872Y026170D01*
X036800Y026170D02*
X036729Y026242D01*
X036729Y026386D01*
X036729Y026631D02*
X037015Y026631D01*
X036872Y026631D02*
X037015Y026774D01*
X037015Y026846D01*
X037015Y025782D02*
X036944Y025710D01*
X037516Y025547D02*
X037588Y025475D01*
X037875Y025475D01*
X037803Y025403D02*
X037803Y025547D01*
X037803Y025230D02*
X037803Y025014D01*
X037731Y024943D01*
X037659Y025014D01*
X037659Y025158D01*
X037588Y025230D01*
X037516Y025158D01*
X037516Y024943D01*
X037516Y024769D02*
X037803Y024769D01*
X037803Y024482D02*
X037588Y024482D01*
X037516Y024554D01*
X037516Y024769D01*
X037588Y024237D02*
X037946Y024237D01*
X037946Y024166D02*
X037946Y024309D01*
X037588Y024237D02*
X037516Y024166D01*
X037516Y024094D01*
X037588Y024022D01*
X037159Y024166D02*
X037015Y024309D01*
X036729Y024309D01*
X036944Y024309D02*
X036944Y024022D01*
X037015Y024022D02*
X037159Y024166D01*
X037015Y024022D02*
X036729Y024022D01*
X039484Y024094D02*
X039484Y024237D01*
X039556Y024309D01*
X039700Y024309D01*
X039700Y024166D01*
X039843Y024309D02*
X039915Y024237D01*
X039915Y024094D01*
X039843Y024022D01*
X039556Y024022D01*
X039484Y024094D01*
X039484Y024482D02*
X039915Y024482D01*
X039484Y024769D01*
X039915Y024769D01*
X039915Y024943D02*
X039915Y025158D01*
X039843Y025230D01*
X039556Y025230D01*
X039484Y025158D01*
X039484Y024943D01*
X039915Y024943D01*
X035656Y026396D02*
X035584Y026396D01*
X035369Y026631D02*
X035225Y026631D01*
X035154Y026702D01*
X035154Y026918D01*
X035584Y026918D01*
X035441Y026918D02*
X035441Y026702D01*
X035369Y026631D01*
X035441Y027091D02*
X035441Y027235D01*
X035512Y027163D02*
X035225Y027163D01*
X035154Y027235D01*
X035154Y027398D02*
X035584Y027398D01*
X035441Y027470D02*
X035369Y027398D01*
X035441Y027470D02*
X035441Y027613D01*
X035369Y027685D01*
X035154Y027685D01*
X033866Y027383D02*
X033866Y027311D01*
X033722Y027168D01*
X033579Y027168D02*
X033866Y027168D01*
X033794Y026994D02*
X033722Y026994D01*
X033722Y026707D01*
X033651Y026707D02*
X033794Y026707D01*
X033866Y026779D01*
X033866Y026923D01*
X033794Y026994D01*
X033579Y026923D02*
X033579Y026779D01*
X033651Y026707D01*
X033579Y026534D02*
X033579Y026319D01*
X033651Y026247D01*
X033794Y026247D01*
X033866Y026319D01*
X033866Y026534D01*
X034009Y026534D02*
X033579Y026534D01*
X033866Y026079D02*
X033866Y026007D01*
X033722Y025864D01*
X033579Y025864D02*
X033866Y025864D01*
D11*
X038711Y024725D02*
X038711Y024036D01*
X039400Y024036D01*
X039400Y024725D01*
X038711Y024725D01*
X035493Y021231D02*
X035493Y020778D01*
X035119Y020778D01*
X034725Y020778D02*
X034351Y020778D01*
X034351Y021231D01*
X034725Y021290D02*
X035119Y021290D01*
X035119Y019912D02*
X035493Y019912D01*
X035493Y019460D01*
X035119Y019400D02*
X034725Y019400D01*
X034351Y019460D02*
X034351Y019912D01*
X034725Y019912D01*
X035050Y018593D02*
X035050Y018475D01*
X034971Y018475D01*
X035050Y018475D02*
X035050Y018357D01*
X035168Y018475D01*
X035266Y018475D01*
X035168Y018475D02*
X035050Y018593D01*
X035207Y018593D02*
X035207Y018357D01*
X034942Y017078D02*
X036674Y017078D01*
X035031Y015326D02*
X035033Y015345D01*
X035039Y015363D01*
X035049Y015379D01*
X035062Y015393D01*
X035078Y015404D01*
X035095Y015411D01*
X035114Y015414D01*
X035133Y015413D01*
X035152Y015408D01*
X035168Y015399D01*
X035183Y015387D01*
X035194Y015371D01*
X035202Y015354D01*
X035206Y015336D01*
X035206Y015316D01*
X035202Y015298D01*
X035194Y015281D01*
X035183Y015265D01*
X035168Y015253D01*
X035152Y015244D01*
X035133Y015239D01*
X035114Y015238D01*
X035095Y015241D01*
X035078Y015248D01*
X035062Y015259D01*
X035049Y015273D01*
X035039Y015289D01*
X035033Y015307D01*
X035031Y015326D01*
X034942Y015109D02*
X036674Y015109D01*
X035660Y014735D02*
X035562Y014735D01*
X035444Y014617D01*
X035444Y014735D01*
X035365Y014735D01*
X035444Y014735D02*
X035444Y014853D01*
X035562Y014735D01*
X035601Y014853D02*
X035601Y014617D01*
X033426Y014834D02*
X033426Y014282D01*
X032695Y014656D02*
X032697Y014672D01*
X032703Y014687D01*
X032713Y014700D01*
X032726Y014710D01*
X032741Y014716D01*
X032757Y014718D01*
X032773Y014716D01*
X032788Y014710D01*
X032801Y014700D01*
X032811Y014687D01*
X032817Y014672D01*
X032819Y014656D01*
X032817Y014640D01*
X032811Y014625D01*
X032801Y014612D01*
X032788Y014602D01*
X032773Y014596D01*
X032757Y014594D01*
X032741Y014596D01*
X032726Y014602D01*
X032713Y014612D01*
X032703Y014625D01*
X032697Y014640D01*
X032695Y014656D01*
X032599Y014834D02*
X032599Y014282D01*
X034154Y012790D02*
X034154Y012337D01*
X034528Y012337D01*
X034922Y012337D02*
X035296Y012337D01*
X035296Y012790D01*
X034922Y012849D02*
X034528Y012849D01*
X034528Y011381D02*
X034154Y011381D01*
X034154Y010928D01*
X034528Y010869D02*
X034922Y010869D01*
X035296Y010928D02*
X035296Y011381D01*
X034922Y011381D01*
X035611Y008534D02*
X036201Y008534D01*
X036201Y007944D01*
X035611Y007944D01*
X035611Y008534D01*
X035611Y007944D02*
X036201Y007944D01*
X036201Y007353D01*
X035611Y007353D01*
X035611Y007944D01*
X038760Y007747D02*
X039351Y007747D01*
X039351Y008337D01*
X038760Y008337D01*
X038760Y007747D01*
X038760Y004400D02*
X038760Y003810D01*
X039351Y003810D01*
X039351Y004400D01*
X038760Y004400D01*
X036959Y003239D02*
X036959Y003121D01*
X037038Y003121D01*
X036959Y003121D02*
X036959Y003003D01*
X036841Y003121D01*
X036743Y003121D01*
X036841Y003121D02*
X036959Y003239D01*
X036802Y003239D02*
X036802Y003003D01*
X033839Y003023D02*
X033249Y003023D01*
X033249Y003613D01*
X033839Y003613D01*
X033839Y003023D01*
X027737Y005582D02*
X027146Y005582D01*
X027146Y006172D01*
X027737Y006172D01*
X027737Y005582D01*
X025178Y006369D02*
X025178Y006960D01*
X024587Y006960D01*
X024587Y006369D01*
X025178Y006369D01*
X022540Y004814D02*
X022540Y008830D01*
X017422Y008830D01*
X017422Y004263D01*
X018327Y004263D01*
X017107Y004597D02*
X017107Y005188D01*
X016516Y005188D01*
X016516Y004597D01*
X017107Y004597D01*
X018327Y004263D02*
X018354Y004177D01*
X018384Y004093D01*
X018418Y004010D01*
X018456Y003928D01*
X018498Y003848D01*
X018542Y003771D01*
X018591Y003695D01*
X018643Y003622D01*
X018697Y003551D01*
X018756Y003482D01*
X018817Y003416D01*
X018881Y003353D01*
X018947Y003293D01*
X019017Y003236D01*
X019088Y003182D01*
X019163Y003132D01*
X019239Y003084D01*
X019317Y003041D01*
X019398Y003000D01*
X019480Y002964D01*
X019563Y002931D01*
X019648Y002902D01*
X019734Y002876D01*
X019821Y002855D01*
X019909Y002837D01*
X019998Y002824D01*
X020087Y002814D01*
X020177Y002809D01*
X020267Y002807D01*
X020357Y002809D01*
X020446Y002816D01*
X020535Y002826D01*
X020624Y002841D01*
X020712Y002859D01*
X020799Y002881D01*
X020885Y002908D01*
X020969Y002938D01*
X021052Y002971D01*
X021134Y003009D01*
X021214Y003050D01*
X021292Y003094D01*
X021368Y003142D01*
X021441Y003194D01*
X021513Y003248D01*
X021581Y003306D01*
X021648Y003367D01*
X021711Y003430D01*
X021771Y003497D01*
X021829Y003566D01*
X021883Y003637D01*
X021934Y003711D01*
X021982Y003787D01*
X022026Y003866D01*
X022066Y003946D01*
X022103Y004028D01*
X022137Y004111D01*
X022166Y004196D01*
X022192Y004282D01*
X022214Y004369D01*
X022232Y004457D01*
X022246Y004545D01*
X022256Y004635D01*
X022262Y004724D01*
X022264Y004814D01*
X022540Y004814D01*
X015581Y007698D02*
X015581Y009174D01*
X013318Y009174D01*
X013318Y007698D01*
X015581Y007698D01*
X008888Y010454D02*
X008199Y010454D01*
X008199Y011143D01*
X008888Y011143D01*
X008888Y010454D01*
X007264Y010109D02*
X007264Y009519D01*
X006674Y009519D01*
X006674Y010109D01*
X007264Y010109D01*
X003977Y010641D02*
X003662Y010641D01*
X003662Y011349D02*
X003977Y011349D01*
X003131Y012865D02*
X002540Y012865D01*
X002540Y013456D01*
X003131Y013456D01*
X003131Y012865D01*
X002540Y008751D02*
X002540Y007963D01*
X002343Y007963D01*
X001457Y007963D02*
X001280Y007963D01*
X001280Y008771D01*
X017186Y024184D02*
X022304Y024184D01*
X022304Y028751D01*
X021398Y028751D01*
X021371Y028837D01*
X021341Y028921D01*
X021307Y029004D01*
X021269Y029086D01*
X021227Y029166D01*
X021183Y029243D01*
X021134Y029319D01*
X021082Y029392D01*
X021028Y029463D01*
X020969Y029532D01*
X020908Y029598D01*
X020844Y029661D01*
X020778Y029721D01*
X020708Y029778D01*
X020637Y029832D01*
X020562Y029882D01*
X020486Y029930D01*
X020408Y029973D01*
X020327Y030014D01*
X020245Y030050D01*
X020162Y030083D01*
X020077Y030112D01*
X019991Y030138D01*
X019904Y030159D01*
X019816Y030177D01*
X019727Y030190D01*
X019638Y030200D01*
X019548Y030205D01*
X019458Y030207D01*
X019368Y030205D01*
X019279Y030198D01*
X019190Y030188D01*
X019101Y030173D01*
X019013Y030155D01*
X018926Y030133D01*
X018840Y030106D01*
X018756Y030076D01*
X018673Y030043D01*
X018591Y030005D01*
X018511Y029964D01*
X018433Y029920D01*
X018357Y029872D01*
X018284Y029820D01*
X018212Y029766D01*
X018144Y029708D01*
X018077Y029647D01*
X018014Y029584D01*
X017954Y029517D01*
X017896Y029448D01*
X017842Y029377D01*
X017791Y029303D01*
X017743Y029227D01*
X017699Y029148D01*
X017659Y029068D01*
X017622Y028986D01*
X017588Y028903D01*
X017559Y028818D01*
X017533Y028732D01*
X017511Y028645D01*
X017493Y028557D01*
X017479Y028469D01*
X017469Y028379D01*
X017463Y028290D01*
X017461Y028200D01*
X017186Y028200D01*
X017186Y024184D01*
X014548Y024499D02*
X014351Y024499D01*
X014548Y024499D02*
X014548Y025286D01*
X013288Y025306D02*
X013288Y024499D01*
X013465Y024499D01*
X025965Y022511D02*
X025965Y021920D01*
X026556Y021920D01*
X026556Y022511D01*
X025965Y022511D01*
X032658Y018160D02*
X033209Y018160D01*
X032773Y017491D02*
X032775Y017507D01*
X032781Y017522D01*
X032791Y017535D01*
X032804Y017545D01*
X032819Y017551D01*
X032835Y017553D01*
X032851Y017551D01*
X032866Y017545D01*
X032879Y017535D01*
X032889Y017522D01*
X032895Y017507D01*
X032897Y017491D01*
X032895Y017475D01*
X032889Y017460D01*
X032879Y017447D01*
X032866Y017437D01*
X032851Y017431D01*
X032835Y017429D01*
X032819Y017431D01*
X032804Y017437D01*
X032791Y017447D01*
X032781Y017460D01*
X032775Y017475D01*
X032773Y017491D01*
X032658Y017334D02*
X033209Y017334D01*
D12*
X033852Y017291D02*
X034079Y017291D01*
X033909Y017461D01*
X033909Y017121D01*
X034221Y017178D02*
X034277Y017121D01*
X034391Y017121D01*
X034447Y017178D01*
X034447Y017291D02*
X034334Y017348D01*
X034277Y017348D01*
X034221Y017291D01*
X034221Y017178D01*
X034447Y017291D02*
X034447Y017461D01*
X034221Y017461D01*
X034589Y017405D02*
X034646Y017461D01*
X034759Y017461D01*
X034816Y017405D01*
X034816Y017178D01*
X034759Y017121D01*
X034646Y017121D01*
X034589Y017178D01*
X035357Y017184D02*
X035414Y017127D01*
X035527Y017127D01*
X035584Y017184D01*
X035527Y017297D02*
X035414Y017297D01*
X035357Y017241D01*
X035357Y017184D01*
X035527Y017297D02*
X035584Y017354D01*
X035584Y017411D01*
X035527Y017468D01*
X035414Y017468D01*
X035357Y017411D01*
X035725Y017411D02*
X035782Y017468D01*
X035896Y017468D01*
X035952Y017411D01*
X035952Y017184D01*
X035896Y017127D01*
X035782Y017127D01*
X035725Y017184D01*
X036094Y017127D02*
X036094Y017354D01*
X036207Y017468D01*
X036321Y017354D01*
X036321Y017127D01*
X036462Y017184D02*
X036519Y017127D01*
X036689Y017127D01*
X036689Y017468D01*
X036519Y017468D01*
X036462Y017411D01*
X036462Y017184D01*
X036321Y017297D02*
X036094Y017297D01*
X036830Y017297D02*
X037057Y017297D01*
X036887Y017468D01*
X036887Y017127D01*
X038292Y016535D02*
X038292Y016422D01*
X038349Y016365D01*
X038349Y016224D02*
X038292Y016167D01*
X038292Y016054D01*
X038349Y015997D01*
X038462Y015997D02*
X038519Y016110D01*
X038519Y016167D01*
X038462Y016224D01*
X038349Y016224D01*
X038462Y015997D02*
X038632Y015997D01*
X038632Y016224D01*
X038576Y016365D02*
X038632Y016422D01*
X038632Y016535D01*
X038576Y016592D01*
X038519Y016592D01*
X038462Y016535D01*
X038405Y016592D01*
X038349Y016592D01*
X038292Y016535D01*
X038462Y016535D02*
X038462Y016479D01*
X038349Y015856D02*
X038292Y015799D01*
X038292Y015685D01*
X038349Y015629D01*
X038576Y015629D01*
X038632Y015685D01*
X038632Y015799D01*
X038576Y015856D01*
X036363Y014652D02*
X036250Y014765D01*
X036023Y014765D01*
X036193Y014765D02*
X036193Y014538D01*
X036250Y014538D02*
X036363Y014652D01*
X036250Y014538D02*
X036023Y014538D01*
X036193Y014397D02*
X036193Y014170D01*
X036193Y014029D02*
X036137Y013972D01*
X036137Y013802D01*
X036137Y013915D02*
X036023Y014029D01*
X036193Y014029D02*
X036307Y014029D01*
X036363Y013972D01*
X036363Y013802D01*
X036023Y013802D01*
X036023Y013660D02*
X036023Y013433D01*
X036363Y013433D01*
X036363Y013660D01*
X036193Y013547D02*
X036193Y013433D01*
X036193Y013292D02*
X036193Y013179D01*
X036193Y013292D02*
X036080Y013292D01*
X036023Y013235D01*
X036023Y013122D01*
X036080Y013065D01*
X036307Y013065D01*
X036363Y013122D01*
X036363Y013235D01*
X036307Y013292D01*
X036307Y012924D02*
X036363Y012867D01*
X036363Y012753D01*
X036307Y012697D01*
X036080Y012697D01*
X036023Y012753D01*
X036023Y012867D01*
X036080Y012924D01*
X036193Y012924D01*
X036193Y012810D01*
X036023Y012565D02*
X036023Y012451D01*
X036023Y012508D02*
X036363Y012508D01*
X036363Y012451D02*
X036363Y012565D01*
X036307Y012310D02*
X036193Y012310D01*
X036137Y012253D01*
X036137Y012083D01*
X036137Y012196D02*
X036023Y012310D01*
X036023Y012083D02*
X036363Y012083D01*
X036363Y012253D01*
X036307Y012310D01*
X036363Y011941D02*
X036363Y011715D01*
X036363Y011828D02*
X036023Y011828D01*
X035883Y011356D02*
X035883Y011129D01*
X035713Y011129D01*
X035769Y011243D01*
X035769Y011300D01*
X035713Y011356D01*
X035599Y011356D01*
X035542Y011300D01*
X035542Y011186D01*
X035599Y011129D01*
X035599Y010988D02*
X035826Y010988D01*
X035883Y010931D01*
X035883Y010761D01*
X035542Y010761D01*
X035542Y010931D01*
X035599Y010988D01*
X033908Y012280D02*
X033908Y012451D01*
X033851Y012507D01*
X033624Y012507D01*
X033568Y012451D01*
X033568Y012280D01*
X033908Y012280D01*
X033738Y012649D02*
X033738Y012819D01*
X033681Y012876D01*
X033624Y012876D01*
X033568Y012819D01*
X033568Y012705D01*
X033624Y012649D01*
X033738Y012649D01*
X033851Y012762D01*
X033908Y012876D01*
X033775Y012987D02*
X033661Y012987D01*
X033605Y013044D01*
X033463Y013044D02*
X033406Y012987D01*
X033293Y012987D01*
X033236Y013044D01*
X033236Y013157D01*
X033293Y013214D01*
X033350Y013214D01*
X033463Y013157D01*
X033463Y013327D01*
X033236Y013327D01*
X033095Y013157D02*
X032925Y013157D01*
X032868Y013101D01*
X032868Y013044D01*
X032925Y012987D01*
X033038Y012987D01*
X033095Y013044D01*
X033095Y013157D01*
X032981Y013271D01*
X032868Y013327D01*
X033605Y013271D02*
X033661Y013327D01*
X033775Y013327D01*
X033831Y013271D01*
X033831Y013044D01*
X033775Y012987D01*
X032536Y014568D02*
X032196Y014568D01*
X032366Y014568D02*
X032366Y014682D01*
X032536Y014568D02*
X032536Y014795D01*
X032536Y014937D02*
X032196Y014937D01*
X032366Y014937D02*
X032366Y015050D01*
X032536Y014937D02*
X032536Y015163D01*
X032423Y015305D02*
X032196Y015305D01*
X032366Y015305D02*
X032366Y015532D01*
X032423Y015532D02*
X032196Y015532D01*
X032423Y015532D02*
X032536Y015418D01*
X032423Y015305D01*
X033574Y015386D02*
X033687Y015272D01*
X033687Y015329D02*
X033687Y015159D01*
X033574Y015159D02*
X033914Y015159D01*
X033914Y015329D01*
X033857Y015386D01*
X033744Y015386D01*
X033687Y015329D01*
X033631Y015527D02*
X033574Y015584D01*
X033574Y015697D01*
X033631Y015754D01*
X033857Y015754D01*
X033914Y015697D01*
X033914Y015584D01*
X033857Y015527D01*
X033801Y015527D01*
X033744Y015584D01*
X033744Y015754D01*
X033631Y015895D02*
X033857Y016122D01*
X033631Y016122D01*
X033574Y016066D01*
X033574Y015952D01*
X033631Y015895D01*
X033857Y015895D01*
X033914Y015952D01*
X033914Y016066D01*
X033857Y016122D01*
X032143Y017324D02*
X032143Y017551D01*
X032143Y017692D02*
X032143Y017919D01*
X032143Y018061D02*
X032143Y018231D01*
X032086Y018288D01*
X032029Y018288D01*
X031972Y018231D01*
X031972Y018061D01*
X031802Y018061D02*
X031802Y018231D01*
X031859Y018288D01*
X031916Y018288D01*
X031972Y018231D01*
X031802Y018061D02*
X032143Y018061D01*
X031972Y017806D02*
X031972Y017692D01*
X031802Y017692D02*
X032143Y017692D01*
X031972Y017438D02*
X031972Y017324D01*
X031802Y017324D02*
X032143Y017324D01*
X033122Y018696D02*
X033065Y018753D01*
X033065Y018979D01*
X033122Y019036D01*
X033235Y019036D01*
X033292Y018979D01*
X033292Y018923D01*
X033235Y018866D01*
X033065Y018866D01*
X033122Y018696D02*
X033235Y018696D01*
X033292Y018753D01*
X033433Y018753D02*
X033490Y018696D01*
X033603Y018696D01*
X033660Y018753D01*
X033660Y018809D01*
X033603Y018866D01*
X033490Y018866D01*
X033433Y018809D01*
X033433Y018753D01*
X033490Y018866D02*
X033433Y018923D01*
X033433Y018979D01*
X033490Y019036D01*
X033603Y019036D01*
X033660Y018979D01*
X033660Y018923D01*
X033603Y018866D01*
X033801Y018866D02*
X033858Y018809D01*
X034028Y018809D01*
X033915Y018809D02*
X033801Y018696D01*
X033801Y018866D02*
X033801Y018979D01*
X033858Y019036D01*
X034028Y019036D01*
X034028Y018696D01*
X033914Y019293D02*
X033914Y019463D01*
X033857Y019520D01*
X033631Y019520D01*
X033574Y019463D01*
X033574Y019293D01*
X033914Y019293D01*
X033857Y019661D02*
X033801Y019661D01*
X033744Y019718D01*
X033744Y019888D01*
X033631Y019888D02*
X033857Y019888D01*
X033914Y019831D01*
X033914Y019718D01*
X033857Y019661D01*
X033631Y019661D02*
X033574Y019718D01*
X033574Y019831D01*
X033631Y019888D01*
X033764Y020353D02*
X033764Y020523D01*
X033821Y020580D01*
X034048Y020580D01*
X034105Y020523D01*
X034105Y020353D01*
X033764Y020353D01*
X033764Y020721D02*
X033764Y020948D01*
X033764Y020835D02*
X034105Y020835D01*
X033991Y020721D01*
X034048Y021090D02*
X033821Y021090D01*
X034048Y021317D01*
X033821Y021317D01*
X033764Y021260D01*
X033764Y021146D01*
X033821Y021090D01*
X034048Y021090D02*
X034105Y021146D01*
X034105Y021260D01*
X034048Y021317D01*
X036433Y021357D02*
X036433Y021187D01*
X036774Y021187D01*
X036774Y021357D01*
X036717Y021414D01*
X036660Y021414D01*
X036604Y021357D01*
X036604Y021187D01*
X036604Y021046D02*
X036604Y020819D01*
X036604Y020678D02*
X036547Y020621D01*
X036547Y020451D01*
X036547Y020564D02*
X036433Y020678D01*
X036604Y020678D02*
X036717Y020678D01*
X036774Y020621D01*
X036774Y020451D01*
X036433Y020451D01*
X036433Y020309D02*
X036433Y020082D01*
X036774Y020082D01*
X036774Y020309D01*
X036604Y020196D02*
X036604Y020082D01*
X036604Y019941D02*
X036604Y019828D01*
X036604Y019941D02*
X036490Y019941D01*
X036433Y019884D01*
X036433Y019771D01*
X036490Y019714D01*
X036717Y019714D01*
X036774Y019771D01*
X036774Y019884D01*
X036717Y019941D01*
X036717Y019573D02*
X036774Y019516D01*
X036774Y019403D01*
X036717Y019346D01*
X036490Y019346D01*
X036433Y019403D01*
X036433Y019516D01*
X036490Y019573D01*
X036604Y019573D01*
X036604Y019459D01*
X036774Y019214D02*
X036774Y019100D01*
X036774Y019157D02*
X036433Y019157D01*
X036433Y019100D02*
X036433Y019214D01*
X036433Y018959D02*
X036547Y018845D01*
X036547Y018902D02*
X036547Y018732D01*
X036433Y018732D02*
X036774Y018732D01*
X036774Y018902D01*
X036717Y018959D01*
X036604Y018959D01*
X036547Y018902D01*
X036774Y018591D02*
X036774Y018364D01*
X036774Y018477D02*
X036433Y018477D01*
X038735Y021064D02*
X038905Y021064D01*
X038905Y021405D01*
X038735Y021405D01*
X038678Y021348D01*
X038678Y021291D01*
X038735Y021234D01*
X038905Y021234D01*
X039047Y021234D02*
X039273Y021234D01*
X039415Y021234D02*
X039642Y021234D01*
X039642Y021064D02*
X039642Y021405D01*
X039783Y021348D02*
X039840Y021405D01*
X039953Y021405D01*
X040010Y021348D01*
X040010Y021121D01*
X039953Y021064D01*
X039840Y021064D01*
X039783Y021121D01*
X039415Y021064D02*
X039415Y021405D01*
X038735Y021234D02*
X038678Y021178D01*
X038678Y021121D01*
X038735Y021064D01*
X036604Y021357D02*
X036547Y021414D01*
X036490Y021414D01*
X036433Y021357D01*
X028396Y015893D02*
X028396Y015553D01*
X028396Y015666D02*
X028226Y015666D01*
X028169Y015723D01*
X028169Y015836D01*
X028226Y015893D01*
X028396Y015893D01*
X028282Y015666D02*
X028169Y015553D01*
X028028Y015609D02*
X027971Y015553D01*
X027857Y015553D01*
X027801Y015609D01*
X027801Y015666D01*
X027857Y015723D01*
X028028Y015723D01*
X028028Y015609D01*
X028028Y015723D02*
X027914Y015836D01*
X027801Y015893D01*
X027659Y015723D02*
X027489Y015893D01*
X027489Y015553D01*
X027432Y015723D02*
X027659Y015723D01*
X028734Y015099D02*
X028848Y015042D01*
X028961Y014929D01*
X028791Y014929D01*
X028734Y014872D01*
X028734Y014816D01*
X028791Y014759D01*
X028904Y014759D01*
X028961Y014816D01*
X028961Y014929D01*
X029102Y014872D02*
X029159Y014929D01*
X029329Y014929D01*
X029329Y014816D01*
X029273Y014759D01*
X029159Y014759D01*
X029102Y014816D01*
X029102Y014872D01*
X029216Y015042D02*
X029102Y015099D01*
X029216Y015042D02*
X029329Y014929D01*
X029471Y014929D02*
X029527Y014872D01*
X029698Y014872D01*
X029698Y014759D02*
X029698Y015099D01*
X029527Y015099D01*
X029471Y015042D01*
X029471Y014929D01*
X029584Y014872D02*
X029471Y014759D01*
X027412Y017127D02*
X027412Y017468D01*
X027241Y017468D01*
X027185Y017411D01*
X027185Y017297D01*
X027241Y017241D01*
X027412Y017241D01*
X027298Y017241D02*
X027185Y017127D01*
X027043Y017184D02*
X026987Y017127D01*
X026873Y017127D01*
X026816Y017184D01*
X026816Y017241D01*
X026873Y017297D01*
X027043Y017297D01*
X027043Y017184D01*
X027043Y017297D02*
X026930Y017411D01*
X026816Y017468D01*
X026675Y017411D02*
X026675Y017354D01*
X026618Y017297D01*
X026505Y017297D01*
X026448Y017241D01*
X026448Y017184D01*
X026505Y017127D01*
X026618Y017127D01*
X026675Y017184D01*
X026675Y017241D01*
X026618Y017297D01*
X026505Y017297D02*
X026448Y017354D01*
X026448Y017411D01*
X026505Y017468D01*
X026618Y017468D01*
X026675Y017411D01*
X027662Y017430D02*
X027776Y017317D01*
X027776Y017374D02*
X027776Y017204D01*
X027662Y017204D02*
X028002Y017204D01*
X028002Y017374D01*
X027946Y017430D01*
X027832Y017430D01*
X027776Y017374D01*
X027719Y017572D02*
X027662Y017629D01*
X027662Y017742D01*
X027719Y017799D01*
X027946Y017799D01*
X028002Y017742D01*
X028002Y017629D01*
X027946Y017572D01*
X027889Y017572D01*
X027832Y017629D01*
X027832Y017799D01*
X027889Y017940D02*
X028002Y018054D01*
X027662Y018054D01*
X027662Y018167D02*
X027662Y017940D01*
X025271Y017933D02*
X025271Y017820D01*
X025214Y017763D01*
X024988Y017763D01*
X024931Y017820D01*
X024931Y017933D01*
X024988Y017990D01*
X025214Y017990D01*
X025271Y017933D01*
X025271Y018131D02*
X024931Y018131D01*
X024931Y018358D01*
X024931Y018500D02*
X024931Y018726D01*
X024931Y018868D02*
X024931Y019038D01*
X024988Y019095D01*
X025214Y019095D01*
X025271Y019038D01*
X025271Y018868D01*
X024931Y018868D01*
X025101Y018613D02*
X025101Y018500D01*
X025271Y018500D02*
X024931Y018500D01*
X025271Y018500D02*
X025271Y018726D01*
X025101Y019236D02*
X025101Y019463D01*
X024931Y019604D02*
X024931Y019775D01*
X024988Y019831D01*
X025214Y019831D01*
X025271Y019775D01*
X025271Y019604D01*
X024931Y019604D01*
X024931Y019973D02*
X024931Y020086D01*
X024931Y020029D02*
X025271Y020029D01*
X025271Y019973D02*
X025271Y020086D01*
X025214Y020218D02*
X025158Y020218D01*
X025101Y020275D01*
X025101Y020388D01*
X025044Y020445D01*
X024988Y020445D01*
X024931Y020388D01*
X024931Y020275D01*
X024988Y020218D01*
X025214Y020218D02*
X025271Y020275D01*
X025271Y020388D01*
X025214Y020445D01*
X025271Y020587D02*
X024931Y020587D01*
X025044Y020587D02*
X025044Y020757D01*
X025101Y020813D01*
X025214Y020813D01*
X025271Y020757D01*
X025271Y020587D01*
X025271Y020955D02*
X024931Y020955D01*
X024931Y021182D01*
X024931Y021323D02*
X025158Y021323D01*
X025271Y021437D01*
X025158Y021550D01*
X024931Y021550D01*
X025101Y021550D02*
X025101Y021323D01*
X025214Y021691D02*
X025101Y021805D01*
X024931Y021805D01*
X025101Y021805D02*
X025214Y021918D01*
X025271Y021918D01*
X025271Y021691D02*
X025214Y021691D01*
X016177Y026339D02*
X016177Y026509D01*
X016120Y026566D01*
X016007Y026566D01*
X015950Y026509D01*
X015950Y026339D01*
X015950Y026452D02*
X015837Y026566D01*
X015837Y026707D02*
X015837Y026934D01*
X015893Y027075D02*
X015837Y027132D01*
X015837Y027246D01*
X015893Y027302D01*
X015950Y027302D01*
X016007Y027246D01*
X016007Y027132D01*
X016063Y027075D01*
X016120Y027075D01*
X016177Y027132D01*
X016177Y027246D01*
X016120Y027302D01*
X016177Y027444D02*
X015837Y027444D01*
X015837Y027671D01*
X016007Y027557D02*
X016007Y027444D01*
X016177Y027444D02*
X016177Y027671D01*
X016177Y027812D02*
X016177Y028039D01*
X016177Y027925D02*
X015837Y027925D01*
X015216Y027146D02*
X014989Y027146D01*
X014932Y027089D01*
X014932Y026976D01*
X014989Y026919D01*
X015216Y027146D01*
X015272Y027089D01*
X015272Y026976D01*
X015216Y026919D01*
X014989Y026919D01*
X014989Y026778D02*
X015046Y026778D01*
X015102Y026721D01*
X015102Y026551D01*
X014989Y026551D01*
X014932Y026607D01*
X014932Y026721D01*
X014989Y026778D01*
X015102Y026551D02*
X015216Y026664D01*
X015272Y026778D01*
X015837Y026707D02*
X016177Y026707D01*
X016177Y026934D01*
X016007Y026821D02*
X016007Y026707D01*
X015837Y026339D02*
X016177Y026339D01*
X015272Y026353D02*
X015216Y026409D01*
X015102Y026409D01*
X015046Y026353D01*
X015046Y026182D01*
X014932Y026182D02*
X015272Y026182D01*
X015272Y026353D01*
X015046Y026296D02*
X014932Y026409D01*
X014039Y026446D02*
X014039Y026276D01*
X013698Y026276D01*
X013812Y026276D02*
X013812Y026446D01*
X013868Y026503D01*
X013982Y026503D01*
X014039Y026446D01*
X014039Y026644D02*
X013868Y026644D01*
X013925Y026758D01*
X013925Y026815D01*
X013868Y026871D01*
X013755Y026871D01*
X013698Y026815D01*
X013698Y026701D01*
X013755Y026644D01*
X013698Y026503D02*
X013812Y026390D01*
X014039Y026644D02*
X014039Y026871D01*
X013982Y027013D02*
X014039Y027069D01*
X014039Y027183D01*
X013982Y027240D01*
X013925Y027240D01*
X013698Y027013D01*
X013698Y027240D01*
X012905Y027248D02*
X012905Y027418D01*
X012848Y027475D01*
X012792Y027475D01*
X012735Y027418D01*
X012735Y027248D01*
X012565Y027248D02*
X012565Y027418D01*
X012622Y027475D01*
X012678Y027475D01*
X012735Y027418D01*
X012622Y027617D02*
X012565Y027673D01*
X012565Y027787D01*
X012622Y027843D01*
X012905Y027843D01*
X012905Y027985D02*
X012905Y028212D01*
X012905Y028098D02*
X012565Y028098D01*
X012565Y028467D02*
X012905Y028467D01*
X012905Y028580D02*
X012905Y028353D01*
X012848Y028721D02*
X012622Y028721D01*
X012565Y028778D01*
X012565Y028892D01*
X012622Y028948D01*
X012848Y028948D01*
X012905Y028892D01*
X012905Y028778D01*
X012848Y028721D01*
X012905Y029090D02*
X012565Y029317D01*
X012905Y029317D01*
X012735Y029458D02*
X012735Y029685D01*
X012792Y029826D02*
X012905Y029940D01*
X012565Y029940D01*
X012565Y030053D02*
X012565Y029826D01*
X012565Y029090D02*
X012905Y029090D01*
X012905Y027617D02*
X012622Y027617D01*
X012565Y027248D02*
X012905Y027248D01*
X009315Y027248D02*
X009315Y027418D01*
X009258Y027475D01*
X009201Y027475D01*
X009144Y027418D01*
X009144Y027248D01*
X008974Y027248D02*
X008974Y027418D01*
X009031Y027475D01*
X009088Y027475D01*
X009144Y027418D01*
X009031Y027617D02*
X008974Y027673D01*
X008974Y027787D01*
X009031Y027843D01*
X009315Y027843D01*
X009315Y027985D02*
X009315Y028212D01*
X009315Y028098D02*
X008974Y028098D01*
X008974Y028467D02*
X009315Y028467D01*
X009315Y028580D02*
X009315Y028353D01*
X009258Y028721D02*
X009031Y028721D01*
X008974Y028778D01*
X008974Y028892D01*
X009031Y028948D01*
X009258Y028948D01*
X009315Y028892D01*
X009315Y028778D01*
X009258Y028721D01*
X009315Y029090D02*
X008974Y029317D01*
X009315Y029317D01*
X009144Y029458D02*
X009144Y029685D01*
X009258Y029826D02*
X009315Y029883D01*
X009315Y029997D01*
X009258Y030053D01*
X009201Y030053D01*
X008974Y029826D01*
X008974Y030053D01*
X008974Y029090D02*
X009315Y029090D01*
X009315Y027617D02*
X009031Y027617D01*
X008974Y027248D02*
X009315Y027248D01*
X006567Y025828D02*
X006567Y025658D01*
X006226Y025658D01*
X006340Y025658D02*
X006340Y025828D01*
X006396Y025885D01*
X006510Y025885D01*
X006567Y025828D01*
X006567Y025516D02*
X006283Y025516D01*
X006226Y025460D01*
X006226Y025346D01*
X006283Y025289D01*
X006567Y025289D01*
X006567Y025148D02*
X006567Y024921D01*
X006226Y024921D01*
X006226Y025148D01*
X006396Y025035D02*
X006396Y024921D01*
X006226Y024780D02*
X006396Y024609D01*
X006340Y024553D02*
X006567Y024780D01*
X006567Y024553D02*
X006226Y024553D01*
X006226Y024411D02*
X006453Y024411D01*
X006567Y024298D01*
X006453Y024184D01*
X006226Y024184D01*
X006226Y024043D02*
X006567Y024043D01*
X006396Y024184D02*
X006396Y024411D01*
X006226Y024043D02*
X006340Y023930D01*
X006226Y023816D01*
X006567Y023816D01*
X005898Y021208D02*
X005955Y021151D01*
X005955Y020924D01*
X005898Y020867D01*
X005785Y020867D01*
X005728Y020924D01*
X005728Y021151D01*
X005785Y021208D01*
X005898Y021208D01*
X005587Y021208D02*
X005587Y020867D01*
X005360Y020867D01*
X005218Y020867D02*
X005218Y021208D01*
X004991Y021208D01*
X004850Y021208D02*
X004850Y020867D01*
X004680Y020867D01*
X004623Y020924D01*
X004623Y021151D01*
X004680Y021208D01*
X004850Y021208D01*
X005105Y021038D02*
X005218Y021038D01*
X005218Y020867D02*
X004991Y020867D01*
X002608Y020784D02*
X002438Y020784D01*
X002382Y020841D01*
X002382Y020954D01*
X002438Y021011D01*
X002608Y021011D01*
X002608Y020671D01*
X002495Y020784D02*
X002382Y020671D01*
X002240Y020727D02*
X002183Y020671D01*
X002070Y020671D01*
X002013Y020727D01*
X002013Y020841D01*
X002070Y020897D01*
X002127Y020897D01*
X002240Y020841D01*
X002240Y021011D01*
X002013Y021011D01*
X002013Y021261D02*
X002240Y021261D01*
X002013Y021488D01*
X002013Y021545D01*
X002070Y021601D01*
X002183Y021601D01*
X002240Y021545D01*
X002382Y021545D02*
X002382Y021431D01*
X002438Y021375D01*
X002608Y021375D01*
X002495Y021375D02*
X002382Y021261D01*
X002608Y021261D02*
X002608Y021601D01*
X002438Y021601D01*
X002382Y021545D01*
X002382Y021852D02*
X002495Y021965D01*
X002438Y021965D02*
X002608Y021965D01*
X002608Y021852D02*
X002608Y022192D01*
X002438Y022192D01*
X002382Y022135D01*
X002382Y022022D01*
X002438Y021965D01*
X002240Y021908D02*
X002183Y021852D01*
X002070Y021852D01*
X002013Y021908D01*
X002013Y021965D01*
X002070Y022022D01*
X002127Y022022D01*
X002070Y022022D02*
X002013Y022079D01*
X002013Y022135D01*
X002070Y022192D01*
X002183Y022192D01*
X002240Y022135D01*
X002382Y022442D02*
X002495Y022556D01*
X002438Y022556D02*
X002608Y022556D01*
X002608Y022442D02*
X002608Y022783D01*
X002438Y022783D01*
X002382Y022726D01*
X002382Y022612D01*
X002438Y022556D01*
X002240Y022612D02*
X002013Y022612D01*
X002070Y022442D02*
X002070Y022783D01*
X002240Y022612D01*
X002240Y023033D02*
X002013Y023033D01*
X002013Y023260D02*
X002013Y023316D01*
X002070Y023373D01*
X002183Y023373D01*
X002240Y023316D01*
X002382Y023316D02*
X002438Y023373D01*
X002552Y023373D01*
X002608Y023316D01*
X002608Y023090D01*
X002552Y023033D01*
X002438Y023033D01*
X002382Y023090D01*
X002240Y023033D02*
X002013Y023260D01*
X002070Y023623D02*
X002183Y023623D01*
X002240Y023680D01*
X002382Y023680D02*
X002438Y023623D01*
X002552Y023623D01*
X002608Y023680D01*
X002608Y023907D01*
X002552Y023964D01*
X002438Y023964D01*
X002382Y023907D01*
X002240Y023907D02*
X002183Y023964D01*
X002070Y023964D01*
X002013Y023907D01*
X002013Y023850D01*
X002070Y023794D01*
X002013Y023737D01*
X002013Y023680D01*
X002070Y023623D01*
X002070Y023794D02*
X002127Y023794D01*
X002070Y024214D02*
X002070Y024554D01*
X002240Y024384D01*
X002013Y024384D01*
X002382Y024271D02*
X002438Y024214D01*
X002552Y024214D01*
X002608Y024271D01*
X002608Y024497D01*
X002552Y024554D01*
X002438Y024554D01*
X002382Y024497D01*
X002438Y024804D02*
X002382Y024861D01*
X002438Y024804D02*
X002552Y024804D01*
X002608Y024861D01*
X002608Y025088D01*
X002552Y025145D01*
X002438Y025145D01*
X002382Y025088D01*
X002240Y025031D02*
X002127Y025145D01*
X002127Y024804D01*
X002240Y024804D02*
X002013Y024804D01*
X001574Y023996D02*
X001517Y023996D01*
X001461Y023940D01*
X001461Y023826D01*
X001517Y023769D01*
X001574Y023769D01*
X001631Y023826D01*
X001631Y023940D01*
X001574Y023996D01*
X001461Y023940D02*
X001404Y023996D01*
X001347Y023996D01*
X001290Y023940D01*
X001290Y023826D01*
X001347Y023769D01*
X001404Y023769D01*
X001461Y023826D01*
X001517Y023628D02*
X001574Y023628D01*
X001631Y023571D01*
X001631Y023458D01*
X001574Y023401D01*
X001574Y023260D02*
X001631Y023203D01*
X001631Y023090D01*
X001574Y023033D01*
X001347Y023033D01*
X001290Y023090D01*
X001290Y023203D01*
X001347Y023260D01*
X001290Y023401D02*
X001290Y023628D01*
X001290Y023401D02*
X001517Y023628D01*
X001404Y022421D02*
X001461Y022365D01*
X001461Y022195D01*
X001347Y022195D01*
X001290Y022251D01*
X001290Y022365D01*
X001347Y022421D01*
X001404Y022421D01*
X001574Y022308D02*
X001461Y022195D01*
X001574Y022308D02*
X001631Y022421D01*
X001631Y021940D02*
X001290Y021940D01*
X001290Y022053D02*
X001290Y021826D01*
X001347Y021685D02*
X001290Y021628D01*
X001290Y021515D01*
X001347Y021458D01*
X001574Y021458D01*
X001631Y021515D01*
X001631Y021628D01*
X001574Y021685D01*
X001517Y021826D02*
X001631Y021940D01*
X002076Y015493D02*
X002076Y015153D01*
X002189Y015153D02*
X001962Y015153D01*
X002189Y015379D02*
X002076Y015493D01*
X002331Y015436D02*
X002331Y015323D01*
X002388Y015266D01*
X002558Y015266D01*
X002558Y015153D02*
X002558Y015493D01*
X002388Y015493D01*
X002331Y015436D01*
X002444Y015266D02*
X002331Y015153D01*
X001631Y013869D02*
X001290Y013869D01*
X001290Y013982D02*
X001290Y013755D01*
X001290Y013614D02*
X001290Y013387D01*
X001347Y013387D01*
X001574Y013614D01*
X001631Y013614D01*
X001631Y013387D01*
X001766Y013354D02*
X001766Y013241D01*
X001822Y013184D01*
X001936Y013184D01*
X001992Y013241D01*
X001992Y013354D02*
X001879Y013411D01*
X001822Y013411D01*
X001766Y013354D01*
X001766Y013524D02*
X001992Y013524D01*
X001992Y013354D01*
X002134Y013241D02*
X002191Y013184D01*
X002304Y013184D01*
X002361Y013241D01*
X002361Y013468D01*
X002304Y013524D01*
X002191Y013524D01*
X002134Y013468D01*
X002241Y012940D02*
X002185Y012883D01*
X002241Y012940D02*
X002355Y012940D01*
X002412Y012883D01*
X002412Y012656D01*
X002355Y012600D01*
X002241Y012600D01*
X002185Y012656D01*
X002043Y012656D02*
X001987Y012600D01*
X001873Y012600D01*
X001816Y012656D01*
X001816Y012713D01*
X001873Y012770D01*
X001930Y012770D01*
X001873Y012770D02*
X001816Y012827D01*
X001816Y012883D01*
X001873Y012940D01*
X001987Y012940D01*
X002043Y012883D01*
X001675Y012770D02*
X001505Y012770D01*
X001448Y012713D01*
X001448Y012656D01*
X001505Y012600D01*
X001618Y012600D01*
X001675Y012656D01*
X001675Y012770D01*
X001562Y012883D01*
X001448Y012940D01*
X001517Y013755D02*
X001631Y013869D01*
X003340Y012877D02*
X003340Y012820D01*
X003567Y012593D01*
X003340Y012593D01*
X003340Y012877D02*
X003397Y012934D01*
X003511Y012934D01*
X003567Y012877D01*
X003709Y012877D02*
X003709Y012820D01*
X003765Y012764D01*
X003709Y012707D01*
X003709Y012650D01*
X003765Y012593D01*
X003879Y012593D01*
X003936Y012650D01*
X004077Y012650D02*
X004134Y012593D01*
X004247Y012593D01*
X004304Y012650D01*
X004304Y012877D01*
X004247Y012934D01*
X004134Y012934D01*
X004077Y012877D01*
X003936Y012877D02*
X003879Y012934D01*
X003765Y012934D01*
X003709Y012877D01*
X003765Y012764D02*
X003822Y012764D01*
X003206Y012325D02*
X003206Y012212D01*
X003149Y012155D01*
X003092Y012155D01*
X003035Y012212D01*
X003035Y012382D01*
X002922Y012382D02*
X003149Y012382D01*
X003206Y012325D01*
X002922Y012382D02*
X002865Y012325D01*
X002865Y012212D01*
X002922Y012155D01*
X002922Y012014D02*
X002865Y011957D01*
X002865Y011844D01*
X002922Y011787D01*
X002812Y011792D02*
X002755Y011792D01*
X002528Y011565D01*
X002472Y011565D01*
X002528Y011423D02*
X002585Y011423D01*
X002642Y011367D01*
X002642Y011253D01*
X002698Y011196D01*
X002755Y011196D01*
X002812Y011253D01*
X002812Y011367D01*
X002755Y011423D01*
X002865Y011475D02*
X002865Y011589D01*
X002922Y011646D01*
X002812Y011565D02*
X002812Y011792D01*
X002698Y011933D02*
X002812Y012046D01*
X002472Y012046D01*
X002472Y011933D02*
X002472Y012160D01*
X002922Y012014D02*
X002979Y012014D01*
X003035Y011957D01*
X003035Y011900D01*
X003035Y011957D02*
X003092Y012014D01*
X003149Y012014D01*
X003206Y011957D01*
X003206Y011844D01*
X003149Y011787D01*
X003149Y011646D02*
X003206Y011589D01*
X003206Y011475D01*
X003149Y011419D01*
X002922Y011419D01*
X002865Y011475D01*
X002869Y011310D02*
X002415Y011310D01*
X002472Y011367D02*
X002528Y011423D01*
X002472Y011367D02*
X002472Y011253D01*
X002528Y011196D01*
X002528Y011055D02*
X002812Y011055D01*
X002812Y010828D02*
X002528Y010828D01*
X002472Y010885D01*
X002472Y010998D01*
X002528Y011055D01*
X002725Y010610D02*
X002668Y010554D01*
X002668Y010440D01*
X002725Y010384D01*
X002782Y010384D01*
X002839Y010440D01*
X002839Y010554D01*
X002782Y010610D01*
X002725Y010610D01*
X002839Y010554D02*
X002895Y010610D01*
X002952Y010610D01*
X003009Y010554D01*
X003009Y010440D01*
X002952Y010384D01*
X002895Y010384D01*
X002839Y010440D01*
X002668Y010242D02*
X002668Y010015D01*
X002668Y010129D02*
X003009Y010129D01*
X002895Y010015D01*
X002839Y009874D02*
X002782Y009817D01*
X002782Y009647D01*
X002782Y009760D02*
X002668Y009874D01*
X002839Y009874D02*
X002952Y009874D01*
X003009Y009817D01*
X003009Y009647D01*
X002668Y009647D01*
X002749Y008718D02*
X002522Y008718D01*
X002465Y008661D01*
X002465Y008548D01*
X002522Y008491D01*
X002749Y008718D01*
X002806Y008661D01*
X002806Y008548D01*
X002749Y008491D01*
X002522Y008491D01*
X002635Y008350D02*
X002635Y008123D01*
X002806Y008293D01*
X002465Y008293D01*
X002522Y007982D02*
X002465Y007925D01*
X002465Y007811D01*
X002522Y007755D01*
X002749Y007755D01*
X002806Y007811D01*
X002806Y007925D01*
X002749Y007982D01*
X002024Y007404D02*
X001854Y007234D01*
X001854Y007461D01*
X001684Y007404D02*
X002024Y007404D01*
X001854Y007093D02*
X001854Y006866D01*
X002024Y007036D01*
X001684Y007036D01*
X001684Y006724D02*
X001798Y006611D01*
X001798Y006668D02*
X001798Y006497D01*
X001684Y006497D02*
X002024Y006497D01*
X002024Y006668D01*
X001968Y006724D01*
X001854Y006724D01*
X001798Y006668D01*
X001421Y007242D02*
X001421Y007412D01*
X001365Y007469D01*
X001251Y007469D01*
X001194Y007412D01*
X001194Y007242D01*
X001081Y007242D02*
X001421Y007242D01*
X001194Y007355D02*
X001081Y007469D01*
X001138Y007610D02*
X001081Y007667D01*
X001081Y007780D01*
X001138Y007837D01*
X001365Y007837D01*
X001421Y007780D01*
X001421Y007667D01*
X001365Y007610D01*
X001308Y007610D01*
X001251Y007667D01*
X001251Y007837D01*
X002610Y006241D02*
X002553Y006184D01*
X002780Y005957D01*
X002723Y005901D01*
X002610Y005901D01*
X002553Y005957D01*
X002553Y006184D01*
X002610Y006241D02*
X002723Y006241D01*
X002780Y006184D01*
X002780Y005957D01*
X002921Y005957D02*
X002978Y005901D01*
X003091Y005901D01*
X003148Y005957D01*
X003148Y006071D02*
X003035Y006127D01*
X002978Y006127D01*
X002921Y006071D01*
X002921Y005957D01*
X003148Y006071D02*
X003148Y006241D01*
X002921Y006241D01*
X003290Y006184D02*
X003290Y006071D01*
X003346Y006014D01*
X003516Y006014D01*
X003403Y006014D02*
X003290Y005901D01*
X003516Y005901D02*
X003516Y006241D01*
X003346Y006241D01*
X003290Y006184D01*
X004237Y006630D02*
X004237Y006744D01*
X004294Y006800D01*
X004237Y006630D02*
X004294Y006574D01*
X004520Y006574D01*
X004577Y006630D01*
X004577Y006744D01*
X004520Y006800D01*
X004407Y006942D02*
X004407Y007169D01*
X004237Y007112D02*
X004577Y007112D01*
X004407Y006942D01*
X004520Y007310D02*
X004577Y007367D01*
X004577Y007480D01*
X004520Y007537D01*
X004464Y007537D01*
X004237Y007310D01*
X004237Y007537D01*
X004325Y007672D02*
X004552Y007672D01*
X004438Y007672D02*
X004438Y008012D01*
X004552Y007899D01*
X004693Y007899D02*
X004750Y007842D01*
X004693Y007786D01*
X004693Y007729D01*
X004750Y007672D01*
X004863Y007672D01*
X004920Y007729D01*
X005061Y007672D02*
X005175Y007786D01*
X005118Y007786D02*
X005288Y007786D01*
X005288Y007672D02*
X005288Y008012D01*
X005118Y008012D01*
X005061Y007956D01*
X005061Y007842D01*
X005118Y007786D01*
X004920Y007956D02*
X004863Y008012D01*
X004750Y008012D01*
X004693Y007956D01*
X004693Y007899D01*
X004750Y007842D02*
X004806Y007842D01*
X005703Y008656D02*
X005929Y008656D01*
X005703Y008883D01*
X005703Y008940D01*
X005759Y008997D01*
X005873Y008997D01*
X005929Y008940D01*
X006071Y008940D02*
X006071Y008883D01*
X006128Y008827D01*
X006071Y008770D01*
X006071Y008713D01*
X006128Y008656D01*
X006241Y008656D01*
X006298Y008713D01*
X006439Y008656D02*
X006553Y008770D01*
X006496Y008770D02*
X006666Y008770D01*
X006666Y008656D02*
X006666Y008997D01*
X006496Y008997D01*
X006439Y008940D01*
X006439Y008827D01*
X006496Y008770D01*
X006298Y008940D02*
X006241Y008997D01*
X006128Y008997D01*
X006071Y008940D01*
X006128Y008827D02*
X006184Y008827D01*
X005365Y009234D02*
X005365Y009461D01*
X005308Y009461D01*
X005081Y009234D01*
X005024Y009234D01*
X005194Y009602D02*
X005194Y009829D01*
X005251Y009971D02*
X005365Y010084D01*
X005024Y010084D01*
X005024Y009971D02*
X005024Y010198D01*
X005081Y010339D02*
X005138Y010339D01*
X005194Y010396D01*
X005194Y010509D01*
X005138Y010566D01*
X005081Y010566D01*
X005024Y010509D01*
X005024Y010396D01*
X005081Y010339D01*
X005194Y010396D02*
X005251Y010339D01*
X005308Y010339D01*
X005365Y010396D01*
X005365Y010509D01*
X005308Y010566D01*
X005251Y010566D01*
X005194Y010509D01*
X005138Y010707D02*
X005024Y010821D01*
X005138Y010934D01*
X005365Y010934D01*
X005365Y011076D02*
X005365Y011246D01*
X005308Y011303D01*
X005081Y011303D01*
X005024Y011246D01*
X005024Y011076D01*
X005365Y011076D01*
X005365Y010707D02*
X005138Y010707D01*
X004977Y011025D02*
X004637Y011025D01*
X004637Y011252D01*
X004694Y011393D02*
X004637Y011450D01*
X004637Y011563D01*
X004694Y011620D01*
X004750Y011620D01*
X004807Y011563D01*
X004807Y011507D01*
X004807Y011563D02*
X004864Y011620D01*
X004920Y011620D01*
X004977Y011563D01*
X004977Y011450D01*
X004920Y011393D01*
X005024Y011501D02*
X005024Y011614D01*
X005081Y011671D01*
X005024Y011501D02*
X005081Y011444D01*
X005308Y011444D01*
X005365Y011501D01*
X005365Y011614D01*
X005308Y011671D01*
X015654Y009055D02*
X015711Y009112D01*
X015824Y009112D01*
X015824Y008998D01*
X015711Y008885D02*
X015654Y008942D01*
X015654Y009055D01*
X015711Y008885D02*
X015938Y008885D01*
X015995Y008942D01*
X015995Y009055D01*
X015938Y009112D01*
X015881Y008744D02*
X015654Y008744D01*
X015824Y008744D02*
X015824Y008517D01*
X015881Y008517D02*
X015995Y008630D01*
X015881Y008744D01*
X015881Y008517D02*
X015654Y008517D01*
X015654Y008262D02*
X015995Y008262D01*
X015995Y008375D02*
X015995Y008148D01*
X015995Y008007D02*
X015995Y007894D01*
X015995Y007950D02*
X015711Y007950D01*
X015654Y007894D01*
X015654Y007837D01*
X015711Y007780D01*
X023270Y010703D02*
X023270Y010930D01*
X023270Y010703D02*
X023611Y010703D01*
X023611Y011071D02*
X023611Y011298D01*
X023611Y011185D02*
X023270Y011185D01*
X023384Y011440D02*
X023270Y011553D01*
X023384Y011667D01*
X023611Y011667D01*
X023611Y011440D02*
X023384Y011440D01*
X035679Y002791D02*
X035906Y002791D01*
X035906Y002451D01*
X035679Y002451D01*
X035793Y002621D02*
X035906Y002621D01*
X036048Y002621D02*
X036161Y002621D01*
X036048Y002621D02*
X036048Y002507D01*
X036104Y002451D01*
X036218Y002451D01*
X036274Y002507D01*
X036274Y002734D01*
X036218Y002791D01*
X036104Y002791D01*
X036048Y002734D01*
X036416Y002734D02*
X036416Y002621D01*
X036473Y002564D01*
X036643Y002564D01*
X036643Y002451D02*
X036643Y002791D01*
X036473Y002791D01*
X036416Y002734D01*
X036529Y002564D02*
X036416Y002451D01*
X036784Y002451D02*
X036784Y002677D01*
X036898Y002791D01*
X037011Y002677D01*
X037011Y002451D01*
X037152Y002451D02*
X037152Y002791D01*
X037152Y002621D02*
X037379Y002621D01*
X037379Y002451D02*
X037379Y002791D01*
X037521Y002734D02*
X037577Y002791D01*
X037691Y002791D01*
X037748Y002734D01*
X037748Y002507D01*
X037691Y002451D01*
X037577Y002451D01*
X037521Y002507D01*
X037011Y002621D02*
X036784Y002621D01*
X037865Y003348D02*
X038092Y003348D01*
X037865Y003575D01*
X037865Y003631D01*
X037922Y003688D01*
X038036Y003688D01*
X038092Y003631D01*
X038234Y003688D02*
X038347Y003631D01*
X038461Y003518D01*
X038290Y003518D01*
X038234Y003461D01*
X038234Y003404D01*
X038290Y003348D01*
X038404Y003348D01*
X038461Y003404D01*
X038461Y003518D01*
X038602Y003518D02*
X038659Y003461D01*
X038829Y003461D01*
X038829Y003348D02*
X038829Y003688D01*
X038659Y003688D01*
X038602Y003631D01*
X038602Y003518D01*
X038715Y003461D02*
X038602Y003348D01*
X038678Y013387D02*
X038678Y013614D01*
X038792Y013727D01*
X038905Y013614D01*
X038905Y013387D01*
X038905Y013557D02*
X038678Y013557D01*
X039047Y013557D02*
X039273Y013557D01*
X039415Y013557D02*
X039642Y013557D01*
X039642Y013387D02*
X039642Y013727D01*
X039783Y013671D02*
X039840Y013727D01*
X039953Y013727D01*
X040010Y013671D01*
X040010Y013444D01*
X039953Y013387D01*
X039840Y013387D01*
X039783Y013444D01*
X039415Y013387D02*
X039415Y013727D01*
D13*
X004032Y010353D02*
X003764Y010353D01*
X003960Y010188D02*
X003962Y010203D01*
X003968Y010217D01*
X003978Y010229D01*
X003990Y010238D01*
X004005Y010243D01*
X004020Y010244D01*
X004035Y010241D01*
X004048Y010234D01*
X004059Y010223D01*
X004067Y010210D01*
X004071Y010196D01*
X004071Y010180D01*
X004067Y010166D01*
X004059Y010153D01*
X004048Y010142D01*
X004035Y010135D01*
X004020Y010132D01*
X004005Y010133D01*
X003990Y010138D01*
X003978Y010147D01*
X003968Y010159D01*
X003962Y010173D01*
X003960Y010188D01*
X004032Y009322D02*
X003764Y009322D01*
D14*
X003523Y009051D02*
X003326Y009051D01*
X003326Y008608D02*
X003523Y008608D01*
X003547Y008197D02*
X003704Y008197D01*
X003704Y007882D02*
X003547Y007882D01*
X003462Y007134D02*
X003462Y006976D01*
X003187Y006976D02*
X003187Y007134D01*
X002872Y007134D02*
X002872Y006976D01*
X002602Y006982D02*
X002602Y007140D01*
X002287Y007140D02*
X002287Y006982D01*
X003777Y006976D02*
X003777Y007134D01*
X004728Y008669D02*
X004885Y008669D01*
X004885Y008984D02*
X004728Y008984D01*
X001950Y009986D02*
X001754Y009986D01*
X001754Y010429D02*
X001950Y010429D01*
X001949Y011128D02*
X001743Y011128D01*
X001331Y011255D02*
X001331Y011523D01*
X001441Y011507D02*
X001443Y011522D01*
X001449Y011536D01*
X001459Y011548D01*
X001471Y011557D01*
X001486Y011562D01*
X001501Y011563D01*
X001516Y011560D01*
X001529Y011553D01*
X001540Y011542D01*
X001548Y011529D01*
X001552Y011515D01*
X001552Y011499D01*
X001548Y011485D01*
X001540Y011472D01*
X001529Y011461D01*
X001516Y011454D01*
X001501Y011451D01*
X001486Y011452D01*
X001471Y011457D01*
X001459Y011466D01*
X001449Y011478D01*
X001443Y011492D01*
X001441Y011507D01*
X002363Y011523D02*
X002363Y011255D01*
X001927Y012218D02*
X001769Y012218D01*
X001769Y012533D02*
X001927Y012533D01*
X002344Y013726D02*
X002541Y013726D01*
X002541Y014169D02*
X002344Y014169D01*
X001618Y014659D02*
X001618Y014817D01*
X001303Y014817D02*
X001303Y014659D01*
X002360Y014974D02*
X002517Y014974D01*
X002517Y015289D02*
X002360Y015289D01*
X002366Y015559D02*
X002523Y015559D01*
X002523Y015874D02*
X002366Y015874D01*
X002366Y016149D02*
X002523Y016149D01*
X002523Y016464D02*
X002366Y016464D01*
X002366Y016740D02*
X002523Y016740D01*
X002523Y017055D02*
X002366Y017055D01*
X002360Y017336D02*
X002517Y017336D01*
X002517Y017651D02*
X002360Y017651D01*
X002360Y017927D02*
X002517Y017927D01*
X002517Y018242D02*
X002360Y018242D01*
X002360Y018518D02*
X002517Y018518D01*
X002517Y018833D02*
X002360Y018833D01*
X002360Y019108D02*
X002517Y019108D01*
X002517Y019423D02*
X002360Y019423D01*
X002360Y019699D02*
X002517Y019699D01*
X002517Y020014D02*
X002360Y020014D01*
X004005Y020186D02*
X004005Y020422D01*
X005087Y020422D01*
X004981Y019952D02*
X006162Y019952D01*
X006556Y022314D01*
X010610Y022314D01*
X010611Y022314D02*
X010611Y023889D01*
X024784Y023889D01*
X024784Y009715D01*
X010611Y009715D01*
X010611Y011290D01*
X010610Y011290D02*
X006556Y011290D01*
X006162Y013652D01*
X004981Y013652D01*
X004981Y019952D01*
X004350Y019654D02*
X004352Y019673D01*
X004358Y019691D01*
X004368Y019707D01*
X004381Y019721D01*
X004397Y019732D01*
X004414Y019739D01*
X004433Y019742D01*
X004452Y019741D01*
X004471Y019736D01*
X004487Y019727D01*
X004502Y019715D01*
X004513Y019699D01*
X004521Y019682D01*
X004525Y019664D01*
X004525Y019644D01*
X004521Y019626D01*
X004513Y019609D01*
X004502Y019593D01*
X004487Y019581D01*
X004471Y019572D01*
X004452Y019567D01*
X004433Y019566D01*
X004414Y019569D01*
X004397Y019576D01*
X004381Y019587D01*
X004368Y019601D01*
X004358Y019617D01*
X004352Y019635D01*
X004350Y019654D01*
X004103Y019851D02*
X004103Y020186D01*
X004005Y020186D01*
X005956Y020086D02*
X006106Y019936D01*
X005956Y020086D02*
X006106Y020246D01*
X006111Y020422D02*
X005973Y020422D01*
X006111Y020422D02*
X006111Y013178D01*
X005973Y013178D01*
X005087Y013178D02*
X004005Y013178D01*
X004005Y013414D01*
X004103Y013414D01*
X004103Y013749D01*
X003901Y012527D02*
X003744Y012527D01*
X003744Y012212D02*
X003901Y012212D01*
X003901Y011937D02*
X003744Y011937D01*
X003744Y011622D02*
X003901Y011622D01*
X001618Y016037D02*
X001618Y016195D01*
X001303Y016195D02*
X001303Y016037D01*
X001303Y017612D02*
X001303Y017770D01*
X001618Y017770D02*
X001618Y017612D01*
X004961Y024381D02*
X004961Y025562D01*
X005827Y025562D02*
X005827Y024381D01*
X007745Y028046D02*
X007745Y029227D01*
X008611Y029227D02*
X008611Y028046D01*
X011335Y028046D02*
X011335Y029227D01*
X012201Y029227D02*
X012201Y028046D01*
X014821Y025441D02*
X014821Y025283D01*
X015135Y025283D02*
X015135Y025441D01*
X015591Y025759D02*
X015591Y024578D01*
X016457Y024578D02*
X016457Y025759D01*
X026769Y017061D02*
X026927Y017061D01*
X026927Y016746D02*
X026769Y016746D01*
X027675Y016583D02*
X027675Y016425D01*
X027990Y016425D02*
X027990Y016583D01*
X027911Y015486D02*
X027754Y015486D01*
X027754Y015171D02*
X027911Y015171D01*
X029137Y015165D02*
X029295Y015165D01*
X029295Y015480D02*
X029137Y015480D01*
X033271Y013709D02*
X033429Y013709D01*
X033429Y013394D02*
X033271Y013394D01*
X034059Y014575D02*
X034216Y014575D01*
X034216Y014890D02*
X034059Y014890D01*
X034256Y017527D02*
X034413Y017527D01*
X034413Y017842D02*
X034256Y017842D01*
X033822Y018118D02*
X033665Y018118D01*
X033665Y018433D02*
X033822Y018433D01*
X037714Y016386D02*
X037714Y016228D01*
X038029Y016228D02*
X038029Y016386D01*
X025631Y011743D02*
X025631Y009853D01*
X025040Y009853D01*
X023741Y009853D01*
X023741Y011743D01*
X025040Y011743D01*
X025631Y011743D01*
X038187Y003281D02*
X038344Y003281D01*
X038344Y002966D02*
X038187Y002966D01*
D15*
X002816Y004893D02*
X002819Y004966D01*
X002829Y005039D01*
X002846Y005111D01*
X002869Y005180D01*
X002898Y005248D01*
X002933Y005312D01*
X002974Y005373D01*
X003021Y005430D01*
X003072Y005483D01*
X003128Y005530D01*
X003188Y005573D01*
X003252Y005610D01*
X003318Y005640D01*
X003388Y005665D01*
X003459Y005683D01*
X003531Y005695D01*
X003605Y005700D01*
X003678Y005698D01*
X003751Y005690D01*
X003823Y005675D01*
X003893Y005653D01*
X003961Y005626D01*
X004026Y005592D01*
X004088Y005552D01*
X004146Y005507D01*
X004200Y005457D01*
X004249Y005402D01*
X004293Y005343D01*
X004331Y005280D01*
X004363Y005215D01*
X004389Y005146D01*
X004409Y005075D01*
X004422Y005003D01*
X004429Y004930D01*
X004429Y004856D01*
X004422Y004783D01*
X004409Y004711D01*
X004389Y004640D01*
X004363Y004571D01*
X004331Y004506D01*
X004293Y004443D01*
X004249Y004384D01*
X004200Y004329D01*
X004146Y004279D01*
X004088Y004234D01*
X004027Y004194D01*
X003961Y004160D01*
X003893Y004133D01*
X003823Y004111D01*
X003751Y004096D01*
X003678Y004088D01*
X003605Y004086D01*
X003531Y004091D01*
X003459Y004103D01*
X003388Y004121D01*
X003318Y004146D01*
X003252Y004176D01*
X003188Y004213D01*
X003128Y004256D01*
X003072Y004303D01*
X003021Y004356D01*
X002974Y004413D01*
X002933Y004474D01*
X002898Y004538D01*
X002869Y004606D01*
X002846Y004675D01*
X002829Y004747D01*
X002819Y004820D01*
X002816Y004893D01*
X010887Y008633D02*
X010890Y008706D01*
X010900Y008779D01*
X010917Y008851D01*
X010940Y008920D01*
X010969Y008988D01*
X011004Y009052D01*
X011045Y009113D01*
X011092Y009170D01*
X011143Y009223D01*
X011199Y009270D01*
X011259Y009313D01*
X011323Y009350D01*
X011389Y009380D01*
X011459Y009405D01*
X011530Y009423D01*
X011602Y009435D01*
X011676Y009440D01*
X011749Y009438D01*
X011822Y009430D01*
X011894Y009415D01*
X011964Y009393D01*
X012032Y009366D01*
X012097Y009332D01*
X012159Y009292D01*
X012217Y009247D01*
X012271Y009197D01*
X012320Y009142D01*
X012364Y009083D01*
X012402Y009020D01*
X012434Y008955D01*
X012460Y008886D01*
X012480Y008815D01*
X012493Y008743D01*
X012500Y008670D01*
X012500Y008596D01*
X012493Y008523D01*
X012480Y008451D01*
X012460Y008380D01*
X012434Y008311D01*
X012402Y008246D01*
X012364Y008183D01*
X012320Y008124D01*
X012271Y008069D01*
X012217Y008019D01*
X012159Y007974D01*
X012098Y007934D01*
X012032Y007900D01*
X011964Y007873D01*
X011894Y007851D01*
X011822Y007836D01*
X011749Y007828D01*
X011676Y007826D01*
X011602Y007831D01*
X011530Y007843D01*
X011459Y007861D01*
X011389Y007886D01*
X011323Y007916D01*
X011259Y007953D01*
X011199Y007996D01*
X011143Y008043D01*
X011092Y008096D01*
X011045Y008153D01*
X011004Y008214D01*
X010969Y008278D01*
X010940Y008346D01*
X010917Y008415D01*
X010900Y008487D01*
X010890Y008560D01*
X010887Y008633D01*
X023091Y008633D02*
X023094Y008706D01*
X023104Y008779D01*
X023121Y008851D01*
X023144Y008920D01*
X023173Y008988D01*
X023208Y009052D01*
X023249Y009113D01*
X023296Y009170D01*
X023347Y009223D01*
X023403Y009270D01*
X023463Y009313D01*
X023527Y009350D01*
X023593Y009380D01*
X023663Y009405D01*
X023734Y009423D01*
X023806Y009435D01*
X023880Y009440D01*
X023953Y009438D01*
X024026Y009430D01*
X024098Y009415D01*
X024168Y009393D01*
X024236Y009366D01*
X024301Y009332D01*
X024363Y009292D01*
X024421Y009247D01*
X024475Y009197D01*
X024524Y009142D01*
X024568Y009083D01*
X024606Y009020D01*
X024638Y008955D01*
X024664Y008886D01*
X024684Y008815D01*
X024697Y008743D01*
X024704Y008670D01*
X024704Y008596D01*
X024697Y008523D01*
X024684Y008451D01*
X024664Y008380D01*
X024638Y008311D01*
X024606Y008246D01*
X024568Y008183D01*
X024524Y008124D01*
X024475Y008069D01*
X024421Y008019D01*
X024363Y007974D01*
X024302Y007934D01*
X024236Y007900D01*
X024168Y007873D01*
X024098Y007851D01*
X024026Y007836D01*
X023953Y007828D01*
X023880Y007826D01*
X023806Y007831D01*
X023734Y007843D01*
X023663Y007861D01*
X023593Y007886D01*
X023527Y007916D01*
X023463Y007953D01*
X023403Y007996D01*
X023347Y008043D01*
X023296Y008096D01*
X023249Y008153D01*
X023208Y008214D01*
X023173Y008278D01*
X023144Y008346D01*
X023121Y008415D01*
X023104Y008487D01*
X023094Y008560D01*
X023091Y008633D01*
X036674Y004893D02*
X036677Y004966D01*
X036687Y005039D01*
X036704Y005111D01*
X036727Y005180D01*
X036756Y005248D01*
X036791Y005312D01*
X036832Y005373D01*
X036879Y005430D01*
X036930Y005483D01*
X036986Y005530D01*
X037046Y005573D01*
X037110Y005610D01*
X037176Y005640D01*
X037246Y005665D01*
X037317Y005683D01*
X037389Y005695D01*
X037463Y005700D01*
X037536Y005698D01*
X037609Y005690D01*
X037681Y005675D01*
X037751Y005653D01*
X037819Y005626D01*
X037884Y005592D01*
X037946Y005552D01*
X038004Y005507D01*
X038058Y005457D01*
X038107Y005402D01*
X038151Y005343D01*
X038189Y005280D01*
X038221Y005215D01*
X038247Y005146D01*
X038267Y005075D01*
X038280Y005003D01*
X038287Y004930D01*
X038287Y004856D01*
X038280Y004783D01*
X038267Y004711D01*
X038247Y004640D01*
X038221Y004571D01*
X038189Y004506D01*
X038151Y004443D01*
X038107Y004384D01*
X038058Y004329D01*
X038004Y004279D01*
X037946Y004234D01*
X037885Y004194D01*
X037819Y004160D01*
X037751Y004133D01*
X037681Y004111D01*
X037609Y004096D01*
X037536Y004088D01*
X037463Y004086D01*
X037389Y004091D01*
X037317Y004103D01*
X037246Y004121D01*
X037176Y004146D01*
X037110Y004176D01*
X037046Y004213D01*
X036986Y004256D01*
X036930Y004303D01*
X036879Y004356D01*
X036832Y004413D01*
X036791Y004474D01*
X036756Y004538D01*
X036727Y004606D01*
X036704Y004675D01*
X036687Y004747D01*
X036677Y004820D01*
X036674Y004893D01*
X023091Y024971D02*
X023094Y025044D01*
X023104Y025117D01*
X023121Y025189D01*
X023144Y025258D01*
X023173Y025326D01*
X023208Y025390D01*
X023249Y025451D01*
X023296Y025508D01*
X023347Y025561D01*
X023403Y025608D01*
X023463Y025651D01*
X023527Y025688D01*
X023593Y025718D01*
X023663Y025743D01*
X023734Y025761D01*
X023806Y025773D01*
X023880Y025778D01*
X023953Y025776D01*
X024026Y025768D01*
X024098Y025753D01*
X024168Y025731D01*
X024236Y025704D01*
X024301Y025670D01*
X024363Y025630D01*
X024421Y025585D01*
X024475Y025535D01*
X024524Y025480D01*
X024568Y025421D01*
X024606Y025358D01*
X024638Y025293D01*
X024664Y025224D01*
X024684Y025153D01*
X024697Y025081D01*
X024704Y025008D01*
X024704Y024934D01*
X024697Y024861D01*
X024684Y024789D01*
X024664Y024718D01*
X024638Y024649D01*
X024606Y024584D01*
X024568Y024521D01*
X024524Y024462D01*
X024475Y024407D01*
X024421Y024357D01*
X024363Y024312D01*
X024302Y024272D01*
X024236Y024238D01*
X024168Y024211D01*
X024098Y024189D01*
X024026Y024174D01*
X023953Y024166D01*
X023880Y024164D01*
X023806Y024169D01*
X023734Y024181D01*
X023663Y024199D01*
X023593Y024224D01*
X023527Y024254D01*
X023463Y024291D01*
X023403Y024334D01*
X023347Y024381D01*
X023296Y024434D01*
X023249Y024491D01*
X023208Y024552D01*
X023173Y024616D01*
X023144Y024684D01*
X023121Y024753D01*
X023104Y024825D01*
X023094Y024898D01*
X023091Y024971D01*
X010887Y024971D02*
X010890Y025044D01*
X010900Y025117D01*
X010917Y025189D01*
X010940Y025258D01*
X010969Y025326D01*
X011004Y025390D01*
X011045Y025451D01*
X011092Y025508D01*
X011143Y025561D01*
X011199Y025608D01*
X011259Y025651D01*
X011323Y025688D01*
X011389Y025718D01*
X011459Y025743D01*
X011530Y025761D01*
X011602Y025773D01*
X011676Y025778D01*
X011749Y025776D01*
X011822Y025768D01*
X011894Y025753D01*
X011964Y025731D01*
X012032Y025704D01*
X012097Y025670D01*
X012159Y025630D01*
X012217Y025585D01*
X012271Y025535D01*
X012320Y025480D01*
X012364Y025421D01*
X012402Y025358D01*
X012434Y025293D01*
X012460Y025224D01*
X012480Y025153D01*
X012493Y025081D01*
X012500Y025008D01*
X012500Y024934D01*
X012493Y024861D01*
X012480Y024789D01*
X012460Y024718D01*
X012434Y024649D01*
X012402Y024584D01*
X012364Y024521D01*
X012320Y024462D01*
X012271Y024407D01*
X012217Y024357D01*
X012159Y024312D01*
X012098Y024272D01*
X012032Y024238D01*
X011964Y024211D01*
X011894Y024189D01*
X011822Y024174D01*
X011749Y024166D01*
X011676Y024164D01*
X011602Y024169D01*
X011530Y024181D01*
X011459Y024199D01*
X011389Y024224D01*
X011323Y024254D01*
X011259Y024291D01*
X011199Y024334D01*
X011143Y024381D01*
X011092Y024434D01*
X011045Y024491D01*
X011004Y024552D01*
X010969Y024616D01*
X010940Y024684D01*
X010917Y024753D01*
X010900Y024825D01*
X010890Y024898D01*
X010887Y024971D01*
X002816Y028121D02*
X002819Y028194D01*
X002829Y028267D01*
X002846Y028339D01*
X002869Y028408D01*
X002898Y028476D01*
X002933Y028540D01*
X002974Y028601D01*
X003021Y028658D01*
X003072Y028711D01*
X003128Y028758D01*
X003188Y028801D01*
X003252Y028838D01*
X003318Y028868D01*
X003388Y028893D01*
X003459Y028911D01*
X003531Y028923D01*
X003605Y028928D01*
X003678Y028926D01*
X003751Y028918D01*
X003823Y028903D01*
X003893Y028881D01*
X003961Y028854D01*
X004026Y028820D01*
X004088Y028780D01*
X004146Y028735D01*
X004200Y028685D01*
X004249Y028630D01*
X004293Y028571D01*
X004331Y028508D01*
X004363Y028443D01*
X004389Y028374D01*
X004409Y028303D01*
X004422Y028231D01*
X004429Y028158D01*
X004429Y028084D01*
X004422Y028011D01*
X004409Y027939D01*
X004389Y027868D01*
X004363Y027799D01*
X004331Y027734D01*
X004293Y027671D01*
X004249Y027612D01*
X004200Y027557D01*
X004146Y027507D01*
X004088Y027462D01*
X004027Y027422D01*
X003961Y027388D01*
X003893Y027361D01*
X003823Y027339D01*
X003751Y027324D01*
X003678Y027316D01*
X003605Y027314D01*
X003531Y027319D01*
X003459Y027331D01*
X003388Y027349D01*
X003318Y027374D01*
X003252Y027404D01*
X003188Y027441D01*
X003128Y027484D01*
X003072Y027531D01*
X003021Y027584D01*
X002974Y027641D01*
X002933Y027702D01*
X002898Y027766D01*
X002869Y027834D01*
X002846Y027903D01*
X002829Y027975D01*
X002819Y028048D01*
X002816Y028121D01*
X036674Y028121D02*
X036677Y028194D01*
X036687Y028267D01*
X036704Y028339D01*
X036727Y028408D01*
X036756Y028476D01*
X036791Y028540D01*
X036832Y028601D01*
X036879Y028658D01*
X036930Y028711D01*
X036986Y028758D01*
X037046Y028801D01*
X037110Y028838D01*
X037176Y028868D01*
X037246Y028893D01*
X037317Y028911D01*
X037389Y028923D01*
X037463Y028928D01*
X037536Y028926D01*
X037609Y028918D01*
X037681Y028903D01*
X037751Y028881D01*
X037819Y028854D01*
X037884Y028820D01*
X037946Y028780D01*
X038004Y028735D01*
X038058Y028685D01*
X038107Y028630D01*
X038151Y028571D01*
X038189Y028508D01*
X038221Y028443D01*
X038247Y028374D01*
X038267Y028303D01*
X038280Y028231D01*
X038287Y028158D01*
X038287Y028084D01*
X038280Y028011D01*
X038267Y027939D01*
X038247Y027868D01*
X038221Y027799D01*
X038189Y027734D01*
X038151Y027671D01*
X038107Y027612D01*
X038058Y027557D01*
X038004Y027507D01*
X037946Y027462D01*
X037885Y027422D01*
X037819Y027388D01*
X037751Y027361D01*
X037681Y027339D01*
X037609Y027324D01*
X037536Y027316D01*
X037463Y027314D01*
X037389Y027319D01*
X037317Y027331D01*
X037246Y027349D01*
X037176Y027374D01*
X037110Y027404D01*
X037046Y027441D01*
X036986Y027484D01*
X036930Y027531D01*
X036879Y027584D01*
X036832Y027641D01*
X036791Y027702D01*
X036756Y027766D01*
X036727Y027834D01*
X036704Y027903D01*
X036687Y027975D01*
X036677Y028048D01*
X036674Y028121D01*
M02*
